<svg width="32" height="32" viewBox="0 0 32 32" fill="none" xmlns="http://www.w3.org/2000/svg">
<g clip-path="url(#clip0_1_1778)">
<circle cx="16" cy="16" r="16" fill="black"/>
<mask id="path-2-inside-1_1_1778" fill="white">
<path d="M12.2908 23H8.99538L14.0167 8.45455H17.9798L22.994 23H19.6985L16.055 11.7784H15.9414L12.2908 23ZM12.0849 17.2827H19.869V19.6832H12.0849V17.2827Z"/>
</mask>
<path d="M12.2908 23V25.5H14.1065L14.6682 23.7734L12.2908 23ZM8.99538 23L6.63223 22.1842L5.48757 25.5H8.99538V23ZM14.0167 8.45455V5.95455H12.235L11.6535 7.63875L14.0167 8.45455ZM17.9798 8.45455L20.3433 7.63978L19.7623 5.95455H17.9798V8.45455ZM22.994 23V25.5H26.5002L25.3575 22.1852L22.994 23ZM19.6985 23L17.3207 23.772L17.8817 25.5H19.6985V23ZM16.055 11.7784L18.4328 11.0064L17.8718 9.27841H16.055V11.7784ZM15.9414 11.7784V9.27841H14.1257L13.564 11.005L15.9414 11.7784ZM12.0849 17.2827V14.7827H9.58487V17.2827H12.0849ZM19.869 17.2827H22.369V14.7827H19.869V17.2827ZM19.869 19.6832V22.1832H22.369V19.6832H19.869ZM12.0849 19.6832H9.58487V22.1832H12.0849V19.6832ZM12.2908 20.5H8.99538V25.5H12.2908V20.5ZM11.3585 23.8158L16.3798 9.27034L11.6535 7.63875L6.63223 22.1842L11.3585 23.8158ZM14.0167 10.9545H17.9798V5.95455H14.0167V10.9545ZM15.6163 9.26931L20.6305 23.8148L25.3575 22.1852L20.3433 7.63978L15.6163 9.26931ZM22.994 20.5H19.6985V25.5H22.994V20.5ZM22.0763 22.228L18.4328 11.0064L13.6772 12.5504L17.3207 23.772L22.0763 22.228ZM16.055 9.27841H15.9414V14.2784H16.055V9.27841ZM13.564 11.005L9.91347 22.2266L14.6682 23.7734L18.3188 12.5518L13.564 11.005ZM12.0849 19.7827H19.869V14.7827H12.0849V19.7827ZM17.369 17.2827V19.6832H22.369V17.2827H17.369ZM19.869 17.1832H12.0849V22.1832H19.869V17.1832ZM14.5849 19.6832V17.2827H9.58487V19.6832H14.5849Z" fill="white" mask="url(#path-2-inside-1_1_1778)"/>
</g>
<defs>
<clipPath id="clip0_1_1778">
<rect width="32" height="32" fill="white"/>
</clipPath>
</defs>
</svg>
