<svg width="32" height="32" viewBox="0 0 32 32" fill="none" xmlns="http://www.w3.org/2000/svg">
<path fill-rule="evenodd" clip-rule="evenodd" d="M21 0L16 5L11 0H21ZM0 15C0 10.5817 3.58172 7 8 7H24C28.4183 7 32 10.5817 32 15V18C32 22.4183 28.4183 26 24 26H23.1111V32H8.88892V26H8C3.58172 26 0 22.4183 0 18V15Z" fill="black"/>
<mask id="path-2-inside-1_1_1788" fill="white">
<path d="M12.6945 22V10.3636H15.1547V19.9716H20.1433V22H12.6945Z"/>
</mask>
<path d="M12.6945 22H10.1945V24.5H12.6945V22ZM12.6945 10.3636V7.86364H10.1945V10.3636H12.6945ZM15.1547 10.3636H17.6547V7.86364H15.1547V10.3636ZM15.1547 19.9716H12.6547V22.4716H15.1547V19.9716ZM20.1433 19.9716H22.6433V17.4716H20.1433V19.9716ZM20.1433 22V24.5H22.6433V22H20.1433ZM15.1945 22V10.3636H10.1945V22H15.1945ZM12.6945 12.8636H15.1547V7.86364H12.6945V12.8636ZM12.6547 10.3636V19.9716H17.6547V10.3636H12.6547ZM15.1547 22.4716H20.1433V17.4716H15.1547V22.4716ZM17.6433 19.9716V22H22.6433V19.9716H17.6433ZM20.1433 19.5H12.6945V24.5H20.1433V19.5Z" fill="white" mask="url(#path-2-inside-1_1_1788)"/>
</svg>
