<svg width="32" height="32" viewBox="0 0 32 32" fill="none" xmlns="http://www.w3.org/2000/svg">
<path d="M0 16C0 7.16344 7.16344 0 16 0C24.8366 0 32 7.16344 32 16V29C32 30.6569 30.6569 32 29 32H3C1.34315 32 0 30.6569 0 29V16Z" fill="black"/>
<mask id="path-2-inside-1_1_1782" fill="white">
<path d="M6.08114 25.0005V11.9096H8.8489V22.7185H14.4611V25.0005H6.08114ZM16.294 25.0005V11.9096H21.5355C22.4986 11.9096 23.3018 12.0523 23.9453 12.3378C24.5888 12.6234 25.0724 13.0197 25.3963 13.5268C25.7202 14.0296 25.8821 14.6092 25.8821 15.2654C25.8821 15.7768 25.7798 16.2263 25.5753 16.6141C25.3707 16.9976 25.0895 17.313 24.7315 17.5601C24.3778 17.803 23.973 17.9756 23.517 18.0779V18.2057C24.0156 18.2271 24.4822 18.3677 24.9169 18.6276C25.3558 18.8876 25.7116 19.2519 25.9844 19.7207C26.2571 20.1851 26.3935 20.7391 26.3935 21.3826C26.3935 22.0772 26.2209 22.6972 25.8757 23.2427C25.5348 23.7839 25.0298 24.2121 24.3608 24.5275C23.6918 24.8428 22.8672 25.0005 21.8871 25.0005H16.294ZM19.0618 22.7377H21.3182C22.0895 22.7377 22.652 22.5907 23.0057 22.2967C23.3594 21.9984 23.5362 21.6021 23.5362 21.1077C23.5362 20.7455 23.4489 20.4259 23.2741 20.1489C23.0994 19.8719 22.8501 19.6546 22.5263 19.4969C22.2067 19.3393 21.8253 19.2604 21.3821 19.2604H19.0618V22.7377ZM19.0618 17.3876H21.1136C21.4929 17.3876 21.8295 17.3215 22.1236 17.1894C22.4219 17.053 22.6563 16.8613 22.8267 16.6141C23.0014 16.367 23.0888 16.0708 23.0888 15.7256C23.0888 15.2526 22.9205 14.8712 22.5838 14.5815C22.2514 14.2917 21.7784 14.1468 21.1648 14.1468H19.0618V17.3876Z"/>
</mask>
<path d="M6.08114 25.0005H3.58114V27.5005H6.08114V25.0005ZM6.08114 11.9096V9.40958H3.58114V11.9096H6.08114ZM8.8489 11.9096H11.3489V9.40958H8.8489V11.9096ZM8.8489 22.7185H6.3489V25.2185H8.8489V22.7185ZM14.4611 22.7185H16.9611V20.2185H14.4611V22.7185ZM14.4611 25.0005V27.5005H16.9611V25.0005H14.4611ZM8.58114 25.0005V11.9096H3.58114V25.0005H8.58114ZM6.08114 14.4096H8.8489V9.40958H6.08114V14.4096ZM6.3489 11.9096V22.7185H11.3489V11.9096H6.3489ZM8.8489 25.2185H14.4611V20.2185H8.8489V25.2185ZM11.9611 22.7185V25.0005H16.9611V22.7185H11.9611ZM14.4611 22.5005H6.08114V27.5005H14.4611V22.5005ZM16.294 25.0005H13.794V27.5005H16.294V25.0005ZM16.294 11.9096V9.40958H13.794V11.9096H16.294ZM23.9453 12.3378L22.9314 14.623V14.623L23.9453 12.3378ZM25.3963 13.5268L23.2893 14.8724L23.2945 14.8805L25.3963 13.5268ZM25.5753 16.6141L27.7812 17.7906L27.7865 17.7805L25.5753 16.6141ZM24.7315 17.5601L26.1468 19.621L26.152 19.6174L24.7315 17.5601ZM23.517 18.0779L22.9699 15.6385L21.017 16.0765V18.0779H23.517ZM23.517 18.2057H21.017V20.6012L23.4103 20.7035L23.517 18.2057ZM24.9169 18.6276L23.6337 20.7732L23.643 20.7787L24.9169 18.6276ZM25.9844 19.7207L23.8235 20.9779L23.8285 20.9865L25.9844 19.7207ZM25.8757 23.2427L23.7632 21.9058L23.7604 21.9102L25.8757 23.2427ZM24.3608 24.5275L23.2949 22.2661L23.2949 22.2661L24.3608 24.5275ZM19.0618 22.7377H16.5618V25.2377H19.0618V22.7377ZM23.0057 22.2967L24.6039 24.2191L24.6107 24.2134L24.6174 24.2077L23.0057 22.2967ZM23.2741 20.1489L21.1597 21.4827V21.4827L23.2741 20.1489ZM22.5263 19.4969L21.4202 21.739L21.432 21.7447L22.5263 19.4969ZM19.0618 19.2604V16.7604H16.5618V19.2604H19.0618ZM19.0618 17.3876H16.5618V19.8876H19.0618V17.3876ZM22.1236 17.1894L23.1481 19.4698L23.1556 19.4665L23.163 19.4631L22.1236 17.1894ZM22.8267 16.6141L20.7853 15.171L20.7769 15.1829L20.7687 15.1948L22.8267 16.6141ZM22.5838 14.5815L20.941 16.4659L20.9469 16.4711L20.9529 16.4762L22.5838 14.5815ZM19.0618 14.1468V11.6468H16.5618V14.1468H19.0618ZM18.794 25.0005V11.9096H13.794V25.0005H18.794ZM16.294 14.4096H21.5355V9.40958H16.294V14.4096ZM21.5355 14.4096C22.2702 14.4096 22.7017 14.5211 22.9314 14.623L24.9593 10.0527C23.902 9.58357 22.727 9.40958 21.5355 9.40958V14.4096ZM22.9314 14.623C23.2041 14.744 23.2721 14.8454 23.2893 14.8724L27.5033 12.1811C26.8728 11.1939 25.9735 10.5027 24.9593 10.0527L22.9314 14.623ZM23.2945 14.8805C23.3334 14.9408 23.3821 15.0408 23.3821 15.2654H28.3821C28.3821 14.1775 28.107 13.1184 27.4981 12.1731L23.2945 14.8805ZM23.3821 15.2654C23.3821 15.3545 23.3732 15.4072 23.3677 15.4316C23.3625 15.4544 23.3593 15.4568 23.364 15.4478L27.7865 17.7805C28.21 16.9777 28.3821 16.1155 28.3821 15.2654H23.3821ZM23.3694 15.4377C23.3528 15.4688 23.3409 15.4823 23.3111 15.5029L26.152 19.6174C26.838 19.1437 27.3887 18.5265 27.7812 17.7906L23.3694 15.4377ZM23.3163 15.4993C23.2477 15.5464 23.1428 15.5997 22.9699 15.6385L24.0642 20.5173C24.8032 20.3515 25.508 20.0597 26.1468 19.621L23.3163 15.4993ZM21.017 18.0779V18.2057H26.017V18.0779H21.017ZM23.4103 20.7035C23.4872 20.7067 23.5503 20.7233 23.6338 20.7732L26.2 16.482C25.4142 16.012 24.5441 15.7474 23.6238 15.708L23.4103 20.7035ZM23.643 20.7787C23.6916 20.8075 23.7513 20.8538 23.8235 20.9779L28.1452 18.4634C27.672 17.65 27.0201 16.9676 26.1908 16.4766L23.643 20.7787ZM23.8285 20.9865C23.8356 20.9986 23.8935 21.0972 23.8935 21.3826H28.8935C28.8935 20.381 28.6786 19.3717 28.1402 18.4548L23.8285 20.9865ZM23.8935 21.3826C23.8935 21.6414 23.8359 21.7909 23.7632 21.9058L27.9883 24.5795C28.6059 23.6035 28.8935 22.513 28.8935 21.3826H23.8935ZM23.7604 21.9102C23.7113 21.9881 23.6016 22.1215 23.2949 22.2661L25.4267 26.7889C26.458 26.3028 27.3583 25.5796 27.991 24.5751L23.7604 21.9102ZM23.2949 22.2661C23.0492 22.3819 22.613 22.5005 21.8871 22.5005V27.5005C23.1214 27.5005 24.3344 27.3037 25.4267 26.7889L23.2949 22.2661ZM21.8871 22.5005H16.294V27.5005H21.8871V22.5005ZM19.0618 25.2377H21.3182V20.2377H19.0618V25.2377ZM21.3182 25.2377C22.3101 25.2377 23.5845 25.0665 24.6039 24.2191L21.4075 20.3742C21.5765 20.2337 21.7038 20.2041 21.6864 20.2087C21.6797 20.2104 21.6474 20.2182 21.5836 20.2252C21.5201 20.2322 21.4327 20.2377 21.3182 20.2377V25.2377ZM24.6174 24.2077C25.5768 23.3986 26.0362 22.2815 26.0362 21.1077H21.0362C21.0362 21.0526 21.0473 20.9211 21.1206 20.7569C21.1958 20.5883 21.3021 20.463 21.3939 20.3856L24.6174 24.2077ZM26.0362 21.1077C26.0362 20.3252 25.8415 19.5331 25.3886 18.8152L21.1597 21.4827C21.1137 21.4098 21.0799 21.3312 21.0592 21.2555C21.0389 21.1816 21.0362 21.1288 21.0362 21.1077H26.0362ZM25.3886 18.8152C24.9411 18.1057 24.3197 17.5895 23.6206 17.2492L21.432 21.7447C21.4133 21.7356 21.3687 21.711 21.3133 21.6626C21.2566 21.6132 21.2032 21.5517 21.1597 21.4827L25.3886 18.8152ZM23.6323 17.2549C22.8952 16.8913 22.1175 16.7604 21.3821 16.7604V21.7604C21.4565 21.7604 21.4912 21.7671 21.4945 21.7678C21.4963 21.7682 21.4676 21.7623 21.4202 21.739L23.6323 17.2549ZM21.3821 16.7604H19.0618V21.7604H21.3821V16.7604ZM16.5618 19.2604V22.7377H21.5618V19.2604H16.5618ZM19.0618 19.8876H21.1136V14.8876H19.0618V19.8876ZM21.1136 19.8876C21.7844 19.8876 22.4801 19.77 23.1481 19.4698L21.099 14.909C21.1174 14.9008 21.1332 14.895 21.1457 14.8911C21.1581 14.8871 21.1663 14.8854 21.1692 14.8848C21.1751 14.8837 21.1584 14.8876 21.1136 14.8876V19.8876ZM23.163 19.4631C23.8325 19.157 24.4347 18.686 24.8847 18.0335L20.7687 15.1948C20.8179 15.1234 20.877 15.0599 20.94 15.0084C21.0019 14.9578 21.0544 14.9293 21.0842 14.9157L23.163 19.4631ZM24.8681 18.0572C25.3819 17.3304 25.5888 16.5124 25.5888 15.7256H20.5888C20.5888 15.6866 20.5939 15.6062 20.6254 15.4993C20.6578 15.3897 20.711 15.276 20.7853 15.171L24.8681 18.0572ZM25.5888 15.7256C25.5888 14.5783 25.1426 13.4853 24.2147 12.6867L20.9529 16.4762C20.8582 16.3947 20.7511 16.2658 20.6754 16.0942C20.6015 15.9268 20.5888 15.79 20.5888 15.7256H25.5888ZM24.2266 12.697C23.2881 11.8788 22.1466 11.6468 21.1648 11.6468V16.6468C21.2805 16.6468 21.2973 16.6611 21.2476 16.6458C21.1894 16.628 21.07 16.5783 20.941 16.4659L24.2266 12.697ZM21.1648 11.6468H19.0618V16.6468H21.1648V11.6468ZM16.5618 14.1468V17.3876H21.5618V14.1468H16.5618Z" fill="white" mask="url(#path-2-inside-1_1_1782)"/>
</svg>
