<svg width="46" height="32" viewBox="0 0 46 32" fill="none" xmlns="http://www.w3.org/2000/svg">
<path fill-rule="evenodd" clip-rule="evenodd" d="M15 3C10.5817 3 7 6.58172 7 11V14C7 18.4183 10.5817 22 15 22H15.8889V28H30.1111V22H31C35.4183 22 39 18.4183 39 14V11C39 6.58172 35.4183 3 31 3H15ZM46 14L41 9V19L46 14ZM5 9L0 14L5 19L5 9Z" fill="black"/>
<mask id="path-2-inside-1_1_1791" fill="white">
<path d="M19.6945 19V7.36364H22.1547V16.9716H27.1433V19H19.6945Z"/>
</mask>
<path d="M19.6945 19H17.1945V21.5H19.6945V19ZM19.6945 7.36364V4.86364H17.1945V7.36364H19.6945ZM22.1547 7.36364H24.6547V4.86364H22.1547V7.36364ZM22.1547 16.9716H19.6547V19.4716H22.1547V16.9716ZM27.1433 16.9716H29.6433V14.4716H27.1433V16.9716ZM27.1433 19V21.5H29.6433V19H27.1433ZM22.1945 19V7.36364H17.1945V19H22.1945ZM19.6945 9.86364H22.1547V4.86364H19.6945V9.86364ZM19.6547 7.36364V16.9716H24.6547V7.36364H19.6547ZM22.1547 19.4716H27.1433V14.4716H22.1547V19.4716ZM24.6433 16.9716V19H29.6433V16.9716H24.6433ZM27.1433 16.5H19.6945V21.5H27.1433V16.5Z" fill="white" mask="url(#path-2-inside-1_1_1791)"/>
</svg>
