<svg width="32" height="32" viewBox="0 0 32 32" fill="none" xmlns="http://www.w3.org/2000/svg">
<path fill-rule="evenodd" clip-rule="evenodd" d="M8 3C3.58172 3 0 6.58172 0 11V14C0 18.4183 3.58172 22 8 22H8.88892V28H23.1111V22H24C28.4183 22 32 18.4183 32 14V11C32 6.58172 28.4183 3 24 3H8Z" fill="black"/>
<mask id="path-2-inside-1_1_1786" fill="white">
<path d="M7.45228 18V6.36364H9.91251V15.9716H14.9011V18H7.45228ZM22.8429 9.71023C22.7975 9.25189 22.6024 8.89583 22.2577 8.64205C21.913 8.38826 21.4452 8.26136 20.8543 8.26136C20.4528 8.26136 20.1137 8.31818 19.8372 8.43182C19.5607 8.54167 19.3486 8.69508 19.2009 8.89205C19.0569 9.08902 18.985 9.3125 18.985 9.5625C18.9774 9.77083 19.0209 9.95265 19.1156 10.108C19.2141 10.2633 19.3486 10.3977 19.519 10.5114C19.6895 10.6212 19.8865 10.7178 20.11 10.8011C20.3334 10.8807 20.5721 10.9489 20.8259 11.0057L21.8713 11.2557C22.3789 11.3693 22.8448 11.5208 23.269 11.7102C23.6933 11.8996 24.0607 12.1326 24.3713 12.4091C24.6819 12.6856 24.9225 13.0114 25.0929 13.3864C25.2671 13.7614 25.3562 14.1913 25.36 14.6761C25.3562 15.3883 25.1743 16.0057 24.8145 16.5284C24.4584 17.0473 23.9433 17.4508 23.269 17.7386C22.5986 18.0227 21.7899 18.1648 20.8429 18.1648C19.9035 18.1648 19.0853 18.0208 18.3884 17.733C17.6952 17.4451 17.1535 17.0189 16.7634 16.4545C16.377 15.8864 16.1743 15.1837 16.1554 14.3466H18.5361C18.5626 14.7367 18.6743 15.0625 18.8713 15.3239C19.0721 15.5814 19.3391 15.7765 19.6725 15.9091C20.0096 16.0379 20.3903 16.1023 20.8145 16.1023C21.2312 16.1023 21.5929 16.0417 21.8997 15.9205C22.2103 15.7992 22.4509 15.6307 22.6213 15.4148C22.7918 15.1989 22.877 14.9508 22.877 14.6705C22.877 14.4091 22.7993 14.1894 22.644 14.0114C22.4925 13.8333 22.269 13.6818 21.9736 13.5568C21.6819 13.4318 21.324 13.3182 20.8997 13.2159L19.6327 12.8977C18.6516 12.6591 17.877 12.286 17.3088 11.7784C16.7406 11.2708 16.4584 10.5871 16.4622 9.72727C16.4584 9.02273 16.6459 8.4072 17.0247 7.88068C17.4073 7.35417 17.9319 6.94318 18.5986 6.64773C19.2653 6.35227 20.0228 6.20455 20.8713 6.20455C21.735 6.20455 22.4887 6.35227 23.1327 6.64773C23.7804 6.94318 24.2842 7.35417 24.644 7.88068C25.0039 8.4072 25.1895 9.01705 25.2009 9.71023H22.8429Z"/>
</mask>
<path d="M7.45228 18H4.95228V20.5H7.45228V18ZM7.45228 6.36364V3.86364H4.95228V6.36364H7.45228ZM9.91251 6.36364H12.4125V3.86364H9.91251V6.36364ZM9.91251 15.9716H7.41251V18.4716H9.91251V15.9716ZM14.9011 15.9716H17.4011V13.4716H14.9011V15.9716ZM14.9011 18V20.5H17.4011V18H14.9011ZM9.95228 18V6.36364H4.95228V18H9.95228ZM7.45228 8.86364H9.91251V3.86364H7.45228V8.86364ZM7.41251 6.36364V15.9716H12.4125V6.36364H7.41251ZM9.91251 18.4716H14.9011V13.4716H9.91251V18.4716ZM12.4011 15.9716V18H17.4011V15.9716H12.4011ZM14.9011 15.5H7.45228V20.5H14.9011V15.5ZM22.8429 9.71023L20.3551 9.95695L20.5786 12.2102H22.8429V9.71023ZM19.8372 8.43182L20.7602 10.7552L20.7739 10.7498L20.7875 10.7442L19.8372 8.43182ZM19.2009 8.89205L17.2009 7.39204L17.1915 7.40447L17.1824 7.41701L19.2009 8.89205ZM18.985 9.5625L21.4833 9.65335L21.485 9.60794V9.5625H18.985ZM19.1156 10.108L16.9811 11.4095L16.9926 11.4282L17.0044 11.4468L19.1156 10.108ZM19.519 10.5114L18.1323 12.5915L18.1485 12.6023L18.1648 12.6128L19.519 10.5114ZM20.11 10.8011L19.2365 13.1436L19.254 13.1501L19.2716 13.1564L20.11 10.8011ZM20.8259 11.0057L21.4073 8.57423L21.3897 8.57003L21.372 8.56607L20.8259 11.0057ZM21.8713 11.2557L21.2899 13.6871L21.3075 13.6913L21.3251 13.6953L21.8713 11.2557ZM23.269 11.7102L22.2499 13.9931L23.269 11.7102ZM24.3713 12.4091L26.0336 10.5418L26.0336 10.5418L24.3713 12.4091ZM25.0929 13.3864L22.817 14.4209L22.8213 14.4304L22.8257 14.4398L25.0929 13.3864ZM25.36 14.6761L27.8599 14.6894L27.86 14.673L27.8599 14.6566L25.36 14.6761ZM24.8145 16.5284L22.7553 15.1108L22.7531 15.114L24.8145 16.5284ZM23.269 17.7386L24.2444 20.0405L24.2507 20.0378L23.269 17.7386ZM18.3884 17.733L17.4295 20.0418L17.434 20.0436L18.3884 17.733ZM16.7634 16.4545L14.696 17.8603L14.7014 17.8682L14.7069 17.8761L16.7634 16.4545ZM16.1554 14.3466V11.8466H13.5982L13.656 14.4031L16.1554 14.3466ZM18.5361 14.3466L21.0303 14.1771L20.872 11.8466H18.5361V14.3466ZM18.8713 15.3239L16.8748 16.8285L16.887 16.8447L16.8995 16.8607L18.8713 15.3239ZM19.6725 15.9091L18.7485 18.2321L18.7644 18.2384L18.7803 18.2445L19.6725 15.9091ZM21.8997 15.9205L20.9909 13.5915L20.9812 13.5953L21.8997 15.9205ZM22.6213 15.4148L24.5835 16.9639V16.9639L22.6213 15.4148ZM22.644 14.0114L20.7402 15.6317L20.7501 15.6433L20.7601 15.6548L22.644 14.0114ZM21.9736 13.5568L20.9888 15.8547L20.9995 15.8592L21.9736 13.5568ZM20.8997 13.2159L20.2908 15.6406L20.3023 15.6435L20.3138 15.6463L20.8997 13.2159ZM19.6327 12.8977L20.2416 10.473L20.2326 10.4708L20.2236 10.4686L19.6327 12.8977ZM17.3088 11.7784L15.6433 13.6428H15.6433L17.3088 11.7784ZM16.4622 9.72727L18.9622 9.73829L18.9623 9.72606L18.9622 9.71383L16.4622 9.72727ZM17.0247 7.88068L15.0022 6.4111L14.9953 6.42069L17.0247 7.88068ZM23.1327 6.64773L22.0901 8.91997L22.0952 8.92227L23.1327 6.64773ZM24.644 7.88068L22.58 9.29133L22.58 9.29133L24.644 7.88068ZM25.2009 9.71023V12.2102H27.7422L27.7005 9.66925L25.2009 9.71023ZM25.3307 9.4635C25.2213 8.36073 24.7018 7.33707 23.7399 6.62885L20.7754 10.6552C20.671 10.5784 20.5568 10.459 20.47 10.3006C20.3856 10.1465 20.3611 10.0177 20.3551 9.95695L25.3307 9.4635ZM23.7399 6.62885C22.8294 5.9585 21.7799 5.76136 20.8543 5.76136V10.7614C20.9751 10.7614 21.0138 10.7748 20.9938 10.7693C20.9686 10.7625 20.8827 10.7342 20.7754 10.6552L23.7399 6.62885ZM20.8543 5.76136C20.2322 5.76136 19.5491 5.84733 18.8869 6.11947L20.7875 10.7442C20.7296 10.768 20.7 10.7716 20.7121 10.7696C20.7246 10.7675 20.7696 10.7614 20.8543 10.7614V5.76136ZM18.9142 6.10844C18.2993 6.35272 17.6775 6.75649 17.2009 7.39204L21.2009 10.392C21.0197 10.6337 20.8221 10.7306 20.7602 10.7552L18.9142 6.10844ZM17.1824 7.41701C16.7173 8.05337 16.485 8.79628 16.485 9.5625H21.485C21.485 9.68076 21.4674 9.82225 21.4186 9.97371C21.3696 10.1258 21.2986 10.2586 21.2193 10.3671L17.1824 7.41701ZM16.4866 9.47165C16.4639 10.0962 16.5955 10.777 16.9811 11.4095L21.2501 8.80644C21.4464 9.12828 21.4909 9.4455 21.4833 9.65335L16.4866 9.47165ZM17.0044 11.4468C17.3102 11.9291 17.7045 12.3063 18.1323 12.5915L20.9058 8.43124C20.9927 8.48918 21.118 8.59742 21.2269 8.7691L17.0044 11.4468ZM18.1648 12.6128C18.5101 12.8353 18.8732 13.0081 19.2365 13.1436L20.9834 8.45869C20.8998 8.42749 20.8689 8.40712 20.8733 8.40993L18.1648 12.6128ZM19.2716 13.1564C19.5993 13.273 19.9362 13.3684 20.2797 13.4453L21.372 8.56607C21.2079 8.52933 21.0676 8.48834 20.9483 8.44588L19.2716 13.1564ZM20.2444 13.4371L21.2899 13.6871L22.4527 8.82423L21.4073 8.57423L20.2444 13.4371ZM21.3251 13.6953C21.6892 13.7768 21.9945 13.879 22.2499 13.9931L24.2882 9.42738C23.6951 9.16262 23.0686 8.96183 22.4175 8.81607L21.3251 13.6953ZM22.2499 13.9931C22.4668 14.0899 22.6112 14.1893 22.709 14.2764L26.0336 10.5418C25.5102 10.0759 24.9197 9.70933 24.2882 9.42738L22.2499 13.9931ZM22.709 14.2764C22.7618 14.3234 22.7922 14.3663 22.817 14.4209L27.3688 12.3519C27.0527 11.6564 26.602 11.0478 26.0336 10.5418L22.709 14.2764ZM22.8257 14.4398C22.8268 14.4423 22.8344 14.4589 22.8423 14.4969C22.8503 14.5359 22.8593 14.6002 22.86 14.6957L27.8599 14.6566C27.8538 13.8755 27.7087 13.0831 27.3601 12.3329L22.8257 14.4398ZM22.86 14.6628C22.8585 14.9368 22.7966 15.0508 22.7553 15.1108L26.8737 17.946C27.5521 16.9605 27.8538 15.8397 27.8599 14.6894L22.86 14.6628ZM22.7531 15.114C22.7074 15.1805 22.5984 15.3067 22.2874 15.4394L24.2507 20.0378C25.2882 19.5949 26.2094 18.9142 26.8759 17.9428L22.7531 15.114ZM22.2937 15.4368C22.0094 15.5572 21.5509 15.6648 20.8429 15.6648V20.6648C22.0289 20.6648 23.1878 20.4883 24.2444 20.0405L22.2937 15.4368ZM20.8429 15.6648C20.1532 15.6648 19.6726 15.5585 19.3428 15.4223L17.434 20.0436C18.498 20.4831 19.6538 20.6648 20.8429 20.6648V15.6648ZM19.3472 15.4241C19.0542 15.3025 18.9114 15.1654 18.8198 15.033L14.7069 17.8761C15.3956 18.8724 16.3361 19.5877 17.4295 20.0418L19.3472 15.4241ZM18.8307 15.0488C18.7695 14.9588 18.6652 14.7513 18.6548 14.29L13.656 14.4031C13.6835 15.6161 13.9845 16.8139 14.696 17.8603L18.8307 15.0488ZM16.1554 16.8466H18.5361V11.8466H16.1554V16.8466ZM16.0418 14.5161C16.0947 15.2945 16.3331 16.1098 16.8748 16.8285L20.8678 13.8192C20.936 13.9097 20.9794 13.9992 21.0045 14.0724C21.0286 14.1426 21.0307 14.1825 21.0303 14.1771L16.0418 14.5161ZM16.8995 16.8607C17.3999 17.5027 18.0441 17.9519 18.7485 18.2321L20.5964 13.5861C20.609 13.5911 20.6466 13.6079 20.6969 13.6446C20.7482 13.6821 20.7991 13.7306 20.8431 13.787L16.8995 16.8607ZM18.7803 18.2445C19.4475 18.4994 20.1378 18.6023 20.8145 18.6023V13.6023C20.6427 13.6023 20.5716 13.5764 20.5646 13.5737L18.7803 18.2445ZM20.8145 18.6023C21.4662 18.6023 22.1533 18.5083 22.8183 18.2456L20.9812 13.5953C21.0326 13.575 20.9961 13.6023 20.8145 13.6023V18.6023ZM22.8086 18.2494C23.4456 18.0008 24.0845 17.596 24.5835 16.9639L20.6591 13.8657C20.8172 13.6654 20.975 13.5977 20.9909 13.5915L22.8086 18.2494ZM24.5835 16.9639C25.1094 16.2978 25.377 15.5013 25.377 14.6705H20.377C20.377 14.5532 20.3955 14.4093 20.4487 14.2546C20.502 14.0993 20.5783 13.9681 20.6591 13.8657L24.5835 16.9639ZM25.377 14.6705C25.377 13.8739 25.1236 13.0508 24.528 12.3679L20.7601 15.6548C20.6333 15.5094 20.5295 15.3347 20.4617 15.1428C20.3951 14.9546 20.377 14.7894 20.377 14.6705H25.377ZM24.5479 12.3911C24.0678 11.827 23.4755 11.4777 22.9477 11.2544L20.9995 15.8592C21.0242 15.8697 21.0055 15.8644 20.9599 15.8335C20.9134 15.8019 20.831 15.7383 20.7402 15.6317L24.5479 12.3911ZM22.9584 11.259C22.5 11.0625 21.9996 10.9094 21.4856 10.7855L20.3138 15.6463C20.6484 15.7269 20.8639 15.8011 20.9888 15.8547L22.9584 11.259ZM21.5086 10.7912L20.2416 10.473L19.0238 15.3224L20.2908 15.6406L21.5086 10.7912ZM20.2236 10.4686C19.5167 10.2966 19.1528 10.0734 18.9743 9.91401L15.6433 13.6428C16.6012 14.4986 17.7865 15.0216 19.0418 15.3269L20.2236 10.4686ZM18.9743 9.91401C18.9646 9.90528 18.9656 9.90453 18.9711 9.91222C18.9767 9.92012 18.9805 9.92775 18.9819 9.93114C18.9859 9.94078 18.9615 9.89041 18.9622 9.73829L13.9622 9.71626C13.9558 11.1895 14.4694 12.5942 15.6433 13.6428L18.9743 9.91401ZM18.9622 9.71383C18.961 9.48971 19.011 9.40066 19.0541 9.34068L14.9953 6.42069C14.2809 7.41373 13.9559 8.55574 13.9623 9.74071L18.9622 9.71383ZM19.0472 9.35025C19.1409 9.2213 19.2978 9.07236 19.6115 8.93333L17.5857 4.36213C16.566 4.81401 15.6737 5.48703 15.0023 6.41112L19.0472 9.35025ZM19.6115 8.93333C19.9112 8.80049 20.3152 8.70455 20.8713 8.70455V3.70455C19.7305 3.70455 18.6193 3.90405 17.5857 4.36213L19.6115 8.93333ZM20.8713 8.70455C21.4523 8.70455 21.8368 8.80374 22.0901 8.91997L24.1752 4.37549C23.1407 3.90081 22.0176 3.70455 20.8713 3.70455V8.70455ZM22.0952 8.92227C22.3779 9.05126 22.5063 9.18346 22.58 9.29133L26.708 6.47004C26.0621 5.52487 25.1829 4.83511 24.1702 4.37318L22.0952 8.92227ZM22.58 9.29133C22.6397 9.37855 22.6971 9.5029 22.7012 9.7512L27.7005 9.66925C27.6819 8.53119 27.3681 7.43585 26.708 6.47004L22.58 9.29133ZM25.2009 7.21023H22.8429V12.2102H25.2009V7.21023Z" fill="white" mask="url(#path-2-inside-1_1_1786)"/>
</svg>
