<svg width="32" height="32" viewBox="0 0 32 32" fill="none" xmlns="http://www.w3.org/2000/svg">
<path d="M32 3C32 1.34315 30.6569 0 29 0H8C6.34315 0 5 1.33969 5 2.99655C5 5.1766 5 8.60954 5 13.5C5 23 0 25.5 0 29C0 30.6569 1.34315 32 3 32H20C26.6274 32 32 26.6274 32 20V3Z" fill="black"/>
<mask id="path-2-inside-1_1_1785" fill="white">
<path d="M7.71982 22.0005V8.90958H12.8846C13.8732 8.90958 14.717 9.08643 15.4158 9.44012C16.119 9.78955 16.6538 10.286 17.0202 10.9295C17.391 11.5687 17.5764 12.3208 17.5764 13.1859C17.5764 14.0552 17.3889 14.803 17.0139 15.4295C16.6389 16.0516 16.0955 16.5289 15.3839 16.8613C14.6765 17.1937 13.82 17.3599 12.8143 17.3599H9.35618V15.1354H12.3668C12.8952 15.1354 13.3342 15.063 13.6836 14.9181C14.033 14.7732 14.293 14.5559 14.4634 14.2661C14.6381 13.9763 14.7255 13.6163 14.7255 13.1859C14.7255 12.7512 14.6381 12.3847 14.4634 12.0864C14.293 11.7881 14.0309 11.5623 13.6772 11.4089C13.3278 11.2512 12.8867 11.1724 12.354 11.1724H10.4876V22.0005H7.71982ZM14.7894 16.0431L18.043 22.0005H14.9876L11.8043 16.0431H14.7894ZM19.0337 11.1915V8.90958H29.7852V11.1915H25.7773V22.0005H23.0415V11.1915H19.0337Z"/>
</mask>
<path d="M7.71982 22.0005H5.21982V24.5005H7.71982V22.0005ZM7.71982 8.90958V6.40958H5.21982V8.90958H7.71982ZM15.4158 9.44012L14.2869 11.6707L14.2951 11.6748L14.3032 11.6789L15.4158 9.44012ZM17.0202 10.9295L14.8479 12.1667L14.8527 12.1753L14.8577 12.1838L17.0202 10.9295ZM17.0139 15.4295L19.155 16.72L19.1589 16.7136L17.0139 15.4295ZM15.3839 16.8613L14.3259 14.5962L14.3207 14.5986L15.3839 16.8613ZM9.35618 17.3599H6.85618V19.8599H9.35618V17.3599ZM9.35618 15.1354V12.6354H6.85618V15.1354H9.35618ZM13.6836 14.9181L14.6411 17.2275L14.6411 17.2275L13.6836 14.9181ZM14.4634 14.2661L12.3225 12.9752L12.3155 12.9869L12.3086 12.9986L14.4634 14.2661ZM14.4634 12.0864L12.2928 13.3268L12.2995 13.3384L12.3062 13.3499L14.4634 12.0864ZM13.6772 11.4089L12.649 13.6876L12.6656 13.6951L12.6824 13.7024L13.6772 11.4089ZM10.4876 11.1724V8.67236H7.98757V11.1724H10.4876ZM10.4876 22.0005V24.5005H12.9876V22.0005H10.4876ZM14.7894 16.0431L16.9835 14.8448L16.2726 13.5431H14.7894V16.0431ZM18.043 22.0005V24.5005H22.2568L20.2371 20.8022L18.043 22.0005ZM14.9876 22.0005L12.7826 23.1787L13.4889 24.5005H14.9876V22.0005ZM11.8043 16.0431V13.5431H7.63398L9.59937 17.2213L11.8043 16.0431ZM10.2198 22.0005V8.90958H5.21982V22.0005H10.2198ZM7.71982 11.4096H12.8846V6.40958H7.71982V11.4096ZM12.8846 11.4096C13.5812 11.4096 14.0177 11.5344 14.2869 11.6707L16.5447 7.20952C15.4163 6.63841 14.1652 6.40958 12.8846 6.40958V11.4096ZM14.3032 11.6789C14.5897 11.8213 14.7424 11.9816 14.8479 12.1667L19.1926 9.69222C18.5651 8.59039 17.6482 7.75785 16.5284 7.20134L14.3032 11.6789ZM14.8577 12.1838C14.9722 12.3812 15.0764 12.6855 15.0764 13.1859H20.0764C20.0764 11.9561 19.8098 10.7561 19.1828 9.67517L14.8577 12.1838ZM15.0764 13.1859C15.0764 13.6897 14.9707 13.9753 14.8688 14.1454L19.1589 16.7136C19.807 15.6308 20.0764 14.4206 20.0764 13.1859H15.0764ZM14.8727 14.1389C14.775 14.3011 14.626 14.456 14.3259 14.5962L16.4418 19.1264C17.565 18.6018 18.5027 17.8022 19.155 16.72L14.8727 14.1389ZM14.3207 14.5986C14.027 14.7366 13.554 14.8599 12.8143 14.8599V19.8599C14.0859 19.8599 15.326 19.6507 16.4471 19.1239L14.3207 14.5986ZM12.8143 14.8599H9.35618V19.8599H12.8143V14.8599ZM11.8562 17.3599V15.1354H6.85618V17.3599H11.8562ZM9.35618 17.6354H12.3668V12.6354H9.35618V17.6354ZM12.3668 17.6354C13.1026 17.6354 13.8933 17.5375 14.6411 17.2275L12.7261 12.6087C12.7559 12.5964 12.7479 12.6041 12.6852 12.6145C12.6225 12.6248 12.5192 12.6354 12.3668 12.6354V17.6354ZM14.6411 17.2275C15.4263 16.9019 16.1384 16.3495 16.6183 15.5337L12.3086 12.9986C12.3697 12.8947 12.4492 12.802 12.5371 12.7285C12.6225 12.657 12.6938 12.6221 12.7261 12.6087L14.6411 17.2275ZM16.6044 15.557C17.0699 14.7849 17.2255 13.9492 17.2255 13.1859H12.2255C12.2255 13.2833 12.2064 13.1678 12.3225 12.9752L16.6044 15.557ZM17.2255 13.1859C17.2255 12.4199 17.0707 11.5913 16.6206 10.8229L12.3062 13.3499C12.2056 13.1781 12.2255 13.0825 12.2255 13.1859H17.2255ZM16.634 10.8461C16.1633 10.0222 15.4576 9.45606 14.672 9.11531L12.6824 13.7024C12.654 13.6901 12.5874 13.6564 12.507 13.5871C12.4242 13.5157 12.3496 13.4262 12.2928 13.3268L16.634 10.8461ZM14.7054 9.13011C13.9328 8.78146 13.112 8.67236 12.354 8.67236V13.6724C12.4996 13.6724 12.5932 13.6833 12.6445 13.6925C12.6953 13.7016 12.6905 13.7064 12.649 13.6876L14.7054 9.13011ZM12.354 8.67236H10.4876V13.6724H12.354V8.67236ZM7.98757 11.1724V22.0005H12.9876V11.1724H7.98757ZM10.4876 19.5005H7.71982V24.5005H10.4876V19.5005ZM12.5953 17.2414L15.8489 23.1988L20.2371 20.8022L16.9835 14.8448L12.5953 17.2414ZM18.043 19.5005H14.9876V24.5005H18.043V19.5005ZM17.1925 20.8223L14.0093 14.8649L9.59937 17.2213L12.7826 23.1787L17.1925 20.8223ZM11.8043 18.5431H14.7894V13.5431H11.8043V18.5431ZM19.0337 11.1915H16.5337V13.6915H19.0337V11.1915ZM19.0337 8.90958V6.40958H16.5337V8.90958H19.0337ZM29.7852 8.90958H32.2852V6.40958H29.7852V8.90958ZM29.7852 11.1915V13.6915H32.2852V11.1915H29.7852ZM25.7773 11.1915V8.69154H23.2773V11.1915H25.7773ZM25.7773 22.0005V24.5005H28.2773V22.0005H25.7773ZM23.0415 22.0005H20.5415V24.5005H23.0415V22.0005ZM23.0415 11.1915H25.5415V8.69154H23.0415V11.1915ZM21.5337 11.1915V8.90958H16.5337V11.1915H21.5337ZM19.0337 11.4096H29.7852V6.40958H19.0337V11.4096ZM27.2852 8.90958V11.1915H32.2852V8.90958H27.2852ZM29.7852 8.69154H25.7773V13.6915H29.7852V8.69154ZM23.2773 11.1915V22.0005H28.2773V11.1915H23.2773ZM25.7773 19.5005H23.0415V24.5005H25.7773V19.5005ZM25.5415 22.0005V11.1915H20.5415V22.0005H25.5415ZM23.0415 8.69154H19.0337V13.6915H23.0415V8.69154Z" fill="white" mask="url(#path-2-inside-1_1_1785)"/>
</svg>
