<svg width="32" height="32" viewBox="0 0 32 32" fill="none" xmlns="http://www.w3.org/2000/svg">
<path d="M0 3C0 1.34315 1.34315 0 3 0H24C25.6569 0 27 1.33969 27 2.99655C27 5.1766 27 8.60954 27 13.5C27 23 32 25.5 32 29C32 30.6569 30.6569 32 29 32H12C5.37258 32 0 26.6274 0 20V3Z" fill="black"/>
<mask id="path-2-inside-1_1_1783" fill="white">
<path d="M5.35511 21.0005V9.36412H7.81534V18.9721H12.804V21.0005H5.35511ZM12.5369 11.3925V9.36412H22.0938V11.3925H18.5312V21.0005H16.0994V11.3925H12.5369Z"/>
</mask>
<path d="M5.35511 21.0005H2.85511V23.5005H5.35511V21.0005ZM5.35511 9.36412V6.86412H2.85511V9.36412H5.35511ZM7.81534 9.36412H10.3153V6.86412H7.81534V9.36412ZM7.81534 18.9721H5.31534V21.4721H7.81534V18.9721ZM12.804 18.9721H15.304V16.4721H12.804V18.9721ZM12.804 21.0005V23.5005H15.304V21.0005H12.804ZM7.85511 21.0005V9.36412H2.85511V21.0005H7.85511ZM5.35511 11.8641H7.81534V6.86412H5.35511V11.8641ZM5.31534 9.36412V18.9721H10.3153V9.36412H5.31534ZM7.81534 21.4721H12.804V16.4721H7.81534V21.4721ZM10.304 18.9721V21.0005H15.304V18.9721H10.304ZM12.804 18.5005H5.35511V23.5005H12.804V18.5005ZM12.5369 11.3925H10.0369V13.8925H12.5369V11.3925ZM12.5369 9.36412V6.86412H10.0369V9.36412H12.5369ZM22.0938 9.36412H24.5938V6.86412H22.0938V9.36412ZM22.0938 11.3925V13.8925H24.5938V11.3925H22.0938ZM18.5312 11.3925V8.89253H16.0312V11.3925H18.5312ZM18.5312 21.0005V23.5005H21.0312V21.0005H18.5312ZM16.0994 21.0005H13.5994V23.5005H16.0994V21.0005ZM16.0994 11.3925H18.5994V8.89253H16.0994V11.3925ZM15.0369 11.3925V9.36412H10.0369V11.3925H15.0369ZM12.5369 11.8641H22.0938V6.86412H12.5369V11.8641ZM19.5938 9.36412V11.3925H24.5938V9.36412H19.5938ZM22.0938 8.89253H18.5312V13.8925H22.0938V8.89253ZM16.0312 11.3925V21.0005H21.0312V11.3925H16.0312ZM18.5312 18.5005H16.0994V23.5005H18.5312V18.5005ZM18.5994 21.0005V11.3925H13.5994V21.0005H18.5994ZM16.0994 8.89253H12.5369V13.8925H16.0994V8.89253Z" fill="white" mask="url(#path-2-inside-1_1_1783)"/>
</svg>
