<svg width="32" height="32" viewBox="0 0 32 32" fill="none" xmlns="http://www.w3.org/2000/svg">
<path fill-rule="evenodd" clip-rule="evenodd" d="M21 0L16 5L11 0H21ZM0 15C0 10.5817 3.58172 7 8 7H24C28.4183 7 32 10.5817 32 15V18C32 22.4183 28.4183 26 24 26H23.1111V32H8.88892V26H8C3.58172 26 0 22.4183 0 18V15Z" fill="black"/>
<mask id="path-2-inside-1_1_1789" fill="white">
<path d="M11.4835 23V11.3636H16.0744C16.9532 11.3636 17.7032 11.5208 18.3244 11.8352C18.9494 12.1458 19.4248 12.5871 19.7506 13.1591C20.0801 13.7273 20.2449 14.3958 20.2449 15.1648C20.2449 15.9375 20.0782 16.6023 19.7449 17.1591C19.4116 17.7121 18.9286 18.1364 18.296 18.4318C17.6672 18.7273 16.9059 18.875 16.0119 18.875H12.9381V16.8977H15.6142C16.0839 16.8977 16.4741 16.8333 16.7847 16.7045C17.0953 16.5758 17.3263 16.3826 17.4778 16.125C17.6332 15.8674 17.7108 15.5473 17.7108 15.1648C17.7108 14.7784 17.6332 14.4527 17.4778 14.1875C17.3263 13.9223 17.0934 13.7216 16.779 13.5852C16.4684 13.4451 16.0763 13.375 15.6028 13.375H13.9438V23H11.4835ZM17.7676 17.7045L20.6597 23H17.9438L15.1142 17.7045H17.7676Z"/>
</mask>
<path d="M11.4835 23H8.98353V25.5H11.4835V23ZM11.4835 11.3636V8.86364H8.98353V11.3636H11.4835ZM18.3244 11.8352L17.1955 14.0658L17.2037 14.0699L17.2118 14.074L18.3244 11.8352ZM19.7506 13.1591L17.5782 14.3963L17.5831 14.4049L17.588 14.4134L19.7506 13.1591ZM19.7449 17.1591L21.886 18.4496L21.8899 18.4432L19.7449 17.1591ZM18.296 18.4318L17.2381 16.1667L17.2329 16.1692L18.296 18.4318ZM12.9381 18.875H10.4381V21.375H12.9381V18.875ZM12.9381 16.8977V14.3977H10.4381V16.8977H12.9381ZM16.7847 16.7045L17.7422 19.0139L17.7422 19.0139L16.7847 16.7045ZM17.4778 16.125L15.3369 14.8341L15.3299 14.8458L15.323 14.8575L17.4778 16.125ZM17.4778 14.1875L15.3072 15.4278L15.3139 15.4395L15.3206 15.451L17.4778 14.1875ZM16.779 13.5852L15.7508 15.864L15.7674 15.8715L15.7842 15.8788L16.779 13.5852ZM13.9438 13.375V10.875H11.4438V13.375H13.9438ZM13.9438 23V25.5H16.4438V23H13.9438ZM17.7676 17.7045L19.9617 16.5063L19.2508 15.2045H17.7676V17.7045ZM20.6597 23V25.5H24.8735L22.8538 21.8017L20.6597 23ZM17.9438 23L15.7388 24.1782L16.4451 25.5H17.9438V23ZM15.1142 17.7045V15.2045H10.9439L12.9092 18.8827L15.1142 17.7045ZM13.9835 23V11.3636H8.98353V23H13.9835ZM11.4835 13.8636H16.0744V8.86364H11.4835V13.8636ZM16.0744 13.8636C16.6612 13.8636 17.0039 13.9689 17.1955 14.0658L19.4533 9.60463C18.4025 9.07281 17.2452 8.86364 16.0744 8.86364V13.8636ZM17.2118 14.074C17.4202 14.1775 17.5135 14.2827 17.5782 14.3963L21.923 11.9218C21.3361 10.8915 20.4787 10.1141 19.437 9.59645L17.2118 14.074ZM17.588 14.4134C17.6613 14.5398 17.7449 14.7605 17.7449 15.1648H22.7449C22.7449 14.0312 22.4989 12.9147 21.9132 11.9048L17.588 14.4134ZM17.7449 15.1648C17.7449 15.5721 17.66 15.7745 17.5999 15.875L21.8899 18.4432C22.4964 17.43 22.7449 16.3029 22.7449 15.1648H17.7449ZM17.6038 15.8685C17.5477 15.9616 17.4591 16.0635 17.2381 16.1667L19.354 20.6969C20.3981 20.2093 21.2754 19.4627 21.886 18.4496L17.6038 15.8685ZM17.2329 16.1692C17.0178 16.2702 16.6399 16.375 16.0119 16.375V21.375C17.1719 21.375 18.3167 21.1843 19.3592 20.6945L17.2329 16.1692ZM16.0119 16.375H12.9381V21.375H16.0119V16.375ZM15.4381 18.875V16.8977H10.4381V18.875H15.4381ZM12.9381 19.3977H15.6142V14.3977H12.9381V19.3977ZM15.6142 19.3977C16.2913 19.3977 17.0332 19.3079 17.7422 19.0139L15.8271 14.3952C15.8764 14.3748 15.8903 14.3765 15.852 14.3828C15.8137 14.3891 15.7372 14.3977 15.6142 14.3977V19.3977ZM17.7422 19.0139C18.4886 18.7044 19.1717 18.1762 19.6327 17.3925L15.323 14.8575C15.3936 14.7375 15.485 14.6307 15.5874 14.5451C15.6873 14.4616 15.7754 14.4166 15.8271 14.3952L17.7422 19.0139ZM19.6188 17.4159C20.0649 16.676 20.2108 15.8803 20.2108 15.1648H15.2108C15.2108 15.2144 15.2014 15.0589 15.3369 14.8341L19.6188 17.4159ZM20.2108 15.1648C20.2108 14.4471 20.0657 13.6593 19.6351 12.924L15.3206 15.451C15.2006 15.246 15.2108 15.1097 15.2108 15.1648H20.2108ZM19.6485 12.9472C19.1966 12.1564 18.5201 11.6154 17.7738 11.2917L15.7842 15.8788C15.7362 15.858 15.6525 15.8137 15.5575 15.7319C15.4601 15.648 15.3735 15.5439 15.3072 15.4278L19.6485 12.9472ZM17.8072 11.3065C17.0734 10.9753 16.3016 10.875 15.6028 10.875V15.875C15.7188 15.875 15.7854 15.8838 15.8121 15.8886C15.8384 15.8933 15.8117 15.8915 15.7508 15.864L17.8072 11.3065ZM15.6028 10.875H13.9438V15.875H15.6028V10.875ZM11.4438 13.375V23H16.4438V13.375H11.4438ZM13.9438 20.5H11.4835V25.5H13.9438V20.5ZM15.5735 18.9028L18.4656 24.1983L22.8538 21.8017L19.9617 16.5063L15.5735 18.9028ZM20.6597 20.5H17.9438V25.5H20.6597V20.5ZM20.1487 21.8218L17.3192 16.5264L12.9092 18.8827L15.7388 24.1782L20.1487 21.8218ZM15.1142 20.2045H17.7676V15.2045H15.1142V20.2045Z" fill="white" mask="url(#path-2-inside-1_1_1789)"/>
</svg>
