<svg width="32" height="32" viewBox="0 0 32 32" fill="none" xmlns="http://www.w3.org/2000/svg">
<path d="M0 16C0 7.16344 7.16344 0 16 0C24.8366 0 32 7.16344 32 16V29C32 30.6569 30.6569 32 29 32H3C1.34315 32 0 30.6569 0 29V16Z" fill="black"/>
<mask id="path-2-inside-1_1_1784" fill="white">
<path d="M4.78134 25.0005V11.9096H9.94611C10.9347 11.9096 11.7785 12.0864 12.4774 12.4401C13.1805 12.7896 13.7153 13.286 14.0818 13.9295C14.4525 14.5687 14.6379 15.3208 14.6379 16.1859C14.6379 17.0552 14.4504 17.803 14.0754 18.4295C13.7004 19.0516 13.157 19.5289 12.4454 19.8613C11.738 20.1937 10.8815 20.3599 9.8758 20.3599H6.4177V18.1354H9.42836C9.95676 18.1354 10.3957 18.063 10.7451 17.9181C11.0945 17.7732 11.3545 17.5559 11.5249 17.2661C11.6997 16.9763 11.787 16.6163 11.787 16.1859C11.787 15.7512 11.6997 15.3847 11.5249 15.0864C11.3545 14.7881 11.0924 14.5623 10.7387 14.4089C10.3893 14.2512 9.94824 14.1724 9.41557 14.1724H7.54909V25.0005H4.78134ZM11.8509 19.0431L15.1045 25.0005H12.0491L8.86586 19.0431H11.8509ZM16.5938 25.0005V11.9096H21.8353C22.7984 11.9096 23.6017 12.0523 24.2451 12.3378C24.8886 12.6234 25.3722 13.0197 25.6961 13.5268C26.02 14.0296 26.1819 14.6092 26.1819 15.2654C26.1819 15.7768 26.0796 16.2263 25.8751 16.6141C25.6705 16.9976 25.3893 17.313 25.0313 17.5601C24.6776 17.803 24.2728 17.9756 23.8169 18.0779V18.2057C24.3154 18.2271 24.782 18.3677 25.2167 18.6276C25.6556 18.8876 26.0115 19.2519 26.2842 19.7207C26.5569 20.1851 26.6933 20.7391 26.6933 21.3826C26.6933 22.0772 26.5207 22.6972 26.1755 23.2427C25.8346 23.7839 25.3296 24.2121 24.6606 24.5275C23.9916 24.8428 23.167 25.0005 22.1869 25.0005H16.5938ZM19.3616 22.7377H21.618C22.3893 22.7377 22.9518 22.5907 23.3055 22.2967C23.6592 21.9984 23.836 21.6021 23.836 21.1077C23.836 20.7455 23.7487 20.4259 23.574 20.1489C23.3992 19.8719 23.1499 19.6546 22.8261 19.4969C22.5065 19.3393 22.1251 19.2604 21.6819 19.2604H19.3616V22.7377ZM19.3616 17.3876H21.4134C21.7927 17.3876 22.1294 17.3215 22.4234 17.1894C22.7217 17.053 22.9561 16.8613 23.1265 16.6141C23.3012 16.367 23.3886 16.0708 23.3886 15.7256C23.3886 15.2526 23.2203 14.8712 22.8836 14.5815C22.5512 14.2917 22.0782 14.1468 21.4646 14.1468H19.3616V17.3876Z"/>
</mask>
<path d="M4.78134 25.0005H2.28134V27.5005H4.78134V25.0005ZM4.78134 11.9096V9.40958H2.28134V11.9096H4.78134ZM12.4774 12.4401L11.3485 14.6707L11.3566 14.6748L11.3648 14.6789L12.4774 12.4401ZM14.0818 13.9295L11.9094 15.1667L11.9143 15.1753L11.9192 15.1838L14.0818 13.9295ZM14.0754 18.4295L16.2165 19.72L16.2204 19.7136L14.0754 18.4295ZM12.4454 19.8613L11.3874 17.5962L11.3822 17.5986L12.4454 19.8613ZM6.4177 20.3599H3.9177V22.8599H6.4177V20.3599ZM6.4177 18.1354V15.6354H3.9177V18.1354H6.4177ZM10.7451 17.9181L11.7027 20.2275L11.7027 20.2275L10.7451 17.9181ZM11.5249 17.2661L9.384 15.9752L9.37699 15.9869L9.37011 15.9986L11.5249 17.2661ZM11.5249 15.0864L9.35434 16.3268L9.36098 16.3384L9.36774 16.3499L11.5249 15.0864ZM10.7387 14.4089L9.7105 16.6876L9.72716 16.6951L9.74393 16.7024L10.7387 14.4089ZM7.54909 14.1724V11.6724H5.04909V14.1724H7.54909ZM7.54909 25.0005V27.5005H10.0491V25.0005H7.54909ZM11.8509 19.0431L14.0451 17.8448L13.3341 16.5431H11.8509V19.0431ZM15.1045 25.0005V27.5005H19.3184L17.2986 23.8022L15.1045 25.0005ZM12.0491 25.0005L9.84413 26.1787L10.5504 27.5005H12.0491V25.0005ZM8.86586 19.0431V16.5431H4.69551L6.66089 20.2213L8.86586 19.0431ZM7.28134 25.0005V11.9096H2.28134V25.0005H7.28134ZM4.78134 14.4096H9.94611V9.40958H4.78134V14.4096ZM9.94611 14.4096C10.6428 14.4096 11.0792 14.5344 11.3485 14.6707L13.6063 10.2095C12.4778 9.63841 11.2267 9.40958 9.94611 9.40958V14.4096ZM11.3648 14.6789C11.6512 14.8213 11.804 14.9816 11.9094 15.1667L16.2541 12.6922C15.6266 11.5904 14.7098 10.7579 13.59 10.2013L11.3648 14.6789ZM11.9192 15.1838C12.0337 15.3812 12.1379 15.6855 12.1379 16.1859H17.1379C17.1379 14.9561 16.8713 13.7561 16.2443 12.6752L11.9192 15.1838ZM12.1379 16.1859C12.1379 16.6897 12.0322 16.9753 11.9304 17.1454L16.2204 19.7136C16.8686 18.6308 17.1379 17.4206 17.1379 16.1859H12.1379ZM11.9342 17.1389C11.8365 17.3011 11.6875 17.456 11.3874 17.5962L13.5034 22.1264C14.6266 21.6018 15.5643 20.8022 16.2165 19.72L11.9342 17.1389ZM11.3822 17.5986C11.0885 17.7366 10.6155 17.8599 9.8758 17.8599V22.8599C11.1475 22.8599 12.3875 22.6507 13.5086 22.1239L11.3822 17.5986ZM9.8758 17.8599H6.4177V22.8599H9.8758V17.8599ZM8.9177 20.3599V18.1354H3.9177V20.3599H8.9177ZM6.4177 20.6354H9.42836V15.6354H6.4177V20.6354ZM9.42836 20.6354C10.1641 20.6354 10.9548 20.5375 11.7027 20.2275L9.78758 15.6087C9.81744 15.5964 9.80942 15.6041 9.74674 15.6145C9.68407 15.6248 9.58072 15.6354 9.42836 15.6354V20.6354ZM11.7027 20.2275C12.4878 19.9019 13.1999 19.3495 13.6798 18.5337L9.37011 15.9986C9.4312 15.8947 9.51068 15.802 9.5986 15.7285C9.68405 15.657 9.75529 15.6221 9.78758 15.6087L11.7027 20.2275ZM13.6659 18.557C14.1314 17.7849 14.287 16.9492 14.287 16.1859H9.28702C9.28702 16.2833 9.26791 16.1678 9.384 15.9752L13.6659 18.557ZM14.287 16.1859C14.287 15.4199 14.1322 14.5913 13.6822 13.8229L9.36774 16.3499C9.2671 16.1781 9.28702 16.0825 9.28702 16.1859H14.287ZM13.6956 13.8461C13.2248 13.0222 12.5191 12.4561 11.7335 12.1153L9.74393 16.7024C9.71556 16.6901 9.64896 16.6564 9.56851 16.5871C9.48571 16.5157 9.41117 16.4262 9.35434 16.3268L13.6956 13.8461ZM11.7669 12.1301C10.9943 11.7815 10.1735 11.6724 9.41557 11.6724V16.6724C9.56112 16.6724 9.65476 16.6833 9.70598 16.6925C9.7568 16.7016 9.75206 16.7064 9.7105 16.6876L11.7669 12.1301ZM9.41557 11.6724H7.54909V16.6724H9.41557V11.6724ZM5.04909 14.1724V25.0005H10.0491V14.1724H5.04909ZM7.54909 22.5005H4.78134V27.5005H7.54909V22.5005ZM9.65683 20.2414L12.9104 26.1988L17.2986 23.8022L14.0451 17.8448L9.65683 20.2414ZM15.1045 22.5005H12.0491V27.5005H15.1045V22.5005ZM14.2541 23.8223L11.0708 17.8649L6.66089 20.2213L9.84413 26.1787L14.2541 23.8223ZM8.86586 21.5431H11.8509V16.5431H8.86586V21.5431ZM16.5938 25.0005H14.0938V27.5005H16.5938V25.0005ZM16.5938 11.9096V9.40958H14.0938V11.9096H16.5938ZM24.2451 12.3378L23.2312 14.623V14.623L24.2451 12.3378ZM25.6961 13.5268L23.5891 14.8724L23.5943 14.8805L25.6961 13.5268ZM25.8751 16.6141L28.081 17.7906L28.0863 17.7805L25.8751 16.6141ZM25.0313 17.5601L26.4466 19.621L26.4518 19.6174L25.0313 17.5601ZM23.8169 18.0779L23.2697 15.6385L21.3169 16.0765V18.0779H23.8169ZM23.8169 18.2057H21.3169V20.6012L23.7101 20.7035L23.8169 18.2057ZM25.2167 18.6276L23.9336 20.7732L23.9428 20.7787L25.2167 18.6276ZM26.2842 19.7207L24.1233 20.9779L24.1283 20.9865L26.2842 19.7207ZM26.1755 23.2427L24.063 21.9058L24.0602 21.9102L26.1755 23.2427ZM24.6606 24.5275L23.5947 22.2661L23.5947 22.2661L24.6606 24.5275ZM19.3616 22.7377H16.8616V25.2377H19.3616V22.7377ZM23.3055 22.2967L24.9037 24.2191L24.9105 24.2134L24.9172 24.2077L23.3055 22.2967ZM23.574 20.1489L21.4595 21.4827V21.4827L23.574 20.1489ZM22.8261 19.4969L21.72 21.739L21.7318 21.7447L22.8261 19.4969ZM19.3616 19.2604V16.7604H16.8616V19.2604H19.3616ZM19.3616 17.3876H16.8616V19.8876H19.3616V17.3876ZM22.4234 17.1894L23.4479 19.4698L23.4554 19.4665L23.4628 19.4631L22.4234 17.1894ZM23.1265 16.6141L21.0851 15.171L21.0767 15.1829L21.0685 15.1948L23.1265 16.6141ZM22.8836 14.5815L21.2408 16.4659L21.2467 16.4711L21.2527 16.4762L22.8836 14.5815ZM19.3616 14.1468V11.6468H16.8616V14.1468H19.3616ZM19.0938 25.0005V11.9096H14.0938V25.0005H19.0938ZM16.5938 14.4096H21.8353V9.40958H16.5938V14.4096ZM21.8353 14.4096C22.57 14.4096 23.0015 14.5211 23.2312 14.623L25.2591 10.0527C24.2018 9.58357 23.0268 9.40958 21.8353 9.40958V14.4096ZM23.2312 14.623C23.5039 14.744 23.5719 14.8454 23.5891 14.8724L27.8031 12.1811C27.1726 11.1939 26.2733 10.5027 25.2591 10.0527L23.2312 14.623ZM23.5943 14.8805C23.6332 14.9408 23.6819 15.0408 23.6819 15.2654H28.6819C28.6819 14.1775 28.4068 13.1184 27.7979 12.1731L23.5943 14.8805ZM23.6819 15.2654C23.6819 15.3545 23.673 15.4072 23.6675 15.4316C23.6623 15.4544 23.6591 15.4568 23.6638 15.4478L28.0863 17.7805C28.5098 16.9777 28.6819 16.1155 28.6819 15.2654H23.6819ZM23.6692 15.4377C23.6526 15.4688 23.6407 15.4823 23.6109 15.5029L26.4518 19.6174C27.1378 19.1437 27.6885 18.5265 28.081 17.7906L23.6692 15.4377ZM23.6161 15.4993C23.5475 15.5464 23.4426 15.5997 23.2697 15.6385L24.364 20.5173C25.103 20.3515 25.8078 20.0597 26.4466 19.621L23.6161 15.4993ZM21.3169 18.0779V18.2057H26.3169V18.0779H21.3169ZM23.7101 20.7035C23.787 20.7067 23.8501 20.7233 23.9336 20.7732L26.4999 16.482C25.714 16.012 24.8439 15.7474 23.9236 15.708L23.7101 20.7035ZM23.9428 20.7787C23.9914 20.8075 24.0511 20.8538 24.1233 20.9779L28.4451 18.4634C27.9718 17.65 27.3199 16.9676 26.4906 16.4766L23.9428 20.7787ZM24.1283 20.9865C24.1354 20.9986 24.1933 21.0972 24.1933 21.3826H29.1933C29.1933 20.381 28.9784 19.3717 28.44 18.4548L24.1283 20.9865ZM24.1933 21.3826C24.1933 21.6414 24.1357 21.7909 24.063 21.9058L28.2881 24.5795C28.9057 23.6035 29.1933 22.513 29.1933 21.3826H24.1933ZM24.0602 21.9102C24.0111 21.9881 23.9014 22.1215 23.5947 22.2661L25.7265 26.7889C26.7578 26.3028 27.6581 25.5796 28.2908 24.5751L24.0602 21.9102ZM23.5947 22.2661C23.349 22.3819 22.9128 22.5005 22.1869 22.5005V27.5005C23.4212 27.5005 24.6342 27.3037 25.7265 26.7889L23.5947 22.2661ZM22.1869 22.5005H16.5938V27.5005H22.1869V22.5005ZM19.3616 25.2377H21.618V20.2377H19.3616V25.2377ZM21.618 25.2377C22.6099 25.2377 23.8843 25.0665 24.9037 24.2191L21.7073 20.3742C21.8764 20.2337 22.0036 20.2041 21.9862 20.2087C21.9795 20.2104 21.9472 20.2182 21.8834 20.2252C21.8199 20.2322 21.7325 20.2377 21.618 20.2377V25.2377ZM24.9172 24.2077C25.8766 23.3986 26.336 22.2815 26.336 21.1077H21.336C21.336 21.0526 21.3471 20.9211 21.4204 20.7569C21.4956 20.5883 21.6019 20.463 21.6937 20.3856L24.9172 24.2077ZM26.336 21.1077C26.336 20.3252 26.1413 19.5331 25.6884 18.8152L21.4595 21.4827C21.4135 21.4098 21.3797 21.3312 21.359 21.2555C21.3388 21.1816 21.336 21.1288 21.336 21.1077H26.336ZM25.6884 18.8152C25.2409 18.1057 24.6195 17.5895 23.9204 17.2492L21.7318 21.7447C21.7131 21.7356 21.6686 21.711 21.6131 21.6626C21.5564 21.6132 21.503 21.5517 21.4595 21.4827L25.6884 18.8152ZM23.9321 17.2549C23.195 16.8913 22.4173 16.7604 21.6819 16.7604V21.7604C21.7563 21.7604 21.791 21.7671 21.7943 21.7678C21.7961 21.7682 21.7674 21.7623 21.72 21.739L23.9321 17.2549ZM21.6819 16.7604H19.3616V21.7604H21.6819V16.7604ZM16.8616 19.2604V22.7377H21.8616V19.2604H16.8616ZM19.3616 19.8876H21.4134V14.8876H19.3616V19.8876ZM21.4134 19.8876C22.0842 19.8876 22.7799 19.77 23.4479 19.4698L21.3988 14.909C21.4172 14.9008 21.433 14.895 21.4455 14.8911C21.4579 14.8871 21.4661 14.8854 21.469 14.8848C21.4749 14.8837 21.4582 14.8876 21.4134 14.8876V19.8876ZM23.4628 19.4631C24.1324 19.157 24.7345 18.686 25.1845 18.0335L21.0685 15.1948C21.1177 15.1234 21.1768 15.0599 21.2398 15.0084C21.3017 14.9578 21.3542 14.9293 21.384 14.9157L23.4628 19.4631ZM25.168 18.0572C25.6817 17.3304 25.8886 16.5124 25.8886 15.7256H20.8886C20.8886 15.6866 20.8937 15.6062 20.9252 15.4993C20.9576 15.3897 21.0108 15.276 21.0851 15.171L25.168 18.0572ZM25.8886 15.7256C25.8886 14.5783 25.4424 13.4853 24.5145 12.6867L21.2527 16.4762C21.158 16.3947 21.0509 16.2658 20.9752 16.0942C20.9013 15.9268 20.8886 15.79 20.8886 15.7256H25.8886ZM24.5265 12.697C23.5879 11.8788 22.4464 11.6468 21.4646 11.6468V16.6468C21.5803 16.6468 21.5971 16.6611 21.5474 16.6458C21.4892 16.628 21.3698 16.5783 21.2408 16.4659L24.5265 12.697ZM21.4646 11.6468H19.3616V16.6468H21.4646V11.6468ZM16.8616 14.1468V17.3876H21.8616V14.1468H16.8616Z" fill="white" mask="url(#path-2-inside-1_1_1784)"/>
</svg>
