<svg width="32" height="32" viewBox="0 0 32 32" fill="none" xmlns="http://www.w3.org/2000/svg">
<path fill-rule="evenodd" clip-rule="evenodd" d="M8 3C3.58172 3 0 6.58172 0 11V14C0 18.4183 3.58172 22 8 22H8.88892V28H23.1111V22H24C28.4183 22 32 18.4183 32 14V11C32 6.58172 28.4183 3 24 3H8Z" fill="black"/>
<mask id="path-2-inside-1_1_1787" fill="white">
<path d="M7.24134 18V6.36364H11.8323C12.711 6.36364 13.461 6.52083 14.0823 6.83523C14.7073 7.14583 15.1826 7.58712 15.5084 8.15909C15.8379 8.72727 16.0027 9.39583 16.0027 10.1648C16.0027 10.9375 15.836 11.6023 15.5027 12.1591C15.1694 12.7121 14.6864 13.1364 14.0538 13.4318C13.4251 13.7273 12.6637 13.875 11.7698 13.875H8.69589V11.8977H11.372C11.8417 11.8977 12.2319 11.8333 12.5425 11.7045C12.8531 11.5758 13.0841 11.3826 13.2357 11.125C13.391 10.8674 13.4686 10.5473 13.4686 10.1648C13.4686 9.77841 13.391 9.45265 13.2357 9.1875C13.0841 8.92235 12.8512 8.72159 12.5368 8.58523C12.2262 8.44508 11.8341 8.375 11.3607 8.375H9.70157V18H7.24134ZM13.5254 12.7045L16.4175 18H13.7016L10.872 12.7045H13.5254ZM24.0538 9.71023C24.0084 9.25189 23.8133 8.89583 23.4686 8.64205C23.1239 8.38826 22.6561 8.26136 22.0652 8.26136C21.6637 8.26136 21.3247 8.31818 21.0482 8.43182C20.7716 8.54167 20.5595 8.69508 20.4118 8.89205C20.2679 9.08902 20.1959 9.3125 20.1959 9.5625C20.1883 9.77083 20.2319 9.95265 20.3266 10.108C20.4251 10.2633 20.5595 10.3977 20.73 10.5114C20.9004 10.6212 21.0974 10.7178 21.3209 10.8011C21.5444 10.8807 21.783 10.9489 22.0368 11.0057L23.0823 11.2557C23.5898 11.3693 24.0557 11.5208 24.48 11.7102C24.9042 11.8996 25.2716 12.1326 25.5823 12.4091C25.8929 12.6856 26.1334 13.0114 26.3038 13.3864C26.4781 13.7614 26.5671 14.1913 26.5709 14.6761C26.5671 15.3883 26.3853 16.0057 26.0254 16.5284C25.6694 17.0473 25.1542 17.4508 24.48 17.7386C23.8095 18.0227 23.0008 18.1648 22.0538 18.1648C21.1145 18.1648 20.2963 18.0208 19.5993 17.733C18.9061 17.4451 18.3645 17.0189 17.9743 16.4545C17.5879 15.8864 17.3853 15.1837 17.3663 14.3466H19.747C19.7735 14.7367 19.8853 15.0625 20.0823 15.3239C20.283 15.5814 20.5501 15.7765 20.8834 15.9091C21.2205 16.0379 21.6012 16.1023 22.0254 16.1023C22.4421 16.1023 22.8038 16.0417 23.1107 15.9205C23.4213 15.7992 23.6618 15.6307 23.8323 15.4148C24.0027 15.1989 24.0879 14.9508 24.0879 14.6705C24.0879 14.4091 24.0103 14.1894 23.855 14.0114C23.7035 13.8333 23.48 13.6818 23.1845 13.5568C22.8929 13.4318 22.5349 13.3182 22.1107 13.2159L20.8436 12.8977C19.8626 12.6591 19.0879 12.286 18.5198 11.7784C17.9516 11.2708 17.6694 10.5871 17.6732 9.72727C17.6694 9.02273 17.8569 8.4072 18.2357 7.88068C18.6182 7.35417 19.1429 6.94318 19.8095 6.64773C20.4762 6.35227 21.2338 6.20455 22.0823 6.20455C22.9459 6.20455 23.6997 6.35227 24.3436 6.64773C24.9913 6.94318 25.4951 7.35417 25.855 7.88068C26.2148 8.4072 26.4004 9.01705 26.4118 9.71023H24.0538Z"/>
</mask>
<path d="M7.24134 18H4.74134V20.5H7.24134V18ZM7.24134 6.36364V3.86364H4.74134V6.36364H7.24134ZM14.0823 6.83523L12.9534 9.06583L12.9615 9.06994L12.9697 9.074L14.0823 6.83523ZM15.5084 8.15909L13.336 9.39634L13.3409 9.40488L13.3458 9.41339L15.5084 8.15909ZM15.5027 12.1591L17.6439 13.4496L17.6477 13.4432L15.5027 12.1591ZM14.0538 13.4318L12.9959 11.1667L12.9907 11.1692L14.0538 13.4318ZM8.69589 13.875H6.19589V16.375H8.69589V13.875ZM8.69589 11.8977V9.39773H6.19589V11.8977H8.69589ZM12.5425 11.7045L13.5 14.0139L13.5 14.0139L12.5425 11.7045ZM13.2357 11.125L11.0947 9.83413L11.0877 9.84575L11.0808 9.85745L13.2357 11.125ZM13.2357 9.1875L11.0651 10.4278L11.0717 10.4395L11.0785 10.451L13.2357 9.1875ZM12.5368 8.58523L11.5086 10.864L11.5252 10.8715L11.542 10.8788L12.5368 8.58523ZM9.70157 8.375V5.875H7.20157V8.375H9.70157ZM9.70157 18V20.5H12.2016V18H9.70157ZM13.5254 12.7045L15.7195 11.5063L15.0086 10.2045H13.5254V12.7045ZM16.4175 18V20.5H20.6314L18.6116 16.8017L16.4175 18ZM13.7016 18L11.4966 19.1782L12.2029 20.5H13.7016V18ZM10.872 12.7045V10.2045H6.70168L8.66706 13.8827L10.872 12.7045ZM9.74134 18V6.36364H4.74134V18H9.74134ZM7.24134 8.86364H11.8323V3.86364H7.24134V8.86364ZM11.8323 8.86364C12.4191 8.86364 12.7617 8.96885 12.9534 9.06583L15.2112 4.60463C14.1603 4.07281 13.003 3.86364 11.8323 3.86364V8.86364ZM12.9697 9.074C13.178 9.17753 13.2713 9.28273 13.336 9.39634L17.6808 6.92184C17.094 5.89151 16.2365 5.11413 15.1949 4.59645L12.9697 9.074ZM13.3458 9.41339C13.4192 9.53984 13.5027 9.76049 13.5027 10.1648H18.5027C18.5027 9.03117 18.2567 7.91471 17.671 6.90479L13.3458 9.41339ZM13.5027 10.1648C13.5027 10.5721 13.4179 10.7745 13.3577 10.875L17.6477 13.4432C18.2542 12.43 18.5027 11.3029 18.5027 10.1648H13.5027ZM13.3616 10.8685C13.3055 10.9616 13.2169 11.0635 12.9959 11.1667L15.1118 15.6969C16.1559 15.2093 17.0333 14.4627 17.6438 13.4496L13.3616 10.8685ZM12.9907 11.1692C12.7756 11.2702 12.3977 11.375 11.7698 11.375V16.375C12.9297 16.375 14.0745 16.1843 15.117 15.6945L12.9907 11.1692ZM11.7698 11.375H8.69589V16.375H11.7698V11.375ZM11.1959 13.875V11.8977H6.19589V13.875H11.1959ZM8.69589 14.3977H11.372V9.39773H8.69589V14.3977ZM11.372 14.3977C12.0491 14.3977 12.791 14.3079 13.5 14.0139L11.5849 9.39519C11.6342 9.37476 11.6481 9.37648 11.6098 9.3828C11.5715 9.38912 11.495 9.39773 11.372 9.39773V14.3977ZM13.5 14.0139C14.2464 13.7044 14.9295 13.1762 15.3905 12.3925L11.0808 9.85745C11.1514 9.7375 11.2428 9.63068 11.3452 9.54509C11.4451 9.46158 11.5332 9.41663 11.5849 9.39519L13.5 14.0139ZM15.3766 12.4159C15.8227 11.676 15.9686 10.8803 15.9686 10.1648H10.9686C10.9686 10.2144 10.9592 10.0589 11.0947 9.83413L15.3766 12.4159ZM15.9686 10.1648C15.9686 9.44713 15.8235 8.65927 15.3929 7.92399L11.0785 10.451C10.9584 10.246 10.9686 10.1097 10.9686 10.1648H15.9686ZM15.4063 7.94715C14.9544 7.15644 14.2779 6.61537 13.5316 6.29167L11.542 10.8788C11.494 10.858 11.4103 10.8137 11.3153 10.7319C11.2179 10.648 11.1314 10.5439 11.0651 10.4278L15.4063 7.94715ZM13.565 6.30646C12.8312 5.97534 12.0595 5.875 11.3607 5.875V10.875C11.4766 10.875 11.5432 10.8838 11.5699 10.8886C11.5962 10.8933 11.5695 10.8915 11.5086 10.864L13.565 6.30646ZM11.3607 5.875H9.70157V10.875H11.3607V5.875ZM7.20157 8.375V18H12.2016V8.375H7.20157ZM9.70157 15.5H7.24134V20.5H9.70157V15.5ZM11.3313 13.9028L14.2234 19.1983L18.6116 16.8017L15.7195 11.5063L11.3313 13.9028ZM16.4175 15.5H13.7016V20.5H16.4175V15.5ZM15.9065 16.8218L13.077 11.5264L8.66706 13.8827L11.4966 19.1782L15.9065 16.8218ZM10.872 15.2045H13.5254V10.2045H10.872V15.2045ZM24.0538 9.71023L21.566 9.95695L21.7895 12.2102H24.0538V9.71023ZM21.0482 8.43182L21.9712 10.7552L21.9848 10.7498L21.9984 10.7442L21.0482 8.43182ZM20.4118 8.89205L18.4118 7.39204L18.4025 7.40447L18.3933 7.41701L20.4118 8.89205ZM20.1959 9.5625L22.6942 9.65335L22.6959 9.60794V9.5625H20.1959ZM20.3266 10.108L18.1921 11.4095L18.2035 11.4282L18.2153 11.4468L20.3266 10.108ZM20.73 10.5114L19.3432 12.5915L19.3594 12.6023L19.3757 12.6128L20.73 10.5114ZM21.3209 10.8011L20.4474 13.1436L20.465 13.1501L20.4826 13.1564L21.3209 10.8011ZM22.0368 11.0057L22.6182 8.57423L22.6006 8.57003L22.583 8.56607L22.0368 11.0057ZM23.0823 11.2557L22.5008 13.6871L22.5184 13.6913L22.5361 13.6953L23.0823 11.2557ZM24.48 11.7102L23.4609 13.9931L24.48 11.7102ZM25.5823 12.4091L27.2446 10.5418L27.2446 10.5418L25.5823 12.4091ZM26.3038 13.3864L24.0279 14.4209L24.0322 14.4304L24.0366 14.4398L26.3038 13.3864ZM26.5709 14.6761L29.0709 14.6894L29.0709 14.673L29.0708 14.6566L26.5709 14.6761ZM26.0254 16.5284L23.9662 15.1108L23.964 15.114L26.0254 16.5284ZM24.48 17.7386L25.4554 20.0405L25.4617 20.0378L24.48 17.7386ZM19.5993 17.733L18.6404 20.0418L18.6449 20.0436L19.5993 17.733ZM17.9743 16.4545L15.907 17.8603L15.9124 17.8682L15.9178 17.8761L17.9743 16.4545ZM17.3663 14.3466V11.8466H14.8091L14.867 14.4031L17.3663 14.3466ZM19.747 14.3466L22.2413 14.1771L22.0829 11.8466H19.747V14.3466ZM20.0823 15.3239L18.0857 16.8285L18.098 16.8447L18.1104 16.8607L20.0823 15.3239ZM20.8834 15.9091L19.9595 18.2321L19.9753 18.2384L19.9912 18.2445L20.8834 15.9091ZM23.1107 15.9205L22.2018 13.5915L22.1921 13.5953L23.1107 15.9205ZM23.8323 15.4148L25.7945 16.9639V16.9639L23.8323 15.4148ZM23.855 14.0114L21.9511 15.6317L21.961 15.6433L21.9711 15.6548L23.855 14.0114ZM23.1845 13.5568L22.1997 15.8547L22.2104 15.8592L23.1845 13.5568ZM22.1107 13.2159L21.5018 15.6406L21.5133 15.6435L21.5248 15.6463L22.1107 13.2159ZM20.8436 12.8977L21.4525 10.473L21.4435 10.4708L21.4345 10.4686L20.8436 12.8977ZM18.5198 11.7784L16.8542 13.6428H16.8542L18.5198 11.7784ZM17.6732 9.72727L20.1731 9.73829L20.1732 9.72606L20.1731 9.71383L17.6732 9.72727ZM18.2357 7.88068L16.2132 6.4111L16.2063 6.42069L18.2357 7.88068ZM24.3436 6.64773L23.3011 8.91997L23.3061 8.92227L24.3436 6.64773ZM25.855 7.88068L23.791 9.29133L23.791 9.29133L25.855 7.88068ZM26.4118 9.71023V12.2102H28.9531L28.9115 9.66925L26.4118 9.71023ZM26.5416 9.4635C26.4323 8.36073 25.9128 7.33707 24.9509 6.62885L21.9864 10.6552C21.882 10.5784 21.7677 10.459 21.6809 10.3006C21.5965 10.1465 21.5721 10.0177 21.566 9.95695L26.5416 9.4635ZM24.9509 6.62885C24.0404 5.9585 22.9909 5.76136 22.0652 5.76136V10.7614C22.186 10.7614 22.2248 10.7748 22.2048 10.7693C22.1796 10.7625 22.0936 10.7342 21.9864 10.6552L24.9509 6.62885ZM22.0652 5.76136C21.4431 5.76136 20.7601 5.84733 20.0979 6.11947L21.9984 10.7442C21.9405 10.768 21.9109 10.7716 21.923 10.7696C21.9355 10.7675 21.9805 10.7614 22.0652 10.7614V5.76136ZM20.1252 6.10844C19.5103 6.35272 18.8885 6.75649 18.4118 7.39204L22.4118 10.392C22.2306 10.6337 22.033 10.7306 21.9712 10.7552L20.1252 6.10844ZM18.3933 7.41701C17.9283 8.05337 17.6959 8.79628 17.6959 9.5625H22.6959C22.6959 9.68076 22.6783 9.82225 22.6295 9.97371C22.5805 10.1258 22.5095 10.2586 22.4303 10.3671L18.3933 7.41701ZM17.6975 9.47165C17.6748 10.0962 17.8064 10.777 18.1921 11.4095L22.4611 8.80644C22.6573 9.12828 22.7018 9.4455 22.6942 9.65335L17.6975 9.47165ZM18.2153 11.4468C18.5211 11.9291 18.9154 12.3063 19.3432 12.5915L22.1167 8.43124C22.2036 8.48918 22.329 8.59742 22.4378 8.7691L18.2153 11.4468ZM19.3757 12.6128C19.721 12.8353 20.0841 13.0081 20.4474 13.1436L22.1943 8.45869C22.1107 8.42749 22.0799 8.40712 22.0842 8.40993L19.3757 12.6128ZM20.4826 13.1564C20.8102 13.273 21.1472 13.3684 21.4906 13.4453L22.583 8.56607C22.4189 8.52933 22.2785 8.48834 22.1592 8.44588L20.4826 13.1564ZM21.4554 13.4371L22.5008 13.6871L23.6637 8.82423L22.6182 8.57423L21.4554 13.4371ZM22.5361 13.6953C22.9002 13.7768 23.2054 13.879 23.4609 13.9931L25.4991 9.42738C24.906 9.16262 24.2795 8.96183 23.6284 8.81607L22.5361 13.6953ZM23.4609 13.9931C23.6778 14.0899 23.8221 14.1893 23.9199 14.2764L27.2446 10.5418C26.7212 10.0759 26.1307 9.70933 25.4991 9.42738L23.4609 13.9931ZM23.9199 14.2764C23.9728 14.3234 24.0031 14.3663 24.0279 14.4209L28.5798 12.3519C28.2637 11.6564 27.813 11.0478 27.2446 10.5418L23.9199 14.2764ZM24.0366 14.4398C24.0378 14.4423 24.0453 14.4589 24.0532 14.4969C24.0613 14.5359 24.0702 14.6002 24.071 14.6957L29.0708 14.6566C29.0647 13.8755 28.9196 13.0831 28.5711 12.3329L24.0366 14.4398ZM24.0709 14.6628C24.0695 14.9368 24.0075 15.0508 23.9662 15.1108L28.0847 17.946C28.7631 16.9605 29.0647 15.8397 29.0709 14.6894L24.0709 14.6628ZM23.964 15.114C23.9184 15.1805 23.8093 15.3067 23.4983 15.4394L25.4617 20.0378C26.4991 19.5949 27.4204 18.9142 28.0869 17.9428L23.964 15.114ZM23.5046 15.4368C23.2204 15.5572 22.7618 15.6648 22.0538 15.6648V20.6648C23.2398 20.6648 24.3987 20.4883 25.4554 20.0405L23.5046 15.4368ZM22.0538 15.6648C21.3641 15.6648 20.8836 15.5585 20.5537 15.4223L18.6449 20.0436C19.709 20.4831 20.8648 20.6648 22.0538 20.6648V15.6648ZM20.5581 15.4241C20.2651 15.3025 20.1224 15.1654 20.0308 15.033L15.9178 17.8761C16.6065 18.8724 17.5471 19.5877 18.6404 20.0418L20.5581 15.4241ZM20.0416 15.0488C19.9804 14.9588 19.8761 14.7513 19.8657 14.29L14.867 14.4031C14.8944 15.6161 15.1954 16.8139 15.907 17.8603L20.0416 15.0488ZM17.3663 16.8466H19.747V11.8466H17.3663V16.8466ZM17.2528 14.5161C17.3057 15.2945 17.5441 16.1098 18.0857 16.8285L22.0788 13.8192C22.1469 13.9097 22.1904 13.9992 22.2155 14.0724C22.2395 14.1426 22.2416 14.1825 22.2413 14.1771L17.2528 14.5161ZM18.1104 16.8607C18.6108 17.5027 19.255 17.9519 19.9595 18.2321L21.8073 13.5861C21.8199 13.5911 21.8576 13.6079 21.9078 13.6446C21.9591 13.6821 22.0101 13.7306 22.0541 13.787L18.1104 16.8607ZM19.9912 18.2445C20.6584 18.4994 21.3488 18.6023 22.0254 18.6023V13.6023C21.8536 13.6023 21.7826 13.5764 21.7756 13.5737L19.9912 18.2445ZM22.0254 18.6023C22.6771 18.6023 23.3642 18.5083 24.0292 18.2456L22.1921 13.5953C22.2435 13.575 22.2071 13.6023 22.0254 13.6023V18.6023ZM24.0195 18.2494C24.6566 18.0008 25.2954 17.596 25.7945 16.9639L21.87 13.8657C22.0282 13.6654 22.186 13.5977 22.2018 13.5915L24.0195 18.2494ZM25.7945 16.9639C26.3203 16.2978 26.5879 15.5013 26.5879 14.6705H21.5879C21.5879 14.5532 21.6065 14.4093 21.6596 14.2546C21.713 14.0993 21.7892 13.9681 21.87 13.8657L25.7945 16.9639ZM26.5879 14.6705C26.5879 13.8739 26.3346 13.0508 25.7389 12.3679L21.9711 15.6548C21.8442 15.5094 21.7404 15.3347 21.6726 15.1428C21.6061 14.9546 21.5879 14.7894 21.5879 14.6705H26.5879ZM25.7588 12.3911C25.2787 11.827 24.6865 11.4777 24.1586 11.2544L22.2104 15.8592C22.2351 15.8697 22.2165 15.8644 22.1708 15.8335C22.1243 15.8019 22.0419 15.7383 21.9511 15.6317L25.7588 12.3911ZM24.1693 11.259C23.7109 11.0625 23.2105 10.9094 22.6966 10.7855L21.5248 15.6463C21.8593 15.7269 22.0748 15.8011 22.1997 15.8547L24.1693 11.259ZM22.7196 10.7912L21.4525 10.473L20.2347 15.3224L21.5018 15.6406L22.7196 10.7912ZM21.4345 10.4686C20.7276 10.2966 20.3637 10.0734 20.1853 9.91401L16.8542 13.6428C17.8122 14.4986 18.9975 15.0216 20.2527 15.3269L21.4345 10.4686ZM20.1853 9.91401C20.1755 9.90528 20.1765 9.90453 20.182 9.91222C20.1877 9.92012 20.1915 9.92775 20.1929 9.93114C20.1968 9.94078 20.1725 9.89041 20.1731 9.73829L15.1732 9.71626C15.1667 11.1895 15.6804 12.5942 16.8542 13.6428L20.1853 9.91401ZM20.1731 9.71383C20.1719 9.48971 20.2219 9.40066 20.2651 9.34068L16.2063 6.42069C15.4919 7.41373 15.1668 8.55574 15.1732 9.74071L20.1731 9.71383ZM20.2581 9.35025C20.3518 9.2213 20.5087 9.07236 20.8225 8.93333L18.7966 4.36213C17.777 4.81401 16.8847 5.48703 16.2132 6.41112L20.2581 9.35025ZM20.8225 8.93333C21.1222 8.80049 21.5261 8.70455 22.0823 8.70455V3.70455C20.9414 3.70455 19.8302 3.90405 18.7966 4.36213L20.8225 8.93333ZM22.0823 8.70455C22.6632 8.70455 23.0477 8.80374 23.3011 8.91997L25.3862 4.37549C24.3516 3.90081 23.2286 3.70455 22.0823 3.70455V8.70455ZM23.3061 8.92227C23.5889 9.05126 23.7173 9.18346 23.791 9.29133L27.919 6.47004C27.273 5.52487 26.3938 4.83511 25.3811 4.37318L23.3061 8.92227ZM23.791 9.29133C23.8506 9.37855 23.9081 9.5029 23.9121 9.7512L28.9115 9.66925C28.8928 8.53119 28.5791 7.43585 27.919 6.47004L23.791 9.29133ZM26.4118 7.21023H24.0538V12.2102H26.4118V7.21023Z" fill="white" mask="url(#path-2-inside-1_1_1787)"/>
</svg>
