<svg width="32" height="32" viewBox="0 0 32 32" fill="none" xmlns="http://www.w3.org/2000/svg">
<path fill-rule="evenodd" clip-rule="evenodd" d="M16 0L21 5L11 5L16 0ZM0 15C0 10.5817 3.58172 7 8 7H24C28.4183 7 32 10.5817 32 15V17C32 21.4183 28.4183 25 24 25H8C3.58172 25 0 21.4183 0 17V15ZM21 27L16 32L11 27H21Z" fill="black"/>
<mask id="path-2-inside-1_1_1790" fill="white">
<path d="M12.6945 21V9.36364H15.1547V18.9716H20.1433V21H12.6945Z"/>
</mask>
<path d="M12.6945 21H10.1945V23.5H12.6945V21ZM12.6945 9.36364V6.86364H10.1945V9.36364H12.6945ZM15.1547 9.36364H17.6547V6.86364H15.1547V9.36364ZM15.1547 18.9716H12.6547V21.4716H15.1547V18.9716ZM20.1433 18.9716H22.6433V16.4716H20.1433V18.9716ZM20.1433 21V23.5H22.6433V21H20.1433ZM15.1945 21V9.36364H10.1945V21H15.1945ZM12.6945 11.8636H15.1547V6.86364H12.6945V11.8636ZM12.6547 9.36364V18.9716H17.6547V9.36364H12.6547ZM15.1547 21.4716H20.1433V16.4716H15.1547V21.4716ZM17.6433 18.9716V21H22.6433V18.9716H17.6433ZM20.1433 18.5H12.6945V23.5H20.1433V18.5Z" fill="white" mask="url(#path-2-inside-1_1_1790)"/>
</svg>
