<svg width="32" height="32" viewBox="0 0 32 32" fill="none" xmlns="http://www.w3.org/2000/svg">
<g clip-path="url(#clip0_1_1780)">
<circle cx="16" cy="16" r="16" fill="black"/>
<mask id="path-2-inside-1_1_1780" fill="white">
<path d="M12.9993 8.45455L15.9325 13.4119H16.0462L18.9936 8.45455H22.4666L18.0277 15.7273L22.5661 23H19.0291L16.0462 18.0355H15.9325L12.9496 23H9.42685L13.9794 15.7273L9.51207 8.45455H12.9993Z"/>
</mask>
<path d="M12.9993 8.45455L15.1509 7.18148L14.4249 5.95455H12.9993V8.45455ZM15.9325 13.4119L13.7809 14.685L14.5069 15.9119H15.9325V13.4119ZM16.0462 13.4119V15.9119H17.4683L18.195 14.6896L16.0462 13.4119ZM18.9936 8.45455V5.95455H17.5715L16.8447 7.17692L18.9936 8.45455ZM22.4666 8.45455L24.6005 9.75699L26.9214 5.95455H22.4666V8.45455ZM18.0277 15.7273L15.8938 14.4248L15.0899 15.7418L15.9068 17.0508L18.0277 15.7273ZM22.5661 23V25.5H27.0729L24.687 21.6765L22.5661 23ZM19.0291 23L16.8862 24.2876L17.6147 25.5H19.0291V23ZM16.0462 18.0355L18.1891 16.7479L17.4606 15.5355H16.0462V18.0355ZM15.9325 18.0355V15.5355H14.5181L13.7896 16.7479L15.9325 18.0355ZM12.9496 23V25.5H14.364L15.0925 24.2876L12.9496 23ZM9.42685 23L7.30778 21.6735L4.91249 25.5H9.42685V23ZM13.9794 15.7273L16.0985 17.0538L16.921 15.7397L16.1096 14.4188L13.9794 15.7273ZM9.51207 8.45455V5.95455H5.04246L7.38186 9.76305L9.51207 8.45455ZM10.8477 9.72761L13.7809 14.685L18.0841 12.1389L15.1509 7.18148L10.8477 9.72761ZM15.9325 15.9119H16.0462V10.9119H15.9325V15.9119ZM18.195 14.6896L21.1425 9.73217L16.8447 7.17692L13.8973 12.1343L18.195 14.6896ZM18.9936 10.9545H22.4666V5.95455H18.9936V10.9545ZM20.3327 7.1521L15.8938 14.4248L20.1616 17.0297L24.6005 9.75699L20.3327 7.1521ZM15.9068 17.0508L20.4451 24.3235L24.687 21.6765L20.1486 14.4038L15.9068 17.0508ZM22.5661 20.5H19.0291V25.5H22.5661V20.5ZM21.172 21.7124L18.1891 16.7479L13.9032 19.3231L16.8862 24.2876L21.172 21.7124ZM16.0462 15.5355H15.9325V20.5355H16.0462V15.5355ZM13.7896 16.7479L10.8067 21.7124L15.0925 24.2876L18.0754 19.3231L13.7896 16.7479ZM12.9496 20.5H9.42685V25.5H12.9496V20.5ZM11.5459 24.3265L16.0985 17.0538L11.8603 14.4008L7.30778 21.6735L11.5459 24.3265ZM16.1096 14.4188L11.6423 7.14604L7.38186 9.76305L11.8492 17.0358L16.1096 14.4188ZM9.51207 10.9545H12.9993V5.95455H9.51207V10.9545Z" fill="white" mask="url(#path-2-inside-1_1_1780)"/>
</g>
<defs>
<clipPath id="clip0_1_1780">
<rect width="32" height="32" fill="white"/>
</clipPath>
</defs>
</svg>
