<svg width="32" height="32" viewBox="0 0 32 32" fill="none" xmlns="http://www.w3.org/2000/svg">
<g clip-path="url(#clip0_1_1779)">
<circle cx="16" cy="16" r="16" fill="black"/>
<mask id="path-2-inside-1_1_1779" fill="white">
<path d="M9.16584 8.45455H12.6104L15.9272 14.7188H16.0692L19.386 8.45455H22.8306L17.5252 17.858V23H14.4712V17.858L9.16584 8.45455Z"/>
</mask>
<path d="M9.16584 8.45455V5.95455H4.88489L6.98848 9.68301L9.16584 8.45455ZM12.6104 8.45455L14.8198 7.28471L14.1156 5.95455H12.6104V8.45455ZM15.9272 14.7188L13.7178 15.8886L14.4221 17.2188H15.9272V14.7188ZM16.0692 14.7188V17.2188H17.5744L18.2787 15.8886L16.0692 14.7188ZM19.386 8.45455V5.95455H17.8809L17.1766 7.28471L19.386 8.45455ZM22.8306 8.45455L25.008 9.68301L27.1116 5.95455H22.8306V8.45455ZM17.5252 17.858L15.3479 16.6295L15.0252 17.2014V17.858H17.5252ZM17.5252 23V25.5H20.0252V23H17.5252ZM14.4712 23H11.9712V25.5H14.4712V23ZM14.4712 17.858H16.9712V17.2014L16.6486 16.6295L14.4712 17.858ZM9.16584 10.9545H12.6104V5.95455H9.16584V10.9545ZM10.401 9.62438L13.7178 15.8886L18.1366 13.5489L14.8198 7.28471L10.401 9.62438ZM15.9272 17.2188H16.0692V12.2188H15.9272V17.2188ZM18.2787 15.8886L21.5954 9.62438L17.1766 7.28471L13.8598 13.5489L18.2787 15.8886ZM19.386 10.9545H22.8306V5.95455H19.386V10.9545ZM20.6533 7.22608L15.3479 16.6295L19.7026 19.0864L25.008 9.68301L20.6533 7.22608ZM15.0252 17.858V23H20.0252V17.858H15.0252ZM17.5252 20.5H14.4712V25.5H17.5252V20.5ZM16.9712 23V17.858H11.9712V23H16.9712ZM16.6486 16.6295L11.3432 7.22608L6.98848 9.68301L12.2939 19.0864L16.6486 16.6295Z" fill="white" mask="url(#path-2-inside-1_1_1779)"/>
</g>
<defs>
<clipPath id="clip0_1_1779">
<rect width="32" height="32" fill="white"/>
</clipPath>
</defs>
</svg>
