<svg width="32" height="32" viewBox="0 0 32 32" fill="none" xmlns="http://www.w3.org/2000/svg">
<path fill-rule="evenodd" clip-rule="evenodd" d="M21 0L16 5L11 0H21ZM0 15C0 10.5817 3.58172 7 8 7H24C28.4183 7 32 10.5817 32 15V18C32 22.4183 28.4183 26 24 26H23.1111V32H8.88892V26H8C3.58172 26 0 22.4183 0 18V15Z" fill="black"/>
<mask id="path-2-inside-1_1_1772" fill="white">
<path d="M7.42103 22V10.3636H9.88126V19.9716H14.8699V22H7.42103ZM20.7321 22.1591C19.8836 22.1591 19.1279 22.0133 18.4651 21.7216C17.806 21.4261 17.2851 21.0208 16.9026 20.5057C16.5238 19.9867 16.3287 19.3883 16.3173 18.7102H18.7946C18.8098 18.9943 18.9026 19.2443 19.073 19.4602C19.2473 19.6723 19.4783 19.8371 19.7662 19.9545C20.0541 20.072 20.3779 20.1307 20.7378 20.1307C21.1128 20.1307 21.4442 20.0644 21.7321 19.9318C22.02 19.7992 22.2454 19.6155 22.4082 19.3807C22.5711 19.1458 22.6526 18.875 22.6526 18.5682C22.6526 18.2576 22.5654 17.983 22.3912 17.7443C22.2207 17.5019 21.9745 17.3125 21.6526 17.1761C21.3344 17.0398 20.9556 16.9716 20.5162 16.9716H19.431V15.1648H20.5162C20.8874 15.1648 21.2151 15.1004 21.4992 14.9716C21.787 14.8428 22.0105 14.6648 22.1696 14.4375C22.3287 14.2064 22.4082 13.9375 22.4082 13.6307C22.4082 13.339 22.3382 13.0833 22.198 12.8636C22.0617 12.6402 21.8685 12.4659 21.6185 12.3409C21.3723 12.2159 21.0844 12.1534 20.7548 12.1534C20.4215 12.1534 20.1166 12.214 19.8401 12.3352C19.5636 12.4527 19.342 12.6212 19.1753 12.8409C19.0086 13.0606 18.9196 13.3182 18.9082 13.6136H16.5503C16.5617 12.9432 16.7529 12.3523 17.1242 11.8409C17.4954 11.3295 17.9954 10.9299 18.6242 10.642C19.2567 10.3504 19.9707 10.2045 20.7662 10.2045C21.5692 10.2045 22.2719 10.3504 22.8742 10.642C23.4764 10.9337 23.9442 11.3277 24.2776 11.8239C24.6147 12.3163 24.7814 12.8693 24.7776 13.483C24.7814 14.1345 24.5787 14.678 24.1696 15.1136C23.7643 15.5492 23.2359 15.8258 22.5844 15.9432V16.0341C23.4404 16.1439 24.092 16.4413 24.5389 16.9261C24.9897 17.4072 25.2132 18.0095 25.2094 18.733C25.2132 19.3958 25.0219 19.9848 24.6355 20.5C24.2529 21.0152 23.7245 21.4205 23.0503 21.7159C22.3761 22.0114 21.6033 22.1591 20.7321 22.1591Z"/>
</mask>
<path d="M7.42103 22H4.92103V24.5H7.42103V22ZM7.42103 10.3636V7.86364H4.92103V10.3636H7.42103ZM9.88126 10.3636H12.3813V7.86364H9.88126V10.3636ZM9.88126 19.9716H7.38126V22.4716H9.88126V19.9716ZM14.8699 19.9716H17.3699V17.4716H14.8699V19.9716ZM14.8699 22V24.5H17.3699V22H14.8699ZM9.92103 22V10.3636H4.92103V22H9.92103ZM7.42103 12.8636H9.88126V7.86364H7.42103V12.8636ZM7.38126 10.3636V19.9716H12.3813V10.3636H7.38126ZM9.88126 22.4716H14.8699V17.4716H9.88126V22.4716ZM12.3699 19.9716V22H17.3699V19.9716H12.3699ZM14.8699 19.5H7.42103V24.5H14.8699V19.5ZM18.4651 21.7216L17.4424 24.0029L17.4503 24.0064L17.4582 24.0099L18.4651 21.7216ZM16.9026 20.5057L14.8833 21.9796L14.8894 21.9879L14.8955 21.9962L16.9026 20.5057ZM16.3173 18.7102V16.2102H13.7751L13.8177 18.7521L16.3173 18.7102ZM18.7946 18.7102L21.2911 18.5771L21.1648 16.2102H18.7946V18.7102ZM19.073 19.4602L17.1108 21.0093L17.1258 21.0284L17.1412 21.0471L19.073 19.4602ZM19.7662 19.9545L18.822 22.2694L18.822 22.2694L19.7662 19.9545ZM21.7321 19.9318L20.6864 17.661L21.7321 19.9318ZM22.4082 19.3807L24.4625 20.8054L24.4625 20.8054L22.4082 19.3807ZM22.3912 17.7443L20.3461 19.1823L20.359 19.2005L20.3721 19.2186L22.3912 17.7443ZM21.6526 17.1761L20.6678 19.474L20.6776 19.4782L21.6526 17.1761ZM19.431 16.9716H16.931V19.4716H19.431V16.9716ZM19.431 15.1648V12.6648H16.931V15.1648H19.431ZM21.4992 14.9716L20.4782 12.6895L20.4669 12.6946L21.4992 14.9716ZM22.1696 14.4375L24.2177 15.8712L24.2232 15.8632L24.2287 15.8553L22.1696 14.4375ZM22.198 12.8636L20.0639 14.1658L20.0769 14.1871L20.0904 14.2082L22.198 12.8636ZM21.6185 12.3409L20.4867 14.5701L20.4936 14.5735L20.5004 14.577L21.6185 12.3409ZM19.8401 12.3352L20.8172 14.6363L20.8305 14.6307L20.8438 14.6249L19.8401 12.3352ZM19.1753 12.8409L21.167 14.3519L21.167 14.3519L19.1753 12.8409ZM18.9082 13.6136V16.1136H21.3139L21.4064 13.7097L18.9082 13.6136ZM16.5503 13.6136L14.0507 13.5713L14.0076 16.1136H16.5503V13.6136ZM17.1242 11.8409L19.1473 13.3096L19.1473 13.3096L17.1242 11.8409ZM18.6242 10.642L19.6649 12.9151L19.6709 12.9123L18.6242 10.642ZM22.8742 10.642L23.9638 8.392V8.392L22.8742 10.642ZM24.2776 11.8239L22.2023 13.2179L22.2085 13.2271L22.2147 13.2361L24.2776 11.8239ZM24.7776 13.483L22.2776 13.4675L22.2775 13.4825L22.2776 13.4975L24.7776 13.483ZM24.1696 15.1136L22.3472 13.4022L22.3393 13.4107L24.1696 15.1136ZM22.5844 15.9432L22.1409 13.4828L20.0844 13.8535V15.9432H22.5844ZM22.5844 16.0341H20.0844V18.2338L22.2662 18.5138L22.5844 16.0341ZM24.5389 16.9261L22.7008 18.6206L22.7077 18.6281L22.7146 18.6355L24.5389 16.9261ZM25.2094 18.733L22.7094 18.7199L22.7093 18.7336L22.7094 18.7472L25.2094 18.733ZM24.6355 20.5L22.6355 19L22.6285 19.0095L24.6355 20.5ZM23.0503 21.7159L22.0469 19.4261H22.0469L23.0503 21.7159ZM20.7321 19.6591C20.1715 19.6591 19.7677 19.5635 19.4719 19.4333L17.4582 24.0099C18.4882 24.4631 19.5958 24.6591 20.7321 24.6591V19.6591ZM19.4877 19.4403C19.1691 19.2975 19.0064 19.1454 18.9096 19.0151L14.8955 21.9962C15.5639 22.8962 16.4429 23.5548 17.4424 24.0029L19.4877 19.4403ZM18.9219 19.0317C18.8644 18.953 18.8202 18.8612 18.817 18.6683L13.8177 18.7521C13.8372 19.9153 14.1832 21.0204 14.8833 21.9796L18.9219 19.0317ZM16.3173 21.2102H18.7946V16.2102H16.3173V21.2102ZM16.2982 18.8434C16.3398 19.6245 16.6088 20.3734 17.1108 21.0093L21.0352 17.9111C21.1067 18.0017 21.1719 18.1132 21.2193 18.2408C21.2664 18.3676 21.2861 18.484 21.2911 18.5771L16.2982 18.8434ZM17.1412 21.0471C17.6123 21.6206 18.2012 22.0162 18.822 22.2694L20.7104 17.6397C20.7554 17.6581 20.8822 17.7241 21.0048 17.8734L17.1412 21.0471ZM18.822 22.2694C19.453 22.5268 20.1046 22.6307 20.7378 22.6307V17.6307C20.6937 17.6307 20.6728 17.6271 20.671 17.6267C20.6698 17.6265 20.6847 17.6292 20.7104 17.6397L18.822 22.2694ZM20.7378 22.6307C21.4085 22.6307 22.1074 22.5113 22.7779 22.2026L20.6864 17.661C20.7312 17.6404 20.7641 17.6322 20.7773 17.6295C20.7895 17.6271 20.7783 17.6307 20.7378 17.6307V22.6307ZM22.7779 22.2026C23.4261 21.9041 24.0181 21.4463 24.4625 20.8054L20.354 17.9559C20.4083 17.8776 20.4719 17.8103 20.5375 17.7568C20.6019 17.7043 20.6561 17.675 20.6864 17.661L22.7779 22.2026ZM24.4625 20.8054C24.9373 20.1209 25.1526 19.3448 25.1526 18.5682H20.1526C20.1526 18.4983 20.1622 18.3985 20.1974 18.2815C20.233 18.1629 20.2874 18.0518 20.354 17.9559L24.4625 20.8054ZM25.1526 18.5682C25.1526 17.7565 24.9137 16.9595 24.4103 16.2701L20.3721 19.2186C20.3041 19.1253 20.2445 19.012 20.2043 18.8852C20.1644 18.7597 20.1526 18.6494 20.1526 18.5682H25.1526ZM24.4363 16.3064C23.9518 15.6174 23.3015 15.1595 22.6276 14.8741L20.6776 19.4782C20.6667 19.4736 20.6196 19.4522 20.5544 19.402C20.4872 19.3503 20.4129 19.2773 20.3461 19.1823L24.4363 16.3064ZM22.6374 14.8783C21.9363 14.5778 21.2064 14.4716 20.5162 14.4716V19.4716C20.7048 19.4716 20.7324 19.5017 20.6678 19.474L22.6374 14.8783ZM20.5162 14.4716H19.431V19.4716H20.5162V14.4716ZM21.931 16.9716V15.1648H16.931V16.9716H21.931ZM19.431 17.6648H20.5162V12.6648H19.431V17.6648ZM20.5162 17.6648C21.1767 17.6648 21.8673 17.5496 22.5314 17.2485L20.4669 12.6946C20.5127 12.6739 20.5458 12.6659 20.5582 12.6634C20.5697 12.6612 20.5577 12.6648 20.5162 12.6648V17.6648ZM22.5201 17.2536C23.1631 16.966 23.7653 16.5175 24.2177 15.8712L20.1215 13.0038C20.1837 12.9151 20.2547 12.842 20.325 12.7861C20.3937 12.7313 20.4499 12.7022 20.4782 12.6895L22.5201 17.2536ZM24.2287 15.8553C24.7019 15.168 24.9082 14.3942 24.9082 13.6307H19.9082C19.9082 13.5664 19.9169 13.4697 19.9513 13.3534C19.9862 13.2353 20.0407 13.1211 20.1105 13.0197L24.2287 15.8553ZM24.9082 13.6307C24.9082 12.9212 24.7318 12.1871 24.3057 11.5191L20.0904 14.2082C20.0232 14.1029 19.9747 13.9907 19.9446 13.881C19.9151 13.7732 19.9082 13.686 19.9082 13.6307H24.9082ZM24.3321 11.5615C23.9347 10.9102 23.3765 10.4248 22.7365 10.1048L20.5004 14.577C20.4386 14.5461 20.3593 14.4965 20.2764 14.4218C20.1927 14.3462 20.1206 14.2587 20.0639 14.1658L24.3321 11.5615ZM22.7502 10.1117C22.0917 9.7774 21.4022 9.65341 20.7548 9.65341V14.6534C20.7666 14.6534 20.6529 14.6544 20.4867 14.5701L22.7502 10.1117ZM20.7548 9.65341C20.1122 9.65341 19.4609 9.77181 18.8364 10.0456L20.8438 14.6249C20.8114 14.6391 20.7832 14.647 20.7635 14.6509C20.7444 14.6547 20.7401 14.6534 20.7548 14.6534V9.65341ZM18.8629 10.0341C18.222 10.3063 17.637 10.7323 17.1836 11.3299L21.167 14.3519C21.1121 14.4243 21.0479 14.4879 20.9801 14.5395C20.9132 14.5903 20.855 14.6203 20.8172 14.6363L18.8629 10.0341ZM17.1836 11.3299C16.6842 11.9882 16.4397 12.7487 16.4101 13.5176L21.4064 13.7097C21.4034 13.7868 21.3887 13.8932 21.3464 14.0154C21.3036 14.1393 21.2414 14.2539 21.167 14.3519L17.1836 11.3299ZM18.9082 11.1136H16.5503V16.1136H18.9082V11.1136ZM19.0499 13.656C19.0532 13.4654 19.0965 13.3796 19.1473 13.3096L15.101 10.3723C14.4094 11.325 14.0701 12.4209 14.0507 13.5713L19.0499 13.656ZM19.1473 13.3096C19.2423 13.1787 19.3894 13.0413 19.6649 12.9151L17.5835 8.36895C16.6013 8.8186 15.7484 9.4804 15.101 10.3723L19.1473 13.3096ZM19.6709 12.9123C19.9317 12.7921 20.2809 12.7045 20.7662 12.7045V7.70455C19.6606 7.70455 18.5817 7.90866 17.5774 8.37175L19.6709 12.9123ZM20.7662 12.7045C21.2664 12.7045 21.5832 12.7946 21.7845 12.8921L23.9638 8.392C22.9606 7.90617 21.8721 7.70455 20.7662 7.70455V12.7045ZM21.7845 12.8921C22.0369 13.0143 22.1444 13.1317 22.2023 13.2179L26.3528 10.4298C25.744 9.52356 24.9159 8.85309 23.9638 8.392L21.7845 12.8921ZM22.2147 13.2361C22.2555 13.2958 22.2784 13.3479 22.2776 13.4675L27.2775 13.4984C27.2844 12.3908 26.9738 11.3368 26.3404 10.4116L22.2147 13.2361ZM22.2776 13.4975C22.278 13.5573 22.2692 13.5509 22.2859 13.5059C22.2937 13.4851 22.3045 13.4629 22.3175 13.4421C22.3304 13.4213 22.3418 13.408 22.3473 13.4022L25.992 16.8251C26.8813 15.8781 27.2847 14.6976 27.2775 13.4684L22.2776 13.4975ZM22.3393 13.4107C22.3302 13.4205 22.3239 13.4255 22.3102 13.4327C22.294 13.4412 22.2443 13.4642 22.1409 13.4828L23.0278 18.4035C24.1483 18.2016 25.185 17.6924 25.9999 16.8166L22.3393 13.4107ZM20.0844 15.9432V16.0341H25.0844V15.9432H20.0844ZM22.2662 18.5138C22.4946 18.5431 22.6208 18.5881 22.6771 18.6138C22.7265 18.6364 22.7216 18.6432 22.7008 18.6206L26.377 15.2316C25.4224 14.1961 24.1592 13.7157 22.9026 13.5544L22.2662 18.5138ZM22.7146 18.6355C22.7192 18.6404 22.7169 18.6387 22.7119 18.6307C22.7068 18.6225 22.7029 18.6142 22.7008 18.6084C22.6987 18.6028 22.7006 18.6061 22.7032 18.6218C22.7059 18.6379 22.7097 18.6696 22.7094 18.7199L27.7094 18.746C27.7161 17.4511 27.2955 16.2118 26.3632 15.2168L22.7146 18.6355ZM22.7094 18.7472C22.7102 18.8816 22.6842 18.9351 22.6355 19L26.6355 22C27.3596 21.0346 27.7162 19.9101 27.7093 18.7187L22.7094 18.7472ZM22.6285 19.0095C22.5414 19.1268 22.3822 19.2792 22.0469 19.4261L24.0537 24.0057C25.0669 23.5617 25.9645 22.9035 26.6426 21.9905L22.6285 19.0095ZM22.0469 19.4261C21.7416 19.5599 21.3204 19.6591 20.7321 19.6591V24.6591C21.8863 24.6591 23.0105 24.4628 24.0537 24.0057L22.0469 19.4261Z" fill="white" mask="url(#path-2-inside-1_1_1772)"/>
</svg>
