<svg width="46" height="32" viewBox="0 0 46 32" fill="none" xmlns="http://www.w3.org/2000/svg">
<path fill-rule="evenodd" clip-rule="evenodd" d="M15 3C10.5817 3 7 6.58172 7 11V14C7 18.4183 10.5817 22 15 22H15.8889V28H30.1111V22H31C35.4183 22 39 18.4183 39 14V11C39 6.58172 35.4183 3 31 3H15ZM46 14L41 9V19L46 14ZM5 9L0 14L5 19L5 9Z" fill="black"/>
<mask id="path-2-inside-1_1_1774" fill="white">
<path d="M14.421 18V6.36364H16.8813V15.9716H21.8699V18H14.421ZM27.7321 18.1591C26.8836 18.1591 26.1279 18.0133 25.4651 17.7216C24.806 17.4261 24.2851 17.0208 23.9026 16.5057C23.5238 15.9867 23.3287 15.3883 23.3173 14.7102H25.7946C25.8098 14.9943 25.9026 15.2443 26.073 15.4602C26.2473 15.6723 26.4783 15.8371 26.7662 15.9545C27.0541 16.072 27.3779 16.1307 27.7378 16.1307C28.1128 16.1307 28.4442 16.0644 28.7321 15.9318C29.02 15.7992 29.2454 15.6155 29.4082 15.3807C29.5711 15.1458 29.6526 14.875 29.6526 14.5682C29.6526 14.2576 29.5654 13.983 29.3912 13.7443C29.2207 13.5019 28.9745 13.3125 28.6526 13.1761C28.3344 13.0398 27.9556 12.9716 27.5162 12.9716H26.431V11.1648H27.5162C27.8874 11.1648 28.2151 11.1004 28.4992 10.9716C28.787 10.8428 29.0105 10.6648 29.1696 10.4375C29.3287 10.2064 29.4082 9.9375 29.4082 9.63068C29.4082 9.33902 29.3382 9.08333 29.198 8.86364C29.0617 8.64015 28.8685 8.46591 28.6185 8.34091C28.3723 8.21591 28.0844 8.15341 27.7548 8.15341C27.4215 8.15341 27.1166 8.21402 26.8401 8.33523C26.5636 8.45265 26.342 8.62121 26.1753 8.84091C26.0086 9.06061 25.9196 9.31818 25.9082 9.61364H23.5503C23.5617 8.94318 23.7529 8.35227 24.1242 7.84091C24.4954 7.32955 24.9954 6.92992 25.6242 6.64205C26.2567 6.35038 26.9707 6.20455 27.7662 6.20455C28.5692 6.20455 29.2719 6.35038 29.8742 6.64205C30.4764 6.93371 30.9442 7.32765 31.2776 7.82386C31.6147 8.31629 31.7814 8.86932 31.7776 9.48295C31.7814 10.1345 31.5787 10.678 31.1696 11.1136C30.7643 11.5492 30.2359 11.8258 29.5844 11.9432V12.0341C30.4404 12.1439 31.092 12.4413 31.5389 12.9261C31.9897 13.4072 32.2132 14.0095 32.2094 14.733C32.2132 15.3958 32.0219 15.9848 31.6355 16.5C31.2529 17.0152 30.7245 17.4205 30.0503 17.7159C29.3761 18.0114 28.6033 18.1591 27.7321 18.1591Z"/>
</mask>
<path d="M14.421 18H11.921V20.5H14.421V18ZM14.421 6.36364V3.86364H11.921V6.36364H14.421ZM16.8813 6.36364H19.3813V3.86364H16.8813V6.36364ZM16.8813 15.9716H14.3813V18.4716H16.8813V15.9716ZM21.8699 15.9716H24.3699V13.4716H21.8699V15.9716ZM21.8699 18V20.5H24.3699V18H21.8699ZM16.921 18V6.36364H11.921V18H16.921ZM14.421 8.86364H16.8813V3.86364H14.421V8.86364ZM14.3813 6.36364V15.9716H19.3813V6.36364H14.3813ZM16.8813 18.4716H21.8699V13.4716H16.8813V18.4716ZM19.3699 15.9716V18H24.3699V15.9716H19.3699ZM21.8699 15.5H14.421V20.5H21.8699V15.5ZM25.4651 17.7216L24.4424 20.0029L24.4503 20.0064L24.4582 20.0099L25.4651 17.7216ZM23.9026 16.5057L21.8833 17.9796L21.8894 17.9879L21.8955 17.9962L23.9026 16.5057ZM23.3173 14.7102V12.2102H20.7751L20.8177 14.7521L23.3173 14.7102ZM25.7946 14.7102L28.2911 14.5771L28.1648 12.2102H25.7946V14.7102ZM26.073 15.4602L24.1108 17.0093L24.1258 17.0284L24.1412 17.0471L26.073 15.4602ZM26.7662 15.9545L25.822 18.2694L25.822 18.2694L26.7662 15.9545ZM28.7321 15.9318L27.6864 13.661L28.7321 15.9318ZM29.4082 15.3807L31.4625 16.8054L31.4625 16.8054L29.4082 15.3807ZM29.3912 13.7443L27.3461 15.1823L27.359 15.2005L27.3721 15.2186L29.3912 13.7443ZM28.6526 13.1761L27.6678 15.474L27.6776 15.4782L28.6526 13.1761ZM26.431 12.9716H23.931V15.4716H26.431V12.9716ZM26.431 11.1648V8.66477H23.931V11.1648H26.431ZM28.4992 10.9716L27.4782 8.68952L27.4669 8.69464L28.4992 10.9716ZM29.1696 10.4375L31.2177 11.8712L31.2232 11.8632L31.2287 11.8553L29.1696 10.4375ZM29.198 8.86364L27.0639 10.1658L27.0769 10.1871L27.0904 10.2082L29.198 8.86364ZM28.6185 8.34091L27.4867 10.5701L27.4936 10.5735L27.5004 10.577L28.6185 8.34091ZM26.8401 8.33523L27.8172 10.6363L27.8305 10.6307L27.8438 10.6249L26.8401 8.33523ZM26.1753 8.84091L28.167 10.3519L28.167 10.3519L26.1753 8.84091ZM25.9082 9.61364V12.1136H28.3139L28.4064 9.70972L25.9082 9.61364ZM23.5503 9.61364L21.0507 9.57127L21.0076 12.1136H23.5503V9.61364ZM24.1242 7.84091L26.1473 9.30956L26.1473 9.30956L24.1242 7.84091ZM25.6242 6.64205L26.6649 8.91515L26.6709 8.91234L25.6242 6.64205ZM29.8742 6.64205L30.9638 4.392V4.392L29.8742 6.64205ZM31.2776 7.82386L29.2023 9.21792L29.2085 9.22706L29.2147 9.23614L31.2776 7.82386ZM31.7776 9.48295L29.2776 9.46752L29.2775 9.48251L29.2776 9.49749L31.7776 9.48295ZM31.1696 11.1136L29.3472 9.40218L29.3393 9.41068L31.1696 11.1136ZM29.5844 11.9432L29.1409 9.48282L27.0844 9.85348V11.9432H29.5844ZM29.5844 12.0341H27.0844V14.2338L29.2662 14.5138L29.5844 12.0341ZM31.5389 12.9261L29.7008 14.6206L29.7077 14.6281L29.7146 14.6355L31.5389 12.9261ZM32.2094 14.733L29.7094 14.7199L29.7093 14.7336L29.7094 14.7472L32.2094 14.733ZM31.6355 16.5L29.6355 15L29.6285 15.0095L31.6355 16.5ZM30.0503 17.7159L29.0469 15.4261H29.0469L30.0503 17.7159ZM27.7321 15.6591C27.1715 15.6591 26.7677 15.5635 26.4719 15.4333L24.4582 20.0099C25.4882 20.4631 26.5958 20.6591 27.7321 20.6591V15.6591ZM26.4877 15.4403C26.1691 15.2975 26.0064 15.1454 25.9096 15.0151L21.8955 17.9962C22.5639 18.8962 23.4429 19.5548 24.4424 20.0029L26.4877 15.4403ZM25.9219 15.0317C25.8644 14.953 25.8202 14.8612 25.817 14.6683L20.8177 14.7521C20.8372 15.9153 21.1832 17.0204 21.8833 17.9796L25.9219 15.0317ZM23.3173 17.2102H25.7946V12.2102H23.3173V17.2102ZM23.2982 14.8434C23.3398 15.6245 23.6088 16.3734 24.1108 17.0093L28.0352 13.9111C28.1067 14.0017 28.1719 14.1132 28.2193 14.2408C28.2664 14.3676 28.2861 14.484 28.2911 14.5771L23.2982 14.8434ZM24.1412 17.0471C24.6123 17.6206 25.2012 18.0162 25.822 18.2694L27.7104 13.6397C27.7554 13.6581 27.8822 13.7241 28.0048 13.8734L24.1412 17.0471ZM25.822 18.2694C26.453 18.5268 27.1046 18.6307 27.7378 18.6307V13.6307C27.6937 13.6307 27.6728 13.6271 27.671 13.6267C27.6698 13.6265 27.6847 13.6292 27.7104 13.6397L25.822 18.2694ZM27.7378 18.6307C28.4085 18.6307 29.1074 18.5113 29.7779 18.2026L27.6864 13.661C27.7312 13.6404 27.7641 13.6322 27.7773 13.6295C27.7895 13.6271 27.7783 13.6307 27.7378 13.6307V18.6307ZM29.7779 18.2026C30.4261 17.9041 31.0181 17.4463 31.4625 16.8054L27.354 13.9559C27.4083 13.8776 27.4719 13.8103 27.5375 13.7568C27.6019 13.7043 27.6561 13.675 27.6864 13.661L29.7779 18.2026ZM31.4625 16.8054C31.9373 16.1209 32.1526 15.3448 32.1526 14.5682H27.1526C27.1526 14.4983 27.1622 14.3985 27.1974 14.2815C27.233 14.1629 27.2874 14.0518 27.354 13.9559L31.4625 16.8054ZM32.1526 14.5682C32.1526 13.7565 31.9137 12.9595 31.4103 12.2701L27.3721 15.2186C27.3041 15.1253 27.2445 15.012 27.2043 14.8852C27.1644 14.7597 27.1526 14.6494 27.1526 14.5682H32.1526ZM31.4363 12.3064C30.9518 11.6174 30.3015 11.1595 29.6276 10.8741L27.6776 15.4782C27.6667 15.4736 27.6196 15.4522 27.5544 15.402C27.4872 15.3503 27.4129 15.2773 27.3461 15.1823L31.4363 12.3064ZM29.6374 10.8783C28.9363 10.5778 28.2064 10.4716 27.5162 10.4716V15.4716C27.7048 15.4716 27.7324 15.5017 27.6678 15.474L29.6374 10.8783ZM27.5162 10.4716H26.431V15.4716H27.5162V10.4716ZM28.931 12.9716V11.1648H23.931V12.9716H28.931ZM26.431 13.6648H27.5162V8.66477H26.431V13.6648ZM27.5162 13.6648C28.1767 13.6648 28.8673 13.5496 29.5314 13.2485L27.4669 8.69464C27.5127 8.67387 27.5458 8.66585 27.5582 8.6634C27.5697 8.66115 27.5577 8.66477 27.5162 8.66477V13.6648ZM29.5201 13.2536C30.1631 12.966 30.7653 12.5175 31.2177 11.8712L27.1215 9.00384C27.1837 8.91509 27.2547 8.84203 27.325 8.78608C27.3937 8.73131 27.4499 8.70224 27.4782 8.68954L29.5201 13.2536ZM31.2287 11.8553C31.7019 11.168 31.9082 10.3942 31.9082 9.63068H26.9082C26.9082 9.56641 26.9169 9.46968 26.9513 9.35343C26.9862 9.23526 27.0407 9.12109 27.1105 9.01975L31.2287 11.8553ZM31.9082 9.63068C31.9082 8.92121 31.7318 8.18714 31.3057 7.5191L27.0904 10.2082C27.0232 10.1029 26.9747 9.99074 26.9446 9.88099C26.9151 9.77319 26.9082 9.686 26.9082 9.63068H31.9082ZM31.3321 7.56147C30.9347 6.91017 30.3765 6.42484 29.7365 6.10484L27.5004 10.577C27.4386 10.5461 27.3593 10.4965 27.2764 10.4218C27.1927 10.3462 27.1206 10.2587 27.0639 10.1658L31.3321 7.56147ZM29.7502 6.11174C29.0917 5.7774 28.4022 5.65341 27.7548 5.65341V10.6534C27.7666 10.6534 27.6529 10.6544 27.4867 10.5701L29.7502 6.11174ZM27.7548 5.65341C27.1122 5.65341 26.4609 5.77181 25.8364 6.04555L27.8438 10.6249C27.8114 10.6391 27.7832 10.647 27.7635 10.6509C27.7444 10.6547 27.7401 10.6534 27.7548 10.6534V5.65341ZM25.8629 6.03412C25.222 6.30627 24.637 6.73228 24.1836 7.32994L28.167 10.3519C28.1121 10.4243 28.0479 10.4879 27.9801 10.5395C27.9132 10.5903 27.855 10.6203 27.8172 10.6363L25.8629 6.03412ZM24.1836 7.32994C23.6842 7.98821 23.4397 8.74871 23.4101 9.51755L28.4064 9.70972C28.4034 9.78675 28.3887 9.89318 28.3464 10.0154C28.3036 10.1393 28.2414 10.2539 28.167 10.3519L24.1836 7.32994ZM25.9082 7.11364H23.5503V12.1136H25.9082V7.11364ZM26.0499 9.656C26.0532 9.46542 26.0965 9.37958 26.1473 9.30956L22.101 6.37226C21.4094 7.32496 21.0701 8.42094 21.0507 9.57127L26.0499 9.656ZM26.1473 9.30956C26.2423 9.17869 26.3894 9.04125 26.6649 8.91514L24.5835 4.36895C23.6013 4.8186 22.7484 5.4804 22.101 6.37226L26.1473 9.30956ZM26.6709 8.91234C26.9317 8.7921 27.2809 8.70455 27.7662 8.70455V3.70455C26.6606 3.70455 25.5817 3.90866 24.5774 4.37175L26.6709 8.91234ZM27.7662 8.70455C28.2664 8.70455 28.5832 8.79459 28.7845 8.89209L30.9638 4.392C29.9606 3.90617 28.8721 3.70455 27.7662 3.70455V8.70455ZM28.7845 8.89209C29.0369 9.01433 29.1444 9.13174 29.2023 9.21792L33.3528 6.42981C32.744 5.52356 31.9159 4.85309 30.9638 4.392L28.7845 8.89209ZM29.2147 9.23614C29.2555 9.29581 29.2784 9.34786 29.2776 9.46752L34.2775 9.49839C34.2844 8.39078 33.9738 7.33677 33.3404 6.41158L29.2147 9.23614ZM29.2776 9.49749C29.278 9.55726 29.2692 9.55089 29.2859 9.50593C29.2937 9.48507 29.3045 9.46294 29.3175 9.44206C29.3304 9.42134 29.3418 9.40803 29.3473 9.4022L32.992 12.8251C33.8813 11.8781 34.2847 10.6976 34.2775 9.46842L29.2776 9.49749ZM29.3393 9.41068C29.3302 9.42048 29.3239 9.42553 29.3102 9.43268C29.294 9.44118 29.2443 9.4642 29.1409 9.48282L30.0278 14.4035C31.1483 14.2016 32.185 13.6924 32.9999 12.8166L29.3393 9.41068ZM27.0844 11.9432V12.0341H32.0844V11.9432H27.0844ZM29.2662 14.5138C29.4946 14.5431 29.6208 14.5881 29.6771 14.6138C29.7265 14.6364 29.7216 14.6432 29.7008 14.6206L33.377 11.2316C32.4224 10.1961 31.1592 9.71568 29.9026 9.55442L29.2662 14.5138ZM29.7146 14.6355C29.7192 14.6404 29.7169 14.6387 29.7119 14.6307C29.7068 14.6225 29.7029 14.6142 29.7008 14.6084C29.6987 14.6028 29.7006 14.6061 29.7032 14.6218C29.7059 14.6379 29.7097 14.6696 29.7094 14.7199L34.7094 14.746C34.7161 13.4511 34.2955 12.2118 33.3632 11.2168L29.7146 14.6355ZM29.7094 14.7472C29.7102 14.8816 29.6842 14.9351 29.6355 15L33.6355 18C34.3596 17.0346 34.7162 15.9101 34.7093 14.7187L29.7094 14.7472ZM29.6285 15.0095C29.5414 15.1268 29.3822 15.2792 29.0469 15.4261L31.0537 20.0057C32.0669 19.5617 32.9645 18.9035 33.6426 17.9905L29.6285 15.0095ZM29.0469 15.4261C28.7416 15.5599 28.3204 15.6591 27.7321 15.6591V20.6591C28.8863 20.6591 30.0105 20.4628 31.0537 20.0057L29.0469 15.4261Z" fill="white" mask="url(#path-2-inside-1_1_1774)"/>
</svg>
