<svg width="36" height="32" viewBox="0 0 36 32" fill="none" xmlns="http://www.w3.org/2000/svg">
<rect x="2" width="32" height="32" rx="3" fill="black"/>
<g filter="url(#filter0_d_1_1776)">
<path d="M7.5 10C7.5 9.44772 7.94772 9 8.5 9H27.5C28.0523 9 28.5 9.44772 28.5 10V20C28.5 21.6569 27.1569 23 25.5 23H10.5C8.84315 23 7.5 21.6569 7.5 20V10Z" fill="black"/>
</g>
<g filter="url(#filter1_d_1_1776)">
<path fill-rule="evenodd" clip-rule="evenodd" d="M8.5 8H27.5C28.6046 8 29.5 8.89543 29.5 10V20C29.5 22.2091 27.7091 24 25.5 24H10.5C8.29086 24 6.5 22.2091 6.5 20V10C6.5 8.89543 7.39543 8 8.5 8ZM8.5 9C7.94772 9 7.5 9.44772 7.5 10V20C7.5 21.6569 8.84315 23 10.5 23H25.5C27.1569 23 28.5 21.6569 28.5 20V10C28.5 9.44772 28.0523 9 27.5 9H8.5Z" fill="white"/>
</g>
<rect x="9.25002" y="14.25" width="0.7" height="0.7" rx="0.35" fill="white" stroke="white" stroke-width="0.7"/>
<rect x="9.25002" y="17.05" width="0.7" height="0.7" rx="0.35" fill="white" stroke="white" stroke-width="0.7"/>
<rect x="9.25002" y="19.85" width="0.7" height="0.7" rx="0.35" fill="white" stroke="white" stroke-width="0.7"/>
<rect x="12.05" y="14.25" width="0.7" height="0.7" rx="0.35" fill="white" stroke="white" stroke-width="0.7"/>
<rect x="12.05" y="17.05" width="0.7" height="0.7" rx="0.35" fill="white" stroke="white" stroke-width="0.7"/>
<rect x="12.05" y="19.85" width="0.7" height="0.7" rx="0.35" fill="white" stroke="white" stroke-width="0.7"/>
<rect x="14.85" y="14.25" width="0.7" height="0.7" rx="0.35" fill="white" stroke="white" stroke-width="0.7"/>
<rect x="14.85" y="17.05" width="0.7" height="0.7" rx="0.35" fill="white" stroke="white" stroke-width="0.7"/>
<rect x="14.85" y="19.85" width="0.7" height="0.7" rx="0.35" fill="white" stroke="white" stroke-width="0.7"/>
<rect x="17.65" y="14.25" width="0.7" height="0.7" rx="0.35" fill="white" stroke="white" stroke-width="0.7"/>
<rect x="17.65" y="17.05" width="0.7" height="0.7" rx="0.35" fill="white" stroke="white" stroke-width="0.7"/>
<rect x="17.65" y="19.85" width="0.7" height="0.7" rx="0.35" fill="white" stroke="white" stroke-width="0.7"/>
<rect x="20.45" y="14.25" width="0.7" height="0.7" rx="0.35" fill="white" stroke="white" stroke-width="0.7"/>
<rect x="20.45" y="17.05" width="0.7" height="0.7" rx="0.35" fill="white" stroke="white" stroke-width="0.7"/>
<rect x="20.45" y="19.85" width="0.7" height="0.7" rx="0.35" fill="white" stroke="white" stroke-width="0.7"/>
<rect x="23.25" y="14.25" width="0.7" height="0.7" rx="0.35" fill="white" stroke="white" stroke-width="0.7"/>
<rect x="23.25" y="17.05" width="0.7" height="0.7" rx="0.35" fill="white" stroke="white" stroke-width="0.7"/>
<rect x="23.25" y="19.85" width="0.7" height="0.7" rx="0.35" fill="white" stroke="white" stroke-width="0.7"/>
<rect x="26.05" y="14.25" width="0.7" height="0.7" rx="0.35" fill="white" stroke="white" stroke-width="0.7"/>
<rect x="26.05" y="17.05" width="0.7" height="0.7" rx="0.35" fill="white" stroke="white" stroke-width="0.7"/>
<rect x="26.05" y="19.85" width="0.7" height="0.7" rx="0.35" fill="white" stroke="white" stroke-width="0.7"/>
<defs>
<filter id="filter0_d_1_1776" x="1.5" y="3" width="33" height="26" filterUnits="userSpaceOnUse" color-interpolation-filters="sRGB">
<feFlood flood-opacity="0" result="BackgroundImageFix"/>
<feColorMatrix in="SourceAlpha" type="matrix" values="0 0 0 0 0 0 0 0 0 0 0 0 0 0 0 0 0 0 127 0" result="hardAlpha"/>
<feOffset/>
<feGaussianBlur stdDeviation="3"/>
<feColorMatrix type="matrix" values="0 0 0 0 0 0 0 0 0 0 0 0 0 0 0 0 0 0 0.25 0"/>
<feBlend mode="normal" in2="BackgroundImageFix" result="effect1_dropShadow_1_1776"/>
<feBlend mode="normal" in="SourceGraphic" in2="effect1_dropShadow_1_1776" result="shape"/>
</filter>
<filter id="filter1_d_1_1776" x="0.5" y="2" width="35" height="28" filterUnits="userSpaceOnUse" color-interpolation-filters="sRGB">
<feFlood flood-opacity="0" result="BackgroundImageFix"/>
<feColorMatrix in="SourceAlpha" type="matrix" values="0 0 0 0 0 0 0 0 0 0 0 0 0 0 0 0 0 0 127 0" result="hardAlpha"/>
<feOffset/>
<feGaussianBlur stdDeviation="3"/>
<feColorMatrix type="matrix" values="0 0 0 0 0 0 0 0 0 0 0 0 0 0 0 0 0 0 0.25 0"/>
<feBlend mode="normal" in2="BackgroundImageFix" result="effect1_dropShadow_1_1776"/>
<feBlend mode="normal" in="SourceGraphic" in2="effect1_dropShadow_1_1776" result="shape"/>
</filter>
</defs>
</svg>
