<svg width="32" height="32" viewBox="0 0 32 32" fill="none" xmlns="http://www.w3.org/2000/svg">
<g clip-path="url(#clip0_1_109)">
<circle cx="16" cy="16" r="16" fill="black"/>
<path d="M13.1429 26.5C13.0302 26.5 12.8517 26.4629 12.7164 26.3676C12.6072 26.2907 12.5 26.1617 12.5 25.8824V22.6221L16 19.1994L19.5 22.6221V25.8824C19.5 26.1617 19.3928 26.2907 19.2836 26.3676C19.1483 26.4629 18.9698 26.5 18.8571 26.5H13.1429Z" stroke="white"/>
<path d="M13.1429 5.5C13.0302 5.5 12.8517 5.53709 12.7164 5.63235C12.6072 5.70929 12.5 5.8383 12.5 6.11765V9.37785L16 12.8006L19.5 9.37785V6.11765C19.5 5.8383 19.3928 5.70929 19.2836 5.63235C19.1483 5.53709 18.9698 5.5 18.8571 5.5H13.1429Z" fill="white" stroke="white"/>
<path d="M5.5 13.1429C5.5 13.0302 5.53709 12.8517 5.63235 12.7164C5.70929 12.6072 5.8383 12.5 6.11765 12.5L9.37785 12.5L12.8006 16L9.37785 19.5L6.11765 19.5C5.8383 19.5 5.70929 19.3928 5.63235 19.2836C5.53709 19.1483 5.5 18.9698 5.5 18.8571L5.5 13.1429Z" stroke="white"/>
<path d="M26.5 13.1429C26.5 13.0302 26.4629 12.8517 26.3676 12.7164C26.2907 12.6072 26.1617 12.5 25.8824 12.5L22.6221 12.5L19.1994 16L22.6221 19.5L25.8824 19.5C26.1617 19.5 26.2907 19.3928 26.3676 19.2836C26.4629 19.1483 26.5 18.9698 26.5 18.8571L26.5 13.1429Z" stroke="white"/>
</g>
<defs>
<clipPath id="clip0_1_109">
<rect width="32" height="32" rx="16" fill="white"/>
</clipPath>
</defs>
</svg>
