<svg width="32" height="32" viewBox="0 0 32 32" fill="none" xmlns="http://www.w3.org/2000/svg">
<path d="M19.5714 2H12.4286C11.9524 2 11 2.25882 11 3.29412V8.47059L16 13L21 8.47059V3.29412C21 2.25882 20.0476 2 19.5714 2Z" fill="white"/>
<path fill-rule="evenodd" clip-rule="evenodd" d="M2 19.5714V12.4286C2 11.9524 2.25882 11 3.29412 11H8.47059L13 16L8.47059 21H3.29412C2.25882 21 2 20.0476 2 19.5714ZM12.4286 30C11.9524 30 11 29.7412 11 28.7059V23.5294L16 19L21 23.5294V28.7059C21 29.7412 20.0476 30 19.5714 30H12.4286ZM28.7059 11C29.7412 11 30 11.9524 30 12.4286V19.5714C30 20.0476 29.7412 21 28.7059 21H23.5294L19 16L23.5294 11H28.7059Z" fill="black"/>
</svg>
