<svg width="32" height="32" viewBox="0 0 32 32" fill="none" xmlns="http://www.w3.org/2000/svg">
<path fill-rule="evenodd" clip-rule="evenodd" d="M21 0L16 5L11 0H21ZM0 15C0 10.5817 3.58172 7 8 7H24C28.4183 7 32 10.5817 32 15V18C32 22.4183 28.4183 26 24 26H23.1111V32H8.88892V26H8C3.58172 26 0 22.4183 0 18V15Z" fill="black"/>
<path fill-rule="evenodd" clip-rule="evenodd" d="M19.176 21.7216C18.8542 21.5773 18.5653 21.4069 18.3094 21.2102C18.1963 21.1233 18.0897 21.0313 17.9895 20.9342L17.9571 20.9024C17.8323 20.7783 17.7178 20.6461 17.6135 20.5057C17.2594 20.0206 17.0659 19.4661 17.0328 18.8421C17.0305 18.7985 17.029 18.7545 17.0283 18.7102H19.5055C19.512 18.8313 19.5325 18.9461 19.5672 19.0548L19.5738 19.0748C19.6205 19.2135 19.6906 19.342 19.7839 19.4602L19.7934 19.4716C19.8703 19.5634 19.9581 19.6463 20.0567 19.7201L20.0691 19.7293C20.1893 19.8175 20.3253 19.8926 20.4771 19.9545C20.7635 20.0714 21.0855 20.1301 21.443 20.1307L21.4487 20.1307C21.8237 20.1307 22.1552 20.0644 22.443 19.9318C22.602 19.8586 22.7419 19.7698 22.8627 19.6655C22.9607 19.5808 23.0462 19.4859 23.1192 19.3807C23.1828 19.2889 23.234 19.1917 23.2728 19.0889C23.3295 18.9387 23.3596 18.7768 23.3631 18.6032C23.3634 18.5916 23.3635 18.5799 23.3635 18.5682C23.3635 18.2576 23.2764 17.983 23.1021 17.7443C23.0948 17.7339 23.0874 17.7237 23.0798 17.7135C22.9998 17.6059 22.9044 17.5093 22.7935 17.4234C22.6695 17.3275 22.5261 17.245 22.3635 17.1761C22.2268 17.1176 22.0789 17.0716 21.9199 17.0382C21.7087 16.9938 21.4778 16.9716 21.2271 16.9716H20.1419V15.1648H21.2271C21.5374 15.1648 21.8172 15.1198 22.0665 15.0298C22.1156 15.0122 22.1634 14.9927 22.2101 14.9716C22.3995 14.8869 22.561 14.7808 22.6947 14.6535C22.7641 14.5872 22.8261 14.5152 22.8805 14.4375C22.9224 14.3767 22.9588 14.3132 22.9896 14.2472C23.076 14.0622 23.1192 13.8567 23.1192 13.6307C23.1192 13.5852 23.1175 13.5405 23.114 13.4968L23.1115 13.4677L23.1098 13.4507C23.0986 13.3465 23.0775 13.2474 23.0465 13.1534L23.0395 13.1331C23.0064 13.0379 22.9628 12.9481 22.9089 12.8636C22.8394 12.7497 22.7552 12.6486 22.6561 12.5603C22.5609 12.4753 22.452 12.4022 22.3294 12.3409C22.086 12.2173 21.8019 12.1549 21.4771 12.1534L21.4658 12.1534C21.1324 12.1534 20.8275 12.214 20.551 12.3352C20.4242 12.3891 20.3089 12.4537 20.2051 12.5291L20.2006 12.5324C20.1446 12.5734 20.0921 12.6175 20.0429 12.6648C19.9862 12.7193 19.9339 12.778 19.8862 12.8409C19.8043 12.9489 19.7411 13.066 19.6967 13.1923C19.6508 13.323 19.6249 13.4634 19.6192 13.6136H17.2612C17.2617 13.5833 17.2626 13.5531 17.2639 13.523C17.2903 12.8898 17.4807 12.3291 17.8351 11.8409C17.9222 11.7209 18.0164 11.607 18.1177 11.4993C18.2483 11.3605 18.3906 11.232 18.5447 11.1136C18.7806 10.9325 19.044 10.7753 19.3351 10.642C19.4658 10.5818 19.6 10.5277 19.7377 10.4799L19.7599 10.4723C20.2793 10.2949 20.8479 10.2056 21.4658 10.2046L21.4771 10.2045C22.1357 10.2045 22.7268 10.3026 23.2504 10.4988L23.2623 10.5033C23.3729 10.5452 23.4805 10.5914 23.5851 10.642C24.1059 10.8942 24.5261 11.2229 24.8458 11.6281C24.8553 11.6401 24.8648 11.6523 24.8741 11.6645C24.9139 11.7164 24.952 11.7695 24.9885 11.8239C25.3256 12.3163 25.4923 12.8693 25.4885 13.483C25.4888 13.5328 25.4879 13.5821 25.4857 13.6307C25.4793 13.7767 25.462 13.9169 25.4338 14.0515C25.3487 14.4575 25.1643 14.8115 24.8805 15.1136C24.7432 15.2612 24.5917 15.3906 24.4261 15.5017L24.4131 15.5103L24.4082 15.5136C24.0921 15.7218 23.7251 15.8643 23.3072 15.941L23.2953 15.9432V16.0341L23.3121 16.0363C23.7688 16.0964 24.167 16.2102 24.5065 16.3777C24.5988 16.4232 24.6868 16.4727 24.7704 16.5262C24.7816 16.5334 24.7927 16.5406 24.8037 16.5479C24.97 16.6578 25.1187 16.7839 25.2498 16.9261C25.4513 17.1411 25.6074 17.3804 25.718 17.6438C25.7519 17.7243 25.7814 17.807 25.8068 17.892C25.884 18.1513 25.9219 18.4316 25.9203 18.733C25.9238 19.3506 25.758 19.9041 25.4228 20.3935C25.3983 20.4294 25.3728 20.4649 25.3464 20.5C25.2768 20.5938 25.2023 20.6839 25.123 20.7704C24.7666 21.1591 24.3127 21.4742 23.7612 21.7159C23.6245 21.7758 23.4838 21.8296 23.339 21.8774C22.7712 22.0647 22.1411 22.1586 21.4487 22.1591L21.443 22.1591C20.8023 22.1591 20.2145 22.0759 19.6797 21.9096C19.5062 21.8557 19.3383 21.793 19.176 21.7216ZM9.17031 22H6.71008V10.3636H11.301C11.8837 10.3636 12.4097 10.4327 12.8792 10.5709L12.9102 10.5802C13.1372 10.6489 13.3508 10.7339 13.551 10.8352C14.0927 11.1044 14.522 11.4718 14.8389 11.9373L14.8537 11.9593C14.897 12.024 14.9381 12.0906 14.9771 12.1591C15.0081 12.2125 15.0376 12.2668 15.0657 12.322C15.3362 12.8538 15.4714 13.4681 15.4714 14.1647C15.4714 14.6927 15.3937 15.1702 15.2381 15.5974C15.1921 15.7237 15.1393 15.8455 15.0797 15.963C15.0458 16.0298 15.0097 16.0951 14.9714 16.1591C14.9267 16.2333 14.8793 16.3052 14.8291 16.3748L14.8133 16.3965C14.4982 16.8261 14.079 17.166 13.5556 17.4162L13.5226 17.4318C13.4879 17.4481 13.4528 17.4639 13.4173 17.4793L15.8862 22H13.1703L10.9662 17.875H9.17031V22ZM10.8408 15.8977H9.17031V12.375H10.8294C10.9968 12.375 11.154 12.3837 11.301 12.4012C11.4322 12.4169 11.5553 12.4395 11.6703 12.469C11.791 12.5001 11.9027 12.5388 12.0055 12.5852C12.2014 12.6702 12.3657 12.7801 12.4984 12.9151L12.5109 12.928C12.5858 13.0063 12.6503 13.0928 12.7044 13.1875C12.7429 13.2532 12.7766 13.3227 12.8056 13.3958L12.808 13.4021C12.8943 13.6227 12.9374 13.8769 12.9374 14.1647L12.9371 14.2045C12.9334 14.46 12.8943 14.6869 12.8198 14.8854C12.7879 14.9705 12.7494 15.0503 12.7044 15.125C12.6587 15.2026 12.6058 15.2744 12.5457 15.3403L12.5418 15.3446C12.4031 15.4954 12.2262 15.6154 12.0112 15.7045C11.9066 15.7479 11.793 15.784 11.6703 15.8127C11.537 15.844 11.3931 15.8666 11.2385 15.8806C11.1129 15.892 10.9804 15.8977 10.8408 15.8977Z" fill="#EEF0E1"/>
</svg>
