<svg width="32" height="32" viewBox="0 0 32 32" fill="none" xmlns="http://www.w3.org/2000/svg">
<path fill-rule="evenodd" clip-rule="evenodd" d="M8 3C3.58172 3 0 6.58172 0 11V14C0 18.4183 3.58172 22 8 22H8.88892V28H23.1111V22H24C28.4183 22 32 18.4183 32 14V11C32 6.58172 28.4183 3 24 3H8Z" fill="black"/>
<path fill-rule="evenodd" clip-rule="evenodd" d="M19.73 10.5114C19.9004 10.6213 20.0974 10.7178 20.3209 10.8012L20.351 10.8118L20.3661 10.8171C20.4615 10.8501 20.5597 10.8811 20.6606 10.91C20.782 10.9449 20.9074 10.9768 21.0368 11.0057L22.0822 11.2557C22.4202 11.3314 22.7397 11.4238 23.0407 11.5331L23.0503 11.5366L23.0538 11.5379C23.2003 11.5914 23.3423 11.6488 23.48 11.7103C23.7983 11.8524 24.0847 12.0191 24.3391 12.2103C24.4237 12.2738 24.5047 12.3401 24.5822 12.4091C24.6003 12.4252 24.6182 12.4415 24.6358 12.4579L24.6569 12.4778C24.9317 12.7392 25.1473 13.042 25.3038 13.3864C25.4774 13.7599 25.5664 14.188 25.5708 14.6705L25.5709 14.6762C25.5671 15.3883 25.3853 16.0057 25.0254 16.5285C24.9341 16.6616 24.8322 16.7872 24.7199 16.9051C24.3945 17.2468 23.9812 17.5247 23.48 17.7387C23.2992 17.8153 23.1084 17.8816 22.9075 17.9375L22.8987 17.9399C22.3567 18.0899 21.7418 18.1648 21.0538 18.1648L21.0254 18.1648C20.3209 18.1626 19.6849 18.079 19.1175 17.9141L19.0893 17.9058C18.9198 17.8555 18.7564 17.7979 18.5993 17.733C18.0769 17.5161 17.6406 17.2206 17.2903 16.8466C17.2676 16.8224 17.2452 16.7978 17.2232 16.7729L17.198 16.7439C17.1186 16.6519 17.044 16.5555 16.9743 16.4546C16.613 15.9233 16.4124 15.2744 16.3723 14.508C16.3696 14.4548 16.3676 14.401 16.3663 14.3466H18.747C18.7663 14.6304 18.8307 14.8801 18.9401 15.0957L18.9485 15.1121C18.9781 15.1687 19.0108 15.2229 19.0467 15.2747C19.0582 15.2913 19.0701 15.3077 19.0822 15.3239C19.1867 15.4579 19.309 15.5749 19.4493 15.6751L19.4529 15.6776C19.5814 15.7689 19.7249 15.8461 19.8834 15.9091C20.2205 16.0379 20.6012 16.1023 21.0254 16.1023L21.0538 16.1022C21.4586 16.0995 21.8108 16.0389 22.1107 15.9205C22.2952 15.8485 22.455 15.7598 22.59 15.6543L22.5951 15.6504C22.6853 15.5794 22.7643 15.5009 22.8322 15.4148C22.9012 15.3274 22.9562 15.2348 22.9973 15.1369L22.9988 15.1333C23.0552 14.9975 23.0848 14.8516 23.0877 14.6956L23.0879 14.6705L23.0879 14.663C23.0874 14.5803 23.0791 14.5019 23.063 14.4276L23.0584 14.4071C23.0412 14.3353 23.0166 14.2675 22.9846 14.2037C22.9501 14.135 22.9068 14.0709 22.855 14.0114C22.7774 13.9202 22.6809 13.836 22.5655 13.7587C22.4556 13.6851 22.3286 13.6178 22.1845 13.5569C22.0161 13.4847 21.8256 13.4163 21.613 13.3517L21.5832 13.3427C21.4556 13.3045 21.3202 13.2677 21.177 13.2322L21.1107 13.216L19.8436 12.8978C19.76 12.8774 19.678 12.8561 19.5974 12.8339L19.5662 12.8252C19.2731 12.7428 19.0001 12.6474 18.747 12.539C18.6614 12.5023 18.5781 12.4642 18.4971 12.4245L18.4651 12.4087C18.1383 12.246 17.8494 12.0586 17.5983 11.8466C17.5717 11.8242 17.5455 11.8015 17.5197 11.7785C17.4186 11.6881 17.3265 11.5921 17.2434 11.4906C16.8601 11.0218 16.67 10.4341 16.6732 9.72732C16.672 9.50854 16.6892 9.29834 16.725 9.09673C16.8043 8.64908 16.9745 8.24375 17.2357 7.88073C17.3276 7.75425 17.4277 7.63443 17.5359 7.52129L17.5561 7.50036C17.8951 7.15206 18.3129 6.86786 18.8095 6.64777C18.9509 6.58512 19.0964 6.52911 19.2459 6.47974L19.2696 6.47199C19.8142 6.29526 20.4127 6.20613 21.0652 6.20461L21.0822 6.20459C21.9459 6.20459 22.6997 6.35232 23.3436 6.64777C23.494 6.71639 23.6367 6.79124 23.7716 6.87233C23.9424 6.97499 24.1008 7.08763 24.2467 7.21027C24.4818 7.40783 24.6845 7.63132 24.855 7.88073C25.174 8.34749 25.356 8.87973 25.4012 9.47748C25.407 9.554 25.4105 9.6316 25.4118 9.71027H23.0538C23.0353 9.52342 22.9919 9.35356 22.9236 9.2007C22.8618 9.0622 22.7795 8.93765 22.6768 8.82706C22.6148 8.76032 22.5454 8.69867 22.4686 8.64209C22.46 8.63574 22.4513 8.62947 22.4425 8.62328L22.4385 8.62046C22.1002 8.38347 21.6481 8.26379 21.0822 8.26144L21.0652 8.26141C20.6637 8.26141 20.3247 8.31823 20.0482 8.43186C19.9119 8.486 19.7912 8.55072 19.6862 8.62602C19.5782 8.70351 19.4867 8.7922 19.4118 8.89209C19.3182 9.02017 19.255 9.15946 19.2223 9.30996L19.2197 9.32235C19.2092 9.37322 19.2022 9.42536 19.1986 9.47878C19.1968 9.50636 19.1959 9.53428 19.1959 9.56254C19.1903 9.71467 19.2121 9.85266 19.2611 9.97651C19.2792 10.0223 19.301 10.0661 19.3266 10.108C19.425 10.2633 19.5595 10.3978 19.73 10.5114ZM8.70156 18H6.24133V6.36365H10.8322C11.4149 6.36365 11.941 6.43276 12.4104 6.57098L12.4415 6.58024C12.6684 6.64891 12.882 6.73391 13.0822 6.83524C13.6239 7.10444 14.0532 7.4718 14.3701 7.93732L14.385 7.95933C14.4283 8.02405 14.4694 8.09064 14.5084 8.1591C14.5394 8.21252 14.5689 8.26683 14.597 8.32203C14.8675 8.85389 15.0027 9.46814 15.0027 10.1648C15.0027 10.6927 14.9249 11.1703 14.7693 11.5974C14.7233 11.7237 14.6705 11.8456 14.6109 11.9631C14.577 12.0298 14.541 12.0952 14.5027 12.1591C14.458 12.2333 14.4105 12.3053 14.3604 12.3748L14.3446 12.3966C14.0295 12.8261 13.6102 13.166 13.0868 13.4162L13.0538 13.4318C13.0192 13.4481 12.9841 13.464 12.9486 13.4794L15.4175 18H12.7016L10.4974 13.875H8.70156V18ZM10.372 11.8977H8.70156V8.37501H10.3607C10.528 8.37501 10.6852 8.38377 10.8322 8.40128C10.9635 8.41691 11.0866 8.43952 11.2016 8.46909C11.3222 8.50013 11.434 8.53884 11.5368 8.58524C11.7327 8.6702 11.897 8.78017 12.0296 8.91513L12.0422 8.92808C12.117 9.00634 12.1815 9.09282 12.2357 9.18751C12.2742 9.25324 12.3079 9.3227 12.3368 9.39588L12.3393 9.40212C12.4255 9.6227 12.4686 9.87692 12.4686 10.1648L12.4683 10.2046C12.4647 10.46 12.4256 10.687 12.3511 10.8854C12.3191 10.9705 12.2806 11.0504 12.2357 11.125C12.19 11.2026 12.1371 11.2744 12.077 11.3404L12.0731 11.3446C11.9343 11.4954 11.7574 11.6154 11.5425 11.7046C11.4379 11.7479 11.3242 11.784 11.2016 11.8128C11.0683 11.844 10.9243 11.8667 10.7697 11.8807C10.6442 11.8921 10.5116 11.8977 10.372 11.8977Z" fill="#EEF0E1"/>
</svg>
