<svg width="32" height="32" viewBox="0 0 32 32" fill="none" xmlns="http://www.w3.org/2000/svg">
<g clip-path="url(#clip0_1_1842)">
<rect width="32" height="32" rx="8" fill="black"/>
<mask id="path-2-inside-1_1_1842" fill="white">
<path d="M14.679 13V11.4659C14.679 11.0303 14.7642 10.5852 14.9347 10.1307C15.1051 9.67614 15.33 9.24763 15.6094 8.84517C15.8887 8.44271 16.1918 8.10653 16.5185 7.83665L17.8537 8.625C17.5885 9.04167 17.3707 9.47727 17.2003 9.93182C17.0346 10.3864 16.9517 10.893 16.9517 11.4517V13H14.679Z"/>
</mask>
<path d="M14.679 13H12.179V15.5H14.679V13ZM14.9347 10.1307L12.5938 9.25287L12.5938 9.25287L14.9347 10.1307ZM15.6094 8.84517L13.5556 7.41963V7.41963L15.6094 8.84517ZM16.5185 7.83665L17.7895 5.68388L16.2788 4.79192L14.9263 5.90924L16.5185 7.83665ZM17.8537 8.625L19.9628 9.96719L21.3506 7.78643L19.1247 6.47223L17.8537 8.625ZM17.2003 9.93182L14.8595 9.05401L14.8554 9.06473L14.8515 9.0755L17.2003 9.93182ZM16.9517 13V15.5H19.4517V13H16.9517ZM17.179 13V11.4659H12.179V13H17.179ZM17.179 11.4659C17.179 11.3624 17.1983 11.2143 17.2755 11.0085L12.5938 9.25287C12.3301 9.95614 12.179 10.6982 12.179 11.4659H17.179ZM17.2755 11.0085C17.3726 10.7495 17.5007 10.5048 17.6631 10.2707L13.5556 7.41963C13.1594 7.99051 12.8376 8.60279 12.5938 9.25287L17.2755 11.0085ZM17.6631 10.2707C17.8321 10.0273 17.9849 9.86793 18.1107 9.76405L14.9263 5.90924C14.3986 6.34514 13.9454 6.85813 13.5556 7.41963L17.6631 10.2707ZM15.2474 9.98942L16.5826 10.7778L19.1247 6.47223L17.7895 5.68388L15.2474 9.98942ZM15.7445 7.28281C15.3879 7.84327 15.0919 8.43425 14.8595 9.05401L19.5411 10.8096C19.6496 10.5203 19.7892 10.2401 19.9628 9.96719L15.7445 7.28281ZM14.8515 9.0755C14.5716 9.84335 14.4517 10.6454 14.4517 11.4517H19.4517C19.4517 11.1406 19.4976 10.9294 19.5491 10.7881L14.8515 9.0755ZM14.4517 11.4517V13H19.4517V11.4517H14.4517ZM16.9517 10.5H14.679V15.5H16.9517V10.5Z" fill="white" mask="url(#path-2-inside-1_1_1842)"/>
</g>
<defs>
<clipPath id="clip0_1_1842">
<rect width="32" height="32" fill="white"/>
</clipPath>
</defs>
</svg>
