<svg width="32" height="32" viewBox="0 0 32 32" fill="none" xmlns="http://www.w3.org/2000/svg">
<g clip-path="url(#clip0_1_1843)">
<rect width="32" height="32" rx="8" fill="black"/>
<mask id="path-2-inside-1_1_1843" fill="white">
<path d="M17.4933 21.0114L17.4151 21.7926C17.3536 22.4176 17.2352 23.0402 17.06 23.6605C16.8896 24.2855 16.7096 24.8513 16.5202 25.358C16.3356 25.8646 16.1864 26.2623 16.0728 26.5511H14.1126C14.1836 26.2718 14.2807 25.8812 14.4038 25.3793C14.5269 24.8821 14.6429 24.3234 14.7518 23.7031C14.8607 23.0829 14.9293 22.4508 14.9577 21.8068L14.9933 21.0114H17.4933Z"/>
</mask>
<path d="M17.4933 21.0114L19.9808 21.2601L20.2557 18.5114H17.4933V21.0114ZM17.4151 21.7926L14.9275 21.5439L14.9272 21.5476L17.4151 21.7926ZM17.06 23.6605L14.6541 22.981L14.6511 22.9918L14.6481 23.0027L17.06 23.6605ZM16.5202 25.358L14.1785 24.4825L14.1749 24.4922L14.1714 24.5018L16.5202 25.358ZM16.0728 26.5511V29.0511H17.7757L18.3992 27.4664L16.0728 26.5511ZM14.1126 26.5511L11.6896 25.9351L10.8974 29.0511H14.1126V26.5511ZM14.4038 25.3793L11.977 24.7784L11.9757 24.7837L14.4038 25.3793ZM14.7518 23.7031L12.2894 23.2708L14.7518 23.7031ZM14.9577 21.8068L12.4602 21.6953L12.4602 21.6966L14.9577 21.8068ZM14.9933 21.0114V18.5114H12.6024L12.4957 20.8999L14.9933 21.0114ZM15.0057 20.7626L14.9275 21.5439L19.9027 22.0414L19.9808 21.2601L15.0057 20.7626ZM14.9272 21.5476C14.8805 22.0218 14.7902 22.4991 14.6541 22.981L19.4659 24.34C19.6802 23.5814 19.8267 22.8134 19.9031 22.0376L14.9272 21.5476ZM14.6481 23.0027C14.4939 23.568 14.3366 24.0596 14.1785 24.4825L18.862 26.2334C19.0827 25.643 19.2852 25.003 19.4719 24.3183L14.6481 23.0027ZM14.1714 24.5018C13.9895 25.0008 13.8487 25.3758 13.7464 25.6358L18.3992 27.4664C18.5242 27.1488 18.6816 26.7284 18.8691 26.2141L14.1714 24.5018ZM16.0728 24.0511H14.1126V29.0511H16.0728V24.0511ZM16.5355 27.1671C16.6091 26.8777 16.7081 26.4791 16.8318 25.9748L11.9757 24.7837C11.8532 25.2832 11.7581 25.6659 11.6896 25.9351L16.5355 27.1671ZM16.8305 25.9802C16.9701 25.4163 17.0974 24.8 17.2141 24.1354L12.2894 23.2708C12.1883 23.8467 12.0837 24.3479 11.9771 24.7784L16.8305 25.9802ZM17.2141 24.1354C17.3421 23.4062 17.4222 22.6664 17.4553 21.917L12.4602 21.6966C12.4364 22.2351 12.3792 22.7595 12.2894 23.2708L17.2141 24.1354ZM17.4553 21.9183L17.4908 21.1229L12.4957 20.8999L12.4602 21.6953L17.4553 21.9183ZM14.9933 23.5114H17.4933V18.5114H14.9933V23.5114Z" fill="white" mask="url(#path-2-inside-1_1_1843)"/>
</g>
<defs>
<clipPath id="clip0_1_1843">
<rect width="32" height="32" fill="white"/>
</clipPath>
</defs>
</svg>
