<svg width="32" height="32" viewBox="0 0 32 32" fill="none" xmlns="http://www.w3.org/2000/svg">
<g clip-path="url(#clip0_1_1849)">
<rect width="32" height="32" rx="8" fill="black"/>
<mask id="path-2-inside-1_1_1849" fill="white">
<path d="M19.3168 14.8267V17.2273H12.6832V14.8267H19.3168Z"/>
</mask>
<path d="M19.3168 14.8267H21.8168V12.3267H19.3168V14.8267ZM19.3168 17.2273V19.7273H21.8168V17.2273H19.3168ZM12.6832 17.2273H10.1832V19.7273H12.6832V17.2273ZM12.6832 14.8267V12.3267H10.1832V14.8267H12.6832ZM16.8168 14.8267V17.2273H21.8168V14.8267H16.8168ZM19.3168 14.7273H12.6832V19.7273H19.3168V14.7273ZM15.1832 17.2273V14.8267H10.1832V17.2273H15.1832ZM12.6832 17.3267H19.3168V12.3267H12.6832V17.3267Z" fill="white" mask="url(#path-2-inside-1_1_1849)"/>
</g>
<defs>
<clipPath id="clip0_1_1849">
<rect width="32" height="32" fill="white"/>
</clipPath>
</defs>
</svg>
