<svg width="32" height="32" viewBox="0 0 32 32" fill="none" xmlns="http://www.w3.org/2000/svg">
<g clip-path="url(#clip0_1_1873)">
<rect width="32" height="32" rx="8" fill="black"/>
<mask id="path-2-inside-1_1_1873" fill="white">
<path d="M16.0018 23.3196C14.7802 23.3149 13.729 23.0142 12.8484 22.4176C11.9724 21.821 11.2977 20.9569 10.8242 19.8253C10.3555 18.6937 10.1235 17.3324 10.1282 15.7415C10.1282 14.1553 10.3626 12.8035 10.8313 11.6861C11.3048 10.5687 11.9795 9.71875 12.8555 9.13636C13.7362 8.54924 14.7849 8.25568 16.0018 8.25568C17.2186 8.25568 18.265 8.54924 19.141 9.13636C20.0217 9.72348 20.6987 10.5758 21.1722 11.6932C21.6457 12.8059 21.8801 14.1553 21.8754 15.7415C21.8754 17.3371 21.6386 18.7008 21.1651 19.8324C20.6964 20.964 20.024 21.8281 19.1481 22.4247C18.2721 23.0213 17.2234 23.3196 16.0018 23.3196ZM16.0018 20.7699C16.8351 20.7699 17.5004 20.3509 17.9975 19.5128C18.4947 18.6747 18.7409 17.4176 18.7362 15.7415C18.7362 14.6383 18.6225 13.7197 18.3952 12.9858C18.1727 12.2519 17.8555 11.7003 17.4435 11.331C17.0363 10.9616 16.5558 10.777 16.0018 10.777C15.1732 10.777 14.5103 11.1913 14.0131 12.0199C13.516 12.8485 13.265 14.089 13.2603 15.7415C13.2603 16.8589 13.3716 17.7917 13.5941 18.5398C13.8214 19.2831 14.141 19.8419 14.5529 20.2159C14.9648 20.5852 15.4478 20.7699 16.0018 20.7699Z"/>
</mask>
<path d="M16.0018 23.3196L15.9921 25.8196H16.0018V23.3196ZM12.8484 22.4176L11.4411 24.4839L11.4462 24.4874L12.8484 22.4176ZM10.8242 19.8253L8.51452 20.782L8.51796 20.7902L10.8242 19.8253ZM10.1282 15.7415L12.6282 15.7489V15.7415H10.1282ZM10.8313 11.6861L8.52943 10.7107L8.52595 10.719L10.8313 11.6861ZM12.8555 9.13636L14.2396 11.2182L14.2422 11.2165L12.8555 9.13636ZM19.141 9.13636L17.749 11.213L17.7542 11.2165L19.141 9.13636ZM21.1722 11.6932L18.8703 12.6686L18.8718 12.6721L21.1722 11.6932ZM21.8754 15.7415L19.3754 15.734V15.7415H21.8754ZM21.1651 19.8324L18.8589 18.8674L18.8554 18.8757L21.1651 19.8324ZM19.1481 22.4247L17.7408 20.3584H17.7408L19.1481 22.4247ZM17.9975 19.5128L20.1477 20.7883L17.9975 19.5128ZM18.7362 15.7415H16.2361L16.2362 15.7485L18.7362 15.7415ZM18.3952 12.9858L16.0028 13.7112L16.0049 13.7183L16.0071 13.7253L18.3952 12.9858ZM17.4435 11.331L15.764 13.1828L15.7693 13.1876L15.7747 13.1924L17.4435 11.331ZM14.0131 12.0199L16.1569 13.3061L14.0131 12.0199ZM13.2603 15.7415L10.7603 15.7343V15.7415H13.2603ZM13.5941 18.5398L11.1979 19.2526L11.2006 19.2617L11.2033 19.2707L13.5941 18.5398ZM14.5529 20.2159L12.8723 22.0667L12.8782 22.072L12.884 22.0773L14.5529 20.2159ZM16.0115 20.8196C15.2106 20.8165 14.6614 20.6262 14.2505 20.3478L11.4462 24.4874C12.7967 25.4022 14.3498 25.8132 15.9921 25.8196L16.0115 20.8196ZM14.2557 20.3513C13.8396 20.0679 13.4473 19.6175 13.1305 18.8603L8.51796 20.7902C9.1481 22.2963 10.1053 23.5741 11.4411 24.4839L14.2557 20.3513ZM13.1339 18.8686C12.8234 18.1191 12.6242 17.1033 12.6282 15.7489L7.62821 15.734C7.62277 17.5614 7.88749 19.2682 8.51453 20.782L13.1339 18.8686ZM12.6282 15.7415C12.6282 14.3897 12.8294 13.3856 13.1367 12.6532L8.52595 10.719C7.89569 12.2214 7.6282 13.9209 7.6282 15.7415H12.6282ZM13.1332 12.6615C13.4458 11.9236 13.8312 11.4898 14.2396 11.2182L11.4713 7.05451C10.1279 7.94773 9.16378 9.21366 8.52944 10.7107L13.1332 12.6615ZM14.2422 11.2165C14.6533 10.9424 15.2025 10.7557 16.0018 10.7557V5.75568C14.3673 5.75568 12.819 6.15604 11.4687 7.05624L14.2422 11.2165ZM16.0018 10.7557C16.8014 10.7557 17.3455 10.9425 17.7491 11.213L20.5329 7.0597C19.1846 6.15594 17.6359 5.75568 16.0018 5.75568V10.7557ZM17.7542 11.2165C18.1713 11.4945 18.5587 11.9331 18.8703 12.6686L23.4741 10.7178C22.8388 9.21839 21.872 7.95242 20.5277 7.05624L17.7542 11.2165ZM18.8718 12.6721C19.1782 13.392 19.3794 14.3862 19.3754 15.734L24.3753 15.7489C24.3808 13.9245 24.1132 12.2197 23.4726 10.7143L18.8718 12.6721ZM19.3754 15.7415C19.3754 17.1008 19.1723 18.1183 18.8589 18.8674L23.4714 20.7973C24.1049 19.2832 24.3754 17.5734 24.3754 15.7415H19.3754ZM18.8554 18.8757C18.5433 19.6292 18.1546 20.0766 17.7408 20.3584L20.5554 24.491C21.8935 23.5796 22.8495 22.2988 23.4748 20.7891L18.8554 18.8757ZM17.7408 20.3584C17.3405 20.6311 16.8003 20.8196 16.0018 20.8196V25.8196C17.6465 25.8196 19.2038 25.4116 20.5554 24.491L17.7408 20.3584ZM16.0018 23.2699C17.8814 23.2699 19.2905 22.2332 20.1477 20.7883L15.8474 18.2373C15.7535 18.3956 15.7199 18.3865 15.7933 18.3403C15.8292 18.3176 15.8742 18.2971 15.922 18.2837C15.9689 18.2706 15.9987 18.2699 16.0018 18.2699V23.2699ZM20.1477 20.7883C20.9865 19.3742 21.2413 17.5767 21.2361 15.7344L16.2362 15.7485C16.2404 17.2585 16.0028 17.9753 15.8474 18.2373L20.1477 20.7883ZM21.2362 15.7415C21.2362 14.4869 21.1094 13.299 20.7834 12.2463L16.0071 13.7253C16.1357 14.1404 16.2362 14.7896 16.2362 15.7415H21.2362ZM20.7877 12.2603C20.4815 11.2506 19.972 10.2402 19.1124 9.46954L15.7747 13.1924C15.7389 13.1603 15.8639 13.2532 16.0028 13.7112L20.7877 12.2603ZM19.1231 9.47917C18.252 8.68915 17.1714 8.27699 16.0018 8.27699V13.277C15.9957 13.277 15.948 13.2749 15.881 13.2491C15.8137 13.2233 15.7737 13.1915 15.764 13.1828L19.1231 9.47917ZM16.0018 8.27699C14.1352 8.27699 12.7296 9.30005 11.8694 10.7336L16.1569 13.3061C16.2494 13.152 16.2815 13.1618 16.2082 13.2077C16.1723 13.2301 16.1278 13.2503 16.0805 13.2635C16.0343 13.2763 16.0049 13.277 16.0018 13.277V8.27699ZM11.8694 10.7336C11.0291 12.1342 10.7655 13.9126 10.7603 15.7343L15.7603 15.7486C15.7645 14.2654 16.0029 13.5628 16.1569 13.3061L11.8694 10.7336ZM10.7603 15.7415C10.7603 17.0055 10.8839 18.1971 11.1979 19.2526L15.9903 17.827C15.8592 17.3862 15.7603 16.7123 15.7603 15.7415H10.7603ZM11.2033 19.2707C11.5124 20.2816 12.0203 21.2931 12.8723 22.0667L16.2335 18.3651C16.2617 18.3906 16.1304 18.2847 15.9849 17.8088L11.2033 19.2707ZM12.884 22.0773C13.7553 22.8584 14.8327 23.2699 16.0018 23.2699V18.2699C16.008 18.2699 16.0535 18.272 16.1169 18.2963C16.1804 18.3205 16.2162 18.3495 16.2218 18.3545L12.884 22.0773Z" fill="white" mask="url(#path-2-inside-1_1_1873)"/>
</g>
<defs>
<clipPath id="clip0_1_1873">
<rect width="32" height="32" fill="white"/>
</clipPath>
</defs>
</svg>
