<svg width="32" height="32" viewBox="0 0 32 32" fill="none" xmlns="http://www.w3.org/2000/svg">
<g clip-path="url(#clip0_1_1864)">
<rect width="32" height="32" rx="8" fill="black"/>
<mask id="path-2-inside-1_1_1864" fill="white">
<path d="M18.7646 8.45455V23H15.6893V11.3736H15.604L12.2731 13.4616V10.7344L15.8739 8.45455H18.7646Z"/>
</mask>
<path d="M18.7646 8.45455H21.2646V5.95455H18.7646V8.45455ZM18.7646 23V25.5H21.2646V23H18.7646ZM15.6893 23H13.1893V25.5H15.6893V23ZM15.6893 11.3736H18.1893V8.87358H15.6893V11.3736ZM15.604 11.3736V8.87358H14.8852L14.2762 9.25536L15.604 11.3736ZM12.2731 13.4616H9.77308V17.9794L13.6009 15.5799L12.2731 13.4616ZM12.2731 10.7344L10.9357 8.62214L9.77308 9.35827V10.7344H12.2731ZM15.8739 8.45455V5.95455H15.1491L14.5366 6.34231L15.8739 8.45455ZM16.2646 8.45455V23H21.2646V8.45455H16.2646ZM18.7646 20.5H15.6893V25.5H18.7646V20.5ZM18.1893 23V11.3736H13.1893V23H18.1893ZM15.6893 8.87358H15.604V13.8736H15.6893V8.87358ZM14.2762 9.25536L10.9452 11.3434L13.6009 15.5799L16.9319 13.4918L14.2762 9.25536ZM14.7731 13.4616V10.7344H9.77308V13.4616H14.7731ZM13.6104 12.8466L17.2113 10.5668L14.5366 6.34231L10.9357 8.62214L13.6104 12.8466ZM15.8739 10.9545H18.7646V5.95455H15.8739V10.9545Z" fill="white" mask="url(#path-2-inside-1_1_1864)"/>
</g>
<defs>
<clipPath id="clip0_1_1864">
<rect width="32" height="32" fill="white"/>
</clipPath>
</defs>
</svg>
