<svg width="32" height="32" viewBox="0 0 32 32" fill="none" xmlns="http://www.w3.org/2000/svg">
<g clip-path="url(#clip0_1_1865)">
<rect width="32" height="32" rx="8" fill="black"/>
<mask id="path-2-inside-1_1_1865" fill="white">
<path d="M10.881 23V20.7841L16.0586 15.9901C16.4989 15.5639 16.8683 15.1804 17.1665 14.8395C17.4696 14.4986 17.6992 14.1648 17.8555 13.8381C18.0117 13.5066 18.0898 13.1491 18.0898 12.7656C18.0898 12.3395 17.9928 11.9725 17.7987 11.6648C17.6045 11.3523 17.3394 11.1132 17.0032 10.9474C16.667 10.777 16.2859 10.6918 15.8597 10.6918C15.4147 10.6918 15.0264 10.7817 14.695 10.9616C14.3635 11.1416 14.1078 11.3996 13.9279 11.7358C13.748 12.072 13.658 12.4721 13.658 12.9361H10.739C10.739 11.9844 10.9544 11.1581 11.3853 10.4574C11.8162 9.75663 12.4199 9.21449 13.1964 8.83097C13.9729 8.44744 14.8678 8.25568 15.881 8.25568C16.9227 8.25568 17.8294 8.44034 18.6012 8.80966C19.3777 9.17424 19.9814 9.68087 20.4123 10.3295C20.8432 10.9782 21.0586 11.7216 21.0586 12.5597C21.0586 13.1089 20.9497 13.651 20.7319 14.1861C20.5188 14.7211 20.1377 15.3153 19.5884 15.9688C19.0392 16.6174 18.265 17.3963 17.266 18.3054L15.1424 20.3864V20.4858H21.2504V23H10.881Z"/>
</mask>
<path d="M10.881 23H8.38104V25.5H10.881V23ZM10.881 20.7841L9.18252 18.9497L8.38104 19.6918V20.7841H10.881ZM16.0586 15.9901L17.7571 17.8245L17.7773 17.8057L17.7971 17.7866L16.0586 15.9901ZM17.1665 14.8395L15.298 13.1786L15.2915 13.1859L15.2851 13.1932L17.1665 14.8395ZM17.8555 13.8381L20.1108 14.9167L20.1168 14.9041L17.8555 13.8381ZM17.7987 11.6648L15.675 12.984L15.6796 12.9913L15.6842 12.9985L17.7987 11.6648ZM17.0032 10.9474L15.8726 13.1772L15.8852 13.1836L15.8978 13.1898L17.0032 10.9474ZM14.695 10.9616L13.5022 8.76451L13.5022 8.76451L14.695 10.9616ZM13.658 12.9361V15.4361H16.158V12.9361H13.658ZM10.739 12.9361H8.23899V15.4361H10.739V12.9361ZM13.1964 8.83097L12.0893 6.58946L12.0893 6.58946L13.1964 8.83097ZM18.6012 8.80966L17.5221 11.0648L17.5304 11.0687L17.5387 11.0726L18.6012 8.80966ZM20.4123 10.3295L22.4947 8.9463L22.4947 8.9463L20.4123 10.3295ZM20.7319 14.1861L18.4164 13.2435L18.4128 13.2523L18.4093 13.2611L20.7319 14.1861ZM19.5884 15.9688L21.4964 17.5842L21.5021 17.5774L19.5884 15.9688ZM17.266 18.3054L15.5834 16.4563L15.5492 16.4875L15.5162 16.5198L17.266 18.3054ZM15.1424 20.3864L13.3926 18.6008L12.6424 19.336V20.3864H15.1424ZM15.1424 20.4858H12.6424V22.9858H15.1424V20.4858ZM21.2504 20.4858H23.7504V17.9858H21.2504V20.4858ZM21.2504 23V25.5H23.7504V23H21.2504ZM13.381 23V20.7841H8.38104V23H13.381ZM12.5796 22.6185L17.7571 17.8245L14.3601 14.1557L9.18252 18.9497L12.5796 22.6185ZM17.7971 17.7866C18.2711 17.3279 18.6915 16.8931 19.048 16.4857L15.2851 13.1932C15.045 13.4676 14.7267 13.8 14.32 14.1936L17.7971 17.7866ZM19.0351 16.5004C19.4553 16.0276 19.8313 15.5011 20.1108 14.9167L15.6001 12.7594C15.5671 12.8285 15.4838 12.9696 15.298 13.1786L19.0351 16.5004ZM20.1168 14.9041C20.4376 14.2237 20.5898 13.5001 20.5898 12.7656H15.5898C15.5898 12.7765 15.5893 12.7832 15.589 12.7863C15.5887 12.7893 15.5885 12.7895 15.5889 12.7876C15.5893 12.7857 15.5901 12.7828 15.5912 12.7794C15.5924 12.776 15.5935 12.7735 15.5942 12.772L20.1168 14.9041ZM20.5898 12.7656C20.5898 11.9496 20.3996 11.1023 19.9131 10.331L15.6842 12.9985C15.64 12.9285 15.6138 12.8615 15.6002 12.8101C15.5872 12.7613 15.5898 12.7424 15.5898 12.7656H20.5898ZM19.9223 10.3456C19.4768 9.62847 18.8554 9.07326 18.1086 8.70509L15.8978 13.1898C15.8697 13.1759 15.8266 13.1498 15.7799 13.1077C15.733 13.0653 15.698 13.021 15.675 12.984L19.9223 10.3456ZM18.1338 8.71769C17.4038 8.34757 16.627 8.19176 15.8597 8.19176V13.1918C15.9058 13.1918 15.9236 13.1963 15.9197 13.1954C15.9179 13.195 15.9122 13.1936 15.9033 13.1905C15.8943 13.1873 15.8839 13.1829 15.8726 13.1772L18.1338 8.71769ZM15.8597 8.19176C15.0732 8.19176 14.2606 8.35283 13.5022 8.76451L15.8877 13.1588C15.8671 13.17 15.8481 13.1783 15.832 13.1844C15.8159 13.1904 15.8045 13.1934 15.799 13.1947C15.7881 13.1972 15.8054 13.1918 15.8597 13.1918V8.19176ZM13.5022 8.76451C12.7365 9.18021 12.1315 9.79432 11.7238 10.5561L16.1321 12.9155C16.1137 12.9498 16.081 12.9988 16.0305 13.0497C15.9799 13.1008 15.9284 13.1367 15.8877 13.1588L13.5022 8.76451ZM11.7238 10.5561C11.3118 11.3259 11.158 12.1489 11.158 12.9361H16.158C16.158 12.8649 16.165 12.8348 16.1646 12.8364C16.1644 12.8375 16.1624 12.8459 16.1571 12.8603C16.1518 12.8748 16.1437 12.8937 16.1321 12.9155L11.7238 10.5561ZM13.658 10.4361H10.739V15.4361H13.658V10.4361ZM13.239 12.9361C13.239 12.3728 13.3622 12.0152 13.5149 11.7668L9.25566 9.14795C8.54666 10.301 8.23899 11.5959 8.23899 12.9361H13.239ZM13.5149 11.7668C13.6861 11.4884 13.9254 11.2592 14.3035 11.0725L12.0893 6.58946C10.9144 7.16976 9.94619 8.02488 9.25566 9.14795L13.5149 11.7668ZM14.3035 11.0725C14.6818 10.8856 15.1867 10.7557 15.881 10.7557V5.75568C14.5488 5.75568 13.264 6.00926 12.0893 6.58946L14.3035 11.0725ZM15.881 10.7557C16.629 10.7557 17.1524 10.8879 17.5221 11.0648L19.6803 6.55456C18.5064 5.9928 17.2164 5.75568 15.881 5.75568V10.7557ZM17.5387 11.0726C17.9445 11.2632 18.1773 11.4832 18.3298 11.7128L22.4947 8.9463C21.7855 7.87855 20.8109 7.0853 19.6637 6.54667L17.5387 11.0726ZM18.3298 11.7128C18.4675 11.92 18.5586 12.1744 18.5586 12.5597H23.5586C23.5586 11.2687 23.2189 10.0364 22.4947 8.9463L18.3298 11.7128ZM18.5586 12.5597C18.5586 12.7692 18.5188 12.992 18.4164 13.2435L23.0474 15.1287C23.3806 14.31 23.5586 13.4486 23.5586 12.5597H18.5586ZM18.4093 13.2611C18.3304 13.4591 18.1267 13.8224 17.6747 14.3601L21.5021 17.5774C22.1487 16.8082 22.7072 15.9831 23.0545 15.111L18.4093 13.2611ZM17.6805 14.3533C17.2295 14.8858 16.5431 15.5831 15.5834 16.4563L18.9485 20.1545C19.987 19.2095 20.8488 18.349 21.4964 17.5842L17.6805 14.3533ZM15.5162 16.5198L13.3926 18.6008L16.8922 22.172L19.0157 20.091L15.5162 16.5198ZM12.6424 20.3864V20.4858H17.6424V20.3864H12.6424ZM15.1424 22.9858H21.2504V17.9858H15.1424V22.9858ZM18.7504 20.4858V23H23.7504V20.4858H18.7504ZM21.2504 20.5H10.881V25.5H21.2504V20.5Z" fill="white" mask="url(#path-2-inside-1_1_1865)"/>
</g>
<defs>
<clipPath id="clip0_1_1865">
<rect width="32" height="32" fill="white"/>
</clipPath>
</defs>
</svg>
