<svg width="32" height="32" viewBox="0 0 32 32" fill="none" xmlns="http://www.w3.org/2000/svg">
<g clip-path="url(#clip0_1_1866)">
<rect width="32" height="32" rx="8" fill="black"/>
<mask id="path-2-inside-1_1_1866" fill="white">
<path d="M15.9734 23.1989C14.9128 23.1989 13.9682 23.0166 13.1396 22.652C12.3157 22.2827 11.6647 21.776 11.1864 21.1321C10.7129 20.4834 10.4691 19.7353 10.4549 18.8878H13.5515C13.5704 19.2429 13.6864 19.5554 13.8995 19.8253C14.1173 20.0904 14.4061 20.2964 14.766 20.4432C15.1258 20.59 15.5307 20.6634 15.9805 20.6634C16.4492 20.6634 16.8635 20.5805 17.2234 20.4148C17.5832 20.2491 17.8649 20.0194 18.0685 19.7259C18.2721 19.4323 18.3739 19.0937 18.3739 18.7102C18.3739 18.322 18.265 17.9787 18.0472 17.6804C17.8342 17.3774 17.5264 17.1406 17.1239 16.9702C16.7262 16.7997 16.2527 16.7145 15.7035 16.7145H14.3469V14.456H15.7035C16.1675 14.456 16.5771 14.3755 16.9322 14.2145C17.292 14.0535 17.5714 13.831 17.7702 13.5469C17.9691 13.258 18.0685 12.9219 18.0685 12.5384C18.0685 12.1738 17.9809 11.8542 17.8058 11.5795C17.6353 11.3002 17.3938 11.0824 17.0813 10.9261C16.7736 10.7699 16.4137 10.6918 16.0018 10.6918C15.5851 10.6918 15.204 10.7675 14.8583 10.919C14.5127 11.0658 14.2357 11.2765 14.0273 11.5511C13.819 11.8258 13.7077 12.1477 13.6935 12.517H10.7461C10.7603 11.679 10.9994 10.9403 11.4634 10.3011C11.9274 9.66193 12.5524 9.1624 13.3384 8.80256C14.1291 8.43797 15.0217 8.25568 16.016 8.25568C17.0198 8.25568 17.8981 8.43797 18.6509 8.80256C19.4038 9.16714 19.9885 9.65956 20.4052 10.2798C20.8266 10.8954 21.0349 11.5866 21.0302 12.3537C21.0349 13.1681 20.7816 13.8475 20.2702 14.392C19.7636 14.9366 19.1031 15.2822 18.2887 15.429V15.5426C19.3588 15.6799 20.1732 16.0516 20.7319 16.6577C21.2953 17.259 21.5747 18.0118 21.57 18.9162C21.5747 19.7448 21.3356 20.4811 20.8526 21.125C20.3744 21.7689 19.7139 22.2756 18.8711 22.6449C18.0283 23.0142 17.0624 23.1989 15.9734 23.1989Z"/>
</mask>
<path d="M13.1396 22.652L12.1169 24.9333L12.1248 24.9368L12.1327 24.9403L13.1396 22.652ZM11.1864 21.1321L9.16715 22.606L9.17323 22.6144L9.17937 22.6226L11.1864 21.1321ZM10.4549 18.8878V16.3878H7.91265L7.95525 18.9297L10.4549 18.8878ZM13.5515 18.8878L16.0479 18.7546L15.9217 16.3878H13.5515V18.8878ZM13.8995 19.8253L11.9373 21.3744L11.9523 21.3934L11.9677 21.4121L13.8995 19.8253ZM14.766 20.4432L13.8218 22.758H13.8218L14.766 20.4432ZM17.2234 20.4148L16.1776 18.144L17.2234 20.4148ZM18.0685 19.7259L20.1228 21.1506L20.1228 21.1506L18.0685 19.7259ZM18.0472 17.6804L16.0022 19.1183L16.015 19.1366L16.0282 19.1546L18.0472 17.6804ZM17.1239 16.9702L16.1391 19.2681L16.149 19.2722L17.1239 16.9702ZM14.3469 16.7145H11.8469V19.2145H14.3469V16.7145ZM14.3469 14.456V11.956H11.8469V14.456H14.3469ZM16.9322 14.2145L15.9112 11.9324L15.9 11.9375L16.9322 14.2145ZM17.7702 13.5469L19.8183 14.9805L19.8239 14.9726L19.8294 14.9646L17.7702 13.5469ZM17.8058 11.5795L15.6717 12.8817L15.6847 12.903L15.6981 12.9241L17.8058 11.5795ZM17.0813 10.9261L15.9496 13.1553L15.9564 13.1588L15.9633 13.1622L17.0813 10.9261ZM14.8583 10.919L15.8355 13.2201L15.8488 13.2145L15.862 13.2087L14.8583 10.919ZM14.0273 11.5511L16.0191 13.0621L16.0191 13.0621L14.0273 11.5511ZM13.6935 12.517V15.017H16.0992L16.1917 12.6131L13.6935 12.517ZM10.7461 12.517L8.24645 12.4747L8.20336 15.017H10.7461V12.517ZM11.4634 10.3011L13.4866 11.7698V11.7698L11.4634 10.3011ZM13.3384 8.80256L14.3791 11.0757L14.3852 11.0729L13.3384 8.80256ZM18.6509 8.80256L19.7406 6.55252L18.6509 8.80256ZM20.4052 10.2798L18.3299 11.6739L18.3361 11.683L18.3423 11.6921L20.4052 10.2798ZM21.0302 12.3537L18.5302 12.3383L18.5301 12.3532L18.5302 12.3682L21.0302 12.3537ZM20.2702 14.392L18.4479 12.6806L18.44 12.6891L20.2702 14.392ZM18.2887 15.429L17.8453 12.9686L15.7887 13.3393V15.429H18.2887ZM18.2887 15.5426H15.7887V17.7423L17.9705 18.0223L18.2887 15.5426ZM20.7319 16.6577L18.8938 18.3522L18.9007 18.3596L18.9076 18.367L20.7319 16.6577ZM21.57 18.9162L19.07 18.9031L19.0699 18.9168L19.07 18.9305L21.57 18.9162ZM20.8526 21.125L18.8526 19.625L18.8456 19.6345L20.8526 21.125ZM18.8711 22.6449L17.8677 20.3551H17.8677L18.8711 22.6449ZM15.9734 20.6989C15.2006 20.6989 14.6079 20.5668 14.1464 20.3637L12.1327 24.9403C13.3284 25.4664 14.6249 25.6989 15.9734 25.6989V20.6989ZM14.1622 20.3707C13.6788 20.154 13.3859 19.9006 13.1935 19.6416L9.17937 22.6226C9.94341 23.6514 10.9526 24.4113 12.1169 24.9333L14.1622 20.3707ZM13.2057 19.6582C13.0536 19.4497 12.9606 19.2083 12.9545 18.8459L7.95525 18.9297C7.97759 20.2624 8.37232 21.5171 9.16715 22.606L13.2057 19.6582ZM10.4549 21.3878H13.5515V16.3878H10.4549V21.3878ZM11.055 19.0209C11.1005 19.8731 11.3927 20.6845 11.9373 21.3744L15.8617 18.2762C15.9119 18.3397 15.9607 18.4221 15.9964 18.5185C16.0319 18.614 16.0449 18.6971 16.0479 18.7546L11.055 19.0209ZM11.9677 21.4121C12.4824 22.0387 13.129 22.4754 13.8218 22.758L15.7102 18.1283C15.6927 18.1212 15.7035 18.1236 15.731 18.1432C15.7596 18.1636 15.7959 18.1953 15.8313 18.2384L11.9677 21.4121ZM13.8218 22.758C14.5248 23.0448 15.2573 23.1634 15.9805 23.1634V18.1634C15.804 18.1634 15.7269 18.1352 15.7102 18.1283L13.8218 22.758ZM15.9805 23.1634C16.7449 23.1634 17.5267 23.0274 18.2691 22.6855L16.1776 18.144C16.2003 18.1335 16.1536 18.1634 15.9805 18.1634V23.1634ZM18.2691 22.6855C18.9893 22.3539 19.6376 21.8502 20.1228 21.1506L16.0143 18.3011C16.0482 18.2521 16.0876 18.211 16.125 18.1805C16.1613 18.1509 16.1833 18.1414 16.1776 18.144L18.2691 22.6855ZM20.1228 21.1506C20.6383 20.4073 20.8739 19.5635 20.8739 18.7102H15.8739C15.8739 18.6787 15.8785 18.615 15.9035 18.5319C15.929 18.4471 15.9681 18.3677 16.0142 18.3011L20.1228 21.1506ZM20.8739 18.7102C20.8739 17.8209 20.6132 16.9552 20.0663 16.2062L16.0282 19.1546C15.9819 19.0913 15.9386 19.01 15.9093 18.9176C15.8804 18.8263 15.8739 18.7526 15.8739 18.7102H20.8739ZM20.0923 16.2425C19.5652 15.4928 18.8534 14.9877 18.0989 14.6681L16.149 19.2722C16.1783 19.2847 16.1667 19.2836 16.1323 19.2571C16.0959 19.2291 16.0477 19.183 16.0022 19.1183L20.0923 16.2425ZM18.1087 14.6723C17.3282 14.3378 16.5035 14.2145 15.7035 14.2145V19.2145C16.0019 19.2145 16.1242 19.2617 16.1391 19.268L18.1087 14.6723ZM15.7035 14.2145H14.3469V19.2145H15.7035V14.2145ZM16.8469 16.7145V14.456H11.8469V16.7145H16.8469ZM14.3469 16.956H15.7035V11.956H14.3469V16.956ZM15.7035 16.956C16.4568 16.956 17.2293 16.8247 17.9644 16.4914L15.9 11.9375C15.9248 11.9263 15.8782 11.956 15.7035 11.956V16.956ZM17.9531 16.4965C18.6681 16.1767 19.3261 15.6837 19.8183 14.9805L15.7222 12.1132C15.7644 12.0529 15.8116 12.0051 15.8539 11.9714C15.8947 11.9389 15.9189 11.929 15.9113 11.9324L17.9531 16.4965ZM19.8294 14.9646C20.3423 14.2197 20.5685 13.3785 20.5685 12.5384H15.5685C15.5685 12.5124 15.5722 12.4517 15.5966 12.3691C15.6216 12.2845 15.6612 12.2016 15.7111 12.1291L19.8294 14.9646ZM20.5685 12.5384C20.5685 11.756 20.3746 10.958 19.9134 10.235L15.6981 12.9241C15.6485 12.8463 15.6131 12.7638 15.5918 12.686C15.571 12.6102 15.5685 12.5572 15.5685 12.5384H20.5685ZM19.9399 10.2774C19.5084 9.57021 18.9018 9.04131 18.1994 8.69007L15.9633 13.1622C15.9327 13.1469 15.8811 13.1161 15.8224 13.0631C15.7628 13.0094 15.7113 12.9467 15.6717 12.8817L19.9399 10.2774ZM18.2131 8.69697C17.493 8.33138 16.7315 8.19176 16.0018 8.19176V13.1918C16.0501 13.1918 16.0637 13.1964 16.0502 13.1934C16.0353 13.1902 15.9985 13.1801 15.9496 13.1553L18.2131 8.69697ZM16.0018 8.19176C15.2758 8.19176 14.5482 8.32531 13.8546 8.62936L15.862 13.2087C15.8642 13.2077 15.8724 13.2043 15.8908 13.2006C15.9098 13.1968 15.9454 13.1918 16.0018 13.1918V8.19176ZM13.8811 8.61792C13.1711 8.91943 12.5307 9.38759 12.0356 10.0402L16.0191 13.0621C15.985 13.1071 15.945 13.1464 15.9049 13.1769C15.8658 13.2067 15.8387 13.2188 15.8355 13.2201L13.8811 8.61792ZM12.0356 10.0402C11.4946 10.7534 11.2278 11.5783 11.1954 12.421L16.1917 12.6131C16.1901 12.6532 16.1816 12.7251 16.1505 12.8152C16.1189 12.9068 16.0726 12.9915 16.0191 13.0621L12.0356 10.0402ZM13.6935 10.017H10.7461V15.017H13.6935V10.017ZM13.2457 12.5594C13.2518 12.2012 13.3429 11.9677 13.4866 11.7698L9.44029 8.83249C8.65589 9.91303 8.26879 11.1567 8.24645 12.4747L13.2457 12.5594ZM13.4866 11.7698C13.6744 11.5111 13.9465 11.2737 14.3791 11.0757L12.2977 6.52946C11.1584 7.05108 10.1805 7.81279 9.44029 8.83249L13.4866 11.7698ZM14.3852 11.0729C14.8041 10.8797 15.3318 10.7557 16.016 10.7557V5.75568C14.7115 5.75568 13.4542 5.99625 12.2916 6.53226L14.3852 11.0729ZM16.016 10.7557C16.7169 10.7557 17.2094 10.8822 17.5613 11.0526L19.7406 6.55252C18.5868 5.99376 17.3226 5.75568 16.016 5.75568V10.7557ZM17.5613 11.0526C17.9643 11.2478 18.1887 11.4637 18.3299 11.6739L22.4804 8.88578C21.7883 7.85547 20.8432 7.08652 19.7406 6.55252L17.5613 11.0526ZM18.3423 11.6921C18.4674 11.8749 18.5319 12.0652 18.5302 12.3383L23.5301 12.3691C23.5379 11.1081 23.1857 9.91584 22.4681 8.86755L18.3423 11.6921ZM18.5302 12.3682C18.5316 12.6049 18.479 12.6474 18.4479 12.6806L22.0926 16.1035C23.0842 15.0476 23.5382 13.7312 23.5301 12.3392L18.5302 12.3682ZM18.44 12.6891C18.3429 12.7934 18.1907 12.9064 17.8453 12.9686L18.7321 17.8893C20.0155 17.658 21.1843 17.0797 22.1005 16.095L18.44 12.6891ZM15.7887 15.429V15.5426H20.7887V15.429H15.7887ZM17.9705 18.0223C18.64 18.1082 18.8428 18.2968 18.8938 18.3522L22.57 14.9632C21.5036 13.8064 20.0776 13.2517 18.6069 13.0629L17.9705 18.0223ZM18.9076 18.367C18.9895 18.4544 19.0717 18.5702 19.07 18.9031L24.0699 18.9293C24.0777 17.4534 23.6012 16.0636 22.5562 14.9483L18.9076 18.367ZM19.07 18.9305C19.0717 19.2306 18.9979 19.4313 18.8526 19.625L22.8526 22.625C23.6733 21.5308 24.0777 20.259 24.0699 18.9019L19.07 18.9305ZM18.8456 19.6345C18.6628 19.8805 18.3716 20.1343 17.8677 20.3551L19.8745 24.9347C21.0562 24.4169 22.086 23.6573 22.8597 22.6155L18.8456 19.6345ZM17.8677 20.3551C17.3938 20.5627 16.7795 20.6989 15.9734 20.6989V25.6989C17.3453 25.6989 18.6627 25.4657 19.8745 24.9347L17.8677 20.3551Z" fill="white" mask="url(#path-2-inside-1_1_1866)"/>
</g>
<defs>
<clipPath id="clip0_1_1866">
<rect width="32" height="32" fill="white"/>
</clipPath>
</defs>
</svg>
