<svg width="32" height="32" viewBox="0 0 32 32" fill="none" xmlns="http://www.w3.org/2000/svg">
<g clip-path="url(#clip0_1_1867)">
<rect width="32" height="32" rx="8" fill="black"/>
<mask id="path-2-inside-1_1_1867" fill="white">
<path d="M10.1619 20.4432V18.0213L16.2344 8.45455H18.3224V11.8068H17.0866L13.2585 17.8651V17.9787H21.8878V20.4432H10.1619ZM17.1435 23V19.7045L17.2003 18.6321V8.45455H20.0838V23H17.1435Z"/>
</mask>
<path d="M10.1619 20.4432H7.66193V22.9432H10.1619V20.4432ZM10.1619 18.0213L8.05123 16.6816L7.66193 17.2949V18.0213H10.1619ZM16.2344 8.45455V5.95455H14.8601L14.1237 7.11479L16.2344 8.45455ZM18.3224 8.45455H20.8224V5.95455H18.3224V8.45455ZM18.3224 11.8068V14.3068H20.8224V11.8068H18.3224ZM17.0866 11.8068V9.30682H15.7091L14.9732 10.4714L17.0866 11.8068ZM13.2585 17.8651L11.1451 16.5296L10.7585 17.1414V17.8651H13.2585ZM13.2585 17.9787H10.7585V20.4787H13.2585V17.9787ZM21.8878 17.9787H24.3878V15.4787H21.8878V17.9787ZM21.8878 20.4432V22.9432H24.3878V20.4432H21.8878ZM17.1435 23H14.6435V25.5H17.1435V23ZM17.1435 19.7045L14.647 19.5723L14.6435 19.6384V19.7045H17.1435ZM17.2003 18.6321L19.6968 18.7644L19.7003 18.6983V18.6321H17.2003ZM17.2003 8.45455V5.95455H14.7003V8.45455H17.2003ZM20.0838 8.45455H22.5838V5.95455H20.0838V8.45455ZM20.0838 23V25.5H22.5838V23H20.0838ZM12.6619 20.4432V18.0213H7.66193V20.4432H12.6619ZM12.2726 19.3611L18.3451 9.7943L14.1237 7.11479L8.05123 16.6816L12.2726 19.3611ZM16.2344 10.9545H18.3224V5.95455H16.2344V10.9545ZM15.8224 8.45455V11.8068H20.8224V8.45455H15.8224ZM18.3224 9.30682H17.0866V14.3068H18.3224V9.30682ZM14.9732 10.4714L11.1451 16.5296L15.372 19.2005L19.2001 13.1423L14.9732 10.4714ZM10.7585 17.8651V17.9787H15.7585V17.8651H10.7585ZM13.2585 20.4787H21.8878V15.4787H13.2585V20.4787ZM19.3878 17.9787V20.4432H24.3878V17.9787H19.3878ZM21.8878 17.9432H10.1619V22.9432H21.8878V17.9432ZM19.6435 23V19.7045H14.6435V23H19.6435ZM19.64 19.8368L19.6968 18.7644L14.7038 18.4998L14.647 19.5723L19.64 19.8368ZM19.7003 18.6321V8.45455H14.7003V18.6321H19.7003ZM17.2003 10.9545H20.0838V5.95455H17.2003V10.9545ZM17.5838 8.45455V23H22.5838V8.45455H17.5838ZM20.0838 20.5H17.1435V25.5H20.0838V20.5Z" fill="white" mask="url(#path-2-inside-1_1_1867)"/>
</g>
<defs>
<clipPath id="clip0_1_1867">
<rect width="32" height="32" fill="white"/>
</clipPath>
</defs>
</svg>
