<svg width="32" height="32" viewBox="0 0 32 32" fill="none" xmlns="http://www.w3.org/2000/svg">
<g clip-path="url(#clip0_1_1868)">
<rect width="32" height="32" rx="8" fill="black"/>
<mask id="path-2-inside-1_1_1868" fill="white">
<path d="M15.9947 23.1989C14.9909 23.1989 14.096 23.0142 13.31 22.6449C12.5288 22.2756 11.9085 21.7666 11.4492 21.1179C10.9899 20.4692 10.7508 19.7259 10.7319 18.8878H13.7148C13.748 19.4512 13.9847 19.9081 14.4251 20.2585C14.8654 20.6089 15.3886 20.7841 15.9947 20.7841C16.4776 20.7841 16.9038 20.6776 17.2731 20.4645C17.6471 20.2467 17.9383 19.946 18.1467 19.5625C18.3597 19.1742 18.4663 18.7292 18.4663 18.2273C18.4663 17.7159 18.3574 17.2661 18.1396 16.8778C17.9265 16.4896 17.6306 16.1866 17.2518 15.9688C16.873 15.7509 16.4397 15.6397 15.9521 15.6349C15.5259 15.6349 15.1116 15.7225 14.7092 15.8977C14.3114 16.0729 14.0013 16.312 13.7788 16.6151L11.0444 16.125L11.7333 8.45455H20.6254V10.9688H14.2688L13.8924 14.6122H13.9776C14.2333 14.2524 14.6192 13.9541 15.1353 13.7173C15.6514 13.4806 16.229 13.3622 16.8683 13.3622C17.7442 13.3622 18.5255 13.5682 19.212 13.9801C19.8986 14.392 20.4407 14.9579 20.8384 15.6776C21.2362 16.3925 21.4326 17.2164 21.4279 18.1491C21.4326 19.1293 21.2054 20.0005 20.7461 20.7628C20.2915 21.5204 19.6547 22.117 18.8356 22.5526C18.0212 22.9834 17.0742 23.1989 15.9947 23.1989Z"/>
</mask>
<path d="M13.31 22.6449L12.2416 24.9051L12.2468 24.9076L13.31 22.6449ZM11.4492 21.1179L9.40886 22.5625L11.4492 21.1179ZM10.7319 18.8878V16.3878H8.17475L8.23253 18.9443L10.7319 18.8878ZM13.7148 18.8878L16.2105 18.741L16.0721 16.3878H13.7148V18.8878ZM14.4251 20.2585L15.9817 18.3023H15.9817L14.4251 20.2585ZM17.2731 20.4645L18.5224 22.63L18.5311 22.6249L17.2731 20.4645ZM18.1467 19.5625L15.955 18.3597L15.9499 18.3692L18.1467 19.5625ZM18.1396 16.8778L15.9479 18.0806L15.9535 18.0908L15.9592 18.101L18.1396 16.8778ZM17.2518 15.9688L16.0056 18.136L16.0056 18.136L17.2518 15.9688ZM15.9521 15.6349L15.9763 13.1351L15.9642 13.1349H15.9521V15.6349ZM14.7092 15.8977L13.7114 13.6055L13.7014 13.6098L14.7092 15.8977ZM13.7788 16.6151L13.3377 19.0758L14.8715 19.3507L15.7938 18.0948L13.7788 16.6151ZM11.0444 16.125L8.55441 15.9014L8.34959 18.1819L10.6034 18.5858L11.0444 16.125ZM11.7333 8.45455V5.95455H9.44778L9.24333 8.23091L11.7333 8.45455ZM20.6254 8.45455H23.1254V5.95455H20.6254V8.45455ZM20.6254 10.9688V13.4688H23.1254V10.9688H20.6254ZM14.2688 10.9688V8.46875H12.0138L11.7821 10.7118L14.2688 10.9688ZM13.8924 14.6122L11.4056 14.3553L11.1208 17.1122H13.8924V14.6122ZM13.9776 14.6122V17.1122H15.2681L16.0156 16.0602L13.9776 14.6122ZM15.1353 13.7173L16.1777 15.9897H16.1777L15.1353 13.7173ZM19.212 13.9801L20.4982 11.8364L20.4982 11.8364L19.212 13.9801ZM20.8384 15.6776L18.6503 16.8868L18.6537 16.8929L20.8384 15.6776ZM21.4279 18.1491L18.9279 18.1365L18.9279 18.1488L18.9279 18.1612L21.4279 18.1491ZM20.7461 20.7628L18.6047 19.4726L18.6024 19.4765L20.7461 20.7628ZM18.8356 22.5526L20.0047 24.7623L20.0094 24.7598L18.8356 22.5526ZM15.9947 20.6989C15.3013 20.6989 14.7785 20.5726 14.3732 20.3822L12.2468 24.9076C13.4135 25.4558 14.6805 25.6989 15.9947 25.6989V20.6989ZM14.3785 20.3847C13.951 20.1827 13.679 19.9408 13.4896 19.6733L9.40886 22.5625C10.138 23.5923 11.1065 24.3685 12.2416 24.9051L14.3785 20.3847ZM13.4896 19.6733C13.3344 19.4541 13.2396 19.2 13.2313 18.8313L8.23253 18.9443C8.26207 20.2517 8.6455 21.4844 9.40886 22.5625L13.4896 19.6733ZM10.7319 21.3878H13.7148V16.3878H10.7319V21.3878ZM11.2192 19.0346C11.2939 20.3048 11.8703 21.4206 12.8685 22.2148L15.9817 18.3023C16.0108 18.3254 16.0789 18.3908 16.137 18.5029C16.195 18.6149 16.2085 18.7068 16.2105 18.741L11.2192 19.0346ZM12.8685 22.2148C13.7864 22.9452 14.8698 23.2841 15.9947 23.2841V18.2841C15.9638 18.2841 15.9459 18.2819 15.9389 18.2808C15.9322 18.2798 15.9339 18.2795 15.9415 18.2821C15.9493 18.2847 15.9587 18.2887 15.968 18.2937C15.9772 18.2987 15.9819 18.3024 15.9817 18.3023L12.8685 22.2148ZM15.9947 23.2841C16.8569 23.2841 17.7249 23.09 18.5224 22.63L16.0238 18.299C16.034 18.2931 16.0442 18.2883 16.0534 18.2846C16.0626 18.2809 16.0686 18.2792 16.0702 18.2788C16.0739 18.2779 16.0518 18.2841 15.9947 18.2841V23.2841ZM18.5311 22.6249C19.3042 22.1748 19.9186 21.538 20.3435 20.7558L15.9499 18.3692C15.9493 18.3702 15.9574 18.3558 15.9762 18.3364C15.9951 18.3168 16.0112 18.3063 16.0151 18.304L18.5311 22.6249ZM20.3383 20.7652C20.7794 19.9616 20.9663 19.0928 20.9663 18.2273H15.9663C15.9663 18.3009 15.9585 18.341 15.955 18.3555C15.9519 18.3687 15.9508 18.3674 15.955 18.3598L20.3383 20.7652ZM20.9663 18.2273C20.9663 17.352 20.7767 16.469 20.3199 15.6547L15.9592 18.101C15.952 18.0881 15.952 18.0829 15.9548 18.0947C15.958 18.108 15.9663 18.1493 15.9663 18.2273H20.9663ZM20.3312 15.6751C19.9006 14.8904 19.2801 14.2512 18.498 13.8015L16.0056 18.136C16.002 18.134 15.9869 18.1242 15.9692 18.1061C15.9517 18.0881 15.9454 18.0761 15.9479 18.0806L20.3312 15.6751ZM18.498 13.8015C17.7054 13.3458 16.8422 13.1435 15.9763 13.1351L15.9278 18.1348C15.988 18.1354 16.0163 18.1422 16.0209 18.1434C16.0241 18.1442 16.0165 18.1423 16.0056 18.136L18.498 13.8015ZM15.9521 13.1349C15.1722 13.1349 14.4189 13.2975 13.7114 13.6055L15.707 18.19C15.8043 18.1476 15.8797 18.1349 15.9521 18.1349V13.1349ZM13.7014 13.6098C12.9662 13.9337 12.2835 14.4275 11.7638 15.1353L15.7938 18.0948C15.7607 18.1398 15.7274 18.1709 15.7047 18.1883C15.6836 18.2046 15.6828 18.2006 15.7169 18.1856L13.7014 13.6098ZM14.2198 14.1543L11.4854 13.6642L10.6034 18.5858L13.3377 19.0758L14.2198 14.1543ZM13.5344 16.3486L14.2233 8.67818L9.24333 8.23091L8.55441 15.9014L13.5344 16.3486ZM11.7333 10.9545H20.6254V5.95455H11.7333V10.9545ZM18.1254 8.45455V10.9688H23.1254V8.45455H18.1254ZM20.6254 8.46875H14.2688V13.4688H20.6254V8.46875ZM11.7821 10.7118L11.4056 14.3553L16.3792 14.8691L16.7556 11.2257L11.7821 10.7118ZM13.8924 17.1122H13.9776V12.1122H13.8924V17.1122ZM16.0156 16.0602C15.9546 16.146 15.9483 16.0949 16.1777 15.9897L14.0929 11.445C13.2901 11.8133 12.512 12.3587 11.9397 13.1642L16.0156 16.0602ZM16.1777 15.9897C16.3279 15.9208 16.5435 15.8622 16.8683 15.8622V10.8622C15.9146 10.8622 14.9749 11.0404 14.0929 11.445L16.1777 15.9897ZM16.8683 15.8622C17.3351 15.8622 17.6638 15.9667 17.9258 16.1238L20.4982 11.8364C19.3871 11.1697 18.1533 10.8622 16.8683 10.8622V15.8622ZM17.9258 16.1238C18.2241 16.3028 18.4596 16.5417 18.6503 16.8868L23.0265 14.4683C22.4218 13.374 21.573 12.4813 20.4982 11.8364L17.9258 16.1238ZM18.6537 16.8929C18.8148 17.1824 18.9308 17.5723 18.9279 18.1365L23.9279 18.1618C23.9345 16.8605 23.6575 15.6026 23.0231 14.4622L18.6537 16.8929ZM18.9279 18.1612C18.9307 18.7305 18.8037 19.1424 18.6047 19.4726L22.8875 22.0529C23.6071 20.8585 23.9346 19.528 23.9279 18.1371L18.9279 18.1612ZM18.6024 19.4765C18.3934 19.8248 18.1009 20.1117 17.6618 20.3453L20.0094 24.7598C21.2085 24.1222 22.1897 23.2159 22.8898 22.049L18.6024 19.4765ZM17.6665 20.3428C17.2695 20.5528 16.7367 20.6989 15.9947 20.6989V25.6989C17.4117 25.6989 18.7729 25.4141 20.0047 24.7623L17.6665 20.3428Z" fill="white" mask="url(#path-2-inside-1_1_1868)"/>
</g>
<defs>
<clipPath id="clip0_1_1868">
<rect width="32" height="32" fill="white"/>
</clipPath>
</defs>
</svg>
