<svg width="32" height="32" viewBox="0 0 32 32" fill="none" xmlns="http://www.w3.org/2000/svg">
<g clip-path="url(#clip0_1_1869)">
<rect width="32" height="32" rx="8" fill="black"/>
<mask id="path-2-inside-1_1_1869" fill="white">
<path d="M16.1722 23.1989C15.4241 23.1941 14.7021 23.0687 14.006 22.8224C13.3147 22.5762 12.6945 22.1761 12.1452 21.6222C11.596 21.0682 11.1604 20.3343 10.8384 19.4205C10.5212 18.5066 10.3626 17.3845 10.3626 16.054C10.3673 14.8324 10.507 13.741 10.7816 12.7798C11.061 11.8139 11.4587 10.9948 11.9748 10.3224C12.4956 9.65009 13.1183 9.13873 13.8427 8.78835C14.5671 8.43324 15.3791 8.25568 16.2788 8.25568C17.2494 8.25568 18.1064 8.44508 18.8498 8.82386C19.5932 9.19792 20.1897 9.70691 20.6396 10.3509C21.0941 10.9948 21.3687 11.7169 21.4634 12.517H18.4308C18.3124 12.0104 18.0638 11.6127 17.685 11.3239C17.3062 11.035 16.8375 10.8906 16.2788 10.8906C15.3318 10.8906 14.6121 11.3026 14.1197 12.1264C13.632 12.9503 13.3834 14.0701 13.3739 15.4858H13.4734C13.6912 15.0549 13.9847 14.688 14.354 14.3849C14.7281 14.0772 15.1519 13.8428 15.6254 13.6818C16.1036 13.5161 16.6078 13.4332 17.1381 13.4332C17.9999 13.4332 18.7669 13.6368 19.4393 14.044C20.1116 14.4465 20.6419 15.0005 21.0302 15.706C21.4184 16.4115 21.6126 17.2187 21.6126 18.1278C21.6126 19.1127 21.3829 19.9886 20.9237 20.7557C20.4691 21.5227 19.8323 22.1241 19.0131 22.5597C18.1987 22.9905 17.2518 23.2036 16.1722 23.1989ZM16.158 20.7841C16.6315 20.7841 17.0553 20.6705 17.4293 20.4432C17.8034 20.2159 18.0969 19.9081 18.31 19.5199C18.5231 19.1316 18.6296 18.696 18.6296 18.2131C18.6296 17.7301 18.5231 17.2969 18.31 16.9134C18.1017 16.5298 17.8129 16.2244 17.4435 15.9972C17.0742 15.7699 16.6528 15.6562 16.1793 15.6562C15.8242 15.6562 15.4951 15.7225 15.1921 15.8551C14.8938 15.9877 14.631 16.1723 14.4038 16.4091C14.1812 16.6458 14.006 16.9205 13.8782 17.233C13.7504 17.5407 13.6864 17.8698 13.6864 18.2202C13.6864 18.6889 13.793 19.1174 14.006 19.5057C14.2238 19.8939 14.5174 20.2041 14.8867 20.4361C15.2608 20.6681 15.6845 20.7841 16.158 20.7841Z"/>
</mask>
<path d="M16.1722 23.1989L16.1564 25.6988L16.1613 25.6988L16.1722 23.1989ZM14.006 22.8224L13.1672 25.1775L13.1723 25.1793L14.006 22.8224ZM12.1452 21.6222L10.3699 23.3823L12.1452 21.6222ZM10.8384 19.4205L8.47666 20.2403L8.4805 20.2512L10.8384 19.4205ZM10.3626 16.054L7.86257 16.0443V16.054H10.3626ZM10.7816 12.7798L8.38002 12.0853L8.3778 12.093L10.7816 12.7798ZM11.9748 10.3224L9.99839 8.79143L9.99167 8.80019L11.9748 10.3224ZM13.8427 8.78835L14.9312 11.039L14.9431 11.0332L13.8427 8.78835ZM18.8498 8.82386L17.7147 11.0514L17.7261 11.0571L18.8498 8.82386ZM20.6396 10.3509L18.59 11.7825L18.5971 11.7926L20.6396 10.3509ZM21.4634 12.517V15.017H24.2767L23.9461 12.2232L21.4634 12.517ZM18.4308 12.517L15.9963 13.0858L16.4475 15.017H18.4308V12.517ZM14.1197 12.1264L11.9737 10.8438L11.9683 10.8529L14.1197 12.1264ZM13.3739 15.4858L10.874 15.4691L10.8572 17.9858H13.3739V15.4858ZM13.4734 15.4858V17.9858H15.0109L15.7045 16.6136L13.4734 15.4858ZM14.354 14.3849L15.9398 16.3176L15.9425 16.3155L14.354 14.3849ZM15.6254 13.6818L16.4301 16.0488L16.437 16.0464L16.4439 16.044L15.6254 13.6818ZM19.4393 14.044L18.1442 16.1825L18.1553 16.1891L19.4393 14.044ZM20.9237 20.7557L18.7787 19.4714L18.7729 19.4812L20.9237 20.7557ZM19.0131 22.5597L20.1823 24.7694L20.187 24.767L19.0131 22.5597ZM17.4293 20.4432L18.7275 22.5797L17.4293 20.4432ZM18.31 19.5199L16.1183 18.3171L16.1183 18.3171L18.31 19.5199ZM18.31 16.9134L16.1132 18.1067L16.1189 18.1171L16.1246 18.1275L18.31 16.9134ZM17.4435 15.9972L18.7538 13.868L18.7538 13.868L17.4435 15.9972ZM15.1921 15.8551L14.1901 13.5647L14.1834 13.5676L14.1768 13.5706L15.1921 15.8551ZM14.4038 16.4091L12.6003 14.6778L12.5912 14.6872L12.5822 14.6968L14.4038 16.4091ZM13.8782 17.233L16.187 18.192L16.1921 18.1795L13.8782 17.233ZM14.006 19.5057L11.8144 20.7084L11.82 20.7186L11.8257 20.7288L14.006 19.5057ZM14.8867 20.4361L13.5568 22.553L13.5629 22.5568L13.569 22.5606L14.8867 20.4361ZM16.1881 20.6989C15.7149 20.6959 15.2695 20.6176 14.8398 20.4656L13.1723 25.1793C14.1346 25.5197 15.1334 25.6923 16.1564 25.6988L16.1881 20.6989ZM14.8448 20.4674C14.5284 20.3547 14.2231 20.1672 13.9206 19.862L10.3699 23.3823C11.1658 24.1851 12.1011 24.7978 13.1672 25.1775L14.8448 20.4674ZM13.9206 19.862C13.6872 19.6266 13.4244 19.2368 13.1964 18.5897L8.4805 20.2512C8.89643 21.4318 9.50484 22.5098 10.3699 23.3823L13.9206 19.862ZM13.2002 18.6006C13.0017 18.0288 12.8626 17.2026 12.8626 16.054H7.86257C7.86257 17.5664 8.04072 18.9845 8.47669 20.2403L13.2002 18.6006ZM12.8626 16.0637C12.8666 15.0224 12.9858 14.1652 13.1854 13.4666L8.3778 12.093C8.02813 13.3168 7.86802 14.6424 7.86259 16.0443L12.8626 16.0637ZM13.1832 13.4744C13.3917 12.7534 13.6635 12.2282 13.9579 11.8447L9.99167 8.80019C9.25388 9.76135 8.73022 10.8744 8.38003 12.0853L13.1832 13.4744ZM13.9512 11.8534C14.2494 11.4685 14.574 11.2117 14.9312 11.0389L12.7542 6.53777C11.6625 7.06578 10.7419 7.83172 9.99841 8.79145L13.9512 11.8534ZM14.9431 11.0332C15.2873 10.8644 15.7163 10.7557 16.2788 10.7557V5.75568C15.042 5.75568 13.847 6.00205 12.7423 6.54355L14.9431 11.0332ZM16.2788 10.7557C16.9194 10.7557 17.3762 10.8788 17.7148 11.0514L19.9848 6.59637C18.8366 6.0113 17.5795 5.75568 16.2788 5.75568V10.7557ZM17.7261 11.0571C18.1219 11.2562 18.3918 11.4986 18.5901 11.7825L22.6891 8.91922C21.9877 7.91522 21.0644 7.13959 19.9735 6.59065L17.7261 11.0571ZM18.5971 11.7926C18.8062 12.0887 18.9338 12.4144 18.9807 12.8109L23.9461 12.2232C23.8036 11.0193 23.3821 9.90092 22.682 8.90914L18.5971 11.7926ZM21.4634 10.017H18.4308V15.017H21.4634V10.017ZM20.8652 11.9483C20.6278 10.9321 20.085 10.01 19.2009 9.33586L16.1692 13.3119C16.1227 13.2764 16.0735 13.2246 16.0355 13.1638C15.9992 13.1056 15.9929 13.0711 15.9963 13.0858L20.8652 11.9483ZM19.2009 9.33586C18.3143 8.65988 17.2869 8.39062 16.2788 8.39062V13.3906C16.3427 13.3906 16.3479 13.3988 16.3133 13.3881C16.2963 13.3829 16.2731 13.3741 16.2462 13.3604C16.2192 13.3465 16.193 13.33 16.1692 13.3119L19.2009 9.33586ZM16.2788 8.39062C14.4375 8.39062 12.91 9.27748 11.9738 10.8438L16.2656 13.409C16.2981 13.3546 16.3174 13.3353 16.3164 13.3363C16.316 13.3368 16.3117 13.3411 16.3032 13.3477C16.2946 13.3543 16.2836 13.3619 16.2706 13.3693C16.2577 13.3767 16.245 13.3828 16.2335 13.3873C16.2221 13.3918 16.2142 13.394 16.211 13.3948C16.2041 13.3965 16.2236 13.3906 16.2788 13.3906V8.39062ZM11.9683 10.8529C11.1725 12.1974 10.8851 13.8083 10.874 15.4691L15.8739 15.5025C15.8817 14.3319 16.0915 13.7032 16.271 13.3999L11.9683 10.8529ZM13.3739 17.9858H13.4734V12.9858H13.3739V17.9858ZM15.7045 16.6136C15.7672 16.4896 15.8422 16.3978 15.9398 16.3176L12.7683 12.4523C12.1273 12.9782 11.6151 13.6202 11.2422 14.358L15.7045 16.6136ZM15.9425 16.3155C16.0762 16.2054 16.2326 16.1159 16.4301 16.0488L14.8206 11.3149C14.0711 11.5697 13.38 11.9489 12.7656 12.4544L15.9425 16.3155ZM16.4439 16.044C16.6465 15.9738 16.873 15.9332 17.1381 15.9332V10.9332C16.3426 10.9332 15.5607 11.0584 14.8068 11.3196L16.4439 16.044ZM17.1381 15.9332C17.5887 15.9332 17.8995 16.0342 18.1442 16.1824L20.7344 11.9056C19.6343 11.2394 18.4111 10.9332 17.1381 10.9332V15.9332ZM18.1553 16.1891C18.4368 16.3576 18.659 16.5826 18.84 16.9113L23.2204 14.5006C22.6248 13.4184 21.7865 12.5354 20.7233 11.899L18.1553 16.1891ZM18.84 16.9113C19 17.2021 19.1126 17.585 19.1126 18.1278H24.1126C24.1126 16.8525 23.8369 15.6208 23.2204 14.5006L18.84 16.9113ZM19.1126 18.1278C19.1126 18.7077 18.9825 19.1311 18.7788 19.4714L23.0686 22.04C23.7834 20.8461 24.1126 19.5177 24.1126 18.1278H19.1126ZM18.7729 19.4812C18.562 19.8371 18.2706 20.123 17.8393 20.3524L20.187 24.767C21.3939 24.1251 22.3762 23.2083 23.0744 22.0302L18.7729 19.4812ZM17.844 20.3499C17.4509 20.5579 16.9223 20.7021 16.1832 20.6989L16.1613 25.6988C17.5813 25.7051 18.9466 25.4232 20.1823 24.7694L17.844 20.3499ZM16.158 23.2841C17.0505 23.2841 17.9303 23.0641 18.7275 22.5797L16.1312 18.3066C16.1381 18.3025 16.1469 18.2978 16.1571 18.2934C16.1674 18.289 16.1765 18.286 16.1835 18.2842C16.1903 18.2823 16.1928 18.2822 16.1897 18.2826C16.1865 18.283 16.1763 18.2841 16.158 18.2841V23.2841ZM18.7275 22.5797C19.4807 22.1221 20.0804 21.4903 20.5017 20.7226L16.1183 18.3171C16.1147 18.3239 16.113 18.326 16.1139 18.3247C16.1148 18.3235 16.1172 18.3204 16.121 18.3164C16.1248 18.3124 16.1285 18.3091 16.1314 18.3068C16.1341 18.3046 16.1345 18.3046 16.1312 18.3066L18.7275 22.5797ZM20.5017 20.7226C20.935 19.933 21.1296 19.0775 21.1296 18.2131H16.1296C16.1296 18.2697 16.1235 18.299 16.1213 18.3081C16.1201 18.3131 16.1192 18.3153 16.1191 18.3156C16.119 18.3159 16.1189 18.3162 16.1183 18.3171L20.5017 20.7226ZM21.1296 18.2131C21.1296 17.3491 20.9351 16.4907 20.4954 15.6992L16.1246 18.1275C16.1215 18.1219 16.1209 18.1182 16.122 18.1229C16.1235 18.1288 16.1296 18.1563 16.1296 18.2131H21.1296ZM20.5068 15.72C20.0913 14.955 19.4979 14.3259 18.7538 13.868L16.1333 18.1263C16.1364 18.1282 16.1358 18.1281 16.1326 18.1255C16.1294 18.1229 16.1252 18.1192 16.1208 18.1145C16.1163 18.1098 16.1132 18.1058 16.1114 18.1033C16.1097 18.1009 16.1105 18.1016 16.1132 18.1067L20.5068 15.72ZM18.7538 13.868C17.9546 13.3762 17.0715 13.1562 16.1793 13.1562V18.1562C16.2148 18.1562 16.2183 18.1603 16.1996 18.1553C16.1909 18.1529 16.1797 18.1492 16.167 18.1437C16.1544 18.1383 16.1429 18.1322 16.1333 18.1263L18.7538 13.868ZM16.1793 13.1562C15.5051 13.1562 14.8318 13.2839 14.1901 13.5647L16.1942 18.1455C16.1876 18.1484 16.1809 18.1509 16.1745 18.1529C16.1681 18.1549 16.1631 18.1561 16.1599 18.1567C16.1567 18.1574 16.1562 18.1573 16.159 18.157C16.1618 18.1568 16.1684 18.1562 16.1793 18.1562V13.1562ZM14.1768 13.5706C13.5808 13.8355 13.0507 14.2086 12.6003 14.6778L16.2072 18.1404L16.2075 18.1396L14.1768 13.5706ZM12.5822 14.6968C12.1419 15.1652 11.8034 15.7019 11.5643 16.2864L16.1921 18.1795C16.2087 18.139 16.2205 18.1265 16.2253 18.1214L12.5822 14.6968ZM11.5695 16.2739C11.3089 16.9011 11.1864 17.5578 11.1864 18.2202H16.1864C16.1864 18.1978 16.1884 18.1878 16.1885 18.1873C16.1886 18.1867 16.1885 18.1872 16.1881 18.1886C16.1877 18.1899 16.1873 18.1912 16.1869 18.192L11.5695 16.2739ZM11.1864 18.2202C11.1864 19.084 11.3871 19.9299 11.8144 20.7084L16.1977 18.3029C16.1945 18.2971 16.1936 18.2944 16.1925 18.2899C16.1912 18.2847 16.1864 18.2637 16.1864 18.2202H11.1864ZM11.8257 20.7288C12.2434 21.4735 12.8263 22.0941 13.5568 22.553L16.2166 18.3191C16.2106 18.3154 16.2076 18.313 16.2067 18.3122C16.2057 18.3115 16.2054 18.3111 16.2052 18.3109C16.2049 18.3106 16.2034 18.309 16.2007 18.3053C16.1979 18.3015 16.193 18.2943 16.1864 18.2826L11.8257 20.7288ZM13.569 22.5606C14.3688 23.0567 15.2556 23.2841 16.158 23.2841V18.2841C16.1271 18.2841 16.126 18.2805 16.1452 18.2858C16.154 18.2882 16.1647 18.2919 16.1761 18.2969C16.1876 18.3018 16.1972 18.3071 16.2045 18.3116L13.569 22.5606Z" fill="white" mask="url(#path-2-inside-1_1_1869)"/>
</g>
<defs>
<clipPath id="clip0_1_1869">
<rect width="32" height="32" fill="white"/>
</clipPath>
</defs>
</svg>
