<svg width="32" height="32" viewBox="0 0 32 32" fill="none" xmlns="http://www.w3.org/2000/svg">
<g clip-path="url(#clip0_1_1870)">
<rect width="32" height="32" rx="8" fill="black"/>
<mask id="path-2-inside-1_1_1870" fill="white">
<path d="M11.8256 23L17.8555 11.0682V10.9688H10.8313V8.45455H21.0373V11.0043L15.0004 23H11.8256Z"/>
</mask>
<path d="M11.8256 23L9.59437 21.8724L7.76115 25.5H11.8256V23ZM17.8555 11.0682L20.0867 12.1958L20.3555 11.664V11.0682H17.8555ZM17.8555 10.9688H20.3555V8.46875H17.8555V10.9688ZM10.8313 10.9688H8.33132V13.4688H10.8313V10.9688ZM10.8313 8.45455V5.95455H8.33132V8.45455H10.8313ZM21.0373 8.45455H23.5373V5.95455H21.0373V8.45455ZM21.0373 11.0043L23.2704 12.1281L23.5373 11.5979V11.0043H21.0373ZM15.0004 23V25.5H16.5409L17.2335 24.1238L15.0004 23ZM14.0569 24.1276L20.0867 12.1958L15.6242 9.9406L9.59437 21.8724L14.0569 24.1276ZM20.3555 11.0682V10.9688H15.3555V11.0682H20.3555ZM17.8555 8.46875H10.8313V13.4688H17.8555V8.46875ZM13.3313 10.9688V8.45455H8.33132V10.9688H13.3313ZM10.8313 10.9545H21.0373V5.95455H10.8313V10.9545ZM18.5373 8.45455V11.0043H23.5373V8.45455H18.5373ZM18.8041 9.88041L12.7672 21.8762L17.2335 24.1238L23.2704 12.1281L18.8041 9.88041ZM15.0004 20.5H11.8256V25.5H15.0004V20.5Z" fill="white" mask="url(#path-2-inside-1_1_1870)"/>
</g>
<defs>
<clipPath id="clip0_1_1870">
<rect width="32" height="32" fill="white"/>
</clipPath>
</defs>
</svg>
