<svg width="32" height="32" viewBox="0 0 32 32" fill="none" xmlns="http://www.w3.org/2000/svg">
<g clip-path="url(#clip0_1_1871)">
<rect width="32" height="32" rx="8" fill="black"/>
<mask id="path-2-inside-1_1_1871" fill="white">
<path d="M16.0018 23.1989C14.908 23.1989 13.935 23.0213 13.0827 22.6662C12.2352 22.3063 11.57 21.8163 11.087 21.196C10.604 20.5758 10.3626 19.8726 10.3626 19.0866C10.3626 18.4806 10.4999 17.9242 10.7745 17.4176C11.0539 16.9062 11.4326 16.4825 11.9109 16.1463C12.3891 15.8054 12.9241 15.5876 13.516 15.4929V15.3935C12.7395 15.2372 12.1097 14.8608 11.6268 14.2642C11.1438 13.6629 10.9023 12.9645 10.9023 12.169C10.9023 11.4162 11.1225 10.7462 11.5629 10.1591C12.0032 9.56723 12.6069 9.10322 13.3739 8.76705C14.1457 8.42614 15.0217 8.25568 16.0018 8.25568C16.9819 8.25568 17.8555 8.42614 18.6225 8.76705C19.3943 9.10795 20.0004 9.57434 20.4407 10.1662C20.881 10.7533 21.1036 11.4209 21.1083 12.169C21.1036 12.9692 20.8574 13.6676 20.3697 14.2642C19.882 14.8608 19.257 15.2372 18.4947 15.3935V15.4929C19.0771 15.5876 19.605 15.8054 20.0785 16.1463C20.5567 16.4825 20.9355 16.9062 21.2148 17.4176C21.4989 17.9242 21.6433 18.4806 21.6481 19.0866C21.6433 19.8726 21.3995 20.5758 20.9165 21.196C20.4336 21.8163 19.766 22.3063 18.9137 22.6662C18.0662 23.0213 17.0955 23.1989 16.0018 23.1989ZM16.0018 20.9403C16.4895 20.9403 16.9156 20.8527 17.2802 20.6776C17.6448 20.4976 17.9289 20.2514 18.1325 19.9389C18.3408 19.6217 18.445 19.2571 18.445 18.8452C18.445 18.4238 18.3384 18.0521 18.1254 17.7301C17.9123 17.4034 17.6235 17.1477 17.2589 16.9631C16.8943 16.7737 16.4753 16.679 16.0018 16.679C15.533 16.679 15.114 16.7737 14.7447 16.9631C14.3754 17.1477 14.0842 17.4034 13.8711 17.7301C13.6628 18.0521 13.5586 18.4238 13.5586 18.8452C13.5586 19.2571 13.6604 19.6217 13.864 19.9389C14.0676 20.2514 14.354 20.4976 14.7234 20.6776C15.0927 20.8527 15.5188 20.9403 16.0018 20.9403ZM16.0018 14.4418C16.409 14.4418 16.7712 14.3589 17.0884 14.1932C17.4057 14.0275 17.6542 13.7978 17.8342 13.5043C18.0141 13.2107 18.104 12.8722 18.104 12.4886C18.104 12.1098 18.0141 11.7784 17.8342 11.4943C17.6542 11.2055 17.408 10.9806 17.0955 10.8196C16.783 10.6539 16.4184 10.571 16.0018 10.571C15.5898 10.571 15.2253 10.6539 14.908 10.8196C14.5908 10.9806 14.3422 11.2055 14.1623 11.4943C13.9871 11.7784 13.8995 12.1098 13.8995 12.4886C13.8995 12.8722 13.9895 13.2107 14.1694 13.5043C14.3493 13.7978 14.5979 14.0275 14.9151 14.1932C15.2324 14.3589 15.5946 14.4418 16.0018 14.4418Z"/>
</mask>
<path d="M13.0827 22.6662L12.1057 24.9674L12.1134 24.9707L12.1212 24.9739L13.0827 22.6662ZM11.087 21.196L13.0596 19.6601L11.087 21.196ZM10.7745 17.4176L8.58053 16.2191L8.57663 16.2262L10.7745 17.4176ZM11.9109 16.1463L13.3486 18.1915L13.3553 18.1868L13.3621 18.182L11.9109 16.1463ZM13.516 15.4929L13.911 17.9615L16.016 17.6247V15.4929H13.516ZM13.516 15.3935H16.016V13.3464L14.0091 12.9426L13.516 15.3935ZM11.6268 14.2642L9.67759 15.8297L9.68366 15.8372L11.6268 14.2642ZM11.5629 10.1591L13.5629 11.6591L13.5686 11.6514L11.5629 10.1591ZM13.3739 8.76705L14.3775 11.0568L14.3841 11.0539L13.3739 8.76705ZM18.6225 8.76705L17.6072 11.0516L17.6124 11.0539L18.6225 8.76705ZM20.4407 10.1662L18.4349 11.6585L18.4407 11.6662L20.4407 10.1662ZM21.1083 12.169L23.6083 12.1838L23.6084 12.1685L23.6083 12.1532L21.1083 12.169ZM18.4947 15.3935L17.9927 12.9444L15.9947 13.3539V15.3935H18.4947ZM18.4947 15.4929H15.9947V17.6192L18.0934 17.9605L18.4947 15.4929ZM20.0785 16.1463L18.6177 18.1751L18.6292 18.1834L18.6408 18.1915L20.0785 16.1463ZM21.2148 17.4176L19.0209 18.6162L19.0275 18.6283L19.0343 18.6404L21.2148 17.4176ZM21.6481 19.0866L24.148 19.1017L24.1481 19.0844L24.148 19.0671L21.6481 19.0866ZM20.9165 21.196L22.8891 22.7319L20.9165 21.196ZM18.9137 22.6662L19.8798 24.972L19.8861 24.9693L18.9137 22.6662ZM17.2802 20.6776L18.363 22.9309L18.3748 22.9252L18.3866 22.9194L17.2802 20.6776ZM18.1325 19.9389L16.0428 18.5666L16.0378 18.5742L18.1325 19.9389ZM18.1254 17.7301L16.0313 19.0958L16.0359 19.1028L16.0405 19.1098L18.1254 17.7301ZM17.2589 16.9631L16.1064 19.1816L16.1178 19.1875L16.1293 19.1933L17.2589 16.9631ZM14.7447 16.9631L15.8627 19.1991L15.8741 19.1934L15.8855 19.1876L14.7447 16.9631ZM13.8711 17.7301L11.7771 16.3644L11.7722 16.372L13.8711 17.7301ZM13.864 19.9389L11.76 21.2892L11.7647 21.2964L11.7693 21.3036L13.864 19.9389ZM14.7234 20.6776L13.6284 22.925L13.6401 22.9307L13.6519 22.9363L14.7234 20.6776ZM17.0884 14.1932L15.9309 11.9773L15.9309 11.9773L17.0884 14.1932ZM17.8342 13.5043L19.9657 14.8107L19.9657 14.8107L17.8342 13.5043ZM17.8342 11.4943L15.7122 12.8162L15.7171 12.8241L15.7221 12.8319L17.8342 11.4943ZM17.0955 10.8196L15.9243 13.0283L15.9374 13.0352L15.9506 13.042L17.0955 10.8196ZM14.908 10.8196L16.0393 13.049L16.0525 13.0423L16.0656 13.0355L14.908 10.8196ZM14.1623 11.4943L12.0403 10.1724L12.0344 10.1821L14.1623 11.4943ZM14.1694 13.5043L12.0379 14.8107L12.0379 14.8107L14.1694 13.5043ZM14.9151 14.1932L16.0727 11.9773L16.0727 11.9773L14.9151 14.1932ZM16.0018 20.6989C15.1782 20.6989 14.5411 20.5655 14.0443 20.3585L12.1212 24.9739C13.3289 25.4771 14.6378 25.6989 16.0018 25.6989V20.6989ZM14.0598 20.365C13.5364 20.1428 13.2396 19.8913 13.0596 19.6601L9.11443 22.7319C9.90031 23.7412 10.934 24.4699 12.1057 24.9674L14.0598 20.365ZM13.0596 19.6601C12.9184 19.4788 12.8626 19.3161 12.8626 19.0866H7.86257C7.86257 20.4291 8.28972 21.6727 9.11443 22.7319L13.0596 19.6601ZM12.8626 19.0866C12.8626 18.8744 12.9064 18.7307 12.9724 18.609L8.57663 16.2262C8.09339 17.1177 7.86257 18.0868 7.86257 19.0866H12.8626ZM12.9685 18.6162C13.0634 18.4424 13.183 18.3079 13.3486 18.1915L10.4731 14.1011C9.68229 14.657 9.04432 15.3701 8.58054 16.2191L12.9685 18.6162ZM13.3621 18.182C13.5197 18.0696 13.6917 17.9966 13.911 17.9615L13.121 13.0243C12.1565 13.1786 11.2585 13.5412 10.4597 14.1106L13.3621 18.182ZM16.016 15.4929V15.3935H11.016V15.4929H16.016ZM14.0091 12.9426C13.7836 12.8972 13.674 12.8198 13.5699 12.6912L9.68366 15.8372C10.5455 16.9018 11.6953 17.5772 13.0228 17.8443L14.0091 12.9426ZM13.5759 12.6987C13.4614 12.5561 13.4023 12.4145 13.4023 12.169H8.40234C8.40234 13.5145 8.82621 14.7696 9.6776 15.8297L13.5759 12.6987ZM13.4023 12.169C13.4023 11.9421 13.456 11.8016 13.5629 11.6591L9.56285 8.65909C8.78906 9.69081 8.40234 10.8903 8.40234 12.169H13.4023ZM13.5686 11.6514C13.7163 11.4528 13.9534 11.2427 14.3775 11.0568L12.3704 6.4773C11.2604 6.96379 10.2901 7.68164 9.55709 8.6668L13.5686 11.6514ZM14.3841 11.0539C14.7903 10.8744 15.3138 10.7557 16.0018 10.7557V5.75568C14.7296 5.75568 13.5011 5.97783 12.3638 6.48021L14.3841 11.0539ZM16.0018 10.7557C16.6902 10.7557 17.2089 10.8746 17.6072 11.0516L19.6379 6.48252C18.502 5.97771 17.2736 5.75568 16.0018 5.75568V10.7557ZM17.6124 11.0539C18.0468 11.2458 18.2874 11.4602 18.4349 11.6585L22.4465 8.67391C21.7133 7.68847 20.7418 6.97014 19.6327 6.48021L17.6124 11.0539ZM18.4407 11.6662C18.5531 11.8161 18.6069 11.9611 18.6084 12.1849L23.6083 12.1532C23.6002 10.8808 23.209 9.69057 22.4407 8.66619L18.4407 11.6662ZM18.6084 12.1542C18.6069 12.4066 18.5452 12.546 18.4341 12.6819L22.3053 15.8465C23.1695 14.7892 23.6003 13.5319 23.6083 12.1838L18.6084 12.1542ZM18.4341 12.6819C18.3143 12.8286 18.1977 12.9024 17.9927 12.9444L18.9967 17.8425C20.3162 17.5721 21.4497 16.893 22.3053 15.8465L18.4341 12.6819ZM15.9947 15.3935V15.4929H20.9947V15.3935H15.9947ZM18.0934 17.9605C18.2979 17.9937 18.4623 18.0632 18.6177 18.1751L21.5392 14.1175C20.7477 13.5475 19.8562 13.1815 18.8959 13.0253L18.0934 17.9605ZM18.6408 18.1915C18.8063 18.3079 18.926 18.4424 19.0209 18.6162L23.4088 16.2191C22.945 15.3701 22.3071 14.657 21.5162 14.1011L18.6408 18.1915ZM19.0343 18.6404C19.1031 18.763 19.1466 18.9027 19.1482 19.1062L24.148 19.0671C24.1401 18.0585 23.8948 17.0855 23.3954 16.1949L19.0343 18.6404ZM19.1481 19.0716C19.1467 19.3063 19.0883 19.4747 18.944 19.6601L22.8891 22.7319C23.7107 21.6768 24.14 20.439 24.148 19.1017L19.1481 19.0716ZM18.944 19.6601C18.7664 19.8883 18.47 20.1398 17.9413 20.3631L19.8861 24.9693C21.062 24.4729 22.1008 23.7443 22.8891 22.7319L18.944 19.6601ZM17.9476 20.3604C17.4584 20.5654 16.8257 20.6989 16.0018 20.6989V25.6989C17.3653 25.6989 18.6739 25.4772 19.8798 24.972L17.9476 20.3604ZM16.0018 23.4403C16.7883 23.4403 17.5981 23.2984 18.363 22.9309L16.1974 18.4242C16.2331 18.4071 16.1906 18.4403 16.0018 18.4403V23.4403ZM18.3866 22.9194C19.1159 22.5595 19.7569 22.0253 20.2271 21.3036L16.0378 18.5742C16.0643 18.5336 16.0967 18.4971 16.1294 18.4687C16.1611 18.4413 16.1803 18.4325 16.1738 18.4357L18.3866 22.9194ZM20.2221 21.3112C20.7211 20.5515 20.945 19.7013 20.945 18.8452H15.945C15.945 18.8388 15.946 18.8002 15.963 18.7408C15.9805 18.6797 16.0083 18.6191 16.0428 18.5666L20.2221 21.3112ZM20.945 18.8452C20.945 17.9799 20.7188 17.119 20.2102 16.3504L16.0405 19.1098C16.0061 19.0578 15.9787 18.9981 15.9618 18.9392C15.9539 18.9114 15.9495 18.8883 15.9472 18.8713C15.9461 18.8629 15.9455 18.8564 15.9452 18.8519C15.9451 18.8497 15.945 18.848 15.945 18.8469C15.945 18.8457 15.945 18.8452 15.945 18.8452H20.945ZM20.2194 16.3644C19.7547 15.652 19.1254 15.1061 18.3885 14.7328L16.1293 19.1933C16.1325 19.1949 16.1164 19.187 16.0918 19.1652C16.0667 19.143 16.0457 19.1179 16.0313 19.0958L20.2194 16.3644ZM18.4114 14.7446C17.64 14.3438 16.815 14.179 16.0018 14.179V19.179C16.0717 19.179 16.1087 19.1859 16.1201 19.1885C16.1301 19.1908 16.1228 19.1901 16.1064 19.1816L18.4114 14.7446ZM16.0018 14.179C15.1881 14.179 14.3696 14.3458 13.6039 14.7385L15.8855 19.1876C15.8769 19.192 15.8751 19.1912 15.887 19.1885C15.9001 19.1855 15.9361 19.179 16.0018 19.179V14.179ZM13.6266 14.727C12.8847 15.098 12.2468 15.6441 11.7771 16.3644L15.9651 19.0958C15.9483 19.1216 15.9251 19.1488 15.8988 19.1719C15.8731 19.1945 15.8573 19.2018 15.8627 19.1991L13.6266 14.727ZM11.7722 16.372C11.2764 17.1382 11.0586 17.9913 11.0586 18.8452H16.0586C16.0586 18.8418 16.0588 18.8721 16.044 18.925C16.0287 18.9796 16.0033 19.0368 15.97 19.0882L11.7722 16.372ZM11.0586 18.8452C11.0586 19.6897 11.274 20.5319 11.76 21.2892L15.968 18.5886C16.0012 18.6405 16.027 18.6987 16.0428 18.7552C16.0503 18.7819 16.0543 18.804 16.0565 18.8203C16.0575 18.8283 16.0581 18.8345 16.0583 18.8387C16.0585 18.8408 16.0585 18.8425 16.0586 18.8435C16.0586 18.8446 16.0586 18.8452 16.0586 18.8452H11.0586ZM11.7693 21.3036C12.2447 22.0333 12.8946 22.5675 13.6284 22.925L15.8183 18.4301C15.8095 18.4258 15.8284 18.4339 15.8611 18.462C15.8949 18.4911 15.9297 18.5297 15.9586 18.5742L11.7693 21.3036ZM13.6519 22.9363C14.4115 23.2966 15.2149 23.4403 16.0018 23.4403V18.4403C15.8228 18.4403 15.7739 18.4089 15.7948 18.4188L13.6519 22.9363ZM16.0018 16.9418C16.7561 16.9418 17.5249 16.7857 18.246 16.4091L15.9309 11.9773C15.9691 11.9573 16.0018 11.947 16.0213 11.9426C16.0396 11.9384 16.0355 11.9418 16.0018 11.9418V16.9418ZM18.246 16.4091C18.9476 16.0425 19.5398 15.5056 19.9657 14.8107L15.7027 12.1979C15.7306 12.1523 15.769 12.104 15.8164 12.0603C15.8632 12.017 15.9052 11.9907 15.9309 11.9773L18.246 16.4091ZM19.9657 14.8107C20.4133 14.0803 20.604 13.2792 20.604 12.4886H15.604C15.604 12.484 15.6048 12.4471 15.6204 12.3881C15.6366 12.3274 15.6639 12.2612 15.7027 12.1979L19.9657 14.8107ZM20.604 12.4886C20.604 11.6978 20.4106 10.89 19.9462 10.1567L15.7221 12.8319C15.6754 12.7582 15.643 12.6813 15.6239 12.6108C15.6053 12.5424 15.604 12.498 15.604 12.4886H20.604ZM19.9561 10.1724C19.5296 9.48775 18.94 8.95755 18.2404 8.59716L15.9506 13.042C15.9213 13.0269 15.8769 12.9991 15.8285 12.9549C15.7796 12.9102 15.7405 12.8615 15.7122 12.8162L19.9561 10.1724ZM18.2668 8.61095C17.5344 8.22255 16.7542 8.07102 16.0018 8.07102V13.071C16.0446 13.071 16.0525 13.0753 16.0337 13.071C16.0132 13.0664 15.9735 13.0544 15.9243 13.0283L18.2668 8.61095ZM16.0018 8.07102C15.2479 8.07102 14.4756 8.22495 13.7505 8.60373L16.0656 13.0355C16.0251 13.0566 15.9917 13.0669 15.9734 13.071C15.9566 13.0748 15.9636 13.071 16.0018 13.071V8.07102ZM13.7767 8.59023C13.072 8.94785 12.4727 9.4784 12.0403 10.1724L16.2842 12.8162C16.2533 12.8659 16.2115 12.9171 16.1609 12.9629C16.111 13.0081 16.0665 13.0352 16.0393 13.049L13.7767 8.59023ZM12.0344 10.1821C11.5844 10.9118 11.3995 11.7104 11.3995 12.4886H16.3995C16.3995 12.4925 16.3989 12.5315 16.3822 12.5947C16.365 12.66 16.335 12.7339 16.2902 12.8065L12.0344 10.1821ZM11.3995 12.4886C11.3995 13.2792 11.5902 14.0803 12.0379 14.8107L16.3009 12.1979C16.3397 12.2612 16.367 12.3274 16.3831 12.3881C16.3988 12.4471 16.3995 12.484 16.3995 12.4886H11.3995ZM12.0379 14.8107C12.4638 15.5056 13.056 16.0425 13.7576 16.4091L16.0727 11.9773C16.0984 11.9907 16.1403 12.017 16.1872 12.0603C16.2345 12.104 16.273 12.1523 16.3009 12.1979L12.0379 14.8107ZM13.7576 16.4091C14.4787 16.7857 15.2475 16.9418 16.0018 16.9418V11.9418C15.9681 11.9418 15.9639 11.9384 15.9822 11.9426C16.0018 11.947 16.0344 11.9573 16.0727 11.9773L13.7576 16.4091Z" fill="white" mask="url(#path-2-inside-1_1_1871)"/>
</g>
<defs>
<clipPath id="clip0_1_1871">
<rect width="32" height="32" fill="white"/>
</clipPath>
</defs>
</svg>
