<svg width="32" height="32" viewBox="0 0 32 32" fill="none" xmlns="http://www.w3.org/2000/svg">
<g clip-path="url(#clip0_1_1872)">
<rect width="32" height="32" rx="8" fill="black"/>
<mask id="path-2-inside-1_1_1872" fill="white">
<path d="M15.8171 8.25568C16.5652 8.25568 17.2849 8.38115 17.9762 8.6321C18.6722 8.88305 19.2925 9.28314 19.837 9.83239C20.3862 10.3816 20.8195 11.1108 21.1367 12.0199C21.4587 12.9242 21.622 14.0346 21.6268 15.3509C21.6268 16.5866 21.4871 17.6899 21.2077 18.6605C20.9331 19.6264 20.5378 20.4479 20.0217 21.125C19.5056 21.8021 18.8829 22.3182 18.1538 22.6733C17.4246 23.0237 16.6102 23.1989 15.7106 23.1989C14.7399 23.1989 13.8829 23.0118 13.1396 22.6378C12.3962 22.259 11.7972 21.7453 11.3427 21.0966C10.8929 20.4432 10.6206 19.7093 10.5259 18.8949H13.5586C13.677 19.4252 13.9255 19.8371 14.3043 20.1307C14.6831 20.4195 15.1519 20.5639 15.7106 20.5639C16.6576 20.5639 17.3772 20.152 17.8697 19.3281C18.3621 18.4995 18.6107 17.3655 18.6154 15.9261H18.516C18.2982 16.3523 18.0046 16.7192 17.6353 17.027C17.266 17.33 16.8422 17.5644 16.364 17.7301C15.8905 17.8958 15.3862 17.9787 14.8512 17.9787C13.9942 17.9787 13.2295 17.7775 12.5572 17.375C11.8848 16.9725 11.3545 16.4186 10.9663 15.7131C10.578 15.0076 10.3839 14.2027 10.3839 13.2983C10.3791 12.3229 10.604 11.4541 11.0586 10.6918C11.5131 9.92945 12.1476 9.33286 12.962 8.90199C13.7811 8.46638 14.7328 8.25095 15.8171 8.25568ZM15.8384 10.6705C15.3602 10.6705 14.9341 10.7841 14.56 11.0114C14.1907 11.2386 13.8971 11.544 13.6793 11.9276C13.4663 12.3111 13.3621 12.7396 13.3668 13.2131C13.3668 13.6913 13.471 14.1222 13.6793 14.5057C13.8924 14.8845 14.1812 15.1875 14.5458 15.4148C14.9151 15.6373 15.3365 15.7486 15.81 15.7486C16.1651 15.7486 16.4942 15.6823 16.7972 15.5497C17.1003 15.4171 17.363 15.2348 17.5856 15.0028C17.8129 14.7661 17.9904 14.4938 18.1183 14.1861C18.2461 13.8783 18.31 13.5516 18.31 13.206C18.3053 12.7467 18.1964 12.3253 17.9833 11.9418C17.7702 11.5582 17.4767 11.2505 17.1026 11.0185C16.7286 10.7865 16.3072 10.6705 15.8384 10.6705Z"/>
</mask>
<path d="M15.8171 8.25568L15.8062 10.7557H15.8171V8.25568ZM17.9762 8.6321L17.1231 10.9821L17.1283 10.9839L17.9762 8.6321ZM19.837 9.83239L18.0616 11.5925L18.0692 11.6002L19.837 9.83239ZM21.1367 12.0199L18.7763 12.8436L18.7789 12.851L18.7815 12.8584L21.1367 12.0199ZM21.6268 15.3509H24.1268L24.1268 15.3419L21.6268 15.3509ZM21.2077 18.6605L18.8053 17.9691L18.803 17.9768L21.2077 18.6605ZM20.0217 21.125L18.0334 19.6095L20.0217 21.125ZM18.1538 22.6733L19.2366 24.9267L19.2484 24.9209L18.1538 22.6733ZM13.1396 22.6378L12.0045 24.8653L12.0158 24.871L13.1396 22.6378ZM11.3427 21.0966L9.28345 22.5142L9.28934 22.5227L9.29531 22.5312L11.3427 21.0966ZM10.5259 18.8949V16.3949H7.71838L8.04265 19.1836L10.5259 18.8949ZM13.5586 18.8949L15.9985 18.3503L15.5621 16.3949H13.5586V18.8949ZM14.3043 20.1307L12.7729 22.1067L12.7807 22.1127L12.7885 22.1187L14.3043 20.1307ZM17.8697 19.3281L20.0156 20.6107L20.0188 20.6053L17.8697 19.3281ZM18.6154 15.9261L21.1154 15.9344L21.1236 13.4261H18.6154V15.9261ZM18.516 15.9261V13.4261H16.9861L16.2899 14.7884L18.516 15.9261ZM17.6353 17.027L19.2211 18.9597L19.2284 18.9536L19.2358 18.9475L17.6353 17.027ZM16.364 17.7301L15.5454 15.3679L15.5381 15.3705L16.364 17.7301ZM10.9663 15.7131L8.77603 16.9184L10.9663 15.7131ZM10.3839 13.2983H12.8839L12.8838 13.2862L10.3839 13.2983ZM12.962 8.90199L14.1311 11.1118L14.1358 11.1093L12.962 8.90199ZM14.56 11.0114L13.2619 8.87483L13.2558 8.8785L13.2498 8.88222L14.56 11.0114ZM13.6793 11.9276L11.5054 10.693L11.4996 10.7032L11.4939 10.7134L13.6793 11.9276ZM13.3668 13.2131H15.8668V13.2006L15.8667 13.1881L13.3668 13.2131ZM13.6793 14.5057L11.4825 15.699L11.4913 15.7152L11.5004 15.7313L13.6793 14.5057ZM14.5458 15.4148L13.2233 17.5363L13.2393 17.5463L13.2555 17.5561L14.5458 15.4148ZM16.7972 15.5497L17.7993 17.8401H17.7993L16.7972 15.5497ZM17.5856 15.0028L15.7821 13.2715L15.7814 13.2723L17.5856 15.0028ZM18.1183 14.1861L20.427 15.1451V15.1451L18.1183 14.1861ZM18.31 13.206H20.81V13.1931L20.8099 13.1802L18.31 13.206ZM17.1026 11.0185L18.4204 8.89395L18.4204 8.89395L17.1026 11.0185ZM15.8171 10.7557C16.2794 10.7557 16.7101 10.8321 17.1231 10.9821L18.8293 6.28215C17.8598 5.9302 16.851 5.75568 15.8171 5.75568V10.7557ZM17.1283 10.9839C17.4592 11.1032 17.7663 11.2946 18.0616 11.5925L21.6124 8.07229C20.8187 7.27165 19.8853 6.66289 18.8241 6.28029L17.1283 10.9839ZM18.0692 11.6002C18.2964 11.8273 18.554 12.2066 18.7763 12.8436L23.4971 11.1962C23.0849 10.015 22.4761 8.93592 21.6048 8.06462L18.0692 11.6002ZM18.7815 12.8584C18.9807 13.4179 19.1227 14.2288 19.1268 15.3598L24.1268 15.3419C24.1214 13.8404 23.9366 12.4306 23.4919 11.1814L18.7815 12.8584ZM19.1268 15.3509C19.1268 16.4029 19.0074 17.2668 18.8053 17.9691L23.6102 19.352C23.9668 18.113 24.1268 16.7704 24.1268 15.3509H19.1268ZM18.803 17.9768C18.5989 18.6948 18.3291 19.2215 18.0334 19.6095L22.0099 22.6405C22.7464 21.6743 23.2673 20.558 23.6124 19.3442L18.803 17.9768ZM18.0334 19.6095C17.7418 19.992 17.4198 20.25 17.0591 20.4257L19.2484 24.9209C20.346 24.3864 21.2693 23.6122 22.0099 22.6405L18.0334 19.6095ZM17.071 20.4199C16.7159 20.5906 16.2778 20.6989 15.7106 20.6989V25.6989C16.9427 25.6989 18.1333 25.4568 19.2365 24.9266L17.071 20.4199ZM15.7106 20.6989C15.0653 20.6989 14.6044 20.5762 14.2633 20.4046L12.0158 24.871C13.1615 25.4475 14.4145 25.6989 15.7106 25.6989V20.6989ZM14.2746 20.4103C13.8755 20.207 13.5973 19.9577 13.3901 19.6619L9.29531 22.5312C9.99713 23.5328 10.9168 24.311 12.0045 24.8653L14.2746 20.4103ZM13.4019 19.679C13.1914 19.3731 13.0584 19.0294 13.0092 18.6061L8.04265 19.1836C8.18283 20.3892 8.59439 21.5132 9.28345 22.5142L13.4019 19.679ZM10.5259 21.3949H13.5586V16.3949H10.5259V21.3949ZM11.1186 19.4395C11.3459 20.4576 11.8725 21.4089 12.7729 22.1067L15.8358 18.1546C15.8908 18.1973 15.9401 18.2532 15.9743 18.3099C16.0063 18.3629 16.0064 18.3855 15.9985 18.3503L11.1186 19.4395ZM12.7885 22.1187C13.675 22.7947 14.7024 23.0639 15.7106 23.0639V18.0639C15.6467 18.0639 15.6415 18.0558 15.676 18.0664C15.693 18.0717 15.7163 18.0804 15.7432 18.0942C15.7702 18.108 15.7964 18.1245 15.8202 18.1427L12.7885 22.1187ZM15.7106 23.0639C17.5518 23.0639 19.0794 22.1771 20.0156 20.6107L15.7238 18.0455C15.6912 18.0999 15.6719 18.1192 15.673 18.1182C15.6734 18.1178 15.6777 18.1135 15.6862 18.1069C15.6947 18.1002 15.7057 18.0927 15.7187 18.0852C15.7317 18.0778 15.7444 18.0718 15.7558 18.0672C15.7672 18.0627 15.7751 18.0605 15.7783 18.0597C15.7853 18.058 15.7657 18.0639 15.7106 18.0639V23.0639ZM20.0188 20.6053C20.8252 19.2483 21.1099 17.6157 21.1154 15.9344L16.1154 15.9179C16.1115 17.1153 15.8989 17.7507 15.7205 18.0509L20.0188 20.6053ZM18.6154 13.4261H18.516V18.4261H18.6154V13.4261ZM16.2899 14.7884C16.2264 14.9126 16.1461 15.0137 16.0348 15.1064L19.2358 18.9475C19.8631 18.4248 20.37 17.7919 20.7421 17.0639L16.2899 14.7884ZM16.0495 15.0943C15.9218 15.1991 15.7613 15.2931 15.5454 15.3679L17.1826 20.0923C17.9232 19.8357 18.6101 19.461 19.2211 18.9597L16.0495 15.0943ZM15.5381 15.3705C15.3473 15.4373 15.1238 15.4787 14.8512 15.4787V20.4787C15.6487 20.4787 16.4338 20.3544 17.1899 20.0898L15.5381 15.3705ZM14.8512 15.4787C14.4027 15.4787 14.0896 15.3787 13.8412 15.2299L11.2732 19.5201C12.3694 20.1763 13.5857 20.4787 14.8512 20.4787V15.4787ZM13.8412 15.2299C13.5597 15.0614 13.3374 14.8365 13.1565 14.5077L8.77603 16.9184C9.37162 18.0007 10.21 18.8837 11.2732 19.5201L13.8412 15.2299ZM13.1565 14.5077C12.9954 14.2151 12.8839 13.8339 12.8839 13.2983H7.88388C7.88388 14.5714 8.16057 15.8001 8.77603 16.9184L13.1565 14.5077ZM12.8838 13.2862C12.8811 12.7192 13.007 12.3057 13.2058 11.9721L8.91134 9.41141C8.20113 10.6025 7.87719 11.9266 7.88391 13.3104L12.8838 13.2862ZM13.2058 11.9721C13.4165 11.6188 13.7056 11.3369 14.1311 11.1118L11.7929 6.69221C10.5896 7.32882 9.60978 8.24007 8.91134 9.41141L13.2058 11.9721ZM14.1358 11.1093C14.5332 10.898 15.065 10.7524 15.8062 10.7557L15.828 5.75571C14.4006 5.74947 13.0291 6.03479 11.7882 6.6947L14.1358 11.1093ZM15.8384 8.17045C14.9462 8.17045 14.063 8.38804 13.2619 8.87483L15.8582 13.1479C15.8503 13.1527 15.8407 13.1577 15.8302 13.1622C15.8197 13.1667 15.8107 13.1696 15.8043 13.1713C15.7981 13.1729 15.7966 13.1728 15.8012 13.1723C15.8059 13.1717 15.818 13.1705 15.8384 13.1705V8.17045ZM13.2498 8.88222C12.5155 9.33409 11.9275 9.94983 11.5054 10.693L15.8532 13.1621C15.8589 13.1522 15.8627 13.1468 15.8643 13.1446C15.8659 13.1425 15.8662 13.1424 15.8652 13.1434C15.8648 13.1438 15.8644 13.1442 15.8639 13.1446C15.8635 13.145 15.8632 13.1453 15.8632 13.1452C15.8632 13.1452 15.8637 13.1448 15.8647 13.1441C15.8658 13.1434 15.8676 13.1422 15.8703 13.1405L13.2498 8.88222ZM11.4939 10.7134C11.0539 11.5056 10.8582 12.3667 10.867 13.2381L15.8667 13.1881C15.8665 13.1652 15.8676 13.1496 15.8686 13.1403C15.8692 13.1356 15.8697 13.1323 15.87 13.1302C15.8704 13.1282 15.8706 13.1272 15.8707 13.1271C15.8707 13.127 15.8705 13.1277 15.8701 13.1289C15.8698 13.1301 15.8692 13.1316 15.8686 13.1334C15.8671 13.1371 15.8656 13.1401 15.8647 13.1417L11.4939 10.7134ZM10.8668 13.2131C10.8668 14.0673 11.0566 14.9149 11.4825 15.699L15.8761 13.3124C15.8761 13.3123 15.8762 13.3125 15.8764 13.3129C15.8765 13.3132 15.8766 13.3135 15.8767 13.3135C15.8768 13.3139 15.8761 13.3122 15.875 13.3074C15.8729 13.2988 15.8668 13.2697 15.8668 13.2131H10.8668ZM11.5004 15.7313C11.9167 16.4715 12.4983 17.0844 13.2233 17.5363L15.8683 13.2932C15.8633 13.2901 15.8615 13.2886 15.862 13.289C15.8625 13.2894 15.8639 13.2906 15.8654 13.2922C15.867 13.2938 15.8674 13.2945 15.8667 13.2935C15.8659 13.2925 15.8629 13.2883 15.8583 13.28L11.5004 15.7313ZM13.2555 17.5561C14.0519 18.036 14.9278 18.2486 15.81 18.2486V13.2486C15.7896 13.2486 15.7777 13.2474 15.7731 13.2468C15.7687 13.2463 15.7704 13.2462 15.7771 13.248C15.7839 13.2498 15.7935 13.2528 15.8049 13.2576C15.8163 13.2624 15.8269 13.2679 15.8361 13.2735L13.2555 17.5561ZM15.81 18.2486C16.4843 18.2486 17.1575 18.1209 17.7993 17.8401L15.7952 13.2593C15.8017 13.2565 15.8084 13.254 15.8148 13.252C15.8212 13.2499 15.8262 13.2487 15.8295 13.2481C15.8327 13.2474 15.8331 13.2475 15.8304 13.2478C15.8276 13.2481 15.8209 13.2486 15.81 13.2486V18.2486ZM17.7993 17.8401C18.395 17.5795 18.9327 17.2099 19.3898 16.7334L15.7814 13.2723C15.7828 13.2708 15.785 13.2686 15.788 13.2661C15.7909 13.2636 15.7939 13.2613 15.7966 13.2594C15.7993 13.2575 15.801 13.2566 15.8013 13.2564C15.8015 13.2563 15.7997 13.2574 15.7952 13.2593L17.7993 17.8401ZM19.3891 16.7342C19.8346 16.2701 20.182 15.7349 20.427 15.1451L15.8095 13.2271C15.7988 13.2528 15.7911 13.2621 15.7821 13.2715L19.3891 16.7342ZM20.427 15.1451C20.6858 14.5221 20.81 13.8683 20.81 13.206H15.81C15.81 13.2152 15.8096 13.2215 15.8093 13.225C15.8089 13.2286 15.8086 13.2302 15.8086 13.2302C15.8086 13.2302 15.8087 13.2295 15.8091 13.2284C15.8094 13.2273 15.8096 13.2268 15.8095 13.2271L20.427 15.1451ZM20.8099 13.1802C20.8011 12.325 20.5935 11.4922 20.1687 10.7277L15.7979 13.1559C15.8023 13.1637 15.8034 13.1673 15.8043 13.171C15.8054 13.1752 15.8098 13.1933 15.8101 13.2317L20.8099 13.1802ZM20.1687 10.7277C19.748 9.97041 19.1553 9.34977 18.4204 8.89395L15.7849 13.143C15.7923 13.1476 15.7957 13.1503 15.7963 13.1507C15.7968 13.1512 15.7959 13.1505 15.7943 13.1488C15.7927 13.1472 15.7919 13.146 15.792 13.1461C15.7921 13.1463 15.7942 13.1492 15.7979 13.1559L20.1687 10.7277ZM18.4204 8.89395C17.6246 8.40039 16.7413 8.17045 15.8384 8.17045V13.1705C15.8648 13.1705 15.863 13.1734 15.8425 13.1678C15.8331 13.1652 15.8223 13.1615 15.8112 13.1566C15.8 13.1517 15.7911 13.1468 15.7849 13.143L18.4204 8.89395Z" fill="white" mask="url(#path-2-inside-1_1_1872)"/>
</g>
<defs>
<clipPath id="clip0_1_1872">
<rect width="32" height="32" fill="white"/>
</clipPath>
</defs>
</svg>
