<svg width="32" height="32" viewBox="0 0 32 32" fill="none" xmlns="http://www.w3.org/2000/svg">
<g clip-path="url(#clip0_1_1841)">
<rect width="32" height="32" rx="8" fill="black"/>
<path fill-rule="evenodd" clip-rule="evenodd" d="M17 19H14.7815L14.75 19.8615C14.7338 20.311 14.7027 20.7552 14.6568 21.194C14.656 21.2015 14.6552 21.2089 14.6544 21.2164C14.6296 21.4509 14.6005 21.6839 14.5672 21.9154C14.5488 22.0434 14.5302 22.1691 14.5113 22.2923C14.4781 22.5089 14.4442 22.7181 14.4096 22.9197C14.4085 22.9258 14.4075 22.9319 14.4064 22.938C14.3584 23.2166 14.3091 23.4809 14.2584 23.7308C14.2216 23.914 14.1874 24.0836 14.1558 24.2395C14.0937 24.5459 14.0418 24.7994 14 25H15.7395C15.8044 24.7986 15.8824 24.5483 15.9735 24.2491L15.9748 24.2446C16.0248 24.0803 16.0787 23.9014 16.1366 23.7077C16.2655 23.2867 16.3895 22.8279 16.5086 22.3314C16.5447 22.1808 16.5803 22.0268 16.6155 21.8692C16.628 21.8154 16.6401 21.7616 16.6519 21.7077C16.7778 21.1336 16.8669 20.5576 16.9192 19.9797L16.9194 19.9784C16.9233 19.9343 16.9271 19.8902 16.9307 19.8462L17 19Z" fill="white"/>
<circle cx="16" cy="11" r="2" fill="white"/>
</g>
<defs>
<clipPath id="clip0_1_1841">
<rect width="32" height="32" fill="white"/>
</clipPath>
</defs>
</svg>
