<svg width="32" height="32" viewBox="0 0 32 32" fill="none" xmlns="http://www.w3.org/2000/svg">
<g clip-path="url(#clip0_202_4)">
<rect width="32" height="32" rx="8" fill="black"/>
<mask id="path-2-inside-1_202_4" fill="white">
<path d="M14.7287 21.2116V11.1548H17.2713V21.2116H14.7287ZM10.9716 17.4545V14.9119H21.0284V17.4545H10.9716Z"/>
</mask>
<path d="M14.7287 21.2116H12.2287V23.7116H14.7287V21.2116ZM14.7287 11.1548V8.65483H12.2287V11.1548H14.7287ZM17.2713 11.1548H19.7713V8.65483H17.2713V11.1548ZM17.2713 21.2116V23.7116H19.7713V21.2116H17.2713ZM10.9716 17.4545H8.47159V19.9545H10.9716V17.4545ZM10.9716 14.9119V12.4119H8.47159V14.9119H10.9716ZM21.0284 14.9119H23.5284V12.4119H21.0284V14.9119ZM21.0284 17.4545V19.9545H23.5284V17.4545H21.0284ZM17.2287 21.2116V11.1548H12.2287V21.2116H17.2287ZM14.7287 13.6548H17.2713V8.65483H14.7287V13.6548ZM14.7713 11.1548V21.2116H19.7713V11.1548H14.7713ZM17.2713 18.7116H14.7287V23.7116H17.2713V18.7116ZM13.4716 17.4545V14.9119H8.47159V17.4545H13.4716ZM10.9716 17.4119H21.0284V12.4119H10.9716V17.4119ZM18.5284 14.9119V17.4545H23.5284V14.9119H18.5284ZM21.0284 14.9545H10.9716V19.9545H21.0284V14.9545Z" fill="white" mask="url(#path-2-inside-1_202_4)"/>
</g>
<defs>
<clipPath id="clip0_202_4">
<rect width="32" height="32" fill="white"/>
</clipPath>
</defs>
</svg>
