<svg width="32" height="32" viewBox="0 0 32 32" fill="none" xmlns="http://www.w3.org/2000/svg">
<g clip-path="url(#clip0_1_1850)">
<rect width="32" height="32" rx="8" fill="black"/>
<mask id="path-2-inside-1_1_1850" fill="white">
<path d="M11.0923 15.0824V12.5611H20.9006V15.0824H11.0923ZM11.0923 19.7983V17.277H20.9006V19.7983H11.0923Z"/>
</mask>
<path d="M11.0923 15.0824H8.59233V17.5824H11.0923V15.0824ZM11.0923 12.5611V10.0611H8.59233V12.5611H11.0923ZM20.9006 12.5611H23.4006V10.0611H20.9006V12.5611ZM20.9006 15.0824V17.5824H23.4006V15.0824H20.9006ZM11.0923 19.7983H8.59233V22.2983H11.0923V19.7983ZM11.0923 17.277V14.777H8.59233V17.277H11.0923ZM20.9006 17.277H23.4006V14.777H20.9006V17.277ZM20.9006 19.7983V22.2983H23.4006V19.7983H20.9006ZM13.5923 15.0824V12.5611H8.59233V15.0824H13.5923ZM11.0923 15.0611H20.9006V10.0611H11.0923V15.0611ZM18.4006 12.5611V15.0824H23.4006V12.5611H18.4006ZM20.9006 12.5824H11.0923V17.5824H20.9006V12.5824ZM13.5923 19.7983V17.277H8.59233V19.7983H13.5923ZM11.0923 19.777H20.9006V14.777H11.0923V19.777ZM18.4006 17.277V19.7983H23.4006V17.277H18.4006ZM20.9006 17.2983H11.0923V22.2983H20.9006V17.2983Z" fill="white" mask="url(#path-2-inside-1_1_1850)"/>
</g>
<defs>
<clipPath id="clip0_1_1850">
<rect width="32" height="32" fill="white"/>
</clipPath>
</defs>
</svg>
