<svg width="32" height="32" viewBox="0 0 32 32" fill="none" xmlns="http://www.w3.org/2000/svg">
<g clip-path="url(#clip0_1_1845)">
<rect width="32" height="32" rx="8" fill="black"/>
<mask id="path-2-inside-1_1_1845" fill="white">
<path d="M16.0151 10.6847L13.8489 7.45312H16.6401L18.1529 10.6847H16.0151Z"/>
</mask>
<path d="M16.0151 10.6847L13.9385 12.0767L14.6812 13.1847H16.0151V10.6847ZM13.8489 7.45312V4.95312H9.16336L11.7723 8.84514L13.8489 7.45312ZM16.6401 7.45312L18.9043 6.39319L18.2301 4.95312H16.6401V7.45312ZM18.1529 10.6847V13.1847H22.0836L20.4171 9.62472L18.1529 10.6847ZM18.0917 9.29265L15.9255 6.06111L11.7723 8.84514L13.9385 12.0767L18.0917 9.29265ZM13.8489 9.95312H16.6401V4.95312H13.8489V9.95312ZM14.3759 8.51306L15.8887 11.7446L20.4171 9.62472L18.9043 6.39319L14.3759 8.51306ZM18.1529 8.18466H16.0151V13.1847H18.1529V8.18466Z" fill="white" mask="url(#path-2-inside-1_1_1845)"/>
</g>
<defs>
<clipPath id="clip0_1_1845">
<rect width="32" height="32" fill="white"/>
</clipPath>
</defs>
</svg>
