<svg width="47" height="32" viewBox="0 0 47 32" fill="none" xmlns="http://www.w3.org/2000/svg">
<g clip-path="url(#clip0_1_1831)">
<rect width="47" height="32" rx="8" fill="black"/>
<mask id="path-2-inside-1_1_1831" fill="white">
<path d="M9.86097 23H6.89506L11.4142 9.90909H14.981L19.4938 23H16.5279L13.2488 12.9006H13.1465L9.86097 23ZM9.6756 17.8544H16.6813V20.0149H9.6756V17.8544ZM21.0694 23V9.90909H23.8372V20.718H29.4494V23H21.0694ZM29.149 12.1911V9.90909H39.9004V12.1911H35.8926V23H33.1568V12.1911H29.149Z"/>
</mask>
<path d="M9.86097 23V25.5H11.6766L12.2383 23.7734L9.86097 23ZM6.89506 23L4.53191 22.1842L3.38725 25.5H6.89506V23ZM11.4142 9.90909V7.40909H9.6325L9.05109 9.0933L11.4142 9.90909ZM14.981 9.90909L17.3445 9.09433L16.7636 7.40909H14.981V9.90909ZM19.4938 23V25.5H23L21.8573 22.1852L19.4938 23ZM16.5279 23L14.1501 23.772L14.7111 25.5H16.5279V23ZM13.2488 12.9006L15.6266 12.1285L15.0655 10.4006H13.2488V12.9006ZM13.1465 12.9006V10.4006H11.3308L10.7691 12.1272L13.1465 12.9006ZM9.6756 17.8544V15.3544H7.1756V17.8544H9.6756ZM16.6813 17.8544H19.1813V15.3544H16.6813V17.8544ZM16.6813 20.0149V22.5149H19.1813V20.0149H16.6813ZM9.6756 20.0149H7.1756V22.5149H9.6756V20.0149ZM9.86097 20.5H6.89506V25.5H9.86097V20.5ZM9.25821 23.8158L13.7774 10.7249L9.05109 9.0933L4.53191 22.1842L9.25821 23.8158ZM11.4142 12.4091H14.981V7.40909H11.4142V12.4091ZM12.6175 10.7239L17.1303 23.8148L21.8573 22.1852L17.3445 9.09433L12.6175 10.7239ZM19.4938 20.5H16.5279V25.5H19.4938V20.5ZM18.9057 22.228L15.6266 12.1285L10.871 13.6726L14.1501 23.772L18.9057 22.228ZM13.2488 10.4006H13.1465V15.4006H13.2488V10.4006ZM10.7691 12.1272L7.48361 22.2266L12.2383 23.7734L15.5238 13.674L10.7691 12.1272ZM9.6756 20.3544H16.6813V15.3544H9.6756V20.3544ZM14.1813 17.8544V20.0149H19.1813V17.8544H14.1813ZM16.6813 17.5149H9.6756V22.5149H16.6813V17.5149ZM12.1756 20.0149V17.8544H7.1756V20.0149H12.1756ZM21.0694 23H18.5694V25.5H21.0694V23ZM21.0694 9.90909V7.40909H18.5694V9.90909H21.0694ZM23.8372 9.90909H26.3372V7.40909H23.8372V9.90909ZM23.8372 20.718H21.3372V23.218H23.8372V20.718ZM29.4494 20.718H31.9494V18.218H29.4494V20.718ZM29.4494 23V25.5H31.9494V23H29.4494ZM23.5694 23V9.90909H18.5694V23H23.5694ZM21.0694 12.4091H23.8372V7.40909H21.0694V12.4091ZM21.3372 9.90909V20.718H26.3372V9.90909H21.3372ZM23.8372 23.218H29.4494V18.218H23.8372V23.218ZM26.9494 20.718V23H31.9494V20.718H26.9494ZM29.4494 20.5H21.0694V25.5H29.4494V20.5ZM29.149 12.1911H26.649V14.6911H29.149V12.1911ZM29.149 9.90909V7.40909H26.649V9.90909H29.149ZM39.9004 9.90909H42.4004V7.40909H39.9004V9.90909ZM39.9004 12.1911V14.6911H42.4004V12.1911H39.9004ZM35.8926 12.1911V9.69105H33.3926V12.1911H35.8926ZM35.8926 23V25.5H38.3926V23H35.8926ZM33.1568 23H30.6568V25.5H33.1568V23ZM33.1568 12.1911H35.6568V9.69105H33.1568V12.1911ZM31.649 12.1911V9.90909H26.649V12.1911H31.649ZM29.149 12.4091H39.9004V7.40909H29.149V12.4091ZM37.4004 9.90909V12.1911H42.4004V9.90909H37.4004ZM39.9004 9.69105H35.8926V14.6911H39.9004V9.69105ZM33.3926 12.1911V23H38.3926V12.1911H33.3926ZM35.8926 20.5H33.1568V25.5H35.8926V20.5ZM35.6568 23V12.1911H30.6568V23H35.6568ZM33.1568 9.69105H29.149V14.6911H33.1568V9.69105Z" fill="white" mask="url(#path-2-inside-1_1_1831)"/>
</g>
<defs>
<clipPath id="clip0_1_1831">
<rect width="47" height="32" fill="white"/>
</clipPath>
</defs>
</svg>
