<svg width="32" height="32" viewBox="0 0 32 32" fill="none" xmlns="http://www.w3.org/2000/svg">
<g clip-path="url(#clip0_1_1819)">
<rect width="32" height="32" rx="8" fill="black"/>
<mask id="path-2-inside-1_1_1819" fill="white">
<path d="M10.6529 23V8.45455H16.4767C17.5468 8.45455 18.4393 8.61316 19.1543 8.9304C19.8693 9.24763 20.4067 9.68797 20.7665 10.2514C21.1264 10.8101 21.3063 11.4541 21.3063 12.1832C21.3063 12.7514 21.1926 13.2509 20.9654 13.6818C20.7381 14.108 20.4256 14.4583 20.0279 14.733C19.6349 15.0028 19.1851 15.1946 18.6784 15.3082V15.4503C19.2324 15.474 19.7509 15.6302 20.2338 15.919C20.7215 16.2079 21.1169 16.6127 21.4199 17.1335C21.723 17.6496 21.8745 18.2652 21.8745 18.9801C21.8745 19.7519 21.6827 20.4408 21.2992 21.0469C20.9204 21.6482 20.3593 22.1241 19.6159 22.4744C18.8726 22.8248 17.9564 23 16.8674 23H10.6529ZM13.7282 20.4858H16.2353C17.0923 20.4858 17.7173 20.3224 18.1103 19.9957C18.5033 19.6643 18.6998 19.224 18.6998 18.6747C18.6998 18.2723 18.6027 17.9171 18.4086 17.6094C18.2144 17.3016 17.9374 17.0601 17.5776 16.8849C17.2225 16.7098 16.7987 16.6222 16.3063 16.6222H13.7282V20.4858ZM13.7282 14.5412H16.008C16.4294 14.5412 16.8034 14.4678 17.1301 14.321C17.4616 14.1695 17.722 13.9564 17.9114 13.6818C18.1055 13.4072 18.2026 13.0781 18.2026 12.6946C18.2026 12.169 18.0156 11.7453 17.6415 11.4233C17.2722 11.1013 16.7466 10.9403 16.0648 10.9403H13.7282V14.5412Z"/>
</mask>
<path d="M10.6529 23H8.15288V25.5H10.6529V23ZM10.6529 8.45455V5.95455H8.15288V8.45455H10.6529ZM19.1543 8.9304L18.1404 11.2155H18.1404L19.1543 8.9304ZM20.7665 10.2514L18.6595 11.5971L18.6647 11.6051L20.7665 10.2514ZM20.9654 13.6818L23.1713 14.8583L23.1766 14.8482L20.9654 13.6818ZM20.0279 14.733L21.4431 16.7938L21.4484 16.7902L20.0279 14.733ZM18.6784 15.3082L18.1313 12.8688L16.1784 13.3069V15.3082H18.6784ZM18.6784 15.4503H16.1784V17.8457L18.5717 17.948L18.6784 15.4503ZM20.2338 15.919L18.9507 18.0646L18.9599 18.0701L20.2338 15.919ZM21.4199 17.1335L19.259 18.3908L19.2641 18.3993L21.4199 17.1335ZM21.2992 21.0469L19.1866 19.71L19.1839 19.7144L21.2992 21.0469ZM19.6159 22.4744L18.5501 20.213L18.5501 20.213L19.6159 22.4744ZM13.7282 20.4858H11.2282V22.9858H13.7282V20.4858ZM18.1103 19.9957L19.7084 21.9182L19.7153 21.9125L19.722 21.9068L18.1103 19.9957ZM18.4086 17.6094L16.2941 18.9431V18.9431L18.4086 17.6094ZM17.5776 16.8849L16.4715 19.127L16.4833 19.1327L17.5776 16.8849ZM13.7282 16.6222V14.1222H11.2282V16.6222H13.7282ZM13.7282 14.5412H11.2282V17.0412H13.7282V14.5412ZM17.1301 14.321L18.1547 16.6014L18.1621 16.5981L18.1695 16.5947L17.1301 14.321ZM17.9114 13.6818L15.87 12.2387L15.8616 12.2506L15.8534 12.2625L17.9114 13.6818ZM17.6415 11.4233L15.9987 13.3077L16.0046 13.3129L16.0106 13.318L17.6415 11.4233ZM13.7282 10.9403V8.44034H11.2282V10.9403H13.7282ZM13.1529 23V8.45455H8.15288V23H13.1529ZM10.6529 10.9545H16.4767V5.95455H10.6529V10.9545ZM16.4767 10.9545C17.3184 10.9545 17.8392 11.0819 18.1404 11.2155L20.1682 6.64525C19.0395 6.1444 17.7752 5.95455 16.4767 5.95455V10.9545ZM18.1404 11.2155C18.4846 11.3683 18.6063 11.5137 18.6595 11.597L22.8735 8.9058C22.207 7.86221 21.2539 7.12698 20.1682 6.64525L18.1404 11.2155ZM18.6647 11.6051C18.7396 11.7213 18.8063 11.8857 18.8063 12.1832H23.8063C23.8063 11.0224 23.5132 9.89897 22.8683 8.89773L18.6647 11.6051ZM18.8063 12.1832C18.8063 12.4127 18.7625 12.4996 18.7541 12.5155L23.1766 14.8482C23.6228 14.0023 23.8063 13.0901 23.8063 12.1832H18.8063ZM18.7595 12.5053C18.7201 12.5791 18.6771 12.6276 18.6074 12.6757L21.4484 16.7902C22.1742 16.289 22.7561 15.6368 23.1713 14.8583L18.7595 12.5053ZM18.6126 12.6721C18.5048 12.7462 18.3549 12.8187 18.1313 12.8688L19.2256 17.7476C20.0152 17.5705 20.765 17.2595 21.4431 16.7938L18.6126 12.6721ZM16.1784 15.3082V15.4503H21.1784V15.3082H16.1784ZM18.5717 17.948C18.704 17.9537 18.819 17.9858 18.9507 18.0646L21.517 13.7734C20.6828 13.2746 19.7609 12.9943 18.7852 12.9526L18.5717 17.948ZM18.9599 18.0701C19.0573 18.1278 19.1566 18.2146 19.2591 18.3908L23.5808 15.8763C23.0772 15.0108 22.3858 14.2879 21.5078 13.768L18.9599 18.0701ZM19.2641 18.3993C19.3015 18.463 19.3745 18.6233 19.3745 18.9801H24.3745C24.3745 17.9071 24.1444 16.8362 23.5758 15.8677L19.2641 18.3993ZM19.3745 18.9801C19.3745 19.3161 19.2977 19.5345 19.1866 19.71L23.4117 22.3837C24.0677 21.3471 24.3745 20.1877 24.3745 18.9801H19.3745ZM19.1839 19.7144C19.0969 19.8524 18.9311 20.0334 18.5501 20.213L20.6818 24.7358C21.7875 24.2147 22.7439 23.444 23.4145 22.3793L19.1839 19.7144ZM18.5501 20.213C18.23 20.3639 17.7022 20.5 16.8674 20.5V25.5C18.2106 25.5 19.5152 25.2857 20.6818 24.7358L18.5501 20.213ZM16.8674 20.5H10.6529V25.5H16.8674V20.5ZM13.7282 22.9858H16.2353V17.9858H13.7282V22.9858ZM16.2353 22.9858C17.3128 22.9858 18.6498 22.7983 19.7084 21.9182L16.5121 18.0733C16.6615 17.9491 16.7633 17.9318 16.7146 17.9445C16.663 17.958 16.5153 17.9858 16.2353 17.9858V22.9858ZM19.722 21.9068C20.7207 21.0646 21.1998 19.9034 21.1998 18.6747H16.1998C16.1998 18.647 16.206 18.5402 16.2694 18.3981C16.3348 18.2515 16.4263 18.1455 16.4985 18.0847L19.722 21.9068ZM21.1998 18.6747C21.1998 17.852 20.9953 17.0243 20.5231 16.2756L16.2941 18.9431C16.2578 18.8856 16.2312 18.8236 16.2154 18.7657C16.2079 18.7383 16.2039 18.7157 16.2018 18.6995C16.1998 18.6833 16.1998 18.6747 16.1998 18.6747H21.1998ZM20.5231 16.2756C20.0561 15.5354 19.407 14.9951 18.6719 14.6372L16.4833 19.1327C16.4834 19.1328 16.4761 19.1292 16.4632 19.1208C16.4502 19.1123 16.4326 19.0995 16.4124 19.0819C16.3696 19.0445 16.3279 18.9968 16.2941 18.9431L20.5231 16.2756ZM18.6837 14.6429C17.911 14.2618 17.091 14.1222 16.3063 14.1222V19.1222C16.5065 19.1222 16.5339 19.1577 16.4715 19.127L18.6837 14.6429ZM16.3063 14.1222H13.7282V19.1222H16.3063V14.1222ZM11.2282 16.6222V20.4858H16.2282V16.6222H11.2282ZM13.7282 17.0412H16.008V12.0412H13.7282V17.0412ZM16.008 17.0412C16.7209 17.0412 17.454 16.9163 18.1547 16.6014L16.1056 12.0406C16.1269 12.031 16.1352 12.0306 16.1233 12.0329C16.1104 12.0354 16.0738 12.0412 16.008 12.0412V17.0412ZM18.1695 16.5947C18.8723 16.2735 19.5004 15.7812 19.9694 15.1011L15.8534 12.2625C15.8931 12.2048 15.941 12.1536 15.9909 12.1127C16.0398 12.0727 16.0775 12.0534 16.0908 12.0473L18.1695 16.5947ZM19.9528 15.1249C20.486 14.3707 20.7026 13.5197 20.7026 12.6946H15.7026C15.7026 12.6747 15.7053 12.6121 15.7319 12.5218C15.7594 12.4285 15.8054 12.33 15.87 12.2387L19.9528 15.1249ZM20.7026 12.6946C20.7026 11.4947 20.2377 10.3594 19.2724 9.52854L16.0106 13.318C15.9346 13.2526 15.8415 13.1424 15.7752 12.992C15.7106 12.8457 15.7026 12.7327 15.7026 12.6946H20.7026ZM19.2844 9.53886C18.3089 8.68846 17.1148 8.44034 16.0648 8.44034V13.4403C16.2146 13.4403 16.2616 13.4586 16.2382 13.4515C16.2245 13.4473 16.1923 13.436 16.1479 13.4121C16.1028 13.3877 16.0512 13.3535 15.9987 13.3077L19.2844 9.53886ZM16.0648 8.44034H13.7282V13.4403H16.0648V8.44034ZM11.2282 10.9403V14.5412H16.2282V10.9403H11.2282Z" fill="white" mask="url(#path-2-inside-1_1_1819)"/>
</g>
<defs>
<clipPath id="clip0_1_1819">
<rect width="32" height="32" fill="white"/>
</clipPath>
</defs>
</svg>
