<svg width="40" height="32" viewBox="0 0 40 32" fill="none" xmlns="http://www.w3.org/2000/svg">
<g clip-path="url(#clip0_1_1829)">
<rect width="40" height="32" rx="8" fill="black"/>
<path d="M23.71 13.29C23.617 13.1963 23.5064 13.1219 23.3846 13.0711C23.2627 13.0203 23.132 12.9942 23 12.9942C22.868 12.9942 22.7373 13.0203 22.6154 13.0711C22.4936 13.1219 22.383 13.1963 22.29 13.29L21 14.59L19.71 13.29C19.5217 13.1017 19.2663 12.9959 19 12.9959C18.7337 12.9959 18.4783 13.1017 18.29 13.29C18.1017 13.4783 17.9959 13.7337 17.9959 14C17.9959 14.2663 18.1017 14.5217 18.29 14.71L19.59 16L18.29 17.29C18.1963 17.383 18.1219 17.4936 18.0711 17.6154C18.0203 17.7373 17.9942 17.868 17.9942 18C17.9942 18.132 18.0203 18.2627 18.0711 18.3846C18.1219 18.5064 18.1963 18.617 18.29 18.71C18.383 18.8037 18.4936 18.8781 18.6154 18.9289C18.7373 18.9797 18.868 19.0058 19 19.0058C19.132 19.0058 19.2627 18.9797 19.3846 18.9289C19.5064 18.8781 19.617 18.8037 19.71 18.71L21 17.41L22.29 18.71C22.383 18.8037 22.4936 18.8781 22.6154 18.9289C22.7373 18.9797 22.868 19.0058 23 19.0058C23.132 19.0058 23.2627 18.9797 23.3846 18.9289C23.5064 18.8781 23.617 18.8037 23.71 18.71C23.8037 18.617 23.8781 18.5064 23.9289 18.3846C23.9797 18.2627 24.0058 18.132 24.0058 18C24.0058 17.868 23.9797 17.7373 23.9289 17.6154C23.8781 17.4936 23.8037 17.383 23.71 17.29L22.41 16L23.71 14.71C23.8037 14.617 23.8781 14.5064 23.9289 14.3846C23.9797 14.2627 24.0058 14.132 24.0058 14C24.0058 13.868 23.9797 13.7373 23.9289 13.6154C23.8781 13.4936 23.8037 13.383 23.71 13.29Z" fill="white"/>
<path d="M28 22V10H17L11 16L17 22H28Z" stroke="white" stroke-width="2"/>
</g>
<defs>
<clipPath id="clip0_1_1829">
<rect width="40" height="32" fill="white"/>
</clipPath>
</defs>
</svg>
