<svg width="32" height="32" viewBox="0 0 32 32" fill="none" xmlns="http://www.w3.org/2000/svg">
<g clip-path="url(#clip0_1_1818)">
<rect width="32" height="32" rx="8" fill="black"/>
<mask id="path-2-inside-1_1_1818" fill="white">
<path d="M22.5785 13.5469H19.4677C19.4109 13.1444 19.2949 12.7869 19.1197 12.4744C18.9445 12.1572 18.7196 11.8873 18.445 11.6648C18.1703 11.4422 17.8531 11.2718 17.4933 11.1534C17.1381 11.035 16.7522 10.9759 16.3356 10.9759C15.5827 10.9759 14.927 11.1629 14.3683 11.5369C13.8095 11.9062 13.3763 12.446 13.0685 13.1562C12.7608 13.8617 12.6069 14.7187 12.6069 15.7273C12.6069 16.7642 12.7608 17.6354 13.0685 18.3409C13.381 19.0464 13.8166 19.5791 14.3754 19.9389C14.9341 20.2988 15.5804 20.4787 16.3143 20.4787C16.7262 20.4787 17.1074 20.4242 17.4577 20.3153C17.8129 20.2064 18.1277 20.0478 18.4023 19.8395C18.677 19.6264 18.9042 19.3684 19.0842 19.0653C19.2688 18.7623 19.3967 18.4167 19.4677 18.0284L22.5785 18.0426C22.498 18.7102 22.2968 19.3542 21.9748 19.9744C21.6576 20.59 21.229 21.1416 20.6893 21.6293C20.1542 22.1122 19.515 22.4957 18.7717 22.7798C18.033 23.0592 17.1973 23.1989 16.2646 23.1989C14.9672 23.1989 13.8072 22.9053 12.7844 22.3182C11.7665 21.7311 10.9615 20.8812 10.3697 19.7685C9.78255 18.6558 9.48899 17.3087 9.48899 15.7273C9.48899 14.1411 9.78729 12.7917 10.3839 11.679C10.9805 10.5663 11.7901 9.71875 12.8129 9.13636C13.8356 8.54924 14.9862 8.25568 16.2646 8.25568C17.1074 8.25568 17.8886 8.37405 18.6083 8.6108C19.3327 8.84754 19.9743 9.19318 20.533 9.64773C21.0917 10.0975 21.5463 10.6491 21.8967 11.3026C22.2518 11.956 22.479 12.7041 22.5785 13.5469Z"/>
</mask>
<path d="M22.5785 13.5469V16.0469H25.3908L25.0613 13.254L22.5785 13.5469ZM19.4677 13.5469L16.9922 13.8964L17.2958 16.0469H19.4677V13.5469ZM19.1197 12.4744L16.9312 13.683L16.9351 13.69L16.939 13.6969L19.1197 12.4744ZM18.445 11.6648L16.871 13.6071L16.871 13.6071L18.445 11.6648ZM17.4933 11.1534L16.7027 13.5251L16.7121 13.5282L17.4933 11.1534ZM14.3683 11.5369L15.7468 13.6225L15.753 13.6184L15.7591 13.6143L14.3683 11.5369ZM13.0685 13.1562L15.36 14.1559L15.3624 14.1503L13.0685 13.1562ZM13.0685 18.3409L10.7771 19.3406L10.7827 19.3534L13.0685 18.3409ZM14.3754 19.9389L13.0217 22.0407H13.0217L14.3754 19.9389ZM17.4577 20.3153L16.7248 17.9252L16.7157 17.928L17.4577 20.3153ZM18.4023 19.8395L19.9133 21.8312L19.9241 21.823L19.9348 21.8147L18.4023 19.8395ZM19.0842 19.0653L16.9493 17.7644L16.9418 17.7767L16.9345 17.789L19.0842 19.0653ZM19.4677 18.0284L19.4791 15.5284L17.3853 15.5189L17.0085 17.5786L19.4677 18.0284ZM22.5785 18.0426L25.0605 18.3419L25.3965 15.5555L22.5899 15.5426L22.5785 18.0426ZM21.9748 19.9744L19.7559 18.8226L19.7526 18.8291L21.9748 19.9744ZM20.6893 21.6293L22.3644 23.485L22.3653 23.4843L20.6893 21.6293ZM18.7717 22.7798L19.656 25.1182L19.6641 25.1151L18.7717 22.7798ZM12.7844 22.3182L11.5354 24.4838L11.5398 24.4863L12.7844 22.3182ZM10.3697 19.7685L8.15859 20.9352L8.16249 20.9425L10.3697 19.7685ZM10.3839 11.679L12.5872 12.8603L10.3839 11.679ZM12.8129 9.13636L14.05 11.3088L14.0575 11.3045L12.8129 9.13636ZM18.6083 8.6108L17.8271 10.9856L17.8317 10.9871L18.6083 8.6108ZM20.533 9.64773L18.9553 11.587L18.9653 11.5951L20.533 9.64773ZM21.8967 11.3026L19.6934 12.484L19.7001 12.4963L21.8967 11.3026ZM22.5785 11.0469H19.4677V16.0469H22.5785V11.0469ZM21.9431 13.1974C21.8488 12.5291 21.646 11.8685 21.3004 11.2519L16.939 13.6969C16.9437 13.7054 16.9729 13.7597 16.9922 13.8964L21.9431 13.1974ZM21.3081 11.2659C20.9813 10.674 20.5501 10.1529 20.0189 9.72244L16.871 13.6071C16.8891 13.6217 16.9077 13.6404 16.9312 13.683L21.3081 11.2659ZM20.0189 9.72244C19.492 9.29549 18.9018 8.98496 18.2744 8.77859L16.7121 13.5282C16.8044 13.5586 16.8486 13.589 16.871 13.6071L20.0189 9.72244ZM18.2838 8.7817C17.6467 8.56933 16.9908 8.47585 16.3356 8.47585V13.4759C16.5137 13.4759 16.6296 13.5007 16.7027 13.5251L18.2838 8.7817ZM16.3356 8.47585C15.149 8.47585 13.9959 8.77765 12.9774 9.45952L15.7591 13.6143C15.858 13.5481 16.0165 13.4759 16.3356 13.4759V8.47585ZM12.9897 9.45138C11.9664 10.1278 11.2445 11.0781 10.7746 12.1622L15.3624 14.1503C15.5082 13.814 15.6526 13.6847 15.7468 13.6225L12.9897 9.45138ZM10.7771 12.1566C10.2962 13.259 10.1069 14.4765 10.1069 15.7273H15.1069C15.1069 14.961 15.2253 14.4645 15.36 14.1559L10.7771 12.1566ZM10.1069 15.7273C10.1069 16.9954 10.2929 18.2306 10.7771 19.3405L15.36 17.3413C15.2287 17.0403 15.1069 16.533 15.1069 15.7273H10.1069ZM10.7827 19.3534C11.2603 20.4316 11.9898 21.3761 13.0217 22.0407L15.729 17.8371C15.6435 17.782 15.5017 17.6612 15.3543 17.3284L10.7827 19.3534ZM13.0217 22.0407C14.0255 22.6873 15.1522 22.9787 16.3143 22.9787V17.9787C16.0086 17.9787 15.8426 17.9103 15.729 17.8371L13.0217 22.0407ZM16.3143 22.9787C16.9474 22.9787 17.5817 22.8948 18.1998 22.7027L16.7157 17.928C16.633 17.9537 16.5051 17.9787 16.3143 17.9787V22.9787ZM18.1907 22.7055C18.8047 22.5172 19.3872 22.2303 19.9133 21.8312L16.8914 17.8478C16.8682 17.8653 16.821 17.8957 16.7248 17.9252L18.1907 22.7055ZM19.9348 21.8147C20.4607 21.4067 20.8961 20.9105 21.2338 20.3417L16.9345 17.789C16.9124 17.8263 16.8933 17.8461 16.8699 17.8643L19.9348 21.8147ZM21.219 20.3663C21.5799 19.7741 21.8069 19.134 21.9269 18.4783L17.0085 17.5786C16.9864 17.6994 16.9577 17.7506 16.9493 17.7644L21.219 20.3663ZM19.4563 20.5284L22.5671 20.5426L22.5899 15.5426L19.4791 15.5284L19.4563 20.5284ZM20.0965 17.7434C20.0533 18.1017 19.9453 18.4579 19.7559 18.8226L24.1937 21.1262C24.6483 20.2505 24.9427 19.3188 25.0605 18.3419L20.0965 17.7434ZM19.7526 18.8291C19.5801 19.1638 19.3412 19.478 19.0133 19.7743L22.3653 23.4843C23.1169 22.8051 23.735 22.0161 24.197 21.1197L19.7526 18.8291ZM19.0141 19.7735C18.7308 20.0292 18.3643 20.2592 17.8792 20.4446L19.6641 25.1151C20.6658 24.7323 21.5776 24.1952 22.3644 23.485L19.0141 19.7735ZM17.8873 20.4415C17.4774 20.5965 16.9488 20.6989 16.2646 20.6989V25.6989C17.4459 25.6989 18.5887 25.5219 19.656 25.1182L17.8873 20.4415ZM16.2646 20.6989C15.3591 20.6989 14.6359 20.4984 14.0291 20.15L11.5398 24.4863C12.9784 25.3122 14.5754 25.6989 16.2646 25.6989V20.6989ZM14.0335 20.1525C13.4511 19.8167 12.9652 19.3245 12.5769 18.5944L8.16249 20.9425C8.95785 22.4378 10.0818 23.6454 11.5354 24.4838L14.0335 20.1525ZM12.5807 18.6018C12.226 17.9294 11.989 17.0044 11.989 15.7273H6.98899C6.98899 17.613 7.33912 19.3821 8.1586 20.9352L12.5807 18.6018ZM11.989 15.7273C11.989 14.4497 12.229 13.5282 12.5872 12.8603L8.1806 10.4976C7.34553 12.0551 6.98899 13.8325 6.98899 15.7273H11.989ZM12.5872 12.8603C12.9783 12.1309 13.4661 11.6413 14.05 11.3088L11.5758 6.9639C10.1142 7.7962 8.98269 9.00168 8.1806 10.4976L12.5872 12.8603ZM14.0575 11.3045C14.6699 10.9529 15.3851 10.7557 16.2646 10.7557V5.75568C14.5872 5.75568 13.0012 6.14556 11.5682 6.96823L14.0575 11.3045ZM16.2646 10.7557C16.8715 10.7557 17.3861 10.8406 17.8271 10.9856L19.3895 6.23598C18.3911 5.90755 17.3432 5.75568 16.2646 5.75568V10.7557ZM17.8317 10.9871C18.2817 11.1342 18.6482 11.3371 18.9553 11.587L22.1107 7.70845C21.3005 7.04924 20.3838 6.5609 19.3849 6.23447L17.8317 10.9871ZM18.9653 11.5951C19.2541 11.8276 19.496 12.1157 19.6934 12.484L24.0999 10.1211C23.5966 9.18256 22.9293 8.36745 22.1008 7.70039L18.9653 11.5951ZM19.7001 12.4963C19.8835 12.8338 20.0283 13.2685 20.0957 13.8398L25.0613 13.254C24.9298 12.1396 24.6201 11.0781 24.0932 10.1088L19.7001 12.4963Z" fill="white" mask="url(#path-2-inside-1_1_1818)"/>
</g>
<defs>
<clipPath id="clip0_1_1818">
<rect width="32" height="32" fill="white"/>
</clipPath>
</defs>
</svg>
