<svg width="32" height="32" viewBox="0 0 32 32" fill="none" xmlns="http://www.w3.org/2000/svg">
<g clip-path="url(#clip0_1_1830)">
<rect width="32" height="32" rx="8" fill="black"/>
<path d="M19 20V21H20V20H19ZM13 20H12V21H13V20ZM13 16.5H14V15.5H13V16.5ZM9 16.5L8.24742 15.8415C7.98904 16.1368 7.92723 16.5559 8.08937 16.9132C8.2515 17.2705 8.60762 17.5 9 17.5V16.5ZM19 16.5V15.5H18V16.5H19ZM23 16.5V17.5C23.3924 17.5 23.7485 17.2705 23.9106 16.9132C24.0728 16.5559 24.011 16.1368 23.7526 15.8415L23 16.5ZM16 8.5L16.7526 7.8415L16 6.98141L15.2474 7.8415L16 8.5ZM19 19H13V21H19V19ZM14 20V16.5H12V20H14ZM13 15.5H9V17.5H13V15.5ZM20 20V16.5H18V20H20ZM19 17.5H23V15.5H19V17.5ZM23.7526 15.8415L16.7526 7.8415L15.2474 9.1585L22.2474 17.1585L23.7526 15.8415ZM9.75258 17.1585L16.7526 9.1585L15.2474 7.8415L8.24742 15.8415L9.75258 17.1585Z" fill="white"/>
<rect x="9" y="23" width="14" height="2" fill="white"/>
</g>
<defs>
<clipPath id="clip0_1_1830">
<rect width="32" height="32" fill="white"/>
</clipPath>
</defs>
</svg>
