<svg width="72" height="44" viewBox="0 0 72 44" fill="none" xmlns="http://www.w3.org/2000/svg">
<g clip-path="url(#clip0_203_69)">
<rect width="72" height="32" rx="8" fill="black"/>
<mask id="path-2-inside-1_203_69" fill="white">
<path d="M27.2124 9.90909V23H24.8217L19.1264 14.7607H19.0305V23H16.2628V9.90909H18.6918L24.3423 18.142H24.4574V9.90909H27.2124ZM29.4991 23V9.90909H34.6639C35.6568 9.90909 36.5027 10.0987 37.2015 10.478C37.9004 10.853 38.4331 11.375 38.7995 12.044C39.1703 12.7088 39.3556 13.4759 39.3556 14.3452C39.3556 15.2145 39.1681 15.9815 38.7931 16.6463C38.4181 17.3111 37.8748 17.8288 37.1632 18.1996C36.4558 18.5703 35.5993 18.7557 34.5936 18.7557H31.3017V16.5376H34.1461C34.6788 16.5376 35.1177 16.446 35.4629 16.2628C35.8123 16.0753 36.0723 15.8175 36.2427 15.4893C36.4174 15.157 36.5048 14.7756 36.5048 14.3452C36.5048 13.9105 36.4174 13.5312 36.2427 13.2074C36.0723 12.8793 35.8123 12.6257 35.4629 12.4467C35.1135 12.2635 34.6703 12.1719 34.1333 12.1719H32.2669V23H29.4991ZM55.2559 23.1662C54.834 23.1662 54.4718 23.017 54.1692 22.7188C53.8709 22.4162 53.7218 22.054 53.7218 21.6321C53.7218 21.2145 53.8709 20.8565 54.1692 20.5582C54.4718 20.2599 54.834 20.1108 55.2559 20.1108C55.665 20.1108 56.0229 20.2599 56.3297 20.5582C56.6365 20.8565 56.79 21.2145 56.79 21.6321C56.79 21.9134 56.7175 22.1712 56.5726 22.4055C56.432 22.6357 56.2466 22.821 56.0165 22.9616C55.7864 23.098 55.5328 23.1662 55.2559 23.1662Z"/>
</mask>
<path d="M27.2124 9.90909H29.7124V7.40909H27.2124V9.90909ZM27.2124 23V25.5H29.7124V23H27.2124ZM24.8217 23L22.7652 24.4215L23.5107 25.5H24.8217V23ZM19.1264 14.7607L21.1829 13.3391L20.4375 12.2607H19.1264V14.7607ZM19.0305 14.7607V12.2607H16.5305V14.7607H19.0305ZM19.0305 23V25.5H21.5305V23H19.0305ZM16.2628 23H13.7628V25.5H16.2628V23ZM16.2628 9.90909V7.40909H13.7628V9.90909H16.2628ZM18.6918 9.90909L20.753 8.4944L20.0081 7.40909H18.6918V9.90909ZM24.3423 18.142L22.2811 19.5567L23.026 20.642H24.3423V18.142ZM24.4574 18.142V20.642H26.9574V18.142H24.4574ZM24.4574 9.90909V7.40909H21.9574V9.90909H24.4574ZM24.7124 9.90909V23H29.7124V9.90909H24.7124ZM27.2124 20.5H24.8217V25.5H27.2124V20.5ZM26.8782 21.5785L21.1829 13.3391L17.0699 16.1822L22.7652 24.4215L26.8782 21.5785ZM19.1264 12.2607H19.0305V17.2607H19.1264V12.2607ZM16.5305 14.7607V23H21.5305V14.7607H16.5305ZM19.0305 20.5H16.2628V25.5H19.0305V20.5ZM18.7628 23V9.90909H13.7628V23H18.7628ZM16.2628 12.4091H18.6918V7.40909H16.2628V12.4091ZM16.6305 11.3238L22.2811 19.5567L26.4036 16.7274L20.753 8.4944L16.6305 11.3238ZM24.3423 20.642H24.4574V15.642H24.3423V20.642ZM26.9574 18.142V9.90909H21.9574V18.142H26.9574ZM24.4574 12.4091H27.2124V7.40909H24.4574V12.4091ZM29.4991 23H26.9991V25.5H29.4991V23ZM29.4991 9.90909V7.40909H26.9991V9.90909H29.4991ZM37.2015 10.478L36.0091 12.6753L36.0195 12.6809L37.2015 10.478ZM38.7995 12.044L36.6069 13.2451L36.6115 13.2534L36.6161 13.2617L38.7995 12.044ZM37.1632 18.1996L36.0081 15.9824L36.0027 15.9853L37.1632 18.1996ZM31.3017 18.7557H28.8017V21.2557H31.3017V18.7557ZM31.3017 16.5376V14.0376H28.8017V16.5376H31.3017ZM35.4629 16.2628L36.6351 18.4709L36.6449 18.4657L35.4629 16.2628ZM36.2427 15.4893L34.0298 14.3261L34.0242 14.3369L36.2427 15.4893ZM36.2427 13.2074L34.0242 14.3599L34.0332 14.3772L34.0425 14.3944L36.2427 13.2074ZM35.4629 12.4467L34.3019 14.6608L34.3125 14.6664L34.3232 14.6718L35.4629 12.4467ZM32.2669 12.1719V9.67188H29.7669V12.1719H32.2669ZM32.2669 23V25.5H34.7669V23H32.2669ZM31.9991 23V9.90909H26.9991V23H31.9991ZM29.4991 12.4091H34.6639V7.40909H29.4991V12.4091ZM34.6639 12.4091C35.3421 12.4091 35.7564 12.5382 36.0091 12.6753L38.394 8.28069C37.2489 7.65928 35.9714 7.40909 34.6639 7.40909V12.4091ZM36.0195 12.6809C36.3094 12.8365 36.4827 13.0183 36.6069 13.2451L40.9921 10.843C40.3834 9.73171 39.4913 8.8695 38.3836 8.27508L36.0195 12.6809ZM36.6161 13.2617C36.7513 13.5041 36.8556 13.8407 36.8556 14.3452H41.8556C41.8556 13.111 41.5893 11.9135 40.9829 10.8264L36.6161 13.2617ZM36.8556 14.3452C36.8556 14.8448 36.7513 15.1776 36.6157 15.418L40.9706 17.8746C41.585 16.7854 41.8556 15.5842 41.8556 14.3452H36.8556ZM36.6157 15.418C36.4911 15.6389 36.3136 15.8233 36.0081 15.9824L38.3182 20.4167C39.436 19.8344 40.3452 18.9833 40.9706 17.8746L36.6157 15.418ZM36.0027 15.9853C35.7342 16.1259 35.2975 16.2557 34.5936 16.2557V21.2557C35.901 21.2557 37.1773 21.0147 38.3237 20.4139L36.0027 15.9853ZM34.5936 16.2557H31.3017V21.2557H34.5936V16.2557ZM33.8017 18.7557V16.5376H28.8017V18.7557H33.8017ZM31.3017 19.0376H34.1461V14.0376H31.3017V19.0376ZM34.1461 19.0376C34.9461 19.0376 35.8219 18.9027 36.6351 18.4709L34.2907 14.0546C34.3542 14.0209 34.3861 14.0171 34.364 14.0217C34.3404 14.0266 34.2718 14.0376 34.1461 14.0376V19.0376ZM36.6449 18.4657C37.4039 18.0584 38.0418 17.4493 38.4612 16.6418L34.0242 14.3369C34.0573 14.2733 34.1035 14.2092 34.1594 14.1538C34.2143 14.0994 34.2607 14.0707 34.2808 14.0599L36.6449 18.4657ZM38.4556 16.6525C38.8448 15.9121 39.0048 15.1212 39.0048 14.3452H34.0048C34.0048 14.391 34.0002 14.4054 34.0024 14.3958C34.0034 14.3912 34.0059 14.382 34.0106 14.3692C34.0153 14.3564 34.0216 14.3417 34.0298 14.3262L38.4556 16.6525ZM39.0048 14.3452C39.0048 13.5712 38.8472 12.7698 38.443 12.0204L34.0425 14.3944C34.0305 14.3722 34.0214 14.3516 34.0148 14.3338C34.0082 14.3161 34.0047 14.3031 34.0031 14.2959C33.9998 14.2815 34.0048 14.2951 34.0048 14.3452H39.0048ZM38.4612 12.0549C38.0361 11.2366 37.3841 10.6219 36.6026 10.2216L34.3232 14.6718C34.2933 14.6565 34.2373 14.6222 34.1743 14.5608C34.1102 14.4983 34.0594 14.4276 34.0242 14.3599L38.4612 12.0549ZM36.6239 10.2327C35.8107 9.80623 34.9357 9.67188 34.1333 9.67188V14.6719C34.2623 14.6719 34.3346 14.6831 34.3623 14.6888C34.3885 14.6942 34.3612 14.6919 34.3019 14.6608L36.6239 10.2327ZM34.1333 9.67188H32.2669V14.6719H34.1333V9.67188ZM29.7669 12.1719V23H34.7669V12.1719H29.7669ZM32.2669 20.5H29.4991V25.5H32.2669V20.5ZM54.1692 22.7188L52.389 24.4739L52.4014 24.4866L52.414 24.499L54.1692 22.7188ZM54.1692 20.5582L52.414 18.778L52.4077 18.7842L52.4014 18.7905L54.1692 20.5582ZM56.3297 20.5582L54.587 22.3507L54.587 22.3507L56.3297 20.5582ZM56.5726 22.4055L54.4461 21.091L54.4394 21.1019L56.5726 22.4055ZM56.0165 22.9616L57.291 25.1124L57.3056 25.1037L57.3201 25.0949L56.0165 22.9616ZM55.2559 20.6662C55.3461 20.6662 55.4762 20.6836 55.6197 20.7426C55.7628 20.8016 55.8646 20.8795 55.9244 20.9385L52.414 24.499C53.1806 25.2548 54.1719 25.6662 55.2559 25.6662V20.6662ZM55.9495 20.9636C56.0085 21.0234 56.0864 21.1252 56.1453 21.2683C56.2044 21.4117 56.2218 21.5419 56.2218 21.6321H51.2218C51.2218 22.7161 51.6331 23.7073 52.389 24.4739L55.9495 20.9636ZM56.2218 21.6321C56.2218 21.7277 56.2032 21.8635 56.1413 22.012C56.0797 22.16 55.9983 22.2647 55.937 22.326L52.4014 18.7905C51.6397 19.5523 51.2218 20.5439 51.2218 21.6321H56.2218ZM55.9244 22.3385C55.8646 22.3975 55.7628 22.4754 55.6197 22.5344C55.4762 22.5934 55.3461 22.6108 55.2559 22.6108V17.6108C54.1719 17.6108 53.1806 18.0222 52.414 18.778L55.9244 22.3385ZM55.2559 22.6108C55.1488 22.6108 55.0119 22.5896 54.8696 22.5303C54.7294 22.472 54.6359 22.3982 54.587 22.3507L58.0724 18.7658C57.3228 18.0369 56.3483 17.6108 55.2559 17.6108V22.6108ZM54.587 22.3507C54.5274 22.2927 54.4426 22.1882 54.377 22.0352C54.3109 21.881 54.29 21.7371 54.29 21.6321H59.29C59.29 20.5207 58.8499 19.5217 58.0724 18.7658L54.587 22.3507ZM54.29 21.6321C54.29 21.5556 54.3002 21.4621 54.3288 21.3601C54.3576 21.2578 54.3994 21.1666 54.4461 21.091L58.6991 23.7201C59.0934 23.0822 59.29 22.3676 59.29 21.6321H54.29ZM54.4394 21.1019C54.4692 21.0532 54.5093 21.0004 54.5604 20.9494C54.6114 20.8984 54.6642 20.8582 54.7129 20.8284L57.3201 25.0949C57.8887 24.7474 58.3584 24.2777 58.7058 23.7092L54.4394 21.1019ZM54.742 20.8109C54.8187 20.7654 54.9078 20.7268 55.0046 20.7008C55.1008 20.6749 55.1872 20.6662 55.2559 20.6662V25.6662C55.9646 25.6662 56.661 25.4857 57.291 25.1124L54.742 20.8109Z" fill="white" mask="url(#path-2-inside-1_203_69)"/>
</g>
<circle cx="55" cy="22" r="2" fill="white"/>
<defs>
<clipPath id="clip0_203_69">
<rect width="72" height="32" fill="white"/>
</clipPath>
</defs>
</svg>
