<svg width="60" height="32" viewBox="0 0 60 32" fill="none" xmlns="http://www.w3.org/2000/svg">
<g clip-path="url(#clip0_1_1834)">
<rect width="60" height="32" rx="8" fill="black"/>
<mask id="path-2-inside-1_1_1834" fill="white">
<path d="M18.8962 14.4922H16.0965C16.0454 14.13 15.941 13.8082 15.7833 13.527C15.6256 13.2415 15.4232 12.9986 15.176 12.7983C14.9289 12.598 14.6434 12.4446 14.3195 12.3381C13.9999 12.2315 13.6526 12.1783 13.2776 12.1783C12.6001 12.1783 12.0099 12.3466 11.507 12.6832C11.0042 13.0156 10.6143 13.5014 10.3373 14.1406C10.0603 14.7756 9.92179 15.5469 9.92179 16.4545C9.92179 17.3878 10.0603 18.1719 10.3373 18.8068C10.6185 19.4418 11.0106 19.9212 11.5134 20.245C12.0162 20.5689 12.5979 20.7308 13.2584 20.7308C13.6292 20.7308 13.9722 20.6818 14.2876 20.5838C14.6072 20.4858 14.8905 20.343 15.1377 20.1555C15.3849 19.9638 15.5894 19.7315 15.7513 19.4588C15.9175 19.1861 16.0326 18.875 16.0965 18.5256L18.8962 18.5384C18.8238 19.1392 18.6427 19.7188 18.3529 20.277C18.0674 20.831 17.6817 21.3274 17.1959 21.7663C16.7144 22.201 16.1391 22.5462 15.4701 22.8018C14.8053 23.0533 14.0532 23.179 13.2137 23.179C12.0461 23.179 11.002 22.9148 10.0816 22.3864C9.16539 21.858 8.44096 21.093 7.90829 20.0916C7.37988 19.0902 7.11568 17.8778 7.11568 16.4545C7.11568 15.027 7.38414 13.8125 7.92108 12.8111C8.45801 11.8097 9.1867 11.0469 10.1072 10.5227C11.0276 9.99432 12.0631 9.73011 13.2137 9.73011C13.9722 9.73011 14.6753 9.83665 15.3231 10.0497C15.9751 10.2628 16.5525 10.5739 17.0553 10.983C17.5582 11.3878 17.9672 11.8842 18.2826 12.4723C18.6022 13.0604 18.8067 13.7337 18.8962 14.4922ZM20.3824 12.1911V9.90909H31.1338V12.1911H27.126V23H24.3902V12.1911H20.3824ZM32.9044 23V9.90909H38.0692C39.0578 9.90909 39.9015 10.0859 40.6004 10.4396C41.3035 10.7891 41.8383 11.2855 42.2048 11.929C42.5756 12.5682 42.7609 13.3203 42.7609 14.1854C42.7609 15.0547 42.5734 15.8026 42.1984 16.429C41.8234 17.0511 41.2801 17.5284 40.5684 17.8608C39.8611 18.1932 39.0045 18.3594 37.9988 18.3594H34.5407V16.1349H37.5514C38.0798 16.1349 38.5187 16.0625 38.8682 15.9176C39.2176 15.7727 39.4775 15.5554 39.648 15.2656C39.8227 14.9759 39.9101 14.6158 39.9101 14.1854C39.9101 13.7507 39.8227 13.3842 39.648 13.0859C39.4775 12.7876 39.2155 12.5618 38.8618 12.4084C38.5123 12.2507 38.0713 12.1719 37.5386 12.1719H35.6721V23H32.9044ZM39.974 17.0426L43.2275 23H40.1721L36.9889 17.0426H39.974ZM44.7169 23V9.90909H47.4846V20.718H53.0969V23H44.7169Z"/>
</mask>
<path d="M18.8962 14.4922V16.9922H21.7085L21.379 14.1993L18.8962 14.4922ZM16.0965 14.4922L13.621 14.8417L13.9247 16.9922H16.0965V14.4922ZM15.7833 13.527L13.5948 14.7355L13.5987 14.7425L13.6026 14.7495L15.7833 13.527ZM15.176 12.7983L13.6021 14.7406L13.6021 14.7406L15.176 12.7983ZM14.3195 12.3381L13.5289 14.7098L13.5383 14.7129L14.3195 12.3381ZM11.507 12.6832L12.8856 14.7688L12.8917 14.7647L12.8978 14.7607L11.507 12.6832ZM10.3373 14.1406L12.6287 15.1403L12.6312 15.1346L10.3373 14.1406ZM10.3373 18.8068L8.04578 19.8065L8.05148 19.8193L10.3373 18.8068ZM11.5134 20.245L10.1597 22.3468H10.1597L11.5134 20.245ZM14.2876 20.5838L13.5546 18.1937L13.5455 18.1965L14.2876 20.5838ZM15.1377 20.1555L16.6487 22.1473L16.6595 22.1391L16.6702 22.1308L15.1377 20.1555ZM15.7513 19.4588L13.6165 18.1579L13.609 18.1701L13.6017 18.1825L15.7513 19.4588ZM16.0965 18.5256L16.1079 16.0256L14.0141 16.016L13.6373 18.0757L16.0965 18.5256ZM18.8962 18.5384L21.3782 18.8376L21.7142 16.0512L18.9076 16.0384L18.8962 18.5384ZM18.3529 20.277L16.134 19.1252L16.1307 19.1317L18.3529 20.277ZM17.1959 21.7663L18.8711 23.6221L18.8719 23.6213L17.1959 21.7663ZM15.4701 22.8018L16.3545 25.1402L16.3625 25.1371L15.4701 22.8018ZM10.0816 22.3864L8.83257 24.552L8.83692 24.5545L10.0816 22.3864ZM7.90829 20.0916L5.69721 21.2583L5.70111 21.2657L7.90829 20.0916ZM7.92108 12.8111L10.1244 13.9924L10.1244 13.9924L7.92108 12.8111ZM10.1072 10.5227L11.3443 12.6952L11.3518 12.6909L10.1072 10.5227ZM15.3231 10.0497L14.5419 12.4245L14.5465 12.426L15.3231 10.0497ZM17.0553 10.983L15.4776 12.9223L15.4875 12.9303L17.0553 10.983ZM18.2826 12.4723L16.0793 13.6538L16.086 13.6661L18.2826 12.4723ZM18.8962 11.9922H16.0965V16.9922H18.8962V11.9922ZM18.572 14.1427C18.4833 13.5147 18.2921 12.8898 17.964 12.3045L13.6026 14.7495C13.5972 14.7399 13.598 14.7388 13.6019 14.7509C13.606 14.7635 13.6141 14.7923 13.621 14.8417L18.572 14.1427ZM17.9718 12.3184C17.6624 11.7583 17.2537 11.2641 16.75 10.856L13.6021 14.7406C13.6014 14.7401 13.5999 14.7388 13.598 14.7369C13.596 14.7349 13.5942 14.7329 13.5927 14.7311C13.5912 14.7293 13.5905 14.7284 13.5907 14.7287C13.5909 14.729 13.5924 14.7311 13.5948 14.7355L17.9718 12.3184ZM16.75 10.856C16.2506 10.4513 15.6921 10.1578 15.1007 9.96325L13.5383 14.7129C13.5686 14.7228 13.5857 14.7312 13.5933 14.7353C13.5972 14.7374 13.5995 14.7389 13.6006 14.7396C13.6016 14.7402 13.602 14.7406 13.6021 14.7406L16.75 10.856ZM15.1101 9.96636C14.5085 9.76583 13.8912 9.67827 13.2776 9.67827V14.6783C13.414 14.6783 13.4913 14.6972 13.5289 14.7098L15.1101 9.96636ZM13.2776 9.67827C12.1663 9.67827 11.0788 9.96136 10.1162 10.6058L12.8978 14.7607C12.9409 14.7318 13.0338 14.6783 13.2776 14.6783V9.67827ZM10.1284 10.5977C9.16107 11.2371 8.48241 12.1335 8.04338 13.1466L12.6312 15.1346C12.7461 14.8694 12.8473 14.7941 12.8856 14.7688L10.1284 10.5977ZM8.04582 13.141C7.5957 14.1728 7.42179 15.3046 7.42179 16.4545H12.4218C12.4218 15.7891 12.5249 15.3783 12.6287 15.1403L8.04582 13.141ZM7.42179 16.4545C7.42179 17.619 7.59239 18.767 8.04582 19.8064L12.6287 17.8072C12.5282 17.5767 12.4218 17.1566 12.4218 16.4545H7.42179ZM8.05148 19.8193C8.49782 20.827 9.18369 21.7182 10.1597 22.3468L12.8671 18.1432C12.8374 18.1241 12.7392 18.0565 12.6231 17.7943L8.05148 19.8193ZM10.1597 22.3468C11.1077 22.9574 12.1697 23.2308 13.2584 23.2308V18.2308C13.0261 18.2308 12.9248 18.1804 12.8671 18.1432L10.1597 22.3468ZM13.2584 23.2308C13.8503 23.2308 14.4465 23.1524 15.0296 22.9712L13.5455 18.1965C13.4979 18.2113 13.408 18.2308 13.2584 18.2308V23.2308ZM15.0205 22.9739C15.599 22.7965 16.15 22.5255 16.6487 22.1473L13.6267 18.1638C13.6266 18.1639 13.6259 18.1644 13.6244 18.1654C13.6228 18.1664 13.6198 18.1681 13.615 18.1705C13.6058 18.1752 13.5867 18.1838 13.5546 18.1937L15.0205 22.9739ZM16.6702 22.1308C17.1686 21.7441 17.5812 21.2736 17.901 20.7352L13.6017 18.1825C13.5997 18.1858 13.5986 18.1873 13.5986 18.1874C13.5986 18.1874 13.5992 18.1866 13.6004 18.1852C13.6016 18.1838 13.6029 18.1825 13.6041 18.1814C13.6053 18.1802 13.6057 18.1799 13.6052 18.1803L16.6702 22.1308ZM17.8862 20.7597C18.2286 20.1978 18.4429 19.5923 18.5557 18.9754L13.6373 18.0757C13.6295 18.1182 13.6215 18.1429 13.6175 18.1537C13.6137 18.1641 13.6127 18.1642 13.6165 18.1579L17.8862 20.7597ZM16.0851 21.0255L18.8848 21.0383L18.9076 16.0384L16.1079 16.0256L16.0851 21.0255ZM16.4142 18.2391C16.379 18.5307 16.2912 18.8225 16.134 19.1252L20.5718 21.4288C20.9942 20.615 21.2685 19.7477 21.3782 18.8376L16.4142 18.2391ZM16.1307 19.1317C15.9899 19.4048 15.7938 19.6639 15.5199 19.9113L18.8719 23.6213C19.5696 22.991 20.1449 22.2571 20.5751 21.4223L16.1307 19.1317ZM15.5208 19.9106C15.291 20.118 14.9884 20.3096 14.5776 20.4666L16.3625 25.1371C17.2898 24.7827 18.1378 24.284 18.8711 23.6221L15.5208 19.9106ZM14.5857 20.4635C14.2497 20.5906 13.8046 20.679 13.2137 20.679V25.679C14.3017 25.679 15.361 25.5159 16.3545 25.1402L14.5857 20.4635ZM13.2137 20.679C12.4379 20.679 11.8308 20.5079 11.3263 20.2182L8.83692 24.5545C10.1733 25.3217 11.6542 25.679 13.2137 25.679V20.679ZM11.3306 20.2207C10.85 19.9436 10.4446 19.5364 10.1155 18.9176L5.70111 21.2657C6.43728 22.6497 7.48075 23.7723 8.83257 24.552L11.3306 20.2207ZM10.1194 18.9249C9.82331 18.3639 9.61568 17.5735 9.61568 16.4545H4.61568C4.61568 18.1821 4.93645 19.8165 5.69722 21.2583L10.1194 18.9249ZM9.61568 16.4545C9.61568 15.3356 9.82591 14.5491 10.1244 13.9924L5.71779 11.6297C4.94238 13.0759 4.61568 14.7184 4.61568 16.4545H9.61568ZM10.1244 13.9924C10.4558 13.3743 10.8627 12.9694 11.3443 12.6952L8.87006 8.35026C7.51074 9.12432 6.46023 10.2451 5.71779 11.6297L10.1244 13.9924ZM11.3518 12.6909C11.862 12.398 12.462 12.2301 13.2137 12.2301V7.23011C11.6642 7.23011 10.1932 7.59064 8.86249 8.35459L11.3518 12.6909ZM13.2137 12.2301C13.7364 12.2301 14.1729 12.3031 14.5419 12.4245L16.1043 7.6749C15.1778 7.37015 14.208 7.23011 13.2137 7.23011V12.2301ZM14.5465 12.426C14.924 12.5494 15.2263 12.7178 15.4776 12.9222L18.633 9.04367C17.8786 8.42992 17.0261 7.97615 16.0996 7.67339L14.5465 12.426ZM15.4875 12.9303C15.7205 13.1179 15.9169 13.3508 16.0794 13.6537L20.4858 11.2909C20.0176 10.4176 19.3958 9.65769 18.6231 9.03562L15.4875 12.9303ZM16.086 13.6661C16.2339 13.9382 16.356 14.2981 16.4134 14.7851L21.379 14.1993C21.2575 13.1692 20.9705 12.1825 20.4791 11.2785L16.086 13.6661ZM20.3824 12.1911H17.8824V14.6911H20.3824V12.1911ZM20.3824 9.90909V7.40909H17.8824V9.90909H20.3824ZM31.1338 9.90909H33.6338V7.40909H31.1338V9.90909ZM31.1338 12.1911V14.6911H33.6338V12.1911H31.1338ZM27.126 12.1911V9.69105H24.626V12.1911H27.126ZM27.126 23V25.5H29.626V23H27.126ZM24.3902 23H21.8902V25.5H24.3902V23ZM24.3902 12.1911H26.8902V9.69105H24.3902V12.1911ZM22.8824 12.1911V9.90909H17.8824V12.1911H22.8824ZM20.3824 12.4091H31.1338V7.40909H20.3824V12.4091ZM28.6338 9.90909V12.1911H33.6338V9.90909H28.6338ZM31.1338 9.69105H27.126V14.6911H31.1338V9.69105ZM24.626 12.1911V23H29.626V12.1911H24.626ZM27.126 20.5H24.3902V25.5H27.126V20.5ZM26.8902 23V12.1911H21.8902V23H26.8902ZM24.3902 9.69105H20.3824V14.6911H24.3902V9.69105ZM32.9044 23H30.4044V25.5H32.9044V23ZM32.9044 9.90909V7.40909H30.4044V9.90909H32.9044ZM40.6004 10.4396L39.4715 12.6702L39.4796 12.6743L39.4878 12.6784L40.6004 10.4396ZM42.2048 11.929L40.0324 13.1662L40.0373 13.1748L40.0422 13.1833L42.2048 11.929ZM42.1984 16.429L44.3396 17.7195L44.3434 17.7131L42.1984 16.429ZM40.5684 17.8608L39.5105 15.5957L39.5053 15.5981L40.5684 17.8608ZM34.5407 18.3594H32.0407V20.8594H34.5407V18.3594ZM34.5407 16.1349V13.6349H32.0407V16.1349H34.5407ZM38.8682 15.9176L39.8257 18.227L39.8257 18.227L38.8682 15.9176ZM39.648 15.2656L37.507 13.9748L37.5 13.9864L37.4932 13.9981L39.648 15.2656ZM39.648 13.0859L37.4774 14.3263L37.484 14.3379L37.4908 14.3494L39.648 13.0859ZM38.8618 12.4084L37.8336 14.6871L37.8502 14.6947L37.867 14.7019L38.8618 12.4084ZM35.6721 12.1719V9.67188H33.1721V12.1719H35.6721ZM35.6721 23V25.5H38.1721V23H35.6721ZM39.974 17.0426L42.1681 15.8443L41.4572 14.5426H39.974V17.0426ZM43.2275 23V25.5H47.4414L45.4216 21.8017L43.2275 23ZM40.1721 23L37.9672 24.1782L38.6735 25.5H40.1721V23ZM36.9889 17.0426V14.5426H32.8186L34.7839 18.2208L36.9889 17.0426ZM35.4044 23V9.90909H30.4044V23H35.4044ZM32.9044 12.4091H38.0692V7.40909H32.9044V12.4091ZM38.0692 12.4091C38.7658 12.4091 39.2022 12.534 39.4715 12.6702L41.7293 8.20903C40.6008 7.63792 39.3498 7.40909 38.0692 7.40909V12.4091ZM39.4878 12.6784C39.7743 12.8208 39.927 12.9811 40.0324 13.1662L44.3772 10.6917C43.7497 9.5899 42.8328 8.75736 41.713 8.20086L39.4878 12.6784ZM40.0422 13.1833C40.1568 13.3807 40.2609 13.685 40.2609 14.1854H45.2609C45.2609 12.9557 44.9943 11.7556 44.3674 10.6747L40.0422 13.1833ZM40.2609 14.1854C40.2609 14.6892 40.1552 14.9748 40.0534 15.1449L44.3434 17.7131C44.9916 16.6303 45.2609 15.4201 45.2609 14.1854H40.2609ZM40.0573 15.1384C39.9595 15.3006 39.8106 15.4555 39.5105 15.5957L41.6264 20.1259C42.7496 19.6013 43.6873 18.8017 44.3396 17.7195L40.0573 15.1384ZM39.5053 15.5981C39.2116 15.7361 38.7385 15.8594 37.9988 15.8594V20.8594C39.2705 20.8594 40.5105 20.6502 41.6316 20.1235L39.5053 15.5981ZM37.9988 15.8594H34.5407V20.8594H37.9988V15.8594ZM37.0407 18.3594V16.1349H32.0407V18.3594H37.0407ZM34.5407 18.6349H37.5514V13.6349H34.5407V18.6349ZM37.5514 18.6349C38.2872 18.6349 39.0778 18.5371 39.8257 18.227L37.9106 13.6083C37.9405 13.5959 37.9325 13.6036 37.8698 13.614C37.8071 13.6243 37.7038 13.6349 37.5514 13.6349V18.6349ZM39.8257 18.227C40.6109 17.9014 41.3229 17.349 41.8028 16.5332L37.4932 13.9981C37.5543 13.8942 37.6337 13.8015 37.7216 13.728C37.8071 13.6565 37.8783 13.6216 37.9106 13.6083L39.8257 18.227ZM41.7889 16.5565C42.2545 15.7844 42.4101 14.9487 42.4101 14.1854H37.4101C37.4101 14.2829 37.391 14.1673 37.507 13.9748L41.7889 16.5565ZM42.4101 14.1854C42.4101 13.4194 42.2553 12.5908 41.8052 11.8224L37.4908 14.3494C37.3901 14.1776 37.4101 14.082 37.4101 14.1854H42.4101ZM41.8186 11.8456C41.3478 11.0217 40.6422 10.4556 39.8566 10.1148L37.867 14.7019C37.8386 14.6896 37.772 14.6559 37.6916 14.5866C37.6088 14.5153 37.5342 14.4257 37.4774 14.3263L41.8186 11.8456ZM39.89 10.1296C39.1173 9.78098 38.2966 9.67188 37.5386 9.67188V14.6719C37.6842 14.6719 37.7778 14.6828 37.829 14.692C37.8798 14.7011 37.8751 14.7059 37.8336 14.6871L39.89 10.1296ZM37.5386 9.67188H35.6721V14.6719H37.5386V9.67188ZM33.1721 12.1719V23H38.1721V12.1719H33.1721ZM35.6721 20.5H32.9044V25.5H35.6721V20.5ZM37.7799 18.2409L41.0334 24.1983L45.4216 21.8017L42.1681 15.8443L37.7799 18.2409ZM43.2275 20.5H40.1721V25.5H43.2275V20.5ZM42.3771 21.8218L39.1939 15.8644L34.7839 18.2208L37.9672 24.1782L42.3771 21.8218ZM36.9889 19.5426H39.974V14.5426H36.9889V19.5426ZM44.7169 23H42.2169V25.5H44.7169V23ZM44.7169 9.90909V7.40909H42.2169V9.90909H44.7169ZM47.4846 9.90909H49.9846V7.40909H47.4846V9.90909ZM47.4846 20.718H44.9846V23.218H47.4846V20.718ZM53.0969 20.718H55.5969V18.218H53.0969V20.718ZM53.0969 23V25.5H55.5969V23H53.0969ZM47.2169 23V9.90909H42.2169V23H47.2169ZM44.7169 12.4091H47.4846V7.40909H44.7169V12.4091ZM44.9846 9.90909V20.718H49.9846V9.90909H44.9846ZM47.4846 23.218H53.0969V18.218H47.4846V23.218ZM50.5969 20.718V23H55.5969V20.718H50.5969ZM53.0969 20.5H44.7169V25.5H53.0969V20.5Z" fill="white" mask="url(#path-2-inside-1_1_1834)"/>
</g>
<defs>
<clipPath id="clip0_1_1834">
<rect width="60" height="32" fill="white"/>
</clipPath>
</defs>
</svg>
