<svg width="32" height="32" viewBox="0 0 32 32" fill="none" xmlns="http://www.w3.org/2000/svg">
<g clip-path="url(#clip0_1_1799)">
<rect width="32" height="32" rx="8" fill="black"/>
<mask id="path-2-inside-1_1_1799" fill="white">
<path d="M15.1451 23H9.98881V8.45455H15.1877C16.6507 8.45455 17.9102 8.74574 18.9661 9.32812C20.022 9.90578 20.834 10.7367 21.4022 11.821C21.9751 12.9053 22.2615 14.2027 22.2615 15.7131C22.2615 17.2282 21.9751 18.5303 21.4022 19.6193C20.834 20.7083 20.0172 21.544 18.9519 22.1264C17.8913 22.7088 16.6223 23 15.1451 23ZM13.0641 20.3651H15.0172C15.9263 20.3651 16.691 20.2041 17.3113 19.8821C17.9363 19.5554 18.405 19.0511 18.7175 18.3693C19.0347 17.6828 19.1934 16.7973 19.1934 15.7131C19.1934 14.6383 19.0347 13.7599 18.7175 13.0781C18.405 12.3963 17.9386 11.8944 17.3184 11.5724C16.6981 11.2505 15.9334 11.0895 15.0243 11.0895H13.0641V20.3651Z"/>
</mask>
<path d="M9.98881 23H7.48881V25.5H9.98881V23ZM9.98881 8.45455V5.95455H7.48881V8.45455H9.98881ZM18.9661 9.32812L17.7586 11.5172L17.7662 11.5214L18.9661 9.32812ZM21.4022 11.821L19.1878 12.9814L19.1918 12.989L21.4022 11.821ZM21.4022 19.6193L19.1896 18.4553L19.1857 18.4629L21.4022 19.6193ZM18.9519 22.1264L17.7527 19.9328L17.7486 19.9351L18.9519 22.1264ZM13.0641 20.3651H10.5641V22.8651H13.0641V20.3651ZM17.3113 19.8821L18.463 22.101L18.4694 22.0977L17.3113 19.8821ZM18.7175 18.3693L16.4481 17.3207L16.4448 17.3277L18.7175 18.3693ZM18.7175 13.0781L16.4448 14.1198L16.4478 14.1263L16.4508 14.1328L18.7175 13.0781ZM17.3184 11.5724L18.4701 9.35357L18.4701 9.35357L17.3184 11.5724ZM13.0641 11.0895V8.58949H10.5641V11.0895H13.0641ZM15.1451 20.5H9.98881V25.5H15.1451V20.5ZM12.4888 23V8.45455H7.48881V23H12.4888ZM9.98881 10.9545H15.1877V5.95455H9.98881V10.9545ZM15.1877 10.9545C16.318 10.9545 17.1437 11.178 17.7587 11.5172L20.1735 7.13904C18.6767 6.31344 16.9835 5.95455 15.1877 5.95455V10.9545ZM17.7662 11.5214C18.3816 11.8581 18.8443 12.326 19.1878 12.9814L23.6166 10.6606C22.8236 9.1475 21.6623 7.9535 20.166 7.13489L17.7662 11.5214ZM19.1918 12.989C19.5354 13.6392 19.7615 14.5168 19.7615 15.7131H24.7615C24.7615 13.8885 24.4148 12.1714 23.6126 10.6531L19.1918 12.989ZM19.7615 15.7131C19.7615 16.9151 19.535 17.799 19.1897 18.4553L23.6147 20.7833C24.4152 19.2616 24.7615 17.5413 24.7615 15.7131H19.7615ZM19.1857 18.4629C18.8436 19.1186 18.3784 19.5908 17.7527 19.9328L20.1511 24.32C21.6561 23.4973 22.8244 22.2981 23.6186 20.7757L19.1857 18.4629ZM17.7486 19.9351C17.1298 20.2748 16.2938 20.5 15.1451 20.5V25.5C16.9509 25.5 18.6527 25.1428 20.1552 24.3178L17.7486 19.9351ZM13.0641 22.8651H15.0172V17.8651H13.0641V22.8651ZM15.0172 22.8651C16.2106 22.8651 17.3962 22.6548 18.463 22.101L16.1595 17.6632C15.9858 17.7534 15.642 17.8651 15.0172 17.8651V22.8651ZM18.4694 22.0977C19.6182 21.4972 20.4623 20.5626 20.9902 19.411L16.4448 17.3277C16.3477 17.5397 16.2543 17.6136 16.1531 17.6665L18.4694 22.0977ZM20.9869 19.418C21.5071 18.2922 21.6934 17.014 21.6934 15.7131H16.6934C16.6934 16.5807 16.5624 17.0733 16.4481 17.3207L20.9869 19.418ZM21.6934 15.7131C21.6934 14.4191 21.5064 13.1459 20.9842 12.0235L16.4508 14.1328C16.5631 14.374 16.6934 14.8575 16.6934 15.7131H21.6934ZM20.9902 12.0365C20.4638 10.8879 19.622 9.95151 18.4701 9.35357L16.1666 13.7913C16.2552 13.8373 16.3463 13.9047 16.4448 14.1198L20.9902 12.0365ZM18.4701 9.35357C17.4033 8.79977 16.2177 8.58949 15.0243 8.58949V13.5895C15.6491 13.5895 15.9929 13.7012 16.1666 13.7913L18.4701 9.35357ZM15.0243 8.58949H13.0641V13.5895H15.0243V8.58949ZM10.5641 11.0895V20.3651H15.5641V11.0895H10.5641Z" fill="white" mask="url(#path-2-inside-1_1_1799)"/>
</g>
<defs>
<clipPath id="clip0_1_1799">
<rect width="32" height="32" fill="white"/>
</clipPath>
</defs>
</svg>
