<svg width="32" height="32" viewBox="0 0 32 32" fill="none" xmlns="http://www.w3.org/2000/svg">
<g clip-path="url(#clip0_1_1803)">
<rect width="32" height="32" rx="8" fill="black"/>
<mask id="path-2-inside-1_1_1803" fill="white">
<path d="M11.1412 23V8.45455H20.9423V10.9901H14.2164V14.456H20.438V16.9915H14.2164V20.4645H20.9707V23H11.1412Z"/>
</mask>
<path d="M11.1412 23H8.64116V25.5H11.1412V23ZM11.1412 8.45455V5.95455H8.64116V8.45455H11.1412ZM20.9423 8.45455H23.4423V5.95455H20.9423V8.45455ZM20.9423 10.9901V13.4901H23.4423V10.9901H20.9423ZM14.2164 10.9901V8.49006H11.7164V10.9901H14.2164ZM14.2164 14.456H11.7164V16.956H14.2164V14.456ZM20.438 14.456H22.938V11.956H20.438V14.456ZM20.438 16.9915V19.4915H22.938V16.9915H20.438ZM14.2164 16.9915V14.4915H11.7164V16.9915H14.2164ZM14.2164 20.4645H11.7164V22.9645H14.2164V20.4645ZM20.9707 20.4645H23.4707V17.9645H20.9707V20.4645ZM20.9707 23V25.5H23.4707V23H20.9707ZM13.6412 23V8.45455H8.64116V23H13.6412ZM11.1412 10.9545H20.9423V5.95455H11.1412V10.9545ZM18.4423 8.45455V10.9901H23.4423V8.45455H18.4423ZM20.9423 8.49006H14.2164V13.4901H20.9423V8.49006ZM11.7164 10.9901V14.456H16.7164V10.9901H11.7164ZM14.2164 16.956H20.438V11.956H14.2164V16.956ZM17.938 14.456V16.9915H22.938V14.456H17.938ZM20.438 14.4915H14.2164V19.4915H20.438V14.4915ZM11.7164 16.9915V20.4645H16.7164V16.9915H11.7164ZM14.2164 22.9645H20.9707V17.9645H14.2164V22.9645ZM18.4707 20.4645V23H23.4707V20.4645H18.4707ZM20.9707 20.5H11.1412V25.5H20.9707V20.5Z" fill="white" mask="url(#path-2-inside-1_1_1803)"/>
</g>
<defs>
<clipPath id="clip0_1_1803">
<rect width="32" height="32" fill="white"/>
</clipPath>
</defs>
</svg>
