<svg width="49" height="32" viewBox="0 0 49 32" fill="none" xmlns="http://www.w3.org/2000/svg">
<g clip-path="url(#clip0_202_38)">
<rect width="49" height="32" rx="8" fill="black"/>
<mask id="path-2-inside-1_202_38" fill="white">
<path d="M6.46103 23V9.90909H15.282V12.1911H9.22878V15.3104H14.8282V17.5923H9.22878V20.718H15.3076V23H6.46103ZM28.4321 9.90909V23H26.0415L20.3461 14.7607H20.2503V23H17.4825V9.90909H19.9115L25.5621 18.142H25.6771V9.90909H28.4321ZM35.3595 23H30.7188V9.90909H35.3978C36.7146 9.90909 37.8481 10.1712 38.7984 10.6953C39.7487 11.2152 40.4795 11.9631 40.9909 12.9389C41.5065 13.9148 41.7643 15.0824 41.7643 16.4418C41.7643 17.8054 41.5065 18.9773 40.9909 19.9574C40.4795 20.9375 39.7444 21.6896 38.7856 22.2138C37.8311 22.7379 36.689 23 35.3595 23ZM33.4866 20.6286H35.2444C36.0626 20.6286 36.7508 20.4837 37.309 20.1939C37.8715 19.8999 38.2934 19.446 38.5747 18.8324C38.8602 18.2145 39.0029 17.4176 39.0029 16.4418C39.0029 15.4744 38.8602 14.6839 38.5747 14.0703C38.2934 13.4567 37.8737 13.005 37.3154 12.7152C36.7572 12.4254 36.069 12.2805 35.2508 12.2805H33.4866V20.6286Z"/>
</mask>
<path d="M6.46103 23H3.96103V25.5H6.46103V23ZM6.46103 9.90909V7.40909H3.96103V9.90909H6.46103ZM15.282 9.90909H17.782V7.40909H15.282V9.90909ZM15.282 12.1911V14.6911H17.782V12.1911H15.282ZM9.22878 12.1911V9.69105H6.72878V12.1911H9.22878ZM9.22878 15.3104H6.72878V17.8104H9.22878V15.3104ZM14.8282 15.3104H17.3282V12.8104H14.8282V15.3104ZM14.8282 17.5923V20.0923H17.3282V17.5923H14.8282ZM9.22878 17.5923V15.0923H6.72878V17.5923H9.22878ZM9.22878 20.718H6.72878V23.218H9.22878V20.718ZM15.3076 20.718H17.8076V18.218H15.3076V20.718ZM15.3076 23V25.5H17.8076V23H15.3076ZM8.96103 23V9.90909H3.96103V23H8.96103ZM6.46103 12.4091H15.282V7.40909H6.46103V12.4091ZM12.782 9.90909V12.1911H17.782V9.90909H12.782ZM15.282 9.69105H9.22878V14.6911H15.282V9.69105ZM6.72878 12.1911V15.3104H11.7288V12.1911H6.72878ZM9.22878 17.8104H14.8282V12.8104H9.22878V17.8104ZM12.3282 15.3104V17.5923H17.3282V15.3104H12.3282ZM14.8282 15.0923H9.22878V20.0923H14.8282V15.0923ZM6.72878 17.5923V20.718H11.7288V17.5923H6.72878ZM9.22878 23.218H15.3076V18.218H9.22878V23.218ZM12.8076 20.718V23H17.8076V20.718H12.8076ZM15.3076 20.5H6.46103V25.5H15.3076V20.5ZM28.4321 9.90909H30.9321V7.40909H28.4321V9.90909ZM28.4321 23V25.5H30.9321V23H28.4321ZM26.0415 23L23.9849 24.4215L24.7304 25.5H26.0415V23ZM20.3461 14.7607L22.4027 13.3391L21.6572 12.2607H20.3461V14.7607ZM20.2503 14.7607V12.2607H17.7503V14.7607H20.2503ZM20.2503 23V25.5H22.7503V23H20.2503ZM17.4825 23H14.9825V25.5H17.4825V23ZM17.4825 9.90909V7.40909H14.9825V9.90909H17.4825ZM19.9115 9.90909L21.9727 8.4944L21.2278 7.40909H19.9115V9.90909ZM25.5621 18.142L23.5008 19.5567L24.2457 20.642H25.5621V18.142ZM25.6771 18.142V20.642H28.1771V18.142H25.6771ZM25.6771 9.90909V7.40909H23.1771V9.90909H25.6771ZM25.9321 9.90909V23H30.9321V9.90909H25.9321ZM28.4321 20.5H26.0415V25.5H28.4321V20.5ZM28.098 21.5785L22.4027 13.3391L18.2896 16.1822L23.9849 24.4215L28.098 21.5785ZM20.3461 12.2607H20.2503V17.2607H20.3461V12.2607ZM17.7503 14.7607V23H22.7503V14.7607H17.7503ZM20.2503 20.5H17.4825V25.5H20.2503V20.5ZM19.9825 23V9.90909H14.9825V23H19.9825ZM17.4825 12.4091H19.9115V7.40909H17.4825V12.4091ZM17.8503 11.3238L23.5008 19.5567L27.6233 16.7274L21.9727 8.4944L17.8503 11.3238ZM25.5621 20.642H25.6771V15.642H25.5621V20.642ZM28.1771 18.142V9.90909H23.1771V18.142H28.1771ZM25.6771 12.4091H28.4321V7.40909H25.6771V12.4091ZM30.7188 23H28.2188V25.5H30.7188V23ZM30.7188 9.90909V7.40909H28.2188V9.90909H30.7188ZM38.7984 10.6953L37.5909 12.8844L37.5985 12.8885L38.7984 10.6953ZM40.9909 12.9389L38.7765 14.0993L38.7804 14.1069L40.9909 12.9389ZM40.9909 19.9574L38.7783 18.7934L38.7744 18.801L40.9909 19.9574ZM38.7856 22.2138L37.5864 20.0202L37.5823 20.0224L38.7856 22.2138ZM33.4866 20.6286H30.9866V23.1286H33.4866V20.6286ZM37.309 20.1939L38.4608 22.4128L38.4672 22.4095L37.309 20.1939ZM38.5747 18.8324L36.3052 17.7837L36.302 17.7907L38.5747 18.8324ZM38.5747 14.0703L36.302 15.1119L36.305 15.1185L36.308 15.1249L38.5747 14.0703ZM37.3154 12.7152L38.4672 10.4963L38.4672 10.4963L37.3154 12.7152ZM33.4866 12.2805V9.78054H30.9866V12.2805H33.4866ZM35.3595 20.5H30.7188V25.5H35.3595V20.5ZM33.2188 23V9.90909H28.2188V23H33.2188ZM30.7188 12.4091H35.3978V7.40909H30.7188V12.4091ZM35.3978 12.4091C36.3818 12.4091 37.0816 12.6035 37.591 12.8844L40.0058 8.50623C38.6146 7.73887 37.0473 7.40909 35.3978 7.40909V12.4091ZM37.5985 12.8885C38.1083 13.1675 38.4898 13.5523 38.7765 14.0993L43.2052 11.7785C42.4691 10.3738 41.389 9.26292 39.9983 8.50208L37.5985 12.8885ZM38.7804 14.1069C39.0668 14.6487 39.2643 15.3965 39.2643 16.4418H44.2643C44.2643 14.7682 43.9462 13.1808 43.2013 11.771L38.7804 14.1069ZM39.2643 16.4418C39.2643 17.4923 39.0664 18.246 38.7784 18.7934L43.2034 21.1214C43.9466 19.7086 44.2643 18.1185 44.2643 16.4418H39.2643ZM38.7744 18.801C38.4891 19.3477 38.1056 19.7364 37.5864 20.0202L39.9848 24.4074C41.3833 23.6429 42.4699 22.5273 43.2073 21.1138L38.7744 18.801ZM37.5823 20.0224C37.0696 20.3039 36.3605 20.5 35.3595 20.5V25.5C37.0176 25.5 38.5925 25.1719 39.9889 24.4051L37.5823 20.0224ZM33.4866 23.1286H35.2444V18.1286H33.4866V23.1286ZM35.2444 23.1286C36.3469 23.1286 37.456 22.9344 38.4608 22.4128L36.1573 17.975C36.0456 18.033 35.7783 18.1286 35.2444 18.1286V23.1286ZM38.4672 22.4095C39.5535 21.8416 40.3507 20.9575 40.8473 19.874L36.302 17.7907C36.2361 17.9345 36.1896 17.9581 36.1509 17.9783L38.4672 22.4095ZM40.8441 19.881C41.3326 18.8239 41.5029 17.6342 41.5029 16.4418H36.5029C36.5029 17.201 36.3878 17.6051 36.3052 17.7837L40.8441 19.881ZM41.5029 16.4418C41.5029 15.2552 41.3318 14.0699 40.8413 13.0157L36.308 15.1249C36.3885 15.298 36.5029 15.6936 36.5029 16.4418H41.5029ZM40.8473 13.0287C40.3522 11.9483 39.5571 11.0621 38.4672 10.4963L36.1636 14.9341C36.1902 14.9479 36.2347 14.965 36.302 15.1119L40.8473 13.0287ZM38.4672 10.4963C37.4624 9.97472 36.3533 9.78054 35.2508 9.78054V14.7805C35.7847 14.7805 36.052 14.8761 36.1636 14.9341L38.4672 10.4963ZM35.2508 9.78054H33.4866V14.7805H35.2508V9.78054ZM30.9866 12.2805V20.6286H35.9866V12.2805H30.9866Z" fill="white" mask="url(#path-2-inside-1_202_38)"/>
</g>
<defs>
<clipPath id="clip0_202_38">
<rect width="49" height="32" fill="white"/>
</clipPath>
</defs>
</svg>
