<svg width="49" height="32" viewBox="0 0 49 32" fill="none" xmlns="http://www.w3.org/2000/svg">
<g clip-path="url(#clip0_1_1826)">
<rect width="49" height="32" rx="8" fill="black"/>
<mask id="path-2-inside-1_1_1826" fill="white">
<path d="M7.462 23V9.90909H16.283V12.1911H10.2298V15.3104H15.8292V17.5923H10.2298V20.718H16.3086V23H7.462ZM25.5851 13.674C25.5339 13.1584 25.3145 12.7578 24.9267 12.4723C24.5389 12.1868 24.0126 12.044 23.3478 12.044C22.8961 12.044 22.5147 12.108 22.2037 12.2358C21.8926 12.3594 21.6539 12.532 21.4877 12.7536C21.3258 12.9751 21.2449 13.2266 21.2449 13.5078C21.2363 13.7422 21.2853 13.9467 21.3919 14.1214C21.5027 14.2962 21.6539 14.4474 21.8457 14.5753C22.0375 14.6989 22.2591 14.8075 22.5105 14.9013C22.7619 14.9908 23.0304 15.0675 23.3159 15.1314L24.492 15.4126C25.063 15.5405 25.5872 15.7109 26.0645 15.924C26.5417 16.1371 26.9551 16.3991 27.3045 16.7102C27.6539 17.0213 27.9245 17.3878 28.1163 17.8097C28.3123 18.2315 28.4125 18.7152 28.4167 19.2607C28.4125 20.0618 28.2079 20.7564 27.8031 21.3445C27.4025 21.9283 26.823 22.3821 26.0645 22.706C25.3102 23.0256 24.4004 23.1854 23.3351 23.1854C22.2782 23.1854 21.3578 23.0234 20.5737 22.6996C19.7939 22.3757 19.1845 21.8963 18.7456 21.2614C18.3109 20.6222 18.0829 19.8317 18.0616 18.8899H20.7399C20.7697 19.3288 20.8954 19.6953 21.117 19.9893C21.3429 20.2791 21.6433 20.4986 22.0183 20.6477C22.3975 20.7926 22.8258 20.8651 23.3031 20.8651C23.7718 20.8651 24.1788 20.7969 24.524 20.6605C24.8734 20.5241 25.144 20.3345 25.3358 20.0916C25.5275 19.8487 25.6234 19.5696 25.6234 19.2543C25.6234 18.9602 25.536 18.7131 25.3613 18.5128C25.1909 18.3125 24.9395 18.142 24.6071 18.0014C24.2789 17.8608 23.8762 17.733 23.399 17.6179L21.9735 17.2599C20.8699 16.9915 19.9984 16.5717 19.3592 16.0007C18.72 15.4297 18.4025 14.6605 18.4068 13.6932C18.4025 12.9006 18.6135 12.2081 19.0396 11.6158C19.47 11.0234 20.0602 10.5611 20.8102 10.2287C21.5602 9.89631 22.4125 9.73011 23.367 9.73011C24.3386 9.73011 25.1866 9.89631 25.911 10.2287C26.6397 10.5611 27.2065 11.0234 27.6113 11.6158C28.0162 12.2081 28.225 12.8942 28.2377 13.674H25.5851ZM41.8288 14.4922H39.0291C38.978 14.13 38.8736 13.8082 38.7159 13.527C38.5582 13.2415 38.3558 12.9986 38.1087 12.7983C37.8615 12.598 37.576 12.4446 37.2521 12.3381C36.9325 12.2315 36.5852 12.1783 36.2102 12.1783C35.5327 12.1783 34.9425 12.3466 34.4396 12.6832C33.9368 13.0156 33.5469 13.5014 33.2699 14.1406C32.9929 14.7756 32.8544 15.5469 32.8544 16.4545C32.8544 17.3878 32.9929 18.1719 33.2699 18.8068C33.5511 19.4418 33.9432 19.9212 34.446 20.245C34.9489 20.5689 35.5305 20.7308 36.1911 20.7308C36.5618 20.7308 36.9048 20.6818 37.2202 20.5838C37.5398 20.4858 37.8232 20.343 38.0703 20.1555C38.3175 19.9638 38.522 19.7315 38.6839 19.4588C38.8501 19.1861 38.9652 18.875 39.0291 18.5256L41.8288 18.5384C41.7564 19.1392 41.5753 19.7188 41.2855 20.277C41 20.831 40.6143 21.3274 40.1286 21.7663C39.647 22.201 39.0717 22.5462 38.4027 22.8018C37.7379 23.0533 36.9858 23.179 36.1463 23.179C34.9787 23.179 33.9347 22.9148 33.0142 22.3864C32.098 21.858 31.3736 21.093 30.8409 20.0916C30.3125 19.0902 30.0483 17.8778 30.0483 16.4545C30.0483 15.027 30.3168 13.8125 30.8537 12.8111C31.3906 11.8097 32.1193 11.0469 33.0398 10.5227C33.9602 9.99432 34.9957 9.73011 36.1463 9.73011C36.9048 9.73011 37.608 9.83665 38.2557 10.0497C38.9077 10.2628 39.4851 10.5739 39.9879 10.983C40.4908 11.3878 40.8999 11.8842 41.2152 12.4723C41.5348 13.0604 41.7393 13.7337 41.8288 14.4922Z"/>
</mask>
<path d="M7.462 23H4.962V25.5H7.462V23ZM7.462 9.90909V7.40909H4.962V9.90909H7.462ZM16.283 9.90909H18.783V7.40909H16.283V9.90909ZM16.283 12.1911V14.6911H18.783V12.1911H16.283ZM10.2298 12.1911V9.69105H7.72976V12.1911H10.2298ZM10.2298 15.3104H7.72976V17.8104H10.2298V15.3104ZM15.8292 15.3104H18.3292V12.8104H15.8292V15.3104ZM15.8292 17.5923V20.0923H18.3292V17.5923H15.8292ZM10.2298 17.5923V15.0923H7.72976V17.5923H10.2298ZM10.2298 20.718H7.72976V23.218H10.2298V20.718ZM16.3086 20.718H18.8086V18.218H16.3086V20.718ZM16.3086 23V25.5H18.8086V23H16.3086ZM9.962 23V9.90909H4.962V23H9.962ZM7.462 12.4091H16.283V7.40909H7.462V12.4091ZM13.783 9.90909V12.1911H18.783V9.90909H13.783ZM16.283 9.69105H10.2298V14.6911H16.283V9.69105ZM7.72976 12.1911V15.3104H12.7298V12.1911H7.72976ZM10.2298 17.8104H15.8292V12.8104H10.2298V17.8104ZM13.3292 15.3104V17.5923H18.3292V15.3104H13.3292ZM15.8292 15.0923H10.2298V20.0923H15.8292V15.0923ZM7.72976 17.5923V20.718H12.7298V17.5923H7.72976ZM10.2298 23.218H16.3086V18.218H10.2298V23.218ZM13.8086 20.718V23H18.8086V20.718H13.8086ZM16.3086 20.5H7.462V25.5H16.3086V20.5ZM25.5851 13.674L23.0973 13.9207L23.3207 16.174H25.5851V13.674ZM22.2037 12.2358L23.1266 14.5592L23.1403 14.5537L23.1539 14.5481L22.2037 12.2358ZM21.4877 12.7536L19.4878 11.2535L19.4784 11.266L19.4693 11.2785L21.4877 12.7536ZM21.2449 13.5078L23.7432 13.5987L23.7449 13.5533V13.5078H21.2449ZM21.3919 14.1214L19.2574 15.423L19.2688 15.4417L19.2806 15.4603L21.3919 14.1214ZM21.8457 14.5753L20.459 16.6554L20.4751 16.6662L20.4915 16.6767L21.8457 14.5753ZM22.5105 14.9013L21.637 17.2437L21.6545 17.2503L21.6722 17.2565L22.5105 14.9013ZM23.3159 15.1314L23.8973 12.6999L23.8797 12.6957L23.8621 12.6918L23.3159 15.1314ZM24.492 15.4126L23.9106 17.8441L23.9282 17.8483L23.9458 17.8522L24.492 15.4126ZM26.0645 15.924L25.0453 18.2069L26.0645 15.924ZM27.3045 16.7102L28.9668 14.843V14.843L27.3045 16.7102ZM28.1163 17.8097L25.8404 18.8442L25.8447 18.8537L25.8491 18.8631L28.1163 17.8097ZM28.4167 19.2607L30.9167 19.2739L30.9168 19.2575L30.9166 19.2411L28.4167 19.2607ZM27.8031 21.3445L25.7439 19.9269L25.7417 19.9301L27.8031 21.3445ZM26.0645 22.706L27.0398 25.0079L27.0461 25.0052L26.0645 22.706ZM20.5737 22.6996L19.6148 25.0084L19.6193 25.0102L20.5737 22.6996ZM18.7456 21.2614L16.6782 22.6671L16.6836 22.6751L16.6891 22.683L18.7456 21.2614ZM18.0616 18.8899V16.3899H15.5044L15.5623 18.9465L18.0616 18.8899ZM20.7399 18.8899L23.2341 18.7204L23.0757 16.3899H20.7399V18.8899ZM21.117 19.9893L19.1205 21.494L19.1327 21.5102L19.1452 21.5262L21.117 19.9893ZM22.0183 20.6477L21.0944 22.9707L21.1102 22.977L21.1261 22.9831L22.0183 20.6477ZM24.524 20.6605L23.6151 18.3315L23.6054 18.3354L24.524 20.6605ZM25.3358 20.0916L27.298 21.6407V21.6407L25.3358 20.0916ZM25.3613 18.5128L23.4575 20.1331L23.4674 20.1447L23.4774 20.1562L25.3613 18.5128ZM24.6071 18.0014L23.6223 20.2993L23.633 20.3038L24.6071 18.0014ZM23.399 17.6179L22.7901 20.0426L22.8016 20.0455L22.8131 20.0483L23.399 17.6179ZM21.9735 17.2599L22.5824 14.8352L22.5734 14.833L22.5644 14.8308L21.9735 17.2599ZM19.3592 16.0007L17.6937 17.8651H17.6937L19.3592 16.0007ZM18.4068 13.6932L20.9068 13.7042L20.9068 13.692L20.9067 13.6797L18.4068 13.6932ZM19.0396 11.6158L17.0171 10.1462L17.0102 10.1558L19.0396 11.6158ZM25.911 10.2287L24.8685 12.5009L24.8735 12.5032L25.911 10.2287ZM27.6113 11.6158L25.5473 13.0264L25.5473 13.0264L27.6113 11.6158ZM28.2377 13.674V16.174H30.7791L30.7374 13.633L28.2377 13.674ZM28.0728 13.4273C27.9578 12.2672 27.4139 11.199 26.4089 10.4591L23.4444 14.4855C23.3616 14.4245 23.2642 14.3242 23.1896 14.1881C23.1173 14.0562 23.1004 13.9529 23.0973 13.9207L28.0728 13.4273ZM26.4089 10.4591C25.4553 9.75703 24.3474 9.54403 23.3478 9.54403V14.544C23.5056 14.544 23.5774 14.5614 23.5866 14.5639C23.5907 14.565 23.5301 14.5486 23.4444 14.4855L26.4089 10.4591ZM23.3478 9.54403C22.6755 9.54403 21.9501 9.63711 21.2534 9.92345L23.1539 14.5481C23.1133 14.5648 23.1029 14.5632 23.1362 14.5576C23.1699 14.5519 23.238 14.544 23.3478 14.544V9.54403ZM21.2807 9.91242C20.6312 10.1704 19.9829 10.5934 19.4878 11.2535L23.4877 14.2536C23.325 14.4705 23.154 14.5483 23.1266 14.5592L21.2807 9.91242ZM19.4693 11.2785C18.9862 11.9395 18.7449 12.7103 18.7449 13.5078H23.7449C23.7449 13.6104 23.7295 13.7371 23.6852 13.8746C23.6407 14.0128 23.5765 14.1324 23.5062 14.2286L19.4693 11.2785ZM18.7465 13.417C18.7228 14.0675 18.8599 14.7711 19.2574 15.423L23.5264 12.8199C23.7108 13.1224 23.7498 13.4169 23.7432 13.5987L18.7465 13.417ZM19.2806 15.4603C19.5987 15.962 20.0098 16.356 20.459 16.6554L23.2325 12.4952C23.2981 12.5389 23.4066 12.6303 23.5031 12.7826L19.2806 15.4603ZM20.4915 16.6767C20.858 16.913 21.2458 17.0978 21.637 17.2437L23.3839 12.5588C23.2723 12.5172 23.2169 12.4848 23.2 12.4739L20.4915 16.6767ZM21.6722 17.2565C22.0278 17.3831 22.3945 17.487 22.7697 17.571L23.8621 12.6918C23.6662 12.6479 23.496 12.5984 23.3488 12.546L21.6722 17.2565ZM22.7344 17.5628L23.9106 17.8441L25.0734 12.9812L23.8973 12.6999L22.7344 17.5628ZM23.9458 17.8522C24.3734 17.948 24.7369 18.0692 25.0453 18.2069L27.0836 13.6412C26.4375 13.3527 25.7527 13.133 25.0382 12.973L23.9458 17.8522ZM25.0453 18.2069C25.3153 18.3274 25.5056 18.4559 25.6422 18.5775L28.9668 14.843C28.4046 14.3424 27.7682 13.9468 27.0836 13.6412L25.0453 18.2069ZM25.6422 18.5775C25.7338 18.6591 25.7943 18.7427 25.8404 18.8442L30.3922 16.7752C30.0548 16.0328 29.5741 15.3835 28.9668 14.843L25.6422 18.5775ZM25.8491 18.8631C25.8708 18.9098 25.9149 19.031 25.9168 19.2802L30.9166 19.2411C30.9101 18.3994 30.7539 17.5533 30.3835 16.7562L25.8491 18.8631ZM25.9168 19.2474C25.9148 19.6104 25.8301 19.8015 25.7439 19.9269L29.8623 22.762C30.5857 21.7113 30.9101 20.5132 30.9167 19.2739L25.9168 19.2474ZM25.7417 19.9301C25.6515 20.0614 25.4781 20.238 25.0828 20.4068L27.0461 25.0052C28.1679 24.5262 29.1535 23.7951 29.8645 22.7589L25.7417 19.9301ZM25.0891 20.4041C24.721 20.56 24.1614 20.6854 23.3351 20.6854V25.6854C24.6394 25.6854 25.8994 25.4911 27.0398 25.0078L25.0891 20.4041ZM23.3351 20.6854C22.5279 20.6854 21.9451 20.5612 21.5281 20.3889L19.6193 25.0102C20.7705 25.4857 22.0286 25.6854 23.3351 25.6854V20.6854ZM21.5325 20.3908C21.1529 20.2331 20.9424 20.0428 20.802 19.8398L16.6891 22.683C17.4266 23.7498 18.4348 24.5183 19.6148 25.0084L21.5325 20.3908ZM20.8129 19.8556C20.7034 19.6946 20.5738 19.3993 20.561 18.8334L15.5623 18.9465C15.5921 20.2641 15.9184 21.5497 16.6782 22.6671L20.8129 19.8556ZM18.0616 21.3899H20.7399V16.3899H18.0616V21.3899ZM18.2456 19.0594C18.3019 19.8866 18.5542 20.7426 19.1205 21.494L23.1135 18.4847C23.1694 18.5588 23.2032 18.63 23.2213 18.6828C23.2384 18.7326 23.2362 18.7502 23.2341 18.7204L18.2456 19.0594ZM19.1452 21.5262C19.6707 22.2004 20.3482 22.674 21.0944 22.9707L22.9422 18.3247C22.934 18.3214 22.9529 18.328 22.9864 18.3525C23.021 18.3778 23.0574 18.4121 23.0888 18.4525L19.1452 21.5262ZM21.1261 22.9831C21.8355 23.2541 22.5734 23.3651 23.3031 23.3651V18.3651C23.0783 18.3651 22.9596 18.3311 22.9105 18.3123L21.1261 22.9831ZM23.3031 23.3651C24.0069 23.3651 24.7391 23.2635 25.4425 22.9856L23.6054 18.3354C23.6185 18.3302 23.5368 18.3651 23.3031 18.3651V23.3651ZM25.4328 22.9895C26.1087 22.7257 26.7776 22.2998 27.298 21.6407L23.3736 18.5425C23.5104 18.3692 23.6381 18.3226 23.6151 18.3316L25.4328 22.9895ZM27.298 21.6407C27.8452 20.9476 28.1234 20.1202 28.1234 19.2543H23.1234C23.1234 19.1546 23.1393 19.0271 23.1871 18.8879C23.2351 18.7482 23.3034 18.6314 23.3736 18.5425L27.298 21.6407ZM28.1234 19.2543C28.1234 18.425 27.8603 17.5745 27.2452 16.8694L23.4774 20.1562C23.3603 20.0219 23.2638 19.8596 23.2008 19.6815C23.1391 19.507 23.1234 19.3568 23.1234 19.2543H28.1234ZM27.2652 16.8925C26.7661 16.3061 26.1459 15.9379 25.5812 15.699L23.633 20.3038C23.6761 20.3221 23.6737 20.3255 23.642 20.304C23.6094 20.2819 23.5388 20.2286 23.4575 20.1331L27.2652 16.8925ZM25.5919 15.7036C25.097 15.4915 24.5518 15.3242 23.9849 15.1875L22.8131 20.0483C23.2007 20.1417 23.4609 20.2301 23.6223 20.2993L25.5919 15.7036ZM24.0079 15.1932L22.5824 14.8352L21.3646 19.6847L22.7901 20.0426L24.0079 15.1932ZM22.5644 14.8308C21.7349 14.629 21.2742 14.3591 21.0247 14.1363L17.6937 17.8651C18.7226 18.7843 20.0048 19.3539 21.3827 19.6891L22.5644 14.8308ZM21.0247 14.1363C20.9774 14.094 20.9632 14.0674 20.9526 14.0418C20.9389 14.0087 20.9059 13.9101 20.9068 13.7042L15.9068 13.6822C15.8998 15.2629 16.4488 16.753 17.6937 17.8651L21.0247 14.1363ZM20.9067 13.6797C20.9051 13.3676 20.9785 13.2016 21.069 13.0758L17.0102 10.1558C16.2484 11.2146 15.9 12.4336 15.9068 13.7066L20.9067 13.6797ZM21.0621 13.0853C21.2036 12.8906 21.4261 12.6903 21.8231 12.5143L19.7973 7.94309C18.6943 8.4319 17.7364 9.1563 17.0171 10.1462L21.0621 13.0853ZM21.8231 12.5143C22.2062 12.3445 22.7048 12.2301 23.367 12.2301V7.23011C22.1201 7.23011 20.9142 7.44809 19.7973 7.94309L21.8231 12.5143ZM23.367 12.2301C24.0559 12.2301 24.5347 12.3478 24.8685 12.5009L26.9536 7.95645C25.8385 7.44484 24.6213 7.23011 23.367 7.23011V12.2301ZM24.8735 12.5032C25.2373 12.6692 25.4286 12.8527 25.5473 13.0264L29.6753 10.2051C28.9844 9.19414 28.0422 8.453 26.9486 7.95415L24.8735 12.5032ZM25.5473 13.0264C25.6519 13.1794 25.7326 13.38 25.7381 13.715L30.7374 13.633C30.7173 12.4083 30.3804 11.2367 29.6753 10.2051L25.5473 13.0264ZM28.2377 11.174H25.5851V16.174H28.2377V11.174ZM41.8288 14.4922V16.9922H44.6411L44.3116 14.1993L41.8288 14.4922ZM39.0291 14.4922L36.5537 14.8417L36.8573 16.9922H39.0291V14.4922ZM38.7159 13.527L36.5274 14.7355L36.5313 14.7425L36.5352 14.7495L38.7159 13.527ZM38.1087 12.7983L36.5347 14.7406L36.5347 14.7406L38.1087 12.7983ZM37.2521 12.3381L36.4616 14.7098L36.4709 14.7129L37.2521 12.3381ZM34.4396 12.6832L35.8182 14.7688L35.8243 14.7647L35.8304 14.7607L34.4396 12.6832ZM33.2699 14.1406L35.5613 15.1403L35.5638 15.1346L33.2699 14.1406ZM33.2699 18.8068L30.9784 19.8065L30.9841 19.8193L33.2699 18.8068ZM34.446 20.245L33.0923 22.3468L34.446 20.245ZM37.2202 20.5838L36.4872 18.1937L36.4782 18.1965L37.2202 20.5838ZM38.0703 20.1555L39.5813 22.1473L39.5921 22.1391L39.6028 22.1308L38.0703 20.1555ZM38.6839 19.4588L36.5491 18.1579L36.5416 18.1701L36.5343 18.1825L38.6839 19.4588ZM39.0291 18.5256L39.0405 16.0256L36.9467 16.016L36.5699 18.0757L39.0291 18.5256ZM41.8288 18.5384L44.3109 18.8376L44.6468 16.0512L41.8403 16.0384L41.8288 18.5384ZM41.2855 20.277L39.0666 19.1252L39.0633 19.1317L41.2855 20.277ZM40.1286 21.7663L41.8037 23.6221L41.8046 23.6213L40.1286 21.7663ZM38.4027 22.8018L39.2871 25.1402L39.2952 25.1371L38.4027 22.8018ZM33.0142 22.3864L31.7652 24.552L31.7695 24.5545L33.0142 22.3864ZM30.8409 20.0916L28.6298 21.2583L28.6337 21.2657L30.8409 20.0916ZM30.8537 12.8111L33.057 13.9924V13.9924L30.8537 12.8111ZM33.0398 10.5227L34.2769 12.6952L34.2844 12.6909L33.0398 10.5227ZM38.2557 10.0497L37.4745 12.4245L37.4791 12.426L38.2557 10.0497ZM39.9879 10.983L38.4102 12.9223L38.4202 12.9303L39.9879 10.983ZM41.2152 12.4723L39.0119 13.6538L39.0186 13.6661L41.2152 12.4723ZM41.8288 11.9922H39.0291V16.9922H41.8288V11.9922ZM41.5046 14.1427C41.4159 13.5147 41.2248 12.8898 40.8966 12.3045L36.5352 14.7495C36.5298 14.7399 36.5306 14.7388 36.5345 14.7509C36.5386 14.7635 36.5467 14.7923 36.5537 14.8417L41.5046 14.1427ZM40.9044 12.3184C40.5951 11.7583 40.1863 11.2641 39.6826 10.856L36.5347 14.7406C36.534 14.7401 36.5325 14.7388 36.5306 14.7369C36.5286 14.7349 36.5268 14.7329 36.5253 14.7311C36.5238 14.7293 36.5232 14.7284 36.5233 14.7287C36.5235 14.729 36.525 14.7311 36.5274 14.7355L40.9044 12.3184ZM39.6826 10.856C39.1832 10.4513 38.6247 10.1578 38.0333 9.96325L36.4709 14.7129C36.5012 14.7228 36.5183 14.7312 36.5259 14.7353C36.5298 14.7374 36.5321 14.7389 36.5332 14.7396C36.5342 14.7402 36.5346 14.7406 36.5347 14.7406L39.6826 10.856ZM38.0427 9.96636C37.4411 9.76583 36.8238 9.67827 36.2102 9.67827V14.6783C36.3466 14.6783 36.424 14.6972 36.4616 14.7098L38.0427 9.96636ZM36.2102 9.67827C35.0989 9.67827 34.0114 9.96136 33.0488 10.6058L35.8304 14.7607C35.8735 14.7318 35.9664 14.6783 36.2102 14.6783V9.67827ZM33.061 10.5977C32.0937 11.2371 31.415 12.1335 30.976 13.1466L35.5638 15.1346C35.6787 14.8694 35.7799 14.7941 35.8182 14.7688L33.061 10.5977ZM30.9784 13.141C30.5283 14.1728 30.3544 15.3046 30.3544 16.4545H35.3544C35.3544 15.7891 35.4575 15.3783 35.5613 15.1403L30.9784 13.141ZM30.3544 16.4545C30.3544 17.619 30.525 18.767 30.9784 19.8064L35.5613 17.8072C35.4608 17.5767 35.3544 17.1566 35.3544 16.4545H30.3544ZM30.9841 19.8193C31.4304 20.827 32.1163 21.7182 33.0923 22.3468L35.7997 18.1432C35.7701 18.1241 35.6718 18.0565 35.5557 17.7943L30.9841 19.8193ZM33.0923 22.3468C34.0403 22.9574 35.1024 23.2308 36.1911 23.2308V18.2308C35.9587 18.2308 35.8574 18.1804 35.7997 18.1432L33.0923 22.3468ZM36.1911 23.2308C36.7829 23.2308 37.3791 23.1524 37.9622 22.9712L36.4782 18.1965C36.4305 18.2113 36.3406 18.2308 36.1911 18.2308V23.2308ZM37.9531 22.9739C38.5316 22.7965 39.0827 22.5255 39.5813 22.1473L36.5593 18.1638C36.5592 18.1639 36.5585 18.1644 36.557 18.1654C36.5554 18.1664 36.5524 18.1681 36.5477 18.1705C36.5384 18.1752 36.5194 18.1838 36.4872 18.1937L37.9531 22.9739ZM39.6028 22.1308C40.1012 21.7441 40.5139 21.2736 40.8336 20.7352L36.5343 18.1825C36.5323 18.1858 36.5312 18.1873 36.5312 18.1874C36.5312 18.1874 36.5318 18.1866 36.533 18.1852C36.5342 18.1838 36.5355 18.1825 36.5367 18.1814C36.5379 18.1802 36.5384 18.1799 36.5378 18.1803L39.6028 22.1308ZM40.8188 20.7597C41.1612 20.1978 41.3755 19.5923 41.4883 18.9754L36.5699 18.0757C36.5621 18.1182 36.5541 18.1429 36.5501 18.1537C36.5463 18.1641 36.5453 18.1642 36.5491 18.1579L40.8188 20.7597ZM39.0177 21.0255L41.8174 21.0383L41.8403 16.0384L39.0405 16.0256L39.0177 21.0255ZM39.3468 18.2391C39.3117 18.5307 39.2238 18.8225 39.0666 19.1252L43.5044 21.4288C43.9268 20.615 44.2011 19.7477 44.3109 18.8376L39.3468 18.2391ZM39.0633 19.1317C38.9225 19.4048 38.7265 19.6639 38.4525 19.9113L41.8046 23.6213C42.5022 22.991 43.0775 22.2571 43.5077 21.4223L39.0633 19.1317ZM38.4534 19.9106C38.2236 20.118 37.921 20.3096 37.5102 20.4666L39.2952 25.1371C40.2225 24.7827 41.0704 24.284 41.8037 23.6221L38.4534 19.9106ZM37.5183 20.4635C37.1823 20.5906 36.7372 20.679 36.1463 20.679V25.679C37.2344 25.679 38.2936 25.5159 39.2871 25.1402L37.5183 20.4635ZM36.1463 20.679C35.3706 20.679 34.7634 20.5079 34.2589 20.2182L31.7695 24.5545C33.1059 25.3217 34.5868 25.679 36.1463 25.679V20.679ZM34.2632 20.2207C33.7827 19.9436 33.3773 19.5364 33.0481 18.9176L28.6337 21.2657C29.3699 22.6497 30.4134 23.7723 31.7652 24.552L34.2632 20.2207ZM33.052 18.9249C32.7559 18.3639 32.5483 17.5735 32.5483 16.4545H27.5483C27.5483 18.1821 27.8691 19.8165 28.6298 21.2583L33.052 18.9249ZM32.5483 16.4545C32.5483 15.3356 32.7585 14.5491 33.057 13.9924L28.6504 11.6297C27.875 13.0759 27.5483 14.7184 27.5483 16.4545H32.5483ZM33.057 13.9924C33.3884 13.3743 33.7953 12.9694 34.2769 12.6952L31.8027 8.35026C30.4434 9.12432 29.3928 10.2451 28.6504 11.6297L33.057 13.9924ZM34.2844 12.6909C34.7946 12.398 35.3946 12.2301 36.1463 12.2301V7.23011C34.5968 7.23011 33.1259 7.59064 31.7951 8.35459L34.2844 12.6909ZM36.1463 12.2301C36.669 12.2301 37.1055 12.3031 37.4745 12.4245L39.0369 7.6749C38.1104 7.37015 37.1407 7.23011 36.1463 7.23011V12.2301ZM37.4791 12.426C37.8566 12.5494 38.1589 12.7178 38.4102 12.9222L41.5656 9.04367C40.8112 8.42992 39.9587 7.97615 39.0323 7.67339L37.4791 12.426ZM38.4202 12.9303C38.6532 13.1179 38.8495 13.3508 39.012 13.6537L43.4184 11.2909C42.9502 10.4176 42.3284 9.65769 41.5557 9.03562L38.4202 12.9303ZM39.0186 13.6661C39.1665 13.9382 39.2886 14.2981 39.3461 14.7851L44.3116 14.1993C44.1901 13.1692 43.9031 12.1825 43.4118 11.2785L39.0186 13.6661Z" fill="white" mask="url(#path-2-inside-1_1_1826)"/>
</g>
<defs>
<clipPath id="clip0_1_1826">
<rect width="49" height="32" fill="white"/>
</clipPath>
</defs>
</svg>
