<svg width="32" height="32" viewBox="0 0 32 32" fill="none" xmlns="http://www.w3.org/2000/svg">
<g clip-path="url(#clip0_1_1811)">
<rect width="32" height="32" rx="8" fill="black"/>
<mask id="path-2-inside-1_1_1811" fill="white">
<path d="M11.4146 23V8.45455H21.0453V10.9901H14.4899V14.456H20.4061V16.9915H14.4899V23H11.4146Z"/>
</mask>
<path d="M11.4146 23H8.9146V25.5H11.4146V23ZM11.4146 8.45455V5.95455H8.9146V8.45455H11.4146ZM21.0453 8.45455H23.5453V5.95455H21.0453V8.45455ZM21.0453 10.9901V13.4901H23.5453V10.9901H21.0453ZM14.4899 10.9901V8.49006H11.9899V10.9901H14.4899ZM14.4899 14.456H11.9899V16.956H14.4899V14.456ZM20.4061 14.456H22.9061V11.956H20.4061V14.456ZM20.4061 16.9915V19.4915H22.9061V16.9915H20.4061ZM14.4899 16.9915V14.4915H11.9899V16.9915H14.4899ZM14.4899 23V25.5H16.9899V23H14.4899ZM13.9146 23V8.45455H8.9146V23H13.9146ZM11.4146 10.9545H21.0453V5.95455H11.4146V10.9545ZM18.5453 8.45455V10.9901H23.5453V8.45455H18.5453ZM21.0453 8.49006H14.4899V13.4901H21.0453V8.49006ZM11.9899 10.9901V14.456H16.9899V10.9901H11.9899ZM14.4899 16.956H20.4061V11.956H14.4899V16.956ZM17.9061 14.456V16.9915H22.9061V14.456H17.9061ZM20.4061 14.4915H14.4899V19.4915H20.4061V14.4915ZM11.9899 16.9915V23H16.9899V16.9915H11.9899ZM14.4899 20.5H11.4146V25.5H14.4899V20.5Z" fill="white" mask="url(#path-2-inside-1_1_1811)"/>
</g>
<defs>
<clipPath id="clip0_1_1811">
<rect width="32" height="32" fill="white"/>
</clipPath>
</defs>
</svg>
