<svg width="32" height="32" viewBox="0 0 32 32" fill="none" xmlns="http://www.w3.org/2000/svg">
<g clip-path="url(#clip0_1_1852)">
<rect width="32" height="32" rx="8" fill="black"/>
<mask id="path-2-inside-1_1_1852" fill="white">
<path d="M6.73837 23V9.90909H15.406V12.1911H9.50613V15.3104H14.8307V17.5923H9.50613V23H6.73837ZM24.7528 9.90909V23H21.985V12.5362H21.9083L18.9104 14.4155V11.9609L22.1512 9.90909H24.7528Z"/>
</mask>
<path d="M6.73837 23H4.23837V25.5H6.73837V23ZM6.73837 9.90909V7.40909H4.23837V9.90909H6.73837ZM15.406 9.90909H17.906V7.40909H15.406V9.90909ZM15.406 12.1911V14.6911H17.906V12.1911H15.406ZM9.50613 12.1911V9.69105H7.00613V12.1911H9.50613ZM9.50613 15.3104H7.00613V17.8104H9.50613V15.3104ZM14.8307 15.3104H17.3307V12.8104H14.8307V15.3104ZM14.8307 17.5923V20.0923H17.3307V17.5923H14.8307ZM9.50613 17.5923V15.0923H7.00613V17.5923H9.50613ZM9.50613 23V25.5H12.0061V23H9.50613ZM9.23837 23V9.90909H4.23837V23H9.23837ZM6.73837 12.4091H15.406V7.40909H6.73837V12.4091ZM12.906 9.90909V12.1911H17.906V9.90909H12.906ZM15.406 9.69105H9.50613V14.6911H15.406V9.69105ZM7.00613 12.1911V15.3104H12.0061V12.1911H7.00613ZM9.50613 17.8104H14.8307V12.8104H9.50613V17.8104ZM12.3307 15.3104V17.5923H17.3307V15.3104H12.3307ZM14.8307 15.0923H9.50613V20.0923H14.8307V15.0923ZM7.00613 17.5923V23H12.0061V17.5923H7.00613ZM9.50613 20.5H6.73837V25.5H9.50613V20.5ZM24.7528 9.90909H27.2528V7.40909H24.7528V9.90909ZM24.7528 23V25.5H27.2528V23H24.7528ZM21.985 23H19.485V25.5H21.985V23ZM21.985 12.5362H24.485V10.0362H21.985V12.5362ZM21.9083 12.5362V10.0362H21.1895L20.5805 10.418L21.9083 12.5362ZM18.9104 14.4155H16.4104V18.9332L20.2383 16.5337L18.9104 14.4155ZM18.9104 11.9609L17.5731 9.8487L16.4104 10.5848V11.9609H18.9104ZM22.1512 9.90909V7.40909H21.4263L20.8139 7.79685L22.1512 9.90909ZM22.2528 9.90909V23H27.2528V9.90909H22.2528ZM24.7528 20.5H21.985V25.5H24.7528V20.5ZM24.485 23V12.5362H19.485V23H24.485ZM21.985 10.0362H21.9083V15.0362H21.985V10.0362ZM20.5805 10.418L17.5826 12.2973L20.2383 16.5337L23.2361 14.6544L20.5805 10.418ZM21.4104 14.4155V11.9609H16.4104V14.4155H21.4104ZM20.2478 14.0732L23.4885 12.0213L20.8139 7.79685L17.5731 9.8487L20.2478 14.0732ZM22.1512 12.4091H24.7528V7.40909H22.1512V12.4091Z" fill="white" mask="url(#path-2-inside-1_1_1852)"/>
</g>
<defs>
<clipPath id="clip0_1_1852">
<rect width="32" height="32" fill="white"/>
</clipPath>
</defs>
</svg>
