<svg width="40" height="32" viewBox="0 0 40 32" fill="none" xmlns="http://www.w3.org/2000/svg">
<g clip-path="url(#clip0_1_1861)">
<rect width="40" height="32" rx="8" fill="black"/>
<mask id="path-2-inside-1_1_1861" fill="white">
<path d="M5.27353 23V9.90909H13.9411V12.1911H8.04128V15.3104H13.3659V17.5923H8.04128V23H5.27353ZM21.4214 9.90909V23H18.6537V12.5362H18.577L15.5791 14.4155V11.9609L18.8199 9.90909H21.4214ZM29.6656 23.2876C28.5661 23.2834 27.6201 23.0128 26.8275 22.4759C26.0392 21.9389 25.4319 21.1612 25.0058 20.1428C24.5839 19.1243 24.3751 17.8991 24.3794 16.4673C24.3794 15.0398 24.5903 13.8232 25.0122 12.8175C25.4383 11.8118 26.0455 11.0469 26.8339 10.5227C27.6265 9.99432 28.5704 9.73011 29.6656 9.73011C30.7607 9.73011 31.7025 9.99432 32.4909 10.5227C33.2835 11.0511 33.8928 11.8182 34.319 12.8239C34.7451 13.8253 34.9561 15.0398 34.9518 16.4673C34.9518 17.9034 34.7387 19.1307 34.3126 20.1491C33.8907 21.1676 33.2856 21.9453 32.4972 22.4822C31.7089 23.0192 30.765 23.2876 29.6656 23.2876ZM29.6656 20.9929C30.4156 20.9929 31.0143 20.6158 31.4617 19.8615C31.9092 19.1072 32.1308 17.9759 32.1265 16.4673C32.1265 15.4744 32.0242 14.6477 31.8197 13.9872C31.6194 13.3267 31.3339 12.8303 30.9632 12.4979C30.5967 12.1655 30.1642 11.9993 29.6656 11.9993C28.9198 11.9993 28.3232 12.3722 27.8758 13.1179C27.4284 13.8636 27.2025 14.9801 27.1982 16.4673C27.1982 17.473 27.2984 18.3125 27.4987 18.9858C27.7032 19.6548 27.9909 20.1577 28.3616 20.4943C28.7323 20.8267 29.167 20.9929 29.6656 20.9929Z"/>
</mask>
<path d="M5.27353 23H2.77353V25.5H5.27353V23ZM5.27353 9.90909V7.40909H2.77353V9.90909H5.27353ZM13.9411 9.90909H16.4411V7.40909H13.9411V9.90909ZM13.9411 12.1911V14.6911H16.4411V12.1911H13.9411ZM8.04128 12.1911V9.69105H5.54128V12.1911H8.04128ZM8.04128 15.3104H5.54128V17.8104H8.04128V15.3104ZM13.3659 15.3104H15.8659V12.8104H13.3659V15.3104ZM13.3659 17.5923V20.0923H15.8659V17.5923H13.3659ZM8.04128 17.5923V15.0923H5.54128V17.5923H8.04128ZM8.04128 23V25.5H10.5413V23H8.04128ZM7.77353 23V9.90909H2.77353V23H7.77353ZM5.27353 12.4091H13.9411V7.40909H5.27353V12.4091ZM11.4411 9.90909V12.1911H16.4411V9.90909H11.4411ZM13.9411 9.69105H8.04128V14.6911H13.9411V9.69105ZM5.54128 12.1911V15.3104H10.5413V12.1911H5.54128ZM8.04128 17.8104H13.3659V12.8104H8.04128V17.8104ZM10.8659 15.3104V17.5923H15.8659V15.3104H10.8659ZM13.3659 15.0923H8.04128V20.0923H13.3659V15.0923ZM5.54128 17.5923V23H10.5413V17.5923H5.54128ZM8.04128 20.5H5.27353V25.5H8.04128V20.5ZM21.4214 9.90909H23.9214V7.40909H21.4214V9.90909ZM21.4214 23V25.5H23.9214V23H21.4214ZM18.6537 23H16.1537V25.5H18.6537V23ZM18.6537 12.5362H21.1537V10.0362H18.6537V12.5362ZM18.577 12.5362V10.0362H17.8582L17.2491 10.418L18.577 12.5362ZM15.5791 14.4155H13.0791V18.9332L16.9069 16.5337L15.5791 14.4155ZM15.5791 11.9609L14.2418 9.8487L13.0791 10.5848V11.9609H15.5791ZM18.8199 9.90909V7.40909H18.095L17.4825 7.79685L18.8199 9.90909ZM18.9214 9.90909V23H23.9214V9.90909H18.9214ZM21.4214 20.5H18.6537V25.5H21.4214V20.5ZM21.1537 23V12.5362H16.1537V23H21.1537ZM18.6537 10.0362H18.577V15.0362H18.6537V10.0362ZM17.2491 10.418L14.2513 12.2973L16.9069 16.5337L19.9048 14.6544L17.2491 10.418ZM18.0791 14.4155V11.9609H13.0791V14.4155H18.0791ZM16.9164 14.0732L20.1572 12.0213L17.4825 7.79685L14.2418 9.8487L16.9164 14.0732ZM18.8199 12.4091H21.4214V7.40909H18.8199V12.4091ZM29.6656 23.2876L29.6559 25.7876H29.6656V23.2876ZM26.8275 22.4759L25.4202 24.5421L25.4254 24.5456L26.8275 22.4759ZM25.0058 20.1428L22.6961 21.0995L22.6995 21.1077L25.0058 20.1428ZM24.3794 16.4673L26.8794 16.4748V16.4673H24.3794ZM25.0122 12.8175L22.7103 11.8421L22.7068 11.8504L25.0122 12.8175ZM26.8339 10.5227L28.218 12.6046L28.2206 12.6029L26.8339 10.5227ZM32.4909 10.5227L31.0989 12.5994L31.1041 12.6029L32.4909 10.5227ZM34.319 12.8239L32.0171 13.7992L32.0186 13.8028L34.319 12.8239ZM34.9518 16.4673L32.4518 16.4599V16.4673H34.9518ZM34.3126 20.1491L32.0063 19.1842L32.0029 19.1924L34.3126 20.1491ZM32.4972 22.4822L33.9046 24.5485L32.4972 22.4822ZM31.4617 19.8615L33.6119 21.137L31.4617 19.8615ZM32.1265 16.4673H29.6265L29.6265 16.4744L32.1265 16.4673ZM31.8197 13.9872L29.4273 14.7127L29.4294 14.7197L29.4316 14.7268L31.8197 13.9872ZM30.9632 12.4979L29.2836 14.3497L29.2889 14.3545L29.2943 14.3593L30.9632 12.4979ZM27.8758 13.1179L25.7321 11.8317V11.8317L27.8758 13.1179ZM27.1982 16.4673L24.6982 16.4602V16.4673H27.1982ZM27.4987 18.9858L25.1024 19.6986L25.1051 19.7077L25.1079 19.7167L27.4987 18.9858ZM28.3616 20.4943L26.681 22.3451L26.6868 22.3505L26.6927 22.3557L28.3616 20.4943ZM29.6753 20.7877C28.9965 20.785 28.5525 20.6248 28.2296 20.4061L25.4254 24.5456C26.6877 25.4008 28.1357 25.7817 29.6559 25.7876L29.6753 20.7877ZM28.2348 20.4096C27.9063 20.1858 27.5815 19.8218 27.312 19.1778L22.6995 21.1077C23.2823 22.5006 24.172 23.692 25.4202 24.5421L28.2348 20.4096ZM27.3155 19.186C27.0519 18.5497 26.8758 17.6701 26.8793 16.4748L21.8794 16.4599C21.8744 18.1282 22.1159 19.6989 22.6961 21.0995L27.3155 19.186ZM26.8794 16.4673C26.8794 15.2742 27.0572 14.4052 27.3175 13.7846L22.7068 11.8504C22.1234 13.2411 21.8794 14.8053 21.8794 16.4673H26.8794ZM27.314 13.7928C27.5793 13.1668 27.8972 12.8179 28.218 12.6046L25.4497 8.44087C24.1939 9.27585 23.2973 10.4568 22.7103 11.8421L27.314 13.7928ZM28.2206 12.6029C28.5436 12.3875 28.988 12.2301 29.6656 12.2301V7.23011C28.1528 7.23011 26.7094 7.60112 25.4471 8.4426L28.2206 12.6029ZM29.6656 12.2301C30.3435 12.2301 30.783 12.3876 31.0989 12.5994L33.8828 8.44606C32.622 7.60102 31.178 7.23011 29.6656 7.23011V12.2301ZM31.1041 12.6029C31.4331 12.8222 31.7528 13.1755 32.0171 13.7992L36.6209 11.8485C36.0329 10.4608 35.1338 9.28007 33.8776 8.4426L31.1041 12.6029ZM32.0186 13.8028C32.2776 14.4114 32.4554 15.2706 32.4518 16.4599L37.4518 16.4748C37.4568 14.8089 37.2126 13.2391 36.6194 11.845L32.0186 13.8028ZM32.4518 16.4673C32.4518 17.6671 32.2724 18.5483 32.0063 19.1842L36.6189 21.1141C37.2051 19.7131 37.4518 18.1397 37.4518 16.4673H32.4518ZM32.0029 19.1924C31.7376 19.8328 31.4161 20.1938 31.0899 20.416L33.9046 24.5485C35.1551 23.6968 36.0438 22.5024 36.6223 21.1059L32.0029 19.1924ZM31.0899 20.416C30.7773 20.6289 30.3419 20.7876 29.6656 20.7876V25.7876C31.1881 25.7876 32.6405 25.4094 33.9046 24.5485L31.0899 20.416ZM29.6656 23.4929C31.4619 23.4929 32.8044 22.4981 33.6119 21.137L29.3116 18.586C29.2425 18.7024 29.238 18.6619 29.3447 18.5947C29.3973 18.5616 29.4599 18.5332 29.5265 18.5145C29.592 18.4962 29.6416 18.4929 29.6656 18.4929V23.4929ZM33.6119 21.137C34.401 19.8067 34.6312 18.135 34.6265 16.4603L29.6265 16.4744C29.6303 17.8167 29.4173 18.4078 29.3116 18.586L33.6119 21.137ZM34.6265 16.4673C34.6265 15.3231 34.5111 14.2271 34.2078 13.2477L29.4316 14.7268C29.5374 15.0684 29.6265 15.6258 29.6265 16.4673H34.6265ZM34.2121 13.2618C33.9282 12.3254 33.4504 11.3702 32.632 10.6364L29.2943 14.3593C29.2174 14.2903 29.3106 14.328 29.4273 14.7127L34.2121 13.2618ZM32.6427 10.6461C31.8124 9.89299 30.7798 9.49929 29.6656 9.49929V14.4993C29.6317 14.4993 29.5582 14.4926 29.4672 14.4576C29.3759 14.4225 29.3137 14.3769 29.2836 14.3497L32.6427 10.6461ZM29.6656 9.49929C27.8818 9.49929 26.5425 10.4809 25.7321 11.8317L30.0195 14.4041C30.0872 14.2914 30.0903 14.3324 29.9838 14.3989C29.9314 14.4317 29.8692 14.4597 29.8033 14.478C29.7384 14.496 29.6894 14.4993 29.6656 14.4993V9.49929ZM25.7321 11.8317C24.9415 13.1493 24.703 14.8037 24.6983 16.4602L29.6982 16.4745C29.702 15.1565 29.9153 14.5779 30.0195 14.4041L25.7321 11.8317ZM24.6982 16.4673C24.6982 17.6196 24.8107 18.7179 25.1024 19.6986L29.8949 18.273C29.786 17.9071 29.6982 17.3264 29.6982 16.4673H24.6982ZM25.1079 19.7167C25.3942 20.6533 25.8702 21.6089 26.681 22.3451L30.0422 18.6435C30.1115 18.7064 30.0122 18.6564 29.8894 18.2549L25.1079 19.7167ZM26.6927 22.3557C27.5228 23.0999 28.5519 23.4929 29.6656 23.4929V18.4929C29.6995 18.4929 29.771 18.4997 29.8585 18.5331C29.9461 18.5666 30.0043 18.6095 30.0305 18.6329L26.6927 22.3557Z" fill="white" mask="url(#path-2-inside-1_1_1861)"/>
</g>
<defs>
<clipPath id="clip0_1_1861">
<rect width="40" height="32" fill="white"/>
</clipPath>
</defs>
</svg>
