<svg width="40" height="32" viewBox="0 0 40 32" fill="none" xmlns="http://www.w3.org/2000/svg">
<g clip-path="url(#clip0_1_1862)">
<rect width="40" height="32" rx="8" fill="black"/>
<mask id="path-2-inside-1_1_1862" fill="white">
<path d="M7.0665 23V9.90909H15.7341V12.1911H9.83425V15.3104H15.1588V17.5923H9.83425V23H7.0665ZM23.2144 9.90909V23H20.4466V12.5362H20.3699L17.3721 14.4155V11.9609L20.6128 9.90909H23.2144ZM32.021 9.90909V23H29.2533V12.5362H29.1766L26.1787 14.4155V11.9609L29.4195 9.90909H32.021Z"/>
</mask>
<path d="M7.06649 23H4.5665V25.5H7.06649V23ZM7.06649 9.90909V7.40909H4.5665V9.90909H7.06649ZM15.7341 9.90909H18.2341V7.40909H15.7341V9.90909ZM15.7341 12.1911V14.6911H18.2341V12.1911H15.7341ZM9.83425 12.1911V9.69105H7.33425V12.1911H9.83425ZM9.83425 15.3104H7.33425V17.8104H9.83425V15.3104ZM15.1588 15.3104H17.6588V12.8104H15.1588V15.3104ZM15.1588 17.5923V20.0923H17.6588V17.5923H15.1588ZM9.83425 17.5923V15.0923H7.33425V17.5923H9.83425ZM9.83425 23V25.5H12.3343V23H9.83425ZM9.56649 23V9.90909H4.5665V23H9.56649ZM7.06649 12.4091H15.7341V7.40909H7.06649V12.4091ZM13.2341 9.90909V12.1911H18.2341V9.90909H13.2341ZM15.7341 9.69105H9.83425V14.6911H15.7341V9.69105ZM7.33425 12.1911V15.3104H12.3343V12.1911H7.33425ZM9.83425 17.8104H15.1588V12.8104H9.83425V17.8104ZM12.6588 15.3104V17.5923H17.6588V15.3104H12.6588ZM15.1588 15.0923H9.83425V20.0923H15.1588V15.0923ZM7.33425 17.5923V23H12.3343V17.5923H7.33425ZM9.83425 20.5H7.06649V25.5H9.83425V20.5ZM23.2144 9.90909H25.7144V7.40909H23.2144V9.90909ZM23.2144 23V25.5H25.7144V23H23.2144ZM20.4466 23H17.9466V25.5H20.4466V23ZM20.4466 12.5362H22.9466V10.0362H20.4466V12.5362ZM20.3699 12.5362V10.0362H19.6511L19.0421 10.418L20.3699 12.5362ZM17.3721 14.4155H14.8721V18.9332L18.6999 16.5337L17.3721 14.4155ZM17.3721 11.9609L16.0347 9.8487L14.8721 10.5848V11.9609H17.3721ZM20.6128 9.90909V7.40909H19.888L19.2755 7.79685L20.6128 9.90909ZM20.7144 9.90909V23H25.7144V9.90909H20.7144ZM23.2144 20.5H20.4466V25.5H23.2144V20.5ZM22.9466 23V12.5362H17.9466V23H22.9466ZM20.4466 10.0362H20.3699V15.0362H20.4466V10.0362ZM19.0421 10.418L16.0442 12.2973L18.6999 16.5337L21.6978 14.6544L19.0421 10.418ZM19.8721 14.4155V11.9609H14.8721V14.4155H19.8721ZM18.7094 14.0732L21.9502 12.0213L19.2755 7.79685L16.0347 9.8487L18.7094 14.0732ZM20.6128 12.4091H23.2144V7.40909H20.6128V12.4091ZM32.021 9.90909H34.521V7.40909H32.021V9.90909ZM32.021 23V25.5H34.521V23H32.021ZM29.2533 23H26.7533V25.5H29.2533V23ZM29.2533 12.5362H31.7533V10.0362H29.2533V12.5362ZM29.1766 12.5362V10.0362H28.4578L27.8487 10.418L29.1766 12.5362ZM26.1787 14.4155H23.6787V18.9332L27.5065 16.5337L26.1787 14.4155ZM26.1787 11.9609L24.8414 9.8487L23.6787 10.5848V11.9609H26.1787ZM29.4195 9.90909V7.40909H28.6946L28.0821 7.79685L29.4195 9.90909ZM29.521 9.90909V23H34.521V9.90909H29.521ZM32.021 20.5H29.2533V25.5H32.021V20.5ZM31.7533 23V12.5362H26.7533V23H31.7533ZM29.2533 10.0362H29.1766V15.0362H29.2533V10.0362ZM27.8487 10.418L24.8509 12.2973L27.5065 16.5337L30.5044 14.6544L27.8487 10.418ZM28.6787 14.4155V11.9609H23.6787V14.4155H28.6787ZM27.516 14.0732L30.7568 12.0213L28.0821 7.79685L24.8414 9.8487L27.516 14.0732ZM29.4195 12.4091H32.021V7.40909H29.4195V12.4091Z" fill="white" mask="url(#path-2-inside-1_1_1862)"/>
</g>
<defs>
<clipPath id="clip0_1_1862">
<rect width="40" height="32" fill="white"/>
</clipPath>
</defs>
</svg>
