<svg width="40" height="32" viewBox="0 0 40 32" fill="none" xmlns="http://www.w3.org/2000/svg">
<g clip-path="url(#clip0_1_1863)">
<rect width="40" height="32" rx="8" fill="black"/>
<mask id="path-2-inside-1_1_1863" fill="white">
<path d="M5.30087 23V9.90909H13.9685V12.1911H8.06863V15.3104H13.3932V17.5923H8.06863V23H5.30087ZM21.4488 9.90909V23H18.681V12.5362H18.6043L15.6064 14.4155V11.9609L18.8472 9.90909H21.4488ZM24.5601 23V21.0057L29.2199 16.6911C29.6162 16.3075 29.9486 15.9624 30.2171 15.6555C30.4898 15.3487 30.6965 15.0483 30.8371 14.7543C30.9777 14.456 31.048 14.1342 31.048 13.7891C31.048 13.4055 30.9607 13.0753 30.786 12.7983C30.6112 12.517 30.3726 12.3018 30.07 12.1527C29.7675 11.9993 29.4244 11.9226 29.0409 11.9226C28.6404 11.9226 28.2909 12.0036 27.9926 12.1655C27.6943 12.3274 27.4642 12.5597 27.3023 12.8622C27.1404 13.1648 27.0594 13.5249 27.0594 13.9425H24.4323C24.4323 13.0859 24.6262 12.3423 25.0139 11.7116C25.4017 11.081 25.945 10.593 26.6439 10.2479C27.3428 9.9027 28.1482 9.73011 29.0601 9.73011C29.9976 9.73011 30.8137 9.89631 31.5083 10.2287C32.2071 10.5568 32.7504 11.0128 33.1382 11.5966C33.526 12.1804 33.7199 12.8494 33.7199 13.6037C33.7199 14.098 33.6219 14.5859 33.4259 15.0675C33.2341 15.549 32.8911 16.0838 32.3968 16.6719C31.9024 17.2557 31.2057 17.9567 30.3066 18.7749L28.3953 20.6477V20.7372H33.8925V23H24.5601Z"/>
</mask>
<path d="M5.30087 23H2.80087V25.5H5.30087V23ZM5.30087 9.90909V7.40909H2.80087V9.90909H5.30087ZM13.9685 9.90909H16.4685V7.40909H13.9685V9.90909ZM13.9685 12.1911V14.6911H16.4685V12.1911H13.9685ZM8.06863 12.1911V9.69105H5.56863V12.1911H8.06863ZM8.06863 15.3104H5.56863V17.8104H8.06863V15.3104ZM13.3932 15.3104H15.8932V12.8104H13.3932V15.3104ZM13.3932 17.5923V20.0923H15.8932V17.5923H13.3932ZM8.06863 17.5923V15.0923H5.56863V17.5923H8.06863ZM8.06863 23V25.5H10.5686V23H8.06863ZM7.80087 23V9.90909H2.80087V23H7.80087ZM5.30087 12.4091H13.9685V7.40909H5.30087V12.4091ZM11.4685 9.90909V12.1911H16.4685V9.90909H11.4685ZM13.9685 9.69105H8.06863V14.6911H13.9685V9.69105ZM5.56863 12.1911V15.3104H10.5686V12.1911H5.56863ZM8.06863 17.8104H13.3932V12.8104H8.06863V17.8104ZM10.8932 15.3104V17.5923H15.8932V15.3104H10.8932ZM13.3932 15.0923H8.06863V20.0923H13.3932V15.0923ZM5.56863 17.5923V23H10.5686V17.5923H5.56863ZM8.06863 20.5H5.30087V25.5H8.06863V20.5ZM21.4488 9.90909H23.9488V7.40909H21.4488V9.90909ZM21.4488 23V25.5H23.9488V23H21.4488ZM18.681 23H16.181V25.5H18.681V23ZM18.681 12.5362H21.181V10.0362H18.681V12.5362ZM18.6043 12.5362V10.0362H17.8855L17.2765 10.418L18.6043 12.5362ZM15.6064 14.4155H13.1064V18.9332L16.9343 16.5337L15.6064 14.4155ZM15.6064 11.9609L14.2691 9.8487L13.1064 10.5848V11.9609H15.6064ZM18.8472 9.90909V7.40909H18.1223L17.5099 7.79685L18.8472 9.90909ZM18.9488 9.90909V23H23.9488V9.90909H18.9488ZM21.4488 20.5H18.681V25.5H21.4488V20.5ZM21.181 23V12.5362H16.181V23H21.181ZM18.681 10.0362H18.6043V15.0362H18.681V10.0362ZM17.2765 10.418L14.2786 12.2973L16.9343 16.5337L19.9322 14.6544L17.2765 10.418ZM18.1064 14.4155V11.9609H13.1064V14.4155H18.1064ZM16.9438 14.0732L20.1845 12.0213L17.5099 7.79685L14.2691 9.8487L16.9438 14.0732ZM18.8472 12.4091H21.4488V7.40909H18.8472V12.4091ZM24.5601 23H22.0601V25.5H24.5601V23ZM24.5601 21.0057L22.8616 19.1713L22.0601 19.9134V21.0057H24.5601ZM29.2199 16.6911L30.9184 18.5255L30.9387 18.5067L30.9585 18.4876L29.2199 16.6911ZM30.2171 15.6555L28.3485 13.9946L28.3421 14.0019L28.3356 14.0093L30.2171 15.6555ZM30.8371 14.7543L33.0925 15.8329L33.0984 15.8203L30.8371 14.7543ZM30.786 12.7983L28.6624 14.1175L28.6669 14.1248L28.6715 14.1321L30.786 12.7983ZM30.07 12.1527L28.9395 14.3825L28.952 14.3888L28.9647 14.395L30.07 12.1527ZM27.3023 12.8622L29.5065 14.0419L29.5065 14.0419L27.3023 12.8622ZM27.0594 13.9425V16.4425H29.5594V13.9425H27.0594ZM24.4323 13.9425H21.9323V16.4425H24.4323V13.9425ZM25.0139 11.7116L27.1436 13.0211L25.0139 11.7116ZM26.6439 10.2479L25.5368 8.00636V8.00636L26.6439 10.2479ZM31.5083 10.2287L30.4291 12.4838L30.4374 12.4878L30.4458 12.4917L31.5083 10.2287ZM33.1382 11.5966L31.0558 12.9798V12.9798L33.1382 11.5966ZM33.4259 15.0675L31.1104 14.1249L31.1068 14.1337L31.1033 14.1425L33.4259 15.0675ZM32.3968 16.6719L34.3047 18.2874L34.3105 18.2805L32.3968 16.6719ZM30.3066 18.7749L28.624 16.9258L28.5898 16.9569L28.5568 16.9893L30.3066 18.7749ZM28.3953 20.6477L26.6456 18.8621L25.8953 19.5973V20.6477H28.3953ZM28.3953 20.7372H25.8953V23.2372H28.3953V20.7372ZM33.8925 20.7372H36.3925V18.2372H33.8925V20.7372ZM33.8925 23V25.5H36.3925V23H33.8925ZM27.0601 23V21.0057H22.0601V23H27.0601ZM26.2586 22.8401L30.9184 18.5255L27.5214 14.8566L22.8616 19.1713L26.2586 22.8401ZM30.9585 18.4876C31.3884 18.0715 31.7719 17.6751 32.0985 17.3018L28.3356 14.0093C28.1253 14.2496 27.844 14.5436 27.4813 14.8945L30.9585 18.4876ZM32.0856 17.3165C32.4755 16.8778 32.8286 16.3846 33.0924 15.8329L28.5818 13.6756C28.5644 13.712 28.504 13.8197 28.3485 13.9946L32.0856 17.3165ZM33.0984 15.8203C33.4036 15.173 33.548 14.4852 33.548 13.7891H28.548C28.548 13.7908 28.548 13.7782 28.5529 13.7555C28.558 13.7324 28.566 13.7089 28.5758 13.6882L33.0984 15.8203ZM33.548 13.7891C33.548 13.0156 33.3675 12.205 32.9004 11.4645L28.6715 14.1321C28.6176 14.0466 28.5841 13.9627 28.5656 13.893C28.5479 13.8258 28.548 13.7871 28.548 13.7891H33.548ZM32.9096 11.4791C32.4835 10.7932 31.8887 10.2619 31.1754 9.91035L28.9647 14.395C28.9198 14.3729 28.8616 14.3366 28.8017 14.2825C28.7415 14.2283 28.695 14.1701 28.6624 14.1175L32.9096 11.4791ZM31.2006 9.92295C30.5043 9.56987 29.7656 9.42259 29.0409 9.42259V14.4226C29.0657 14.4226 29.0633 14.425 29.0403 14.4199C29.0162 14.4145 28.9803 14.4032 28.9395 14.3825L31.2006 9.92295ZM29.0409 9.42259C28.2989 9.42259 27.5251 9.57466 26.7999 9.96835L29.1854 14.3626C29.1258 14.3949 29.0748 14.4114 29.0427 14.4188C29.0124 14.4258 29.0088 14.4226 29.0409 14.4226V9.42259ZM26.7999 9.96835C26.0673 10.3661 25.4879 10.9544 25.0981 11.6825L29.5065 14.0419C29.4791 14.093 29.4354 14.1569 29.3722 14.2207C29.3088 14.2847 29.2427 14.3315 29.1854 14.3626L26.7999 9.96835ZM25.0981 11.6825C24.7041 12.4187 24.5594 13.2017 24.5594 13.9425H29.5594C29.5594 13.8945 29.5641 13.8859 29.5592 13.9076C29.5539 13.9311 29.5396 13.9799 29.5065 14.0419L25.0981 11.6825ZM27.0594 11.4425H24.4323V16.4425H27.0594V11.4425ZM26.9323 13.9425C26.9323 13.4744 27.0339 13.1994 27.1436 13.0211L22.8843 10.4022C22.2184 11.4852 21.9323 12.6975 21.9323 13.9425H26.9323ZM27.1436 13.0211C27.2717 12.8127 27.4506 12.6378 27.751 12.4894L25.5368 8.00636C24.4395 8.54831 23.5317 9.34922 22.8843 10.4022L27.1436 13.0211ZM27.751 12.4894C28.0517 12.3409 28.4671 12.2301 29.0601 12.2301V7.23011C27.8292 7.23011 26.6339 7.46452 25.5368 8.00636L27.751 12.4894ZM29.0601 12.2301C29.7039 12.2301 30.1367 12.3438 30.4291 12.4838L32.5874 7.97359C31.4906 7.44877 30.2913 7.23011 29.0601 7.23011V12.2301ZM30.4458 12.4917C30.7739 12.6458 30.9464 12.8151 31.0558 12.9798L35.2207 10.2134C34.5545 9.21046 33.6403 8.46788 32.5708 7.96571L30.4458 12.4917ZM31.0558 12.9798C31.1503 13.1222 31.2199 13.3023 31.2199 13.6037H36.2199C36.2199 12.3966 35.9017 11.2386 35.2207 10.2133L31.0558 12.9798ZM31.2199 13.6037C31.2199 13.7583 31.191 13.9269 31.1104 14.1249L35.7414 16.0101C36.0528 15.2449 36.2199 14.4377 36.2199 13.6037H31.2199ZM31.1033 14.1425C31.0457 14.287 30.8801 14.5909 30.483 15.0632L34.3105 18.2805C34.9021 17.5767 35.4225 16.811 35.7485 15.9924L31.1033 14.1425ZM30.4888 15.0564C30.0928 15.5241 29.4838 16.1435 28.624 16.9258L31.9891 20.6239C32.9276 19.7699 33.7121 18.9873 34.3047 18.2874L30.4888 15.0564ZM28.5568 16.9893L26.6456 18.8621L30.1451 22.4333L32.0563 20.5604L28.5568 16.9893ZM25.8953 20.6477V20.7372H30.8953V20.6477H25.8953ZM28.3953 23.2372H33.8925V18.2372H28.3953V23.2372ZM31.3925 20.7372V23H36.3925V20.7372H31.3925ZM33.8925 20.5H24.5601V25.5H33.8925V20.5Z" fill="white" mask="url(#path-2-inside-1_1_1863)"/>
</g>
<defs>
<clipPath id="clip0_1_1863">
<rect width="40" height="32" fill="white"/>
</clipPath>
</defs>
</svg>
