<svg width="32" height="32" viewBox="0 0 32 32" fill="none" xmlns="http://www.w3.org/2000/svg">
<g clip-path="url(#clip0_1_1853)">
<rect width="32" height="32" rx="8" fill="black"/>
<mask id="path-2-inside-1_1_1853" fill="white">
<path d="M5.73837 23V9.90909H14.406V12.1911H8.50613V15.3104H13.8307V17.5923H8.50613V23H5.73837ZM16.6576 23V21.0057L21.3174 16.6911C21.7137 16.3075 22.0461 15.9624 22.3145 15.6555C22.5873 15.3487 22.7939 15.0483 22.9346 14.7543C23.0752 14.456 23.1455 14.1342 23.1455 13.7891C23.1455 13.4055 23.0581 13.0753 22.8834 12.7983C22.7087 12.517 22.4701 12.3018 22.1675 12.1527C21.865 11.9993 21.5219 11.9226 21.1384 11.9226C20.7378 11.9226 20.3884 12.0036 20.0901 12.1655C19.7918 12.3274 19.5617 12.5597 19.3998 12.8622C19.2378 13.1648 19.1569 13.5249 19.1569 13.9425H16.5297C16.5297 13.0859 16.7236 12.3423 17.1114 11.7116C17.4992 11.081 18.0425 10.593 18.7414 10.2479C19.4403 9.9027 20.2456 9.73011 21.1576 9.73011C22.0951 9.73011 22.9111 9.89631 23.6057 10.2287C24.3046 10.5568 24.8479 11.0128 25.2357 11.5966C25.6235 12.1804 25.8174 12.8494 25.8174 13.6037C25.8174 14.098 25.7194 14.5859 25.5233 15.0675C25.3316 15.549 24.9885 16.0838 24.4942 16.6719C23.9999 17.2557 23.3032 17.9567 22.404 18.7749L20.4928 20.6477V20.7372H25.99V23H16.6576Z"/>
</mask>
<path d="M5.73837 23H3.23837V25.5H5.73837V23ZM5.73837 9.90909V7.40909H3.23837V9.90909H5.73837ZM14.406 9.90909H16.906V7.40909H14.406V9.90909ZM14.406 12.1911V14.6911H16.906V12.1911H14.406ZM8.50613 12.1911V9.69105H6.00613V12.1911H8.50613ZM8.50613 15.3104H6.00613V17.8104H8.50613V15.3104ZM13.8307 15.3104H16.3307V12.8104H13.8307V15.3104ZM13.8307 17.5923V20.0923H16.3307V17.5923H13.8307ZM8.50613 17.5923V15.0923H6.00613V17.5923H8.50613ZM8.50613 23V25.5H11.0061V23H8.50613ZM8.23837 23V9.90909H3.23837V23H8.23837ZM5.73837 12.4091H14.406V7.40909H5.73837V12.4091ZM11.906 9.90909V12.1911H16.906V9.90909H11.906ZM14.406 9.69105H8.50613V14.6911H14.406V9.69105ZM6.00613 12.1911V15.3104H11.0061V12.1911H6.00613ZM8.50613 17.8104H13.8307V12.8104H8.50613V17.8104ZM11.3307 15.3104V17.5923H16.3307V15.3104H11.3307ZM13.8307 15.0923H8.50613V20.0923H13.8307V15.0923ZM6.00613 17.5923V23H11.0061V17.5923H6.00613ZM8.50613 20.5H5.73837V25.5H8.50613V20.5ZM16.6576 23H14.1576V25.5H16.6576V23ZM16.6576 21.0057L14.9591 19.1713L14.1576 19.9134V21.0057H16.6576ZM21.3174 16.6911L23.0159 18.5255L23.0361 18.5067L23.0559 18.4876L21.3174 16.6911ZM22.3145 15.6555L20.446 13.9946L20.4395 14.0019L20.4331 14.0093L22.3145 15.6555ZM22.9346 14.7543L25.1899 15.8329L25.1959 15.8203L22.9346 14.7543ZM22.8834 12.7983L20.7598 14.1175L20.7644 14.1248L20.7689 14.1321L22.8834 12.7983ZM22.1675 12.1527L21.0369 14.3825L21.0495 14.3888L21.0621 14.395L22.1675 12.1527ZM20.0901 12.1655L18.8974 9.96835L18.8974 9.96835L20.0901 12.1655ZM19.1569 13.9425V16.4425H21.6569V13.9425H19.1569ZM16.5297 13.9425H14.0297V16.4425H16.5297V13.9425ZM18.7414 10.2479L17.6343 8.00636L17.6343 8.00636L18.7414 10.2479ZM23.6057 10.2287L22.5266 12.4838L22.5349 12.4878L22.5432 12.4917L23.6057 10.2287ZM25.2357 11.5966L27.3182 10.2134V10.2133L25.2357 11.5966ZM25.5233 15.0675L23.2079 14.1249L23.2043 14.1337L23.2007 14.1425L25.5233 15.0675ZM24.4942 16.6719L26.4022 18.2874L26.4079 18.2805L24.4942 16.6719ZM22.404 18.7749L20.7215 16.9258L20.6873 16.9569L20.6543 16.9893L22.404 18.7749ZM20.4928 20.6477L18.743 18.8621L17.9928 19.5973V20.6477H20.4928ZM20.4928 20.7372H17.9928V23.2372H20.4928V20.7372ZM25.99 20.7372H28.49V18.2372H25.99V20.7372ZM25.99 23V25.5H28.49V23H25.99ZM19.1576 23V21.0057H14.1576V23H19.1576ZM18.3561 22.8401L23.0159 18.5255L19.6189 14.8566L14.9591 19.1713L18.3561 22.8401ZM23.0559 18.4876C23.4859 18.0715 23.8693 17.6751 24.196 17.3018L20.4331 14.0093C20.2228 14.2496 19.9415 14.5436 19.5788 14.8945L23.0559 18.4876ZM24.1831 17.3164C24.573 16.8778 24.9261 16.3846 25.1899 15.8329L20.6792 13.6756C20.6618 13.712 20.6015 13.8197 20.446 13.9946L24.1831 17.3164ZM25.1959 15.8203C25.501 15.173 25.6455 14.4852 25.6455 13.7891H20.6455C20.6455 13.7908 20.6455 13.7782 20.6504 13.7555C20.6555 13.7324 20.6635 13.7089 20.6733 13.6882L25.1959 15.8203ZM25.6455 13.7891C25.6455 13.0156 25.465 12.205 24.9979 11.4645L20.7689 14.1321C20.7151 14.0466 20.6816 13.9627 20.6631 13.893C20.6453 13.8258 20.6455 13.7871 20.6455 13.7891H25.6455ZM25.007 11.4791C24.581 10.7932 23.9861 10.2619 23.2729 9.91035L21.0621 14.395C21.0172 14.3729 20.9591 14.3366 20.8992 14.2825C20.839 14.2283 20.7925 14.1701 20.7598 14.1175L25.007 11.4791ZM23.2981 9.92295C22.6017 9.56987 21.863 9.42259 21.1384 9.42259V14.4226C21.1631 14.4226 21.1608 14.425 21.1378 14.4199C21.1137 14.4145 21.0778 14.4032 21.0369 14.3825L23.2981 9.92295ZM21.1384 9.42259C20.3964 9.42259 19.6226 9.57466 18.8974 9.96835L21.2828 14.3626C21.2233 14.3949 21.1723 14.4114 21.1402 14.4188C21.1099 14.4258 21.1063 14.4226 21.1384 14.4226V9.42259ZM18.8974 9.96835C18.1648 10.3661 17.5853 10.9544 17.1956 11.6825L21.6039 14.0419C21.5766 14.093 21.5329 14.1569 21.4697 14.2207C21.4063 14.2847 21.3402 14.3315 21.2828 14.3626L18.8974 9.96835ZM17.1956 11.6825C16.8016 12.4187 16.6569 13.2017 16.6569 13.9425H21.6569C21.6569 13.8945 21.6616 13.8859 21.6567 13.9076C21.6514 13.9311 21.6371 13.9799 21.6039 14.0419L17.1956 11.6825ZM19.1569 11.4425H16.5297V16.4425H19.1569V11.4425ZM19.0297 13.9425C19.0297 13.4744 19.1314 13.1994 19.2411 13.0211L14.9818 10.4022C14.3159 11.4852 14.0297 12.6975 14.0297 13.9425H19.0297ZM19.2411 13.0211C19.3692 12.8127 19.548 12.6378 19.8485 12.4894L17.6343 8.00636C16.537 8.54831 15.6292 9.34922 14.9818 10.4022L19.2411 13.0211ZM19.8485 12.4894C20.1491 12.3409 20.5646 12.2301 21.1576 12.2301V7.23011C19.9267 7.23011 18.7314 7.46452 17.6343 8.00636L19.8485 12.4894ZM21.1576 12.2301C21.8014 12.2301 22.2341 12.3438 22.5266 12.4838L24.6849 7.97359C23.5881 7.44877 22.3888 7.23011 21.1576 7.23011V12.2301ZM22.5432 12.4917C22.8714 12.6458 23.0438 12.8151 23.1532 12.9798L27.3182 10.2133C26.652 9.21046 25.7378 8.46788 24.6682 7.96571L22.5432 12.4917ZM23.1532 12.9798C23.2478 13.1222 23.3174 13.3023 23.3174 13.6037H28.3174C28.3174 12.3966 27.9992 11.2386 27.3182 10.2134L23.1532 12.9798ZM23.3174 13.6037C23.3174 13.7583 23.2884 13.9269 23.2079 14.1249L27.8388 16.0101C28.1503 15.2449 28.3174 14.4377 28.3174 13.6037H23.3174ZM23.2007 14.1425C23.1432 14.287 22.9776 14.5909 22.5805 15.0632L26.4079 18.2805C26.9995 17.5767 27.52 16.811 27.846 15.9924L23.2007 14.1425ZM22.5863 15.0564C22.1903 15.5241 21.5812 16.1435 20.7215 16.9258L24.0866 20.6239C25.0251 19.7699 25.8095 18.9873 26.4022 18.2874L22.5863 15.0564ZM20.6543 16.9893L18.743 18.8621L22.2426 22.4333L24.1538 20.5604L20.6543 16.9893ZM17.9928 20.6477V20.7372H22.9928V20.6477H17.9928ZM20.4928 23.2372H25.99V18.2372H20.4928V23.2372ZM23.49 20.7372V23H28.49V20.7372H23.49ZM25.99 20.5H16.6576V25.5H25.99V20.5Z" fill="white" mask="url(#path-2-inside-1_1_1853)"/>
</g>
<defs>
<clipPath id="clip0_1_1853">
<rect width="32" height="32" fill="white"/>
</clipPath>
</defs>
</svg>
