<svg width="32" height="32" viewBox="0 0 32 32" fill="none" xmlns="http://www.w3.org/2000/svg">
<g clip-path="url(#clip0_1_1854)">
<rect width="32" height="32" rx="8" fill="black"/>
<mask id="path-2-inside-1_1_1854" fill="white">
<path d="M5.73837 23V9.90909H14.406V12.1911H8.50613V15.3104H13.8307V17.5923H8.50613V23H5.73837ZM21.2407 23.179C20.2861 23.179 19.436 23.0149 18.6903 22.6868C17.9488 22.3544 17.3628 21.8984 16.9324 21.3189C16.5063 20.7351 16.2868 20.0618 16.2741 19.299H19.061C19.078 19.6186 19.1824 19.8999 19.3742 20.1428C19.5702 20.3814 19.8302 20.5668 20.154 20.6989C20.4779 20.831 20.8422 20.897 21.2471 20.897C21.6689 20.897 22.0418 20.8224 22.3657 20.6733C22.6895 20.5241 22.9431 20.3175 23.1263 20.0533C23.3096 19.7891 23.4012 19.4844 23.4012 19.1392C23.4012 18.7898 23.3032 18.4808 23.1072 18.2124C22.9154 17.9396 22.6384 17.7266 22.2762 17.5732C21.9182 17.4197 21.4921 17.343 20.9978 17.343H19.7769V15.3104H20.9978C21.4154 15.3104 21.784 15.2379 22.1036 15.093C22.4275 14.9482 22.6789 14.7479 22.8579 14.4922C23.0368 14.2322 23.1263 13.9297 23.1263 13.5845C23.1263 13.2564 23.0475 12.9688 22.8898 12.7216C22.7364 12.4702 22.5191 12.2741 22.2378 12.1335C21.9608 11.9929 21.637 11.9226 21.2662 11.9226C20.8912 11.9226 20.5482 11.9908 20.2371 12.1271C19.926 12.2592 19.6768 12.4489 19.4893 12.696C19.3018 12.9432 19.2016 13.233 19.1888 13.5653H16.5361C16.5489 12.8111 16.7641 12.1463 17.1817 11.571C17.5993 10.9957 18.1618 10.5462 18.8692 10.2223C19.5809 9.89418 20.3841 9.73011 21.279 9.73011C22.1824 9.73011 22.9729 9.89418 23.6505 10.2223C24.328 10.5504 24.8543 10.9936 25.2293 11.5518C25.6086 12.1058 25.7961 12.728 25.7918 13.4183C25.7961 14.1513 25.5681 14.7628 25.1079 15.2528C24.6519 15.7429 24.0574 16.054 23.3245 16.1861V16.2884C24.2876 16.4119 25.0205 16.7464 25.5233 17.2919C26.0305 17.8331 26.2819 18.5107 26.2776 19.3246C26.2819 20.0703 26.0667 20.733 25.632 21.3125C25.2016 21.892 24.6072 22.348 23.8486 22.6804C23.0901 23.0128 22.2208 23.179 21.2407 23.179Z"/>
</mask>
<path d="M5.73837 23H3.23837V25.5H5.73837V23ZM5.73837 9.90909V7.40909H3.23837V9.90909H5.73837ZM14.406 9.90909H16.906V7.40909H14.406V9.90909ZM14.406 12.1911V14.6911H16.906V12.1911H14.406ZM8.50613 12.1911V9.69105H6.00613V12.1911H8.50613ZM8.50613 15.3104H6.00613V17.8104H8.50613V15.3104ZM13.8307 15.3104H16.3307V12.8104H13.8307V15.3104ZM13.8307 17.5923V20.0923H16.3307V17.5923H13.8307ZM8.50613 17.5923V15.0923H6.00613V17.5923H8.50613ZM8.50613 23V25.5H11.0061V23H8.50613ZM8.23837 23V9.90909H3.23837V23H8.23837ZM5.73837 12.4091H14.406V7.40909H5.73837V12.4091ZM11.906 9.90909V12.1911H16.906V9.90909H11.906ZM14.406 9.69105H8.50613V14.6911H14.406V9.69105ZM6.00613 12.1911V15.3104H11.0061V12.1911H6.00613ZM8.50613 17.8104H13.8307V12.8104H8.50613V17.8104ZM11.3307 15.3104V17.5923H16.3307V15.3104H11.3307ZM13.8307 15.0923H8.50613V20.0923H13.8307V15.0923ZM6.00613 17.5923V23H11.0061V17.5923H6.00613ZM8.50613 20.5H5.73837V25.5H8.50613V20.5ZM18.6903 22.6868L17.6676 24.9681L17.6755 24.9716L17.6834 24.9751L18.6903 22.6868ZM16.9324 21.3189L14.9132 22.7928L14.9192 22.8012L14.9254 22.8094L16.9324 21.3189ZM16.2741 19.299V16.799H13.7318L13.7744 19.3409L16.2741 19.299ZM19.061 19.299L21.5574 19.1659L21.4312 16.799H19.061V19.299ZM19.3742 20.1428L17.412 21.6919L17.427 21.7109L17.4424 21.7296L19.3742 20.1428ZM20.154 20.6989L19.2098 23.0137H19.2098L20.154 20.6989ZM22.3657 20.6733L21.3199 18.4025L22.3657 20.6733ZM23.1263 20.0533L25.1806 21.478L25.1806 21.478L23.1263 20.0533ZM23.1072 18.2124L21.0621 19.6503L21.0749 19.6686L21.0881 19.6866L23.1072 18.2124ZM22.2762 17.5732L21.2914 19.871L21.3012 19.8752L22.2762 17.5732ZM19.7769 17.343H17.2769V19.843H19.7769V17.343ZM19.7769 15.3104V12.8104H17.2769V15.3104H19.7769ZM22.1036 15.093L21.0827 12.811L21.0714 12.8161L22.1036 15.093ZM22.8579 14.4922L24.9059 15.9258L24.9115 15.9179L24.917 15.9099L22.8579 14.4922ZM22.8898 12.7216L20.7557 14.0238L20.7687 14.0451L20.7822 14.0661L22.8898 12.7216ZM22.2378 12.1335L21.1061 14.3627L21.1129 14.3662L21.1198 14.3696L22.2378 12.1335ZM20.2371 12.1271L21.2143 14.4282L21.2276 14.4226L21.2408 14.4168L20.2371 12.1271ZM19.4893 12.696L21.481 14.207L21.481 14.207L19.4893 12.696ZM19.1888 13.5653V16.0653H21.5945L21.687 13.6614L19.1888 13.5653ZM16.5361 13.5653L14.0365 13.523L13.9934 16.0653H16.5361V13.5653ZM17.1817 11.571L19.2049 13.0397V13.0397L17.1817 11.571ZM18.8692 10.2223L19.9099 12.4954L19.916 12.4926L18.8692 10.2223ZM25.2293 11.5518L23.1541 12.9459L23.1602 12.955L23.1664 12.9641L25.2293 11.5518ZM25.7918 13.4183L23.2919 13.4029L23.2918 13.4179L23.2919 13.4329L25.7918 13.4183ZM25.1079 15.2528L23.2855 13.5414L23.2776 13.5499L25.1079 15.2528ZM23.3245 16.1861L22.8811 13.7257L20.8245 14.0964V16.1861H23.3245ZM23.3245 16.2884H20.8245V18.4881L23.0063 18.768L23.3245 16.2884ZM25.5233 17.2919L23.6852 18.9864L23.6921 18.9939L23.6991 19.0013L25.5233 17.2919ZM26.2776 19.3246L23.7776 19.3115L23.7776 19.3252L23.7777 19.3389L26.2776 19.3246ZM25.632 21.3125L23.632 19.8125L23.625 19.822L25.632 21.3125ZM23.8486 22.6804L22.8452 20.3906L23.8486 22.6804ZM21.2407 20.679C20.574 20.679 20.0758 20.5651 19.6971 20.3985L17.6834 24.9751C18.7962 25.4647 19.9983 25.679 21.2407 25.679V20.679ZM19.7129 20.4055C19.3119 20.2258 19.0841 20.023 18.9395 19.8284L14.9254 22.8094C15.6416 23.7738 16.5857 24.483 17.6676 24.9681L19.7129 20.4055ZM18.9517 19.845C18.8469 19.7014 18.7784 19.5347 18.7737 19.2571L13.7744 19.3409C13.7953 20.5888 14.1657 21.7688 14.9132 22.7928L18.9517 19.845ZM16.2741 21.799H19.061V16.799H16.2741V21.799ZM16.5645 19.4321C16.6081 20.2488 16.8887 21.029 17.412 21.6919L21.3364 18.5936C21.3972 18.6707 21.4542 18.7677 21.4958 18.8796C21.5371 18.9908 21.5534 19.0906 21.5574 19.1659L16.5645 19.4321ZM17.4424 21.7296C17.9353 22.3297 18.553 22.7458 19.2098 23.0137L21.0982 18.384C21.0988 18.3842 21.1258 18.3954 21.1677 18.4253C21.2108 18.456 21.2597 18.4995 21.306 18.5559L17.4424 21.7296ZM19.2098 23.0137C19.8768 23.2858 20.5689 23.397 21.2471 23.397V18.397C21.1156 18.397 21.079 18.3762 21.0982 18.384L19.2098 23.0137ZM21.2471 23.397C21.9646 23.397 22.705 23.2694 23.4114 22.9441L21.3199 18.4025C21.3468 18.3901 21.3603 18.3881 21.3528 18.3896C21.3443 18.3913 21.311 18.397 21.2471 18.397V23.397ZM23.4114 22.9441C24.0956 22.629 24.7158 22.1483 25.1806 21.478L21.072 18.6285C21.1162 18.5649 21.1677 18.5106 21.2192 18.4686C21.2695 18.4276 21.3076 18.4082 21.3199 18.4025L23.4114 22.9441ZM25.1806 21.478C25.6758 20.7641 25.9012 19.9542 25.9012 19.1392H20.9012C20.9012 19.0885 20.9083 19.0068 20.9384 18.9067C20.9689 18.805 21.0157 18.7098 21.072 18.6285L25.1806 21.478ZM25.9012 19.1392C25.9012 18.2887 25.6514 17.4574 25.1262 16.7381L21.0881 19.6866C21.0309 19.6083 20.9795 19.511 20.9447 19.4014C20.9103 19.293 20.9012 19.201 20.9012 19.1392H25.9012ZM25.1522 16.7744C24.6465 16.0551 23.9654 15.5736 23.2512 15.2711L21.3012 19.8752C21.3105 19.8791 21.2811 19.8679 21.2313 19.8296C21.1795 19.7897 21.1182 19.7302 21.0621 19.6503L25.1522 16.7744ZM23.261 15.2753C22.5202 14.9578 21.7429 14.843 20.9978 14.843V19.843C21.2413 19.843 21.3163 19.8817 21.2914 19.871L23.261 15.2753ZM20.9978 14.843H19.7769V19.843H20.9978V14.843ZM22.2769 17.343V15.3104H17.2769V17.343H22.2769ZM19.7769 17.8104H20.9978V12.8104H19.7769V17.8104ZM20.9978 17.8104C21.7047 17.8104 22.4362 17.6871 23.1358 17.37L21.0714 12.8161C21.0994 12.8034 21.1133 12.8014 21.1053 12.803C21.0963 12.8047 21.0624 12.8104 20.9978 12.8104V17.8104ZM23.1245 17.3751C23.8036 17.0713 24.4336 16.6006 24.9059 15.9258L20.8098 13.0585C20.862 12.984 20.9211 12.9236 20.9774 12.8788C21.0322 12.8351 21.0723 12.8156 21.0827 12.811L23.1245 17.3751ZM24.917 15.9099C25.41 15.1939 25.6263 14.3864 25.6263 13.5845H20.6263C20.6263 13.5394 20.6325 13.4607 20.6619 13.3612C20.6919 13.2599 20.7389 13.1613 20.7987 13.0744L24.917 15.9099ZM25.6263 13.5845C25.6263 12.8386 25.4412 12.0726 24.9975 11.3771L20.7822 14.0661C20.7238 13.9746 20.6818 13.8773 20.6561 13.7835C20.631 13.6917 20.6263 13.6216 20.6263 13.5845H25.6263ZM25.0239 11.4194C24.6095 10.7402 24.0271 10.2331 23.3559 9.89745L21.1198 14.3696C21.0736 14.3465 21.0081 14.3063 20.9374 14.2424C20.8657 14.1778 20.8039 14.1027 20.7557 14.0238L25.0239 11.4194ZM23.3696 9.90436C22.6802 9.55439 21.9548 9.42259 21.2662 9.42259V14.4226C21.294 14.4226 21.2883 14.4252 21.2568 14.4184C21.2239 14.4113 21.1704 14.3953 21.1061 14.3627L23.3696 9.90436ZM21.2662 9.42259C20.5819 9.42259 19.8925 9.54856 19.2334 9.83746L21.2408 14.4168C21.2338 14.4199 21.2276 14.4221 21.2226 14.4237C21.2176 14.4253 21.2149 14.4258 21.2151 14.4258C21.2153 14.4257 21.2192 14.4249 21.2273 14.4242C21.2355 14.4234 21.2483 14.4226 21.2662 14.4226V9.42259ZM19.2599 9.82602C18.5845 10.1129 17.9718 10.5599 17.4975 11.1851L21.481 14.207C21.4365 14.2657 21.3844 14.3171 21.3304 14.3582C21.2774 14.3985 21.2348 14.4195 21.2143 14.4282L19.2599 9.82602ZM17.4975 11.1851C16.9773 11.8708 16.7217 12.6635 16.6907 13.4693L21.687 13.6614C21.6847 13.72 21.6731 13.8091 21.6364 13.9153C21.5992 14.023 21.5449 14.1227 21.481 14.207L17.4975 11.1851ZM19.1888 11.0653H16.5361V16.0653H19.1888V11.0653ZM19.0358 13.6077C19.0404 13.3333 19.1076 13.1736 19.2049 13.0397L15.1586 10.1024C14.4206 11.119 14.0574 12.2888 14.0365 13.523L19.0358 13.6077ZM19.2049 13.0397C19.3463 12.8449 19.5559 12.6575 19.9099 12.4954L17.8285 7.94921C16.7678 8.43484 15.8524 9.1466 15.1586 10.1024L19.2049 13.0397ZM19.916 12.4926C20.2559 12.3359 20.6943 12.2301 21.279 12.2301V7.23011C20.074 7.23011 18.9059 7.45246 17.8224 7.952L19.916 12.4926ZM21.279 12.2301C21.8796 12.2301 22.2842 12.3384 22.5608 12.4723L24.7401 7.97226C23.6616 7.44996 22.4853 7.23011 21.279 7.23011V12.2301ZM22.5608 12.4723C22.8886 12.631 23.0545 12.7977 23.1541 12.9459L27.3046 10.1578C26.6541 9.18952 25.7675 8.46981 24.7401 7.97226L22.5608 12.4723ZM23.1664 12.9641C23.2494 13.0853 23.2931 13.2065 23.2919 13.4029L28.2918 13.4338C28.2991 12.2494 27.9677 11.1263 27.2922 10.1396L23.1664 12.9641ZM23.2919 13.4329C23.2922 13.4844 23.2883 13.5173 23.2854 13.5349C23.2825 13.552 23.2802 13.5569 23.2815 13.5533C23.283 13.5495 23.2858 13.5435 23.2893 13.5379C23.2927 13.5325 23.2928 13.5336 23.2855 13.5414L26.9302 16.9643C27.8707 15.9629 28.2994 14.7144 28.2918 13.4038L23.2919 13.4329ZM23.2776 13.5499C23.2312 13.5997 23.145 13.6781 22.8811 13.7257L23.7679 18.6464C24.9699 18.4298 26.0726 17.8861 26.9381 16.9558L23.2776 13.5499ZM20.8245 16.1861V16.2884H25.8245V16.1861H20.8245ZM23.0063 18.768C23.2882 18.8042 23.4615 18.862 23.5585 18.9063C23.6486 18.9474 23.6781 18.9786 23.6852 18.9864L27.3615 15.5974C26.3509 14.5012 25.0063 13.9837 23.6427 13.8087L23.0063 18.768ZM23.6991 19.0013C23.7246 19.0285 23.7789 19.0691 23.7776 19.3115L28.7776 19.3377C28.7848 17.9522 28.3363 16.6377 27.3476 15.5825L23.6991 19.0013ZM23.7777 19.3389C23.7789 19.5561 23.729 19.6832 23.632 19.8125L27.632 22.8125C28.4044 21.7827 28.7849 20.5845 28.7776 19.3103L23.7777 19.3389ZM23.625 19.822C23.49 20.0036 23.2648 20.2067 22.8452 20.3906L24.852 24.9702C25.9495 24.4893 26.9132 23.7804 27.6391 22.803L23.625 19.822ZM22.8452 20.3906C22.4557 20.5613 21.9379 20.679 21.2407 20.679V25.679C22.5037 25.679 23.7246 25.4643 24.852 24.9702L22.8452 20.3906Z" fill="white" mask="url(#path-2-inside-1_1_1854)"/>
</g>
<defs>
<clipPath id="clip0_1_1854">
<rect width="32" height="32" fill="white"/>
</clipPath>
</defs>
</svg>
