<svg width="32" height="32" viewBox="0 0 32 32" fill="none" xmlns="http://www.w3.org/2000/svg">
<g clip-path="url(#clip0_1_1855)">
<rect width="32" height="32" rx="8" fill="black"/>
<mask id="path-2-inside-1_1_1855" fill="white">
<path d="M5.75595 23V9.90909H14.4236V12.1911H8.5237V15.3104H13.8483V17.5923H8.5237V23H5.75595ZM16.0104 20.6989V18.5192L21.4756 9.90909H23.3548V12.9261H22.2426L18.7973 18.3786V18.4808H26.5637V20.6989H16.0104ZM22.2938 23V20.0341L22.3449 19.0689V9.90909H24.9401V23H22.2938Z"/>
</mask>
<path d="M5.75595 23H3.25595V25.5H5.75595V23ZM5.75595 9.90909V7.40909H3.25595V9.90909H5.75595ZM14.4236 9.90909H16.9236V7.40909H14.4236V9.90909ZM14.4236 12.1911V14.6911H16.9236V12.1911H14.4236ZM8.5237 12.1911V9.69105H6.0237V12.1911H8.5237ZM8.5237 15.3104H6.0237V17.8104H8.5237V15.3104ZM13.8483 15.3104H16.3483V12.8104H13.8483V15.3104ZM13.8483 17.5923V20.0923H16.3483V17.5923H13.8483ZM8.5237 17.5923V15.0923H6.0237V17.5923H8.5237ZM8.5237 23V25.5H11.0237V23H8.5237ZM8.25595 23V9.90909H3.25595V23H8.25595ZM5.75595 12.4091H14.4236V7.40909H5.75595V12.4091ZM11.9236 9.90909V12.1911H16.9236V9.90909H11.9236ZM14.4236 9.69105H8.5237V14.6911H14.4236V9.69105ZM6.0237 12.1911V15.3104H11.0237V12.1911H6.0237ZM8.5237 17.8104H13.8483V12.8104H8.5237V17.8104ZM11.3483 15.3104V17.5923H16.3483V15.3104H11.3483ZM13.8483 15.0923H8.5237V20.0923H13.8483V15.0923ZM6.0237 17.5923V23H11.0237V17.5923H6.0237ZM8.5237 20.5H5.75595V25.5H8.5237V20.5ZM16.0104 20.6989H13.5104V23.1989H16.0104V20.6989ZM16.0104 18.5192L13.8997 17.1794L13.5104 17.7927V18.5192H16.0104ZM21.4756 9.90909V7.40909H20.1013L19.3649 8.56934L21.4756 9.90909ZM23.3548 9.90909H25.8548V7.40909H23.3548V9.90909ZM23.3548 12.9261V15.4261H25.8548V12.9261H23.3548ZM22.2426 12.9261V10.4261H20.8651L20.1292 11.5907L22.2426 12.9261ZM18.7973 18.3786L16.6839 17.0431L16.2973 17.6549V18.3786H18.7973ZM18.7973 18.4808H16.2973V20.9808H18.7973V18.4808ZM26.5637 18.4808H29.0637V15.9808H26.5637V18.4808ZM26.5637 20.6989V23.1989H29.0637V20.6989H26.5637ZM22.2938 23H19.7938V25.5H22.2938V23ZM22.2938 20.0341L19.7973 19.9018L19.7938 19.9679V20.0341H22.2938ZM22.3449 19.0689L24.8414 19.2012L24.8449 19.1351V19.0689H22.3449ZM22.3449 9.90909V7.40909H19.8449V9.90909H22.3449ZM24.9401 9.90909H27.4401V7.40909H24.9401V9.90909ZM24.9401 23V25.5H27.4401V23H24.9401ZM18.5104 20.6989V18.5192H13.5104V20.6989H18.5104ZM18.1211 19.8589L23.5863 11.2488L19.3649 8.56934L13.8997 17.1794L18.1211 19.8589ZM21.4756 12.4091H23.3548V7.40909H21.4756V12.4091ZM20.8548 9.90909V12.9261H25.8548V9.90909H20.8548ZM23.3548 10.4261H22.2426V15.4261H23.3548V10.4261ZM20.1292 11.5907L16.6839 17.0431L20.9107 19.714L24.3561 14.2616L20.1292 11.5907ZM16.2973 18.3786V18.4808H21.2973V18.3786H16.2973ZM18.7973 20.9808H26.5637V15.9808H18.7973V20.9808ZM24.0637 18.4808V20.6989H29.0637V18.4808H24.0637ZM26.5637 18.1989H16.0104V23.1989H26.5637V18.1989ZM24.7938 23V20.0341H19.7938V23H24.7938ZM24.7903 20.1664L24.8414 19.2012L19.8484 18.9366L19.7973 19.9018L24.7903 20.1664ZM24.8449 19.0689V9.90909H19.8449V19.0689H24.8449ZM22.3449 12.4091H24.9401V7.40909H22.3449V12.4091ZM22.4401 9.90909V23H27.4401V9.90909H22.4401ZM24.9401 20.5H22.2938V25.5H24.9401V20.5Z" fill="white" mask="url(#path-2-inside-1_1_1855)"/>
</g>
<defs>
<clipPath id="clip0_1_1855">
<rect width="32" height="32" fill="white"/>
</clipPath>
</defs>
</svg>
