<svg width="32" height="32" viewBox="0 0 32 32" fill="none" xmlns="http://www.w3.org/2000/svg">
<g clip-path="url(#clip0_1_1856)">
<rect width="32" height="32" rx="8" fill="black"/>
<mask id="path-2-inside-1_1_1856" fill="white">
<path d="M5.73837 23V9.90909H14.406V12.1911H8.50613V15.3104H13.8307V17.5923H8.50613V23H5.73837ZM21.2599 23.179C20.3564 23.179 19.551 23.0128 18.8437 22.6804C18.1405 22.348 17.5823 21.8899 17.1689 21.3061C16.7556 20.7223 16.5404 20.0533 16.5233 19.299H19.208C19.2378 19.8061 19.4509 20.2173 19.8472 20.5327C20.2435 20.848 20.7144 21.0057 21.2599 21.0057C21.6945 21.0057 22.078 20.9098 22.4104 20.718C22.7471 20.522 23.0091 20.2514 23.1966 19.9062C23.3884 19.5568 23.4843 19.1562 23.4843 18.7045C23.4843 18.2443 23.3863 17.8395 23.1903 17.4901C22.9985 17.1406 22.7322 16.8679 22.3912 16.6719C22.0503 16.4759 21.6604 16.3757 21.2215 16.3714C20.838 16.3714 20.4651 16.4503 20.1029 16.608C19.7449 16.7656 19.4658 16.9808 19.2655 17.2536L16.8046 16.8125L17.4246 9.90909H25.4275V12.1719H19.7066L19.3678 15.451H19.4445C19.6746 15.1271 20.0219 14.8587 20.4864 14.6456C20.9509 14.4325 21.4708 14.326 22.0461 14.326C22.8344 14.326 23.5376 14.5114 24.1555 14.8821C24.7733 15.2528 25.2613 15.7621 25.6192 16.4098C25.9772 17.0533 26.154 17.7947 26.1498 18.6342C26.154 19.5163 25.9495 20.3004 25.5361 20.9865C25.127 21.6683 24.5539 22.2053 23.8167 22.5973C23.0837 22.9851 22.2314 23.179 21.2599 23.179Z"/>
</mask>
<path d="M5.73837 23H3.23837V25.5H5.73837V23ZM5.73837 9.90909V7.40909H3.23837V9.90909H5.73837ZM14.406 9.90909H16.906V7.40909H14.406V9.90909ZM14.406 12.1911V14.6911H16.906V12.1911H14.406ZM8.50613 12.1911V9.69105H6.00613V12.1911H8.50613ZM8.50613 15.3104H6.00613V17.8104H8.50613V15.3104ZM13.8307 15.3104H16.3307V12.8104H13.8307V15.3104ZM13.8307 17.5923V20.0923H16.3307V17.5923H13.8307ZM8.50613 17.5923V15.0923H6.00613V17.5923H8.50613ZM8.50613 23V25.5H11.0061V23H8.50613ZM8.23837 23V9.90909H3.23837V23H8.23837ZM5.73837 12.4091H14.406V7.40909H5.73837V12.4091ZM11.906 9.90909V12.1911H16.906V9.90909H11.906ZM14.406 9.69105H8.50613V14.6911H14.406V9.69105ZM6.00613 12.1911V15.3104H11.0061V12.1911H6.00613ZM8.50613 17.8104H13.8307V12.8104H8.50613V17.8104ZM11.3307 15.3104V17.5923H16.3307V15.3104H11.3307ZM13.8307 15.0923H8.50613V20.0923H13.8307V15.0923ZM6.00613 17.5923V23H11.0061V17.5923H6.00613ZM8.50613 20.5H5.73837V25.5H8.50613V20.5ZM18.8437 22.6804L17.7752 24.9406L17.7805 24.9431L18.8437 22.6804ZM17.1689 21.3061L15.1286 22.7507L17.1689 21.3061ZM16.5233 19.299V16.799H13.9662L14.024 19.3555L16.5233 19.299ZM19.208 19.299L21.7037 19.1522L21.5653 16.799H19.208V19.299ZM19.8472 20.5327L21.4038 18.5764V18.5764L19.8472 20.5327ZM22.4104 20.718L23.6597 22.8835L23.6684 22.8785L22.4104 20.718ZM23.1966 19.9062L21.005 18.7035L20.9998 18.7129L23.1966 19.9062ZM23.1903 17.4901L20.9986 18.6928L21.0042 18.703L21.0099 18.7132L23.1903 17.4901ZM22.3912 16.6719L21.1451 18.8391L21.1451 18.8391L22.3912 16.6719ZM21.2215 16.3714L21.2458 13.8716L21.2336 13.8714H21.2215V16.3714ZM20.1029 16.608L19.1051 14.3157L19.0951 14.3201L20.1029 16.608ZM19.2655 17.2536L18.8245 19.7143L20.3582 19.9892L21.2805 18.7333L19.2655 17.2536ZM16.8046 16.8125L14.3146 16.5889L14.1098 18.8694L16.3636 19.2733L16.8046 16.8125ZM17.4246 9.90909V7.40909H15.1391L14.9346 9.68545L17.4246 9.90909ZM25.4275 9.90909H27.9275V7.40909H25.4275V9.90909ZM25.4275 12.1719V14.6719H27.9275V12.1719H25.4275ZM19.7066 12.1719V9.67188H17.4516L17.2198 11.915L19.7066 12.1719ZM19.3678 15.451L16.881 15.1941L16.5962 17.951H19.3678V15.451ZM19.4445 15.451V17.951H20.735L21.4825 16.899L19.4445 15.451ZM20.4864 14.6456L21.5288 16.9179V16.9179L20.4864 14.6456ZM24.1555 14.8821L25.4417 12.7384L25.4417 12.7384L24.1555 14.8821ZM25.6192 16.4098L23.4311 17.619L23.4345 17.6251L25.6192 16.4098ZM26.1498 18.6342L23.6498 18.6215L23.6497 18.6339L23.6498 18.6463L26.1498 18.6342ZM25.5361 20.9865L23.3947 19.6964L23.3924 19.7003L25.5361 20.9865ZM23.8167 22.5973L24.9858 24.8071L24.9905 24.8046L23.8167 22.5973ZM21.2599 20.679C20.6669 20.679 20.2335 20.5712 19.9068 20.4177L17.7805 24.9431C18.8686 25.4543 20.046 25.679 21.2599 25.679V20.679ZM19.9121 20.4202C19.5628 20.2551 19.3528 20.0642 19.2093 19.8615L15.1286 22.7507C15.8118 23.7156 16.7183 24.4409 17.7752 24.9406L19.9121 20.4202ZM19.2093 19.8615C19.1 19.7072 19.0291 19.5274 19.0227 19.2425L14.024 19.3555C14.0516 20.5791 14.4111 21.7374 15.1286 22.7507L19.2093 19.8615ZM16.5233 21.799H19.208V16.799H16.5233V21.799ZM16.7123 19.4458C16.7837 20.6597 17.3365 21.7297 18.2906 22.4889L21.4038 18.5764C21.455 18.6171 21.54 18.7026 21.6099 18.8376C21.6798 18.9724 21.7 19.0898 21.7037 19.1522L16.7123 19.4458ZM18.2906 22.4889C19.1645 23.1843 20.1955 23.5057 21.2599 23.5057V18.5057C21.2305 18.5057 21.247 18.5019 21.2914 18.5168C21.3123 18.5238 21.3342 18.5332 21.3556 18.5449C21.3768 18.5565 21.393 18.5678 21.4038 18.5764L18.2906 22.4889ZM21.2599 23.5057C22.0738 23.5057 22.8992 23.3223 23.6597 22.8835L21.1611 18.5526C21.2022 18.5289 21.2404 18.5151 21.2672 18.5084C21.2922 18.5021 21.2928 18.5057 21.2599 18.5057V23.5057ZM23.6684 22.8785C24.4041 22.4501 24.9894 21.8434 25.3935 21.0996L20.9998 18.7129C21.0097 18.6947 21.0302 18.6633 21.0636 18.6288C21.0971 18.5942 21.1298 18.5708 21.1524 18.5576L23.6684 22.8785ZM25.3883 21.109C25.808 20.3442 25.9843 19.5199 25.9843 18.7045H20.9843C20.9843 18.7531 20.9792 18.7695 20.9811 18.7618C20.9819 18.7582 20.9841 18.7504 20.9883 18.7394C20.9925 18.7283 20.9981 18.7161 21.005 18.7035L25.3883 21.109ZM25.9843 18.7045C25.9843 17.8804 25.8056 17.0424 25.3706 16.2669L21.0099 18.7132C21.0014 18.6981 20.9947 18.6835 20.9896 18.6705C20.9846 18.6576 20.982 18.6484 20.981 18.644C20.9788 18.6349 20.9843 18.6521 20.9843 18.7045H25.9843ZM25.3819 16.2873C24.9726 15.5415 24.3817 14.9326 23.6374 14.5046L21.1451 18.8391C21.1226 18.8262 21.0905 18.8034 21.0581 18.7701C21.0258 18.737 21.0068 18.7077 20.9986 18.6928L25.3819 16.2873ZM23.6374 14.5046C22.8828 14.0707 22.0629 13.8795 21.2458 13.8716L21.1972 18.8713C21.2331 18.8717 21.2383 18.8755 21.2212 18.8712C21.2131 18.8691 21.2015 18.8655 21.1874 18.8598C21.1734 18.8541 21.159 18.8471 21.1451 18.8391L23.6374 14.5046ZM21.2215 13.8714C20.4842 13.8714 19.7724 14.0252 19.1051 14.3157L21.1007 18.9002C21.1578 18.8753 21.1917 18.8714 21.2215 18.8714V13.8714ZM19.0951 14.3201C18.3997 14.6264 17.7481 15.0963 17.2505 15.7738L21.2805 18.7333C21.2364 18.7934 21.1897 18.8381 21.1516 18.8675C21.1149 18.8957 21.0964 18.9021 21.1107 18.8958L19.0951 14.3201ZM19.7066 14.7928L17.2456 14.3517L16.3636 19.2733L18.8245 19.7143L19.7066 14.7928ZM19.2946 17.0361L19.9146 10.1327L14.9346 9.68545L14.3146 16.5889L19.2946 17.0361ZM17.4246 12.4091H25.4275V7.40909H17.4246V12.4091ZM22.9275 9.90909V12.1719H27.9275V9.90909H22.9275ZM25.4275 9.67188H19.7066V14.6719H25.4275V9.67188ZM17.2198 11.915L16.881 15.1941L21.8546 15.7079L22.1934 12.4288L17.2198 11.915ZM19.3678 17.951H19.4445V12.951H19.3678V17.951ZM21.4825 16.899C21.4622 16.9275 21.4435 16.9489 21.4292 16.9636C21.4151 16.9781 21.4065 16.9847 21.4065 16.9847C21.4075 16.9839 21.4419 16.9578 21.5288 16.9179L19.4441 12.3733C18.6928 12.7179 17.9533 13.2335 17.4066 14.003L21.4825 16.899ZM21.5288 16.9179C21.6274 16.8727 21.7852 16.826 22.0461 16.826V11.826C21.1564 11.826 20.2745 11.9924 19.4441 12.3733L21.5288 16.9179ZM22.0461 16.826C22.4253 16.826 22.6759 16.9099 22.8692 17.0258L25.4417 12.7384C24.3992 12.1129 23.2435 11.826 22.0461 11.826V16.826ZM22.8692 17.0258C23.0989 17.1636 23.2802 17.3459 23.4311 17.619L27.8073 15.2006C27.2424 14.1782 26.4478 13.3421 25.4417 12.7384L22.8692 17.0258ZM23.4345 17.6251C23.5558 17.8432 23.6522 18.1506 23.6498 18.6215L28.6497 18.6469C28.6559 17.4389 28.3986 16.2634 27.8039 15.1945L23.4345 17.6251ZM23.6498 18.6463C23.6521 19.1176 23.5478 19.4424 23.3948 19.6964L27.6775 22.2767C28.3512 21.1585 28.656 19.9151 28.6497 18.6222L23.6498 18.6463ZM23.3924 19.7003C23.2289 19.9728 23.0001 20.2 22.6429 20.39L24.9905 24.8046C26.1077 24.2105 27.0252 23.3639 27.6799 22.2727L23.3924 19.7003ZM22.6475 20.3875C22.332 20.5544 21.894 20.679 21.2599 20.679V25.679C22.5689 25.679 23.8354 25.4157 24.9858 24.8071L22.6475 20.3875Z" fill="white" mask="url(#path-2-inside-1_1_1856)"/>
</g>
<defs>
<clipPath id="clip0_1_1856">
<rect width="32" height="32" fill="white"/>
</clipPath>
</defs>
</svg>
