<svg width="32" height="32" viewBox="0 0 32 32" fill="none" xmlns="http://www.w3.org/2000/svg">
<g clip-path="url(#clip0_1_1857)">
<rect width="32" height="32" rx="8" fill="black"/>
<mask id="path-2-inside-1_1_1857" fill="white">
<path d="M5.73837 23V9.90909H14.406V12.1911H8.50613V15.3104H13.8307V17.5923H8.50613V23H5.73837ZM21.4197 23.179C20.7464 23.1747 20.0965 23.0618 19.4701 22.8402C18.8479 22.6186 18.2897 22.2585 17.7954 21.7599C17.301 21.2614 16.909 20.6009 16.6192 19.7784C16.3337 18.956 16.191 17.946 16.191 16.7486C16.1952 15.6491 16.3209 14.6669 16.5681 13.8018C16.8195 12.9325 17.1775 12.1953 17.642 11.5902C18.1107 10.9851 18.6711 10.5249 19.3231 10.2095C19.9751 9.88991 20.7059 9.73011 21.5155 9.73011C22.3891 9.73011 23.1604 9.90057 23.8295 10.2415C24.4985 10.5781 25.0354 11.0362 25.4403 11.6158C25.8493 12.1953 26.0965 12.8452 26.1817 13.5653H23.4523C23.3458 13.1094 23.1221 12.7514 22.7812 12.4915C22.4403 12.2315 22.0184 12.1016 21.5155 12.1016C20.6633 12.1016 20.0155 12.4723 19.5724 13.2138C19.1334 13.9553 18.9097 14.9631 18.9012 16.2372H18.9907C19.1867 15.8494 19.4509 15.5192 19.7833 15.2464C20.1199 14.9695 20.5013 14.7585 20.9275 14.6136C21.3579 14.4645 21.8117 14.3899 22.289 14.3899C23.0645 14.3899 23.7549 14.5732 24.36 14.9396C24.9651 15.3018 25.4424 15.8004 25.7918 16.4354C26.1412 17.0703 26.316 17.7969 26.316 18.6151C26.316 19.5014 26.1093 20.2898 25.6959 20.9801C25.2868 21.6705 24.7137 22.2116 23.9765 22.6037C23.2435 22.9915 22.3912 23.1832 21.4197 23.179ZM21.4069 21.0057C21.833 21.0057 22.2144 20.9034 22.551 20.6989C22.8877 20.4943 23.1519 20.2173 23.3437 19.8679C23.5354 19.5185 23.6313 19.1264 23.6313 18.6918C23.6313 18.2571 23.5354 17.8672 23.3437 17.522C23.1562 17.1768 22.8962 16.902 22.5638 16.6974C22.2314 16.4929 21.8522 16.3906 21.426 16.3906C21.1064 16.3906 20.8103 16.4503 20.5376 16.5696C20.2691 16.6889 20.0326 16.8551 19.828 17.0682C19.6278 17.2812 19.4701 17.5284 19.355 17.8097C19.24 18.0866 19.1824 18.3828 19.1824 18.6982C19.1824 19.12 19.2783 19.5057 19.4701 19.8551C19.6661 20.2045 19.9303 20.4837 20.2627 20.6925C20.5993 20.9013 20.9807 21.0057 21.4069 21.0057Z"/>
</mask>
<path d="M5.73837 23H3.23837V25.5H5.73837V23ZM5.73837 9.90909V7.40909H3.23837V9.90909H5.73837ZM14.406 9.90909H16.906V7.40909H14.406V9.90909ZM14.406 12.1911V14.6911H16.906V12.1911H14.406ZM8.50613 12.1911V9.69105H6.00613V12.1911H8.50613ZM8.50613 15.3104H6.00613V17.8104H8.50613V15.3104ZM13.8307 15.3104H16.3307V12.8104H13.8307V15.3104ZM13.8307 17.5923V20.0923H16.3307V17.5923H13.8307ZM8.50613 17.5923V15.0923H6.00613V17.5923H8.50613ZM8.50613 23V25.5H11.0061V23H8.50613ZM8.23837 23V9.90909H3.23837V23H8.23837ZM5.73837 12.4091H14.406V7.40909H5.73837V12.4091ZM11.906 9.90909V12.1911H16.906V9.90909H11.906ZM14.406 9.69105H8.50613V14.6911H14.406V9.69105ZM6.00613 12.1911V15.3104H11.0061V12.1911H6.00613ZM8.50613 17.8104H13.8307V12.8104H8.50613V17.8104ZM11.3307 15.3104V17.5923H16.3307V15.3104H11.3307ZM13.8307 15.0923H8.50613V20.0923H13.8307V15.0923ZM6.00613 17.5923V23H11.0061V17.5923H6.00613ZM8.50613 20.5H5.73837V25.5H8.50613V20.5ZM21.4197 23.179L21.4038 25.6789L21.4087 25.679L21.4197 23.179ZM19.4701 22.8402L18.6313 25.1953L18.6364 25.1971L19.4701 22.8402ZM17.7954 21.7599L16.02 23.5201L17.7954 21.7599ZM16.6192 19.7784L14.2575 20.5983L14.2613 20.6092L16.6192 19.7784ZM16.191 16.7486L13.691 16.7389V16.7486H16.191ZM16.5681 13.8018L14.1665 13.1073L14.1643 13.115L16.5681 13.8018ZM17.642 11.5902L15.6656 10.0592L15.6588 10.0679L17.642 11.5902ZM19.3231 10.2095L20.4116 12.4601L20.4235 12.4543L19.3231 10.2095ZM23.8295 10.2415L22.6944 12.469L22.7057 12.4747L23.8295 10.2415ZM25.4403 11.6158L23.3907 13.0474L23.3978 13.0575L25.4403 11.6158ZM26.1817 13.5653V16.0653H28.995L28.6644 13.2715L26.1817 13.5653ZM23.4523 13.5653L21.0179 14.1341L21.4691 16.0653H23.4523V13.5653ZM19.5724 13.2138L17.4264 11.9312L17.421 11.9403L19.5724 13.2138ZM18.9012 16.2372L16.4012 16.2205L16.3844 18.7372H18.9012V16.2372ZM18.9907 16.2372V18.7372H20.5282L21.2218 17.365L18.9907 16.2372ZM19.7833 15.2464L21.3691 17.1791L21.3717 17.177L19.7833 15.2464ZM20.9275 14.6136L21.7322 16.9806L21.7391 16.9782L21.746 16.9758L20.9275 14.6136ZM24.36 14.9396L23.0649 17.0781L23.076 17.0847L24.36 14.9396ZM25.6959 20.9801L23.551 19.6958L23.5452 19.7056L25.6959 20.9801ZM23.9765 22.6037L25.1456 24.8135L25.1503 24.811L23.9765 22.6037ZM22.551 20.6989L23.8492 22.8354L22.551 20.6989ZM23.3437 19.8679L21.152 18.6652L21.152 18.6652L23.3437 19.8679ZM23.3437 17.522L21.1469 18.7153L21.1525 18.7258L21.1583 18.7361L23.3437 17.522ZM22.5638 16.6974L23.8741 14.5683L23.8741 14.5683L22.5638 16.6974ZM20.5376 16.5696L19.5355 14.2792L19.5288 14.2821L19.5222 14.2851L20.5376 16.5696ZM19.828 17.0682L18.0246 15.3369L18.0155 15.3463L18.0065 15.3559L19.828 17.0682ZM19.355 17.8097L21.6638 18.7687L21.6689 18.7562L19.355 17.8097ZM19.4701 19.8551L17.2784 21.0579L17.284 21.0681L17.2897 21.0782L19.4701 19.8551ZM20.2627 20.6925L18.9328 22.8094L18.9389 22.8132L18.945 22.817L20.2627 20.6925ZM21.4355 20.679C21.0371 20.6765 20.6639 20.6107 20.3038 20.4833L18.6364 25.1971C19.5291 25.5129 20.4556 25.6729 21.4038 25.6789L21.4355 20.679ZM20.3089 20.4851C20.0616 20.397 19.8183 20.2496 19.5707 19.9998L16.02 23.5201C16.761 24.2675 17.6343 24.8402 18.6313 25.1953L20.3089 20.4851ZM19.5707 19.9998C19.3922 19.8197 19.173 19.5034 18.9772 18.9476L14.2613 20.6092C14.645 21.6983 15.2099 22.703 16.02 23.5201L19.5707 19.9998ZM18.981 18.9585C18.8142 18.4781 18.691 17.7641 18.691 16.7486H13.691C13.691 18.1279 13.8532 19.4338 14.2575 20.5983L18.981 18.9585ZM18.6909 16.7583C18.6945 15.8391 18.7998 15.0911 18.9719 14.4886L14.1643 13.115C13.8421 14.2427 13.6959 15.4592 13.691 16.7389L18.6909 16.7583ZM18.9697 14.4964C19.1502 13.872 19.3823 13.4288 19.6251 13.1124L15.6588 10.0679C14.9727 10.9619 14.4888 11.993 14.1665 13.1073L18.9697 14.4964ZM19.6183 13.1212C19.8645 12.8035 20.1269 12.5978 20.4116 12.4601L18.2345 7.95893C17.2153 8.45191 16.357 9.16671 15.6656 10.0592L19.6183 13.1212ZM20.4235 12.4543C20.6952 12.3211 21.043 12.2301 21.5155 12.2301V7.23011C20.3688 7.23011 19.2549 7.45872 18.2227 7.96471L20.4235 12.4543ZM21.5155 12.2301C22.0591 12.2301 22.4302 12.3343 22.6944 12.469L24.9645 8.01399C23.8906 7.4668 22.7192 7.23011 21.5155 7.23011V12.2301ZM22.7057 12.4747C23.0272 12.6365 23.2374 12.8279 23.3908 13.0474L27.4897 10.1841C26.8334 9.24453 25.9698 8.51979 24.9532 8.00826L22.7057 12.4747ZM23.3978 13.0575C23.5614 13.2892 23.6616 13.5427 23.6991 13.8591L28.6644 13.2715C28.5314 12.1476 28.1373 11.1014 27.4827 10.1741L23.3978 13.0575ZM26.1817 11.0653H23.4523V16.0653H26.1817V11.0653ZM25.8868 12.9965C25.6612 12.031 25.1433 11.1487 24.297 10.5035L21.2653 14.4795C21.1999 14.4296 21.1351 14.3606 21.0846 14.2799C21.0358 14.2018 21.0204 14.1448 21.0179 14.1341L25.8868 12.9965ZM24.297 10.5035C23.4484 9.85637 22.4678 9.60156 21.5155 9.60156V14.6016C21.5515 14.6016 21.531 14.6061 21.473 14.5882C21.4109 14.5691 21.3361 14.5335 21.2653 14.4795L24.297 10.5035ZM21.5155 9.60156C19.769 9.60156 18.3134 10.4472 17.4264 11.9312L21.7183 14.4964C21.7385 14.4626 21.7441 14.4613 21.7279 14.4778C21.7104 14.4955 21.6784 14.523 21.6324 14.5493C21.5863 14.5757 21.544 14.5908 21.5145 14.598C21.4868 14.6049 21.4841 14.6016 21.5155 14.6016V9.60156ZM17.421 11.9403C16.6739 13.2024 16.4114 14.7013 16.4012 16.2205L21.4011 16.2539C21.408 15.2249 21.5929 14.7081 21.7237 14.4873L17.421 11.9403ZM18.9012 18.7372H18.9907V13.7372H18.9012V18.7372ZM21.2218 17.365C21.2627 17.2841 21.3084 17.229 21.3691 17.1791L18.1975 13.3138C17.5935 13.8094 17.1107 14.4148 16.7595 15.1094L21.2218 17.365ZM21.3717 17.177C21.468 17.0977 21.5821 17.0316 21.7322 16.9806L20.1227 12.2467C19.4206 12.4854 18.7719 12.8412 18.1949 13.3159L21.3717 17.177ZM21.746 16.9758C21.9008 16.9222 22.0769 16.8899 22.289 16.8899V11.8899C21.5465 11.8899 20.815 12.0068 20.1089 12.2515L21.746 16.9758ZM22.289 16.8899C22.6533 16.8899 22.8875 16.9706 23.0649 17.078L25.6551 12.8012C24.6223 12.1757 23.4758 11.8899 22.289 11.8899V16.8899ZM23.076 17.0847C23.2903 17.213 23.4595 17.3825 23.6016 17.6407L27.982 15.23C27.4253 14.2183 26.64 13.3907 25.644 12.7946L23.076 17.0847ZM23.6016 17.6407C23.7228 17.8609 23.816 18.1632 23.816 18.6151H28.816C28.816 17.4306 28.5597 16.2797 27.982 15.23L23.6016 17.6407ZM23.816 18.6151C23.816 19.0964 23.7088 19.4323 23.551 19.6958L27.8408 22.2644C28.5097 21.1473 28.816 19.9064 28.816 18.6151H23.816ZM23.5452 19.7056C23.3797 19.9848 23.152 20.2106 22.8027 20.3964L25.1503 24.811C26.2754 24.2127 27.194 23.3561 27.8467 22.2546L23.5452 19.7056ZM22.8073 20.3939C22.4957 20.5588 22.0617 20.6818 21.4306 20.679L21.4087 25.679C22.7208 25.6847 23.9914 25.4242 25.1456 24.8135L22.8073 20.3939ZM21.4069 23.5057C22.252 23.5057 23.0894 23.2971 23.8492 22.8354L21.2529 18.5623C21.2877 18.5412 21.3273 18.5244 21.365 18.5143C21.4015 18.5045 21.4185 18.5057 21.4069 18.5057V23.5057ZM23.8492 22.8354C24.565 22.4005 25.1354 21.7995 25.5353 21.0706L21.152 18.6652C21.1561 18.6576 21.169 18.637 21.1927 18.6122C21.2164 18.5873 21.2391 18.5707 21.2529 18.5623L23.8492 22.8354ZM25.5353 21.0706C25.9473 20.3199 26.1313 19.5079 26.1313 18.6918H21.1313C21.1313 18.7084 21.1304 18.7181 21.13 18.7217C21.1296 18.7253 21.1296 18.7237 21.131 18.7179C21.1324 18.712 21.1349 18.7037 21.1387 18.6937C21.1426 18.6836 21.1472 18.6739 21.152 18.6652L25.5353 21.0706ZM26.1313 18.6918C26.1313 17.8761 25.9474 17.061 25.5291 16.3079L21.1583 18.7361C21.1519 18.7247 21.1462 18.7126 21.1414 18.7003C21.1366 18.688 21.1335 18.6777 21.1317 18.6703C21.1278 18.6546 21.1313 18.6592 21.1313 18.6918H26.1313ZM25.5405 16.3287C25.1458 15.6021 24.5812 15.0035 23.8741 14.5683L21.2536 18.8266C21.2397 18.8181 21.2165 18.801 21.1917 18.7748C21.167 18.7487 21.1527 18.726 21.1469 18.7153L25.5405 16.3287ZM23.8741 14.5683C23.1118 14.0992 22.2708 13.8906 21.426 13.8906V18.8906C21.4378 18.8906 21.4189 18.8918 21.3792 18.8811C21.338 18.87 21.2937 18.8513 21.2536 18.8266L23.8741 14.5683ZM21.426 13.8906C20.7873 13.8906 20.147 14.0117 19.5355 14.2792L21.5396 18.86C21.5103 18.8728 21.4819 18.8813 21.4579 18.8861C21.4344 18.8909 21.4225 18.8906 21.426 18.8906V13.8906ZM19.5222 14.2851C18.956 14.5367 18.4523 14.8913 18.0246 15.3369L21.6315 18.7995C21.6246 18.8067 21.6127 18.8176 21.5962 18.8292C21.5797 18.8408 21.5643 18.8491 21.5529 18.8541L19.5222 14.2851ZM18.0065 15.3559C17.5884 15.8006 17.2675 16.3099 17.0412 16.8631L21.6689 18.7562C21.6718 18.7491 21.6718 18.7507 21.6672 18.7579C21.6626 18.7652 21.6563 18.7733 21.6496 18.7805L18.0065 15.3559ZM17.0463 16.8506C16.7985 17.4471 16.6824 18.0709 16.6824 18.6982H21.6824C21.6824 18.6933 21.6828 18.7003 21.6797 18.7162C21.6766 18.7324 21.6712 18.7508 21.6638 18.7687L17.0463 16.8506ZM16.6824 18.6982C16.6824 19.5151 16.8725 20.3182 17.2784 21.0579L21.6617 18.6524C21.665 18.6583 21.6688 18.6661 21.6723 18.6752C21.6759 18.6844 21.6786 18.6931 21.6805 18.7006C21.6845 18.7168 21.6824 18.7182 21.6824 18.6982H16.6824ZM17.2897 21.0782C17.6857 21.7841 18.2392 22.3736 18.9328 22.8094L21.5926 18.5755C21.6006 18.5806 21.6154 18.5916 21.6309 18.6079C21.6462 18.6241 21.652 18.6348 21.6504 18.632L17.2897 21.0782ZM18.945 22.817C19.7074 23.2899 20.5518 23.5057 21.4069 23.5057V18.5057C21.3996 18.5057 21.4209 18.505 21.4613 18.5161C21.5029 18.5275 21.5448 18.5459 21.5804 18.568L18.945 22.817Z" fill="white" mask="url(#path-2-inside-1_1_1857)"/>
</g>
<defs>
<clipPath id="clip0_1_1857">
<rect width="32" height="32" fill="white"/>
</clipPath>
</defs>
</svg>
