<svg width="32" height="32" viewBox="0 0 32 32" fill="none" xmlns="http://www.w3.org/2000/svg">
<g clip-path="url(#clip0_1_1858)">
<rect width="32" height="32" rx="8" fill="black"/>
<mask id="path-2-inside-1_1_1858" fill="white">
<path d="M6.73837 23V9.90909H15.406V12.1911H9.50613V15.3104H14.8307V17.5923H9.50613V23H6.73837ZM18.5077 23L23.9346 12.2614V12.1719H17.6128V9.90909H26.7982V12.2038L21.365 23H18.5077Z"/>
</mask>
<path d="M6.73837 23H4.23837V25.5H6.73837V23ZM6.73837 9.90909V7.40909H4.23837V9.90909H6.73837ZM15.406 9.90909H17.906V7.40909H15.406V9.90909ZM15.406 12.1911V14.6911H17.906V12.1911H15.406ZM9.50613 12.1911V9.69105H7.00613V12.1911H9.50613ZM9.50613 15.3104H7.00613V17.8104H9.50613V15.3104ZM14.8307 15.3104H17.3307V12.8104H14.8307V15.3104ZM14.8307 17.5923V20.0923H17.3307V17.5923H14.8307ZM9.50613 17.5923V15.0923H7.00613V17.5923H9.50613ZM9.50613 23V25.5H12.0061V23H9.50613ZM9.23837 23V9.90909H4.23837V23H9.23837ZM6.73837 12.4091H15.406V7.40909H6.73837V12.4091ZM12.906 9.90909V12.1911H17.906V9.90909H12.906ZM15.406 9.69105H9.50613V14.6911H15.406V9.69105ZM7.00613 12.1911V15.3104H12.0061V12.1911H7.00613ZM9.50613 17.8104H14.8307V12.8104H9.50613V17.8104ZM12.3307 15.3104V17.5923H17.3307V15.3104H12.3307ZM14.8307 15.0923H9.50613V20.0923H14.8307V15.0923ZM7.00613 17.5923V23H12.0061V17.5923H7.00613ZM9.50613 20.5H6.73837V25.5H9.50613V20.5ZM18.5077 23L16.2765 21.8724L14.4432 25.5H18.5077V23ZM23.9346 12.2614L26.1658 13.3889L26.4346 12.8572V12.2614H23.9346ZM23.9346 12.1719H26.4346V9.67188H23.9346V12.1719ZM17.6128 12.1719H15.1128V14.6719H17.6128V12.1719ZM17.6128 9.90909V7.40909H15.1128V9.90909H17.6128ZM26.7982 9.90909H29.2982V7.40909H26.7982V9.90909ZM26.7982 12.2038L29.0314 13.3277L29.2982 12.7974V12.2038H26.7982ZM21.365 23V25.5H22.9056L23.5981 24.1238L21.365 23ZM20.739 24.1276L26.1658 13.3889L21.7033 11.1338L16.2765 21.8724L20.739 24.1276ZM26.4346 12.2614V12.1719H21.4346V12.2614H26.4346ZM23.9346 9.67188H17.6128V14.6719H23.9346V9.67188ZM20.1128 12.1719V9.90909H15.1128V12.1719H20.1128ZM17.6128 12.4091H26.7982V7.40909H17.6128V12.4091ZM24.2982 9.90909V12.2038H29.2982V9.90909H24.2982ZM24.5651 11.08L19.1318 21.8762L23.5981 24.1238L29.0314 13.3277L24.5651 11.08ZM21.365 20.5H18.5077V25.5H21.365V20.5Z" fill="white" mask="url(#path-2-inside-1_1_1858)"/>
</g>
<defs>
<clipPath id="clip0_1_1858">
<rect width="32" height="32" fill="white"/>
</clipPath>
</defs>
</svg>
