<svg width="32" height="32" viewBox="0 0 32 32" fill="none" xmlns="http://www.w3.org/2000/svg">
<g clip-path="url(#clip0_1_1859)">
<rect width="32" height="32" rx="8" fill="black"/>
<mask id="path-2-inside-1_1_1859" fill="white">
<path d="M5.73837 23V9.90909H14.406V12.1911H8.50613V15.3104H13.8307V17.5923H8.50613V23H5.73837ZM21.2662 23.179C20.2819 23.179 19.4062 23.0192 18.6391 22.6996C17.8763 22.3757 17.2776 21.9347 16.843 21.3764C16.4083 20.8182 16.191 20.1854 16.191 19.478C16.191 18.9325 16.3145 18.4318 16.5617 17.9759C16.8131 17.5156 17.154 17.1342 17.5844 16.8317C18.0148 16.5249 18.4964 16.3288 19.029 16.2436V16.1541C18.3302 16.0135 17.7634 15.6747 17.3287 15.1378C16.8941 14.5966 16.6768 13.968 16.6768 13.2521C16.6768 12.5746 16.8749 11.9716 17.2712 11.4432C17.6675 10.9105 18.2108 10.4929 18.9012 10.1903C19.5958 9.88352 20.3841 9.73011 21.2662 9.73011C22.1483 9.73011 22.9346 9.88352 23.6249 10.1903C24.3195 10.4972 24.865 10.9169 25.2613 11.4496C25.6576 11.978 25.8579 12.5788 25.8621 13.2521C25.8579 13.9723 25.6363 14.6009 25.1974 15.1378C24.7584 15.6747 24.1959 16.0135 23.5099 16.1541V16.2436C24.034 16.3288 24.5091 16.5249 24.9353 16.8317C25.3657 17.1342 25.7066 17.5156 25.958 17.9759C26.2137 18.4318 26.3437 18.9325 26.3479 19.478C26.3437 20.1854 26.1242 20.8182 25.6895 21.3764C25.2549 21.9347 24.654 22.3757 23.887 22.6996C23.1242 23.0192 22.2506 23.179 21.2662 23.179ZM21.2662 21.1463C21.7052 21.1463 22.0887 21.0675 22.4168 20.9098C22.7449 20.7479 23.0006 20.5263 23.1839 20.245C23.3714 19.9595 23.4651 19.6314 23.4651 19.2607C23.4651 18.8814 23.3692 18.5469 23.1775 18.2571C22.9857 17.9631 22.7258 17.733 22.3976 17.5668C22.0695 17.3963 21.6924 17.3111 21.2662 17.3111C20.8444 17.3111 20.4672 17.3963 20.1349 17.5668C19.8025 17.733 19.5404 17.9631 19.3486 18.2571C19.1611 18.5469 19.0674 18.8814 19.0674 19.2607C19.0674 19.6314 19.159 19.9595 19.3422 20.245C19.5255 20.5263 19.7833 20.7479 20.1157 20.9098C20.4481 21.0675 20.8316 21.1463 21.2662 21.1463ZM21.2662 15.2976C21.6327 15.2976 21.9587 15.223 22.2442 15.0739C22.5297 14.9247 22.7535 14.718 22.9154 14.4538C23.0773 14.1896 23.1583 13.8849 23.1583 13.5398C23.1583 13.1989 23.0773 12.9006 22.9154 12.6449C22.7535 12.3849 22.5319 12.1825 22.2506 12.0376C21.9694 11.8885 21.6412 11.8139 21.2662 11.8139C20.8955 11.8139 20.5674 11.8885 20.2819 12.0376C19.9964 12.1825 19.7726 12.3849 19.6107 12.6449C19.453 12.9006 19.3742 13.1989 19.3742 13.5398C19.3742 13.8849 19.4552 14.1896 19.6171 14.4538C19.779 14.718 20.0028 14.9247 20.2883 15.0739C20.5738 15.223 20.8998 15.2976 21.2662 15.2976Z"/>
</mask>
<path d="M5.73837 23H3.23837V25.5H5.73837V23ZM5.73837 9.90909V7.40909H3.23837V9.90909H5.73837ZM14.406 9.90909H16.906V7.40909H14.406V9.90909ZM14.406 12.1911V14.6911H16.906V12.1911H14.406ZM8.50613 12.1911V9.69105H6.00613V12.1911H8.50613ZM8.50613 15.3104H6.00613V17.8104H8.50613V15.3104ZM13.8307 15.3104H16.3307V12.8104H13.8307V15.3104ZM13.8307 17.5923V20.0923H16.3307V17.5923H13.8307ZM8.50613 17.5923V15.0923H6.00613V17.5923H8.50613ZM8.50613 23V25.5H11.0061V23H8.50613ZM8.23837 23V9.90909H3.23837V23H8.23837ZM5.73837 12.4091H14.406V7.40909H5.73837V12.4091ZM11.906 9.90909V12.1911H16.906V9.90909H11.906ZM14.406 9.69105H8.50613V14.6911H14.406V9.69105ZM6.00613 12.1911V15.3104H11.0061V12.1911H6.00613ZM8.50613 17.8104H13.8307V12.8104H8.50613V17.8104ZM11.3307 15.3104V17.5923H16.3307V15.3104H11.3307ZM13.8307 15.0923H8.50613V20.0923H13.8307V15.0923ZM6.00613 17.5923V23H11.0061V17.5923H6.00613ZM8.50613 20.5H5.73837V25.5H8.50613V20.5ZM18.6391 22.6996L17.6621 25.0007L17.6698 25.004L17.6776 25.0073L18.6391 22.6996ZM16.843 21.3764L18.8155 19.8405L16.843 21.3764ZM16.5617 17.9759L14.3677 16.7773L14.3638 16.7845L16.5617 17.9759ZM17.5844 16.8317L19.0222 18.8769L19.0289 18.8722L19.0356 18.8674L17.5844 16.8317ZM19.029 16.2436L19.424 18.7122L21.529 18.3754V16.2436H19.029ZM19.029 16.1541H21.529V14.1071L19.5222 13.7032L19.029 16.1541ZM17.3287 15.1378L15.3796 16.7033L15.3856 16.7108L17.3287 15.1378ZM17.2712 11.4432L19.2712 12.9432L19.277 12.9355L17.2712 11.4432ZM18.9012 10.1903L19.9047 12.4801L19.9113 12.4772L18.9012 10.1903ZM23.6249 10.1903L22.6096 12.4749L22.6148 12.4772L23.6249 10.1903ZM25.2613 11.4496L23.2555 12.9419L23.2613 12.9496L25.2613 11.4496ZM25.8621 13.2521L28.3621 13.2669L28.3622 13.2516L28.3621 13.2363L25.8621 13.2521ZM23.5099 16.1541L23.0079 13.705L21.0099 14.1146V16.1541H23.5099ZM23.5099 16.2436H21.0099V18.3699L23.1086 18.7112L23.5099 16.2436ZM24.9353 16.8317L23.4745 18.8605L23.486 18.8688L23.4976 18.8769L24.9353 16.8317ZM25.958 17.9759L23.764 19.1744L23.7707 19.1865L23.7774 19.1986L25.958 17.9759ZM26.3479 19.478L28.8479 19.493L28.848 19.4757L28.8478 19.4585L26.3479 19.478ZM25.6895 21.3764L27.6621 22.9123L27.6621 22.9123L25.6895 21.3764ZM23.887 22.6996L24.8531 25.0054L24.8594 25.0027L23.887 22.6996ZM22.4168 20.9098L23.4996 23.1632L23.5114 23.1575L23.5232 23.1517L22.4168 20.9098ZM23.1839 20.245L21.0942 18.8727L21.0892 18.8803L23.1839 20.245ZM23.1775 18.2571L21.0834 19.6228L21.088 19.6298L21.0926 19.6368L23.1775 18.2571ZM22.3976 17.5668L21.2452 19.7853L21.2566 19.7912L21.268 19.797L22.3976 17.5668ZM20.1349 17.5668L21.2529 19.8028L21.2643 19.7971L21.2756 19.7913L20.1349 17.5668ZM19.3486 18.2571L17.2546 16.8914L17.2497 16.899L19.3486 18.2571ZM19.3422 20.245L17.2383 21.5953L17.2429 21.6025L17.2476 21.6097L19.3422 20.245ZM20.1157 20.9098L19.0208 23.1573L19.0325 23.163L19.0442 23.1686L20.1157 20.9098ZM22.2442 15.0739L21.0867 12.858L21.0867 12.858L22.2442 15.0739ZM22.9154 14.4538L25.0469 15.7602L25.0469 15.7602L22.9154 14.4538ZM22.9154 12.6449L20.7934 13.9668L20.7984 13.9747L20.8033 13.9825L22.9154 12.6449ZM22.2506 12.0376L21.0794 14.2463L21.0925 14.2533L21.1057 14.2601L22.2506 12.0376ZM20.2819 12.0376L21.4132 14.267L21.4263 14.2603L21.4394 14.2535L20.2819 12.0376ZM19.6107 12.6449L17.4887 11.323L17.4828 11.3327L19.6107 12.6449ZM19.6171 14.4538L17.4856 15.7602L17.4856 15.7602L19.6171 14.4538ZM20.2883 15.0739L21.4458 12.858L21.4458 12.858L20.2883 15.0739ZM21.2662 20.679C20.5521 20.679 20.0122 20.5634 19.6007 20.3919L17.6776 25.0073C18.8001 25.475 20.0117 25.679 21.2662 25.679V20.679ZM19.6161 20.3984C19.1775 20.2122 18.9473 20.0097 18.8155 19.8405L14.8704 22.9123C15.608 23.8596 16.5752 24.5393 17.6621 25.0007L19.6161 20.3984ZM18.8155 19.8405C18.7226 19.7212 18.691 19.6289 18.691 19.478H13.691C13.691 20.7419 14.094 21.9151 14.8704 22.9123L18.8155 19.8405ZM18.691 19.478C18.691 19.3264 18.721 19.2383 18.7596 19.1672L14.3638 16.7845C13.9081 17.6253 13.691 18.5387 13.691 19.478H18.691ZM18.7557 19.1744C18.8227 19.0518 18.9044 18.9597 19.0222 18.8769L16.1467 14.7865C15.4037 15.3088 14.8036 15.9795 14.3677 16.7773L18.7557 19.1744ZM19.0356 18.8674C19.1454 18.7891 19.264 18.7378 19.424 18.7122L18.6341 13.775C17.7288 13.9199 16.8842 14.2606 16.1332 14.796L19.0356 18.8674ZM21.529 16.2436V16.1541H16.529V16.2436H21.529ZM19.5222 13.7032C19.3743 13.6735 19.3277 13.6337 19.2719 13.5648L15.3856 16.7108C16.1992 17.7157 17.286 18.3535 18.5359 18.605L19.5222 13.7032ZM19.2779 13.5723C19.2117 13.4899 19.1768 13.4181 19.1768 13.2521H14.1768C14.1768 14.518 14.5765 15.7033 15.3796 16.7033L19.2779 13.5723ZM19.1768 13.2521C19.1768 13.1005 19.2084 13.027 19.2712 12.9432L15.2712 9.94318C14.5415 10.9162 14.1768 12.0487 14.1768 13.2521H19.1768ZM19.277 12.9355C19.3807 12.7961 19.5573 12.6323 19.9047 12.4801L17.8977 7.9006C16.8644 8.35346 15.9544 9.02492 15.2655 9.95089L19.277 12.9355ZM19.9113 12.4772C20.2404 12.3318 20.6763 12.2301 21.2662 12.2301V7.23011C20.092 7.23011 18.9512 7.43522 17.8911 7.9035L19.9113 12.4772ZM21.2662 12.2301C21.8566 12.2301 22.288 12.3319 22.6096 12.4749L24.6403 7.90581C23.5811 7.43509 22.4401 7.23011 21.2662 7.23011V12.2301ZM22.6148 12.4772C22.972 12.635 23.152 12.8028 23.2555 12.9419L27.267 9.95729C26.5779 9.03104 25.667 8.35934 24.635 7.9035L22.6148 12.4772ZM23.2613 12.9496C23.3296 13.0407 23.3612 13.119 23.3622 13.268L28.3621 13.2363C28.3545 12.0387 27.9855 10.9152 27.2613 9.94957L23.2613 12.9496ZM23.3622 13.2373C23.3612 13.4097 23.3241 13.4793 23.2618 13.5555L27.1329 16.72C27.9484 15.7224 28.3546 14.5349 28.3621 13.2669L23.3622 13.2373ZM23.2618 13.5555C23.1907 13.6425 23.1367 13.6786 23.0079 13.705L24.0118 18.6032C25.2552 18.3484 26.3262 17.707 27.1329 16.72L23.2618 13.5555ZM21.0099 16.1541V16.2436H26.0099V16.1541H21.0099ZM23.1086 18.7112C23.2549 18.735 23.3665 18.7827 23.4745 18.8605L26.396 14.8028C25.6518 14.267 24.8132 13.9227 23.9111 13.776L23.1086 18.7112ZM23.4976 18.8769C23.6153 18.9597 23.6971 19.0518 23.764 19.1744L28.152 16.7773C27.7161 15.9795 27.116 15.3088 26.373 14.7865L23.4976 18.8769ZM23.7774 19.1986C23.8178 19.2706 23.8469 19.3546 23.848 19.4975L28.8478 19.4585C28.8404 18.5104 28.6096 17.593 28.1386 16.7531L23.7774 19.1986ZM23.848 19.4629C23.847 19.619 23.813 19.7172 23.717 19.8405L27.6621 22.9123C28.4354 21.9192 28.8403 20.7517 28.8479 19.493L23.848 19.4629ZM23.717 19.8405C23.5876 20.0066 23.358 20.2092 22.9146 20.3965L24.8594 25.0027C25.95 24.5422 26.9221 23.8627 27.6621 22.9123L23.717 19.8405ZM22.9209 20.3938C22.5164 20.5633 21.9808 20.679 21.2662 20.679V25.679C22.5204 25.679 23.732 25.4751 24.8531 25.0054L22.9209 20.3938ZM21.2662 23.6463C22.004 23.6463 22.7712 23.5132 23.4996 23.1632L21.334 18.6565C21.3677 18.6403 21.3861 18.6371 21.3797 18.6384C21.3721 18.6399 21.3366 18.6463 21.2662 18.6463V23.6463ZM23.5232 23.1517C24.2161 22.8097 24.8287 22.3002 25.2785 21.6097L21.0892 18.8803C21.1258 18.8241 21.1705 18.7736 21.2173 18.7329C21.2632 18.6932 21.2987 18.6738 21.3104 18.6679L23.5232 23.1517ZM25.2735 21.6174C25.7516 20.8893 25.9651 20.0756 25.9651 19.2607H20.9651C20.9651 19.2337 20.9688 19.1757 20.991 19.098C21.0136 19.0188 21.0493 18.9411 21.0942 18.8727L25.2735 21.6174ZM25.9651 19.2607C25.9651 18.4375 25.7496 17.6138 25.2623 16.8774L21.0926 19.6368C21.0476 19.5686 21.0122 19.4917 20.99 19.4141C20.9682 19.3383 20.9651 19.2832 20.9651 19.2607H25.9651ZM25.2715 16.8914C24.8281 16.2116 24.2277 15.6913 23.5272 15.3365L21.268 19.797C21.253 19.7894 21.2206 19.7705 21.1816 19.7359C21.142 19.7009 21.1085 19.6612 21.0834 19.6228L25.2715 16.8914ZM23.5501 15.3482C22.8152 14.9665 22.0321 14.8111 21.2662 14.8111V19.8111C21.3125 19.8111 21.3272 19.8157 21.3176 19.8135C21.313 19.8125 21.3035 19.81 21.2903 19.8052C21.277 19.8004 21.2617 19.7938 21.2452 19.7853L23.5501 15.3482ZM21.2662 14.8111C20.4995 14.8111 19.7229 14.9685 18.9941 15.3422L21.2756 19.7913C21.2629 19.7978 21.2508 19.803 21.2401 19.8068C21.2294 19.8107 21.2218 19.8127 21.2181 19.8135C21.2102 19.8153 21.224 19.8111 21.2662 19.8111V14.8111ZM19.0168 15.3307C18.3118 15.6832 17.7031 16.2038 17.2546 16.8914L21.4427 19.6228C21.4152 19.6649 21.3794 19.7067 21.3385 19.7426C21.2983 19.7779 21.2659 19.7963 21.2529 19.8028L19.0168 15.3307ZM17.2497 16.899C16.7748 17.633 16.5674 18.449 16.5674 19.2607H21.5674C21.5674 19.2784 21.565 19.3285 21.5449 19.4C21.5244 19.4731 21.4913 19.5477 21.4476 19.6152L17.2497 16.899ZM16.5674 19.2607C16.5674 20.064 16.7726 20.8697 17.2383 21.5953L21.4462 18.8947C21.4897 18.9624 21.5231 19.0377 21.544 19.1125C21.5644 19.1856 21.5674 19.2387 21.5674 19.2607H16.5674ZM17.2476 21.6097C17.7026 22.3081 18.3239 22.8178 19.0208 23.1573L21.2106 18.6623C21.2202 18.667 21.2556 18.6858 21.3026 18.7262C21.3507 18.7676 21.3977 18.8202 21.4369 18.8803L17.2476 21.6097ZM19.0442 23.1686C19.7669 23.5114 20.5276 23.6463 21.2662 23.6463V18.6463C21.1998 18.6463 21.1651 18.6403 21.156 18.6384C21.148 18.6367 21.161 18.6387 21.1871 18.651L19.0442 23.1686ZM21.2662 17.7976C21.9798 17.7976 22.7124 17.6498 23.4018 17.2897L21.0867 12.858C21.1408 12.8297 21.1904 12.8132 21.2281 12.8046C21.2645 12.7963 21.2796 12.7976 21.2662 12.7976V17.7976ZM23.4018 17.2897C24.0717 16.9398 24.639 16.4258 25.0469 15.7602L20.7839 13.1474C20.8208 13.0872 20.87 13.0259 20.9297 12.9707C20.989 12.9159 21.0451 12.8797 21.0867 12.858L23.4018 17.2897ZM25.0469 15.7602C25.4766 15.0592 25.6583 14.292 25.6583 13.5398H20.6583C20.6583 13.5159 20.6612 13.461 20.6814 13.3851C20.702 13.3075 20.7361 13.2254 20.7839 13.1474L25.0469 15.7602ZM25.6583 13.5398C25.6583 12.7869 25.4739 12.0121 25.0274 11.3073L20.8033 13.9825C20.7477 13.8946 20.7085 13.8022 20.6849 13.7152C20.6618 13.6303 20.6583 13.568 20.6583 13.5398H25.6583ZM25.0373 11.323C24.6288 10.6672 24.0638 10.1595 23.3955 9.8152L21.1057 14.2601C21.0607 14.2369 21.0024 14.1995 20.9417 14.1439C20.8805 14.0881 20.8307 14.0265 20.7934 13.9668L25.0373 11.323ZM23.4219 9.82899C22.7207 9.45716 21.977 9.31392 21.2662 9.31392V14.3139C21.2882 14.3139 21.2766 14.3161 21.2395 14.3077C21.2009 14.2989 21.1443 14.2807 21.0794 14.2463L23.4219 9.82899ZM21.2662 9.31392C20.5536 9.31392 19.8177 9.45957 19.1243 9.82177L21.4394 14.2535C21.3831 14.283 21.3326 14.2994 21.2962 14.3077C21.2611 14.3157 21.2486 14.3139 21.2662 14.3139V9.31392ZM19.1506 9.80827C18.4775 10.1498 17.9031 10.6579 17.4888 11.323L21.7327 13.9668C21.6927 14.0309 21.6402 14.095 21.5772 14.152C21.5148 14.2084 21.4562 14.2452 21.4132 14.267L19.1506 9.80827ZM17.4828 11.3327C17.0503 12.034 16.8742 12.7994 16.8742 13.5398H21.8742C21.8742 13.5626 21.8714 13.6193 21.8503 13.6992C21.8287 13.781 21.7922 13.8702 21.7386 13.9571L17.4828 11.3327ZM16.8742 13.5398C16.8742 14.292 17.0559 15.0592 17.4856 15.7602L21.7486 13.1474C21.7964 13.2254 21.8304 13.3075 21.8511 13.3851C21.8712 13.461 21.8742 13.5159 21.8742 13.5398H16.8742ZM17.4856 15.7602C17.8935 16.4258 18.4608 16.9398 19.1307 17.2897L21.4458 12.858C21.4874 12.8797 21.5435 12.9159 21.6028 12.9707C21.6625 13.0259 21.7117 13.0872 21.7486 13.1474L17.4856 15.7602ZM19.1307 17.2897C19.8201 17.6498 20.5527 17.7976 21.2662 17.7976V12.7976C21.2529 12.7976 21.268 12.7963 21.3044 12.8046C21.3421 12.8132 21.3917 12.8297 21.4458 12.858L19.1307 17.2897Z" fill="white" mask="url(#path-2-inside-1_1_1859)"/>
</g>
<defs>
<clipPath id="clip0_1_1859">
<rect width="32" height="32" fill="white"/>
</clipPath>
</defs>
</svg>
