<svg width="32" height="32" viewBox="0 0 32 32" fill="none" xmlns="http://www.w3.org/2000/svg">
<g clip-path="url(#clip0_1_1860)">
<rect width="32" height="32" rx="8" fill="black"/>
<mask id="path-2-inside-1_1_1860" fill="white">
<path d="M5.73837 23V9.90909H14.406V12.1911H8.50613V15.3104H13.8307V17.5923H8.50613V23H5.73837ZM21.1001 9.73011C21.7733 9.73011 22.4211 9.84304 23.0432 10.0689C23.6697 10.2947 24.2279 10.6548 24.718 11.1491C25.2123 11.6435 25.6022 12.2997 25.8877 13.1179C26.1775 13.9318 26.3245 14.9311 26.3287 16.1158C26.3287 17.228 26.203 18.2209 25.9516 19.0945C25.7045 19.9638 25.3486 20.7031 24.8841 21.3125C24.4197 21.9219 23.8593 22.3864 23.203 22.706C22.5468 23.0213 21.8138 23.179 21.0042 23.179C20.1306 23.179 19.3593 23.0107 18.6903 22.674C18.0212 22.3331 17.4822 21.8707 17.0731 21.2869C16.6682 20.6989 16.4232 20.0384 16.338 19.3054H19.0674C19.1739 19.7827 19.3976 20.1534 19.7385 20.4176C20.0795 20.6776 20.5013 20.8075 21.0042 20.8075C21.8564 20.8075 22.5042 20.4368 22.9474 19.6953C23.3905 18.9496 23.6143 17.929 23.6185 16.6335H23.529C23.333 17.017 23.0688 17.3473 22.7364 17.6243C22.404 17.897 22.0226 18.108 21.5922 18.2571C21.1661 18.4062 20.7123 18.4808 20.2307 18.4808C19.4594 18.4808 18.7712 18.2997 18.1661 17.9375C17.561 17.5753 17.0837 17.0767 16.7343 16.4418C16.3849 15.8068 16.2101 15.0824 16.2101 14.2685C16.2059 13.3906 16.4083 12.6087 16.8174 11.9226C17.2265 11.2365 17.7975 10.6996 18.5305 10.3118C19.2677 9.91974 20.1242 9.72585 21.1001 9.73011ZM21.1192 11.9034C20.6888 11.9034 20.3053 12.0057 19.9687 12.2102C19.6363 12.4148 19.3721 12.6896 19.176 13.0348C18.9843 13.38 18.8905 13.7656 18.8948 14.1918C18.8948 14.6222 18.9885 15.0099 19.176 15.3551C19.3678 15.696 19.6278 15.9687 19.9559 16.1733C20.2883 16.3736 20.6675 16.4737 21.0937 16.4737C21.4133 16.4737 21.7094 16.4141 21.9822 16.2947C22.2549 16.1754 22.4914 16.0114 22.6917 15.8026C22.8962 15.5895 23.056 15.3445 23.1711 15.0675C23.2861 14.7905 23.3437 14.4964 23.3437 14.1854C23.3394 13.772 23.2414 13.3928 23.0496 13.0476C22.8579 12.7024 22.5937 12.4254 22.257 12.2166C21.9204 12.0078 21.5411 11.9034 21.1192 11.9034Z"/>
</mask>
<path d="M5.73837 23H3.23837V25.5H5.73837V23ZM5.73837 9.90909V7.40909H3.23837V9.90909H5.73837ZM14.406 9.90909H16.906V7.40909H14.406V9.90909ZM14.406 12.1911V14.6911H16.906V12.1911H14.406ZM8.50613 12.1911V9.69105H6.00613V12.1911H8.50613ZM8.50613 15.3104H6.00613V17.8104H8.50613V15.3104ZM13.8307 15.3104H16.3307V12.8104H13.8307V15.3104ZM13.8307 17.5923V20.0923H16.3307V17.5923H13.8307ZM8.50613 17.5923V15.0923H6.00613V17.5923H8.50613ZM8.50613 23V25.5H11.0061V23H8.50613ZM8.23837 23V9.90909H3.23837V23H8.23837ZM5.73837 12.4091H14.406V7.40909H5.73837V12.4091ZM11.906 9.90909V12.1911H16.906V9.90909H11.906ZM14.406 9.69105H8.50613V14.6911H14.406V9.69105ZM6.00613 12.1911V15.3104H11.0061V12.1911H6.00613ZM8.50613 17.8104H13.8307V12.8104H8.50613V17.8104ZM11.3307 15.3104V17.5923H16.3307V15.3104H11.3307ZM13.8307 15.0923H8.50613V20.0923H13.8307V15.0923ZM6.00613 17.5923V23H11.0061V17.5923H6.00613ZM8.50613 20.5H5.73837V25.5H8.50613V20.5ZM21.1001 9.73011L21.0891 12.2301H21.1001V9.73011ZM23.0432 10.0689L22.1902 12.4189L22.1953 12.4207L23.0432 10.0689ZM24.718 11.1491L22.9425 12.9093L22.9502 12.9169L24.718 11.1491ZM25.8877 13.1179L23.5273 13.9416L23.5299 13.949L23.5325 13.9564L25.8877 13.1179ZM26.3287 16.1158H28.8288L28.8287 16.1068L26.3287 16.1158ZM25.9516 19.0945L23.5491 18.403L23.5469 18.4108L25.9516 19.0945ZM23.203 22.706L24.2858 24.9593L24.2977 24.9536L23.203 22.706ZM18.6903 22.674L17.5552 24.9015L17.5665 24.9072L18.6903 22.674ZM17.0731 21.2869L15.0138 22.7045L15.0197 22.7131L15.0257 22.7216L17.0731 21.2869ZM16.338 19.3054V16.8054H13.5304L13.8547 19.5941L16.338 19.3054ZM19.0674 19.3054L21.5073 18.7608L21.0709 16.8054H19.0674V19.3054ZM19.7385 20.4176L18.2071 22.3937L18.2149 22.3997L18.2227 22.4056L19.7385 20.4176ZM22.9474 19.6953L25.0933 20.9779L25.0965 20.9725L22.9474 19.6953ZM23.6185 16.6335L26.1185 16.6417L26.1268 14.1335H23.6185V16.6335ZM23.529 16.6335V14.1335H21.9992L21.3029 15.4957L23.529 16.6335ZM22.7364 17.6243L24.3222 19.557L24.3296 19.5509L24.3369 19.5448L22.7364 17.6243ZM21.5922 18.2571L20.7737 15.8949L20.7664 15.8975L21.5922 18.2571ZM16.7343 16.4418L14.5441 17.6471L16.7343 16.4418ZM16.2101 14.2685L18.7102 14.2685L18.7101 14.2563L16.2101 14.2685ZM18.5305 10.3118L19.6996 12.5216L19.7043 12.5191L18.5305 10.3118ZM19.9687 12.2102L18.6705 10.0737L18.6645 10.0774L18.6584 10.0811L19.9687 12.2102ZM19.176 13.0348L17.0021 11.8002L16.9964 11.8104L16.9907 11.8207L19.176 13.0348ZM18.8948 14.1918H21.3948V14.1793L21.3947 14.1668L18.8948 14.1918ZM19.176 15.3551L16.9792 16.5484L16.9881 16.5647L16.9971 16.5808L19.176 15.3551ZM19.9559 16.1733L18.6334 18.2948L18.6494 18.3048L18.6656 18.3146L19.9559 16.1733ZM21.9822 16.2947L22.9842 18.5851L22.9842 18.5851L21.9822 16.2947ZM22.6917 15.8026L20.8882 14.0712L20.8875 14.072L22.6917 15.8026ZM23.1711 15.0675L25.4798 16.0265V16.0265L23.1711 15.0675ZM23.3437 14.1854H25.8437V14.1725L25.8435 14.1596L23.3437 14.1854ZM22.257 12.2166L23.5748 10.0921L23.5748 10.0921L22.257 12.2166ZM21.1001 12.2301C21.4875 12.2301 21.8462 12.294 22.1902 12.4188L23.8963 7.71894C22.9959 7.39209 22.0592 7.23011 21.1001 7.23011V12.2301ZM22.1953 12.4207C22.4566 12.5149 22.7017 12.6663 22.9425 12.9092L26.4934 9.38905C25.7541 8.64333 24.8827 8.07458 23.8912 7.71708L22.1953 12.4207ZM22.9502 12.9169C23.1224 13.0892 23.3367 13.3955 23.5273 13.9416L28.2481 12.2942C27.8676 11.2039 27.3021 10.1978 26.4857 9.38138L22.9502 12.9169ZM23.5325 13.9564C23.6995 14.4255 23.8252 15.1253 23.8288 16.1248L28.8287 16.1068C28.8238 14.7369 28.6554 13.4382 28.2429 12.2794L23.5325 13.9564ZM23.8287 16.1158C23.8287 17.0442 23.7233 17.7978 23.5491 18.403L28.3541 19.7859C28.6827 18.644 28.8287 17.4118 28.8287 16.1158H23.8287ZM23.5469 18.4108C23.3702 19.0322 23.14 19.4767 22.8959 19.797L26.8724 22.828C27.5573 21.9295 28.0387 20.8954 28.3563 19.7781L23.5469 18.4108ZM22.8959 19.797C22.6559 20.1118 22.3962 20.3182 22.1084 20.4583L24.2977 24.9536C25.3224 24.4545 26.1834 23.732 26.8724 22.828L22.8959 19.797ZM22.1203 20.4526C21.8381 20.5882 21.4814 20.679 21.0042 20.679V25.679C22.1463 25.679 23.2554 25.4544 24.2858 24.9593L22.1203 20.4526ZM21.0042 20.679C20.456 20.679 20.0807 20.575 19.814 20.4408L17.5665 24.9072C18.6378 25.4463 19.8052 25.679 21.0042 25.679V20.679ZM19.8253 20.4465C19.5006 20.2811 19.2823 20.0832 19.1204 19.8523L15.0257 22.7216C15.6821 23.6583 16.5419 24.3851 17.5552 24.9015L19.8253 20.4465ZM19.1323 19.8693C18.9667 19.6288 18.861 19.3585 18.8212 19.0166L13.8547 19.5941C13.9854 20.7182 14.3697 21.7689 15.0138 22.7045L19.1323 19.8693ZM16.338 21.8054H19.0674V16.8054H16.338V21.8054ZM16.6274 19.85C16.8428 20.8151 17.3446 21.7252 18.2071 22.3937L21.27 18.4416C21.3439 18.4989 21.4089 18.5725 21.4555 18.6497C21.5 18.7234 21.5093 18.7695 21.5073 18.7608L16.6274 19.85ZM18.2227 22.4056C19.0713 23.0527 20.0519 23.3075 21.0042 23.3075V18.3075C20.9682 18.3075 20.9887 18.303 21.0467 18.3209C21.1088 18.34 21.1836 18.3756 21.2544 18.4296L18.2227 22.4056ZM21.0042 23.3075C22.7507 23.3075 24.2063 22.4619 25.0933 20.9779L20.8014 18.4127C20.7812 18.4465 20.7757 18.4478 20.7918 18.4313C20.8093 18.4135 20.8413 18.3861 20.8873 18.3597C20.9334 18.3333 20.9757 18.3183 21.0052 18.311C21.0329 18.3042 21.0356 18.3075 21.0042 18.3075V23.3075ZM25.0965 20.9725C25.8537 19.6984 26.1134 18.1792 26.1185 16.6417L21.1185 16.6253C21.1151 17.6788 20.9274 18.2008 20.7982 18.4181L25.0965 20.9725ZM23.6185 14.1335H23.529V19.1335H23.6185V14.1335ZM21.3029 15.4957C21.2612 15.5774 21.2103 15.6418 21.136 15.7037L24.3369 19.5448C24.9273 19.0528 25.4048 18.4567 25.7551 17.7713L21.3029 15.4957ZM21.1506 15.6916C21.0599 15.7661 20.9417 15.8367 20.7737 15.8949L22.4108 20.6193C23.1036 20.3792 23.7482 20.028 24.3222 19.557L21.1506 15.6916ZM20.7664 15.8975C20.6229 15.9477 20.4498 15.9808 20.2307 15.9808V20.9808C20.9747 20.9808 21.7094 20.8648 22.4181 20.6167L20.7664 15.8975ZM20.2307 15.9808C19.8679 15.9808 19.6313 15.9009 19.4501 15.7924L16.8821 20.0826C17.9111 20.6985 19.0509 20.9808 20.2307 20.9808V15.9808ZM19.4501 15.7924C19.2358 15.6642 19.0666 15.4946 18.9245 15.2364L14.5441 17.6471C15.1008 18.6588 15.8862 19.4864 16.8821 20.0826L19.4501 15.7924ZM18.9245 15.2364C18.8023 15.0143 18.7101 14.7137 18.7101 14.2685H13.7101C13.7101 15.4511 13.9674 16.5993 14.5441 17.6471L18.9245 15.2364ZM18.7101 14.2563C18.7078 13.7869 18.8112 13.4602 18.9646 13.2029L14.6701 10.6422C14.0054 11.7571 13.7039 12.9943 13.7102 14.2806L18.7101 14.2563ZM18.9646 13.2029C19.1298 12.9259 19.3555 12.7036 19.6996 12.5216L17.3613 8.10201C16.2395 8.69554 15.3231 9.54712 14.6701 10.6422L18.9646 13.2029ZM19.7043 12.5191C20.0197 12.3513 20.4564 12.2273 21.0891 12.2301L21.111 7.23014C19.792 7.22438 18.5156 7.48815 17.3566 8.1045L19.7043 12.5191ZM21.1192 9.40341C20.2748 9.40341 19.4343 9.60963 18.6705 10.0737L21.2668 14.3468C21.23 14.3691 21.1896 14.3859 21.1529 14.3957C21.1177 14.4051 21.1033 14.4034 21.1192 14.4034V9.40341ZM18.6584 10.0811C17.9611 10.5102 17.4024 11.0954 17.0021 11.8002L21.35 14.2694C21.3501 14.2691 21.3481 14.2727 21.3433 14.2792C21.3385 14.2857 21.3319 14.2936 21.3236 14.3023C21.3056 14.3209 21.2886 14.3334 21.2789 14.3394L18.6584 10.0811ZM16.9907 11.8207C16.5719 12.5745 16.3867 13.3927 16.3949 14.2168L21.3947 14.1668C21.3945 14.1458 21.3967 14.1506 21.3912 14.1735C21.3854 14.1973 21.375 14.2245 21.3614 14.2489L16.9907 11.8207ZM16.3948 14.1918C16.3948 14.9982 16.5742 15.8027 16.9792 16.5484L21.3729 14.1618C21.3782 14.1715 21.383 14.182 21.3871 14.1926C21.3911 14.2032 21.3937 14.2119 21.3951 14.2179C21.3982 14.2309 21.3948 14.2245 21.3948 14.1918H16.3948ZM16.9971 16.5808C17.3921 17.283 17.9448 17.8656 18.6334 18.2948L21.2784 14.0518C21.288 14.0578 21.3056 14.0707 21.3245 14.0905C21.3433 14.1102 21.3529 14.1257 21.355 14.1295L16.9971 16.5808ZM18.6656 18.3146C19.4251 18.7722 20.2588 18.9737 21.0937 18.9737V13.9737C21.0776 13.9737 21.0921 13.972 21.1279 13.9815C21.165 13.9913 21.207 14.0084 21.2462 14.032L18.6656 18.3146ZM21.0937 18.9737C21.7324 18.9737 22.3727 18.8527 22.9842 18.5851L20.9801 14.0044C21.0094 13.9915 21.0378 13.983 21.0618 13.9782C21.0853 13.9735 21.0972 13.9737 21.0937 13.9737V18.9737ZM22.9842 18.5851C23.5497 18.3377 24.061 17.9865 24.4959 17.5331L20.8875 14.072C20.902 14.0568 20.9198 14.0415 20.9391 14.0281C20.9583 14.0147 20.9733 14.0073 20.9801 14.0044L22.9842 18.5851ZM24.4951 17.5339C24.918 17.0935 25.2476 16.5855 25.4798 16.0265L20.8623 14.1085C20.8622 14.1087 20.8648 14.1027 20.8709 14.0933C20.8771 14.0839 20.8835 14.0762 20.8882 14.0712L24.4951 17.5339ZM25.4798 16.0265C25.7258 15.4342 25.8437 14.8131 25.8437 14.1854H20.8437C20.8437 14.1859 20.8437 14.1762 20.847 14.1592C20.8504 14.1419 20.8558 14.1242 20.8623 14.1085L25.4798 16.0265ZM25.8435 14.1596C25.8352 13.3503 25.6385 12.5597 25.235 11.8335L20.8642 14.2617C20.8615 14.2569 20.8581 14.2499 20.8547 14.2413C20.8512 14.2327 20.8485 14.2242 20.8465 14.2164C20.8421 14.1996 20.8436 14.1957 20.8438 14.2111L25.8435 14.1596ZM25.235 11.8335C24.8356 11.1146 24.2722 10.5247 23.5748 10.0921L20.9393 14.3411C20.9339 14.3378 20.9178 14.3265 20.8986 14.3065C20.8795 14.2864 20.8683 14.269 20.8642 14.2617L25.235 11.8335ZM23.5748 10.0921C22.8164 9.62174 21.9752 9.40341 21.1192 9.40341V14.4034C21.1221 14.4034 21.0981 14.4035 21.0566 14.3921C21.0139 14.3803 20.9728 14.3619 20.9393 14.3411L23.5748 10.0921Z" fill="white" mask="url(#path-2-inside-1_1_1860)"/>
</g>
<defs>
<clipPath id="clip0_1_1860">
<rect width="32" height="32" fill="white"/>
</clipPath>
</defs>
</svg>
