<svg width="32" height="32" viewBox="0 0 32 32" fill="none" xmlns="http://www.w3.org/2000/svg">
<g clip-path="url(#clip0_1_1801)">
<rect width="32" height="32" rx="8" fill="black"/>
<mask id="path-2-inside-1_1_1801" fill="white">
<path d="M19.3017 13.1562C19.2022 12.8106 19.0626 12.5052 18.8826 12.2401C18.7027 11.9702 18.4825 11.7429 18.2221 11.5582C17.9664 11.3688 17.6729 11.2244 17.3414 11.125C17.0147 11.0256 16.6525 10.9759 16.2548 10.9759C15.5114 10.9759 14.858 11.1605 14.2946 11.5298C13.7359 11.8991 13.3002 12.4366 12.9877 13.142C12.6752 13.8428 12.519 14.6998 12.519 15.7131C12.519 16.7263 12.6729 17.5881 12.9806 18.2983C13.2884 19.0085 13.724 19.5507 14.2875 19.9247C14.8509 20.294 15.5162 20.4787 16.2832 20.4787C16.9792 20.4787 17.5734 20.3556 18.0659 20.1094C18.563 19.8584 18.9418 19.5057 19.2022 19.0511C19.4674 18.5966 19.6 18.0592 19.6 17.4389L20.225 17.5312H16.475V15.2159H22.5616V17.0483C22.5616 18.3267 22.2917 19.4252 21.752 20.3438C21.2122 21.2576 20.4688 21.9631 19.5218 22.4602C18.5749 22.9527 17.4906 23.1989 16.269 23.1989C14.9054 23.1989 13.7074 22.8982 12.6752 22.2969C11.6431 21.6908 10.8381 20.8314 10.2605 19.7188C9.68756 18.6013 9.4011 17.2756 9.4011 15.7415C9.4011 14.5625 9.57156 13.5114 9.91246 12.5881C10.2581 11.66 10.7411 10.8741 11.3613 10.2301C11.9816 9.58617 12.7037 9.09612 13.5275 8.75994C14.3514 8.42377 15.2439 8.25568 16.2051 8.25568C17.0289 8.25568 17.796 8.37642 18.5062 8.6179C19.2164 8.85464 19.8462 9.19081 20.3954 9.62642C20.9494 10.062 21.4016 10.5805 21.752 11.1818C22.1023 11.7784 22.3272 12.4366 22.4267 13.1562H19.3017Z"/>
</mask>
<path d="M19.3017 13.1562L16.8991 13.8474L17.4195 15.6562H19.3017V13.1562ZM18.8826 12.2401L16.8025 13.6268L16.8082 13.6353L16.8139 13.6438L18.8826 12.2401ZM18.2221 11.5582L16.7341 13.5671L16.7549 13.5826L16.7761 13.5976L18.2221 11.5582ZM17.3414 11.125L16.6135 13.5167L16.6231 13.5196L17.3414 11.125ZM14.2946 11.5298L12.9241 9.43894L12.916 9.44428L14.2946 11.5298ZM12.9877 13.142L15.271 14.1603L15.2735 14.1545L12.9877 13.142ZM14.2875 19.9247L12.9048 22.0075L12.9109 22.0116L12.917 22.0156L14.2875 19.9247ZM18.0659 20.1094L19.1839 22.3455L19.1924 22.3412L18.0659 20.1094ZM19.2022 19.0511L17.0428 17.7915L17.0379 17.7999L17.033 17.8084L19.2022 19.0511ZM19.6 17.4389L19.9653 14.9658L17.1 14.5425V17.4389H19.6ZM20.225 17.5312V20.0312L20.5903 15.0581L20.225 17.5312ZM16.475 17.5312H13.975V20.0312H16.475V17.5312ZM16.475 15.2159V12.7159H13.975V15.2159H16.475ZM22.5616 15.2159H25.0616V12.7159H22.5616V15.2159ZM21.752 20.3438L23.9045 21.6152L23.9074 21.6103L21.752 20.3438ZM19.5218 22.4602L20.6752 24.6783L20.6839 24.6737L19.5218 22.4602ZM12.6752 22.2969L11.4094 24.4527L11.4168 24.457L12.6752 22.2969ZM10.2605 19.7188L8.03581 20.8594L8.04166 20.8706L10.2605 19.7188ZM9.91246 12.5881L7.56967 11.7155L7.56722 11.7221L9.91246 12.5881ZM11.3613 10.2301L13.1619 11.9645L13.1619 11.9645L11.3613 10.2301ZM13.5275 8.75994L12.583 6.44523L13.5275 8.75994ZM18.5062 8.6179L17.7015 10.9848L17.7085 10.9872L17.7156 10.9896L18.5062 8.6179ZM20.3954 9.62642L18.8419 11.5852L18.8501 11.5916L20.3954 9.62642ZM21.752 11.1818L19.5919 12.4404L19.5962 12.4479L21.752 11.1818ZM22.4267 13.1562V15.6562H25.2958L24.9031 12.8141L22.4267 13.1562ZM21.7042 12.4651C21.5407 11.8965 21.2964 11.3448 20.9513 10.8363L16.8139 13.6438C16.8287 13.6656 16.8638 13.7247 16.8991 13.8474L21.7042 12.4651ZM20.9628 10.8533C20.616 10.3331 20.1822 9.88335 19.6682 9.51891L16.7761 13.5976C16.7829 13.6024 16.7895 13.6072 16.8025 13.6268L20.9628 10.8533ZM19.7102 9.54935C19.2027 9.1734 18.6439 8.90567 18.0598 8.73043L16.6231 13.5196C16.7018 13.5432 16.7302 13.5643 16.7341 13.5671L19.7102 9.54935ZM18.0693 8.73331C17.4716 8.55139 16.8596 8.47585 16.2548 8.47585V13.4759C16.4455 13.4759 16.5579 13.4998 16.6135 13.5167L18.0693 8.73331ZM16.2548 8.47585C15.0768 8.47585 13.9364 8.77541 12.9241 9.43895L15.6651 13.6207C15.7796 13.5456 15.946 13.4759 16.2548 13.4759V8.47585ZM12.916 9.44428C11.9007 10.1154 11.1779 11.055 10.702 12.1295L15.2735 14.1545C15.4226 13.8181 15.571 13.6829 15.6732 13.6154L12.916 9.44428ZM10.7045 12.1238C10.2111 13.2302 10.019 14.4561 10.019 15.7131H15.019C15.019 14.9436 15.1394 14.4554 15.271 14.1603L10.7045 12.1238ZM10.019 15.7131C10.019 16.9675 10.208 18.1875 10.6868 19.2923L15.2745 17.3043C15.1378 16.9887 15.019 16.4851 15.019 15.7131H10.019ZM10.6868 19.2923C11.1581 20.3801 11.8829 21.3292 12.9048 22.0075L15.6702 17.8419C15.5651 17.7722 15.4187 17.6369 15.2745 17.3043L10.6868 19.2923ZM12.917 22.0156C13.9421 22.6875 15.0987 22.9787 16.2832 22.9787V17.9787C15.9336 17.9787 15.7597 17.9005 15.658 17.8338L12.917 22.0156ZM16.2832 22.9787C17.2675 22.9787 18.2649 22.8049 19.1839 22.3454L16.9478 17.8733C16.882 17.9062 16.6909 17.9787 16.2832 17.9787V22.9787ZM19.1924 22.3412C20.0975 21.8843 20.8521 21.2004 21.3715 20.2939L17.033 17.8084C17.0261 17.8205 17.0225 17.8239 17.0191 17.8271C17.0147 17.8311 16.9934 17.8503 16.9393 17.8776L19.1924 22.3412ZM21.3617 20.3108C21.8869 19.4105 22.1 18.4221 22.1 17.4389H17.1C17.1 17.6962 17.0479 17.7827 17.0428 17.7915L21.3617 20.3108ZM19.2346 19.9121L19.8596 20.0044L20.5903 15.0581L19.9653 14.9658L19.2346 19.9121ZM20.225 15.0312H16.475V20.0312H20.225V15.0312ZM18.975 17.5312V15.2159H13.975V17.5312H18.975ZM16.475 17.7159H22.5616V12.7159H16.475V17.7159ZM20.0616 15.2159V17.0483H25.0616V15.2159H20.0616ZM20.0616 17.0483C20.0616 17.9706 19.8694 18.6128 19.5965 19.0772L23.9074 21.6103C24.7141 20.2375 25.0616 18.6828 25.0616 17.0483H20.0616ZM19.5994 19.0723C19.2978 19.5829 18.8988 19.9637 18.3598 20.2467L20.6839 24.6737C22.0388 23.9624 23.1266 22.9322 23.9045 21.6152L19.5994 19.0723ZM18.3685 20.2422C17.8262 20.5242 17.1475 20.6989 16.269 20.6989V25.6989C17.8337 25.6989 19.3236 25.3811 20.6752 24.6783L18.3685 20.2422ZM16.269 20.6989C15.2839 20.6989 14.5324 20.4855 13.9337 20.1367L11.4168 24.457C12.8825 25.3109 14.5269 25.6989 16.269 25.6989V20.6989ZM13.9411 20.141C13.3344 19.7848 12.8509 19.2826 12.4793 18.5669L8.04166 20.8706C8.82537 22.3802 9.95168 23.5968 11.4094 24.4527L13.9411 20.141ZM12.4851 18.5781C12.129 17.8835 11.9011 16.9656 11.9011 15.7415H6.9011C6.9011 17.5855 7.24615 19.3191 8.03583 20.8594L12.4851 18.5781ZM11.9011 15.7415C11.9011 14.8011 12.0372 14.0513 12.2577 13.454L7.56722 11.7221C7.10593 12.9715 6.9011 14.3239 6.9011 15.7415H11.9011ZM12.2552 13.4606C12.4941 12.8193 12.804 12.336 13.1619 11.9645L9.56077 8.49575C8.67812 9.4121 8.0221 10.5008 7.56968 11.7155L12.2552 13.4606ZM13.1619 11.9645C13.5416 11.5703 13.9724 11.2785 14.472 11.0747L12.583 6.44523C11.4349 6.91372 10.4216 7.60205 9.56077 8.49576L13.1619 11.9645ZM14.472 11.0747C14.9727 10.8704 15.5416 10.7557 16.2051 10.7557V5.75568C14.9462 5.75568 13.7301 5.97718 12.583 6.44523L14.472 11.0747ZM16.2051 10.7557C16.782 10.7557 17.2746 10.8397 17.7015 10.9848L19.311 6.25097C18.3174 5.91315 17.2759 5.75568 16.2051 5.75568V10.7557ZM17.7156 10.9896C18.1683 11.1405 18.5361 11.3426 18.8419 11.5852L21.9489 7.66768C21.1563 7.03903 20.2645 6.56878 19.2968 6.24619L17.7156 10.9896ZM18.8501 11.5916C19.1597 11.8351 19.4021 12.1148 19.5919 12.4404L23.912 9.9232C23.401 9.04623 22.7391 8.289 21.9407 7.66121L18.8501 11.5916ZM19.5962 12.4479C19.7716 12.7465 19.8935 13.0882 19.9502 13.4984L24.9031 12.8141C24.761 11.7849 24.433 10.8103 23.9077 9.91576L19.5962 12.4479ZM22.4267 10.6562H19.3017V15.6562H22.4267V10.6562Z" fill="white" mask="url(#path-2-inside-1_1_1801)"/>
</g>
<defs>
<clipPath id="clip0_1_1801">
<rect width="32" height="32" fill="white"/>
</clipPath>
</defs>
</svg>
