<svg width="32" height="32" viewBox="0 0 32 32" fill="none" xmlns="http://www.w3.org/2000/svg">
<g clip-path="url(#clip0_1_1812)">
<rect width="32" height="32" rx="8" fill="black"/>
<mask id="path-2-inside-1_1_1812" fill="white">
<path d="M9.80327 23V8.45455H12.8786V14.456H19.1214V8.45455H22.1896V23H19.1214V16.9915H12.8786V23H9.80327Z"/>
</mask>
<path d="M9.80327 23H7.30327V25.5H9.80327V23ZM9.80327 8.45455V5.95455H7.30327V8.45455H9.80327ZM12.8786 8.45455H15.3786V5.95455H12.8786V8.45455ZM12.8786 14.456H10.3786V16.956H12.8786V14.456ZM19.1214 14.456V16.956H21.6214V14.456H19.1214ZM19.1214 8.45455V5.95455H16.6214V8.45455H19.1214ZM22.1896 8.45455H24.6896V5.95455H22.1896V8.45455ZM22.1896 23V25.5H24.6896V23H22.1896ZM19.1214 23H16.6214V25.5H19.1214V23ZM19.1214 16.9915H21.6214V14.4915H19.1214V16.9915ZM12.8786 16.9915V14.4915H10.3786V16.9915H12.8786ZM12.8786 23V25.5H15.3786V23H12.8786ZM12.3033 23V8.45455H7.30327V23H12.3033ZM9.80327 10.9545H12.8786V5.95455H9.80327V10.9545ZM10.3786 8.45455V14.456H15.3786V8.45455H10.3786ZM12.8786 16.956H19.1214V11.956H12.8786V16.956ZM21.6214 14.456V8.45455H16.6214V14.456H21.6214ZM19.1214 10.9545H22.1896V5.95455H19.1214V10.9545ZM19.6896 8.45455V23H24.6896V8.45455H19.6896ZM22.1896 20.5H19.1214V25.5H22.1896V20.5ZM21.6214 23V16.9915H16.6214V23H21.6214ZM19.1214 14.4915H12.8786V19.4915H19.1214V14.4915ZM10.3786 16.9915V23H15.3786V16.9915H10.3786ZM12.8786 20.5H9.80327V25.5H12.8786V20.5Z" fill="white" mask="url(#path-2-inside-1_1_1812)"/>
</g>
<defs>
<clipPath id="clip0_1_1812">
<rect width="32" height="32" fill="white"/>
</clipPath>
</defs>
</svg>
