<svg width="32" height="32" viewBox="0 0 32 32" fill="none" xmlns="http://www.w3.org/2000/svg">
<g clip-path="url(#clip0_1_1808)">
<rect width="32" height="32" rx="8" fill="black"/>
<mask id="path-2-inside-1_1_1808" fill="white">
<path d="M17.5368 8.45455V23H14.4615V8.45455H17.5368Z"/>
</mask>
<path d="M17.5368 8.45455H20.0368V5.95455H17.5368V8.45455ZM17.5368 23V25.5H20.0368V23H17.5368ZM14.4615 23H11.9615V25.5H14.4615V23ZM14.4615 8.45455V5.95455H11.9615V8.45455H14.4615ZM15.0368 8.45455V23H20.0368V8.45455H15.0368ZM17.5368 20.5H14.4615V25.5H17.5368V20.5ZM16.9615 23V8.45455H11.9615V23H16.9615ZM14.4615 10.9545H17.5368V5.95455H14.4615V10.9545Z" fill="white" mask="url(#path-2-inside-1_1_1808)"/>
</g>
<defs>
<clipPath id="clip0_1_1808">
<rect width="32" height="32" fill="white"/>
</clipPath>
</defs>
</svg>
