<svg width="32" height="32" viewBox="0 0 32 32" fill="none" xmlns="http://www.w3.org/2000/svg">
<g clip-path="url(#clip0_1_1813)">
<rect width="32" height="32" rx="8" fill="black"/>
<mask id="path-2-inside-1_1_1813" fill="white">
<path d="M17.3849 8.45455H20.4247V18.5966C20.4247 19.5341 20.214 20.3485 19.7926 21.0398C19.3759 21.7311 18.7959 22.2637 18.0526 22.6378C17.3092 23.0118 16.4451 23.1989 15.4602 23.1989C14.5843 23.1989 13.7888 23.045 13.0739 22.7372C12.3636 22.4247 11.8002 21.9512 11.3835 21.3168C10.9669 20.6776 10.7609 19.875 10.7656 18.9091H13.8267C13.8362 19.2926 13.9143 19.6217 14.0611 19.8963C14.2126 20.1662 14.4186 20.3745 14.679 20.5213C14.9441 20.6634 15.2566 20.7344 15.6165 20.7344C15.9953 20.7344 16.3149 20.6539 16.5753 20.4929C16.8404 20.3272 17.0417 20.0857 17.179 19.7685C17.3163 19.4512 17.3849 19.0606 17.3849 18.5966V8.45455Z"/>
</mask>
<path d="M17.3849 8.45455V5.95455H14.8849V8.45455H17.3849ZM20.4247 8.45455H22.9247V5.95455H20.4247V8.45455ZM19.7926 21.0398L17.6579 19.7385L17.6515 19.7492L19.7926 21.0398ZM18.0526 22.6378L16.9288 20.4046L18.0526 22.6378ZM13.0739 22.7372L12.067 25.0255L12.0762 25.0295L12.0854 25.0335L13.0739 22.7372ZM11.3835 21.3168L9.28918 22.682L9.29385 22.6891L11.3835 21.3168ZM10.7656 18.9091V16.4091H8.27785L8.26566 18.8968L10.7656 18.9091ZM13.8267 18.9091L16.3259 18.8474L16.2657 16.4091H13.8267V18.9091ZM14.0611 19.8963L11.8563 21.0748L11.8685 21.0976L11.8811 21.1201L14.0611 19.8963ZM14.679 20.5213L13.4514 22.6992L13.4748 22.7123L13.4984 22.725L14.679 20.5213ZM16.5753 20.4929L17.8899 22.6194L17.9003 22.6129L16.5753 20.4929ZM17.179 19.7685L19.4733 20.7615H19.4733L17.179 19.7685ZM17.3849 10.9545H20.4247V5.95455H17.3849V10.9545ZM17.9247 8.45455V18.5966H22.9247V8.45455H17.9247ZM17.9247 18.5966C17.9247 19.1488 17.8047 19.4977 17.658 19.7385L21.9273 22.341C22.6233 21.1992 22.9247 19.9194 22.9247 18.5966H17.9247ZM17.6515 19.7492C17.4861 20.0236 17.2647 20.2356 16.9288 20.4046L19.1763 24.871C20.3271 24.2919 21.2658 23.4385 21.9338 22.3303L17.6515 19.7492ZM16.9288 20.4046C16.5926 20.5738 16.126 20.6989 15.4602 20.6989V25.6989C16.7641 25.6989 18.0258 25.4499 19.1763 24.871L16.9288 20.4046ZM15.4602 20.6989C14.8816 20.6989 14.4282 20.5984 14.0623 20.4409L12.0854 25.0335C13.1494 25.4915 14.2869 25.6989 15.4602 25.6989V20.6989ZM14.0807 20.4489C13.8019 20.3262 13.6187 20.1661 13.4732 19.9444L9.29385 22.6891C9.98164 23.7364 10.9254 24.5232 12.067 25.0255L14.0807 20.4489ZM13.4779 19.9516C13.3911 19.8185 13.2626 19.5279 13.2656 18.9213L8.26566 18.8968C8.25916 20.2221 8.54262 21.5366 9.28919 22.682L13.4779 19.9516ZM10.7656 21.4091H13.8267V16.4091H10.7656V21.4091ZM11.3275 18.9708C11.3444 19.6556 11.4877 20.3853 11.8563 21.0748L16.2659 18.7179C16.3409 18.8581 16.328 18.9297 16.3259 18.8474L11.3275 18.9708ZM11.8811 21.1201C12.2484 21.7744 12.7776 22.3194 13.4514 22.6992L15.9065 18.3434C15.9742 18.3816 16.0436 18.4332 16.107 18.4973C16.17 18.561 16.2134 18.6233 16.241 18.6725L11.8811 21.1201ZM13.4984 22.725C14.1916 23.0963 14.9252 23.2344 15.6165 23.2344V18.2344C15.588 18.2344 15.6967 18.2304 15.8595 18.3176L13.4984 22.725ZM15.6165 23.2344C16.3497 23.2344 17.1504 23.0765 17.8898 22.6194L15.2607 18.3664C15.4794 18.2313 15.6408 18.2344 15.6165 18.2344V23.2344ZM17.9003 22.6129C18.6404 22.1503 19.1568 21.4927 19.4733 20.7615L14.8847 18.7754C14.9016 18.7364 14.9378 18.6672 15.0045 18.587C15.0727 18.5052 15.1568 18.4313 15.2503 18.3729L17.9003 22.6129ZM19.4733 20.7615C19.7842 20.0432 19.8849 19.2917 19.8849 18.5966H14.8849C14.8849 18.7073 14.8766 18.774 14.8712 18.8048C14.8659 18.8351 14.8652 18.8204 14.8847 18.7754L19.4733 20.7615ZM19.8849 18.5966V8.45455H14.8849V18.5966H19.8849Z" fill="white" mask="url(#path-2-inside-1_1_1813)"/>
</g>
<defs>
<clipPath id="clip0_1_1813">
<rect width="32" height="32" fill="white"/>
</clipPath>
</defs>
</svg>
