<svg width="32" height="32" viewBox="0 0 32 32" fill="none" xmlns="http://www.w3.org/2000/svg">
<g clip-path="url(#clip0_1_1814)">
<rect width="32" height="32" rx="8" fill="black"/>
<mask id="path-2-inside-1_1_1814" fill="white">
<path d="M10.3697 23V8.45455H13.445V14.8679H13.6367L18.8711 8.45455H22.5572L17.1594 14.9673L22.6211 23H18.9421L14.9577 17.0199L13.445 18.8665V23H10.3697Z"/>
</mask>
<path d="M10.3697 23H7.86967V25.5H10.3697V23ZM10.3697 8.45455V5.95455H7.86967V8.45455H10.3697ZM13.445 8.45455H15.945V5.95455H13.445V8.45455ZM13.445 14.8679H10.945V17.3679H13.445V14.8679ZM13.6367 14.8679V17.3679H14.8233L15.5735 16.4487L13.6367 14.8679ZM18.8711 8.45455V5.95455H17.6845L16.9343 6.87379L18.8711 8.45455ZM22.5572 8.45455L24.482 10.0498L27.8762 5.95455H22.5572V8.45455ZM17.1594 14.9673L15.2346 13.372L14.0354 14.8189L15.0921 16.373L17.1594 14.9673ZM22.6211 23V25.5H27.3441L24.6885 21.5943L22.6211 23ZM18.9421 23L16.8616 24.3862L17.6037 25.5H18.9421V23ZM14.9577 17.0199L17.0382 15.6337L15.1649 12.8221L13.0238 15.4356L14.9577 17.0199ZM13.445 18.8665L11.5111 17.2822L10.945 17.9732V18.8665H13.445ZM13.445 23V25.5H15.945V23H13.445ZM12.8697 23V8.45455H7.86967V23H12.8697ZM10.3697 10.9545H13.445V5.95455H10.3697V10.9545ZM10.945 8.45455V14.8679H15.945V8.45455H10.945ZM13.445 17.3679H13.6367V12.3679H13.445V17.3679ZM15.5735 16.4487L20.8079 10.0353L16.9343 6.87379L11.6999 13.2871L15.5735 16.4487ZM18.8711 10.9545H22.5572V5.95455H18.8711V10.9545ZM20.6323 6.85925L15.2346 13.372L19.0843 16.5626L24.482 10.0498L20.6323 6.85925ZM15.0921 16.373L20.5537 24.4057L24.6885 21.5943L19.2268 13.5617L15.0921 16.373ZM22.6211 20.5H18.9421V25.5H22.6211V20.5ZM21.0226 21.6138L17.0382 15.6337L12.8772 18.4061L16.8616 24.3862L21.0226 21.6138ZM13.0238 15.4356L11.5111 17.2822L15.3789 20.4508L16.8916 18.6042L13.0238 15.4356ZM10.945 18.8665V23H15.945V18.8665H10.945ZM13.445 20.5H10.3697V25.5H13.445V20.5Z" fill="white" mask="url(#path-2-inside-1_1_1814)"/>
</g>
<defs>
<clipPath id="clip0_1_1814">
<rect width="32" height="32" fill="white"/>
</clipPath>
</defs>
</svg>
