<svg width="32" height="32" viewBox="0 0 32 32" fill="none" xmlns="http://www.w3.org/2000/svg">
<g clip-path="url(#clip0_1_1815)">
<rect width="32" height="32" rx="8" fill="black"/>
<mask id="path-2-inside-1_1_1815" fill="white">
<path d="M11.5904 23V8.45455H14.6657V20.4645H20.9015V23H11.5904Z"/>
</mask>
<path d="M11.5904 23H9.09038V25.5H11.5904V23ZM11.5904 8.45455V5.95455H9.09038V8.45455H11.5904ZM14.6657 8.45455H17.1657V5.95455H14.6657V8.45455ZM14.6657 20.4645H12.1657V22.9645H14.6657V20.4645ZM20.9015 20.4645H23.4015V17.9645H20.9015V20.4645ZM20.9015 23V25.5H23.4015V23H20.9015ZM14.0904 23V8.45455H9.09038V23H14.0904ZM11.5904 10.9545H14.6657V5.95455H11.5904V10.9545ZM12.1657 8.45455V20.4645H17.1657V8.45455H12.1657ZM14.6657 22.9645H20.9015V17.9645H14.6657V22.9645ZM18.4015 20.4645V23H23.4015V20.4645H18.4015ZM20.9015 20.5H11.5904V25.5H20.9015V20.5Z" fill="white" mask="url(#path-2-inside-1_1_1815)"/>
</g>
<defs>
<clipPath id="clip0_1_1815">
<rect width="32" height="32" fill="white"/>
</clipPath>
</defs>
</svg>
