<svg width="32" height="32" viewBox="0 0 32 32" fill="none" xmlns="http://www.w3.org/2000/svg">
<g clip-path="url(#clip0_1_1821)">
<rect width="32" height="32" rx="8" fill="black"/>
<mask id="path-2-inside-1_1_1821" fill="white">
<path d="M8.11381 8.45455H11.9064L15.9121 18.2273H16.0826L20.0882 8.45455H23.8809V23H20.8979V13.5327H20.7772L17.013 22.929H14.9817L11.2175 13.4972H11.0968V23H8.11381V8.45455Z"/>
</mask>
<path d="M8.11381 8.45455V5.95455H5.61381V8.45455H8.11381ZM11.9064 8.45455L14.2197 7.50639L13.5836 5.95455H11.9064V8.45455ZM15.9121 18.2273L13.5989 19.1754L14.235 20.7273H15.9121V18.2273ZM16.0826 18.2273V20.7273H17.7597L18.3958 19.1754L16.0826 18.2273ZM20.0882 8.45455V5.95455H18.4111L17.775 7.50639L20.0882 8.45455ZM23.8809 8.45455H26.3809V5.95455H23.8809V8.45455ZM23.8809 23V25.5H26.3809V23H23.8809ZM20.8979 23H18.3979V25.5H20.8979V23ZM20.8979 13.5327H23.3979V11.0327H20.8979V13.5327ZM20.7772 13.5327V11.0327H19.0855L18.4565 12.603L20.7772 13.5327ZM17.013 22.929V25.429H18.7046L19.3337 23.8587L17.013 22.929ZM14.9817 22.929L12.6598 23.8556L13.2877 25.429H14.9817V22.929ZM11.2175 13.4972L13.5394 12.5705L12.9115 10.9972H11.2175V13.4972ZM11.0968 13.4972V10.9972H8.59677V13.4972H11.0968ZM11.0968 23V25.5H13.5968V23H11.0968ZM8.11381 23H5.61381V25.5H8.11381V23ZM8.11381 10.9545H11.9064V5.95455H8.11381V10.9545ZM9.5932 9.4027L13.5989 19.1754L18.2253 17.2791L14.2197 7.50639L9.5932 9.4027ZM15.9121 20.7273H16.0826V15.7273H15.9121V20.7273ZM18.3958 19.1754L22.4015 9.4027L17.775 7.50639L13.7693 17.2791L18.3958 19.1754ZM20.0882 10.9545H23.8809V5.95455H20.0882V10.9545ZM21.3809 8.45455V23H26.3809V8.45455H21.3809ZM23.8809 20.5H20.8979V25.5H23.8809V20.5ZM23.3979 23V13.5327H18.3979V23H23.3979ZM20.8979 11.0327H20.7772V16.0327H20.8979V11.0327ZM18.4565 12.603L14.6923 21.9993L19.3337 23.8587L23.0979 14.4624L18.4565 12.603ZM17.013 20.429H14.9817V25.429H17.013V20.429ZM17.3036 22.0023L13.5394 12.5705L8.89559 14.4238L12.6598 23.8556L17.3036 22.0023ZM11.2175 10.9972H11.0968V15.9972H11.2175V10.9972ZM8.59677 13.4972V23H13.5968V13.4972H8.59677ZM11.0968 20.5H8.11381V25.5H11.0968V20.5ZM10.6138 23V8.45455H5.61381V23H10.6138Z" fill="white" mask="url(#path-2-inside-1_1_1821)"/>
</g>
<defs>
<clipPath id="clip0_1_1821">
<rect width="32" height="32" fill="white"/>
</clipPath>
</defs>
</svg>
