<svg width="32" height="32" viewBox="0 0 32 32" fill="none" xmlns="http://www.w3.org/2000/svg">
<g clip-path="url(#clip0_1_1820)">
<rect width="32" height="32" rx="8" fill="black"/>
<mask id="path-2-inside-1_1_1820" fill="white">
<path d="M22.0769 8.45455V23H19.4206L13.0925 13.8452H12.986V23H9.91069V8.45455H12.6096L18.888 17.6023H19.0158V8.45455H22.0769Z"/>
</mask>
<path d="M22.0769 8.45455H24.5769V5.95455H22.0769V8.45455ZM22.0769 23V25.5H24.5769V23H22.0769ZM19.4206 23L17.3641 24.4215L18.1096 25.5H19.4206V23ZM13.0925 13.8452L15.149 12.4236L14.4035 11.3452H13.0925V13.8452ZM12.986 13.8452V11.3452H10.486V13.8452H12.986ZM12.986 23V25.5H15.486V23H12.986ZM9.91069 23H7.41069V25.5H9.91069V23ZM9.91069 8.45455V5.95455H7.41069V8.45455H9.91069ZM12.6096 8.45455L14.6708 7.03985L13.9259 5.95455H12.6096V8.45455ZM18.888 17.6023L16.8267 19.017L17.5716 20.1023H18.888V17.6023ZM19.0158 17.6023V20.1023H21.5158V17.6023H19.0158ZM19.0158 8.45455V5.95455H16.5158V8.45455H19.0158ZM19.5769 8.45455V23H24.5769V8.45455H19.5769ZM22.0769 20.5H19.4206V25.5H22.0769V20.5ZM21.4771 21.5785L15.149 12.4236L11.036 15.2667L17.3641 24.4215L21.4771 21.5785ZM13.0925 11.3452H12.986V16.3452H13.0925V11.3452ZM10.486 13.8452V23H15.486V13.8452H10.486ZM12.986 20.5H9.91069V25.5H12.986V20.5ZM12.4107 23V8.45455H7.41069V23H12.4107ZM9.91069 10.9545H12.6096V5.95455H9.91069V10.9545ZM10.5483 9.86924L16.8267 19.017L20.9492 16.1876L14.6708 7.03985L10.5483 9.86924ZM18.888 20.1023H19.0158V15.1023H18.888V20.1023ZM21.5158 17.6023V8.45455H16.5158V17.6023H21.5158ZM19.0158 10.9545H22.0769V5.95455H19.0158V10.9545Z" fill="white" mask="url(#path-2-inside-1_1_1820)"/>
</g>
<defs>
<clipPath id="clip0_1_1820">
<rect width="32" height="32" fill="white"/>
</clipPath>
</defs>
</svg>
