<svg width="32" height="32" viewBox="0 0 32 32" fill="none" xmlns="http://www.w3.org/2000/svg">
<g clip-path="url(#clip0_1_1810)">
<rect width="32" height="32" rx="8" fill="black"/>
<mask id="path-2-inside-1_1_1810" fill="white">
<path d="M10.7896 23V8.45455H16.5282C17.6315 8.45455 18.5713 8.66525 19.3478 9.08665C20.1243 9.50331 20.7162 10.0833 21.1234 10.8267C21.5353 11.5653 21.7413 12.4176 21.7413 13.3835C21.7413 14.3494 21.533 15.2017 21.1163 15.9403C20.6996 16.679 20.0959 17.2543 19.3052 17.6662C18.5192 18.0781 17.5675 18.2841 16.4501 18.2841H12.7924V15.8196H15.9529C16.5448 15.8196 17.0325 15.7178 17.416 15.5142C17.8043 15.3059 18.0931 15.0194 18.2825 14.6548C18.4766 14.2855 18.5737 13.8617 18.5737 13.3835C18.5737 12.9006 18.4766 12.4792 18.2825 12.1193C18.0931 11.7547 17.8043 11.473 17.416 11.2741C17.0278 11.0705 16.5353 10.9688 15.9387 10.9688H13.8649V23H10.7896Z"/>
</mask>
<path d="M10.7896 23H8.2896V25.5H10.7896V23ZM10.7896 8.45455V5.95455H8.2896V8.45455H10.7896ZM19.3478 9.08665L18.1554 11.284L18.1658 11.2895L19.3478 9.08665ZM21.1234 10.8267L18.9308 12.0277L18.9354 12.0361L18.94 12.0444L21.1234 10.8267ZM19.3052 17.6662L18.1502 15.449L18.1447 15.4519L19.3052 17.6662ZM12.7924 18.2841H10.2924V20.7841H12.7924V18.2841ZM12.7924 15.8196V13.3196H10.2924V15.8196H12.7924ZM17.416 15.5142L18.5883 17.7224L18.5981 17.7171L17.416 15.5142ZM18.2825 14.6548L16.0696 13.4916L16.064 13.5024L18.2825 14.6548ZM18.2825 12.1193L16.064 13.2718L16.073 13.2891L16.0822 13.3063L18.2825 12.1193ZM17.416 11.2741L16.255 13.4882L16.2656 13.4938L16.2763 13.4993L17.416 11.2741ZM13.8649 10.9688V8.46875H11.3649V10.9688H13.8649ZM13.8649 23V25.5H16.3649V23H13.8649ZM13.2896 23V8.45455H8.2896V23H13.2896ZM10.7896 10.9545H16.5282V5.95455H10.7896V10.9545ZM16.5282 10.9545C17.3168 10.9545 17.8251 11.1047 18.1554 11.2839L20.5403 6.88935C19.3176 6.22581 17.9461 5.95455 16.5282 5.95455V10.9545ZM18.1658 11.2895C18.5334 11.4868 18.7659 11.7266 18.9308 12.0277L23.316 9.62566C22.6666 8.44005 21.7153 7.51983 20.5299 6.88375L18.1658 11.2895ZM18.94 12.0444C19.1163 12.3606 19.2413 12.7825 19.2413 13.3835H24.2413C24.2413 12.0527 23.9543 10.7701 23.3068 9.60903L18.94 12.0444ZM19.2413 13.3835C19.2413 13.9798 19.1161 14.3978 18.9389 14.712L23.2937 17.1686C23.9498 16.0056 24.2413 14.7191 24.2413 13.3835H19.2413ZM18.9389 14.712C18.7726 15.0068 18.5347 15.2487 18.1502 15.449L20.4603 19.8834C21.6572 19.2598 22.6267 18.3511 23.2937 17.1686L18.9389 14.712ZM18.1447 15.4519C17.7977 15.6337 17.2658 15.7841 16.4501 15.7841V20.7841C17.8693 20.7841 19.2408 20.5225 20.4657 19.8805L18.1447 15.4519ZM16.4501 15.7841H12.7924V20.7841H16.4501V15.7841ZM15.2924 18.2841V15.8196H10.2924V18.2841H15.2924ZM12.7924 18.3196H15.9529V13.3196H12.7924V18.3196ZM15.9529 18.3196C16.8121 18.3196 17.7366 18.1744 18.5882 17.7223L16.2438 13.3061C16.2881 13.2825 16.2982 13.2863 16.2518 13.296C16.2038 13.306 16.1082 13.3196 15.9529 13.3196V18.3196ZM18.5981 17.7171C19.3958 17.289 20.0626 16.6512 20.501 15.8073L16.064 13.5024C16.0876 13.457 16.1219 13.4092 16.1634 13.3681C16.1827 13.3489 16.2002 13.3346 16.2135 13.3248C16.2268 13.3152 16.2344 13.3111 16.234 13.3113L18.5981 17.7171ZM20.4954 15.818C20.904 15.0406 21.0737 14.2073 21.0737 13.3835H16.0737C16.0737 13.4533 16.0667 13.4902 16.064 13.5018C16.0617 13.5121 16.062 13.506 16.0696 13.4916L20.4954 15.818ZM21.0737 13.3835C21.0737 12.5613 20.9064 11.7177 20.4827 10.9323L16.0822 13.3063C16.067 13.2781 16.0635 13.2614 16.0647 13.2664C16.0662 13.2731 16.0737 13.3093 16.0737 13.3835H21.0737ZM20.501 10.9668C20.057 10.1121 19.376 9.4692 18.5557 9.04904L16.2763 13.4993C16.2658 13.4939 16.2268 13.4716 16.1782 13.4242C16.1286 13.3758 16.0897 13.3213 16.064 13.2718L20.501 10.9668ZM18.577 9.0601C17.725 8.61328 16.8008 8.46875 15.9387 8.46875V13.4688C16.0975 13.4688 16.1971 13.4825 16.2494 13.4933C16.3002 13.5038 16.2949 13.5091 16.255 13.4882L18.577 9.0601ZM15.9387 8.46875H13.8649V13.4688H15.9387V8.46875ZM11.3649 10.9688V23H16.3649V10.9688H11.3649ZM13.8649 20.5H10.7896V25.5H13.8649V20.5Z" fill="white" mask="url(#path-2-inside-1_1_1810)"/>
</g>
<defs>
<clipPath id="clip0_1_1810">
<rect width="32" height="32" fill="white"/>
</clipPath>
</defs>
</svg>
