<svg width="32" height="32" viewBox="0 0 32 32" fill="none" xmlns="http://www.w3.org/2000/svg">
<g clip-path="url(#clip0_1_1802)">
<rect width="32" height="32" rx="8" fill="black"/>
<mask id="path-2-inside-1_1_1802" fill="white">
<path d="M14.932 17.9432H17.5456L18.8596 19.6335L20.1522 21.1392L22.5882 24.1932H19.7189L18.0428 22.1335L17.1834 20.9119L14.932 17.9432ZM22.8084 15.7273C22.8084 17.3134 22.5078 18.6629 21.9064 19.7756C21.3098 20.8883 20.4954 21.7382 19.4632 22.3253C18.4358 22.9077 17.2805 23.1989 15.9973 23.1989C14.7047 23.1989 13.5447 22.9053 12.5172 22.3182C11.4898 21.7311 10.6777 20.8812 10.0811 19.7685C9.48455 18.6558 9.18626 17.3087 9.18626 15.7273C9.18626 14.1411 9.48455 12.7917 10.0811 11.679C10.6777 10.5663 11.4898 9.71875 12.5172 9.13636C13.5447 8.54924 14.7047 8.25568 15.9973 8.25568C17.2805 8.25568 18.4358 8.54924 19.4632 9.13636C20.4954 9.71875 21.3098 10.5663 21.9064 11.679C22.5078 12.7917 22.8084 14.1411 22.8084 15.7273ZM19.6905 15.7273C19.6905 14.6998 19.5366 13.8333 19.2289 13.1278C18.9258 12.4223 18.4973 11.8873 17.9434 11.5227C17.3894 11.1581 16.7407 10.9759 15.9973 10.9759C15.254 10.9759 14.6053 11.1581 14.0513 11.5227C13.4973 11.8873 13.0665 12.4223 12.7587 13.1278C12.4557 13.8333 12.3042 14.6998 12.3042 15.7273C12.3042 16.7547 12.4557 17.6212 12.7587 18.3267C13.0665 19.0322 13.4973 19.5672 14.0513 19.9318C14.6053 20.2964 15.254 20.4787 15.9973 20.4787C16.7407 20.4787 17.3894 20.2964 17.9434 19.9318C18.4973 19.5672 18.9258 19.0322 19.2289 18.3267C19.5366 17.6212 19.6905 16.7547 19.6905 15.7273Z"/>
</mask>
<path d="M14.932 17.9432V15.4432H9.89846L12.94 19.4538L14.932 17.9432ZM17.5456 17.9432L19.5195 16.4089L18.7688 15.4432H17.5456V17.9432ZM18.8596 19.6335L16.8857 21.1678L16.9231 21.2158L16.9627 21.262L18.8596 19.6335ZM20.1522 21.1392L22.1066 19.5802L22.0784 19.545L22.049 19.5108L20.1522 21.1392ZM22.5882 24.1932V26.6932H27.7804L24.5426 22.6342L22.5882 24.1932ZM19.7189 24.1932L17.7799 25.7712L18.5302 26.6932H19.7189V24.1932ZM18.0428 22.1335L15.9981 23.572L16.0485 23.6436L16.1037 23.7115L18.0428 22.1335ZM17.1834 20.9119L19.2281 19.4735L19.2024 19.4369L19.1754 19.4013L17.1834 20.9119ZM21.9064 19.7756L19.707 18.587L19.7031 18.5942L21.9064 19.7756ZM19.4632 22.3253L20.696 24.5002L20.6993 24.4983L19.4632 22.3253ZM12.5172 22.3182L13.7576 20.1476L12.5172 22.3182ZM10.0811 19.7685L7.87786 20.9498L10.0811 19.7685ZM10.0811 11.679L12.2844 12.8603L10.0811 11.679ZM12.5172 9.13636L13.75 11.3113L13.7576 11.307L12.5172 9.13636ZM19.4632 9.13636L18.2229 11.307L18.2347 11.3137L19.4632 9.13636ZM21.9064 11.679L19.7031 12.8603L19.7071 12.8676L21.9064 11.679ZM19.2289 13.1278L16.9318 14.1145L16.9374 14.1275L19.2289 13.1278ZM17.9434 11.5227L16.569 13.6111H16.569L17.9434 11.5227ZM14.0513 11.5227L15.4257 13.6111H15.4257L14.0513 11.5227ZM12.7587 13.1278L10.4672 12.1282L10.4616 12.1412L12.7587 13.1278ZM12.7587 18.3267L10.4616 19.3134L10.4672 19.3263L12.7587 18.3267ZM14.0513 19.9318L15.4257 17.8435L15.4257 17.8435L14.0513 19.9318ZM17.9434 19.9318L16.569 17.8435L16.569 17.8435L17.9434 19.9318ZM19.2289 18.3267L16.9374 17.3271L16.9318 17.34L19.2289 18.3267ZM14.932 20.4432H17.5456V15.4432H14.932V20.4432ZM15.5718 19.4775L16.8857 21.1678L20.8334 18.0992L19.5195 16.4089L15.5718 19.4775ZM16.9627 21.262L18.2553 22.7677L22.049 19.5108L20.7564 18.0051L16.9627 21.262ZM18.1978 22.6982L20.6339 25.7521L24.5426 22.6342L22.1066 19.5802L18.1978 22.6982ZM22.5882 21.6932H19.7189V26.6932H22.5882V21.6932ZM21.658 22.6152L19.9818 20.5555L16.1037 23.7115L17.7799 25.7712L21.658 22.6152ZM20.0875 20.6951L19.2281 19.4735L15.1387 22.3504L15.9981 23.572L20.0875 20.6951ZM19.1754 19.4013L16.924 16.4325L12.94 19.4538L15.1915 22.4226L19.1754 19.4013ZM20.3084 15.7273C20.3084 17.002 20.0671 17.9207 19.7071 18.587L24.1058 20.9642C24.9484 19.405 25.3084 17.6249 25.3084 15.7273H20.3084ZM19.7031 18.5942C19.3144 19.3193 18.8238 19.8129 18.2272 20.1522L20.6993 24.4983C22.1671 23.6634 23.3053 22.4573 24.1097 20.9569L19.7031 18.5942ZM18.2305 20.1504C17.611 20.5015 16.8868 20.6989 15.9973 20.6989V25.6989C17.6742 25.6989 19.2606 25.3139 20.696 24.5002L18.2305 20.1504ZM15.9973 20.6989C15.0985 20.6989 14.373 20.4992 13.7576 20.1476L11.2769 24.4888C12.7164 25.3114 14.311 25.6989 15.9973 25.6989V20.6989ZM13.7576 20.1476C13.1651 19.809 12.6747 19.3151 12.2844 18.5871L7.87786 20.9498C8.68073 22.4472 9.8144 23.6531 11.2769 24.4888L13.7576 20.1476ZM12.2844 18.5871C11.9258 17.9182 11.6863 16.9987 11.6863 15.7273H6.68626C6.68626 17.6187 7.04332 19.3933 7.87786 20.9498L12.2844 18.5871ZM11.6863 15.7273C11.6863 14.4497 11.9263 13.5282 12.2844 12.8603L7.87786 10.4976C7.04279 12.0551 6.68626 13.8325 6.68626 15.7273H11.6863ZM12.2844 12.8603C12.6739 12.1338 13.162 11.6446 13.75 11.3113L11.2844 6.96145C9.8175 7.79294 8.68154 8.99873 7.87786 10.4976L12.2844 12.8603ZM13.7576 11.307C14.373 10.9553 15.0985 10.7557 15.9973 10.7557V5.75568C14.311 5.75568 12.7164 6.14318 11.2769 6.96576L13.7576 11.307ZM15.9973 10.7557C16.8832 10.7557 17.6047 10.9537 18.2229 11.307L20.7036 6.96576C19.2669 6.14477 17.6778 5.75568 15.9973 5.75568V10.7557ZM18.2347 11.3137C18.8269 11.6478 19.3152 12.1368 19.7031 12.8603L24.1097 10.4976C23.3045 8.99577 22.164 7.7897 20.6917 6.95903L18.2347 11.3137ZM19.7071 12.8676C20.0671 13.5338 20.3084 14.4526 20.3084 15.7273H25.3084C25.3084 13.8296 24.9484 12.0495 24.1058 10.4904L19.7071 12.8676ZM22.1905 15.7273C22.1905 14.4649 22.0034 13.2357 21.5203 12.1282L16.9374 14.1275C17.0698 14.431 17.1905 14.9347 17.1905 15.7273H22.1905ZM21.5259 12.1412C21.061 11.0588 20.3419 10.1084 19.3177 9.4344L16.569 13.6111C16.6528 13.6662 16.7907 13.7859 16.9318 14.1145L21.5259 12.1412ZM19.3177 9.4344C18.3075 8.76953 17.1681 8.47585 15.9973 8.47585V13.4759C16.3133 13.4759 16.4713 13.5468 16.569 13.6111L19.3177 9.4344ZM15.9973 8.47585C14.8266 8.47585 13.6872 8.76953 12.6769 9.4344L15.4257 13.6111C15.5234 13.5468 15.6814 13.4759 15.9973 13.4759V8.47585ZM12.6769 9.4344C11.6565 10.106 10.9369 11.0516 10.4672 12.1282L15.0502 14.1275C15.196 13.7931 15.3382 13.6686 15.4257 13.6111L12.6769 9.4344ZM10.4616 12.1412C9.98767 13.2446 9.80415 14.4691 9.80415 15.7273H14.8042C14.8042 14.9306 14.9237 14.422 15.0558 14.1145L10.4616 12.1412ZM9.80415 15.7273C9.80415 16.9855 9.98767 18.2099 10.4616 19.3134L15.0558 17.34C14.9237 17.0325 14.8042 16.524 14.8042 15.7273H9.80415ZM10.4672 19.3263C10.9369 20.403 11.6565 21.3486 12.6769 22.0201L15.4257 17.8435C15.3382 17.7859 15.196 17.6614 15.0502 17.3271L10.4672 19.3263ZM12.6769 22.0201C13.6872 22.685 14.8266 22.9787 15.9973 22.9787V17.9787C15.6814 17.9787 15.5234 17.9078 15.4257 17.8435L12.6769 22.0201ZM15.9973 22.9787C17.1681 22.9787 18.3075 22.685 19.3177 22.0201L16.569 17.8435C16.4713 17.9078 16.3133 17.9787 15.9973 17.9787V22.9787ZM19.3177 22.0201C20.3419 21.3461 21.061 20.3958 21.5259 19.3134L16.9318 17.34C16.7907 17.6686 16.6528 17.7884 16.569 17.8435L19.3177 22.0201ZM21.5203 19.3263C22.0034 18.2189 22.1905 16.9896 22.1905 15.7273H17.1905C17.1905 16.5199 17.0698 17.0236 16.9374 17.3271L21.5203 19.3263Z" fill="white" mask="url(#path-2-inside-1_1_1802)"/>
</g>
<defs>
<clipPath id="clip0_1_1802">
<rect width="32" height="32" fill="white"/>
</clipPath>
</defs>
</svg>
