<svg width="32" height="32" viewBox="0 0 32 32" fill="none" xmlns="http://www.w3.org/2000/svg">
<g clip-path="url(#clip0_1_1804)">
<rect width="32" height="32" rx="8" fill="black"/>
<mask id="path-2-inside-1_1_1804" fill="white">
<path d="M10.7017 23V8.45455H16.4403C17.5388 8.45455 18.4763 8.65104 19.2528 9.04403C20.0341 9.43229 20.6283 9.9839 21.0355 10.6989C21.4474 11.4091 21.6534 12.2448 21.6534 13.206C21.6534 14.1719 21.4451 15.0028 21.0284 15.6989C20.6117 16.3902 20.008 16.9205 19.2173 17.2898C18.4313 17.6591 17.4796 17.8438 16.3622 17.8438H12.5199V15.3722H15.8651C16.4522 15.3722 16.9399 15.2917 17.3281 15.1307C17.7164 14.9697 18.0052 14.7282 18.1946 14.4062C18.3887 14.0843 18.4858 13.6842 18.4858 13.206C18.4858 12.723 18.3887 12.3158 18.1946 11.9844C18.0052 11.6529 17.714 11.402 17.321 11.2315C16.9328 11.0563 16.4427 10.9688 15.8509 10.9688H13.777V23H10.7017ZM18.5568 16.3807L22.1719 23H18.777L15.2401 16.3807H18.5568Z"/>
</mask>
<path d="M10.7017 23H8.2017V25.5H10.7017V23ZM10.7017 8.45455V5.95455H8.2017V8.45455H10.7017ZM19.2528 9.04403L18.1239 11.2746L18.1321 11.2788L18.1402 11.2828L19.2528 9.04403ZM21.0355 10.6989L18.8631 11.9361L18.868 11.9447L18.8729 11.9532L21.0355 10.6989ZM21.0284 15.6989L23.1696 16.9894L23.1734 16.983L21.0284 15.6989ZM19.2173 17.2898L18.1594 15.0247L18.1542 15.0271L19.2173 17.2898ZM12.5199 17.8438H10.0199V20.3438H12.5199V17.8438ZM12.5199 15.3722V12.8722H10.0199V15.3722H12.5199ZM17.3281 15.1307L18.2857 17.44L18.2857 17.44L17.3281 15.1307ZM18.1946 14.4062L16.0537 13.1154L16.0466 13.127L16.0398 13.1387L18.1946 14.4062ZM18.1946 11.9844L16.024 13.2247L16.0306 13.2363L16.0374 13.2479L18.1946 11.9844ZM17.321 11.2315L16.2928 13.5103L16.3095 13.5178L16.3262 13.5251L17.321 11.2315ZM13.777 10.9688V8.46875H11.277V10.9688H13.777ZM13.777 23V25.5H16.277V23H13.777ZM18.5568 16.3807L20.7509 15.1824L20.04 13.8807H18.5568V16.3807ZM22.1719 23V25.5H26.3858L24.366 21.8017L22.1719 23ZM18.777 23L16.572 24.1782L17.2783 25.5H18.777V23ZM15.2401 16.3807V13.8807H11.0697L13.0351 17.5589L15.2401 16.3807ZM13.2017 23V8.45455H8.2017V23H13.2017ZM10.7017 10.9545H16.4403V5.95455H10.7017V10.9545ZM16.4403 10.9545C17.2468 10.9545 17.777 11.0991 18.1239 11.2746L20.3817 6.81343C19.1756 6.20302 17.8308 5.95455 16.4403 5.95455V10.9545ZM18.1402 11.2828C18.5048 11.464 18.717 11.6795 18.8631 11.9361L23.2079 9.46162C22.5396 8.28829 21.5634 7.40059 20.3654 6.80526L18.1402 11.2828ZM18.8729 11.9532C19.0287 12.2217 19.1534 12.6095 19.1534 13.206H24.1534C24.1534 11.8801 23.8662 10.5965 23.1981 9.44457L18.8729 11.9532ZM19.1534 13.206C19.1534 13.8064 19.0269 14.1751 18.8834 14.4148L23.1734 16.983C23.8633 15.8306 24.1534 14.5373 24.1534 13.206H19.1534ZM18.8873 14.4083C18.7479 14.6396 18.5385 14.8476 18.1594 15.0247L20.2753 19.5549C21.4776 18.9933 22.4756 18.1407 23.1695 16.9894L18.8873 14.4083ZM18.1542 15.0271C17.7819 15.202 17.2137 15.3438 16.3622 15.3438V20.3438C17.7456 20.3438 19.0808 20.1161 20.2805 19.5524L18.1542 15.0271ZM16.3622 15.3438H12.5199V20.3438H16.3622V15.3438ZM15.0199 17.8438V15.3722H10.0199V17.8438H15.0199ZM12.5199 17.8722H15.8651V12.8722H12.5199V17.8722ZM15.8651 17.8722C16.6595 17.8722 17.499 17.7662 18.2857 17.44L16.3706 12.8213C16.3808 12.8171 16.2448 12.8722 15.8651 12.8722V17.8722ZM18.2857 17.44C19.1097 17.0984 19.8506 16.5218 20.3494 15.6738L16.0398 13.1387C16.0914 13.0509 16.1589 12.9723 16.2324 12.9109C16.3034 12.8515 16.3577 12.8267 16.3706 12.8213L18.2857 17.44ZM20.3356 15.6971C20.8205 14.8928 20.9858 14.0171 20.9858 13.206H15.9858C15.9858 13.2776 15.9784 13.2963 15.9835 13.2753C15.9892 13.2515 16.0076 13.1918 16.0537 13.1154L20.3356 15.6971ZM20.9858 13.206C20.9858 12.3917 20.8213 11.5224 20.3518 10.7209L16.0374 13.2479C16.0188 13.2161 16.0054 13.1874 15.9962 13.1641C15.9871 13.1409 15.9827 13.1248 15.9811 13.118C15.9781 13.1053 15.9858 13.1306 15.9858 13.206H20.9858ZM20.3652 10.744C19.8755 9.88702 19.1407 9.29577 18.3158 8.93798L16.3262 13.5251C16.3175 13.5213 16.268 13.4982 16.2021 13.4414C16.1339 13.3826 16.0714 13.3076 16.024 13.2247L20.3652 10.744ZM18.3492 8.95277C17.5378 8.58661 16.668 8.46875 15.8509 8.46875V13.4688C16.026 13.4688 16.1467 13.4819 16.2224 13.4954C16.2977 13.5089 16.3149 13.5203 16.2928 13.5103L18.3492 8.95277ZM15.8509 8.46875H13.777V13.4688H15.8509V8.46875ZM11.277 10.9688V23H16.277V10.9688H11.277ZM13.777 20.5H10.7017V25.5H13.777V20.5ZM16.3627 17.579L19.9778 24.1983L24.366 21.8017L20.7509 15.1824L16.3627 17.579ZM22.1719 20.5H18.777V25.5H22.1719V20.5ZM20.982 21.8218L17.445 15.2025L13.0351 17.5589L16.572 24.1782L20.982 21.8218ZM15.2401 18.8807H18.5568V13.8807H15.2401V18.8807Z" fill="white" mask="url(#path-2-inside-1_1_1804)"/>
</g>
<defs>
<clipPath id="clip0_1_1804">
<rect width="32" height="32" fill="white"/>
</clipPath>
</defs>
</svg>
