<svg width="32" height="32" viewBox="0 0 32 32" fill="none" xmlns="http://www.w3.org/2000/svg">
<g clip-path="url(#clip0_1_1797)">
<rect width="32" height="32" rx="8" fill="black"/>
<mask id="path-2-inside-1_1_1797" fill="white">
<path d="M18.6021 12.6378C18.5453 12.0649 18.3014 11.6198 17.8706 11.3026C17.4397 10.9853 16.8549 10.8267 16.1163 10.8267C15.6144 10.8267 15.1906 10.8977 14.845 11.0398C14.4993 11.1771 14.2342 11.3688 14.0495 11.6151C13.8696 11.8613 13.7797 12.1406 13.7797 12.4531C13.7702 12.7135 13.8246 12.9408 13.943 13.1349C14.0661 13.3291 14.2342 13.4972 14.4473 13.6392C14.6603 13.7765 14.9065 13.8973 15.1859 14.0014C15.4653 14.1009 15.7636 14.1861 16.0808 14.2571L17.3876 14.5696C18.0221 14.7116 18.6045 14.901 19.1348 15.1378C19.6651 15.3745 20.1243 15.6657 20.5126 16.0114C20.9009 16.357 21.2015 16.7642 21.4146 17.233C21.6324 17.7017 21.7437 18.2391 21.7484 18.8452C21.7437 19.7353 21.5164 20.5071 21.0666 21.1605C20.6215 21.8092 19.9776 22.3134 19.1348 22.6733C18.2967 23.0284 17.2858 23.206 16.1021 23.206C14.9279 23.206 13.9051 23.026 13.0339 22.6662C12.1674 22.3063 11.4904 21.7737 11.0027 21.0682C10.5197 20.358 10.2664 19.4796 10.2427 18.4332H13.2186C13.2517 18.9209 13.3914 19.3281 13.6376 19.6548C13.8886 19.9768 14.2224 20.2206 14.639 20.3864C15.0604 20.5473 15.5363 20.6278 16.0666 20.6278C16.5874 20.6278 17.0396 20.5521 17.4231 20.4006C17.8114 20.2491 18.112 20.0384 18.3251 19.7685C18.5382 19.4986 18.6447 19.1884 18.6447 18.8381C18.6447 18.5114 18.5476 18.2367 18.3535 18.0142C18.1641 17.7917 17.8848 17.6023 17.5154 17.446C17.1509 17.2898 16.7034 17.1477 16.1731 17.0199L14.5893 16.6222C13.363 16.3239 12.3947 15.8575 11.6845 15.223C10.9743 14.5885 10.6215 13.7339 10.6262 12.6591C10.6215 11.7784 10.8559 11.009 11.3294 10.3509C11.8076 9.69271 12.4634 9.17898 13.2967 8.80966C14.13 8.44034 15.077 8.25568 16.1376 8.25568C17.2172 8.25568 18.1594 8.44034 18.9643 8.80966C19.774 9.17898 20.4037 9.69271 20.8535 10.3509C21.3033 11.009 21.5353 11.7713 21.5495 12.6378H18.6021Z"/>
</mask>
<path d="M18.6021 12.6378L16.1143 12.8845L16.3378 15.1378H18.6021V12.6378ZM14.845 11.0398L15.768 13.3632L15.7817 13.3577L15.7953 13.3521L14.845 11.0398ZM14.0495 11.6151L12.0495 10.1151L12.0402 10.1275L12.0311 10.14L14.0495 11.6151ZM13.7797 12.4531L16.278 12.544L16.2797 12.4986V12.4531H13.7797ZM13.943 13.1349L11.8085 14.4365L11.82 14.4552L11.8317 14.4738L13.943 13.1349ZM14.4473 13.6392L13.0605 15.7193L13.0767 15.7301L13.093 15.7406L14.4473 13.6392ZM15.1859 14.0014L14.3124 16.3439L14.33 16.3504L14.3476 16.3567L15.1859 14.0014ZM16.0808 14.2571L16.6622 11.8257L16.6446 11.8214L16.627 11.8175L16.0808 14.2571ZM17.3876 14.5696L16.8062 17.001L16.8238 17.0053L16.8414 17.0092L17.3876 14.5696ZM19.1348 15.1378L18.1156 17.4206H18.1156L19.1348 15.1378ZM20.5126 16.0114L22.1749 14.1441L22.1749 14.1441L20.5126 16.0114ZM21.4146 17.233L19.1387 18.2675L19.143 18.277L19.1474 18.2864L21.4146 17.233ZM21.7484 18.8452L24.2484 18.8585L24.2485 18.8421L24.2483 18.8256L21.7484 18.8452ZM21.0666 21.1605L19.0073 19.7429L19.0052 19.7461L21.0666 21.1605ZM19.1348 22.6733L20.1101 24.9752L20.1164 24.9725L19.1348 22.6733ZM13.0339 22.6662L12.0751 24.975L12.0795 24.9768L13.0339 22.6662ZM11.0027 21.0682L8.93535 22.474L8.94074 22.4819L8.94619 22.4898L11.0027 21.0682ZM10.2427 18.4332V15.9332H7.68552L7.74336 18.4898L10.2427 18.4332ZM13.2186 18.4332L15.7128 18.2637L15.5544 15.9332H13.2186V18.4332ZM13.6376 19.6548L11.6411 21.1595L11.6533 21.1757L11.6658 21.1917L13.6376 19.6548ZM14.639 20.3864L13.7151 22.7094L13.7309 22.7157L13.7469 22.7218L14.639 20.3864ZM17.4231 20.4006L16.5143 18.0716L16.5045 18.0754L17.4231 20.4006ZM18.3251 19.7685L20.2873 21.3176H20.2873L18.3251 19.7685ZM18.3535 18.0142L16.4497 19.6345L16.4596 19.6461L16.4696 19.6576L18.3535 18.0142ZM17.5154 17.446L16.5306 19.7439L16.5413 19.7484L17.5154 17.446ZM16.1731 17.0199L15.5642 19.4446L15.5757 19.4475L15.5872 19.4503L16.1731 17.0199ZM14.5893 16.6222L15.1982 14.1974L15.1892 14.1952L15.1802 14.193L14.5893 16.6222ZM11.6845 15.223L10.0189 17.0874L10.0189 17.0874L11.6845 15.223ZM10.6262 12.6591L13.1262 12.6701L13.1263 12.6579L13.1262 12.6456L10.6262 12.6591ZM11.3294 10.3509L9.30688 8.88127L9.29998 8.89086L11.3294 10.3509ZM18.9643 8.80966L17.9218 11.0819L17.9268 11.0842L18.9643 8.80966ZM20.8535 10.3509L18.7895 11.7615L18.7895 11.7615L20.8535 10.3509ZM21.5495 12.6378V15.1378H24.0909L24.0492 12.5968L21.5495 12.6378ZM21.0899 12.3911C20.9692 11.1737 20.4009 10.061 19.3528 9.28936L16.3883 13.3158C16.327 13.2706 16.2465 13.1893 16.1841 13.0755C16.1554 13.0232 16.1375 12.9763 16.1268 12.9402C16.1216 12.9226 16.1185 12.9087 16.1166 12.8991C16.1148 12.8895 16.1143 12.8845 16.1143 12.8845L21.0899 12.3911ZM19.3528 9.28936C18.3562 8.55556 17.1897 8.3267 16.1163 8.3267V13.3267C16.311 13.3267 16.4159 13.348 16.4544 13.3585C16.4877 13.3675 16.4524 13.363 16.3883 13.3158L19.3528 9.28936ZM16.1163 8.3267C15.3938 8.3267 14.626 8.42688 13.8947 8.72742L15.7953 13.3521C15.7552 13.3686 15.835 13.3267 16.1163 13.3267V8.3267ZM13.922 8.71639C13.238 8.98814 12.5631 9.43026 12.0495 10.1151L16.0495 13.1151C15.9053 13.3074 15.7607 13.366 15.768 13.3632L13.922 8.71639ZM12.0311 10.14C11.53 10.8256 11.2797 11.6244 11.2797 12.4531H16.2797C16.2797 12.5401 16.2666 12.652 16.2268 12.7756C16.1868 12.8997 16.1293 13.0062 16.068 13.0901L12.0311 10.14ZM11.2813 12.3623C11.2567 13.0389 11.3992 13.7652 11.8085 14.4365L16.0775 11.8334C16.2501 12.1164 16.2837 12.3882 16.278 12.544L11.2813 12.3623ZM11.8317 14.4738C12.1622 14.9949 12.5901 15.4057 13.0605 15.7193L15.834 11.5591C15.8783 11.5886 15.97 11.6632 16.0543 11.7961L11.8317 14.4738ZM13.093 15.7406C13.4809 15.9906 13.8933 16.1876 14.3124 16.3439L16.0594 11.659C15.9198 11.6069 15.8398 11.5624 15.8015 11.5378L13.093 15.7406ZM14.3476 16.3567C14.7311 16.4932 15.1277 16.6056 15.5346 16.6967L16.627 11.8175C16.3994 11.7665 16.1994 11.7085 16.0242 11.6462L14.3476 16.3567ZM15.4994 16.6885L16.8062 17.001L17.969 12.1382L16.6622 11.8257L15.4994 16.6885ZM16.8414 17.0092C17.3324 17.1191 17.7542 17.2593 18.1156 17.4206L20.1539 12.8549C19.4548 12.5428 18.7117 12.3042 17.9338 12.13L16.8414 17.0092ZM18.1156 17.4206C18.4386 17.5648 18.6748 17.7224 18.8503 17.8786L22.1749 14.1441C21.5739 13.609 20.8915 13.1842 20.1539 12.8549L18.1156 17.4206ZM18.8503 17.8786C18.9808 17.9948 19.0713 18.1191 19.1387 18.2675L23.6905 16.1984C23.3318 15.4093 22.821 14.7192 22.1749 14.1441L18.8503 17.8786ZM19.1474 18.2864C19.1908 18.3799 19.2461 18.5549 19.2485 18.8647L24.2483 18.8256C24.2413 17.9234 24.074 17.0235 23.6818 16.1795L19.1474 18.2864ZM19.2484 18.8319C19.246 19.2839 19.1386 19.5522 19.0074 19.7429L23.1258 22.5781C23.8942 21.462 24.2413 20.1867 24.2484 18.8585L19.2484 18.8319ZM19.0052 19.7461C18.8705 19.9423 18.6326 20.1693 18.1531 20.3741L20.1164 24.9725C21.3225 24.4576 22.3725 23.676 23.128 22.5749L19.0052 19.7461ZM18.1594 20.3714C17.7075 20.5629 17.0468 20.706 16.1021 20.706V25.706C17.5248 25.706 18.8859 25.4939 20.1101 24.9752L18.1594 20.3714ZM16.1021 20.706C15.1775 20.706 14.4924 20.5638 13.9883 20.3555L12.0795 24.9768C13.3178 25.4883 14.6782 25.706 16.1021 25.706V20.706ZM13.9928 20.3574C13.5265 20.1637 13.2483 19.9202 13.0591 19.6466L8.94619 22.4898C9.73245 23.6272 10.8084 24.449 12.0751 24.975L13.9928 20.3574ZM13.07 19.6624C12.9122 19.4304 12.7573 19.0472 12.7421 18.3767L7.74336 18.4898C7.77554 19.9121 8.12721 21.2855 8.93535 22.474L13.07 19.6624ZM10.2427 20.9332H13.2186V15.9332H10.2427V20.9332ZM10.7243 18.6028C10.7839 19.4787 11.0502 20.3754 11.6411 21.1595L15.6341 18.1502C15.6776 18.208 15.7018 18.2608 15.7129 18.2932C15.723 18.3227 15.7165 18.3179 15.7128 18.2637L10.7243 18.6028ZM11.6658 21.1917C12.2164 21.8981 12.9273 22.396 13.7151 22.7094L15.563 18.0634C15.5339 18.0518 15.534 18.0481 15.5509 18.0605C15.5588 18.0663 15.5689 18.0745 15.5798 18.085C15.5907 18.0956 15.6008 18.1069 15.6094 18.118L11.6658 21.1917ZM13.7469 22.7218C14.4984 23.0088 15.2838 23.1278 16.0666 23.1278V18.1278C15.7887 18.1278 15.6225 18.0859 15.5312 18.051L13.7469 22.7218ZM16.0666 23.1278C16.8225 23.1278 17.5999 23.0187 18.3417 22.7257L16.5045 18.0754C16.4792 18.0854 16.3524 18.1278 16.0666 18.1278V23.1278ZM18.332 22.7295C19.0467 22.4506 19.7457 22.0036 20.2873 21.3176L16.3629 18.2194C16.4169 18.151 16.4698 18.1063 16.5051 18.0816C16.5384 18.0582 16.547 18.0588 16.5143 18.0716L18.332 22.7295ZM20.2873 21.3176C20.8558 20.5975 21.1447 19.739 21.1447 18.8381H16.1447C16.1447 18.7559 16.1579 18.6449 16.2004 18.5213C16.2431 18.397 16.3034 18.2948 16.3629 18.2194L20.2873 21.3176ZM21.1447 18.8381C21.1447 17.9761 20.8719 17.0981 20.2374 16.3708L16.4696 19.6576C16.3621 19.5345 16.2729 19.3846 16.2148 19.2202C16.158 19.0595 16.1447 18.9243 16.1447 18.8381H21.1447ZM20.2574 16.3939C19.7394 15.7853 19.0912 15.3982 18.4895 15.1436L16.5413 19.7484C16.6029 19.7745 16.6167 19.7865 16.5991 19.7745C16.5804 19.7619 16.5215 19.7189 16.4497 19.6345L20.2574 16.3939ZM18.5002 15.1482C17.9689 14.9204 17.379 14.739 16.759 14.5895L15.5872 19.4503C16.0278 19.5565 16.3328 19.6591 16.5306 19.7439L18.5002 15.1482ZM16.782 14.5952L15.1982 14.1974L13.9804 19.0469L15.5642 19.4446L16.782 14.5952ZM15.1802 14.193C14.2281 13.9614 13.6705 13.6449 13.35 13.3586L10.0189 17.0874C11.1189 18.0701 12.4979 18.6863 13.9984 19.0513L15.1802 14.193ZM13.35 13.3586C13.2455 13.2652 13.1242 13.1315 13.1262 12.6701L8.12627 12.6481C8.11883 14.3363 8.70304 15.9119 10.0189 17.0874L13.35 13.3586ZM13.1262 12.6456C13.1241 12.2454 13.2209 12.0025 13.3588 11.8108L9.29998 8.89086C8.49086 10.0155 8.11896 11.3114 8.12628 12.6725L13.1262 12.6456ZM13.3518 11.8204C13.5412 11.5598 13.8293 11.3082 14.3096 11.0953L12.2838 6.52406C11.0975 7.0498 10.074 7.82557 9.3069 8.88129L13.3518 11.8204ZM14.3096 11.0953C14.776 10.8886 15.3693 10.7557 16.1376 10.7557V5.75568C14.7847 5.75568 13.484 5.99212 12.2838 6.52406L14.3096 11.0953ZM16.1376 10.7557C16.9345 10.7557 17.5075 10.8918 17.9218 11.0819L20.0069 6.53742C18.8113 5.98887 17.4998 5.75568 16.1376 5.75568V10.7557ZM17.9268 11.0842C18.3715 11.2871 18.6258 11.522 18.7895 11.7615L22.9175 8.94021C22.1816 7.86341 21.1764 7.0709 20.0018 6.53511L17.9268 11.0842ZM18.7895 11.7615C18.9391 11.9803 19.043 12.2572 19.0499 12.6788L24.0492 12.5968C24.0277 11.2855 23.6676 10.0376 22.9175 8.94021L18.7895 11.7615ZM21.5495 10.1378H18.6021V15.1378H21.5495V10.1378Z" fill="white" mask="url(#path-2-inside-1_1_1797)"/>
</g>
<defs>
<clipPath id="clip0_1_1797">
<rect width="32" height="32" fill="white"/>
</clipPath>
</defs>
</svg>
