<svg width="32" height="32" viewBox="0 0 32 32" fill="none" xmlns="http://www.w3.org/2000/svg">
<g clip-path="url(#clip0_1_1836)">
<rect width="32" height="32" rx="8" fill="black"/>
<path d="M20 23V24H21V23H20ZM12 23H11V24H12V23ZM12 16.5H13V15.5H12V16.5ZM8 16.5L7.29289 15.7929C7.0069 16.0789 6.92134 16.509 7.07612 16.8827C7.2309 17.2564 7.59554 17.5 8 17.5V16.5ZM20 16.5V15.5H19V16.5H20ZM24 16.5V17.5C24.4045 17.5 24.7691 17.2564 24.9239 16.8827C25.0787 16.509 24.9931 16.0789 24.7071 15.7929L24 16.5ZM16 8.5L16.7071 7.79289L16 7.08579L15.2929 7.79289L16 8.5ZM20 22H12V24H20V22ZM13 23V16.5H11V23H13ZM12 15.5H8V17.5H12V15.5ZM21 23V16.5H19V23H21ZM20 17.5H24V15.5H20V17.5ZM24.7071 15.7929L16.7071 7.79289L15.2929 9.20711L23.2929 17.2071L24.7071 15.7929ZM8.70711 17.2071L16.7071 9.20711L15.2929 7.79289L7.29289 15.7929L8.70711 17.2071Z" fill="white"/>
</g>
<defs>
<clipPath id="clip0_1_1836">
<rect width="32" height="32" fill="white"/>
</clipPath>
</defs>
</svg>
