<svg width="65" height="32" viewBox="0 0 65 32" fill="none" xmlns="http://www.w3.org/2000/svg">
<g clip-path="url(#clip0_202_8)">
<rect width="65" height="32" rx="8" fill="black"/>
<mask id="path-2-inside-1_202_8" fill="white">
<path d="M5.63681 23V9.90909H8.40456V15.3104H14.0232V9.90909H16.7845V23H14.0232V17.5923H8.40456V23H5.63681ZM31.0963 16.4545C31.0963 17.8821 30.8257 19.0966 30.2845 20.098C29.7476 21.0994 29.0146 21.8643 28.0857 22.3928C27.161 22.9169 26.1212 23.179 24.9664 23.179C23.803 23.179 22.759 22.9148 21.8343 22.3864C20.9095 21.858 20.1787 21.093 19.6418 20.0916C19.1048 19.0902 18.8364 17.8778 18.8364 16.4545C18.8364 15.027 19.1048 13.8125 19.6418 12.8111C20.1787 11.8097 20.9095 11.0469 21.8343 10.5227C22.759 9.99432 23.803 9.73011 24.9664 9.73011C26.1212 9.73011 27.161 9.99432 28.0857 10.5227C29.0146 11.0469 29.7476 11.8097 30.2845 12.8111C30.8257 13.8125 31.0963 15.027 31.0963 16.4545ZM28.2902 16.4545C28.2902 15.5298 28.1517 14.75 27.8747 14.1151C27.602 13.4801 27.2164 12.9986 26.7178 12.6705C26.2192 12.3423 25.6354 12.1783 24.9664 12.1783C24.2973 12.1783 23.7135 12.3423 23.2149 12.6705C22.7164 12.9986 22.3286 13.4801 22.0516 14.1151C21.7789 14.75 21.6425 15.5298 21.6425 16.4545C21.6425 17.3793 21.7789 18.1591 22.0516 18.794C22.3286 19.429 22.7164 19.9105 23.2149 20.2386C23.7135 20.5668 24.2973 20.7308 24.9664 20.7308C25.6354 20.7308 26.2192 20.5668 26.7178 20.2386C27.2164 19.9105 27.602 19.429 27.8747 18.794C28.1517 18.1591 28.2902 17.3793 28.2902 16.4545ZM33.1466 9.90909H36.5599L40.165 18.7045H40.3184L43.9236 9.90909H47.3369V23H44.6523V14.4794H44.5436L41.1558 22.9361H39.3277L35.9399 14.4474H35.8312V23H33.1466V9.90909ZM49.6173 23V9.90909H58.4383V12.1911H52.385V15.3104H57.9845V17.5923H52.385V20.718H58.4639V23H49.6173Z"/>
</mask>
<path d="M5.63681 23H3.13681V25.5H5.63681V23ZM5.63681 9.90909V7.40909H3.13681V9.90909H5.63681ZM8.40456 9.90909H10.9046V7.40909H8.40456V9.90909ZM8.40456 15.3104H5.90456V17.8104H8.40456V15.3104ZM14.0232 15.3104V17.8104H16.5232V15.3104H14.0232ZM14.0232 9.90909V7.40909H11.5232V9.90909H14.0232ZM16.7845 9.90909H19.2845V7.40909H16.7845V9.90909ZM16.7845 23V25.5H19.2845V23H16.7845ZM14.0232 23H11.5232V25.5H14.0232V23ZM14.0232 17.5923H16.5232V15.0923H14.0232V17.5923ZM8.40456 17.5923V15.0923H5.90456V17.5923H8.40456ZM8.40456 23V25.5H10.9046V23H8.40456ZM8.13681 23V9.90909H3.13681V23H8.13681ZM5.63681 12.4091H8.40456V7.40909H5.63681V12.4091ZM5.90456 9.90909V15.3104H10.9046V9.90909H5.90456ZM8.40456 17.8104H14.0232V12.8104H8.40456V17.8104ZM16.5232 15.3104V9.90909H11.5232V15.3104H16.5232ZM14.0232 12.4091H16.7845V7.40909H14.0232V12.4091ZM14.2845 9.90909V23H19.2845V9.90909H14.2845ZM16.7845 20.5H14.0232V25.5H16.7845V20.5ZM16.5232 23V17.5923H11.5232V23H16.5232ZM14.0232 15.0923H8.40456V20.0923H14.0232V15.0923ZM5.90456 17.5923V23H10.9046V17.5923H5.90456ZM8.40456 20.5H5.63681V25.5H8.40456V20.5ZM30.2845 20.098L28.0852 18.9094L28.0813 18.9167L30.2845 20.098ZM28.0857 22.3928L29.3185 24.5677L29.3217 24.5658L28.0857 22.3928ZM21.8343 22.3864L23.0746 20.2158L21.8343 22.3864ZM19.6418 20.0916L17.4385 21.273L17.4385 21.273L19.6418 20.0916ZM19.6418 12.8111L21.8451 13.9924L21.8451 13.9924L19.6418 12.8111ZM21.8343 10.5227L23.067 12.6977L23.0746 12.6933L21.8343 10.5227ZM28.0857 10.5227L26.8453 12.6934L26.8572 12.7001L28.0857 10.5227ZM30.2845 12.8111L28.0812 13.9924L28.0852 13.9997L30.2845 12.8111ZM27.8747 14.1151L25.5776 15.1017L25.5833 15.1147L27.8747 14.1151ZM26.7178 12.6705L25.3434 14.7588L25.3434 14.7588L26.7178 12.6705ZM23.2149 12.6705L24.5893 14.7588L24.5893 14.7588L23.2149 12.6705ZM22.0516 14.1151L19.7601 13.1154L19.7545 13.1284L22.0516 14.1151ZM22.0516 18.794L19.7545 19.7807L19.7601 19.7937L22.0516 18.794ZM23.2149 20.2386L24.5893 18.1503L24.5893 18.1503L23.2149 20.2386ZM26.7178 20.2386L25.3434 18.1503L25.3434 18.1503L26.7178 20.2386ZM27.8747 18.794L25.5832 17.7944L25.5777 17.8074L27.8747 18.794ZM28.5963 16.4545C28.5963 17.5706 28.3851 18.3545 28.0852 18.9094L32.4839 21.2866C33.2664 19.8387 33.5963 18.1936 33.5963 16.4545H28.5963ZM28.0813 18.9167C27.7522 19.5304 27.343 19.9391 26.8496 20.2197L29.3217 24.5658C30.6863 23.7896 31.743 22.6684 32.4878 21.2793L28.0813 18.9167ZM26.8529 20.2178C26.3362 20.5107 25.7275 20.679 24.9664 20.679V25.679C26.5149 25.679 27.9857 25.3231 29.3185 24.5677L26.8529 20.2178ZM24.9664 20.679C24.1968 20.679 23.5873 20.5087 23.0746 20.2158L20.5939 24.557C21.9307 25.3208 23.4092 25.679 24.9664 25.679V20.679ZM23.0746 20.2158C22.5849 19.9359 22.1757 19.527 21.8451 18.9103L17.4385 21.273C18.1817 22.6591 19.2342 23.78 20.5939 24.557L23.0746 20.2158ZM21.8451 18.9103C21.5461 18.3527 21.3364 17.5678 21.3364 16.4545H16.3364C16.3364 18.1879 16.6636 19.8277 17.4385 21.273L21.8451 18.9103ZM21.3364 16.4545C21.3364 15.3356 21.5466 14.5491 21.8451 13.9924L17.4385 11.6297C16.6631 13.0759 16.3364 14.7184 16.3364 16.4545H21.3364ZM21.8451 13.9924C22.1749 13.3772 22.5818 12.9727 23.067 12.6976L20.6015 8.34781C19.2373 9.12107 18.1825 10.2421 17.4385 11.6297L21.8451 13.9924ZM23.0746 12.6933C23.5873 12.4004 24.1968 12.2301 24.9664 12.2301V7.23011C23.4092 7.23011 21.9307 7.58825 20.5939 8.35212L23.0746 12.6933ZM24.9664 12.2301C25.7239 12.2301 26.3299 12.3988 26.8453 12.6933L29.326 8.35212C27.992 7.58985 26.5185 7.23011 24.9664 7.23011V12.2301ZM26.8572 12.7001C27.3461 12.9759 27.753 13.3802 28.0813 13.9924L32.4878 11.6297C31.7422 10.2391 30.6832 9.11783 29.3142 8.34539L26.8572 12.7001ZM28.0852 13.9997C28.3851 14.5546 28.5963 15.3385 28.5963 16.4545H33.5963C33.5963 14.7155 33.2664 13.0704 32.4839 11.6225L28.0852 13.9997ZM30.7902 16.4545C30.7902 15.295 30.6185 14.1523 30.1662 13.1154L25.5833 15.1147C25.6849 15.3477 25.7902 15.7647 25.7902 16.4545H30.7902ZM30.1718 13.1284C29.7372 12.1166 29.0609 11.2197 28.0921 10.5821L25.3434 14.7588C25.3718 14.7775 25.4668 14.8437 25.5777 15.1017L30.1718 13.1284ZM28.0921 10.5821C27.1373 9.95372 26.0628 9.67827 24.9664 9.67827V14.6783C25.208 14.6783 25.3011 14.7309 25.3434 14.7588L28.0921 10.5821ZM24.9664 9.67827C23.8699 9.67827 22.7954 9.95372 21.8406 10.5821L24.5893 14.7588C24.6316 14.7309 24.7247 14.6783 24.9664 14.6783V9.67827ZM21.8406 10.5821C20.8755 11.2172 20.199 12.1093 19.7601 13.1154L24.343 15.1147C24.4581 14.8509 24.5572 14.7799 24.5893 14.7588L21.8406 10.5821ZM19.7545 13.1284C19.3109 14.1613 19.1425 15.2991 19.1425 16.4545H24.1425C24.1425 15.7606 24.2469 15.3387 24.3486 15.1017L19.7545 13.1284ZM19.1425 16.4545C19.1425 17.61 19.3109 18.7478 19.7545 19.7807L24.3486 17.8074C24.2469 17.5704 24.1425 17.1485 24.1425 16.4545H19.1425ZM19.7601 19.7937C20.199 20.7997 20.8755 21.6919 21.8406 22.327L24.5893 18.1503C24.5572 18.1292 24.4581 18.0582 24.343 17.7944L19.7601 19.7937ZM21.8406 22.327C22.7954 22.9554 23.8699 23.2308 24.9664 23.2308V18.2308C24.7247 18.2308 24.6316 18.1781 24.5893 18.1503L21.8406 22.327ZM24.9664 23.2308C26.0628 23.2308 27.1373 22.9554 28.0921 22.327L25.3434 18.1503C25.3011 18.1781 25.208 18.2308 24.9664 18.2308V23.2308ZM28.0921 22.327C29.0609 21.6894 29.7372 20.7925 30.1718 19.7807L25.5777 17.8074C25.4668 18.0654 25.3718 18.1316 25.3434 18.1503L28.0921 22.327ZM30.1662 19.7937C30.6185 18.7568 30.7902 17.6141 30.7902 16.4545H25.7902C25.7902 17.1444 25.6849 17.5614 25.5833 17.7944L30.1662 19.7937ZM33.1466 9.90909V7.40909H30.6466V9.90909H33.1466ZM36.5599 9.90909L38.8731 8.96094L38.2371 7.40909H36.5599V9.90909ZM40.165 18.7045L37.8518 19.6527L38.4879 21.2045H40.165V18.7045ZM40.3184 18.7045V21.2045H41.9956L42.6317 19.6527L40.3184 18.7045ZM43.9236 9.90909V7.40909H42.2464L41.6103 8.96094L43.9236 9.90909ZM47.3369 9.90909H49.8369V7.40909H47.3369V9.90909ZM47.3369 23V25.5H49.8369V23H47.3369ZM44.6523 23H42.1523V25.5H44.6523V23ZM44.6523 14.4794H47.1523V11.9794H44.6523V14.4794ZM44.5436 14.4794V11.9794H42.852L42.2229 13.5497L44.5436 14.4794ZM41.1558 22.9361V25.4361H42.8474L43.4765 23.8658L41.1558 22.9361ZM39.3277 22.9361L37.0058 23.8627L37.6337 25.4361H39.3277V22.9361ZM35.9399 14.4474L38.2618 13.5208L37.6339 11.9474H35.9399V14.4474ZM35.8312 14.4474V11.9474H33.3312V14.4474H35.8312ZM35.8312 23V25.5H38.3312V23H35.8312ZM33.1466 23H30.6466V25.5H33.1466V23ZM33.1466 12.4091H36.5599V7.40909H33.1466V12.4091ZM34.2467 10.8572L37.8518 19.6527L42.4783 17.7564L38.8731 8.96094L34.2467 10.8572ZM40.165 21.2045H40.3184V16.2045H40.165V21.2045ZM42.6317 19.6527L46.2368 10.8572L41.6103 8.96094L38.0052 17.7564L42.6317 19.6527ZM43.9236 12.4091H47.3369V7.40909H43.9236V12.4091ZM44.8369 9.90909V23H49.8369V9.90909H44.8369ZM47.3369 20.5H44.6523V25.5H47.3369V20.5ZM47.1523 23V14.4794H42.1523V23H47.1523ZM44.6523 11.9794H44.5436V16.9794H44.6523V11.9794ZM42.2229 13.5497L38.8351 22.0064L43.4765 23.8658L46.8643 15.4091L42.2229 13.5497ZM41.1558 20.4361H39.3277V25.4361H41.1558V20.4361ZM41.6496 22.0094L38.2618 13.5208L33.618 15.3741L37.0058 23.8627L41.6496 22.0094ZM35.9399 11.9474H35.8312V16.9474H35.9399V11.9474ZM33.3312 14.4474V23H38.3312V14.4474H33.3312ZM35.8312 20.5H33.1466V25.5H35.8312V20.5ZM35.6466 23V9.90909H30.6466V23H35.6466ZM49.6173 23H47.1173V25.5H49.6173V23ZM49.6173 9.90909V7.40909H47.1173V9.90909H49.6173ZM58.4383 9.90909H60.9383V7.40909H58.4383V9.90909ZM58.4383 12.1911V14.6911H60.9383V12.1911H58.4383ZM52.385 12.1911V9.69105H49.885V12.1911H52.385ZM52.385 15.3104H49.885V17.8104H52.385V15.3104ZM57.9845 15.3104H60.4845V12.8104H57.9845V15.3104ZM57.9845 17.5923V20.0923H60.4845V17.5923H57.9845ZM52.385 17.5923V15.0923H49.885V17.5923H52.385ZM52.385 20.718H49.885V23.218H52.385V20.718ZM58.4639 20.718H60.9639V18.218H58.4639V20.718ZM58.4639 23V25.5H60.9639V23H58.4639ZM52.1173 23V9.90909H47.1173V23H52.1173ZM49.6173 12.4091H58.4383V7.40909H49.6173V12.4091ZM55.9383 9.90909V12.1911H60.9383V9.90909H55.9383ZM58.4383 9.69105H52.385V14.6911H58.4383V9.69105ZM49.885 12.1911V15.3104H54.885V12.1911H49.885ZM52.385 17.8104H57.9845V12.8104H52.385V17.8104ZM55.4845 15.3104V17.5923H60.4845V15.3104H55.4845ZM57.9845 15.0923H52.385V20.0923H57.9845V15.0923ZM49.885 17.5923V20.718H54.885V17.5923H49.885ZM52.385 23.218H58.4639V18.218H52.385V23.218ZM55.9639 20.718V23H60.9639V20.718H55.9639ZM58.4639 20.5H49.6173V25.5H58.4639V20.5Z" fill="white" mask="url(#path-2-inside-1_202_8)"/>
</g>
<defs>
<clipPath id="clip0_202_8">
<rect width="65" height="32" fill="white"/>
</clipPath>
</defs>
</svg>
