<svg width="65" height="32" viewBox="0 0 65 32" fill="none" xmlns="http://www.w3.org/2000/svg">
<g clip-path="url(#clip0_1_1835)">
<rect width="65" height="32" rx="8" fill="black"/>
<mask id="path-2-inside-1_1_1835" fill="white">
<path d="M14.3282 13.674C14.2771 13.1584 14.0576 12.7578 13.6698 12.4723C13.282 12.1868 12.7558 12.044 12.091 12.044C11.6393 12.044 11.2579 12.108 10.9468 12.2358C10.6357 12.3594 10.3971 12.532 10.2309 12.7536C10.069 12.9751 9.98802 13.2266 9.98802 13.5078C9.97949 13.7422 10.0285 13.9467 10.135 14.1214C10.2458 14.2962 10.3971 14.4474 10.5889 14.5753C10.7806 14.6989 11.0022 14.8075 11.2536 14.9013C11.5051 14.9908 11.7735 15.0675 12.059 15.1314L13.2352 15.4126C13.8062 15.5405 14.3303 15.7109 14.8076 15.924C15.2849 16.1371 15.6982 16.3991 16.0477 16.7102C16.3971 17.0213 16.6677 17.3878 16.8595 17.8097C17.0555 18.2315 17.1556 18.7152 17.1599 19.2607C17.1556 20.0618 16.9511 20.7564 16.5463 21.3445C16.1457 21.9283 15.5661 22.3821 14.8076 22.706C14.0534 23.0256 13.1436 23.1854 12.0782 23.1854C11.0214 23.1854 10.1009 23.0234 9.31685 22.6996C8.53702 22.3757 7.92765 21.8963 7.48873 21.2614C7.05407 20.6222 6.82608 19.8317 6.80478 18.8899H9.48304C9.51287 19.3288 9.63858 19.6953 9.86017 19.9893C10.086 20.2791 10.3865 20.4986 10.7615 20.6477C11.1407 20.7926 11.569 20.8651 12.0463 20.8651C12.515 20.8651 12.922 20.7969 13.2671 20.6605C13.6166 20.5241 13.8872 20.3345 14.0789 20.0916C14.2707 19.8487 14.3666 19.5696 14.3666 19.2543C14.3666 18.9602 14.2792 18.7131 14.1045 18.5128C13.934 18.3125 13.6826 18.142 13.3502 18.0014C13.0221 17.8608 12.6194 17.733 12.1421 17.6179L10.7167 17.2599C9.61301 16.9915 8.74157 16.5717 8.10236 16.0007C7.46316 15.4297 7.14569 14.6605 7.14995 13.6932C7.14569 12.9006 7.35662 12.2081 7.78276 11.6158C8.21316 11.0234 8.80336 10.5611 9.55336 10.2287C10.3034 9.89631 11.1556 9.73011 12.1102 9.73011C13.0818 9.73011 13.9298 9.89631 14.6542 10.2287C15.3829 10.5611 15.9497 11.0234 16.3545 11.6158C16.7593 12.2081 16.9681 12.8942 16.9809 13.674H14.3282ZM19.0216 23V9.90909H21.7893V15.3104H27.4079V9.90909H30.1693V23H27.4079V17.5923H21.7893V23H19.0216ZM35.219 9.90909V23H32.4513V9.90909H35.219ZM37.4962 23V9.90909H46.1638V12.1911H40.2639V15.3104H45.5885V17.5923H40.2639V23H37.4962ZM47.5269 12.1911V9.90909H58.2783V12.1911H54.2705V23H51.5347V12.1911H47.5269Z"/>
</mask>
<path d="M14.3282 13.674L11.8404 13.9207L12.0639 16.174H14.3282V13.674ZM10.9468 12.2358L11.8698 14.5592L11.8835 14.5537L11.8971 14.5481L10.9468 12.2358ZM10.2309 12.7536L8.23091 11.2535L8.2216 11.266L8.21243 11.2785L10.2309 12.7536ZM9.98802 13.5078L12.4864 13.5987L12.488 13.5533V13.5078H9.98802ZM10.135 14.1214L8.00054 15.423L8.01199 15.4417L8.02376 15.4603L10.135 14.1214ZM10.5889 14.5753L9.20212 16.6554L9.21828 16.6662L9.23462 16.6767L10.5889 14.5753ZM11.2536 14.9013L10.3802 17.2437L10.3977 17.2503L10.4153 17.2565L11.2536 14.9013ZM12.059 15.1314L12.6405 12.6999L12.6229 12.6957L12.6052 12.6918L12.059 15.1314ZM13.2352 15.4126L12.6537 17.8441L12.6713 17.8483L12.689 17.8522L13.2352 15.4126ZM14.8076 15.924L13.7885 18.2069H13.7885L14.8076 15.924ZM16.0477 16.7102L17.71 14.843L17.71 14.843L16.0477 16.7102ZM16.8595 17.8097L14.5835 18.8442L14.5879 18.8537L14.5923 18.8631L16.8595 17.8097ZM17.1599 19.2607L19.6599 19.2739L19.6599 19.2575L19.6598 19.2411L17.1599 19.2607ZM16.5463 21.3445L14.487 19.9269L14.4848 19.9301L16.5463 21.3445ZM14.8076 22.706L15.783 25.0079L15.7893 25.0052L14.8076 22.706ZM9.31685 22.6996L8.358 25.0084L8.36245 25.0102L9.31685 22.6996ZM7.48873 21.2614L5.42141 22.6671L5.4268 22.6751L5.43225 22.683L7.48873 21.2614ZM6.80478 18.8899V16.3899H4.24758L4.30542 18.9465L6.80478 18.8899ZM9.48304 18.8899L11.9773 18.7204L11.8189 16.3899H9.48304V18.8899ZM9.86017 19.9893L7.86365 21.494L7.87587 21.5102L7.88836 21.5262L9.86017 19.9893ZM10.7615 20.6477L9.83753 22.9707L9.85336 22.977L9.86928 22.9831L10.7615 20.6477ZM13.2671 20.6605L12.3583 18.3315L12.3486 18.3354L13.2671 20.6605ZM14.0789 20.0916L16.0411 21.6407L16.0411 21.6407L14.0789 20.0916ZM14.1045 18.5128L12.2006 20.1331L12.2105 20.1447L12.2206 20.1562L14.1045 18.5128ZM13.3502 18.0014L12.3654 20.2993L12.3761 20.3038L13.3502 18.0014ZM12.1421 17.6179L11.5332 20.0426L11.5447 20.0455L11.5562 20.0483L12.1421 17.6179ZM10.7167 17.2599L11.3256 14.8352L11.3166 14.833L11.3076 14.8308L10.7167 17.2599ZM8.10236 16.0007L6.43683 17.8651H6.43683L8.10236 16.0007ZM7.14995 13.6932L9.64992 13.7042L9.64998 13.692L9.64991 13.6797L7.14995 13.6932ZM7.78276 11.6158L5.76027 10.1462L5.75337 10.1558L7.78276 11.6158ZM14.6542 10.2287L13.6116 12.5009L13.6167 12.5032L14.6542 10.2287ZM16.3545 11.6158L14.2905 13.0264L14.2905 13.0264L16.3545 11.6158ZM16.9809 13.674V16.174H19.5222L19.4806 13.633L16.9809 13.674ZM16.816 13.4273C16.701 12.2672 16.1571 11.199 15.1521 10.4591L12.1876 14.4855C12.1047 14.4245 12.0073 14.3242 11.9328 14.1881C11.8605 14.0562 11.8436 13.9529 11.8404 13.9207L16.816 13.4273ZM15.1521 10.4591C14.1985 9.75703 13.0905 9.54403 12.091 9.54403V14.544C12.2487 14.544 12.3206 14.5614 12.3298 14.5639C12.3339 14.565 12.2733 14.5486 12.1876 14.4855L15.1521 10.4591ZM12.091 9.54403C11.4187 9.54403 10.6933 9.63711 9.99654 9.92345L11.8971 14.5481C11.8565 14.5648 11.8461 14.5632 11.8794 14.5576C11.9131 14.5519 11.9812 14.544 12.091 14.544V9.54403ZM10.0238 9.91242C9.37434 10.1704 8.72604 10.5934 8.23091 11.2535L12.2309 14.2536C12.0682 14.4705 11.8971 14.5483 11.8698 14.5592L10.0238 9.91242ZM8.21243 11.2785C7.7294 11.9395 7.48802 12.7103 7.48802 13.5078H12.488C12.488 13.6104 12.4727 13.7371 12.4284 13.8746C12.3839 14.0128 12.3197 14.1324 12.2494 14.2286L8.21243 11.2785ZM7.48967 13.417C7.46601 14.0675 7.60307 14.7711 8.00054 15.423L12.2695 12.8199C12.4539 13.1224 12.493 13.4169 12.4864 13.5987L7.48967 13.417ZM8.02376 15.4603C8.34191 15.962 8.75298 16.356 9.20212 16.6554L11.9756 12.4952C12.0412 12.5389 12.1497 12.6303 12.2463 12.7826L8.02376 15.4603ZM9.23462 16.6767C9.6012 16.913 9.98893 17.0978 10.3802 17.2437L12.1271 12.5588C12.0155 12.5172 11.9601 12.4848 11.9431 12.4739L9.23462 16.6767ZM10.4153 17.2565C10.7709 17.3831 11.1377 17.487 11.5129 17.571L12.6052 12.6918C12.4094 12.6479 12.2392 12.5984 12.092 12.546L10.4153 17.2565ZM11.4776 17.5628L12.6537 17.8441L13.8166 12.9812L12.6405 12.6999L11.4776 17.5628ZM12.689 17.8522C13.1165 17.948 13.48 18.0692 13.7885 18.2069L15.8267 13.6412C15.1806 13.3527 14.4959 13.133 13.7814 12.973L12.689 17.8522ZM13.7885 18.2069C14.0585 18.3274 14.2487 18.4559 14.3854 18.5775L17.71 14.843C17.1478 14.3424 16.5113 13.9468 15.8267 13.6412L13.7885 18.2069ZM14.3854 18.5775C14.477 18.6591 14.5374 18.7427 14.5835 18.8442L19.1354 16.7752C18.798 16.0328 18.3172 15.3835 17.71 14.843L14.3854 18.5775ZM14.5923 18.8631C14.6139 18.9098 14.658 19.031 14.66 19.2802L19.6598 19.2411C19.6532 18.3994 19.497 17.5533 19.1267 16.7562L14.5923 18.8631ZM14.6599 19.2474C14.658 19.6104 14.5733 19.8015 14.487 19.9269L18.6055 22.762C19.3289 21.7113 19.6533 20.5132 19.6599 19.2739L14.6599 19.2474ZM14.4848 19.9301C14.3947 20.0614 14.2212 20.238 13.8259 20.4068L15.7893 25.0052C16.9111 24.5262 17.8967 23.7951 18.6077 22.7589L14.4848 19.9301ZM13.8322 20.4041C13.4642 20.56 12.9045 20.6854 12.0782 20.6854V25.6854C13.3826 25.6854 14.6425 25.4911 15.783 25.0078L13.8322 20.4041ZM12.0782 20.6854C11.2711 20.6854 10.6882 20.5612 10.2713 20.3889L8.36245 25.0102C9.51365 25.4857 10.7717 25.6854 12.0782 25.6854V20.6854ZM10.2757 20.3908C9.89605 20.2331 9.68555 20.0428 9.5452 19.8398L5.43225 22.683C6.16974 23.7498 7.17799 24.5183 8.358 25.0084L10.2757 20.3908ZM9.55604 19.8556C9.44656 19.6946 9.31694 19.3993 9.30414 18.8334L4.30542 18.9465C4.33523 20.2641 4.66157 21.5497 5.42141 22.6671L9.55604 19.8556ZM6.80478 21.3899H9.48304V16.3899H6.80478V21.3899ZM6.9888 19.0594C7.04501 19.8866 7.29738 20.7426 7.86365 21.494L11.8567 18.4847C11.9125 18.5588 11.9463 18.63 11.9644 18.6828C11.9815 18.7326 11.9793 18.7502 11.9773 18.7204L6.9888 19.0594ZM7.88836 21.5262C8.41383 22.2004 9.09141 22.674 9.83753 22.9707L11.6854 18.3247C11.6771 18.3214 11.696 18.328 11.7296 18.3525C11.7642 18.3778 11.8005 18.4121 11.832 18.4525L7.88836 21.5262ZM9.86928 22.9831C10.5786 23.2541 11.3165 23.3651 12.0463 23.3651V18.3651C11.8214 18.3651 11.7028 18.3311 11.6536 18.3123L9.86928 22.9831ZM12.0463 23.3651C12.75 23.3651 13.4823 23.2635 14.1857 22.9856L12.3486 18.3354C12.3616 18.3302 12.28 18.3651 12.0463 18.3651V23.3651ZM14.176 22.9895C14.8519 22.7257 15.5208 22.2998 16.0411 21.6407L12.1167 18.5425C12.2535 18.3692 12.3813 18.3226 12.3583 18.3316L14.176 22.9895ZM16.0411 21.6407C16.5883 20.9476 16.8666 20.1202 16.8666 19.2543H11.8666C11.8666 19.1546 11.8825 19.0271 11.9303 18.8879C11.9783 18.7482 12.0465 18.6314 12.1167 18.5425L16.0411 21.6407ZM16.8666 19.2543C16.8666 18.425 16.6035 17.5745 15.9884 16.8694L12.2206 20.1562C12.1034 20.0219 12.0069 19.8596 11.9439 19.6815C11.8823 19.507 11.8666 19.3568 11.8666 19.2543H16.8666ZM16.0083 16.8925C15.5093 16.3061 14.8891 15.9379 14.3243 15.699L12.3761 20.3038C12.4193 20.3221 12.4168 20.3255 12.3852 20.304C12.3526 20.2819 12.2819 20.2286 12.2006 20.1331L16.0083 16.8925ZM14.335 15.7036C13.8402 15.4915 13.295 15.3242 12.728 15.1875L11.5562 20.0483C11.9438 20.1417 12.2041 20.2301 12.3654 20.2993L14.335 15.7036ZM12.751 15.1932L11.3256 14.8352L10.1078 19.6847L11.5332 20.0426L12.751 15.1932ZM11.3076 14.8308C10.4781 14.629 10.0173 14.3591 9.76789 14.1363L6.43683 17.8651C7.46579 18.7843 8.74794 19.3539 10.1258 19.6891L11.3076 14.8308ZM9.7679 14.1363C9.72058 14.094 9.70635 14.0674 9.69575 14.0418C9.68209 14.0087 9.64902 13.9101 9.64992 13.7042L4.64997 13.6822C4.64301 15.2629 5.19194 16.753 6.43683 17.8651L9.7679 14.1363ZM9.64991 13.6797C9.64823 13.3676 9.72164 13.2016 9.81215 13.0758L5.75337 10.1558C4.9916 11.2146 4.64314 12.4336 4.64998 13.7066L9.64991 13.6797ZM9.80523 13.0853C9.94674 12.8906 10.1692 12.6903 10.5663 12.5143L8.54042 7.94309C7.43747 8.4319 6.47957 9.1563 5.76029 10.1462L9.80523 13.0853ZM10.5663 12.5143C10.9493 12.3445 11.448 12.2301 12.1102 12.2301V7.23011C10.8633 7.23011 9.65736 7.44809 8.54042 7.94309L10.5663 12.5143ZM12.1102 12.2301C12.7991 12.2301 13.2778 12.3478 13.6117 12.5009L15.6968 7.95645C14.5817 7.44484 13.3645 7.23011 12.1102 7.23011V12.2301ZM13.6167 12.5032C13.9804 12.6692 14.1718 12.8527 14.2905 13.0264L18.4185 10.2051C17.7275 9.19414 16.7854 8.453 15.6917 7.95415L13.6167 12.5032ZM14.2905 13.0264C14.3951 13.1794 14.4758 13.38 14.4812 13.715L19.4806 13.633C19.4605 12.4083 19.1236 11.2367 18.4185 10.2051L14.2905 13.0264ZM16.9809 11.174H14.3282V16.174H16.9809V11.174ZM19.0216 23H16.5216V25.5H19.0216V23ZM19.0216 9.90909V7.40909H16.5216V9.90909H19.0216ZM21.7893 9.90909H24.2893V7.40909H21.7893V9.90909ZM21.7893 15.3104H19.2893V17.8104H21.7893V15.3104ZM27.4079 15.3104V17.8104H29.9079V15.3104H27.4079ZM27.4079 9.90909V7.40909H24.9079V9.90909H27.4079ZM30.1693 9.90909H32.6693V7.40909H30.1693V9.90909ZM30.1693 23V25.5H32.6693V23H30.1693ZM27.4079 23H24.9079V25.5H27.4079V23ZM27.4079 17.5923H29.9079V15.0923H27.4079V17.5923ZM21.7893 17.5923V15.0923H19.2893V17.5923H21.7893ZM21.7893 23V25.5H24.2893V23H21.7893ZM21.5216 23V9.90909H16.5216V23H21.5216ZM19.0216 12.4091H21.7893V7.40909H19.0216V12.4091ZM19.2893 9.90909V15.3104H24.2893V9.90909H19.2893ZM21.7893 17.8104H27.4079V12.8104H21.7893V17.8104ZM29.9079 15.3104V9.90909H24.9079V15.3104H29.9079ZM27.4079 12.4091H30.1693V7.40909H27.4079V12.4091ZM27.6693 9.90909V23H32.6693V9.90909H27.6693ZM30.1693 20.5H27.4079V25.5H30.1693V20.5ZM29.9079 23V17.5923H24.9079V23H29.9079ZM27.4079 15.0923H21.7893V20.0923H27.4079V15.0923ZM19.2893 17.5923V23H24.2893V17.5923H19.2893ZM21.7893 20.5H19.0216V25.5H21.7893V20.5ZM35.219 9.90909H37.719V7.40909H35.219V9.90909ZM35.219 23V25.5H37.719V23H35.219ZM32.4513 23H29.9513V25.5H32.4513V23ZM32.4513 9.90909V7.40909H29.9513V9.90909H32.4513ZM32.719 9.90909V23H37.719V9.90909H32.719ZM35.219 20.5H32.4513V25.5H35.219V20.5ZM34.9513 23V9.90909H29.9513V23H34.9513ZM32.4513 12.4091H35.219V7.40909H32.4513V12.4091ZM37.4962 23H34.9962V25.5H37.4962V23ZM37.4962 9.90909V7.40909H34.9962V9.90909H37.4962ZM46.1638 9.90909H48.6638V7.40909H46.1638V9.90909ZM46.1638 12.1911V14.6911H48.6638V12.1911H46.1638ZM40.2639 12.1911V9.69105H37.7639V12.1911H40.2639ZM40.2639 15.3104H37.7639V17.8104H40.2639V15.3104ZM45.5885 15.3104H48.0885V12.8104H45.5885V15.3104ZM45.5885 17.5923V20.0923H48.0885V17.5923H45.5885ZM40.2639 17.5923V15.0923H37.7639V17.5923H40.2639ZM40.2639 23V25.5H42.7639V23H40.2639ZM39.9962 23V9.90909H34.9962V23H39.9962ZM37.4962 12.4091H46.1638V7.40909H37.4962V12.4091ZM43.6638 9.90909V12.1911H48.6638V9.90909H43.6638ZM46.1638 9.69105H40.2639V14.6911H46.1638V9.69105ZM37.7639 12.1911V15.3104H42.7639V12.1911H37.7639ZM40.2639 17.8104H45.5885V12.8104H40.2639V17.8104ZM43.0885 15.3104V17.5923H48.0885V15.3104H43.0885ZM45.5885 15.0923H40.2639V20.0923H45.5885V15.0923ZM37.7639 17.5923V23H42.7639V17.5923H37.7639ZM40.2639 20.5H37.4962V25.5H40.2639V20.5ZM47.5269 12.1911H45.0269V14.6911H47.5269V12.1911ZM47.5269 9.90909V7.40909H45.0269V9.90909H47.5269ZM58.2783 9.90909H60.7783V7.40909H58.2783V9.90909ZM58.2783 12.1911V14.6911H60.7783V12.1911H58.2783ZM54.2705 12.1911V9.69105H51.7705V12.1911H54.2705ZM54.2705 23V25.5H56.7705V23H54.2705ZM51.5347 23H49.0347V25.5H51.5347V23ZM51.5347 12.1911H54.0347V9.69105H51.5347V12.1911ZM50.0269 12.1911V9.90909H45.0269V12.1911H50.0269ZM47.5269 12.4091H58.2783V7.40909H47.5269V12.4091ZM55.7783 9.90909V12.1911H60.7783V9.90909H55.7783ZM58.2783 9.69105H54.2705V14.6911H58.2783V9.69105ZM51.7705 12.1911V23H56.7705V12.1911H51.7705ZM54.2705 20.5H51.5347V25.5H54.2705V20.5ZM54.0347 23V12.1911H49.0347V23H54.0347ZM51.5347 9.69105H47.5269V14.6911H51.5347V9.69105Z" fill="white" mask="url(#path-2-inside-1_1_1835)"/>
</g>
<defs>
<clipPath id="clip0_1_1835">
<rect width="65" height="32" fill="white"/>
</clipPath>
</defs>
</svg>
