<svg width="72" height="32" viewBox="0 0 72 32" fill="none" xmlns="http://www.w3.org/2000/svg">
<g clip-path="url(#clip0_202_79)">
<rect width="72" height="32" rx="8" fill="black"/>
<mask id="path-2-inside-1_202_79" fill="white">
<path d="M27.4243 9.90909V23H25.0336L19.3383 14.7607H19.2425V23H16.4747V9.90909H18.9037L24.5542 18.142H24.6693V9.90909H27.4243ZM29.711 23V9.90909H34.8758C35.8687 9.90909 36.7146 10.0987 37.4134 10.478C38.1123 10.853 38.645 11.375 39.0115 12.044C39.3822 12.7088 39.5676 13.4759 39.5676 14.3452C39.5676 15.2145 39.3801 15.9815 39.0051 16.6463C38.6301 17.3111 38.0867 17.8288 37.3751 18.1996C36.6677 18.5703 35.8112 18.7557 34.8055 18.7557H31.5136V16.5376H34.358C34.8907 16.5376 35.3296 16.446 35.6748 16.2628C36.0242 16.0753 36.2842 15.8175 36.4546 15.4893C36.6294 15.157 36.7167 14.7756 36.7167 14.3452C36.7167 13.9105 36.6294 13.5312 36.4546 13.2074C36.2842 12.8793 36.0242 12.6257 35.6748 12.4467C35.3254 12.2635 34.8822 12.1719 34.3453 12.1719H32.4788V23H29.711ZM50.3637 9.73011C51.037 9.73011 51.6847 9.84304 52.3069 10.0689C52.9333 10.2947 53.4916 10.6548 53.9816 11.1491C54.4759 11.6435 54.8659 12.2997 55.1514 13.1179C55.4411 13.9318 55.5882 14.9311 55.5924 16.1158C55.5924 17.228 55.4667 18.2209 55.2153 19.0945C54.9681 19.9638 54.6123 20.7031 54.1478 21.3125C53.6833 21.9219 53.123 22.3864 52.4667 22.706C51.8105 23.0213 51.0775 23.179 50.2678 23.179C49.3943 23.179 48.623 23.0107 47.9539 22.674C47.2849 22.3331 46.7458 21.8707 46.3367 21.2869C45.9319 20.6989 45.6869 20.0384 45.6017 19.3054H48.3311C48.4376 19.7827 48.6613 20.1534 49.0022 20.4176C49.3431 20.6776 49.765 20.8075 50.2678 20.8075C51.1201 20.8075 51.7678 20.4368 52.211 19.6953C52.6542 18.9496 52.8779 17.929 52.8822 16.6335H52.7927C52.5967 17.017 52.3325 17.3473 52.0001 17.6243C51.6677 17.897 51.2863 18.108 50.8559 18.2571C50.4298 18.4062 49.9759 18.4808 49.4944 18.4808C48.7231 18.4808 48.0349 18.2997 47.4298 17.9375C46.8247 17.5753 46.3474 17.0767 45.998 16.4418C45.6485 15.8068 45.4738 15.0824 45.4738 14.2685C45.4695 13.3906 45.672 12.6087 46.0811 11.9226C46.4901 11.2365 47.0612 10.6996 47.7941 10.3118C48.5313 9.91974 49.3879 9.72585 50.3637 9.73011ZM50.3829 11.9034C49.9525 11.9034 49.569 12.0057 49.2323 12.2102C48.8999 12.4148 48.6357 12.6896 48.4397 13.0348C48.248 13.38 48.1542 13.7656 48.1585 14.1918C48.1585 14.6222 48.2522 15.0099 48.4397 15.3551C48.6315 15.696 48.8914 15.9687 49.2195 16.1733C49.5519 16.3736 49.9312 16.4737 50.3573 16.4737C50.6769 16.4737 50.9731 16.4141 51.2458 16.2947C51.5186 16.1754 51.7551 16.0114 51.9553 15.8026C52.1599 15.5895 52.3197 15.3445 52.4347 15.0675C52.5498 14.7905 52.6073 14.4964 52.6073 14.1854C52.6031 13.772 52.5051 13.3928 52.3133 13.0476C52.1215 12.7024 51.8573 12.4254 51.5207 12.2166C51.184 12.0078 50.8048 11.9034 50.3829 11.9034Z"/>
</mask>
<path d="M27.4243 9.90909H29.9243V7.40909H27.4243V9.90909ZM27.4243 23V25.5H29.9243V23H27.4243ZM25.0336 23L22.9771 24.4215L23.7226 25.5H25.0336V23ZM19.3383 14.7607L21.3948 13.3391L20.6494 12.2607H19.3383V14.7607ZM19.2425 14.7607V12.2607H16.7425V14.7607H19.2425ZM19.2425 23V25.5H21.7425V23H19.2425ZM16.4747 23H13.9747V25.5H16.4747V23ZM16.4747 9.90909V7.40909H13.9747V9.90909H16.4747ZM18.9037 9.90909L20.9649 8.4944L20.22 7.40909H18.9037V9.90909ZM24.5542 18.142L22.493 19.5567L23.2379 20.642H24.5542V18.142ZM24.6693 18.142V20.642H27.1693V18.142H24.6693ZM24.6693 9.90909V7.40909H22.1693V9.90909H24.6693ZM24.9243 9.90909V23H29.9243V9.90909H24.9243ZM27.4243 20.5H25.0336V25.5H27.4243V20.5ZM27.0902 21.5785L21.3948 13.3391L17.2818 16.1822L22.9771 24.4215L27.0902 21.5785ZM19.3383 12.2607H19.2425V17.2607H19.3383V12.2607ZM16.7425 14.7607V23H21.7425V14.7607H16.7425ZM19.2425 20.5H16.4747V25.5H19.2425V20.5ZM18.9747 23V9.90909H13.9747V23H18.9747ZM16.4747 12.4091H18.9037V7.40909H16.4747V12.4091ZM16.8425 11.3238L22.493 19.5567L26.6155 16.7274L20.9649 8.4944L16.8425 11.3238ZM24.5542 20.642H24.6693V15.642H24.5542V20.642ZM27.1693 18.142V9.90909H22.1693V18.142H27.1693ZM24.6693 12.4091H27.4243V7.40909H24.6693V12.4091ZM29.711 23H27.211V25.5H29.711V23ZM29.711 9.90909V7.40909H27.211V9.90909H29.711ZM37.4134 10.478L36.221 12.6753L36.2314 12.6809L37.4134 10.478ZM39.0115 12.044L36.8189 13.2451L36.8234 13.2534L36.828 13.2617L39.0115 12.044ZM37.3751 18.1996L36.22 15.9824L36.2146 15.9853L37.3751 18.1996ZM31.5136 18.7557H29.0136V21.2557H31.5136V18.7557ZM31.5136 16.5376V14.0376H29.0136V16.5376H31.5136ZM35.6748 16.2628L36.847 18.4709L36.8568 18.4657L35.6748 16.2628ZM36.4546 15.4893L34.2417 14.3261L34.2361 14.3369L36.4546 15.4893ZM36.4546 13.2074L34.2361 14.3599L34.2451 14.3772L34.2544 14.3944L36.4546 13.2074ZM35.6748 12.4467L34.5138 14.6608L34.5244 14.6664L34.5351 14.6718L35.6748 12.4467ZM32.4788 12.1719V9.67188H29.9788V12.1719H32.4788ZM32.4788 23V25.5H34.9788V23H32.4788ZM32.211 23V9.90909H27.211V23H32.211ZM29.711 12.4091H34.8758V7.40909H29.711V12.4091ZM34.8758 12.4091C35.5541 12.4091 35.9683 12.5382 36.221 12.6753L38.6059 8.28069C37.4608 7.65928 36.1833 7.40909 34.8758 7.40909V12.4091ZM36.2314 12.6809C36.5213 12.8365 36.6946 13.0183 36.8189 13.2451L41.2041 10.843C40.5953 9.73171 39.7033 8.8695 38.5955 8.27508L36.2314 12.6809ZM36.828 13.2617C36.9632 13.5041 37.0676 13.8407 37.0676 14.3452H42.0676C42.0676 13.111 41.8012 11.9135 41.1949 10.8264L36.828 13.2617ZM37.0676 14.3452C37.0676 14.8448 36.9632 15.1776 36.8276 15.418L41.1825 17.8746C41.7969 16.7854 42.0676 15.5842 42.0676 14.3452H37.0676ZM36.8276 15.418C36.703 15.6389 36.5255 15.8233 36.22 15.9824L38.5301 20.4167C39.648 19.8344 40.5571 18.9833 41.1825 17.8746L36.8276 15.418ZM36.2146 15.9853C35.9462 16.1259 35.5094 16.2557 34.8055 16.2557V21.2557C36.1129 21.2557 37.3892 21.0147 38.5356 20.4139L36.2146 15.9853ZM34.8055 16.2557H31.5136V21.2557H34.8055V16.2557ZM34.0136 18.7557V16.5376H29.0136V18.7557H34.0136ZM31.5136 19.0376H34.358V14.0376H31.5136V19.0376ZM34.358 19.0376C35.1581 19.0376 36.0338 18.9027 36.847 18.4709L34.5026 14.0546C34.5661 14.0209 34.598 14.0171 34.5759 14.0217C34.5523 14.0266 34.4837 14.0376 34.358 14.0376V19.0376ZM36.8568 18.4657C37.6158 18.0584 38.2537 17.4493 38.6731 16.6418L34.2361 14.3369C34.2692 14.2733 34.3155 14.2092 34.3714 14.1538C34.4262 14.0994 34.4726 14.0707 34.4928 14.0599L36.8568 18.4657ZM38.6675 16.6525C39.0568 15.9121 39.2167 15.1212 39.2167 14.3452H34.2167C34.2167 14.391 34.2121 14.4054 34.2143 14.3958C34.2154 14.3912 34.2178 14.382 34.2225 14.3692C34.2272 14.3564 34.2335 14.3417 34.2417 14.3262L38.6675 16.6525ZM39.2167 14.3452C39.2167 13.5712 39.0592 12.7698 38.6549 12.0204L34.2544 14.3944C34.2424 14.3722 34.2333 14.3516 34.2267 14.3338C34.2201 14.3161 34.2166 14.3031 34.215 14.2959C34.2117 14.2815 34.2167 14.2951 34.2167 14.3452H39.2167ZM38.6731 12.0549C38.248 11.2366 37.596 10.6219 36.8145 10.2216L34.5351 14.6718C34.5052 14.6565 34.4492 14.6222 34.3862 14.5608C34.3221 14.4983 34.2713 14.4276 34.2361 14.3599L38.6731 12.0549ZM36.8358 10.2327C36.0226 9.80623 35.1476 9.67188 34.3453 9.67188V14.6719C34.4742 14.6719 34.5465 14.6831 34.5742 14.6888C34.6004 14.6942 34.5731 14.6919 34.5138 14.6608L36.8358 10.2327ZM34.3453 9.67188H32.4788V14.6719H34.3453V9.67188ZM29.9788 12.1719V23H34.9788V12.1719H29.9788ZM32.4788 20.5H29.711V25.5H32.4788V20.5ZM50.3637 9.73011L50.3528 12.2301H50.3637V9.73011ZM52.3069 10.0689L51.4538 12.4189L51.459 12.4207L52.3069 10.0689ZM53.9816 11.1491L52.2062 12.9093L52.2139 12.9169L53.9816 11.1491ZM55.1514 13.1179L52.791 13.9416L52.7935 13.949L52.7962 13.9564L55.1514 13.1179ZM55.5924 16.1158L58.0924 16.1158L58.0924 16.1068L55.5924 16.1158ZM55.2153 19.0945L52.8128 18.403L52.8106 18.4108L55.2153 19.0945ZM52.4667 22.706L53.5495 24.9593L53.5613 24.9536L52.4667 22.706ZM47.9539 22.674L46.8189 24.9015L46.8302 24.9072L47.9539 22.674ZM46.3367 21.2869L44.2775 22.7045L44.2834 22.7131L44.2894 22.7216L46.3367 21.2869ZM45.6017 19.3054V16.8054H42.7941L43.1184 19.5941L45.6017 19.3054ZM48.3311 19.3054L50.771 18.7608L50.3345 16.8054H48.3311V19.3054ZM49.0022 20.4176L47.4708 22.3937L47.4786 22.3997L47.4864 22.4056L49.0022 20.4176ZM52.211 19.6953L54.3569 20.9779L54.3602 20.9725L52.211 19.6953ZM52.8822 16.6335L55.3822 16.6417L55.3904 14.1335H52.8822V16.6335ZM52.7927 16.6335V14.1335H51.2629L50.5666 15.4957L52.7927 16.6335ZM52.0001 17.6243L53.5859 19.557L53.5932 19.5509L53.6006 19.5448L52.0001 17.6243ZM50.8559 18.2571L50.0373 15.8949L50.03 15.8975L50.8559 18.2571ZM45.998 16.4418L43.8077 17.6471L43.8077 17.6471L45.998 16.4418ZM45.4738 14.2685L47.9738 14.2685L47.9738 14.2563L45.4738 14.2685ZM47.7941 10.3118L48.9633 12.5216L48.9679 12.5191L47.7941 10.3118ZM49.2323 12.2102L47.9342 10.0737L47.9281 10.0774L47.9221 10.0811L49.2323 12.2102ZM48.4397 13.0348L46.2658 11.8002L46.26 11.8104L46.2543 11.8207L48.4397 13.0348ZM48.1585 14.1918H50.6585V14.1793L50.6583 14.1668L48.1585 14.1918ZM48.4397 15.3551L46.2429 16.5484L46.2517 16.5647L46.2608 16.5808L48.4397 15.3551ZM49.2195 16.1733L47.897 18.2948L47.9131 18.3048L47.9293 18.3146L49.2195 16.1733ZM51.2458 16.2947L52.2479 18.5851L52.2479 18.5851L51.2458 16.2947ZM51.9553 15.8026L50.1519 14.0712L50.1511 14.072L51.9553 15.8026ZM52.4347 15.0675L54.7435 16.0265L54.7435 16.0265L52.4347 15.0675ZM52.6073 14.1854H55.1073V14.1725L55.1072 14.1596L52.6073 14.1854ZM51.5207 12.2166L52.8384 10.0921L52.8384 10.0921L51.5207 12.2166ZM50.3637 12.2301C50.7512 12.2301 51.1099 12.294 51.4538 12.4188L53.16 7.71894C52.2596 7.39209 51.3228 7.23011 50.3637 7.23011V12.2301ZM51.459 12.4207C51.7203 12.5149 51.9654 12.6663 52.2062 12.9092L55.757 9.38905C55.0177 8.64333 54.1464 8.07458 53.1548 7.71708L51.459 12.4207ZM52.2139 12.9169C52.3861 13.0892 52.6004 13.3955 52.791 13.9416L57.5118 12.2942C57.1313 11.2039 56.5658 10.1978 55.7494 9.38138L52.2139 12.9169ZM52.7962 13.9564C52.9632 14.4255 53.0888 15.1253 53.0924 16.1248L58.0924 16.1068C58.0875 14.7369 57.9191 13.4382 57.5066 12.2794L52.7962 13.9564ZM53.0924 16.1158C53.0924 17.0442 52.987 17.7978 52.8128 18.403L57.6178 19.7859C57.9464 18.644 58.0924 17.4118 58.0924 16.1158H53.0924ZM52.8106 18.4108C52.6339 19.0322 52.4037 19.4767 52.1596 19.797L56.1361 22.828C56.821 21.9295 57.3023 20.8954 57.62 19.7781L52.8106 18.4108ZM52.1596 19.797C51.9196 20.1118 51.6599 20.3182 51.3721 20.4583L53.5613 24.9536C54.5861 24.4545 55.4471 23.732 56.1361 22.828L52.1596 19.797ZM51.3839 20.4526C51.1018 20.5882 50.7451 20.679 50.2678 20.679V25.679C51.41 25.679 52.5191 25.4544 53.5495 24.9593L51.3839 20.4526ZM50.2678 20.679C49.7197 20.679 49.3444 20.575 49.0776 20.4408L46.8302 24.9072C47.9015 25.4463 49.0689 25.679 50.2678 25.679V20.679ZM49.089 20.4465C48.7642 20.2811 48.5459 20.0832 48.3841 19.8523L44.2894 22.7216C44.9457 23.6583 45.8055 24.3851 46.8189 24.9015L49.089 20.4465ZM48.396 19.8693C48.2304 19.6288 48.1247 19.3585 48.0849 19.0166L43.1184 19.5941C43.2491 20.7182 43.6334 21.7689 44.2775 22.7045L48.396 19.8693ZM45.6017 21.8054H48.3311V16.8054H45.6017V21.8054ZM45.8911 19.85C46.1065 20.8151 46.6083 21.7252 47.4708 22.3937L50.5336 18.4416C50.6076 18.4989 50.6726 18.5725 50.7192 18.6497C50.7636 18.7234 50.773 18.7695 50.771 18.7608L45.8911 19.85ZM47.4864 22.4056C48.335 23.0527 49.3156 23.3075 50.2678 23.3075V18.3075C50.2319 18.3075 50.2523 18.303 50.3104 18.3209C50.3725 18.34 50.4473 18.3756 50.5181 18.4296L47.4864 22.4056ZM50.2678 23.3075C52.0144 23.3075 53.47 22.4619 54.3569 20.9779L50.0651 18.4127C50.0449 18.4465 50.0393 18.4478 50.0555 18.4313C50.0729 18.4135 50.105 18.3861 50.151 18.3597C50.1971 18.3333 50.2394 18.3183 50.2688 18.311C50.2966 18.3042 50.2993 18.3075 50.2678 18.3075V23.3075ZM54.3602 20.9725C55.1174 19.6984 55.3771 18.1792 55.3822 16.6417L50.3822 16.6253C50.3787 17.6788 50.1911 18.2008 50.0619 18.4181L54.3602 20.9725ZM52.8822 14.1335H52.7927V19.1335H52.8822V14.1335ZM50.5666 15.4957C50.5249 15.5774 50.474 15.6418 50.3996 15.7037L53.6006 19.5448C54.191 19.0528 54.6685 18.4567 55.0188 17.7713L50.5666 15.4957ZM50.4143 15.6916C50.3236 15.7661 50.2054 15.8367 50.0373 15.8949L51.6745 20.6193C52.3673 20.3792 53.0118 20.028 53.5859 19.557L50.4143 15.6916ZM50.03 15.8975C49.8865 15.9477 49.7135 15.9808 49.4944 15.9808V20.9808C50.2384 20.9808 50.973 20.8648 51.6818 20.6167L50.03 15.8975ZM49.4944 15.9808C49.1316 15.9808 48.895 15.9009 48.7138 15.7924L46.1458 20.0826C47.1748 20.6985 48.3146 20.9808 49.4944 20.9808V15.9808ZM48.7138 15.7924C48.4995 15.6642 48.3303 15.4946 48.1882 15.2364L43.8077 17.6471C44.3645 18.6588 45.1498 19.4864 46.1458 20.0826L48.7138 15.7924ZM48.1882 15.2364C48.066 15.0143 47.9738 14.7137 47.9738 14.2685H42.9738C42.9738 15.4511 43.2311 16.5993 43.8077 17.6471L48.1882 15.2364ZM47.9738 14.2563C47.9715 13.7869 48.0749 13.4602 48.2283 13.2029L43.9338 10.6422C43.269 11.7571 42.9676 12.9943 42.9738 14.2806L47.9738 14.2563ZM48.2283 13.2029C48.3935 12.9259 48.6192 12.7036 48.9633 12.5216L46.625 8.10201C45.5032 8.69554 44.5868 9.54712 43.9338 10.6422L48.2283 13.2029ZM48.9679 12.5191C49.2834 12.3513 49.7201 12.2273 50.3528 12.2301L50.3746 7.23014C49.0557 7.22438 47.7793 7.48815 46.6203 8.1045L48.9679 12.5191ZM50.3829 9.40341C49.5385 9.40341 48.6979 9.60963 47.9342 10.0737L50.5305 14.3468C50.4937 14.3691 50.4533 14.3859 50.4166 14.3957C50.3814 14.4051 50.367 14.4034 50.3829 14.4034V9.40341ZM47.9221 10.0811C47.2247 10.5102 46.6661 11.0954 46.2658 11.8002L50.6136 14.2694C50.6138 14.2691 50.6117 14.2727 50.6069 14.2792C50.6021 14.2857 50.5955 14.2936 50.5872 14.3023C50.5693 14.3209 50.5522 14.3334 50.5426 14.3394L47.9221 10.0811ZM46.2543 11.8207C45.8356 12.5745 45.6504 13.3927 45.6586 14.2168L50.6583 14.1668C50.6581 14.1458 50.6604 14.1506 50.6548 14.1735C50.649 14.1973 50.6387 14.2245 50.6251 14.2489L46.2543 11.8207ZM45.6585 14.1918C45.6585 14.9982 45.8378 15.8027 46.2429 16.5484L50.6365 14.1618C50.6418 14.1715 50.6467 14.182 50.6507 14.1926C50.6548 14.2032 50.6573 14.2119 50.6588 14.2179C50.6619 14.2309 50.6585 14.2245 50.6585 14.1918H45.6585ZM46.2608 16.5808C46.6558 17.283 47.2085 17.8656 47.897 18.2948L50.5421 14.0518C50.5517 14.0578 50.5693 14.0707 50.5882 14.0905C50.6069 14.1102 50.6166 14.1257 50.6187 14.1295L46.2608 16.5808ZM47.9293 18.3146C48.6887 18.7722 49.5225 18.9737 50.3573 18.9737V13.9737C50.3413 13.9737 50.3558 13.972 50.3915 13.9815C50.4287 13.9913 50.4706 14.0084 50.5098 14.032L47.9293 18.3146ZM50.3573 18.9737C50.9961 18.9737 51.6364 18.8527 52.2479 18.5851L50.2438 14.0044C50.2731 13.9915 50.3015 13.983 50.3255 13.9782C50.349 13.9735 50.3609 13.9737 50.3573 13.9737V18.9737ZM52.2479 18.5851C52.8133 18.3377 53.3247 17.9865 53.7595 17.5331L50.1511 14.072C50.1657 14.0568 50.1835 14.0415 50.2028 14.0281C50.222 14.0147 50.2369 14.0073 50.2438 14.0044L52.2479 18.5851ZM53.7588 17.5339C54.1816 17.0935 54.5113 16.5855 54.7435 16.0265L50.126 14.1085C50.1259 14.1087 50.1285 14.1027 50.1346 14.0933C50.1407 14.0839 50.1471 14.0762 50.1519 14.0712L53.7588 17.5339ZM54.7435 16.0265C54.9895 15.4342 55.1073 14.8131 55.1073 14.1854H50.1073C50.1073 14.1859 50.1074 14.1762 50.1107 14.1592C50.1141 14.1419 50.1195 14.1242 50.126 14.1085L54.7435 16.0265ZM55.1072 14.1596C55.0989 13.3503 54.9021 12.5597 54.4987 11.8335L50.1279 14.2617C50.1252 14.2569 50.1218 14.2499 50.1184 14.2413C50.1149 14.2327 50.1122 14.2242 50.1101 14.2164C50.1058 14.1996 50.1073 14.1957 50.1075 14.2111L55.1072 14.1596ZM54.4987 11.8335C54.0993 11.1146 53.5359 10.5247 52.8384 10.0921L50.2029 14.3411C50.1976 14.3378 50.1814 14.3265 50.1623 14.3065C50.1431 14.2864 50.132 14.269 50.1279 14.2617L54.4987 11.8335ZM52.8384 10.0921C52.0801 9.62174 51.2389 9.40341 50.3829 9.40341V14.4034C50.3858 14.4034 50.3618 14.4035 50.3202 14.3921C50.2776 14.3803 50.2364 14.3619 50.2029 14.3411L52.8384 10.0921Z" fill="white" mask="url(#path-2-inside-1_202_79)"/>
</g>
<defs>
<clipPath id="clip0_202_79">
<rect width="72" height="32" fill="white"/>
</clipPath>
</defs>
</svg>
