<svg width="72" height="32" viewBox="0 0 72 32" fill="none" xmlns="http://www.w3.org/2000/svg">
<g clip-path="url(#clip0_202_24)">
<rect width="72" height="32" rx="8" fill="black"/>
<mask id="path-2-inside-1_202_24" fill="white">
<path d="M10.4884 23V9.90909H15.6531C16.646 9.90909 17.4919 10.0987 18.1908 10.478C18.8896 10.853 19.4223 11.375 19.7888 12.044C20.1595 12.7088 20.3449 13.4759 20.3449 14.3452C20.3449 15.2145 20.1574 15.9815 19.7824 16.6463C19.4074 17.3111 18.8641 17.8288 18.1524 18.1996C17.445 18.5703 16.5885 18.7557 15.5828 18.7557H12.2909V16.5376H15.1354C15.6681 16.5376 16.107 16.446 16.4521 16.2628C16.8016 16.0753 17.0615 15.8175 17.232 15.4893C17.4067 15.157 17.4941 14.7756 17.4941 14.3452C17.4941 13.9105 17.4067 13.5312 17.232 13.2074C17.0615 12.8793 16.8016 12.6257 16.4521 12.4467C16.1027 12.2635 15.6595 12.1719 15.1226 12.1719H13.2561V23H10.4884ZM30.8231 14.1406C30.7336 13.8295 30.6079 13.5547 30.4459 13.3161C30.284 13.0732 30.0858 12.8686 29.8515 12.7024C29.6214 12.532 29.3572 12.402 29.0589 12.3125C28.7648 12.223 28.4388 12.1783 28.0809 12.1783C27.4118 12.1783 26.8238 12.3445 26.3167 12.6768C25.8138 13.0092 25.4218 13.4929 25.1405 14.1278C24.8593 14.7585 24.7187 15.5298 24.7187 16.4418C24.7187 17.3537 24.8572 18.1293 25.1341 18.7685C25.4111 19.4077 25.8032 19.8956 26.3103 20.2322C26.8174 20.5646 27.4161 20.7308 28.1064 20.7308C28.7329 20.7308 29.2677 20.62 29.7108 20.3984C30.1583 20.1726 30.4992 19.8551 30.7336 19.446C30.9722 19.0369 31.0915 18.5533 31.0915 17.995L31.654 18.0781H28.279V15.9943H33.757V17.6435C33.757 18.794 33.5141 19.7827 33.0283 20.6094C32.5425 21.4318 31.8735 22.0668 31.0212 22.5142C30.1689 22.9574 29.1931 23.179 28.0937 23.179C26.8664 23.179 25.7883 22.9084 24.8593 22.3672C23.9303 21.8217 23.2059 21.0483 22.686 20.0469C22.1704 19.0412 21.9126 17.848 21.9126 16.4673C21.9126 15.4062 22.066 14.4602 22.3728 13.6293C22.6839 12.794 23.1185 12.0866 23.6768 11.5071C24.235 10.9276 24.8849 10.4865 25.6263 10.1839C26.3678 9.88139 27.1711 9.73011 28.0361 9.73011C28.7776 9.73011 29.468 9.83878 30.1072 10.0561C30.7464 10.2692 31.3131 10.5717 31.8074 10.9638C32.306 11.3558 32.713 11.8224 33.0283 12.3636C33.3437 12.9006 33.5461 13.4929 33.6356 14.1406H30.8231ZM48.088 9.90909H50.8557V18.4105C50.8557 19.3651 50.6278 20.2003 50.1718 20.9162C49.7201 21.6321 49.0873 22.1903 48.2733 22.5909C47.4594 22.9872 46.5113 23.1854 45.4289 23.1854C44.3422 23.1854 43.392 22.9872 42.578 22.5909C41.7641 22.1903 41.1313 21.6321 40.6796 20.9162C40.2279 20.2003 40.002 19.3651 40.002 18.4105V9.90909H42.7698V18.174C42.7698 18.6726 42.8785 19.1158 43.0958 19.5036C43.3174 19.8913 43.6285 20.196 44.029 20.4176C44.4296 20.6392 44.8962 20.75 45.4289 20.75C45.9658 20.75 46.4324 20.6392 46.8287 20.4176C47.2293 20.196 47.5383 19.8913 47.7556 19.5036C47.9772 19.1158 48.088 18.6726 48.088 18.174V9.90909ZM53.1329 23V9.90909H58.2977C59.2906 9.90909 60.1365 10.0987 60.8353 10.478C61.5342 10.853 62.0669 11.375 62.4333 12.044C62.8041 12.7088 62.9894 13.4759 62.9894 14.3452C62.9894 15.2145 62.8019 15.9815 62.4269 16.6463C62.0519 17.3111 61.5086 17.8288 60.797 18.1996C60.0896 18.5703 59.233 18.7557 58.2274 18.7557H54.9355V16.5376H57.7799C58.3126 16.5376 58.7515 16.446 59.0967 16.2628C59.4461 16.0753 59.7061 15.8175 59.8765 15.4893C60.0512 15.157 60.1386 14.7756 60.1386 14.3452C60.1386 13.9105 60.0512 13.5312 59.8765 13.2074C59.7061 12.8793 59.4461 12.6257 59.0967 12.4467C58.7472 12.2635 58.3041 12.1719 57.7671 12.1719H55.9007V23H53.1329Z"/>
</mask>
<path d="M10.4884 23H7.98837V25.5H10.4884V23ZM10.4884 9.90909V7.40909H7.98837V9.90909H10.4884ZM18.1908 10.478L16.9983 12.6753L17.0087 12.6809L18.1908 10.478ZM19.7888 12.044L17.5962 13.2451L17.6008 13.2534L17.6054 13.2617L19.7888 12.044ZM18.1524 18.1996L16.9974 15.9824L16.9919 15.9853L18.1524 18.1996ZM12.2909 18.7557H9.79093V21.2557H12.2909V18.7557ZM12.2909 16.5376V14.0376H9.79093V16.5376H12.2909ZM16.4521 16.2628L17.6244 18.4709L17.6342 18.4657L16.4521 16.2628ZM17.232 15.4893L15.019 14.3261L15.0135 14.3369L17.232 15.4893ZM17.232 13.2074L15.0135 14.3599L15.0225 14.3772L15.0317 14.3944L17.232 13.2074ZM16.4521 12.4467L15.2911 14.6608L15.3018 14.6664L15.3125 14.6718L16.4521 12.4467ZM13.2561 12.1719V9.67188H10.7561V12.1719H13.2561ZM13.2561 23V25.5H15.7561V23H13.2561ZM12.9884 23V9.90909H7.98837V23H12.9884ZM10.4884 12.4091H15.6531V7.40909H10.4884V12.4091ZM15.6531 12.4091C16.3314 12.4091 16.7457 12.5382 16.9984 12.6753L19.3832 8.28069C18.2382 7.65928 16.9607 7.40909 15.6531 7.40909V12.4091ZM17.0087 12.6809C17.2987 12.8365 17.472 13.0183 17.5962 13.2451L21.9814 10.843C21.3727 9.73171 20.4806 8.8695 19.3728 8.27508L17.0087 12.6809ZM17.6054 13.2617C17.7405 13.5041 17.8449 13.8407 17.8449 14.3452H22.8449C22.8449 13.111 22.5785 11.9135 21.9722 10.8264L17.6054 13.2617ZM17.8449 14.3452C17.8449 14.8448 17.7406 15.1776 17.605 15.418L21.9599 17.8746C22.5742 16.7854 22.8449 15.5842 22.8449 14.3452H17.8449ZM17.605 15.418C17.4803 15.6389 17.3029 15.8233 16.9974 15.9824L19.3075 20.4167C20.4253 19.8344 21.3345 18.9833 21.9599 17.8746L17.605 15.418ZM16.9919 15.9853C16.7235 16.1259 16.2867 16.2557 15.5828 16.2557V21.2557C16.8903 21.2557 18.1666 21.0147 19.3129 20.4139L16.9919 15.9853ZM15.5828 16.2557H12.2909V21.2557H15.5828V16.2557ZM14.7909 18.7557V16.5376H9.79093V18.7557H14.7909ZM12.2909 19.0376H15.1354V14.0376H12.2909V19.0376ZM15.1354 19.0376C15.9354 19.0376 16.8111 18.9027 17.6244 18.4709L15.2799 14.0546C15.3434 14.0209 15.3753 14.0171 15.3532 14.0217C15.3297 14.0266 15.2611 14.0376 15.1354 14.0376V19.0376ZM17.6342 18.4657C18.3931 18.0584 19.031 17.4493 19.4505 16.6418L15.0135 14.3369C15.0465 14.2733 15.0928 14.2092 15.1487 14.1538C15.2035 14.0994 15.25 14.0707 15.2701 14.0599L17.6342 18.4657ZM19.4449 16.6525C19.8341 15.9121 19.9941 15.1212 19.9941 14.3452H14.9941C14.9941 14.391 14.9894 14.4054 14.9916 14.3958C14.9927 14.3912 14.9951 14.382 14.9998 14.3692C15.0045 14.3564 15.0109 14.3417 15.0191 14.3262L19.4449 16.6525ZM19.9941 14.3452C19.9941 13.5712 19.8365 12.7698 19.4322 12.0204L15.0317 14.3944C15.0198 14.3722 15.0107 14.3516 15.0041 14.3338C14.9975 14.3161 14.994 14.3031 14.9923 14.2959C14.989 14.2815 14.9941 14.2951 14.9941 14.3452H19.9941ZM19.4505 12.0549C19.0254 11.2366 18.3733 10.6219 17.5918 10.2216L15.3125 14.6718C15.2826 14.6565 15.2266 14.6222 15.1636 14.5608C15.0995 14.4983 15.0487 14.4276 15.0135 14.3599L19.4505 12.0549ZM17.6132 10.2327C16.7999 9.80623 15.925 9.67188 15.1226 9.67188V14.6719C15.2515 14.6719 15.3239 14.6831 15.3516 14.6888C15.3778 14.6942 15.3504 14.6919 15.2911 14.6608L17.6132 10.2327ZM15.1226 9.67188H13.2561V14.6719H15.1226V9.67188ZM10.7561 12.1719V23H15.7561V12.1719H10.7561ZM13.2561 20.5H10.4884V25.5H13.2561V20.5ZM30.8231 14.1406L28.4205 14.8318L28.9409 16.6406H30.8231V14.1406ZM30.4459 13.3161L28.3658 14.7028L28.3715 14.7113L28.3772 14.7198L30.4459 13.3161ZM29.8515 12.7024L28.3634 14.7113L28.3842 14.7267L28.4054 14.7417L29.8515 12.7024ZM29.0589 12.3125L28.331 14.7042L28.3405 14.7071L29.0589 12.3125ZM26.3167 12.6768L24.9462 10.586L24.9381 10.5913L26.3167 12.6768ZM25.1405 14.1278L27.4238 15.1461L27.4263 15.1403L25.1405 14.1278ZM26.3103 20.2322L24.9276 22.3151L24.9337 22.3191L24.9398 22.3231L26.3103 20.2322ZM29.7108 20.3984L30.8289 22.6345L30.8374 22.6302L29.7108 20.3984ZM30.7336 19.446L28.5741 18.1863L28.5692 18.1948L28.5644 18.2032L30.7336 19.446ZM31.0915 17.995L31.4569 15.5219L28.5915 15.0986V17.995H31.0915ZM31.654 18.0781V20.5781L32.0194 15.605L31.654 18.0781ZM28.279 18.0781H25.779V20.5781H28.279V18.0781ZM28.279 15.9943V13.4943H25.779V15.9943H28.279ZM33.757 15.9943H36.257V13.4943H33.757V15.9943ZM33.0283 20.6094L35.1809 21.8808L35.1837 21.876L33.0283 20.6094ZM31.0212 22.5142L32.1746 24.7323L32.1833 24.7277L31.0212 22.5142ZM24.8593 22.3672L23.5935 24.5231L23.6008 24.5274L24.8593 22.3672ZM22.686 20.0469L20.4613 21.1875L20.4672 21.1988L22.686 20.0469ZM22.3728 13.6293L20.03 12.7567L20.0275 12.7633L22.3728 13.6293ZM23.6768 11.5071L25.4773 13.2415L25.4773 13.2415L23.6768 11.5071ZM25.6263 10.1839L24.6818 7.86923L24.6818 7.86923L25.6263 10.1839ZM30.1072 10.0561L29.3024 12.423L29.3095 12.4254L29.3166 12.4278L30.1072 10.0561ZM31.8074 10.9638L30.2539 12.9225L30.2621 12.929L31.8074 10.9638ZM33.0283 12.3636L30.8682 13.6223L30.8726 13.6297L33.0283 12.3636ZM33.6356 14.1406V16.6406H36.5047L36.112 13.7985L33.6356 14.1406ZM33.2256 13.4495C33.072 12.9154 32.8417 12.3943 32.5146 11.9123L28.3772 14.7198C28.374 14.7151 28.3952 14.7437 28.4205 14.8318L33.2256 13.4495ZM32.5261 11.9293C32.1973 11.4361 31.7855 11.0091 31.2975 10.6631L28.4054 14.7417C28.3982 14.7367 28.3892 14.7292 28.3803 14.72C28.3714 14.7108 28.3667 14.7041 28.3658 14.7028L32.5261 11.9293ZM31.3395 10.6935C30.8576 10.3365 30.3282 10.0832 29.7772 9.91793L28.3405 14.7071C28.3649 14.7144 28.376 14.7198 28.3772 14.7204C28.3781 14.7208 28.3726 14.7181 28.3634 14.7113L31.3395 10.6935ZM29.7868 9.92081C29.2217 9.74883 28.6459 9.67827 28.0809 9.67827V14.6783C28.2318 14.6783 28.308 14.6972 28.331 14.7042L29.7868 9.92081ZM28.0809 9.67827C26.9772 9.67827 25.9022 9.95936 24.9462 10.586L27.6872 14.7677C27.7454 14.7296 27.8465 14.6783 28.0809 14.6783V9.67827ZM24.9381 10.5913C23.9786 11.2255 23.2995 12.1114 22.8547 13.1153L27.4263 15.1403C27.5441 14.8744 27.649 14.793 27.6953 14.7624L24.9381 10.5913ZM22.8573 13.1096C22.3952 14.1459 22.2187 15.2861 22.2187 16.4418H27.2187C27.2187 15.7736 27.3234 15.3711 27.4238 15.146L22.8573 13.1096ZM22.2187 16.4418C22.2187 17.5949 22.3923 18.7287 22.8403 19.7625L27.428 17.7744C27.322 17.5299 27.2187 17.1125 27.2187 16.4418H22.2187ZM22.8403 19.7625C23.2809 20.7793 23.9621 21.6741 24.9276 22.3151L27.693 18.1494C27.6443 18.1171 27.5414 18.0361 27.428 17.7744L22.8403 19.7625ZM24.9398 22.3231C25.9086 22.9581 26.9986 23.2308 28.1064 23.2308V18.2308C27.8336 18.2308 27.7262 18.1711 27.6808 18.1414L24.9398 22.3231ZM28.1064 23.2308C29.0212 23.2308 29.9591 23.0694 30.8289 22.6345L28.5928 18.1624C28.5762 18.1707 28.4446 18.2308 28.1064 18.2308V23.2308ZM30.8374 22.6302C31.6928 22.1985 32.4095 21.5498 32.9028 20.6888L28.5644 18.2032C28.5666 18.1993 28.571 18.1923 28.5778 18.1838C28.5846 18.1752 28.5918 18.1675 28.5984 18.1614C28.6049 18.1553 28.6086 18.1528 28.6078 18.1534C28.6068 18.154 28.5997 18.1589 28.5843 18.1666L30.8374 22.6302ZM32.893 20.7057C33.3917 19.8509 33.5915 18.9162 33.5915 17.995H28.5915C28.5915 18.0962 28.5807 18.1537 28.5748 18.1777C28.5694 18.1996 28.567 18.1986 28.5741 18.1863L32.893 20.7057ZM30.7262 20.4682L31.2887 20.5513L32.0194 15.605L31.4569 15.5219L30.7262 20.4682ZM31.654 15.5781H28.279V20.5781H31.654V15.5781ZM30.779 18.0781V15.9943H25.779V18.0781H30.779ZM28.279 18.4943H33.757V13.4943H28.279V18.4943ZM31.257 15.9943V17.6435H36.257V15.9943H31.257ZM31.257 17.6435C31.257 18.4379 31.0918 18.9703 30.8729 19.3428L35.1837 21.876C35.9364 20.595 36.257 19.1501 36.257 17.6435H31.257ZM30.8758 19.3379C30.6281 19.7572 30.3035 20.0674 29.8591 20.3007L32.1833 24.7277C33.4435 24.0661 34.4569 23.1065 35.1809 21.8808L30.8758 19.3379ZM29.8678 20.2962C29.4203 20.5289 28.85 20.679 28.0937 20.679V25.679C29.5362 25.679 30.9176 25.3859 32.1746 24.7322L29.8678 20.2962ZM28.0937 20.679C27.2449 20.679 26.6132 20.4957 26.1177 20.207L23.6008 24.5274C24.9633 25.3211 26.4879 25.679 28.0937 25.679V20.679ZM26.1251 20.2113C25.6217 19.9157 25.2186 19.4995 24.9048 18.895L20.4672 21.1988C21.1931 22.5971 22.2389 23.7277 23.5935 24.523L26.1251 20.2113ZM24.9106 18.9063C24.6118 18.3234 24.4126 17.538 24.4126 16.4673H19.4126C19.4126 18.158 19.729 19.759 20.4613 21.1875L24.9106 18.9063ZM24.4126 16.4673C24.4126 15.6448 24.5316 15.0001 24.718 14.4952L20.0275 12.7633C19.6003 13.9203 19.4126 15.1677 19.4126 16.4673H24.4126ZM24.7156 14.5018C24.9199 13.9533 25.1815 13.5486 25.4773 13.2415L21.8762 9.77274C21.0556 10.6247 20.4478 11.6348 20.03 12.7567L24.7156 14.5018ZM25.4773 13.2415C25.795 12.9117 26.1536 12.6689 26.5708 12.4987L24.6818 7.86923C23.6161 8.30411 22.675 8.94344 21.8762 9.77274L25.4773 13.2415ZM26.5708 12.4987C26.9891 12.328 27.4688 12.2301 28.0361 12.2301V7.23011C26.8734 7.23011 25.7465 7.4348 24.6818 7.86923L26.5708 12.4987ZM28.0361 12.2301C28.5307 12.2301 28.9465 12.302 29.3024 12.423L30.9119 7.68918C29.9894 7.37551 29.0246 7.23011 28.0361 7.23011V12.2301ZM29.3166 12.4278C29.6983 12.555 30.003 12.7235 30.254 12.9225L33.3609 9.00503C32.6232 8.41995 31.7945 7.98331 30.8977 7.6844L29.3166 12.4278ZM30.2621 12.929C30.5163 13.1288 30.7135 13.3567 30.8683 13.6223L35.1884 11.105C34.7124 10.2882 34.0957 9.5828 33.3527 8.99856L30.2621 12.929ZM30.8726 13.6297C31.013 13.8687 31.1124 14.1445 31.1591 14.4828L36.112 13.7985C35.9798 12.8413 35.6744 11.9325 35.184 11.0976L30.8726 13.6297ZM33.6356 11.6406H30.8231V16.6406H33.6356V11.6406ZM48.088 9.90909V7.40909H45.588V9.90909H48.088ZM50.8557 9.90909H53.3557V7.40909H50.8557V9.90909ZM50.1718 20.9162L48.0631 19.5732L48.0575 19.5822L50.1718 20.9162ZM48.2733 22.5909L49.3678 24.8386L49.3773 24.834L48.2733 22.5909ZM42.578 22.5909L41.4741 24.834L41.4836 24.8386L42.578 22.5909ZM40.6796 20.9162L38.5653 22.2502L38.5653 22.2502L40.6796 20.9162ZM40.002 9.90909V7.40909H37.502V9.90909H40.002ZM42.7698 9.90909H45.2698V7.40909H42.7698V9.90909ZM43.0958 19.5036L40.9149 20.7258L40.92 20.7349L40.9252 20.7439L43.0958 19.5036ZM44.029 20.4176L42.8189 22.6052L42.8189 22.6052L44.029 20.4176ZM46.8287 20.4176L45.6186 18.23L45.6087 18.2355L46.8287 20.4176ZM47.7556 19.5036L45.585 18.2632L45.5798 18.2722L45.5747 18.2813L47.7556 19.5036ZM48.088 12.4091H50.8557V7.40909H48.088V12.4091ZM48.3557 9.90909V18.4105H53.3557V9.90909H48.3557ZM48.3557 18.4105C48.3557 18.9503 48.2326 19.3072 48.0631 19.5732L52.2804 22.2592C53.0229 21.0934 53.3557 19.7798 53.3557 18.4105H48.3557ZM48.0575 19.5822C47.8699 19.8794 47.5999 20.136 47.1694 20.3478L49.3773 24.834C50.5746 24.2447 51.5703 23.3848 52.2861 22.2502L48.0575 19.5822ZM47.1789 20.3432C46.7663 20.5441 46.2054 20.6854 45.4289 20.6854V25.6854C46.8171 25.6854 48.1526 25.4303 49.3678 24.8386L47.1789 20.3432ZM45.4289 20.6854C44.6464 20.6854 44.0838 20.5435 43.6725 20.3432L41.4836 24.8386C42.7001 25.4309 44.0381 25.6854 45.4289 25.6854V20.6854ZM43.682 20.3478C43.2514 20.136 42.9815 19.8794 42.7939 19.5822L38.5653 22.2502C39.2811 23.3848 40.2768 24.2447 41.4741 24.834L43.682 20.3478ZM42.7939 19.5822C42.6253 19.3149 42.502 18.9549 42.502 18.4105H37.502C37.502 19.7753 37.8305 21.0856 38.5653 22.2502L42.7939 19.5822ZM42.502 18.4105V9.90909H37.502V18.4105H42.502ZM40.002 12.4091H42.7698V7.40909H40.002V12.4091ZM40.2698 9.90909V18.174H45.2698V9.90909H40.2698ZM40.2698 18.174C40.2698 19.0476 40.4639 19.921 40.9149 20.7258L45.2766 18.2813C45.2812 18.2895 45.2814 18.2933 45.2794 18.285C45.277 18.2753 45.2698 18.241 45.2698 18.174H40.2698ZM40.9252 20.7439C41.38 21.5398 42.0279 22.1677 42.8189 22.6052L45.2392 18.23C45.2317 18.2259 45.2297 18.2242 45.2319 18.2258C45.2341 18.2274 45.2387 18.2311 45.2446 18.2369C45.2505 18.2427 45.2559 18.2488 45.2603 18.2545C45.2647 18.2602 45.2666 18.2635 45.2664 18.2632L40.9252 20.7439ZM42.8189 22.6052C43.6464 23.063 44.5426 23.25 45.4289 23.25V18.25C45.3359 18.25 45.2815 18.2404 45.257 18.2345C45.2341 18.2291 45.2314 18.2257 45.2392 18.23L42.8189 22.6052ZM45.4289 23.25C46.3148 23.25 47.2169 23.0648 48.0488 22.5997L45.6087 18.2355C45.6231 18.2275 45.6252 18.2295 45.604 18.2345C45.5809 18.24 45.5257 18.25 45.4289 18.25V23.25ZM48.0389 22.6052C48.8338 22.1655 49.4846 21.5319 49.9364 20.7258L45.5747 18.2813C45.5758 18.2794 45.5791 18.2739 45.585 18.2661C45.5909 18.2583 45.5979 18.2503 45.6054 18.2429C45.6129 18.2355 45.6191 18.2305 45.6226 18.2279C45.6261 18.2253 45.6253 18.2263 45.6186 18.23L48.0389 22.6052ZM49.9262 20.7439C50.3879 19.9359 50.588 19.0559 50.588 18.174H45.588C45.588 18.2374 45.5811 18.2678 45.5795 18.274C45.5784 18.2787 45.5797 18.2725 45.585 18.2632L49.9262 20.7439ZM50.588 18.174V9.90909H45.588V18.174H50.588ZM53.1329 23H50.6329V25.5H53.1329V23ZM53.1329 9.90909V7.40909H50.6329V9.90909H53.1329ZM60.8353 10.478L59.6429 12.6753L59.6533 12.6809L60.8353 10.478ZM62.4333 12.044L60.2407 13.2451L60.2453 13.2534L60.2499 13.2617L62.4333 12.044ZM60.797 18.1996L59.6419 15.9824L59.6364 15.9853L60.797 18.1996ZM54.9355 18.7557H52.4355V21.2557H54.9355V18.7557ZM54.9355 16.5376V14.0376H52.4355V16.5376H54.9355ZM59.0967 16.2628L60.2689 18.4709L60.2787 18.4657L59.0967 16.2628ZM59.8765 15.4893L57.6636 14.3261L57.658 14.3369L59.8765 15.4893ZM59.8765 13.2074L57.658 14.3599L57.667 14.3772L57.6763 14.3944L59.8765 13.2074ZM59.0967 12.4467L57.9357 14.6608L57.9463 14.6664L57.957 14.6718L59.0967 12.4467ZM55.9007 12.1719V9.67188H53.4007V12.1719H55.9007ZM55.9007 23V25.5H58.4007V23H55.9007ZM55.6329 23V9.90909H50.6329V23H55.6329ZM53.1329 12.4091H58.2977V7.40909H53.1329V12.4091ZM58.2977 12.4091C58.9759 12.4091 59.3902 12.5382 59.6429 12.6753L62.0278 8.28069C60.8827 7.65928 59.6052 7.40909 58.2977 7.40909V12.4091ZM59.6533 12.6809C59.9432 12.8365 60.1165 13.0183 60.2407 13.2451L64.6259 10.843C64.0172 9.73171 63.1251 8.8695 62.0174 8.27508L59.6533 12.6809ZM60.2499 13.2617C60.3851 13.5041 60.4894 13.8407 60.4894 14.3452H65.4894C65.4894 13.111 65.2231 11.9135 64.6167 10.8264L60.2499 13.2617ZM60.4894 14.3452C60.4894 14.8448 60.3851 15.1776 60.2495 15.418L64.6044 17.8746C65.2188 16.7854 65.4894 15.5842 65.4894 14.3452H60.4894ZM60.2495 15.418C60.1249 15.6389 59.9474 15.8233 59.6419 15.9824L61.952 20.4167C63.0698 19.8344 63.979 18.9833 64.6044 17.8746L60.2495 15.418ZM59.6364 15.9853C59.368 16.1259 58.9313 16.2557 58.2274 16.2557V21.2557C59.5348 21.2557 60.8111 21.0147 61.9575 20.4139L59.6364 15.9853ZM58.2274 16.2557H54.9355V21.2557H58.2274V16.2557ZM57.4355 18.7557V16.5376H52.4355V18.7557H57.4355ZM54.9355 19.0376H57.7799V14.0376H54.9355V19.0376ZM57.7799 19.0376C58.5799 19.0376 59.4557 18.9027 60.2689 18.4709L57.9245 14.0546C57.988 14.0209 58.0198 14.0171 57.9978 14.0217C57.9742 14.0266 57.9056 14.0376 57.7799 14.0376V19.0376ZM60.2787 18.4657C61.0377 18.0584 61.6756 17.4493 62.095 16.6418L57.658 14.3369C57.691 14.2733 57.7373 14.2092 57.7932 14.1538C57.848 14.0994 57.8945 14.0707 57.9146 14.0599L60.2787 18.4657ZM62.0894 16.6525C62.4786 15.9121 62.6386 15.1212 62.6386 14.3452H57.6386C57.6386 14.391 57.634 14.4054 57.6362 14.3958C57.6372 14.3912 57.6397 14.382 57.6444 14.3692C57.6491 14.3564 57.6554 14.3417 57.6636 14.3262L62.0894 16.6525ZM62.6386 14.3452C62.6386 13.5712 62.481 12.7698 62.0768 12.0204L57.6763 14.3944C57.6643 14.3722 57.6552 14.3516 57.6486 14.3338C57.642 14.3161 57.6385 14.3031 57.6369 14.2959C57.6336 14.2815 57.6386 14.2951 57.6386 14.3452H62.6386ZM62.095 12.0549C61.6699 11.2366 61.0179 10.6219 60.2364 10.2216L57.957 14.6718C57.9271 14.6565 57.8711 14.6222 57.8081 14.5608C57.744 14.4983 57.6932 14.4276 57.658 14.3599L62.095 12.0549ZM60.2577 10.2327C59.4445 9.80623 58.5695 9.67188 57.7671 9.67188V14.6719C57.896 14.6719 57.9684 14.6831 57.9961 14.6888C58.0223 14.6942 57.9949 14.6919 57.9357 14.6608L60.2577 10.2327ZM57.7671 9.67188H55.9007V14.6719H57.7671V9.67188ZM53.4007 12.1719V23H58.4007V12.1719H53.4007ZM55.9007 20.5H53.1329V25.5H55.9007V20.5Z" fill="white" mask="url(#path-2-inside-1_202_24)"/>
</g>
<defs>
<clipPath id="clip0_202_24">
<rect width="72" height="32" fill="white"/>
</clipPath>
</defs>
</svg>
