<svg width="72" height="32" viewBox="0 0 72 32" fill="none" xmlns="http://www.w3.org/2000/svg">
<g clip-path="url(#clip0_202_95)">
<rect width="72" height="32" rx="8" fill="black"/>
<mask id="path-2-inside-1_202_95" fill="white">
<path d="M27.2573 9.90909V23H24.8667L19.1713 14.7607H19.0755V23H16.3077V9.90909H18.7367L24.3873 18.142H24.5023V9.90909H27.2573ZM29.544 23V9.90909H34.7088C35.7017 9.90909 36.5476 10.0987 37.2464 10.478C37.9453 10.853 38.478 11.375 38.8445 12.044C39.2152 12.7088 39.4006 13.4759 39.4006 14.3452C39.4006 15.2145 39.2131 15.9815 38.8381 16.6463C38.4631 17.3111 37.9197 17.8288 37.2081 18.1996C36.5007 18.5703 35.6442 18.7557 34.6385 18.7557H31.3466V16.5376H34.1911C34.7237 16.5376 35.1626 16.446 35.5078 16.2628C35.8572 16.0753 36.1172 15.8175 36.2876 15.4893C36.4624 15.157 36.5497 14.7756 36.5497 14.3452C36.5497 13.9105 36.4624 13.5312 36.2876 13.2074C36.1172 12.8793 35.8572 12.6257 35.5078 12.4467C35.1584 12.2635 34.7152 12.1719 34.1783 12.1719H32.3118V23H29.544ZM55.5964 15.3743V17.5348H49.6262V15.3743H55.5964Z"/>
</mask>
<path d="M27.2573 9.90909H29.7573V7.40909H27.2573V9.90909ZM27.2573 23V25.5H29.7573V23H27.2573ZM24.8667 23L22.8101 24.4215L23.5556 25.5H24.8667V23ZM19.1713 14.7607L21.2279 13.3391L20.4824 12.2607H19.1713V14.7607ZM19.0755 14.7607V12.2607H16.5755V14.7607H19.0755ZM19.0755 23V25.5H21.5755V23H19.0755ZM16.3077 23H13.8077V25.5H16.3077V23ZM16.3077 9.90909V7.40909H13.8077V9.90909H16.3077ZM18.7367 9.90909L20.7979 8.4944L20.053 7.40909H18.7367V9.90909ZM24.3873 18.142L22.326 19.5567L23.0709 20.642H24.3873V18.142ZM24.5023 18.142V20.642H27.0023V18.142H24.5023ZM24.5023 9.90909V7.40909H22.0023V9.90909H24.5023ZM24.7573 9.90909V23H29.7573V9.90909H24.7573ZM27.2573 20.5H24.8667V25.5H27.2573V20.5ZM26.9232 21.5785L21.2279 13.3391L17.1148 16.1822L22.8101 24.4215L26.9232 21.5785ZM19.1713 12.2607H19.0755V17.2607H19.1713V12.2607ZM16.5755 14.7607V23H21.5755V14.7607H16.5755ZM19.0755 20.5H16.3077V25.5H19.0755V20.5ZM18.8077 23V9.90909H13.8077V23H18.8077ZM16.3077 12.4091H18.7367V7.40909H16.3077V12.4091ZM16.6755 11.3238L22.326 19.5567L26.4485 16.7274L20.7979 8.4944L16.6755 11.3238ZM24.3873 20.642H24.5023V15.642H24.3873V20.642ZM27.0023 18.142V9.90909H22.0023V18.142H27.0023ZM24.5023 12.4091H27.2573V7.40909H24.5023V12.4091ZM29.544 23H27.044V25.5H29.544V23ZM29.544 9.90909V7.40909H27.044V9.90909H29.544ZM37.2464 10.478L36.054 12.6753L36.0644 12.6809L37.2464 10.478ZM38.8445 12.044L36.6519 13.2451L36.6564 13.2534L36.6611 13.2617L38.8445 12.044ZM37.2081 18.1996L36.053 15.9824L36.0476 15.9853L37.2081 18.1996ZM31.3466 18.7557H28.8466V21.2557H31.3466V18.7557ZM31.3466 16.5376V14.0376H28.8466V16.5376H31.3466ZM35.5078 16.2628L36.68 18.4709L36.6899 18.4657L35.5078 16.2628ZM36.2876 15.4893L34.0747 14.3261L34.0691 14.3369L36.2876 15.4893ZM36.2876 13.2074L34.0691 14.3599L34.0781 14.3772L34.0874 14.3944L36.2876 13.2074ZM35.5078 12.4467L34.3468 14.6608L34.3574 14.6664L34.3681 14.6718L35.5078 12.4467ZM32.3118 12.1719V9.67188H29.8118V12.1719H32.3118ZM32.3118 23V25.5H34.8118V23H32.3118ZM32.044 23V9.90909H27.044V23H32.044ZM29.544 12.4091H34.7088V7.40909H29.544V12.4091ZM34.7088 12.4091C35.3871 12.4091 35.8014 12.5382 36.054 12.6753L38.4389 8.28069C37.2938 7.65928 36.0163 7.40909 34.7088 7.40909V12.4091ZM36.0644 12.6809C36.3544 12.8365 36.5276 13.0183 36.6519 13.2451L41.0371 10.843C40.4283 9.73171 39.5363 8.8695 38.4285 8.27508L36.0644 12.6809ZM36.6611 13.2617C36.7962 13.5041 36.9006 13.8407 36.9006 14.3452H41.9006C41.9006 13.111 41.6342 11.9135 41.0279 10.8264L36.6611 13.2617ZM36.9006 14.3452C36.9006 14.8448 36.7962 15.1776 36.6606 15.418L41.0155 17.8746C41.6299 16.7854 41.9006 15.5842 41.9006 14.3452H36.9006ZM36.6606 15.418C36.536 15.6389 36.3585 15.8233 36.053 15.9824L38.3632 20.4167C39.481 19.8344 40.3901 18.9833 41.0155 17.8746L36.6606 15.418ZM36.0476 15.9853C35.7792 16.1259 35.3424 16.2557 34.6385 16.2557V21.2557C35.9459 21.2557 37.2222 21.0147 38.3686 20.4139L36.0476 15.9853ZM34.6385 16.2557H31.3466V21.2557H34.6385V16.2557ZM33.8466 18.7557V16.5376H28.8466V18.7557H33.8466ZM31.3466 19.0376H34.1911V14.0376H31.3466V19.0376ZM34.1911 19.0376C34.9911 19.0376 35.8668 18.9027 36.68 18.4709L34.3356 14.0546C34.3991 14.0209 34.431 14.0171 34.4089 14.0217C34.3853 14.0266 34.3168 14.0376 34.1911 14.0376V19.0376ZM36.6899 18.4657C37.4488 18.0584 38.0867 17.4493 38.5062 16.6418L34.0691 14.3369C34.1022 14.2733 34.1485 14.2092 34.2044 14.1538C34.2592 14.0994 34.3056 14.0707 34.3258 14.0599L36.6899 18.4657ZM38.5006 16.6525C38.8898 15.9121 39.0497 15.1212 39.0497 14.3452H34.0497C34.0497 14.391 34.0451 14.4054 34.0473 14.3958C34.0484 14.3912 34.0508 14.382 34.0555 14.3692C34.0602 14.3564 34.0666 14.3417 34.0747 14.3262L38.5006 16.6525ZM39.0497 14.3452C39.0497 13.5712 38.8922 12.7698 38.4879 12.0204L34.0874 14.3944C34.0754 14.3722 34.0664 14.3516 34.0597 14.3338C34.0531 14.3161 34.0496 14.3031 34.048 14.2959C34.0447 14.2815 34.0497 14.2951 34.0497 14.3452H39.0497ZM38.5062 12.0549C38.081 11.2366 37.429 10.6219 36.6475 10.2216L34.3681 14.6718C34.3382 14.6565 34.2822 14.6222 34.2192 14.5608C34.1551 14.4983 34.1043 14.4276 34.0691 14.3599L38.5062 12.0549ZM36.6688 10.2327C35.8556 9.80623 34.9806 9.67188 34.1783 9.67188V14.6719C34.3072 14.6719 34.3795 14.6831 34.4072 14.6888C34.4335 14.6942 34.4061 14.6919 34.3468 14.6608L36.6688 10.2327ZM34.1783 9.67188H32.3118V14.6719H34.1783V9.67188ZM29.8118 12.1719V23H34.8118V12.1719H29.8118ZM32.3118 20.5H29.544V25.5H32.3118V20.5ZM55.5964 15.3743H58.0964V12.8743H55.5964V15.3743ZM55.5964 17.5348V20.0348H58.0964V17.5348H55.5964ZM49.6262 17.5348H47.1262V20.0348H49.6262V17.5348ZM49.6262 15.3743V12.8743H47.1262V15.3743H49.6262ZM53.0964 15.3743V17.5348H58.0964V15.3743H53.0964ZM55.5964 15.0348H49.6262V20.0348H55.5964V15.0348ZM52.1262 17.5348V15.3743H47.1262V17.5348H52.1262ZM49.6262 17.8743H55.5964V12.8743H49.6262V17.8743Z" fill="white" mask="url(#path-2-inside-1_202_95)"/>
</g>
<defs>
<clipPath id="clip0_202_95">
<rect width="72" height="32" fill="white"/>
</clipPath>
</defs>
</svg>
