<svg width="72" height="32" viewBox="0 0 72 32" fill="none" xmlns="http://www.w3.org/2000/svg">
<g clip-path="url(#clip0_202_87)">
<rect width="72" height="32" rx="8" fill="black"/>
<mask id="path-2-inside-1_202_87" fill="white">
<path d="M28.4692 9.90909V23H26.0786L20.3833 14.7607H20.2874V23H17.5196V9.90909H19.9486L25.5992 18.142H25.7142V9.90909H28.4692ZM30.7559 23V9.90909H35.9207C36.9136 9.90909 37.7595 10.0987 38.4584 10.478C39.1572 10.853 39.6899 11.375 40.0564 12.044C40.4271 12.7088 40.6125 13.4759 40.6125 14.3452C40.6125 15.2145 40.425 15.9815 40.05 16.6463C39.675 17.3111 39.1317 17.8288 38.42 18.1996C37.7126 18.5703 36.8561 18.7557 35.8504 18.7557H32.5585V16.5376H35.403C35.9356 16.5376 36.3746 16.446 36.7197 16.2628C37.0692 16.0753 37.3291 15.8175 37.4996 15.4893C37.6743 15.157 37.7616 14.7756 37.7616 14.3452C37.7616 13.9105 37.6743 13.5312 37.4996 13.2074C37.3291 12.8793 37.0692 12.6257 36.7197 12.4467C36.3703 12.2635 35.9271 12.1719 35.3902 12.1719H33.5237V23H30.7559ZM56.3928 9.29545L52.1741 24.9688H49.8282L54.047 9.29545H56.3928Z"/>
</mask>
<path d="M28.4692 9.90909H30.9692V7.40909H28.4692V9.90909ZM28.4692 23V25.5H30.9692V23H28.4692ZM26.0786 23L24.0221 24.4215L24.7675 25.5H26.0786V23ZM20.3833 14.7607L22.4398 13.3391L21.6943 12.2607H20.3833V14.7607ZM20.2874 14.7607V12.2607H17.7874V14.7607H20.2874ZM20.2874 23V25.5H22.7874V23H20.2874ZM17.5196 23H15.0196V25.5H17.5196V23ZM17.5196 9.90909V7.40909H15.0196V9.90909H17.5196ZM19.9486 9.90909L22.0098 8.4944L21.2649 7.40909H19.9486V9.90909ZM25.5992 18.142L23.5379 19.5567L24.2828 20.642H25.5992V18.142ZM25.7142 18.142V20.642H28.2142V18.142H25.7142ZM25.7142 9.90909V7.40909H23.2142V9.90909H25.7142ZM25.9692 9.90909V23H30.9692V9.90909H25.9692ZM28.4692 20.5H26.0786V25.5H28.4692V20.5ZM28.1351 21.5785L22.4398 13.3391L18.3267 16.1822L24.0221 24.4215L28.1351 21.5785ZM20.3833 12.2607H20.2874V17.2607H20.3833V12.2607ZM17.7874 14.7607V23H22.7874V14.7607H17.7874ZM20.2874 20.5H17.5196V25.5H20.2874V20.5ZM20.0196 23V9.90909H15.0196V23H20.0196ZM17.5196 12.4091H19.9486V7.40909H17.5196V12.4091ZM17.8874 11.3238L23.5379 19.5567L27.6604 16.7274L22.0098 8.4944L17.8874 11.3238ZM25.5992 20.642H25.7142V15.642H25.5992V20.642ZM28.2142 18.142V9.90909H23.2142V18.142H28.2142ZM25.7142 12.4091H28.4692V7.40909H25.7142V12.4091ZM30.7559 23H28.2559V25.5H30.7559V23ZM30.7559 9.90909V7.40909H28.2559V9.90909H30.7559ZM38.4584 10.478L37.2659 12.6753L37.2763 12.6809L38.4584 10.478ZM40.0564 12.044L37.8638 13.2451L37.8683 13.2534L37.873 13.2617L40.0564 12.044ZM38.42 18.1996L37.265 15.9824L37.2595 15.9853L38.42 18.1996ZM32.5585 18.7557H30.0585V21.2557H32.5585V18.7557ZM32.5585 16.5376V14.0376H30.0585V16.5376H32.5585ZM36.7197 16.2628L37.892 18.4709L37.9018 18.4657L36.7197 16.2628ZM37.4996 15.4893L35.2866 14.3261L35.281 14.3369L37.4996 15.4893ZM37.4996 13.2074L35.281 14.3599L35.29 14.3772L35.2993 14.3944L37.4996 13.2074ZM36.7197 12.4467L35.5587 14.6608L35.5693 14.6664L35.58 14.6718L36.7197 12.4467ZM33.5237 12.1719V9.67188H31.0237V12.1719H33.5237ZM33.5237 23V25.5H36.0237V23H33.5237ZM33.2559 23V9.90909H28.2559V23H33.2559ZM30.7559 12.4091H35.9207V7.40909H30.7559V12.4091ZM35.9207 12.4091C36.599 12.4091 37.0133 12.5382 37.2659 12.6753L39.6508 8.28069C38.5057 7.65928 37.2283 7.40909 35.9207 7.40909V12.4091ZM37.2763 12.6809C37.5663 12.8365 37.7395 13.0183 37.8638 13.2451L42.249 10.843C41.6402 9.73171 40.7482 8.8695 39.6404 8.27508L37.2763 12.6809ZM37.873 13.2617C38.0081 13.5041 38.1125 13.8407 38.1125 14.3452H43.1125C43.1125 13.111 42.8461 11.9135 42.2398 10.8264L37.873 13.2617ZM38.1125 14.3452C38.1125 14.8448 38.0081 15.1776 37.8725 15.418L42.2274 17.8746C42.8418 16.7854 43.1125 15.5842 43.1125 14.3452H38.1125ZM37.8725 15.418C37.7479 15.6389 37.5704 15.8233 37.265 15.9824L39.5751 20.4167C40.6929 19.8344 41.602 18.9833 42.2274 17.8746L37.8725 15.418ZM37.2595 15.9853C36.9911 16.1259 36.5543 16.2557 35.8504 16.2557V21.2557C37.1579 21.2557 38.4342 21.0147 39.5805 20.4139L37.2595 15.9853ZM35.8504 16.2557H32.5585V21.2557H35.8504V16.2557ZM35.0585 18.7557V16.5376H30.0585V18.7557H35.0585ZM32.5585 19.0376H35.403V14.0376H32.5585V19.0376ZM35.403 19.0376C36.203 19.0376 37.0787 18.9027 37.892 18.4709L35.5475 14.0546C35.611 14.0209 35.6429 14.0171 35.6208 14.0217C35.5972 14.0266 35.5287 14.0376 35.403 14.0376V19.0376ZM37.9018 18.4657C38.6607 18.0584 39.2986 17.4493 39.7181 16.6418L35.281 14.3369C35.3141 14.2733 35.3604 14.2092 35.4163 14.1538C35.4711 14.0994 35.5175 14.0707 35.5377 14.0599L37.9018 18.4657ZM39.7125 16.6525C40.1017 15.9121 40.2616 15.1212 40.2616 14.3452H35.2616C35.2616 14.391 35.257 14.4054 35.2592 14.3958C35.2603 14.3912 35.2627 14.382 35.2674 14.3692C35.2721 14.3564 35.2785 14.3417 35.2866 14.3262L39.7125 16.6525ZM40.2616 14.3452C40.2616 13.5712 40.1041 12.7698 39.6998 12.0204L35.2993 14.3944C35.2873 14.3722 35.2783 14.3516 35.2716 14.3338C35.2651 14.3161 35.2616 14.3031 35.2599 14.2959C35.2566 14.2815 35.2616 14.2951 35.2616 14.3452H40.2616ZM39.7181 12.0549C39.293 11.2366 38.6409 10.6219 37.8594 10.2216L35.58 14.6718C35.5501 14.6565 35.4941 14.6222 35.4311 14.5608C35.3671 14.4983 35.3162 14.4276 35.281 14.3599L39.7181 12.0549ZM37.8808 10.2327C37.0675 9.80623 36.1926 9.67188 35.3902 9.67188V14.6719C35.5191 14.6719 35.5915 14.6831 35.6191 14.6888C35.6454 14.6942 35.618 14.6919 35.5587 14.6608L37.8808 10.2327ZM35.3902 9.67188H33.5237V14.6719H35.3902V9.67188ZM31.0237 12.1719V23H36.0237V12.1719H31.0237ZM33.5237 20.5H30.7559V25.5H33.5237V20.5ZM56.3928 9.29545L58.8069 9.94525L59.6547 6.79545H56.3928V9.29545ZM52.1741 24.9688V27.4688H54.0902L54.5882 25.6185L52.1741 24.9688ZM49.8282 24.9688L47.4141 24.319L46.5663 27.4688H49.8282V24.9688ZM54.047 9.29545V6.79545H52.1309L51.6329 8.64566L54.047 9.29545ZM53.9788 8.64566L49.76 24.319L54.5882 25.6185L58.8069 9.94525L53.9788 8.64566ZM52.1741 22.4688H49.8282V27.4688H52.1741V22.4688ZM52.2423 25.6185L56.461 9.94525L51.6329 8.64566L47.4141 24.319L52.2423 25.6185ZM54.047 11.7955H56.3928V6.79545H54.047V11.7955Z" fill="white" mask="url(#path-2-inside-1_202_87)"/>
</g>
<defs>
<clipPath id="clip0_202_87">
<rect width="72" height="32" fill="white"/>
</clipPath>
</defs>
</svg>
