<svg width="72" height="32" viewBox="0 0 72 32" fill="none" xmlns="http://www.w3.org/2000/svg">
<g clip-path="url(#clip0_202_28)">
<rect width="72" height="32" rx="8" fill="black"/>
<mask id="path-2-inside-1_202_28" fill="white">
<path d="M9.21493 23V9.90909H14.3797C15.3726 9.90909 16.2185 10.0987 16.9173 10.478C17.6162 10.853 18.1489 11.375 18.5154 12.044C18.8861 12.7088 19.0715 13.4759 19.0715 14.3452C19.0715 15.2145 18.884 15.9815 18.509 16.6463C18.134 17.3111 17.5906 17.8288 16.879 18.1996C16.1716 18.5703 15.3151 18.7557 14.3094 18.7557H11.0175V16.5376H13.8619C14.3946 16.5376 14.8335 16.446 15.1787 16.2628C15.5281 16.0753 15.7881 15.8175 15.9585 15.4893C16.1333 15.157 16.2206 14.7756 16.2206 14.3452C16.2206 13.9105 16.1333 13.5312 15.9585 13.2074C15.7881 12.8793 15.5281 12.6257 15.1787 12.4467C14.8293 12.2635 14.3861 12.1719 13.8492 12.1719H11.9827V23H9.21493ZM29.5496 14.1406C29.4601 13.8295 29.3344 13.5547 29.1725 13.3161C29.0106 13.0732 28.8124 12.8686 28.578 12.7024C28.3479 12.532 28.0837 12.402 27.7854 12.3125C27.4914 12.223 27.1654 12.1783 26.8074 12.1783C26.1384 12.1783 25.5503 12.3445 25.0432 12.6768C24.5404 13.0092 24.1483 13.4929 23.8671 14.1278C23.5858 14.7585 23.4452 15.5298 23.4452 16.4418C23.4452 17.3537 23.5837 18.1293 23.8607 18.7685C24.1377 19.4077 24.5297 19.8956 25.0368 20.2322C25.5439 20.5646 26.1427 20.7308 26.833 20.7308C27.4594 20.7308 27.9942 20.62 28.4374 20.3984C28.8849 20.1726 29.2258 19.8551 29.4601 19.446C29.6988 19.0369 29.8181 18.5533 29.8181 17.995L30.3806 18.0781H27.0056V15.9943H32.4836V17.6435C32.4836 18.794 32.2407 19.7827 31.7549 20.6094C31.2691 21.4318 30.6001 22.0668 29.7478 22.5142C28.8955 22.9574 27.9197 23.179 26.8202 23.179C25.593 23.179 24.5148 22.9084 23.5858 22.3672C22.6569 21.8217 21.9324 21.0483 21.4126 20.0469C20.8969 19.0412 20.6391 17.848 20.6391 16.4673C20.6391 15.4062 20.7925 14.4602 21.0993 13.6293C21.4104 12.794 21.8451 12.0866 22.4033 11.5071C22.9616 10.9276 23.6114 10.4865 24.3529 10.1839C25.0944 9.88139 25.8976 9.73011 26.7627 9.73011C27.5042 9.73011 28.1945 9.83878 28.8337 10.0561C29.4729 10.2692 30.0397 10.5717 30.534 10.9638C31.0326 11.3558 31.4395 11.8224 31.7549 12.3636C32.0702 12.9006 32.2726 13.4929 32.3621 14.1406H29.5496ZM43.3692 23H38.7286V9.90909H43.4076C44.7243 9.90909 45.8579 10.1712 46.8082 10.6953C47.7584 11.2152 48.4893 11.9631 49.0006 12.9389C49.5162 13.9148 49.7741 15.0824 49.7741 16.4418C49.7741 17.8054 49.5162 18.9773 49.0006 19.9574C48.4893 20.9375 47.7542 21.6896 46.7954 22.2138C45.8408 22.7379 44.6988 23 43.3692 23ZM41.4964 20.6286H43.2542C44.0724 20.6286 44.7606 20.4837 45.3188 20.1939C45.8813 19.8999 46.3032 19.446 46.5844 18.8324C46.8699 18.2145 47.0127 17.4176 47.0127 16.4418C47.0127 15.4744 46.8699 14.6839 46.5844 14.0703C46.3032 13.4567 45.8834 13.005 45.3252 12.7152C44.767 12.4254 44.0787 12.2805 43.2606 12.2805H41.4964V20.6286ZM62.7739 9.90909V23H60.3833L54.6879 14.7607H54.5921V23H51.8243V9.90909H54.2533L59.9039 18.142H60.0189V9.90909H62.7739Z"/>
</mask>
<path d="M9.21493 23H6.71493V25.5H9.21493V23ZM9.21493 9.90909V7.40909H6.71493V9.90909H9.21493ZM16.9173 10.478L15.7249 12.6753L15.7353 12.6809L16.9173 10.478ZM18.5154 12.044L16.3228 13.2451L16.3273 13.2534L16.3319 13.2617L18.5154 12.044ZM16.879 18.1996L15.7239 15.9824L15.7185 15.9853L16.879 18.1996ZM11.0175 18.7557H8.51749V21.2557H11.0175V18.7557ZM11.0175 16.5376V14.0376H8.51749V16.5376H11.0175ZM15.1787 16.2628L16.3509 18.4709L16.3608 18.4657L15.1787 16.2628ZM15.9585 15.4893L13.7456 14.3261L13.74 14.3369L15.9585 15.4893ZM15.9585 13.2074L13.74 14.3599L13.749 14.3772L13.7583 14.3944L15.9585 13.2074ZM15.1787 12.4467L14.0177 14.6608L14.0283 14.6664L14.039 14.6718L15.1787 12.4467ZM11.9827 12.1719V9.67188H9.48269V12.1719H11.9827ZM11.9827 23V25.5H14.4827V23H11.9827ZM11.7149 23V9.90909H6.71493V23H11.7149ZM9.21493 12.4091H14.3797V7.40909H9.21493V12.4091ZM14.3797 12.4091C15.058 12.4091 15.4722 12.5382 15.7249 12.6753L18.1098 8.28069C16.9647 7.65928 15.6872 7.40909 14.3797 7.40909V12.4091ZM15.7353 12.6809C16.0253 12.8365 16.1985 13.0183 16.3228 13.2451L20.708 10.843C20.0992 9.73171 19.2072 8.8695 18.0994 8.27508L15.7353 12.6809ZM16.3319 13.2617C16.4671 13.5041 16.5715 13.8407 16.5715 14.3452H21.5715C21.5715 13.111 21.3051 11.9135 20.6988 10.8264L16.3319 13.2617ZM16.5715 14.3452C16.5715 14.8448 16.4671 15.1776 16.3315 15.418L20.6864 17.8746C21.3008 16.7854 21.5715 15.5842 21.5715 14.3452H16.5715ZM16.3315 15.418C16.2069 15.6389 16.0294 15.8233 15.7239 15.9824L18.034 20.4167C19.1519 19.8344 20.061 18.9833 20.6864 17.8746L16.3315 15.418ZM15.7185 15.9853C15.4501 16.1259 15.0133 16.2557 14.3094 16.2557V21.2557C15.6168 21.2557 16.8931 21.0147 18.0395 20.4139L15.7185 15.9853ZM14.3094 16.2557H11.0175V21.2557H14.3094V16.2557ZM13.5175 18.7557V16.5376H8.51749V18.7557H13.5175ZM11.0175 19.0376H13.8619V14.0376H11.0175V19.0376ZM13.8619 19.0376C14.662 19.0376 15.5377 18.9027 16.3509 18.4709L14.0065 14.0546C14.07 14.0209 14.1019 14.0171 14.0798 14.0217C14.0562 14.0266 13.9877 14.0376 13.8619 14.0376V19.0376ZM16.3608 18.4657C17.1197 18.0584 17.7576 17.4493 18.1771 16.6418L13.74 14.3369C13.7731 14.2733 13.8194 14.2092 13.8753 14.1538C13.9301 14.0994 13.9765 14.0707 13.9967 14.0599L16.3608 18.4657ZM18.1715 16.6525C18.5607 15.9121 18.7206 15.1212 18.7206 14.3452H13.7206C13.7206 14.391 13.716 14.4054 13.7182 14.3958C13.7193 14.3912 13.7217 14.382 13.7264 14.3692C13.7311 14.3564 13.7374 14.3417 13.7456 14.3262L18.1715 16.6525ZM18.7206 14.3452C18.7206 13.5712 18.5631 12.7698 18.1588 12.0204L13.7583 14.3944C13.7463 14.3722 13.7373 14.3516 13.7306 14.3338C13.724 14.3161 13.7205 14.3031 13.7189 14.2959C13.7156 14.2815 13.7206 14.2951 13.7206 14.3452H18.7206ZM18.1771 12.0549C17.7519 11.2366 17.0999 10.6219 16.3184 10.2216L14.039 14.6718C14.0091 14.6565 13.9531 14.6222 13.8901 14.5608C13.826 14.4983 13.7752 14.4276 13.74 14.3599L18.1771 12.0549ZM16.3397 10.2327C15.5265 9.80623 14.6515 9.67188 13.8492 9.67188V14.6719C13.9781 14.6719 14.0504 14.6831 14.0781 14.6888C14.1044 14.6942 14.077 14.6919 14.0177 14.6608L16.3397 10.2327ZM13.8492 9.67188H11.9827V14.6719H13.8492V9.67188ZM9.48269 12.1719V23H14.4827V12.1719H9.48269ZM11.9827 20.5H9.21493V25.5H11.9827V20.5ZM29.5496 14.1406L27.1471 14.8318L27.6674 16.6406H29.5496V14.1406ZM29.1725 13.3161L27.0924 14.7028L27.0981 14.7113L27.1038 14.7198L29.1725 13.3161ZM28.578 12.7024L27.09 14.7113L27.1108 14.7267L27.132 14.7417L28.578 12.7024ZM27.7854 12.3125L27.0575 14.7042L27.0671 14.7071L27.7854 12.3125ZM25.0432 12.6768L23.6727 10.586L23.6647 10.5913L25.0432 12.6768ZM23.8671 14.1278L26.1504 15.1461L26.1529 15.1403L23.8671 14.1278ZM25.0368 20.2322L23.6541 22.3151L23.6602 22.3191L23.6664 22.3231L25.0368 20.2322ZM28.4374 20.3984L29.5555 22.6345L29.5639 22.6302L28.4374 20.3984ZM29.4601 19.446L27.3007 18.1863L27.2958 18.1948L27.2909 18.2032L29.4601 19.446ZM29.8181 17.995L30.1834 15.5219L27.3181 15.0986V17.995H29.8181ZM30.3806 18.0781V20.5781L30.7459 15.605L30.3806 18.0781ZM27.0056 18.0781H24.5056V20.5781H27.0056V18.0781ZM27.0056 15.9943V13.4943H24.5056V15.9943H27.0056ZM32.4836 15.9943H34.9836V13.4943H32.4836V15.9943ZM31.7549 20.6094L33.9074 21.8808L33.9103 21.876L31.7549 20.6094ZM29.7478 22.5142L30.9012 24.7323L30.9099 24.7277L29.7478 22.5142ZM23.5858 22.3672L22.32 24.5231L22.3274 24.5274L23.5858 22.3672ZM21.4126 20.0469L19.1879 21.1875L19.1937 21.1988L21.4126 20.0469ZM21.0993 13.6293L18.7566 12.7567L18.7541 12.7633L21.0993 13.6293ZM22.4033 11.5071L24.2039 13.2415L24.2039 13.2415L22.4033 11.5071ZM24.3529 10.1839L23.4084 7.86923L23.4084 7.86923L24.3529 10.1839ZM28.8337 10.0561L28.029 12.423L28.036 12.4254L28.0431 12.4278L28.8337 10.0561ZM30.534 10.9638L28.9805 12.9225L28.9887 12.929L30.534 10.9638ZM31.7549 12.3636L29.5948 13.6223L29.5992 13.6297L31.7549 12.3636ZM32.3621 14.1406V16.6406H35.2313L34.8386 13.7985L32.3621 14.1406ZM31.9522 13.4495C31.7986 12.9154 31.5683 12.3943 31.2412 11.9123L27.1038 14.7198C27.1006 14.7151 27.1217 14.7437 27.1471 14.8318L31.9522 13.4495ZM31.2526 11.9293C30.9238 11.4361 30.512 11.0091 30.0241 10.6631L27.132 14.7417C27.1248 14.7367 27.1157 14.7292 27.1068 14.72C27.098 14.7108 27.0933 14.7041 27.0924 14.7028L31.2526 11.9293ZM30.0661 10.6935C29.5842 10.3365 29.0548 10.0832 28.5038 9.91793L27.0671 14.7071C27.0914 14.7144 27.1025 14.7198 27.1038 14.7204C27.1047 14.7208 27.0991 14.7181 27.09 14.7113L30.0661 10.6935ZM28.5133 9.92081C27.9482 9.74883 27.3725 9.67827 26.8074 9.67827V14.6783C26.9583 14.6783 27.0345 14.6972 27.0575 14.7042L28.5133 9.92081ZM26.8074 9.67827C25.7038 9.67827 24.6287 9.95936 23.6727 10.586L26.4137 14.7677C26.4719 14.7296 26.573 14.6783 26.8074 14.6783V9.67827ZM23.6647 10.5913C22.7052 11.2255 22.026 12.1114 21.5813 13.1153L26.1529 15.1403C26.2707 14.8744 26.3756 14.793 26.4218 14.7624L23.6647 10.5913ZM21.5838 13.1096C21.1217 14.1459 20.9452 15.2861 20.9452 16.4418H25.9452C25.9452 15.7736 26.05 15.3711 26.1504 15.146L21.5838 13.1096ZM20.9452 16.4418C20.9452 17.5949 21.1188 18.7287 21.5668 19.7625L26.1546 17.7744C26.0486 17.5299 25.9452 17.1125 25.9452 16.4418H20.9452ZM21.5668 19.7625C22.0074 20.7793 22.6886 21.6741 23.6541 22.3151L26.4196 18.1494C26.3709 18.1171 26.268 18.0361 26.1546 17.7744L21.5668 19.7625ZM23.6664 22.3231C24.6351 22.9581 25.7252 23.2308 26.833 23.2308V18.2308C26.5601 18.2308 26.4528 18.1711 26.4073 18.1414L23.6664 22.3231ZM26.833 23.2308C27.7477 23.2308 28.6857 23.0694 29.5554 22.6345L27.3194 18.1624C27.3028 18.1707 27.1711 18.2308 26.833 18.2308V23.2308ZM29.5639 22.6302C30.4193 22.1985 31.1361 21.5498 31.6294 20.6888L27.2909 18.2032C27.2932 18.1993 27.2976 18.1923 27.3044 18.1838C27.3112 18.1752 27.3183 18.1675 27.3249 18.1614C27.3314 18.1553 27.3352 18.1528 27.3343 18.1534C27.3334 18.154 27.3263 18.1589 27.3109 18.1666L29.5639 22.6302ZM31.6196 20.7057C32.1182 19.8509 32.3181 18.9162 32.3181 17.995H27.3181C27.3181 18.0962 27.3073 18.1537 27.3014 18.1777C27.296 18.1996 27.2935 18.1986 27.3007 18.1863L31.6196 20.7057ZM29.4527 20.4682L30.0152 20.5513L30.7459 15.605L30.1834 15.5219L29.4527 20.4682ZM30.3806 15.5781H27.0056V20.5781H30.3806V15.5781ZM29.5056 18.0781V15.9943H24.5056V18.0781H29.5056ZM27.0056 18.4943H32.4836V13.4943H27.0056V18.4943ZM29.9836 15.9943V17.6435H34.9836V15.9943H29.9836ZM29.9836 17.6435C29.9836 18.4379 29.8184 18.9703 29.5995 19.3428L33.9103 21.876C34.663 20.595 34.9836 19.1501 34.9836 17.6435H29.9836ZM29.6023 19.3379C29.3547 19.7572 29.0301 20.0674 28.5857 20.3007L30.9099 24.7277C32.17 24.0661 33.1835 23.1065 33.9074 21.8808L29.6023 19.3379ZM28.5944 20.2962C28.1468 20.5289 27.5766 20.679 26.8202 20.679V25.679C28.2628 25.679 29.6442 25.3859 30.9012 24.7322L28.5944 20.2962ZM26.8202 20.679C25.9715 20.679 25.3397 20.4957 24.8443 20.207L22.3274 24.5274C23.6899 25.3211 25.2144 25.679 26.8202 25.679V20.679ZM24.8517 20.2113C24.3482 19.9157 23.9452 19.4995 23.6314 18.895L19.1937 21.1988C19.9197 22.5971 20.9655 23.7277 22.32 24.523L24.8517 20.2113ZM23.6372 18.9063C23.3383 18.3234 23.1391 17.538 23.1391 16.4673H18.1391C18.1391 18.158 18.4555 19.759 19.1879 21.1875L23.6372 18.9063ZM23.1391 16.4673C23.1391 15.6448 23.2581 15.0001 23.4446 14.4952L18.7541 12.7633C18.3269 13.9203 18.1391 15.1677 18.1391 16.4673H23.1391ZM23.4421 14.5018C23.6464 13.9533 23.908 13.5486 24.2039 13.2415L20.6028 9.77274C19.7821 10.6247 19.1744 11.6348 18.7566 12.7567L23.4421 14.5018ZM24.2039 13.2415C24.5215 12.9117 24.8802 12.6689 25.2974 12.4987L23.4084 7.86923C22.3426 8.30411 21.4016 8.94344 20.6028 9.77274L24.2039 13.2415ZM25.2974 12.4987C25.7157 12.328 26.1953 12.2301 26.7627 12.2301V7.23011C25.6 7.23011 24.4731 7.4348 23.4084 7.86923L25.2974 12.4987ZM26.7627 12.2301C27.2572 12.2301 27.6731 12.302 28.029 12.423L29.6385 7.68918C28.7159 7.37551 27.7511 7.23011 26.7627 7.23011V12.2301ZM28.0431 12.4278C28.4248 12.555 28.7296 12.7235 28.9805 12.9225L32.0875 9.00503C31.3498 8.41995 30.521 7.98331 29.6243 7.6844L28.0431 12.4278ZM28.9887 12.929C29.2429 13.1288 29.4401 13.3567 29.5948 13.6223L33.9149 11.105C33.439 10.2882 32.8223 9.5828 32.0793 8.99856L28.9887 12.929ZM29.5992 13.6297C29.7395 13.8687 29.8389 14.1445 29.8857 14.4828L34.8386 13.7985C34.7064 12.8413 34.4009 11.9325 33.9106 11.0976L29.5992 13.6297ZM32.3621 11.6406H29.5496V16.6406H32.3621V11.6406ZM38.7286 23H36.2286V25.5H38.7286V23ZM38.7286 9.90909V7.40909H36.2286V9.90909H38.7286ZM46.8082 10.6953L45.6007 12.8844L45.6083 12.8885L46.8082 10.6953ZM49.0006 12.9389L46.7862 14.0993L46.7902 14.1069L49.0006 12.9389ZM49.0006 19.9574L46.7881 18.7934L46.7842 18.801L49.0006 19.9574ZM46.7954 22.2138L45.5962 20.0202L45.5921 20.0224L46.7954 22.2138ZM41.4964 20.6286H38.9964V23.1286H41.4964V20.6286ZM45.3188 20.1939L46.4706 22.4128L46.4769 22.4095L45.3188 20.1939ZM46.5844 18.8324L44.315 17.7837L44.3118 17.7907L46.5844 18.8324ZM46.5844 14.0703L44.3118 15.1119L44.3147 15.1185L44.3178 15.1249L46.5844 14.0703ZM45.3252 12.7152L46.477 10.4963L46.477 10.4963L45.3252 12.7152ZM41.4964 12.2805V9.78054H38.9964V12.2805H41.4964ZM43.3692 20.5H38.7286V25.5H43.3692V20.5ZM41.2286 23V9.90909H36.2286V23H41.2286ZM38.7286 12.4091H43.4076V7.40909H38.7286V12.4091ZM43.4076 12.4091C44.3916 12.4091 45.0914 12.6035 45.6007 12.8844L48.0156 8.50623C46.6244 7.73887 45.0571 7.40909 43.4076 7.40909V12.4091ZM45.6083 12.8885C46.1181 13.1675 46.4996 13.5523 46.7862 14.0993L51.215 11.7785C50.4789 10.3738 49.3988 9.26292 48.008 8.50208L45.6083 12.8885ZM46.7902 14.1069C47.0765 14.6487 47.2741 15.3965 47.2741 16.4418H52.2741C52.2741 14.7682 51.956 13.1808 51.211 11.771L46.7902 14.1069ZM47.2741 16.4418C47.2741 17.4923 47.0761 18.246 46.7881 18.7934L51.2131 21.1214C51.9564 19.7086 52.2741 18.1185 52.2741 16.4418H47.2741ZM46.7842 18.801C46.4989 19.3477 46.1153 19.7364 45.5962 20.0202L47.9945 24.4074C49.393 23.6429 50.4796 22.5273 51.2171 21.1138L46.7842 18.801ZM45.5921 20.0224C45.0794 20.3039 44.3702 20.5 43.3692 20.5V25.5C45.0273 25.5 46.6023 25.1719 47.9987 24.4051L45.5921 20.0224ZM41.4964 23.1286H43.2542V18.1286H41.4964V23.1286ZM43.2542 23.1286C44.3567 23.1286 45.4657 22.9344 46.4706 22.4128L44.167 17.975C44.0554 18.033 43.788 18.1286 43.2542 18.1286V23.1286ZM46.4769 22.4095C47.5632 21.8416 48.3605 20.9575 48.8571 19.874L44.3118 17.7907C44.2459 17.9345 44.1994 17.9581 44.1607 17.9783L46.4769 22.4095ZM48.8539 19.881C49.3423 18.8239 49.5127 17.6342 49.5127 16.4418H44.5127C44.5127 17.201 44.3976 17.6051 44.315 17.7837L48.8539 19.881ZM49.5127 16.4418C49.5127 15.2552 49.3416 14.0699 48.8511 13.0157L44.3178 15.1249C44.3983 15.298 44.5127 15.6936 44.5127 16.4418H49.5127ZM48.8571 13.0287C48.3619 11.9483 47.5669 11.0621 46.477 10.4963L44.1734 14.9341C44.2 14.9479 44.2444 14.965 44.3118 15.1119L48.8571 13.0287ZM46.477 10.4963C45.4721 9.97472 44.3631 9.78054 43.2606 9.78054V14.7805C43.7944 14.7805 44.0618 14.8761 44.1734 14.9341L46.477 10.4963ZM43.2606 9.78054H41.4964V14.7805H43.2606V9.78054ZM38.9964 12.2805V20.6286H43.9964V12.2805H38.9964ZM62.7739 9.90909H65.2739V7.40909H62.7739V9.90909ZM62.7739 23V25.5H65.2739V23H62.7739ZM60.3833 23L58.3267 24.4215L59.0722 25.5H60.3833V23ZM54.6879 14.7607L56.7445 13.3391L55.999 12.2607H54.6879V14.7607ZM54.5921 14.7607V12.2607H52.0921V14.7607H54.5921ZM54.5921 23V25.5H57.0921V23H54.5921ZM51.8243 23H49.3243V25.5H51.8243V23ZM51.8243 9.90909V7.40909H49.3243V9.90909H51.8243ZM54.2533 9.90909L56.3145 8.4944L55.5696 7.40909H54.2533V9.90909ZM59.9039 18.142L57.8426 19.5567L58.5875 20.642H59.9039V18.142ZM60.0189 18.142V20.642H62.5189V18.142H60.0189ZM60.0189 9.90909V7.40909H57.5189V9.90909H60.0189ZM60.2739 9.90909V23H65.2739V9.90909H60.2739ZM62.7739 20.5H60.3833V25.5H62.7739V20.5ZM62.4398 21.5785L56.7445 13.3391L52.6314 16.1822L58.3267 24.4215L62.4398 21.5785ZM54.6879 12.2607H54.5921V17.2607H54.6879V12.2607ZM52.0921 14.7607V23H57.0921V14.7607H52.0921ZM54.5921 20.5H51.8243V25.5H54.5921V20.5ZM54.3243 23V9.90909H49.3243V23H54.3243ZM51.8243 12.4091H54.2533V7.40909H51.8243V12.4091ZM52.1921 11.3238L57.8426 19.5567L61.9651 16.7274L56.3145 8.4944L52.1921 11.3238ZM59.9039 20.642H60.0189V15.642H59.9039V20.642ZM62.5189 18.142V9.90909H57.5189V18.142H62.5189ZM60.0189 12.4091H62.7739V7.40909H60.0189V12.4091Z" fill="white" mask="url(#path-2-inside-1_202_28)"/>
</g>
<defs>
<clipPath id="clip0_202_28">
<rect width="72" height="32" fill="white"/>
</clipPath>
</defs>
</svg>
