<svg width="72" height="32" viewBox="0 0 72 32" fill="none" xmlns="http://www.w3.org/2000/svg">
<g clip-path="url(#clip0_202_99)">
<rect width="72" height="32" rx="8" fill="black"/>
<mask id="path-2-inside-1_202_99" fill="white">
<path d="M25.3588 9.90909V23H22.9682L17.2729 14.7607H17.177V23H14.4093V9.90909H16.8382L22.4888 18.142H22.6039V9.90909H25.3588ZM27.6456 23V9.90909H32.8104C33.8033 9.90909 34.6491 10.0987 35.348 10.478C36.0469 10.853 36.5795 11.375 36.946 12.044C37.3168 12.7088 37.5021 13.4759 37.5021 14.3452C37.5021 15.2145 37.3146 15.9815 36.9396 16.6463C36.5646 17.3111 36.0213 17.8288 35.3097 18.1996C34.6023 18.5703 33.7457 18.7557 32.7401 18.7557H29.4482V16.5376H32.2926C32.8253 16.5376 33.2642 16.446 33.6094 16.2628C33.9588 16.0753 34.2188 15.8175 34.3892 15.4893C34.5639 15.157 34.6513 14.7756 34.6513 14.3452C34.6513 13.9105 34.5639 13.5312 34.3892 13.2074C34.2188 12.8793 33.9588 12.6257 33.6094 12.4467C33.2599 12.2635 32.8168 12.1719 32.2798 12.1719H30.4134V23H27.6456ZM51.4672 21.0057V11.9545H53.7555V21.0057H51.4672ZM48.0858 17.6243V15.3359H57.1369V17.6243H48.0858Z"/>
</mask>
<path d="M25.3588 9.90909H27.8588V7.40909H25.3588V9.90909ZM25.3588 23V25.5H27.8588V23H25.3588ZM22.9682 23L20.9117 24.4215L21.6572 25.5H22.9682V23ZM17.2729 14.7607L19.3294 13.3391L18.5839 12.2607H17.2729V14.7607ZM17.177 14.7607V12.2607H14.677V14.7607H17.177ZM17.177 23V25.5H19.677V23H17.177ZM14.4093 23H11.9093V25.5H14.4093V23ZM14.4093 9.90909V7.40909H11.9093V9.90909H14.4093ZM16.8382 9.90909L18.8995 8.4944L18.1546 7.40909H16.8382V9.90909ZM22.4888 18.142L20.4276 19.5567L21.1725 20.642H22.4888V18.142ZM22.6039 18.142V20.642H25.1039V18.142H22.6039ZM22.6039 9.90909V7.40909H20.1039V9.90909H22.6039ZM22.8588 9.90909V23H27.8588V9.90909H22.8588ZM25.3588 20.5H22.9682V25.5H25.3588V20.5ZM25.0247 21.5785L19.3294 13.3391L15.2164 16.1822L20.9117 24.4215L25.0247 21.5785ZM17.2729 12.2607H17.177V17.2607H17.2729V12.2607ZM14.677 14.7607V23H19.677V14.7607H14.677ZM17.177 20.5H14.4093V25.5H17.177V20.5ZM16.9093 23V9.90909H11.9093V23H16.9093ZM14.4093 12.4091H16.8382V7.40909H14.4093V12.4091ZM14.777 11.3238L20.4276 19.5567L24.55 16.7274L18.8995 8.4944L14.777 11.3238ZM22.4888 20.642H22.6039V15.642H22.4888V20.642ZM25.1039 18.142V9.90909H20.1039V18.142H25.1039ZM22.6039 12.4091H25.3588V7.40909H22.6039V12.4091ZM27.6456 23H25.1456V25.5H27.6456V23ZM27.6456 9.90909V7.40909H25.1456V9.90909H27.6456ZM35.348 10.478L34.1556 12.6753L34.166 12.6809L35.348 10.478ZM36.946 12.044L34.7534 13.2451L34.758 13.2534L34.7626 13.2617L36.946 12.044ZM35.3097 18.1996L34.1546 15.9824L34.1491 15.9853L35.3097 18.1996ZM29.4482 18.7557H26.9482V21.2557H29.4482V18.7557ZM29.4482 16.5376V14.0376H26.9482V16.5376H29.4482ZM33.6094 16.2628L34.7816 18.4709L34.7914 18.4657L33.6094 16.2628ZM34.3892 15.4893L32.1763 14.3261L32.1707 14.3369L34.3892 15.4893ZM34.3892 13.2074L32.1707 14.3599L32.1797 14.3772L32.189 14.3944L34.3892 13.2074ZM33.6094 12.4467L32.4483 14.6608L32.459 14.6664L32.4697 14.6718L33.6094 12.4467ZM30.4134 12.1719V9.67188H27.9134V12.1719H30.4134ZM30.4134 23V25.5H32.9134V23H30.4134ZM30.1456 23V9.90909H25.1456V23H30.1456ZM27.6456 12.4091H32.8104V7.40909H27.6456V12.4091ZM32.8104 12.4091C33.4886 12.4091 33.9029 12.5382 34.1556 12.6753L36.5404 8.28069C35.3954 7.65928 34.1179 7.40909 32.8104 7.40909V12.4091ZM34.166 12.6809C34.4559 12.8365 34.6292 13.0183 34.7534 13.2451L39.1386 10.843C38.5299 9.73171 37.6378 8.8695 36.5301 8.27508L34.166 12.6809ZM34.7626 13.2617C34.8978 13.5041 35.0021 13.8407 35.0021 14.3452H40.0021C40.0021 13.111 39.7357 11.9135 39.1294 10.8264L34.7626 13.2617ZM35.0021 14.3452C35.0021 14.8448 34.8978 15.1776 34.7622 15.418L39.1171 17.8746C39.7315 16.7854 40.0021 15.5842 40.0021 14.3452H35.0021ZM34.7622 15.418C34.6376 15.6389 34.4601 15.8233 34.1546 15.9824L36.4647 20.4167C37.5825 19.8344 38.4917 18.9833 39.1171 17.8746L34.7622 15.418ZM34.1491 15.9853C33.8807 16.1259 33.444 16.2557 32.7401 16.2557V21.2557C34.0475 21.2557 35.3238 21.0147 36.4702 20.4139L34.1491 15.9853ZM32.7401 16.2557H29.4482V21.2557H32.7401V16.2557ZM31.9482 18.7557V16.5376H26.9482V18.7557H31.9482ZM29.4482 19.0376H32.2926V14.0376H29.4482V19.0376ZM32.2926 19.0376C33.0926 19.0376 33.9684 18.9027 34.7816 18.4709L32.4372 14.0546C32.5007 14.0209 32.5325 14.0171 32.5105 14.0217C32.4869 14.0266 32.4183 14.0376 32.2926 14.0376V19.0376ZM34.7914 18.4657C35.5504 18.0584 36.1883 17.4493 36.6077 16.6418L32.1707 14.3369C32.2037 14.2733 32.25 14.2092 32.3059 14.1538C32.3607 14.0994 32.4072 14.0707 32.4273 14.0599L34.7914 18.4657ZM36.6021 16.6525C36.9913 15.9121 37.1513 15.1212 37.1513 14.3452H32.1513C32.1513 14.391 32.1467 14.4054 32.1489 14.3958C32.1499 14.3912 32.1524 14.382 32.157 14.3692C32.1618 14.3564 32.1681 14.3417 32.1763 14.3262L36.6021 16.6525ZM37.1513 14.3452C37.1513 13.5712 36.9937 12.7698 36.5895 12.0204L32.189 14.3944C32.177 14.3722 32.1679 14.3516 32.1613 14.3338C32.1547 14.3161 32.1512 14.3031 32.1496 14.2959C32.1462 14.2815 32.1513 14.2951 32.1513 14.3452H37.1513ZM36.6077 12.0549C36.1826 11.2366 35.5305 10.6219 34.7491 10.2216L32.4697 14.6718C32.4398 14.6565 32.3838 14.6222 32.3208 14.5608C32.2567 14.4983 32.2059 14.4276 32.1707 14.3599L36.6077 12.0549ZM34.7704 10.2327C33.9572 9.80623 33.0822 9.67188 32.2798 9.67188V14.6719C32.4087 14.6719 32.4811 14.6831 32.5088 14.6888C32.535 14.6942 32.5076 14.6919 32.4483 14.6608L34.7704 10.2327ZM32.2798 9.67188H30.4134V14.6719H32.2798V9.67188ZM27.9134 12.1719V23H32.9134V12.1719H27.9134ZM30.4134 20.5H27.6456V25.5H30.4134V20.5ZM51.4672 21.0057H48.9672V23.5057H51.4672V21.0057ZM51.4672 11.9545V9.45455H48.9672V11.9545H51.4672ZM53.7555 11.9545H56.2555V9.45455H53.7555V11.9545ZM53.7555 21.0057V23.5057H56.2555V21.0057H53.7555ZM48.0858 17.6243H45.5858V20.1243H48.0858V17.6243ZM48.0858 15.3359V12.8359H45.5858V15.3359H48.0858ZM57.1369 15.3359H59.6369V12.8359H57.1369V15.3359ZM57.1369 17.6243V20.1243H59.6369V17.6243H57.1369ZM53.9672 21.0057V11.9545H48.9672V21.0057H53.9672ZM51.4672 14.4545H53.7555V9.45455H51.4672V14.4545ZM51.2555 11.9545V21.0057H56.2555V11.9545H51.2555ZM53.7555 18.5057H51.4672V23.5057H53.7555V18.5057ZM50.5858 17.6243V15.3359H45.5858V17.6243H50.5858ZM48.0858 17.8359H57.1369V12.8359H48.0858V17.8359ZM54.6369 15.3359V17.6243H59.6369V15.3359H54.6369ZM57.1369 15.1243H48.0858V20.1243H57.1369V15.1243Z" fill="white" mask="url(#path-2-inside-1_202_99)"/>
</g>
<defs>
<clipPath id="clip0_202_99">
<rect width="72" height="32" fill="white"/>
</clipPath>
</defs>
</svg>
