<svg width="72" height="32" viewBox="0 0 72 32" fill="none" xmlns="http://www.w3.org/2000/svg">
<g clip-path="url(#clip0_202_67)">
<rect width="72" height="32" rx="8" fill="black"/>
<mask id="path-2-inside-1_202_67" fill="white">
<path d="M27.4243 9.90909V23H25.0336L19.3383 14.7607H19.2425V23H16.4747V9.90909H18.9037L24.5542 18.142H24.6693V9.90909H27.4243ZM29.711 23V9.90909H34.8758C35.8687 9.90909 36.7146 10.0987 37.4134 10.478C38.1123 10.853 38.645 11.375 39.0115 12.044C39.3822 12.7088 39.5676 13.4759 39.5676 14.3452C39.5676 15.2145 39.3801 15.9815 39.0051 16.6463C38.6301 17.3111 38.0867 17.8288 37.3751 18.1996C36.6677 18.5703 35.8112 18.7557 34.8055 18.7557H31.5136V16.5376H34.358C34.8907 16.5376 35.3296 16.446 35.6748 16.2628C36.0242 16.0753 36.2842 15.8175 36.4546 15.4893C36.6294 15.157 36.7167 14.7756 36.7167 14.3452C36.7167 13.9105 36.6294 13.5312 36.4546 13.2074C36.2842 12.8793 36.0242 12.6257 35.6748 12.4467C35.3254 12.2635 34.8822 12.1719 34.3453 12.1719H32.4788V23H29.711ZM50.6833 23.179C50.01 23.1747 49.3602 23.0618 48.7338 22.8402C48.1116 22.6186 47.5534 22.2585 47.059 21.7599C46.5647 21.2614 46.1727 20.6009 45.8829 19.7784C45.5974 18.956 45.4546 17.946 45.4546 16.7486C45.4589 15.6491 45.5846 14.6669 45.8318 13.8018C46.0832 12.9325 46.4411 12.1953 46.9056 11.5902C47.3744 10.9851 47.9347 10.5249 48.5867 10.2095C49.2387 9.88991 49.9695 9.73011 50.7792 9.73011C51.6528 9.73011 52.4241 9.90057 53.0931 10.2415C53.7622 10.5781 54.2991 11.0362 54.7039 11.6158C55.113 12.1953 55.3602 12.8452 55.4454 13.5653H52.716C52.6095 13.1094 52.3857 12.7514 52.0448 12.4915C51.7039 12.2315 51.282 12.1016 50.7792 12.1016C49.9269 12.1016 49.2792 12.4723 48.836 13.2138C48.3971 13.9553 48.1734 14.9631 48.1649 16.2372H48.2544C48.4504 15.8494 48.7146 15.5192 49.047 15.2464C49.3836 14.9695 49.765 14.7585 50.1911 14.6136C50.6215 14.4645 51.0754 14.3899 51.5526 14.3899C52.3282 14.3899 53.0186 14.5732 53.6237 14.9396C54.2288 15.3018 54.7061 15.8004 55.0555 16.4354C55.4049 17.0703 55.5796 17.7969 55.5796 18.6151C55.5796 19.5014 55.373 20.2898 54.9596 20.9801C54.5505 21.6705 53.9774 22.2116 53.2401 22.6037C52.5072 22.9915 51.6549 23.1832 50.6833 23.179ZM50.6705 21.0057C51.0967 21.0057 51.4781 20.9034 51.8147 20.6989C52.1514 20.4943 52.4156 20.2173 52.6073 19.8679C52.7991 19.5185 52.895 19.1264 52.895 18.6918C52.895 18.2571 52.7991 17.8672 52.6073 17.522C52.4198 17.1768 52.1599 16.902 51.8275 16.6974C51.4951 16.4929 51.1159 16.3906 50.6897 16.3906C50.3701 16.3906 50.074 16.4503 49.8012 16.5696C49.5328 16.6889 49.2963 16.8551 49.0917 17.0682C48.8914 17.2812 48.7338 17.5284 48.6187 17.8097C48.5036 18.0866 48.4461 18.3828 48.4461 18.6982C48.4461 19.12 48.542 19.5057 48.7338 19.8551C48.9298 20.2045 49.194 20.4837 49.5264 20.6925C49.863 20.9013 50.2444 21.0057 50.6705 21.0057Z"/>
</mask>
<path d="M27.4243 9.90909H29.9243V7.40909H27.4243V9.90909ZM27.4243 23V25.5H29.9243V23H27.4243ZM25.0336 23L22.9771 24.4215L23.7226 25.5H25.0336V23ZM19.3383 14.7607L21.3948 13.3391L20.6494 12.2607H19.3383V14.7607ZM19.2425 14.7607V12.2607H16.7425V14.7607H19.2425ZM19.2425 23V25.5H21.7425V23H19.2425ZM16.4747 23H13.9747V25.5H16.4747V23ZM16.4747 9.90909V7.40909H13.9747V9.90909H16.4747ZM18.9037 9.90909L20.9649 8.4944L20.22 7.40909H18.9037V9.90909ZM24.5542 18.142L22.493 19.5567L23.2379 20.642H24.5542V18.142ZM24.6693 18.142V20.642H27.1693V18.142H24.6693ZM24.6693 9.90909V7.40909H22.1693V9.90909H24.6693ZM24.9243 9.90909V23H29.9243V9.90909H24.9243ZM27.4243 20.5H25.0336V25.5H27.4243V20.5ZM27.0902 21.5785L21.3948 13.3391L17.2818 16.1822L22.9771 24.4215L27.0902 21.5785ZM19.3383 12.2607H19.2425V17.2607H19.3383V12.2607ZM16.7425 14.7607V23H21.7425V14.7607H16.7425ZM19.2425 20.5H16.4747V25.5H19.2425V20.5ZM18.9747 23V9.90909H13.9747V23H18.9747ZM16.4747 12.4091H18.9037V7.40909H16.4747V12.4091ZM16.8425 11.3238L22.493 19.5567L26.6155 16.7274L20.9649 8.4944L16.8425 11.3238ZM24.5542 20.642H24.6693V15.642H24.5542V20.642ZM27.1693 18.142V9.90909H22.1693V18.142H27.1693ZM24.6693 12.4091H27.4243V7.40909H24.6693V12.4091ZM29.711 23H27.211V25.5H29.711V23ZM29.711 9.90909V7.40909H27.211V9.90909H29.711ZM37.4134 10.478L36.221 12.6753L36.2314 12.6809L37.4134 10.478ZM39.0115 12.044L36.8189 13.2451L36.8234 13.2534L36.828 13.2617L39.0115 12.044ZM37.3751 18.1996L36.22 15.9824L36.2146 15.9853L37.3751 18.1996ZM31.5136 18.7557H29.0136V21.2557H31.5136V18.7557ZM31.5136 16.5376V14.0376H29.0136V16.5376H31.5136ZM35.6748 16.2628L36.847 18.4709L36.8568 18.4657L35.6748 16.2628ZM36.4546 15.4893L34.2417 14.3261L34.2361 14.3369L36.4546 15.4893ZM36.4546 13.2074L34.2361 14.3599L34.2451 14.3772L34.2544 14.3944L36.4546 13.2074ZM35.6748 12.4467L34.5138 14.6608L34.5244 14.6664L34.5351 14.6718L35.6748 12.4467ZM32.4788 12.1719V9.67188H29.9788V12.1719H32.4788ZM32.4788 23V25.5H34.9788V23H32.4788ZM32.211 23V9.90909H27.211V23H32.211ZM29.711 12.4091H34.8758V7.40909H29.711V12.4091ZM34.8758 12.4091C35.5541 12.4091 35.9683 12.5382 36.221 12.6753L38.6059 8.28069C37.4608 7.65928 36.1833 7.40909 34.8758 7.40909V12.4091ZM36.2314 12.6809C36.5213 12.8365 36.6946 13.0183 36.8189 13.2451L41.2041 10.843C40.5953 9.73171 39.7033 8.8695 38.5955 8.27508L36.2314 12.6809ZM36.828 13.2617C36.9632 13.5041 37.0676 13.8407 37.0676 14.3452H42.0676C42.0676 13.111 41.8012 11.9135 41.1949 10.8264L36.828 13.2617ZM37.0676 14.3452C37.0676 14.8448 36.9632 15.1776 36.8276 15.418L41.1825 17.8746C41.7969 16.7854 42.0676 15.5842 42.0676 14.3452H37.0676ZM36.8276 15.418C36.703 15.6389 36.5255 15.8233 36.22 15.9824L38.5301 20.4167C39.648 19.8344 40.5571 18.9833 41.1825 17.8746L36.8276 15.418ZM36.2146 15.9853C35.9462 16.1259 35.5094 16.2557 34.8055 16.2557V21.2557C36.1129 21.2557 37.3892 21.0147 38.5356 20.4139L36.2146 15.9853ZM34.8055 16.2557H31.5136V21.2557H34.8055V16.2557ZM34.0136 18.7557V16.5376H29.0136V18.7557H34.0136ZM31.5136 19.0376H34.358V14.0376H31.5136V19.0376ZM34.358 19.0376C35.1581 19.0376 36.0338 18.9027 36.847 18.4709L34.5026 14.0546C34.5661 14.0209 34.598 14.0171 34.5759 14.0217C34.5523 14.0266 34.4837 14.0376 34.358 14.0376V19.0376ZM36.8568 18.4657C37.6158 18.0584 38.2537 17.4493 38.6731 16.6418L34.2361 14.3369C34.2692 14.2733 34.3155 14.2092 34.3714 14.1538C34.4262 14.0994 34.4726 14.0707 34.4928 14.0599L36.8568 18.4657ZM38.6675 16.6525C39.0568 15.9121 39.2167 15.1212 39.2167 14.3452H34.2167C34.2167 14.391 34.2121 14.4054 34.2143 14.3958C34.2154 14.3912 34.2178 14.382 34.2225 14.3692C34.2272 14.3564 34.2335 14.3417 34.2417 14.3262L38.6675 16.6525ZM39.2167 14.3452C39.2167 13.5712 39.0592 12.7698 38.6549 12.0204L34.2544 14.3944C34.2424 14.3722 34.2333 14.3516 34.2267 14.3338C34.2201 14.3161 34.2166 14.3031 34.215 14.2959C34.2117 14.2815 34.2167 14.2951 34.2167 14.3452H39.2167ZM38.6731 12.0549C38.248 11.2366 37.596 10.6219 36.8145 10.2216L34.5351 14.6718C34.5052 14.6565 34.4492 14.6222 34.3862 14.5608C34.3221 14.4983 34.2713 14.4276 34.2361 14.3599L38.6731 12.0549ZM36.8358 10.2327C36.0226 9.80623 35.1476 9.67188 34.3453 9.67188V14.6719C34.4742 14.6719 34.5465 14.6831 34.5742 14.6888C34.6004 14.6942 34.5731 14.6919 34.5138 14.6608L36.8358 10.2327ZM34.3453 9.67188H32.4788V14.6719H34.3453V9.67188ZM29.9788 12.1719V23H34.9788V12.1719H29.9788ZM32.4788 20.5H29.711V25.5H32.4788V20.5ZM50.6833 23.179L50.6675 25.6789L50.6724 25.679L50.6833 23.179ZM48.7338 22.8402L47.895 25.1953L47.9 25.1971L48.7338 22.8402ZM47.059 21.7599L45.2837 23.5201L45.2837 23.5201L47.059 21.7599ZM45.8829 19.7784L43.5211 20.5983L43.525 20.6092L45.8829 19.7784ZM45.4546 16.7486L42.9546 16.7389V16.7486H45.4546ZM45.8318 13.8018L43.4302 13.1073L43.428 13.115L45.8318 13.8018ZM46.9056 11.5902L44.9292 10.0592L44.9225 10.0679L46.9056 11.5902ZM48.5867 10.2095L49.6753 12.4601L49.6871 12.4543L48.5867 10.2095ZM53.0931 10.2415L51.9581 12.469L51.9694 12.4747L53.0931 10.2415ZM54.7039 11.6158L52.6544 13.0474L52.6615 13.0575L54.7039 11.6158ZM55.4454 13.5653V16.0653H58.2587L57.9281 13.2715L55.4454 13.5653ZM52.716 13.5653L50.2816 14.1341L50.7328 16.0653H52.716V13.5653ZM48.836 13.2138L46.6901 11.9312L46.6847 11.9403L48.836 13.2138ZM48.1649 16.2372L45.6649 16.2205L45.6481 18.7372H48.1649V16.2372ZM48.2544 16.2372V18.7372H49.7919L50.4855 17.365L48.2544 16.2372ZM49.047 15.2464L50.6328 17.1791L50.6354 17.177L49.047 15.2464ZM50.1911 14.6136L50.9959 16.9806L51.0028 16.9782L51.0097 16.9758L50.1911 14.6136ZM53.6237 14.9396L52.3286 17.0781L52.3397 17.0847L53.6237 14.9396ZM54.9596 20.9801L52.8147 19.6958L52.8089 19.7056L54.9596 20.9801ZM53.2401 22.6037L54.4093 24.8135L54.414 24.811L53.2401 22.6037ZM51.8147 20.6989L53.1129 22.8354L53.1129 22.8354L51.8147 20.6989ZM52.6073 19.8679L50.4157 18.6652L50.4157 18.6652L52.6073 19.8679ZM52.6073 17.522L50.4105 18.7153L50.4162 18.7258L50.4219 18.7361L52.6073 17.522ZM51.8275 16.6974L53.1377 14.5683L53.1377 14.5683L51.8275 16.6974ZM49.8012 16.5696L48.7992 14.2792L48.7925 14.2821L48.7859 14.2851L49.8012 16.5696ZM49.0917 17.0682L47.2882 15.3369L47.2791 15.3463L47.2701 15.3559L49.0917 17.0682ZM48.6187 17.8097L50.9275 18.7687L50.9326 18.7562L48.6187 17.8097ZM48.7338 19.8551L46.5421 21.0579L46.5477 21.0681L46.5534 21.0782L48.7338 19.8551ZM49.5264 20.6925L48.1965 22.8094L48.2026 22.8132L48.2086 22.817L49.5264 20.6925ZM50.6992 20.679C50.3008 20.6765 49.9276 20.6107 49.5675 20.4833L47.9 25.1971C48.7927 25.5129 49.7193 25.6729 50.6675 25.6789L50.6992 20.679ZM49.5726 20.4851C49.3253 20.397 49.082 20.2496 48.8344 19.9998L45.2837 23.5201C46.0247 24.2675 46.8979 24.8402 47.895 25.1953L49.5726 20.4851ZM48.8344 19.9998C48.6559 19.8197 48.4366 19.5034 48.2408 18.9476L43.525 20.6092C43.9087 21.6983 44.4736 22.703 45.2837 23.5201L48.8344 19.9998ZM48.2446 18.9585C48.0779 18.4781 47.9546 17.7641 47.9546 16.7486H42.9546C42.9546 18.1279 43.1169 19.4338 43.5212 20.5983L48.2446 18.9585ZM47.9546 16.7583C47.9582 15.8391 48.0635 15.0911 48.2356 14.4886L43.428 13.115C43.1058 14.2427 42.9596 15.4592 42.9547 16.7389L47.9546 16.7583ZM48.2333 14.4964C48.4139 13.872 48.6459 13.4288 48.8887 13.1124L44.9225 10.0679C44.2363 10.9619 43.7524 11.993 43.4302 13.1073L48.2333 14.4964ZM48.882 13.1212C49.1281 12.8035 49.3905 12.5978 49.6753 12.4601L47.4982 7.95893C46.479 8.45191 45.6206 9.16671 44.9293 10.0592L48.882 13.1212ZM49.6871 12.4543C49.9589 12.3211 50.3067 12.2301 50.7792 12.2301V7.23011C49.6324 7.23011 48.5186 7.45872 47.4863 7.96471L49.6871 12.4543ZM50.7792 12.2301C51.3227 12.2301 51.6939 12.3343 51.9581 12.469L54.2282 8.01399C53.1543 7.4668 51.9828 7.23011 50.7792 7.23011V12.2301ZM51.9694 12.4747C52.2909 12.6365 52.5011 12.8279 52.6544 13.0474L56.7534 10.1841C56.0971 9.24453 55.2334 8.51979 54.2168 8.00826L51.9694 12.4747ZM52.6615 13.0575C52.8251 13.2892 52.9253 13.5427 52.9627 13.8591L57.9281 13.2715C57.7951 12.1476 57.401 11.1014 56.7463 10.1741L52.6615 13.0575ZM55.4454 11.0653H52.716V16.0653H55.4454V11.0653ZM55.1504 12.9965C54.9248 12.031 54.4069 11.1487 53.5607 10.5035L50.529 14.4795C50.4635 14.4296 50.3987 14.3606 50.3483 14.2799C50.2995 14.2018 50.284 14.1448 50.2816 14.1341L55.1504 12.9965ZM53.5607 10.5035C52.712 9.85637 51.7315 9.60156 50.7792 9.60156V14.6016C50.8152 14.6016 50.7947 14.6061 50.7367 14.5882C50.6746 14.5691 50.5998 14.5335 50.529 14.4795L53.5607 10.5035ZM50.7792 9.60156C49.0327 9.60156 47.5771 10.4472 46.6901 11.9312L50.9819 14.4964C51.0021 14.4626 51.0077 14.4613 50.9915 14.4778C50.9741 14.4955 50.9421 14.523 50.8961 14.5493C50.85 14.5757 50.8076 14.5908 50.7782 14.598C50.7505 14.6049 50.7478 14.6016 50.7792 14.6016V9.60156ZM46.6847 11.9403C45.9376 13.2024 45.6751 14.7013 45.6649 16.2205L50.6648 16.2539C50.6717 15.2249 50.8566 14.7081 50.9874 14.4873L46.6847 11.9403ZM48.1649 18.7372H48.2544V13.7372H48.1649V18.7372ZM50.4855 17.365C50.5264 17.2841 50.572 17.229 50.6328 17.1791L47.4612 13.3138C46.8571 13.8094 46.3743 14.4148 46.0232 15.1094L50.4855 17.365ZM50.6354 17.177C50.7317 17.0977 50.8457 17.0316 50.9959 16.9806L49.3864 12.2467C48.6843 12.4854 48.0355 12.8412 47.4586 13.3159L50.6354 17.177ZM51.0097 16.9758C51.1644 16.9222 51.3406 16.8899 51.5526 16.8899V11.8899C50.8102 11.8899 50.0786 12.0068 49.3726 12.2514L51.0097 16.9758ZM51.5526 16.8899C51.917 16.8899 52.1511 16.9706 52.3286 17.078L54.9188 12.8012C53.886 12.1757 52.7394 11.8899 51.5526 11.8899V16.8899ZM52.3397 17.0847C52.5539 17.213 52.7232 17.3825 52.8653 17.6407L57.2457 15.23C56.689 14.2183 55.9036 13.3907 54.9077 12.7946L52.3397 17.0847ZM52.8653 17.6407C52.9864 17.8609 53.0796 18.1632 53.0796 18.6151H58.0796C58.0796 17.4306 57.8234 16.2797 57.2457 15.23L52.8653 17.6407ZM53.0796 18.6151C53.0796 19.0964 52.9725 19.4323 52.8147 19.6958L57.1045 22.2644C57.7734 21.1473 58.0796 19.9064 58.0796 18.6151H53.0796ZM52.8089 19.7056C52.6434 19.9848 52.4157 20.2106 52.0663 20.3964L54.414 24.811C55.539 24.2127 56.4576 23.3561 57.1103 22.2546L52.8089 19.7056ZM52.071 20.3939C51.7594 20.5588 51.3254 20.6818 50.6943 20.679L50.6724 25.679C51.9844 25.6847 53.255 25.4242 54.4093 24.8135L52.071 20.3939ZM50.6705 23.5057C51.5157 23.5057 52.353 23.2971 53.1129 22.8354L50.5166 18.5623C50.5513 18.5412 50.591 18.5244 50.6287 18.5143C50.6651 18.5045 50.6822 18.5057 50.6705 18.5057V23.5057ZM53.1129 22.8354C53.8287 22.4005 54.399 21.7995 54.799 21.0706L50.4157 18.6652C50.4198 18.6576 50.4327 18.637 50.4563 18.6122C50.4801 18.5873 50.5028 18.5707 50.5166 18.5623L53.1129 22.8354ZM54.799 21.0706C55.211 20.3199 55.395 19.5079 55.395 18.6918H50.395C50.395 18.7084 50.3941 18.7181 50.3936 18.7217C50.3932 18.7253 50.3932 18.7237 50.3946 18.7179C50.3961 18.712 50.3985 18.7037 50.4024 18.6937C50.4063 18.6836 50.4109 18.6739 50.4157 18.6652L54.799 21.0706ZM55.395 18.6918C55.395 17.8761 55.2111 17.061 54.7927 16.3079L50.4219 18.7361C50.4156 18.7247 50.4099 18.7126 50.4051 18.7003C50.4003 18.688 50.3972 18.6777 50.3954 18.6703C50.3915 18.6546 50.395 18.6592 50.395 18.6918H55.395ZM54.8041 16.3287C54.4094 15.6021 53.8449 15.0035 53.1377 14.5683L50.5173 18.8266C50.5034 18.8181 50.4801 18.801 50.4554 18.7748C50.4307 18.7487 50.4163 18.726 50.4105 18.7153L54.8041 16.3287ZM53.1377 14.5683C52.3755 14.0992 51.5345 13.8906 50.6897 13.8906V18.8906C50.7015 18.8906 50.6826 18.8918 50.6429 18.8811C50.6017 18.87 50.5573 18.8513 50.5173 18.8266L53.1377 14.5683ZM50.6897 13.8906C50.051 13.8906 49.4106 14.0117 48.7992 14.2792L50.8033 18.86C50.774 18.8728 50.7456 18.8813 50.7216 18.8861C50.6981 18.8909 50.6862 18.8906 50.6897 18.8906V13.8906ZM48.7859 14.2851C48.2197 14.5367 47.7159 14.8913 47.2882 15.3369L50.8952 18.7995C50.8883 18.8067 50.8763 18.8176 50.8599 18.8292C50.8434 18.8408 50.828 18.8491 50.8166 18.8541L48.7859 14.2851ZM47.2701 15.3559C46.8521 15.8006 46.5311 16.3099 46.3048 16.8631L50.9326 18.7562C50.9355 18.7491 50.9355 18.7507 50.9309 18.7579C50.9262 18.7652 50.92 18.7733 50.9133 18.7805L47.2701 15.3559ZM46.31 16.8506C46.0622 17.4471 45.9461 18.0709 45.9461 18.6982H50.9461C50.9461 18.6933 50.9465 18.7003 50.9434 18.7162C50.9402 18.7324 50.9349 18.7508 50.9274 18.7687L46.31 16.8506ZM45.9461 18.6982C45.9461 19.5151 46.1362 20.3182 46.5421 21.0579L50.9254 18.6524C50.9287 18.6583 50.9324 18.6661 50.936 18.6752C50.9396 18.6844 50.9423 18.6931 50.9442 18.7006C50.9482 18.7168 50.9461 18.7182 50.9461 18.6982H45.9461ZM46.5534 21.0782C46.9494 21.7841 47.5028 22.3736 48.1965 22.8094L50.8562 18.5755C50.8642 18.5806 50.879 18.5916 50.8945 18.6079C50.9098 18.6241 50.9157 18.6348 50.9141 18.632L46.5534 21.0782ZM48.2086 22.817C48.971 23.2899 49.8154 23.5057 50.6705 23.5057V18.5057C50.6633 18.5057 50.6846 18.505 50.725 18.5161C50.7666 18.5275 50.8085 18.5459 50.8441 18.568L48.2086 22.817Z" fill="white" mask="url(#path-2-inside-1_202_67)"/>
</g>
<defs>
<clipPath id="clip0_202_67">
<rect width="72" height="32" fill="white"/>
</clipPath>
</defs>
</svg>
