<svg width="72" height="32" viewBox="0 0 72 32" fill="none" xmlns="http://www.w3.org/2000/svg">
<g clip-path="url(#clip0_202_55)">
<rect width="72" height="32" rx="8" fill="black"/>
<mask id="path-2-inside-1_202_55" fill="white">
<path d="M27.4243 9.90909V23H25.0336L19.3383 14.7607H19.2425V23H16.4747V9.90909H18.9037L24.5542 18.142H24.6693V9.90909H27.4243ZM29.711 23V9.90909H34.8758C35.8687 9.90909 36.7146 10.0987 37.4134 10.478C38.1123 10.853 38.645 11.375 39.0115 12.044C39.3822 12.7088 39.5676 13.4759 39.5676 14.3452C39.5676 15.2145 39.3801 15.9815 39.0051 16.6463C38.6301 17.3111 38.0867 17.8288 37.3751 18.1996C36.6677 18.5703 35.8112 18.7557 34.8055 18.7557H31.5136V16.5376H34.358C34.8907 16.5376 35.3296 16.446 35.6748 16.2628C36.0242 16.0753 36.2842 15.8175 36.4546 15.4893C36.6294 15.157 36.7167 14.7756 36.7167 14.3452C36.7167 13.9105 36.6294 13.5312 36.4546 13.2074C36.2842 12.8793 36.0242 12.6257 35.6748 12.4467C35.3254 12.2635 34.8822 12.1719 34.3453 12.1719H32.4788V23H29.711ZM50.5044 23.179C49.5498 23.179 48.6997 23.0149 47.9539 22.6868C47.2124 22.3544 46.6265 21.8984 46.1961 21.3189C45.77 20.7351 45.5505 20.0618 45.5377 19.299H48.3247C48.3417 19.6186 48.4461 19.8999 48.6379 20.1428C48.8339 20.3814 49.0938 20.5668 49.4177 20.6989C49.7416 20.831 50.1059 20.897 50.5107 20.897C50.9326 20.897 51.3055 20.8224 51.6294 20.6733C51.9532 20.5241 52.2068 20.3175 52.39 20.0533C52.5732 19.7891 52.6649 19.4844 52.6649 19.1392C52.6649 18.7898 52.5669 18.4808 52.3708 18.2124C52.1791 17.9396 51.9021 17.7266 51.5399 17.5732C51.1819 17.4197 50.7558 17.343 50.2615 17.343H49.0406V15.3104H50.2615C50.6791 15.3104 51.0477 15.2379 51.3673 15.093C51.6911 14.9482 51.9426 14.7479 52.1215 14.4922C52.3005 14.2322 52.39 13.9297 52.39 13.5845C52.39 13.2564 52.3112 12.9688 52.1535 12.7216C52.0001 12.4702 51.7828 12.2741 51.5015 12.1335C51.2245 11.9929 50.9007 11.9226 50.5299 11.9226C50.1549 11.9226 49.8119 11.9908 49.5008 12.1271C49.1897 12.2592 48.9404 12.4489 48.7529 12.696C48.5654 12.9432 48.4653 13.233 48.4525 13.5653H45.7998C45.8126 12.8111 46.0278 12.1463 46.4454 11.571C46.863 10.9957 47.4255 10.5462 48.1329 10.2223C48.8445 9.89418 49.6478 9.73011 50.5427 9.73011C51.4461 9.73011 52.2366 9.89418 52.9142 10.2223C53.5917 10.5504 54.118 10.9936 54.493 11.5518C54.8722 12.1058 55.0597 12.728 55.0555 13.4183C55.0597 14.1513 54.8318 14.7628 54.3715 15.2528C53.9156 15.7429 53.3211 16.054 52.5882 16.1861V16.2884C53.5512 16.4119 54.2842 16.7464 54.787 17.2919C55.2941 17.8331 55.5455 18.5107 55.5413 19.3246C55.5455 20.0703 55.3303 20.733 54.8957 21.3125C54.4653 21.892 53.8708 22.348 53.1123 22.6804C52.3538 23.0128 51.4845 23.179 50.5044 23.179Z"/>
</mask>
<path d="M27.4243 9.90909H29.9243V7.40909H27.4243V9.90909ZM27.4243 23V25.5H29.9243V23H27.4243ZM25.0336 23L22.9771 24.4215L23.7226 25.5H25.0336V23ZM19.3383 14.7607L21.3948 13.3391L20.6494 12.2607H19.3383V14.7607ZM19.2425 14.7607V12.2607H16.7425V14.7607H19.2425ZM19.2425 23V25.5H21.7425V23H19.2425ZM16.4747 23H13.9747V25.5H16.4747V23ZM16.4747 9.90909V7.40909H13.9747V9.90909H16.4747ZM18.9037 9.90909L20.9649 8.4944L20.22 7.40909H18.9037V9.90909ZM24.5542 18.142L22.493 19.5567L23.2379 20.642H24.5542V18.142ZM24.6693 18.142V20.642H27.1693V18.142H24.6693ZM24.6693 9.90909V7.40909H22.1693V9.90909H24.6693ZM24.9243 9.90909V23H29.9243V9.90909H24.9243ZM27.4243 20.5H25.0336V25.5H27.4243V20.5ZM27.0902 21.5785L21.3948 13.3391L17.2818 16.1822L22.9771 24.4215L27.0902 21.5785ZM19.3383 12.2607H19.2425V17.2607H19.3383V12.2607ZM16.7425 14.7607V23H21.7425V14.7607H16.7425ZM19.2425 20.5H16.4747V25.5H19.2425V20.5ZM18.9747 23V9.90909H13.9747V23H18.9747ZM16.4747 12.4091H18.9037V7.40909H16.4747V12.4091ZM16.8425 11.3238L22.493 19.5567L26.6155 16.7274L20.9649 8.4944L16.8425 11.3238ZM24.5542 20.642H24.6693V15.642H24.5542V20.642ZM27.1693 18.142V9.90909H22.1693V18.142H27.1693ZM24.6693 12.4091H27.4243V7.40909H24.6693V12.4091ZM29.711 23H27.211V25.5H29.711V23ZM29.711 9.90909V7.40909H27.211V9.90909H29.711ZM37.4134 10.478L36.221 12.6753L36.2314 12.6809L37.4134 10.478ZM39.0115 12.044L36.8189 13.2451L36.8234 13.2534L36.828 13.2617L39.0115 12.044ZM37.3751 18.1996L36.22 15.9824L36.2146 15.9853L37.3751 18.1996ZM31.5136 18.7557H29.0136V21.2557H31.5136V18.7557ZM31.5136 16.5376V14.0376H29.0136V16.5376H31.5136ZM35.6748 16.2628L36.847 18.4709L36.8568 18.4657L35.6748 16.2628ZM36.4546 15.4893L34.2417 14.3261L34.2361 14.3369L36.4546 15.4893ZM36.4546 13.2074L34.2361 14.3599L34.2451 14.3772L34.2544 14.3944L36.4546 13.2074ZM35.6748 12.4467L34.5138 14.6608L34.5244 14.6664L34.5351 14.6718L35.6748 12.4467ZM32.4788 12.1719V9.67188H29.9788V12.1719H32.4788ZM32.4788 23V25.5H34.9788V23H32.4788ZM32.211 23V9.90909H27.211V23H32.211ZM29.711 12.4091H34.8758V7.40909H29.711V12.4091ZM34.8758 12.4091C35.5541 12.4091 35.9683 12.5382 36.221 12.6753L38.6059 8.28069C37.4608 7.65928 36.1833 7.40909 34.8758 7.40909V12.4091ZM36.2314 12.6809C36.5213 12.8365 36.6946 13.0183 36.8189 13.2451L41.2041 10.843C40.5953 9.73171 39.7033 8.8695 38.5955 8.27508L36.2314 12.6809ZM36.828 13.2617C36.9632 13.5041 37.0676 13.8407 37.0676 14.3452H42.0676C42.0676 13.111 41.8012 11.9135 41.1949 10.8264L36.828 13.2617ZM37.0676 14.3452C37.0676 14.8448 36.9632 15.1776 36.8276 15.418L41.1825 17.8746C41.7969 16.7854 42.0676 15.5842 42.0676 14.3452H37.0676ZM36.8276 15.418C36.703 15.6389 36.5255 15.8233 36.22 15.9824L38.5301 20.4167C39.648 19.8344 40.5571 18.9833 41.1825 17.8746L36.8276 15.418ZM36.2146 15.9853C35.9462 16.1259 35.5094 16.2557 34.8055 16.2557V21.2557C36.1129 21.2557 37.3892 21.0147 38.5356 20.4139L36.2146 15.9853ZM34.8055 16.2557H31.5136V21.2557H34.8055V16.2557ZM34.0136 18.7557V16.5376H29.0136V18.7557H34.0136ZM31.5136 19.0376H34.358V14.0376H31.5136V19.0376ZM34.358 19.0376C35.1581 19.0376 36.0338 18.9027 36.847 18.4709L34.5026 14.0546C34.5661 14.0209 34.598 14.0171 34.5759 14.0217C34.5523 14.0266 34.4837 14.0376 34.358 14.0376V19.0376ZM36.8568 18.4657C37.6158 18.0584 38.2537 17.4493 38.6731 16.6418L34.2361 14.3369C34.2692 14.2733 34.3155 14.2092 34.3714 14.1538C34.4262 14.0994 34.4726 14.0707 34.4928 14.0599L36.8568 18.4657ZM38.6675 16.6525C39.0568 15.9121 39.2167 15.1212 39.2167 14.3452H34.2167C34.2167 14.391 34.2121 14.4054 34.2143 14.3958C34.2154 14.3912 34.2178 14.382 34.2225 14.3692C34.2272 14.3564 34.2335 14.3417 34.2417 14.3262L38.6675 16.6525ZM39.2167 14.3452C39.2167 13.5712 39.0592 12.7698 38.6549 12.0204L34.2544 14.3944C34.2424 14.3722 34.2333 14.3516 34.2267 14.3338C34.2201 14.3161 34.2166 14.3031 34.215 14.2959C34.2117 14.2815 34.2167 14.2951 34.2167 14.3452H39.2167ZM38.6731 12.0549C38.248 11.2366 37.596 10.6219 36.8145 10.2216L34.5351 14.6718C34.5052 14.6565 34.4492 14.6222 34.3862 14.5608C34.3221 14.4983 34.2713 14.4276 34.2361 14.3599L38.6731 12.0549ZM36.8358 10.2327C36.0226 9.80623 35.1476 9.67188 34.3453 9.67188V14.6719C34.4742 14.6719 34.5465 14.6831 34.5742 14.6888C34.6004 14.6942 34.5731 14.6919 34.5138 14.6608L36.8358 10.2327ZM34.3453 9.67188H32.4788V14.6719H34.3453V9.67188ZM29.9788 12.1719V23H34.9788V12.1719H29.9788ZM32.4788 20.5H29.711V25.5H32.4788V20.5ZM47.9539 22.6868L46.9313 24.9681L46.9392 24.9716L46.9471 24.9751L47.9539 22.6868ZM46.1961 21.3189L44.1768 22.7928L44.1829 22.8012L44.1891 22.8094L46.1961 21.3189ZM45.5377 19.299V16.799H42.9955L43.0381 19.3409L45.5377 19.299ZM48.3247 19.299L50.8211 19.1659L50.6949 16.799H48.3247V19.299ZM48.6379 20.1428L46.6757 21.6919L46.6907 21.7109L46.7061 21.7296L48.6379 20.1428ZM49.4177 20.6989L48.4735 23.0137L48.4735 23.0137L49.4177 20.6989ZM51.6294 20.6733L50.5836 18.4025L50.5836 18.4025L51.6294 20.6733ZM52.39 20.0533L54.4443 21.478L54.4443 21.478L52.39 20.0533ZM52.3708 18.2124L50.3258 19.6503L50.3386 19.6686L50.3518 19.6866L52.3708 18.2124ZM51.5399 17.5732L50.5551 19.871L50.5649 19.8752L51.5399 17.5732ZM49.0406 17.343H46.5406V19.843H49.0406V17.343ZM49.0406 15.3104V12.8104H46.5406V15.3104H49.0406ZM51.3673 15.093L50.3463 12.811L50.3351 12.8161L51.3673 15.093ZM52.1215 14.4922L54.1696 15.9258L54.1752 15.9179L54.1807 15.9099L52.1215 14.4922ZM52.1535 12.7216L50.0194 14.0238L50.0324 14.0451L50.0458 14.0661L52.1535 12.7216ZM51.5015 12.1335L50.3698 14.3627L50.3766 14.3662L50.3835 14.3696L51.5015 12.1335ZM49.5008 12.1271L50.478 14.4282L50.4913 14.4226L50.5045 14.4168L49.5008 12.1271ZM48.7529 12.696L50.7447 14.207L50.7447 14.207L48.7529 12.696ZM48.4525 13.5653V16.0653H50.8582L50.9507 13.6614L48.4525 13.5653ZM45.7998 13.5653L43.3002 13.523L43.2571 16.0653H45.7998V13.5653ZM46.4454 11.571L48.4685 13.0397L48.4685 13.0397L46.4454 11.571ZM48.1329 10.2223L49.1736 12.4954L49.1797 12.4926L48.1329 10.2223ZM54.493 11.5518L52.4177 12.9459L52.4239 12.955L52.4301 12.9641L54.493 11.5518ZM55.0555 13.4183L52.5555 13.4029L52.5554 13.4179L52.5555 13.4329L55.0555 13.4183ZM54.3715 15.2528L52.5492 13.5414L52.5413 13.5499L54.3715 15.2528ZM52.5882 16.1861L52.1447 13.7257L50.0882 14.0964V16.1861H52.5882ZM52.5882 16.2884H50.0882V18.4881L52.27 18.768L52.5882 16.2884ZM54.787 17.2919L52.9489 18.9864L52.9558 18.9939L52.9627 19.0013L54.787 17.2919ZM55.5413 19.3246L53.0413 19.3115L53.0412 19.3252L53.0413 19.3389L55.5413 19.3246ZM54.8957 21.3125L52.8957 19.8125L52.8886 19.822L54.8957 21.3125ZM53.1123 22.6804L52.1089 20.3906L52.1089 20.3906L53.1123 22.6804ZM50.5044 20.679C49.8376 20.679 49.3395 20.5651 48.9608 20.3985L46.9471 24.9751C48.0599 25.4647 49.262 25.679 50.5044 25.679V20.679ZM48.9766 20.4055C48.5756 20.2258 48.3478 20.023 48.2032 19.8284L44.1891 22.8094C44.9053 23.7738 45.8493 24.483 46.9313 24.9681L48.9766 20.4055ZM48.2154 19.845C48.1106 19.7014 48.042 19.5347 48.0374 19.2571L43.0381 19.3409C43.059 20.5888 43.4293 21.7688 44.1768 22.7928L48.2154 19.845ZM45.5377 21.799H48.3247V16.799H45.5377V21.799ZM45.8282 19.4321C45.8718 20.2488 46.1523 21.029 46.6757 21.6919L50.6001 18.5936C50.6609 18.6707 50.7179 18.7677 50.7595 18.8796C50.8008 18.9908 50.8171 19.0906 50.8211 19.1659L45.8282 19.4321ZM46.7061 21.7296C47.199 22.3297 47.8167 22.7458 48.4735 23.0137L50.3619 18.384C50.3624 18.3842 50.3894 18.3954 50.4314 18.4253C50.4745 18.456 50.5234 18.4995 50.5697 18.5559L46.7061 21.7296ZM48.4735 23.0137C49.1405 23.2858 49.8325 23.397 50.5107 23.397V18.397C50.3793 18.397 50.3426 18.3762 50.3619 18.384L48.4735 23.0137ZM50.5107 23.397C51.2283 23.397 51.9687 23.2694 52.6751 22.9441L50.5836 18.4025C50.6105 18.3901 50.624 18.3881 50.6165 18.3896C50.6079 18.3913 50.5747 18.397 50.5107 18.397V23.397ZM52.6751 22.9441C53.3593 22.629 53.9794 22.1483 54.4443 21.478L50.3357 18.6285C50.3799 18.5649 50.4313 18.5106 50.4829 18.4686C50.5332 18.4276 50.5713 18.4082 50.5836 18.4025L52.6751 22.9441ZM54.4443 21.478C54.9394 20.7641 55.1649 19.9542 55.1649 19.1392H50.1649C50.1649 19.0885 50.1719 19.0068 50.202 18.9067C50.2326 18.805 50.2794 18.7098 50.3357 18.6285L54.4443 21.478ZM55.1649 19.1392C55.1649 18.2887 54.9151 17.4574 54.3899 16.7381L50.3518 19.6866C50.2946 19.6083 50.2432 19.511 50.2084 19.4014C50.174 19.293 50.1649 19.201 50.1649 19.1392H55.1649ZM54.4159 16.7744C53.9101 16.0551 53.2291 15.5736 52.5148 15.2711L50.5649 19.8752C50.5741 19.8791 50.5448 19.8679 50.495 19.8296C50.4431 19.7897 50.3819 19.7302 50.3258 19.6503L54.4159 16.7744ZM52.5247 15.2753C51.7839 14.9578 51.0066 14.843 50.2615 14.843V19.843C50.505 19.843 50.5799 19.8817 50.5551 19.871L52.5247 15.2753ZM50.2615 14.843H49.0406V19.843H50.2615V14.843ZM51.5406 17.343V15.3104H46.5406V17.343H51.5406ZM49.0406 17.8104H50.2615V12.8104H49.0406V17.8104ZM50.2615 17.8104C50.9684 17.8104 51.6999 17.6871 52.3995 17.37L50.3351 12.8161C50.3631 12.8034 50.377 12.8014 50.369 12.803C50.36 12.8047 50.3261 12.8104 50.2615 12.8104V17.8104ZM52.3882 17.3751C53.0672 17.0713 53.6973 16.6006 54.1696 15.9258L50.0735 13.0585C50.1256 12.984 50.1848 12.9236 50.241 12.8788C50.2958 12.8351 50.336 12.8156 50.3464 12.811L52.3882 17.3751ZM54.1807 15.9099C54.6737 15.1939 54.89 14.3864 54.89 13.5845H49.89C49.89 13.5394 49.8961 13.4607 49.9256 13.3612C49.9555 13.2599 50.0026 13.1613 50.0624 13.0744L54.1807 15.9099ZM54.89 13.5845C54.89 12.8386 54.7048 12.0726 54.2612 11.3771L50.0458 14.0661C49.9875 13.9746 49.9455 13.8773 49.9198 13.7835C49.8946 13.6917 49.89 13.6216 49.89 13.5845H54.89ZM54.2876 11.4194C53.8731 10.7402 53.2908 10.2331 52.6195 9.89745L50.3835 14.3696C50.3373 14.3465 50.2718 14.3063 50.201 14.2424C50.1294 14.1778 50.0676 14.1027 50.0194 14.0238L54.2876 11.4194ZM52.6332 9.90436C51.9439 9.55439 51.2184 9.42259 50.5299 9.42259V14.4226C50.5577 14.4226 50.5519 14.4252 50.5205 14.4184C50.4875 14.4113 50.434 14.3953 50.3698 14.3627L52.6332 9.90436ZM50.5299 9.42259C49.8456 9.42259 49.1561 9.54856 48.4971 9.83746L50.5045 14.4168C50.4975 14.4199 50.4912 14.4221 50.4862 14.4237C50.4812 14.4253 50.4786 14.4258 50.4787 14.4258C50.479 14.4257 50.4829 14.4249 50.491 14.4242C50.4991 14.4234 50.512 14.4226 50.5299 14.4226V9.42259ZM48.5236 9.82602C47.8482 10.1129 47.2354 10.5599 46.7612 11.1851L50.7447 14.207C50.7001 14.2657 50.648 14.3171 50.5941 14.3582C50.5411 14.3985 50.4985 14.4195 50.478 14.4282L48.5236 9.82602ZM46.7612 11.1851C46.241 11.8708 45.9853 12.6635 45.9544 13.4693L50.9507 13.6614C50.9484 13.72 50.9368 13.8091 50.9001 13.9153C50.8628 14.023 50.8086 14.1227 50.7447 14.207L46.7612 11.1851ZM48.4525 11.0653H45.7998V16.0653H48.4525V11.0653ZM48.2994 13.6077C48.3041 13.3333 48.3713 13.1736 48.4685 13.0397L44.4223 10.1024C43.6843 11.119 43.3211 12.2888 43.3002 13.523L48.2994 13.6077ZM48.4685 13.0397C48.6099 12.8449 48.8195 12.6575 49.1736 12.4954L47.0922 7.94921C46.0315 8.43484 45.1161 9.1466 44.4223 10.1024L48.4685 13.0397ZM49.1797 12.4926C49.5195 12.3359 49.958 12.2301 50.5427 12.2301V7.23011C49.3377 7.23011 48.1696 7.45246 47.0861 7.952L49.1797 12.4926ZM50.5427 12.2301C51.1432 12.2301 51.5479 12.3384 51.8245 12.4723L54.0038 7.97226C52.9253 7.44996 51.749 7.23011 50.5427 7.23011V12.2301ZM51.8245 12.4723C52.1522 12.631 52.3182 12.7977 52.4177 12.9459L56.5682 10.1578C55.9178 9.18952 55.0312 8.46981 54.0038 7.97226L51.8245 12.4723ZM52.4301 12.9641C52.5131 13.0853 52.5567 13.2065 52.5555 13.4029L57.5554 13.4338C57.5627 12.2494 57.2314 11.1263 56.5559 10.1396L52.4301 12.9641ZM52.5555 13.4329C52.5558 13.4844 52.552 13.5173 52.549 13.5349C52.5462 13.552 52.5439 13.5569 52.5452 13.5533C52.5466 13.5495 52.5494 13.5435 52.5529 13.5379C52.5563 13.5325 52.5565 13.5336 52.5492 13.5414L56.1939 16.9643C57.1343 15.9629 57.5631 14.7144 57.5554 13.4038L52.5555 13.4329ZM52.5413 13.5499C52.4949 13.5997 52.4087 13.6781 52.1447 13.7257L53.0316 18.6464C54.2335 18.4298 55.3363 17.8861 56.2018 16.9558L52.5413 13.5499ZM50.0882 16.1861V16.2884H55.0882V16.1861H50.0882ZM52.27 18.768C52.5519 18.8042 52.7252 18.862 52.8222 18.9063C52.9123 18.9474 52.9417 18.9786 52.9489 18.9864L56.6251 15.5974C55.6146 14.5012 54.27 13.9837 52.9063 13.8087L52.27 18.768ZM52.9627 19.0013C52.9883 19.0285 53.0426 19.0691 53.0413 19.3115L58.0412 19.3377C58.0485 17.9522 57.6 16.6377 56.6113 15.5825L52.9627 19.0013ZM53.0413 19.3389C53.0426 19.5561 52.9926 19.6832 52.8957 19.8125L56.8957 22.8125C57.6681 21.7827 58.0485 20.5845 58.0412 19.3103L53.0413 19.3389ZM52.8886 19.822C52.7537 20.0036 52.5285 20.2067 52.1089 20.3906L54.1157 24.9702C55.2132 24.4893 56.1769 23.7804 56.9027 22.803L52.8886 19.822ZM52.1089 20.3906C51.7193 20.5613 51.2015 20.679 50.5044 20.679V25.679C51.7674 25.679 52.9882 25.4643 54.1157 24.9702L52.1089 20.3906Z" fill="white" mask="url(#path-2-inside-1_202_55)"/>
</g>
<defs>
<clipPath id="clip0_202_55">
<rect width="72" height="32" fill="white"/>
</clipPath>
</defs>
</svg>
