<svg width="72" height="32" viewBox="0 0 72 32" fill="none" xmlns="http://www.w3.org/2000/svg">
<g clip-path="url(#clip0_202_63)">
<rect width="72" height="32" rx="8" fill="black"/>
<mask id="path-2-inside-1_202_63" fill="white">
<path d="M27.4243 9.90909V23H25.0336L19.3383 14.7607H19.2425V23H16.4747V9.90909H18.9037L24.5542 18.142H24.6693V9.90909H27.4243ZM29.711 23V9.90909H34.8758C35.8687 9.90909 36.7146 10.0987 37.4134 10.478C38.1123 10.853 38.645 11.375 39.0115 12.044C39.3822 12.7088 39.5676 13.4759 39.5676 14.3452C39.5676 15.2145 39.3801 15.9815 39.0051 16.6463C38.6301 17.3111 38.0867 17.8288 37.3751 18.1996C36.6677 18.5703 35.8112 18.7557 34.8055 18.7557H31.5136V16.5376H34.358C34.8907 16.5376 35.3296 16.446 35.6748 16.2628C36.0242 16.0753 36.2842 15.8175 36.4546 15.4893C36.6294 15.157 36.7167 14.7756 36.7167 14.3452C36.7167 13.9105 36.6294 13.5312 36.4546 13.2074C36.2842 12.8793 36.0242 12.6257 35.6748 12.4467C35.3254 12.2635 34.8822 12.1719 34.3453 12.1719H32.4788V23H29.711ZM50.5235 23.179C49.6201 23.179 48.8147 23.0128 48.1073 22.6804C47.4042 22.348 46.846 21.8899 46.4326 21.3061C46.0193 20.7223 45.8041 20.0533 45.787 19.299H48.4717C48.5015 19.8061 48.7146 20.2173 49.1109 20.5327C49.5072 20.848 49.9781 21.0057 50.5235 21.0057C50.9582 21.0057 51.3417 20.9098 51.6741 20.718C52.0107 20.522 52.2728 20.2514 52.4603 19.9062C52.6521 19.5568 52.748 19.1562 52.748 18.7045C52.748 18.2443 52.6499 17.8395 52.4539 17.4901C52.2622 17.1406 51.9958 16.8679 51.6549 16.6719C51.314 16.4759 50.9241 16.3757 50.4852 16.3714C50.1017 16.3714 49.7288 16.4503 49.3666 16.608C49.0086 16.7656 48.7295 16.9808 48.5292 17.2536L46.0683 16.8125L46.6883 9.90909H54.6911V12.1719H48.9703L48.6315 15.451H48.7082C48.9383 15.1271 49.2856 14.8587 49.7501 14.6456C50.2146 14.4325 50.7345 14.326 51.3097 14.326C52.0981 14.326 52.8012 14.5114 53.4191 14.8821C54.037 15.2528 54.5249 15.7621 54.8829 16.4098C55.2409 17.0533 55.4177 17.7947 55.4134 18.6342C55.4177 19.5163 55.2132 20.3004 54.7998 20.9865C54.3907 21.6683 53.8176 22.2053 53.0803 22.5973C52.3474 22.9851 51.4951 23.179 50.5235 23.179Z"/>
</mask>
<path d="M27.4243 9.90909H29.9243V7.40909H27.4243V9.90909ZM27.4243 23V25.5H29.9243V23H27.4243ZM25.0336 23L22.9771 24.4215L23.7226 25.5H25.0336V23ZM19.3383 14.7607L21.3948 13.3391L20.6494 12.2607H19.3383V14.7607ZM19.2425 14.7607V12.2607H16.7425V14.7607H19.2425ZM19.2425 23V25.5H21.7425V23H19.2425ZM16.4747 23H13.9747V25.5H16.4747V23ZM16.4747 9.90909V7.40909H13.9747V9.90909H16.4747ZM18.9037 9.90909L20.9649 8.4944L20.22 7.40909H18.9037V9.90909ZM24.5542 18.142L22.493 19.5567L23.2379 20.642H24.5542V18.142ZM24.6693 18.142V20.642H27.1693V18.142H24.6693ZM24.6693 9.90909V7.40909H22.1693V9.90909H24.6693ZM24.9243 9.90909V23H29.9243V9.90909H24.9243ZM27.4243 20.5H25.0336V25.5H27.4243V20.5ZM27.0902 21.5785L21.3948 13.3391L17.2818 16.1822L22.9771 24.4215L27.0902 21.5785ZM19.3383 12.2607H19.2425V17.2607H19.3383V12.2607ZM16.7425 14.7607V23H21.7425V14.7607H16.7425ZM19.2425 20.5H16.4747V25.5H19.2425V20.5ZM18.9747 23V9.90909H13.9747V23H18.9747ZM16.4747 12.4091H18.9037V7.40909H16.4747V12.4091ZM16.8425 11.3238L22.493 19.5567L26.6155 16.7274L20.9649 8.4944L16.8425 11.3238ZM24.5542 20.642H24.6693V15.642H24.5542V20.642ZM27.1693 18.142V9.90909H22.1693V18.142H27.1693ZM24.6693 12.4091H27.4243V7.40909H24.6693V12.4091ZM29.711 23H27.211V25.5H29.711V23ZM29.711 9.90909V7.40909H27.211V9.90909H29.711ZM37.4134 10.478L36.221 12.6753L36.2314 12.6809L37.4134 10.478ZM39.0115 12.044L36.8189 13.2451L36.8234 13.2534L36.828 13.2617L39.0115 12.044ZM37.3751 18.1996L36.22 15.9824L36.2146 15.9853L37.3751 18.1996ZM31.5136 18.7557H29.0136V21.2557H31.5136V18.7557ZM31.5136 16.5376V14.0376H29.0136V16.5376H31.5136ZM35.6748 16.2628L36.847 18.4709L36.8568 18.4657L35.6748 16.2628ZM36.4546 15.4893L34.2417 14.3261L34.2361 14.3369L36.4546 15.4893ZM36.4546 13.2074L34.2361 14.3599L34.2451 14.3772L34.2544 14.3944L36.4546 13.2074ZM35.6748 12.4467L34.5138 14.6608L34.5244 14.6664L34.5351 14.6718L35.6748 12.4467ZM32.4788 12.1719V9.67188H29.9788V12.1719H32.4788ZM32.4788 23V25.5H34.9788V23H32.4788ZM32.211 23V9.90909H27.211V23H32.211ZM29.711 12.4091H34.8758V7.40909H29.711V12.4091ZM34.8758 12.4091C35.5541 12.4091 35.9683 12.5382 36.221 12.6753L38.6059 8.28069C37.4608 7.65928 36.1833 7.40909 34.8758 7.40909V12.4091ZM36.2314 12.6809C36.5213 12.8365 36.6946 13.0183 36.8189 13.2451L41.2041 10.843C40.5953 9.73171 39.7033 8.8695 38.5955 8.27508L36.2314 12.6809ZM36.828 13.2617C36.9632 13.5041 37.0676 13.8407 37.0676 14.3452H42.0676C42.0676 13.111 41.8012 11.9135 41.1949 10.8264L36.828 13.2617ZM37.0676 14.3452C37.0676 14.8448 36.9632 15.1776 36.8276 15.418L41.1825 17.8746C41.7969 16.7854 42.0676 15.5842 42.0676 14.3452H37.0676ZM36.8276 15.418C36.703 15.6389 36.5255 15.8233 36.22 15.9824L38.5301 20.4167C39.648 19.8344 40.5571 18.9833 41.1825 17.8746L36.8276 15.418ZM36.2146 15.9853C35.9462 16.1259 35.5094 16.2557 34.8055 16.2557V21.2557C36.1129 21.2557 37.3892 21.0147 38.5356 20.4139L36.2146 15.9853ZM34.8055 16.2557H31.5136V21.2557H34.8055V16.2557ZM34.0136 18.7557V16.5376H29.0136V18.7557H34.0136ZM31.5136 19.0376H34.358V14.0376H31.5136V19.0376ZM34.358 19.0376C35.1581 19.0376 36.0338 18.9027 36.847 18.4709L34.5026 14.0546C34.5661 14.0209 34.598 14.0171 34.5759 14.0217C34.5523 14.0266 34.4837 14.0376 34.358 14.0376V19.0376ZM36.8568 18.4657C37.6158 18.0584 38.2537 17.4493 38.6731 16.6418L34.2361 14.3369C34.2692 14.2733 34.3155 14.2092 34.3714 14.1538C34.4262 14.0994 34.4726 14.0707 34.4928 14.0599L36.8568 18.4657ZM38.6675 16.6525C39.0568 15.9121 39.2167 15.1212 39.2167 14.3452H34.2167C34.2167 14.391 34.2121 14.4054 34.2143 14.3958C34.2154 14.3912 34.2178 14.382 34.2225 14.3692C34.2272 14.3564 34.2335 14.3417 34.2417 14.3262L38.6675 16.6525ZM39.2167 14.3452C39.2167 13.5712 39.0592 12.7698 38.6549 12.0204L34.2544 14.3944C34.2424 14.3722 34.2333 14.3516 34.2267 14.3338C34.2201 14.3161 34.2166 14.3031 34.215 14.2959C34.2117 14.2815 34.2167 14.2951 34.2167 14.3452H39.2167ZM38.6731 12.0549C38.248 11.2366 37.596 10.6219 36.8145 10.2216L34.5351 14.6718C34.5052 14.6565 34.4492 14.6222 34.3862 14.5608C34.3221 14.4983 34.2713 14.4276 34.2361 14.3599L38.6731 12.0549ZM36.8358 10.2327C36.0226 9.80623 35.1476 9.67188 34.3453 9.67188V14.6719C34.4742 14.6719 34.5465 14.6831 34.5742 14.6888C34.6004 14.6942 34.5731 14.6919 34.5138 14.6608L36.8358 10.2327ZM34.3453 9.67188H32.4788V14.6719H34.3453V9.67188ZM29.9788 12.1719V23H34.9788V12.1719H29.9788ZM32.4788 20.5H29.711V25.5H32.4788V20.5ZM48.1073 22.6804L47.0389 24.9406L47.0442 24.9431L48.1073 22.6804ZM46.4326 21.3061L44.3923 22.7507L44.3923 22.7507L46.4326 21.3061ZM45.787 19.299V16.799H43.2299L43.2877 19.3555L45.787 19.299ZM48.4717 19.299L50.9674 19.1522L50.8289 16.799H48.4717V19.299ZM49.1109 20.5327L50.6675 18.5764L50.6675 18.5764L49.1109 20.5327ZM51.6741 20.718L52.9234 22.8835L52.9321 22.8785L51.6741 20.718ZM52.4603 19.9062L50.2686 18.7035L50.2635 18.7129L52.4603 19.9062ZM52.4539 17.4901L50.2623 18.6928L50.2679 18.703L50.2736 18.7132L52.4539 17.4901ZM51.6549 16.6719L50.4087 18.8391L50.4087 18.8391L51.6549 16.6719ZM50.4852 16.3714L50.5094 13.8716L50.4973 13.8714H50.4852V16.3714ZM49.3666 16.608L48.3688 14.3157L48.3588 14.3201L49.3666 16.608ZM48.5292 17.2536L48.0882 19.7143L49.6219 19.9892L50.5442 18.7333L48.5292 17.2536ZM46.0683 16.8125L43.5783 16.5889L43.3735 18.8694L45.6272 19.2733L46.0683 16.8125ZM46.6883 9.90909V7.40909H44.4028L44.1983 9.68545L46.6883 9.90909ZM54.6911 9.90909H57.1911V7.40909H54.6911V9.90909ZM54.6911 12.1719V14.6719H57.1911V12.1719H54.6911ZM48.9703 12.1719V9.67188H46.7152L46.4835 11.915L48.9703 12.1719ZM48.6315 15.451L46.1447 15.1941L45.8599 17.951H48.6315V15.451ZM48.7082 15.451V17.951H49.9987L50.7461 16.899L48.7082 15.451ZM49.7501 14.6456L50.7924 16.9179L50.7924 16.9179L49.7501 14.6456ZM53.4191 14.8821L54.7054 12.7384L54.7054 12.7384L53.4191 14.8821ZM54.8829 16.4098L52.6948 17.619L52.6982 17.6251L54.8829 16.4098ZM55.4134 18.6342L52.9135 18.6215L52.9134 18.6339L52.9135 18.6463L55.4134 18.6342ZM54.7998 20.9865L52.6584 19.6964L52.6561 19.7003L54.7998 20.9865ZM53.0803 22.5973L54.2495 24.8071L54.2542 24.8046L53.0803 22.5973ZM50.5235 20.679C49.9305 20.679 49.4972 20.5712 49.1705 20.4177L47.0442 24.9431C48.1323 25.4543 49.3097 25.679 50.5235 25.679V20.679ZM49.1758 20.4202C48.8265 20.2551 48.6165 20.0642 48.473 19.8615L44.3923 22.7507C45.0754 23.7156 45.9819 24.4409 47.0389 24.9406L49.1758 20.4202ZM48.473 19.8615C48.3637 19.7072 48.2928 19.5274 48.2864 19.2425L43.2877 19.3555C43.3153 20.5791 43.6748 21.7374 44.3923 22.7507L48.473 19.8615ZM45.787 21.799H48.4717V16.799H45.787V21.799ZM45.976 19.4458C46.0474 20.6597 46.6002 21.7297 47.5543 22.4889L50.6675 18.5764C50.7186 18.6171 50.8036 18.7026 50.8736 18.8376C50.9434 18.9724 50.9637 19.0898 50.9674 19.1522L45.976 19.4458ZM47.5543 22.4889C48.4282 23.1843 49.4592 23.5057 50.5235 23.5057V18.5057C50.4942 18.5057 50.5107 18.5019 50.5551 18.5168C50.5759 18.5238 50.5979 18.5332 50.6192 18.5449C50.6405 18.5565 50.6567 18.5678 50.6675 18.5764L47.5543 22.4889ZM50.5235 23.5057C51.3375 23.5057 52.1629 23.3223 52.9234 22.8835L50.4248 18.5526C50.4658 18.5289 50.5041 18.5151 50.5308 18.5084C50.5559 18.5021 50.5565 18.5057 50.5235 18.5057V23.5057ZM52.9321 22.8785C53.6678 22.4501 54.253 21.8434 54.6571 21.0996L50.2635 18.7129C50.2734 18.6947 50.2939 18.6633 50.3273 18.6288C50.3608 18.5942 50.3935 18.5708 50.4161 18.5576L52.9321 22.8785ZM54.652 21.109C55.0717 20.3442 55.248 19.5199 55.248 18.7045H50.248C50.248 18.7531 50.2429 18.7695 50.2447 18.7618C50.2456 18.7582 50.2477 18.7504 50.2519 18.7394C50.2562 18.7283 50.2618 18.7161 50.2686 18.7035L54.652 21.109ZM55.248 18.7045C55.248 17.8804 55.0693 17.0424 54.6343 16.2669L50.2736 18.7132C50.2651 18.6981 50.2584 18.6835 50.2533 18.6705C50.2483 18.6576 50.2457 18.6484 50.2446 18.644C50.2424 18.6349 50.248 18.6521 50.248 18.7045H55.248ZM54.6456 16.2873C54.2363 15.5415 53.6454 14.9326 52.9011 14.5046L50.4087 18.8391C50.3862 18.8262 50.3542 18.8034 50.3217 18.7701C50.2894 18.737 50.2705 18.7077 50.2623 18.6928L54.6456 16.2873ZM52.9011 14.5046C52.1464 14.0707 51.3266 13.8795 50.5094 13.8716L50.4609 18.8713C50.4967 18.8717 50.502 18.8755 50.4849 18.8712C50.4768 18.8691 50.4651 18.8655 50.4511 18.8598C50.437 18.8541 50.4226 18.8471 50.4087 18.8391L52.9011 14.5046ZM50.4852 13.8714C49.7479 13.8714 49.0361 14.0252 48.3688 14.3157L50.3644 18.9002C50.4215 18.8753 50.4554 18.8714 50.4852 18.8714V13.8714ZM48.3588 14.3201C47.6634 14.6264 47.0117 15.0963 46.5142 15.7738L50.5442 18.7333C50.5001 18.7934 50.4534 18.8381 50.4152 18.8675C50.3786 18.8957 50.3601 18.9021 50.3743 18.8958L48.3588 14.3201ZM48.9702 14.7928L46.5093 14.3517L45.6272 19.2733L48.0882 19.7143L48.9702 14.7928ZM48.5582 17.0361L49.1783 10.1327L44.1983 9.68545L43.5783 16.5889L48.5582 17.0361ZM46.6883 12.4091H54.6911V7.40909H46.6883V12.4091ZM52.1911 9.90909V12.1719H57.1911V9.90909H52.1911ZM54.6911 9.67188H48.9703V14.6719H54.6911V9.67188ZM46.4835 11.915L46.1447 15.1941L51.1182 15.7079L51.457 12.4288L46.4835 11.915ZM48.6315 17.951H48.7082V12.951H48.6315V17.951ZM50.7461 16.899C50.7259 16.9275 50.7072 16.9489 50.6929 16.9636C50.6788 16.9781 50.6702 16.9847 50.6702 16.9847C50.6712 16.9839 50.7056 16.9578 50.7924 16.9179L48.7077 12.3733C47.9565 12.7179 47.217 13.2335 46.6702 14.003L50.7461 16.899ZM50.7924 16.9179C50.891 16.8727 51.0489 16.826 51.3097 16.826V11.826C50.4201 11.826 49.5381 11.9924 48.7077 12.3733L50.7924 16.9179ZM51.3097 16.826C51.689 16.826 51.9396 16.9099 52.1329 17.0258L54.7054 12.7384C53.6629 12.1129 52.5072 11.826 51.3097 11.826V16.826ZM52.1329 17.0258C52.3625 17.1636 52.5439 17.3459 52.6948 17.619L57.071 15.2006C56.506 14.1782 55.7115 13.3421 54.7054 12.7384L52.1329 17.0258ZM52.6982 17.6251C52.8195 17.8432 52.9159 18.1506 52.9135 18.6215L57.9134 18.6469C57.9195 17.4389 57.6622 16.2634 57.0676 15.1945L52.6982 17.6251ZM52.9135 18.6463C52.9157 19.1176 52.8114 19.4424 52.6584 19.6964L56.9412 22.2767C57.6149 21.1585 57.9197 19.9151 57.9134 18.6222L52.9135 18.6463ZM52.6561 19.7003C52.4926 19.9728 52.2638 20.2 51.9065 20.39L54.2542 24.8046C55.3714 24.2105 56.2889 23.3639 56.9435 22.2727L52.6561 19.7003ZM51.9112 20.3875C51.5957 20.5544 51.1576 20.679 50.5235 20.679V25.679C51.8326 25.679 53.0991 25.4157 54.2495 24.8071L51.9112 20.3875Z" fill="white" mask="url(#path-2-inside-1_202_63)"/>
</g>
<defs>
<clipPath id="clip0_202_63">
<rect width="72" height="32" fill="white"/>
</clipPath>
</defs>
</svg>
