<svg width="72" height="32" viewBox="0 0 72 32" fill="none" xmlns="http://www.w3.org/2000/svg">
<g clip-path="url(#clip0_202_33)">
<rect width="72" height="32" rx="8" fill="black"/>
<mask id="path-2-inside-1_202_33" fill="white">
<path d="M8.08017 23H3.43954V9.90909H8.11852C9.43528 9.90909 10.5688 10.1712 11.5191 10.6953C12.4694 11.2152 13.2002 11.9631 13.7116 12.9389C14.2272 13.9148 14.485 15.0824 14.485 16.4418C14.485 17.8054 14.2272 18.9773 13.7116 19.9574C13.2002 20.9375 12.4651 21.6896 11.5063 22.2138C10.5518 22.7379 9.40971 23 8.08017 23ZM6.2073 20.6286H7.96511C8.78329 20.6286 9.4715 20.4837 10.0297 20.1939C10.5922 19.8999 11.0141 19.446 11.2954 18.8324C11.5809 18.2145 11.7236 17.4176 11.7236 16.4418C11.7236 15.4744 11.5809 14.6839 11.2954 14.0703C11.0141 13.4567 10.5944 13.005 10.0361 12.7152C9.47789 12.4254 8.78968 12.2805 7.9715 12.2805H6.2073V20.6286ZM16.5352 23V9.90909H25.3563V12.1911H19.303V15.3104H24.9024V17.5923H19.303V20.718H25.3818V23H16.5352ZM27.5567 23V9.90909H30.3245V20.718H35.9367V23H27.5567ZM37.7696 23V9.90909H46.5906V12.1911H40.5374V15.3104H46.1368V17.5923H40.5374V20.718H46.6162V23H37.7696ZM48.2925 12.1911V9.90909H59.0439V12.1911H55.0361V23H52.3003V12.1911H48.2925ZM60.8145 23V9.90909H69.6356V12.1911H63.5823V15.3104H69.1817V17.5923H63.5823V20.718H69.6611V23H60.8145Z"/>
</mask>
<path d="M3.43954 23H0.939542V25.5H3.43954V23ZM3.43954 9.90909V7.40909H0.939542V9.90909H3.43954ZM11.5191 10.6953L10.3116 12.8844L10.3192 12.8885L11.5191 10.6953ZM13.7116 12.9389L11.4972 14.0993L11.5012 14.1069L13.7116 12.9389ZM13.7116 19.9574L11.499 18.7934L11.4951 18.801L13.7116 19.9574ZM11.5063 22.2138L10.3071 20.0202L10.303 20.0224L11.5063 22.2138ZM6.2073 20.6286H3.7073V23.1286H6.2073V20.6286ZM10.0297 20.1939L11.1815 22.4128L11.1879 22.4095L10.0297 20.1939ZM11.2954 18.8324L9.02591 17.7837L9.0227 17.7907L11.2954 18.8324ZM11.2954 14.0703L9.0227 15.1119L9.02568 15.1185L9.0287 15.1249L11.2954 14.0703ZM10.0361 12.7152L11.1879 10.4963L11.1879 10.4963L10.0361 12.7152ZM6.2073 12.2805V9.78054H3.7073V12.2805H6.2073ZM8.08017 20.5H3.43954V25.5H8.08017V20.5ZM5.93954 23V9.90909H0.939542V23H5.93954ZM3.43954 12.4091H8.11852V7.40909H3.43954V12.4091ZM8.11852 12.4091C9.10252 12.4091 9.80231 12.6035 10.3117 12.8844L12.7265 8.50623C11.3353 7.73887 9.76804 7.40909 8.11852 7.40909V12.4091ZM10.3192 12.8885C10.8291 13.1675 11.2105 13.5523 11.4972 14.0993L15.9259 11.7785C15.1899 10.3738 14.1097 9.26292 12.719 8.50208L10.3192 12.8885ZM11.5012 14.1069C11.7875 14.6487 11.985 15.3965 11.985 16.4418H16.985C16.985 14.7682 16.6669 13.1808 15.922 11.771L11.5012 14.1069ZM11.985 16.4418C11.985 17.4923 11.7871 18.246 11.4991 18.7934L15.9241 21.1214C16.6673 19.7086 16.985 18.1185 16.985 16.4418H11.985ZM11.4951 18.801C11.2098 19.3477 10.8263 19.7364 10.3071 20.0202L12.7055 24.4074C14.104 23.6429 15.1906 22.5273 15.928 21.1138L11.4951 18.801ZM10.303 20.0224C9.79031 20.3039 9.08116 20.5 8.08017 20.5V25.5C9.73826 25.5 11.3132 25.1719 12.7096 24.4051L10.303 20.0224ZM6.2073 23.1286H7.96511V18.1286H6.2073V23.1286ZM7.96511 23.1286C9.06761 23.1286 10.1767 22.9344 11.1815 22.4128L8.87796 17.975C8.76634 18.033 8.49898 18.1286 7.96511 18.1286V23.1286ZM11.1879 22.4095C12.2742 21.8416 13.0714 20.9575 13.568 19.874L9.0227 17.7907C8.9568 17.9345 8.91032 17.9581 8.87161 17.9783L11.1879 22.4095ZM13.5648 19.881C14.0533 18.8239 14.2236 17.6342 14.2236 16.4418H9.22363C9.22363 17.201 9.10849 17.6051 9.02593 17.7837L13.5648 19.881ZM14.2236 16.4418C14.2236 15.2552 14.0525 14.0699 13.562 13.0157L9.0287 15.1249C9.10922 15.298 9.22363 15.6936 9.22363 16.4418H14.2236ZM13.568 13.0287C13.0729 11.9483 12.2778 11.0621 11.1879 10.4963L8.88435 14.9341C8.91095 14.9479 8.95537 14.965 9.0227 15.1119L13.568 13.0287ZM11.1879 10.4963C10.1831 9.97472 9.074 9.78054 7.9715 9.78054V14.7805C8.50537 14.7805 8.77274 14.8761 8.88435 14.9341L11.1879 10.4963ZM7.9715 9.78054H6.2073V14.7805H7.9715V9.78054ZM3.7073 12.2805V20.6286H8.7073V12.2805H3.7073ZM16.5352 23H14.0352V25.5H16.5352V23ZM16.5352 9.90909V7.40909H14.0352V9.90909H16.5352ZM25.3563 9.90909H27.8563V7.40909H25.3563V9.90909ZM25.3563 12.1911V14.6911H27.8563V12.1911H25.3563ZM19.303 12.1911V9.69105H16.803V12.1911H19.303ZM19.303 15.3104H16.803V17.8104H19.303V15.3104ZM24.9024 15.3104H27.4024V12.8104H24.9024V15.3104ZM24.9024 17.5923V20.0923H27.4024V17.5923H24.9024ZM19.303 17.5923V15.0923H16.803V17.5923H19.303ZM19.303 20.718H16.803V23.218H19.303V20.718ZM25.3818 20.718H27.8818V18.218H25.3818V20.718ZM25.3818 23V25.5H27.8818V23H25.3818ZM19.0352 23V9.90909H14.0352V23H19.0352ZM16.5352 12.4091H25.3563V7.40909H16.5352V12.4091ZM22.8563 9.90909V12.1911H27.8563V9.90909H22.8563ZM25.3563 9.69105H19.303V14.6911H25.3563V9.69105ZM16.803 12.1911V15.3104H21.803V12.1911H16.803ZM19.303 17.8104H24.9024V12.8104H19.303V17.8104ZM22.4024 15.3104V17.5923H27.4024V15.3104H22.4024ZM24.9024 15.0923H19.303V20.0923H24.9024V15.0923ZM16.803 17.5923V20.718H21.803V17.5923H16.803ZM19.303 23.218H25.3818V18.218H19.303V23.218ZM22.8818 20.718V23H27.8818V20.718H22.8818ZM25.3818 20.5H16.5352V25.5H25.3818V20.5ZM27.5567 23H25.0567V25.5H27.5567V23ZM27.5567 9.90909V7.40909H25.0567V9.90909H27.5567ZM30.3245 9.90909H32.8245V7.40909H30.3245V9.90909ZM30.3245 20.718H27.8245V23.218H30.3245V20.718ZM35.9367 20.718H38.4367V18.218H35.9367V20.718ZM35.9367 23V25.5H38.4367V23H35.9367ZM30.0567 23V9.90909H25.0567V23H30.0567ZM27.5567 12.4091H30.3245V7.40909H27.5567V12.4091ZM27.8245 9.90909V20.718H32.8245V9.90909H27.8245ZM30.3245 23.218H35.9367V18.218H30.3245V23.218ZM33.4367 20.718V23H38.4367V20.718H33.4367ZM35.9367 20.5H27.5567V25.5H35.9367V20.5ZM37.7696 23H35.2696V25.5H37.7696V23ZM37.7696 9.90909V7.40909H35.2696V9.90909H37.7696ZM46.5906 9.90909H49.0906V7.40909H46.5906V9.90909ZM46.5906 12.1911V14.6911H49.0906V12.1911H46.5906ZM40.5374 12.1911V9.69105H38.0374V12.1911H40.5374ZM40.5374 15.3104H38.0374V17.8104H40.5374V15.3104ZM46.1368 15.3104H48.6368V12.8104H46.1368V15.3104ZM46.1368 17.5923V20.0923H48.6368V17.5923H46.1368ZM40.5374 17.5923V15.0923H38.0374V17.5923H40.5374ZM40.5374 20.718H38.0374V23.218H40.5374V20.718ZM46.6162 20.718H49.1162V18.218H46.6162V20.718ZM46.6162 23V25.5H49.1162V23H46.6162ZM40.2696 23V9.90909H35.2696V23H40.2696ZM37.7696 12.4091H46.5906V7.40909H37.7696V12.4091ZM44.0906 9.90909V12.1911H49.0906V9.90909H44.0906ZM46.5906 9.69105H40.5374V14.6911H46.5906V9.69105ZM38.0374 12.1911V15.3104H43.0374V12.1911H38.0374ZM40.5374 17.8104H46.1368V12.8104H40.5374V17.8104ZM43.6368 15.3104V17.5923H48.6368V15.3104H43.6368ZM46.1368 15.0923H40.5374V20.0923H46.1368V15.0923ZM38.0374 17.5923V20.718H43.0374V17.5923H38.0374ZM40.5374 23.218H46.6162V18.218H40.5374V23.218ZM44.1162 20.718V23H49.1162V20.718H44.1162ZM46.6162 20.5H37.7696V25.5H46.6162V20.5ZM48.2925 12.1911H45.7925V14.6911H48.2925V12.1911ZM48.2925 9.90909V7.40909H45.7925V9.90909H48.2925ZM59.0439 9.90909H61.5439V7.40909H59.0439V9.90909ZM59.0439 12.1911V14.6911H61.5439V12.1911H59.0439ZM55.0361 12.1911V9.69105H52.5361V12.1911H55.0361ZM55.0361 23V25.5H57.5361V23H55.0361ZM52.3003 23H49.8003V25.5H52.3003V23ZM52.3003 12.1911H54.8003V9.69105H52.3003V12.1911ZM50.7925 12.1911V9.90909H45.7925V12.1911H50.7925ZM48.2925 12.4091H59.0439V7.40909H48.2925V12.4091ZM56.5439 9.90909V12.1911H61.5439V9.90909H56.5439ZM59.0439 9.69105H55.0361V14.6911H59.0439V9.69105ZM52.5361 12.1911V23H57.5361V12.1911H52.5361ZM55.0361 20.5H52.3003V25.5H55.0361V20.5ZM54.8003 23V12.1911H49.8003V23H54.8003ZM52.3003 9.69105H48.2925V14.6911H52.3003V9.69105ZM60.8145 23H58.3145V25.5H60.8145V23ZM60.8145 9.90909V7.40909H58.3145V9.90909H60.8145ZM69.6356 9.90909H72.1356V7.40909H69.6356V9.90909ZM69.6356 12.1911V14.6911H72.1356V12.1911H69.6356ZM63.5823 12.1911V9.69105H61.0823V12.1911H63.5823ZM63.5823 15.3104H61.0823V17.8104H63.5823V15.3104ZM69.1817 15.3104H71.6817V12.8104H69.1817V15.3104ZM69.1817 17.5923V20.0923H71.6817V17.5923H69.1817ZM63.5823 17.5923V15.0923H61.0823V17.5923H63.5823ZM63.5823 20.718H61.0823V23.218H63.5823V20.718ZM69.6611 20.718H72.1611V18.218H69.6611V20.718ZM69.6611 23V25.5H72.1611V23H69.6611ZM63.3145 23V9.90909H58.3145V23H63.3145ZM60.8145 12.4091H69.6356V7.40909H60.8145V12.4091ZM67.1356 9.90909V12.1911H72.1356V9.90909H67.1356ZM69.6356 9.69105H63.5823V14.6911H69.6356V9.69105ZM61.0823 12.1911V15.3104H66.0823V12.1911H61.0823ZM63.5823 17.8104H69.1817V12.8104H63.5823V17.8104ZM66.6817 15.3104V17.5923H71.6817V15.3104H66.6817ZM69.1817 15.0923H63.5823V20.0923H69.1817V15.0923ZM61.0823 17.5923V20.718H66.0823V17.5923H61.0823ZM63.5823 23.218H69.6611V18.218H63.5823V23.218ZM67.1611 20.718V23H72.1611V20.718H67.1611ZM69.6611 20.5H60.8145V25.5H69.6611V20.5Z" fill="white" mask="url(#path-2-inside-1_202_33)"/>
</g>
<defs>
<clipPath id="clip0_202_33">
<rect width="72" height="32" fill="white"/>
</clipPath>
</defs>
</svg>
