<svg width="72" height="32" viewBox="0 0 72 32" fill="none" xmlns="http://www.w3.org/2000/svg">
<g clip-path="url(#clip0_202_51)">
<rect width="72" height="32" rx="8" fill="black"/>
<mask id="path-2-inside-1_202_51" fill="white">
<path d="M27.4243 9.90909V23H25.0336L19.3383 14.7607H19.2425V23H16.4747V9.90909H18.9037L24.5542 18.142H24.6693V9.90909H27.4243ZM29.711 23V9.90909H34.8758C35.8687 9.90909 36.7146 10.0987 37.4134 10.478C38.1123 10.853 38.645 11.375 39.0115 12.044C39.3822 12.7088 39.5676 13.4759 39.5676 14.3452C39.5676 15.2145 39.3801 15.9815 39.0051 16.6463C38.6301 17.3111 38.0867 17.8288 37.3751 18.1996C36.6677 18.5703 35.8112 18.7557 34.8055 18.7557H31.5136V16.5376H34.358C34.8907 16.5376 35.3296 16.446 35.6748 16.2628C36.0242 16.0753 36.2842 15.8175 36.4546 15.4893C36.6294 15.157 36.7167 14.7756 36.7167 14.3452C36.7167 13.9105 36.6294 13.5312 36.4546 13.2074C36.2842 12.8793 36.0242 12.6257 35.6748 12.4467C35.3254 12.2635 34.8822 12.1719 34.3453 12.1719H32.4788V23H29.711ZM45.9213 23V21.0057L50.5811 16.6911C50.9774 16.3075 51.3097 15.9624 51.5782 15.6555C51.8509 15.3487 52.0576 15.0483 52.1982 14.7543C52.3389 14.456 52.4092 14.1342 52.4092 13.7891C52.4092 13.4055 52.3218 13.0753 52.1471 12.7983C51.9724 12.517 51.7338 12.3018 51.4312 12.1527C51.1286 11.9993 50.7856 11.9226 50.4021 11.9226C50.0015 11.9226 49.6521 12.0036 49.3538 12.1655C49.0555 12.3274 48.8254 12.5597 48.6634 12.8622C48.5015 13.1648 48.4205 13.5249 48.4205 13.9425H45.7934C45.7934 13.0859 45.9873 12.3423 46.3751 11.7116C46.7629 11.081 47.3062 10.593 48.0051 10.2479C48.7039 9.9027 49.5093 9.73011 50.4213 9.73011C51.3588 9.73011 52.1748 9.89631 52.8694 10.2287C53.5683 10.5568 54.1116 11.0128 54.4994 11.5966C54.8872 12.1804 55.0811 12.8494 55.0811 13.6037C55.0811 14.098 54.983 14.5859 54.787 15.0675C54.5953 15.549 54.2522 16.0838 53.7579 16.6719C53.2636 17.2557 52.5669 17.9567 51.6677 18.7749L49.7565 20.6477V20.7372H55.2536V23H45.9213Z"/>
</mask>
<path d="M27.4243 9.90909H29.9243V7.40909H27.4243V9.90909ZM27.4243 23V25.5H29.9243V23H27.4243ZM25.0336 23L22.9771 24.4215L23.7226 25.5H25.0336V23ZM19.3383 14.7607L21.3948 13.3391L20.6494 12.2607H19.3383V14.7607ZM19.2425 14.7607V12.2607H16.7425V14.7607H19.2425ZM19.2425 23V25.5H21.7425V23H19.2425ZM16.4747 23H13.9747V25.5H16.4747V23ZM16.4747 9.90909V7.40909H13.9747V9.90909H16.4747ZM18.9037 9.90909L20.9649 8.4944L20.22 7.40909H18.9037V9.90909ZM24.5542 18.142L22.493 19.5567L23.2379 20.642H24.5542V18.142ZM24.6693 18.142V20.642H27.1693V18.142H24.6693ZM24.6693 9.90909V7.40909H22.1693V9.90909H24.6693ZM24.9243 9.90909V23H29.9243V9.90909H24.9243ZM27.4243 20.5H25.0336V25.5H27.4243V20.5ZM27.0902 21.5785L21.3948 13.3391L17.2818 16.1822L22.9771 24.4215L27.0902 21.5785ZM19.3383 12.2607H19.2425V17.2607H19.3383V12.2607ZM16.7425 14.7607V23H21.7425V14.7607H16.7425ZM19.2425 20.5H16.4747V25.5H19.2425V20.5ZM18.9747 23V9.90909H13.9747V23H18.9747ZM16.4747 12.4091H18.9037V7.40909H16.4747V12.4091ZM16.8425 11.3238L22.493 19.5567L26.6155 16.7274L20.9649 8.4944L16.8425 11.3238ZM24.5542 20.642H24.6693V15.642H24.5542V20.642ZM27.1693 18.142V9.90909H22.1693V18.142H27.1693ZM24.6693 12.4091H27.4243V7.40909H24.6693V12.4091ZM29.711 23H27.211V25.5H29.711V23ZM29.711 9.90909V7.40909H27.211V9.90909H29.711ZM37.4134 10.478L36.221 12.6753L36.2314 12.6809L37.4134 10.478ZM39.0115 12.044L36.8189 13.2451L36.8234 13.2534L36.828 13.2617L39.0115 12.044ZM37.3751 18.1996L36.22 15.9824L36.2146 15.9853L37.3751 18.1996ZM31.5136 18.7557H29.0136V21.2557H31.5136V18.7557ZM31.5136 16.5376V14.0376H29.0136V16.5376H31.5136ZM35.6748 16.2628L36.847 18.4709L36.8568 18.4657L35.6748 16.2628ZM36.4546 15.4893L34.2417 14.3261L34.2361 14.3369L36.4546 15.4893ZM36.4546 13.2074L34.2361 14.3599L34.2451 14.3772L34.2544 14.3944L36.4546 13.2074ZM35.6748 12.4467L34.5138 14.6608L34.5244 14.6664L34.5351 14.6718L35.6748 12.4467ZM32.4788 12.1719V9.67188H29.9788V12.1719H32.4788ZM32.4788 23V25.5H34.9788V23H32.4788ZM32.211 23V9.90909H27.211V23H32.211ZM29.711 12.4091H34.8758V7.40909H29.711V12.4091ZM34.8758 12.4091C35.5541 12.4091 35.9683 12.5382 36.221 12.6753L38.6059 8.28069C37.4608 7.65928 36.1833 7.40909 34.8758 7.40909V12.4091ZM36.2314 12.6809C36.5213 12.8365 36.6946 13.0183 36.8189 13.2451L41.2041 10.843C40.5953 9.73171 39.7033 8.8695 38.5955 8.27508L36.2314 12.6809ZM36.828 13.2617C36.9632 13.5041 37.0676 13.8407 37.0676 14.3452H42.0676C42.0676 13.111 41.8012 11.9135 41.1949 10.8264L36.828 13.2617ZM37.0676 14.3452C37.0676 14.8448 36.9632 15.1776 36.8276 15.418L41.1825 17.8746C41.7969 16.7854 42.0676 15.5842 42.0676 14.3452H37.0676ZM36.8276 15.418C36.703 15.6389 36.5255 15.8233 36.22 15.9824L38.5301 20.4167C39.648 19.8344 40.5571 18.9833 41.1825 17.8746L36.8276 15.418ZM36.2146 15.9853C35.9462 16.1259 35.5094 16.2557 34.8055 16.2557V21.2557C36.1129 21.2557 37.3892 21.0147 38.5356 20.4139L36.2146 15.9853ZM34.8055 16.2557H31.5136V21.2557H34.8055V16.2557ZM34.0136 18.7557V16.5376H29.0136V18.7557H34.0136ZM31.5136 19.0376H34.358V14.0376H31.5136V19.0376ZM34.358 19.0376C35.1581 19.0376 36.0338 18.9027 36.847 18.4709L34.5026 14.0546C34.5661 14.0209 34.598 14.0171 34.5759 14.0217C34.5523 14.0266 34.4837 14.0376 34.358 14.0376V19.0376ZM36.8568 18.4657C37.6158 18.0584 38.2537 17.4493 38.6731 16.6418L34.2361 14.3369C34.2692 14.2733 34.3155 14.2092 34.3714 14.1538C34.4262 14.0994 34.4726 14.0707 34.4928 14.0599L36.8568 18.4657ZM38.6675 16.6525C39.0568 15.9121 39.2167 15.1212 39.2167 14.3452H34.2167C34.2167 14.391 34.2121 14.4054 34.2143 14.3958C34.2154 14.3912 34.2178 14.382 34.2225 14.3692C34.2272 14.3564 34.2335 14.3417 34.2417 14.3262L38.6675 16.6525ZM39.2167 14.3452C39.2167 13.5712 39.0592 12.7698 38.6549 12.0204L34.2544 14.3944C34.2424 14.3722 34.2333 14.3516 34.2267 14.3338C34.2201 14.3161 34.2166 14.3031 34.215 14.2959C34.2117 14.2815 34.2167 14.2951 34.2167 14.3452H39.2167ZM38.6731 12.0549C38.248 11.2366 37.596 10.6219 36.8145 10.2216L34.5351 14.6718C34.5052 14.6565 34.4492 14.6222 34.3862 14.5608C34.3221 14.4983 34.2713 14.4276 34.2361 14.3599L38.6731 12.0549ZM36.8358 10.2327C36.0226 9.80623 35.1476 9.67188 34.3453 9.67188V14.6719C34.4742 14.6719 34.5465 14.6831 34.5742 14.6888C34.6004 14.6942 34.5731 14.6919 34.5138 14.6608L36.8358 10.2327ZM34.3453 9.67188H32.4788V14.6719H34.3453V9.67188ZM29.9788 12.1719V23H34.9788V12.1719H29.9788ZM32.4788 20.5H29.711V25.5H32.4788V20.5ZM45.9213 23H43.4213V25.5H45.9213V23ZM45.9213 21.0057L44.2227 19.1713L43.4213 19.9134V21.0057H45.9213ZM50.5811 16.6911L52.2796 18.5255L52.2998 18.5067L52.3196 18.4876L50.5811 16.6911ZM51.5782 15.6555L49.7097 13.9946L49.7032 14.0019L49.6968 14.0093L51.5782 15.6555ZM52.1982 14.7543L54.4536 15.8329L54.4596 15.8203L52.1982 14.7543ZM52.1471 12.7983L50.0235 14.1175L50.028 14.1248L50.0326 14.1321L52.1471 12.7983ZM51.4312 12.1527L50.3006 14.3825L50.3132 14.3888L50.3258 14.395L51.4312 12.1527ZM49.3538 12.1655L48.1611 9.96835L48.1611 9.96835L49.3538 12.1655ZM48.4205 13.9425V16.4425H50.9205V13.9425H48.4205ZM45.7934 13.9425H43.2934V16.4425H45.7934V13.9425ZM48.0051 10.2479L46.898 8.00636L46.898 8.00636L48.0051 10.2479ZM52.8694 10.2287L51.7903 12.4838L51.7986 12.4878L51.8069 12.4917L52.8694 10.2287ZM54.4994 11.5966L56.5818 10.2134L56.5818 10.2133L54.4994 11.5966ZM54.787 15.0675L52.4715 14.1249L52.4679 14.1337L52.4644 14.1425L54.787 15.0675ZM53.7579 16.6719L55.6659 18.2874L55.6716 18.2805L53.7579 16.6719ZM51.6677 18.7749L49.9851 16.9258L49.951 16.9569L49.9179 16.9893L51.6677 18.7749ZM49.7565 20.6477L48.0067 18.8621L47.2565 19.5973V20.6477H49.7565ZM49.7565 20.7372H47.2565V23.2372H49.7565V20.7372ZM55.2536 20.7372H57.7536V18.2372H55.2536V20.7372ZM55.2536 23V25.5H57.7536V23H55.2536ZM48.4213 23V21.0057H43.4213V23H48.4213ZM47.6198 22.8401L52.2796 18.5255L48.8825 14.8566L44.2227 19.1713L47.6198 22.8401ZM52.3196 18.4876C52.7496 18.0715 53.133 17.6751 53.4597 17.3018L49.6968 14.0093C49.4865 14.2496 49.2052 14.5436 48.8425 14.8945L52.3196 18.4876ZM53.4467 17.3164C53.8367 16.8778 54.1897 16.3846 54.4536 15.8329L49.9429 13.6756C49.9255 13.712 49.8652 13.8197 49.7097 13.9946L53.4467 17.3164ZM54.4596 15.8203C54.7647 15.173 54.9092 14.4852 54.9092 13.7891H49.9092C49.9092 13.7908 49.9091 13.7782 49.9141 13.7555C49.9191 13.7324 49.9272 13.7089 49.9369 13.6882L54.4596 15.8203ZM54.9092 13.7891C54.9092 13.0156 54.7287 12.205 54.2616 11.4645L50.0326 14.1321C49.9787 14.0466 49.9452 13.9627 49.9268 13.893C49.909 13.8258 49.9092 13.7871 49.9092 13.7891H54.9092ZM54.2707 11.4791C53.8447 10.7932 53.2498 10.2619 52.5366 9.91035L50.3258 14.395C50.2809 14.3729 50.2228 14.3366 50.1628 14.2825C50.1026 14.2283 50.0562 14.1701 50.0235 14.1175L54.2707 11.4791ZM52.5618 9.92295C51.8654 9.56987 51.1267 9.42259 50.4021 9.42259V14.4226C50.4268 14.4226 50.4244 14.425 50.4015 14.4199C50.3774 14.4145 50.3415 14.4032 50.3006 14.3825L52.5618 9.92295ZM50.4021 9.42259C49.66 9.42259 48.8863 9.57466 48.1611 9.96835L50.5465 14.3626C50.487 14.3949 50.436 14.4114 50.4039 14.4188C50.3735 14.4258 50.37 14.4226 50.4021 14.4226V9.42259ZM48.1611 9.96835C47.4284 10.3661 46.849 10.9544 46.4593 11.6825L50.8676 14.0419C50.8403 14.093 50.7966 14.1569 50.7334 14.2207C50.67 14.2847 50.6038 14.3315 50.5465 14.3626L48.1611 9.96835ZM46.4593 11.6825C46.0653 12.4187 45.9205 13.2017 45.9205 13.9425H50.9205C50.9205 13.8945 50.9252 13.8859 50.9204 13.9076C50.9151 13.9311 50.9008 13.9799 50.8676 14.0419L46.4593 11.6825ZM48.4205 11.4425H45.7934V16.4425H48.4205V11.4425ZM48.2934 13.9425C48.2934 13.4744 48.3951 13.1994 48.5047 13.0211L44.2454 10.4022C43.5795 11.4852 43.2934 12.6975 43.2934 13.9425H48.2934ZM48.5047 13.0211C48.6329 12.8127 48.8117 12.6378 49.1121 12.4894L46.898 8.00636C45.8007 8.54831 44.8929 9.34922 44.2454 10.4022L48.5047 13.0211ZM49.1121 12.4894C49.4128 12.3409 49.8283 12.2301 50.4213 12.2301V7.23011C49.1904 7.23011 47.995 7.46452 46.898 8.00636L49.1121 12.4894ZM50.4213 12.2301C51.0651 12.2301 51.4978 12.3438 51.7903 12.4838L53.9485 7.97359C52.8518 7.44877 51.6525 7.23011 50.4213 7.23011V12.2301ZM51.8069 12.4917C52.1351 12.6458 52.3075 12.8151 52.4169 12.9798L56.5818 10.2133C55.9157 9.21046 55.0015 8.46788 53.9319 7.96571L51.8069 12.4917ZM52.4169 12.9798C52.5115 13.1222 52.5811 13.3023 52.5811 13.6037H57.5811C57.5811 12.3966 57.2629 11.2386 56.5818 10.2134L52.4169 12.9798ZM52.5811 13.6037C52.5811 13.7583 52.5521 13.9269 52.4715 14.1249L57.1025 16.0101C57.414 15.2449 57.5811 14.4377 57.5811 13.6037H52.5811ZM52.4644 14.1425C52.4069 14.287 52.2412 14.5909 51.8442 15.0632L55.6716 18.2805C56.2632 17.5767 56.7836 16.811 57.1096 15.9924L52.4644 14.1425ZM51.85 15.0564C51.454 15.5241 50.8449 16.1435 49.9851 16.9258L53.3503 20.6239C54.2888 19.7699 55.0732 18.9873 55.6658 18.2874L51.85 15.0564ZM49.9179 16.9893L48.0067 18.8621L51.5062 22.4333L53.4175 20.5604L49.9179 16.9893ZM47.2565 20.6477V20.7372H52.2565V20.6477H47.2565ZM49.7565 23.2372H55.2536V18.2372H49.7565V23.2372ZM52.7536 20.7372V23H57.7536V20.7372H52.7536ZM55.2536 20.5H45.9213V25.5H55.2536V20.5Z" fill="white" mask="url(#path-2-inside-1_202_51)"/>
</g>
<defs>
<clipPath id="clip0_202_51">
<rect width="72" height="32" fill="white"/>
</clipPath>
</defs>
</svg>
