<svg width="72" height="32" viewBox="0 0 72 32" fill="none" xmlns="http://www.w3.org/2000/svg">
<g clip-path="url(#clip0_202_83)">
<rect width="72" height="32" rx="8" fill="black"/>
<mask id="path-2-inside-1_202_83" fill="white">
<path d="M27.4243 9.90909V23H25.0336L19.3383 14.7607H19.2425V23H16.4747V9.90909H18.9037L24.5542 18.142H24.6693V9.90909H27.4243ZM29.711 23V9.90909H34.8758C35.8687 9.90909 36.7146 10.0987 37.4134 10.478C38.1123 10.853 38.645 11.375 39.0115 12.044C39.3822 12.7088 39.5676 13.4759 39.5676 14.3452C39.5676 15.2145 39.3801 15.9815 39.0051 16.6463C38.6301 17.3111 38.0867 17.8288 37.3751 18.1996C36.6677 18.5703 35.8112 18.7557 34.8055 18.7557H31.5136V16.5376H34.358C34.8907 16.5376 35.3296 16.446 35.6748 16.2628C36.0242 16.0753 36.2842 15.8175 36.4546 15.4893C36.6294 15.157 36.7167 14.7756 36.7167 14.3452C36.7167 13.9105 36.6294 13.5312 36.4546 13.2074C36.2842 12.8793 36.0242 12.6257 35.6748 12.4467C35.3254 12.2635 34.8822 12.1719 34.3453 12.1719H32.4788V23H29.711ZM50.5299 23.2876C49.4305 23.2834 48.4845 23.0128 47.6919 22.4759C46.9035 21.9389 46.2963 21.1612 45.8701 20.1428C45.4482 19.1243 45.2394 17.8991 45.2437 16.4673C45.2437 15.0398 45.4546 13.8232 45.8765 12.8175C46.3026 11.8118 46.9099 11.0469 47.6982 10.5227C48.4909 9.99432 49.4347 9.73011 50.5299 9.73011C51.6251 9.73011 52.5669 9.99432 53.3552 10.5227C54.1478 11.0511 54.7572 11.8182 55.1833 12.8239C55.6095 13.8253 55.8204 15.0398 55.8161 16.4673C55.8161 17.9034 55.6031 19.1307 55.1769 20.1491C54.7551 21.1676 54.1499 21.9453 53.3616 22.4822C52.5732 23.0192 51.6294 23.2876 50.5299 23.2876ZM50.5299 20.9929C51.2799 20.9929 51.8786 20.6158 52.3261 19.8615C52.7735 19.1072 52.9951 17.9759 52.9909 16.4673C52.9909 15.4744 52.8886 14.6477 52.684 13.9872C52.4838 13.3267 52.1982 12.8303 51.8275 12.4979C51.461 12.1655 51.0285 11.9993 50.5299 11.9993C49.7842 11.9993 49.1876 12.3722 48.7401 13.1179C48.2927 13.8636 48.0669 14.9801 48.0626 16.4673C48.0626 17.473 48.1627 18.3125 48.363 18.9858C48.5676 19.6548 48.8552 20.1577 49.2259 20.4943C49.5967 20.8267 50.0313 20.9929 50.5299 20.9929Z"/>
</mask>
<path d="M27.4243 9.90909H29.9243V7.40909H27.4243V9.90909ZM27.4243 23V25.5H29.9243V23H27.4243ZM25.0336 23L22.9771 24.4215L23.7226 25.5H25.0336V23ZM19.3383 14.7607L21.3948 13.3391L20.6494 12.2607H19.3383V14.7607ZM19.2425 14.7607V12.2607H16.7425V14.7607H19.2425ZM19.2425 23V25.5H21.7425V23H19.2425ZM16.4747 23H13.9747V25.5H16.4747V23ZM16.4747 9.90909V7.40909H13.9747V9.90909H16.4747ZM18.9037 9.90909L20.9649 8.4944L20.22 7.40909H18.9037V9.90909ZM24.5542 18.142L22.493 19.5567L23.2379 20.642H24.5542V18.142ZM24.6693 18.142V20.642H27.1693V18.142H24.6693ZM24.6693 9.90909V7.40909H22.1693V9.90909H24.6693ZM24.9243 9.90909V23H29.9243V9.90909H24.9243ZM27.4243 20.5H25.0336V25.5H27.4243V20.5ZM27.0902 21.5785L21.3948 13.3391L17.2818 16.1822L22.9771 24.4215L27.0902 21.5785ZM19.3383 12.2607H19.2425V17.2607H19.3383V12.2607ZM16.7425 14.7607V23H21.7425V14.7607H16.7425ZM19.2425 20.5H16.4747V25.5H19.2425V20.5ZM18.9747 23V9.90909H13.9747V23H18.9747ZM16.4747 12.4091H18.9037V7.40909H16.4747V12.4091ZM16.8425 11.3238L22.493 19.5567L26.6155 16.7274L20.9649 8.4944L16.8425 11.3238ZM24.5542 20.642H24.6693V15.642H24.5542V20.642ZM27.1693 18.142V9.90909H22.1693V18.142H27.1693ZM24.6693 12.4091H27.4243V7.40909H24.6693V12.4091ZM29.711 23H27.211V25.5H29.711V23ZM29.711 9.90909V7.40909H27.211V9.90909H29.711ZM37.4134 10.478L36.221 12.6753L36.2314 12.6809L37.4134 10.478ZM39.0115 12.044L36.8189 13.2451L36.8234 13.2534L36.828 13.2617L39.0115 12.044ZM37.3751 18.1996L36.22 15.9824L36.2146 15.9853L37.3751 18.1996ZM31.5136 18.7557H29.0136V21.2557H31.5136V18.7557ZM31.5136 16.5376V14.0376H29.0136V16.5376H31.5136ZM35.6748 16.2628L36.847 18.4709L36.8568 18.4657L35.6748 16.2628ZM36.4546 15.4893L34.2417 14.3261L34.2361 14.3369L36.4546 15.4893ZM36.4546 13.2074L34.2361 14.3599L34.2451 14.3772L34.2544 14.3944L36.4546 13.2074ZM35.6748 12.4467L34.5138 14.6608L34.5244 14.6664L34.5351 14.6718L35.6748 12.4467ZM32.4788 12.1719V9.67188H29.9788V12.1719H32.4788ZM32.4788 23V25.5H34.9788V23H32.4788ZM32.211 23V9.90909H27.211V23H32.211ZM29.711 12.4091H34.8758V7.40909H29.711V12.4091ZM34.8758 12.4091C35.5541 12.4091 35.9683 12.5382 36.221 12.6753L38.6059 8.28069C37.4608 7.65928 36.1833 7.40909 34.8758 7.40909V12.4091ZM36.2314 12.6809C36.5213 12.8365 36.6946 13.0183 36.8189 13.2451L41.2041 10.843C40.5953 9.73171 39.7033 8.8695 38.5955 8.27508L36.2314 12.6809ZM36.828 13.2617C36.9632 13.5041 37.0676 13.8407 37.0676 14.3452H42.0676C42.0676 13.111 41.8012 11.9135 41.1949 10.8264L36.828 13.2617ZM37.0676 14.3452C37.0676 14.8448 36.9632 15.1776 36.8276 15.418L41.1825 17.8746C41.7969 16.7854 42.0676 15.5842 42.0676 14.3452H37.0676ZM36.8276 15.418C36.703 15.6389 36.5255 15.8233 36.22 15.9824L38.5301 20.4167C39.648 19.8344 40.5571 18.9833 41.1825 17.8746L36.8276 15.418ZM36.2146 15.9853C35.9462 16.1259 35.5094 16.2557 34.8055 16.2557V21.2557C36.1129 21.2557 37.3892 21.0147 38.5356 20.4139L36.2146 15.9853ZM34.8055 16.2557H31.5136V21.2557H34.8055V16.2557ZM34.0136 18.7557V16.5376H29.0136V18.7557H34.0136ZM31.5136 19.0376H34.358V14.0376H31.5136V19.0376ZM34.358 19.0376C35.1581 19.0376 36.0338 18.9027 36.847 18.4709L34.5026 14.0546C34.5661 14.0209 34.598 14.0171 34.5759 14.0217C34.5523 14.0266 34.4837 14.0376 34.358 14.0376V19.0376ZM36.8568 18.4657C37.6158 18.0584 38.2537 17.4493 38.6731 16.6418L34.2361 14.3369C34.2692 14.2733 34.3155 14.2092 34.3714 14.1538C34.4262 14.0994 34.4726 14.0707 34.4928 14.0599L36.8568 18.4657ZM38.6675 16.6525C39.0568 15.9121 39.2167 15.1212 39.2167 14.3452H34.2167C34.2167 14.391 34.2121 14.4054 34.2143 14.3958C34.2154 14.3912 34.2178 14.382 34.2225 14.3692C34.2272 14.3564 34.2335 14.3417 34.2417 14.3262L38.6675 16.6525ZM39.2167 14.3452C39.2167 13.5712 39.0592 12.7698 38.6549 12.0204L34.2544 14.3944C34.2424 14.3722 34.2333 14.3516 34.2267 14.3338C34.2201 14.3161 34.2166 14.3031 34.215 14.2959C34.2117 14.2815 34.2167 14.2951 34.2167 14.3452H39.2167ZM38.6731 12.0549C38.248 11.2366 37.596 10.6219 36.8145 10.2216L34.5351 14.6718C34.5052 14.6565 34.4492 14.6222 34.3862 14.5608C34.3221 14.4983 34.2713 14.4276 34.2361 14.3599L38.6731 12.0549ZM36.8358 10.2327C36.0226 9.80623 35.1476 9.67188 34.3453 9.67188V14.6719C34.4742 14.6719 34.5465 14.6831 34.5742 14.6888C34.6004 14.6942 34.5731 14.6919 34.5138 14.6608L36.8358 10.2327ZM34.3453 9.67188H32.4788V14.6719H34.3453V9.67188ZM29.9788 12.1719V23H34.9788V12.1719H29.9788ZM32.4788 20.5H29.711V25.5H32.4788V20.5ZM50.5299 23.2876L50.5202 25.7876H50.5299V23.2876ZM47.6919 22.4759L46.2845 24.5421L46.2897 24.5456L47.6919 22.4759ZM45.8701 20.1428L43.5604 21.0995L43.5639 21.1077L45.8701 20.1428ZM45.2437 16.4673L47.7437 16.4748V16.4673H45.2437ZM45.8765 12.8175L43.5746 11.8421L43.5711 11.8504L45.8765 12.8175ZM47.6982 10.5227L49.0824 12.6046L49.085 12.6029L47.6982 10.5227ZM53.3552 10.5227L51.9633 12.5994L51.9685 12.6029L53.3552 10.5227ZM55.1833 12.8239L52.8814 13.7992L52.8829 13.8028L55.1833 12.8239ZM55.8161 16.4673L53.3161 16.4599V16.4673H55.8161ZM55.1769 20.1491L52.8707 19.1842L52.8672 19.1924L55.1769 20.1491ZM53.3616 22.4822L51.9543 20.416L51.9543 20.416L53.3616 22.4822ZM52.3261 19.8615L54.4762 21.137L54.4762 21.137L52.3261 19.8615ZM52.9909 16.4673L50.4908 16.4673L50.4909 16.4744L52.9909 16.4673ZM52.684 13.9872L50.2916 14.7127L50.2937 14.7197L50.2959 14.7268L52.684 13.9872ZM51.8275 12.4979L50.148 14.3497L50.1533 14.3545L50.1586 14.3593L51.8275 12.4979ZM48.0626 16.4673L45.5626 16.4602V16.4673H48.0626ZM48.363 18.9858L45.9668 19.6986L45.9695 19.7077L45.9723 19.7167L48.363 18.9858ZM49.2259 20.4943L47.5453 22.3451L47.5512 22.3505L47.5571 22.3557L49.2259 20.4943ZM50.5396 20.7877C49.8609 20.785 49.4168 20.6248 49.094 20.4061L46.2897 24.5456C47.5521 25.4008 49.0001 25.7817 50.5202 25.7876L50.5396 20.7877ZM49.0992 20.4096C48.7706 20.1858 48.4459 19.8218 48.1764 19.1778L43.5639 21.1077C44.1467 22.5006 45.0364 23.692 46.2845 24.5421L49.0992 20.4096ZM48.1798 19.186C47.9162 18.5497 47.7401 17.6701 47.7437 16.4748L42.7437 16.4599C42.7387 18.1282 42.9803 19.6989 43.5604 21.0995L48.1798 19.186ZM47.7437 16.4673C47.7437 15.2742 47.9215 14.4052 48.1819 13.7846L43.5711 11.8504C42.9878 13.2411 42.7437 14.8053 42.7437 16.4673H47.7437ZM48.1784 13.7928C48.4437 13.1668 48.7616 12.8179 49.0824 12.6046L46.3141 8.44087C45.0582 9.27585 44.1616 10.4568 43.5746 11.8421L48.1784 13.7928ZM49.085 12.6029C49.408 12.3875 49.8524 12.2301 50.5299 12.2301V7.23011C49.0171 7.23011 47.5737 7.60112 46.3115 8.4426L49.085 12.6029ZM50.5299 12.2301C51.2078 12.2301 51.6473 12.3876 51.9633 12.5994L54.7471 8.44606C53.4864 7.60102 52.0423 7.23011 50.5299 7.23011V12.2301ZM51.9685 12.6029C52.2975 12.8222 52.6172 13.1755 52.8814 13.7992L57.4852 11.8485C56.8972 10.4608 55.9982 9.28007 54.742 8.4426L51.9685 12.6029ZM52.8829 13.8028C53.142 14.4114 53.3197 15.2706 53.3162 16.4599L58.3161 16.4748C58.3211 14.8089 58.077 13.2391 57.4837 11.845L52.8829 13.8028ZM53.3161 16.4673C53.3161 17.6671 53.1367 18.5483 52.8707 19.1842L57.4832 21.1141C58.0694 19.7131 58.3161 18.1397 58.3161 16.4673H53.3161ZM52.8672 19.1924C52.602 19.8328 52.2805 20.1938 51.9543 20.416L54.7689 24.5485C56.0194 23.6968 56.9082 22.5024 57.4866 21.1059L52.8672 19.1924ZM51.9543 20.416C51.6416 20.6289 51.2063 20.7876 50.5299 20.7876V25.7876C52.0524 25.7876 53.5049 25.4094 54.7689 24.5485L51.9543 20.416ZM50.5299 23.4929C52.3262 23.4929 53.6688 22.4981 54.4762 21.137L50.1759 18.586C50.1069 18.7024 50.1023 18.6619 50.209 18.5947C50.2616 18.5616 50.3242 18.5332 50.3908 18.5145C50.4564 18.4962 50.506 18.4929 50.5299 18.4929V23.4929ZM54.4762 21.137C55.2654 19.8067 55.4956 18.135 55.4908 16.4603L50.4909 16.4744C50.4947 17.8167 50.2817 18.4078 50.1759 18.586L54.4762 21.137ZM55.4909 16.4673C55.4909 15.3231 55.3754 14.2271 55.0721 13.2477L50.2959 14.7268C50.4017 15.0684 50.4909 15.6258 50.4909 16.4673H55.4909ZM55.0765 13.2618C54.7925 12.3254 54.3148 11.3702 53.4964 10.6364L50.1586 14.3593C50.0817 14.2903 50.175 14.328 50.2916 14.7127L55.0765 13.2618ZM53.507 10.6461C52.6767 9.89299 51.6441 9.49929 50.5299 9.49929V14.4993C50.4961 14.4993 50.4226 14.4926 50.3316 14.4576C50.2403 14.4225 50.178 14.3769 50.148 14.3497L53.507 10.6461ZM50.5299 9.49929C48.7462 9.49929 47.4069 10.4809 46.5964 11.8317L50.8839 14.4041C50.9515 14.2914 50.9547 14.3324 50.8482 14.3989C50.7957 14.4317 50.7336 14.4597 50.6677 14.478C50.6028 14.496 50.5537 14.4993 50.5299 14.4993V9.49929ZM46.5964 11.8317C45.8058 13.1493 45.5673 14.8037 45.5626 16.4602L50.5626 16.4745C50.5664 15.1565 50.7796 14.5779 50.8839 14.4041L46.5964 11.8317ZM45.5626 16.4673C45.5626 17.6196 45.6751 18.7179 45.9668 19.6986L50.7592 18.273C50.6504 17.9071 50.5626 17.3264 50.5626 16.4673H45.5626ZM45.9723 19.7167C46.2586 20.6533 46.7345 21.6089 47.5453 22.3451L50.9066 18.6435C50.9759 18.7064 50.8765 18.6564 50.7538 18.2549L45.9723 19.7167ZM47.5571 22.3557C48.3871 23.0999 49.4163 23.4929 50.5299 23.4929V18.4929C50.5639 18.4929 50.6353 18.4997 50.7228 18.5331C50.8104 18.5666 50.8687 18.6095 50.8948 18.6329L47.5571 22.3557Z" fill="white" mask="url(#path-2-inside-1_202_83)"/>
</g>
<defs>
<clipPath id="clip0_202_83">
<rect width="72" height="32" fill="white"/>
</clipPath>
</defs>
</svg>
