<svg width="72" height="32" viewBox="0 0 72 32" fill="none" xmlns="http://www.w3.org/2000/svg">
<g clip-path="url(#clip0_202_75)">
<rect width="72" height="32" rx="8" fill="black"/>
<mask id="path-2-inside-1_202_75" fill="white">
<path d="M27.4243 9.90909V23H25.0336L19.3383 14.7607H19.2425V23H16.4747V9.90909H18.9037L24.5542 18.142H24.6693V9.90909H27.4243ZM29.711 23V9.90909H34.8758C35.8687 9.90909 36.7146 10.0987 37.4134 10.478C38.1123 10.853 38.645 11.375 39.0115 12.044C39.3822 12.7088 39.5676 13.4759 39.5676 14.3452C39.5676 15.2145 39.3801 15.9815 39.0051 16.6463C38.6301 17.3111 38.0867 17.8288 37.3751 18.1996C36.6677 18.5703 35.8112 18.7557 34.8055 18.7557H31.5136V16.5376H34.358C34.8907 16.5376 35.3296 16.446 35.6748 16.2628C36.0242 16.0753 36.2842 15.8175 36.4546 15.4893C36.6294 15.157 36.7167 14.7756 36.7167 14.3452C36.7167 13.9105 36.6294 13.5312 36.4546 13.2074C36.2842 12.8793 36.0242 12.6257 35.6748 12.4467C35.3254 12.2635 34.8822 12.1719 34.3453 12.1719H32.4788V23H29.711ZM50.5299 23.179C49.5455 23.179 48.6698 23.0192 47.9028 22.6996C47.14 22.3757 46.5413 21.9347 46.1066 21.3764C45.672 20.8182 45.4546 20.1854 45.4546 19.478C45.4546 18.9325 45.5782 18.4318 45.8254 17.9759C46.0768 17.5156 46.4177 17.1342 46.8481 16.8317C47.2785 16.5249 47.76 16.3288 48.2927 16.2436V16.1541C47.5938 16.0135 47.0271 15.6747 46.5924 15.1378C46.1578 14.5966 45.9404 13.968 45.9404 13.2521C45.9404 12.5746 46.1386 11.9716 46.5349 11.4432C46.9312 10.9105 47.4745 10.4929 48.1649 10.1903C48.8595 9.88352 49.6478 9.73011 50.5299 9.73011C51.412 9.73011 52.1982 9.88352 52.8886 10.1903C53.5832 10.4972 54.1286 10.9169 54.5249 11.4496C54.9213 11.978 55.1215 12.5788 55.1258 13.2521C55.1215 13.9723 54.8999 14.6009 54.461 15.1378C54.0221 15.6747 53.4596 16.0135 52.7735 16.1541V16.2436C53.2977 16.3288 53.7728 16.5249 54.199 16.8317C54.6294 17.1342 54.9703 17.5156 55.2217 17.9759C55.4774 18.4318 55.6073 18.9325 55.6116 19.478C55.6073 20.1854 55.3879 20.8182 54.9532 21.3764C54.5186 21.9347 53.9177 22.3757 53.1507 22.6996C52.3879 23.0192 51.5143 23.179 50.5299 23.179ZM50.5299 21.1463C50.9688 21.1463 51.3524 21.0675 51.6805 20.9098C52.0086 20.7479 52.2643 20.5263 52.4475 20.245C52.635 19.9595 52.7288 19.6314 52.7288 19.2607C52.7288 18.8814 52.6329 18.5469 52.4411 18.2571C52.2494 17.9631 51.9894 17.733 51.6613 17.5668C51.3332 17.3963 50.9561 17.3111 50.5299 17.3111C50.108 17.3111 49.7309 17.3963 49.3985 17.5668C49.0661 17.733 48.8041 17.9631 48.6123 18.2571C48.4248 18.5469 48.3311 18.8814 48.3311 19.2607C48.3311 19.6314 48.4227 19.9595 48.6059 20.245C48.7892 20.5263 49.047 20.7479 49.3794 20.9098C49.7117 21.0675 50.0953 21.1463 50.5299 21.1463ZM50.5299 15.2976C50.8964 15.2976 51.2224 15.223 51.5079 15.0739C51.7934 14.9247 52.0171 14.718 52.1791 14.4538C52.341 14.1896 52.422 13.8849 52.422 13.5398C52.422 13.1989 52.341 12.9006 52.1791 12.6449C52.0171 12.3849 51.7955 12.1825 51.5143 12.0376C51.233 11.8885 50.9049 11.8139 50.5299 11.8139C50.1592 11.8139 49.8311 11.8885 49.5455 12.0376C49.26 12.1825 49.0363 12.3849 48.8744 12.6449C48.7167 12.9006 48.6379 13.1989 48.6379 13.5398C48.6379 13.8849 48.7188 14.1896 48.8808 14.4538C49.0427 14.718 49.2664 14.9247 49.5519 15.0739C49.8374 15.223 50.1634 15.2976 50.5299 15.2976Z"/>
</mask>
<path d="M27.4243 9.90909H29.9243V7.40909H27.4243V9.90909ZM27.4243 23V25.5H29.9243V23H27.4243ZM25.0336 23L22.9771 24.4215L23.7226 25.5H25.0336V23ZM19.3383 14.7607L21.3948 13.3391L20.6494 12.2607H19.3383V14.7607ZM19.2425 14.7607V12.2607H16.7425V14.7607H19.2425ZM19.2425 23V25.5H21.7425V23H19.2425ZM16.4747 23H13.9747V25.5H16.4747V23ZM16.4747 9.90909V7.40909H13.9747V9.90909H16.4747ZM18.9037 9.90909L20.9649 8.4944L20.22 7.40909H18.9037V9.90909ZM24.5542 18.142L22.493 19.5567L23.2379 20.642H24.5542V18.142ZM24.6693 18.142V20.642H27.1693V18.142H24.6693ZM24.6693 9.90909V7.40909H22.1693V9.90909H24.6693ZM24.9243 9.90909V23H29.9243V9.90909H24.9243ZM27.4243 20.5H25.0336V25.5H27.4243V20.5ZM27.0902 21.5785L21.3948 13.3391L17.2818 16.1822L22.9771 24.4215L27.0902 21.5785ZM19.3383 12.2607H19.2425V17.2607H19.3383V12.2607ZM16.7425 14.7607V23H21.7425V14.7607H16.7425ZM19.2425 20.5H16.4747V25.5H19.2425V20.5ZM18.9747 23V9.90909H13.9747V23H18.9747ZM16.4747 12.4091H18.9037V7.40909H16.4747V12.4091ZM16.8425 11.3238L22.493 19.5567L26.6155 16.7274L20.9649 8.4944L16.8425 11.3238ZM24.5542 20.642H24.6693V15.642H24.5542V20.642ZM27.1693 18.142V9.90909H22.1693V18.142H27.1693ZM24.6693 12.4091H27.4243V7.40909H24.6693V12.4091ZM29.711 23H27.211V25.5H29.711V23ZM29.711 9.90909V7.40909H27.211V9.90909H29.711ZM37.4134 10.478L36.221 12.6753L36.2314 12.6809L37.4134 10.478ZM39.0115 12.044L36.8189 13.2451L36.8234 13.2534L36.828 13.2617L39.0115 12.044ZM37.3751 18.1996L36.22 15.9824L36.2146 15.9853L37.3751 18.1996ZM31.5136 18.7557H29.0136V21.2557H31.5136V18.7557ZM31.5136 16.5376V14.0376H29.0136V16.5376H31.5136ZM35.6748 16.2628L36.847 18.4709L36.8568 18.4657L35.6748 16.2628ZM36.4546 15.4893L34.2417 14.3261L34.2361 14.3369L36.4546 15.4893ZM36.4546 13.2074L34.2361 14.3599L34.2451 14.3772L34.2544 14.3944L36.4546 13.2074ZM35.6748 12.4467L34.5138 14.6608L34.5244 14.6664L34.5351 14.6718L35.6748 12.4467ZM32.4788 12.1719V9.67188H29.9788V12.1719H32.4788ZM32.4788 23V25.5H34.9788V23H32.4788ZM32.211 23V9.90909H27.211V23H32.211ZM29.711 12.4091H34.8758V7.40909H29.711V12.4091ZM34.8758 12.4091C35.5541 12.4091 35.9683 12.5382 36.221 12.6753L38.6059 8.28069C37.4608 7.65928 36.1833 7.40909 34.8758 7.40909V12.4091ZM36.2314 12.6809C36.5213 12.8365 36.6946 13.0183 36.8189 13.2451L41.2041 10.843C40.5953 9.73171 39.7033 8.8695 38.5955 8.27508L36.2314 12.6809ZM36.828 13.2617C36.9632 13.5041 37.0676 13.8407 37.0676 14.3452H42.0676C42.0676 13.111 41.8012 11.9135 41.1949 10.8264L36.828 13.2617ZM37.0676 14.3452C37.0676 14.8448 36.9632 15.1776 36.8276 15.418L41.1825 17.8746C41.7969 16.7854 42.0676 15.5842 42.0676 14.3452H37.0676ZM36.8276 15.418C36.703 15.6389 36.5255 15.8233 36.22 15.9824L38.5301 20.4167C39.648 19.8344 40.5571 18.9833 41.1825 17.8746L36.8276 15.418ZM36.2146 15.9853C35.9462 16.1259 35.5094 16.2557 34.8055 16.2557V21.2557C36.1129 21.2557 37.3892 21.0147 38.5356 20.4139L36.2146 15.9853ZM34.8055 16.2557H31.5136V21.2557H34.8055V16.2557ZM34.0136 18.7557V16.5376H29.0136V18.7557H34.0136ZM31.5136 19.0376H34.358V14.0376H31.5136V19.0376ZM34.358 19.0376C35.1581 19.0376 36.0338 18.9027 36.847 18.4709L34.5026 14.0546C34.5661 14.0209 34.598 14.0171 34.5759 14.0217C34.5523 14.0266 34.4837 14.0376 34.358 14.0376V19.0376ZM36.8568 18.4657C37.6158 18.0584 38.2537 17.4493 38.6731 16.6418L34.2361 14.3369C34.2692 14.2733 34.3155 14.2092 34.3714 14.1538C34.4262 14.0994 34.4726 14.0707 34.4928 14.0599L36.8568 18.4657ZM38.6675 16.6525C39.0568 15.9121 39.2167 15.1212 39.2167 14.3452H34.2167C34.2167 14.391 34.2121 14.4054 34.2143 14.3958C34.2154 14.3912 34.2178 14.382 34.2225 14.3692C34.2272 14.3564 34.2335 14.3417 34.2417 14.3262L38.6675 16.6525ZM39.2167 14.3452C39.2167 13.5712 39.0592 12.7698 38.6549 12.0204L34.2544 14.3944C34.2424 14.3722 34.2333 14.3516 34.2267 14.3338C34.2201 14.3161 34.2166 14.3031 34.215 14.2959C34.2117 14.2815 34.2167 14.2951 34.2167 14.3452H39.2167ZM38.6731 12.0549C38.248 11.2366 37.596 10.6219 36.8145 10.2216L34.5351 14.6718C34.5052 14.6565 34.4492 14.6222 34.3862 14.5608C34.3221 14.4983 34.2713 14.4276 34.2361 14.3599L38.6731 12.0549ZM36.8358 10.2327C36.0226 9.80623 35.1476 9.67188 34.3453 9.67188V14.6719C34.4742 14.6719 34.5465 14.6831 34.5742 14.6888C34.6004 14.6942 34.5731 14.6919 34.5138 14.6608L36.8358 10.2327ZM34.3453 9.67188H32.4788V14.6719H34.3453V9.67188ZM29.9788 12.1719V23H34.9788V12.1719H29.9788ZM32.4788 20.5H29.711V25.5H32.4788V20.5ZM47.9028 22.6996L46.9258 25.0007L46.9335 25.004L46.9412 25.0073L47.9028 22.6996ZM46.1066 21.3764L48.0792 19.8405L48.0792 19.8405L46.1066 21.3764ZM45.8254 17.9759L43.6314 16.7773L43.6275 16.7845L45.8254 17.9759ZM46.8481 16.8317L48.2858 18.8769L48.2926 18.8722L48.2993 18.8674L46.8481 16.8317ZM48.2927 16.2436L48.6877 18.7122L50.7927 18.3754V16.2436H48.2927ZM48.2927 16.1541H50.7927V14.1071L48.7859 13.7032L48.2927 16.1541ZM46.5924 15.1378L44.6432 16.7033L44.6493 16.7108L46.5924 15.1378ZM46.5349 11.4432L48.5349 12.9432L48.5407 12.9355L46.5349 11.4432ZM48.1649 10.1903L49.1684 12.4801L49.175 12.4772L48.1649 10.1903ZM52.8886 10.1903L51.8732 12.4749L51.8784 12.4772L52.8886 10.1903ZM54.5249 11.4496L52.5192 12.9419L52.5249 12.9496L54.5249 11.4496ZM55.1258 13.2521L57.6258 13.2669L57.6258 13.2516L57.6257 13.2363L55.1258 13.2521ZM52.7735 16.1541L52.2715 13.705L50.2735 14.1146V16.1541H52.7735ZM52.7735 16.2436H50.2735V18.3699L52.3723 18.7112L52.7735 16.2436ZM54.199 16.8317L52.7382 18.8605L52.7497 18.8688L52.7612 18.8769L54.199 16.8317ZM55.2217 17.9759L53.0277 19.1744L53.0343 19.1865L53.0411 19.1986L55.2217 17.9759ZM55.6116 19.478L58.1115 19.493L58.1117 19.4757L58.1115 19.4585L55.6116 19.478ZM54.9532 21.3764L56.9258 22.9123L56.9258 22.9123L54.9532 21.3764ZM53.1507 22.6996L54.1168 25.0054L54.1231 25.0027L53.1507 22.6996ZM51.6805 20.9098L52.7633 23.1632L52.7751 23.1575L52.7869 23.1517L51.6805 20.9098ZM52.4475 20.245L50.3578 18.8727L50.3529 18.8803L52.4475 20.245ZM52.4411 18.2571L50.3471 19.6228L50.3517 19.6298L50.3563 19.6368L52.4411 18.2571ZM51.6613 17.5668L50.5088 19.7853L50.5202 19.7912L50.5317 19.797L51.6613 17.5668ZM49.3985 17.5668L50.5166 19.8028L50.528 19.7971L50.5393 19.7913L49.3985 17.5668ZM48.6123 18.2571L46.5183 16.8914L46.5134 16.899L48.6123 18.2571ZM48.6059 20.245L46.5019 21.5953L46.5066 21.6025L46.5113 21.6097L48.6059 20.245ZM49.3794 20.9098L48.2844 23.1573L48.2961 23.163L48.3079 23.1686L49.3794 20.9098ZM51.5079 15.0739L50.3504 12.858L50.3504 12.858L51.5079 15.0739ZM52.1791 14.4538L54.3106 15.7602L54.3106 15.7602L52.1791 14.4538ZM52.1791 12.6449L50.0571 13.9668L50.062 13.9747L50.067 13.9825L52.1791 12.6449ZM51.5143 12.0376L50.343 14.2463L50.3562 14.2533L50.3694 14.2601L51.5143 12.0376ZM49.5455 12.0376L50.6769 14.267L50.69 14.2603L50.7031 14.2535L49.5455 12.0376ZM48.8744 12.6449L46.7524 11.323L46.7465 11.3327L48.8744 12.6449ZM48.8808 14.4538L46.7493 15.7602L46.7493 15.7602L48.8808 14.4538ZM49.5519 15.0739L50.7095 12.858L50.7095 12.858L49.5519 15.0739ZM50.5299 20.679C49.8157 20.679 49.2759 20.5634 48.8643 20.3919L46.9412 25.0073C48.0638 25.475 49.2754 25.679 50.5299 25.679V20.679ZM48.8798 20.3984C48.4412 20.2122 48.2109 20.0097 48.0792 19.8405L44.1341 22.9123C44.8716 23.8596 45.8388 24.5393 46.9258 25.0007L48.8798 20.3984ZM48.0792 19.8405C47.9863 19.7212 47.9546 19.6289 47.9546 19.478H42.9546C42.9546 20.7419 43.3576 21.9151 44.1341 22.9123L48.0792 19.8405ZM47.9546 19.478C47.9546 19.3264 47.9847 19.2383 48.0232 19.1672L43.6275 16.7845C43.1717 17.6253 42.9546 18.5387 42.9546 19.478H47.9546ZM48.0193 19.1744C48.0863 19.0518 48.1681 18.9597 48.2858 18.8769L45.4104 14.7865C44.6673 15.3088 44.0673 15.9795 43.6314 16.7773L48.0193 19.1744ZM48.2993 18.8674C48.4091 18.7891 48.5276 18.7378 48.6877 18.7122L47.8977 13.775C46.9924 13.9199 46.1479 14.2606 45.3969 14.796L48.2993 18.8674ZM50.7927 16.2436V16.1541H45.7927V16.2436H50.7927ZM48.7859 13.7032C48.638 13.6735 48.5913 13.6337 48.5355 13.5648L44.6493 16.7108C45.4628 17.7157 46.5497 18.3535 47.7995 18.605L48.7859 13.7032ZM48.5416 13.5723C48.4754 13.4899 48.4404 13.4181 48.4404 13.2521H43.4404C43.4404 14.518 43.8401 15.7033 44.6432 16.7033L48.5416 13.5723ZM48.4404 13.2521C48.4404 13.1005 48.472 13.027 48.5349 12.9432L44.5349 9.94318C43.8051 10.9162 43.4404 12.0487 43.4404 13.2521H48.4404ZM48.5407 12.9355C48.6443 12.7961 48.821 12.6323 49.1684 12.4801L47.1613 7.9006C46.128 8.35346 45.2181 9.02492 44.5291 9.95089L48.5407 12.9355ZM49.175 12.4772C49.5041 12.3318 49.9399 12.2301 50.5299 12.2301V7.23011C49.3557 7.23011 48.2149 7.43522 47.1547 7.9035L49.175 12.4772ZM50.5299 12.2301C51.1203 12.2301 51.5517 12.3319 51.8732 12.4749L53.9039 7.90581C52.8448 7.43509 51.7037 7.23011 50.5299 7.23011V12.2301ZM51.8784 12.4772C52.2357 12.635 52.4157 12.8028 52.5192 12.9419L56.5307 9.95729C55.8416 9.03104 54.9307 8.35934 53.8987 7.9035L51.8784 12.4772ZM52.5249 12.9496C52.5933 13.0407 52.6249 13.119 52.6258 13.268L57.6257 13.2363C57.6182 12.0387 57.2492 10.9152 56.5249 9.94957L52.5249 12.9496ZM52.6258 13.2373C52.6248 13.4097 52.5878 13.4793 52.5254 13.5555L56.3966 16.72C57.2121 15.7224 57.6183 14.5349 57.6258 13.2669L52.6258 13.2373ZM52.5254 13.5555C52.4544 13.6425 52.4003 13.6786 52.2715 13.705L53.2755 18.6032C54.5189 18.3484 55.5898 17.707 56.3966 16.72L52.5254 13.5555ZM50.2735 16.1541V16.2436H55.2735V16.1541H50.2735ZM52.3723 18.7112C52.5185 18.735 52.6301 18.7827 52.7382 18.8605L55.6597 14.8028C54.9155 14.267 54.0768 13.9227 53.1748 13.776L52.3723 18.7112ZM52.7612 18.8769C52.879 18.9597 52.9607 19.0518 53.0277 19.1744L57.4156 16.7773C56.9798 15.9795 56.3797 15.3088 55.6367 14.7865L52.7612 18.8769ZM53.0411 19.1986C53.0815 19.2706 53.1106 19.3546 53.1117 19.4975L58.1115 19.4585C58.1041 18.5104 57.8732 17.593 57.4022 16.7531L53.0411 19.1986ZM53.1116 19.4629C53.1107 19.619 53.0767 19.7172 52.9806 19.8405L56.9258 22.9123C57.699 21.9192 58.104 20.7517 58.1115 19.493L53.1116 19.4629ZM52.9806 19.8405C52.8513 20.0066 52.6217 20.2092 52.1782 20.3965L54.1231 25.0027C55.2137 24.5422 56.1858 23.8627 56.9258 22.9123L52.9806 19.8405ZM52.1845 20.3938C51.7801 20.5633 51.2445 20.679 50.5299 20.679V25.679C51.7841 25.679 52.9956 25.4751 54.1168 25.0054L52.1845 20.3938ZM50.5299 23.6463C51.2677 23.6463 52.0349 23.5132 52.7633 23.1632L50.5977 18.6565C50.6314 18.6403 50.6498 18.6371 50.6434 18.6384C50.6358 18.6399 50.6003 18.6463 50.5299 18.6463V23.6463ZM52.7869 23.1517C53.4797 22.8097 54.0924 22.3002 54.5422 21.6097L50.3529 18.8803C50.3895 18.8241 50.4341 18.7736 50.481 18.7329C50.5269 18.6932 50.5623 18.6738 50.5741 18.6679L52.7869 23.1517ZM54.5372 21.6174C55.0153 20.8893 55.2288 20.0756 55.2288 19.2607H50.2288C50.2288 19.2337 50.2325 19.1757 50.2547 19.098C50.2773 19.0188 50.313 18.9411 50.3579 18.8727L54.5372 21.6174ZM55.2288 19.2607C55.2288 18.4375 55.0132 17.6138 54.526 16.8774L50.3563 19.6368C50.3112 19.5686 50.2759 19.4917 50.2536 19.4141C50.2319 19.3383 50.2288 19.2832 50.2288 19.2607H55.2288ZM54.5352 16.8914C54.0918 16.2116 53.4914 15.6913 52.7909 15.3365L50.5317 19.797C50.5167 19.7894 50.4843 19.7705 50.4453 19.7359C50.4057 19.7009 50.3722 19.6612 50.3471 19.6228L54.5352 16.8914ZM52.8138 15.3482C52.0788 14.9665 51.2958 14.8111 50.5299 14.8111V19.8111C50.5762 19.8111 50.5909 19.8157 50.5813 19.8135C50.5766 19.8125 50.5672 19.81 50.554 19.8052C50.5407 19.8004 50.5253 19.7938 50.5088 19.7853L52.8138 15.3482ZM50.5299 14.8111C49.7631 14.8111 48.9865 14.9685 48.2577 15.3422L50.5393 19.7913C50.5266 19.7978 50.5145 19.803 50.5038 19.8068C50.4931 19.8107 50.4854 19.8127 50.4817 19.8135C50.4739 19.8153 50.4877 19.8111 50.5299 19.8111V14.8111ZM48.2805 15.3307C47.5755 15.6832 46.9667 16.2038 46.5183 16.8914L50.7063 19.6228C50.6789 19.6649 50.6431 19.7067 50.6022 19.7426C50.5619 19.7779 50.5296 19.7963 50.5166 19.8028L48.2805 15.3307ZM46.5134 16.899C46.0384 17.633 45.8311 18.449 45.8311 19.2607H50.8311C50.8311 19.2784 50.8286 19.3285 50.8086 19.4C50.7881 19.4731 50.7549 19.5477 50.7112 19.6152L46.5134 16.899ZM45.8311 19.2607C45.8311 20.064 46.0363 20.8697 46.5019 21.5953L50.7099 18.8947C50.7533 18.9624 50.7868 19.0377 50.8077 19.1125C50.8281 19.1856 50.8311 19.2387 50.8311 19.2607H45.8311ZM46.5113 21.6097C46.9663 22.3081 47.5876 22.8178 48.2844 23.1573L50.4743 18.6623C50.4839 18.667 50.5192 18.6858 50.5663 18.7262C50.6144 18.7676 50.6614 18.8202 50.7006 18.8803L46.5113 21.6097ZM48.3079 23.1686C49.0305 23.5114 49.7913 23.6463 50.5299 23.6463V18.6463C50.4634 18.6463 50.4288 18.6403 50.4196 18.6384C50.4116 18.6367 50.4247 18.6387 50.4508 18.651L48.3079 23.1686ZM50.5299 17.7976C51.2435 17.7976 51.9761 17.6498 52.6654 17.2897L50.3504 12.858C50.4044 12.8297 50.4541 12.8132 50.4918 12.8046C50.5282 12.7963 50.5433 12.7976 50.5299 12.7976V17.7976ZM52.6654 17.2897C53.3353 16.9398 53.9027 16.4258 54.3106 15.7602L50.0476 13.1474C50.0845 13.0872 50.1336 13.0259 50.1934 12.9707C50.2527 12.9159 50.3088 12.8797 50.3504 12.858L52.6654 17.2897ZM54.3106 15.7602C54.7402 15.0592 54.922 14.292 54.922 13.5398H49.922C49.922 13.5159 49.9249 13.461 49.9451 13.3851C49.9657 13.3075 49.9998 13.2254 50.0476 13.1474L54.3106 15.7602ZM54.922 13.5398C54.922 12.7869 54.7375 12.0121 54.2911 11.3073L50.067 13.9825C50.0113 13.8946 49.9721 13.8022 49.9485 13.7152C49.9255 13.6303 49.922 13.568 49.922 13.5398H54.922ZM54.301 11.323C53.8925 10.6672 53.3275 10.1595 52.6592 9.8152L50.3694 14.2601C50.3244 14.2369 50.2661 14.1995 50.2053 14.1439C50.1442 14.0881 50.0944 14.0265 50.0571 13.9668L54.301 11.323ZM52.6856 9.82899C51.9844 9.45716 51.2406 9.31392 50.5299 9.31392V14.3139C50.5519 14.3139 50.5403 14.3161 50.5032 14.3077C50.4646 14.2989 50.4079 14.2807 50.343 14.2463L52.6856 9.82899ZM50.5299 9.31392C49.8172 9.31392 49.0814 9.45957 48.388 9.82177L50.7031 14.2535C50.6467 14.283 50.5963 14.2994 50.5598 14.3077C50.5248 14.3157 50.5123 14.3139 50.5299 14.3139V9.31392ZM48.4142 9.80827C47.7412 10.1498 47.1668 10.6579 46.7524 11.323L50.9963 13.9668C50.9564 14.0309 50.9039 14.095 50.8409 14.152C50.7785 14.2084 50.7199 14.2452 50.6769 14.267L48.4142 9.80827ZM46.7465 11.3327C46.314 12.034 46.1379 12.7994 46.1379 13.5398H51.1379C51.1379 13.5626 51.1351 13.6193 51.114 13.6992C51.0924 13.781 51.0559 13.8702 51.0023 13.9571L46.7465 11.3327ZM46.1379 13.5398C46.1379 14.292 46.3196 15.0592 46.7493 15.7602L51.0123 13.1474C51.0601 13.2254 51.0941 13.3075 51.1147 13.3851C51.1349 13.461 51.1379 13.5159 51.1379 13.5398H46.1379ZM46.7493 15.7602C47.1572 16.4258 47.7245 16.9398 48.3944 17.2897L50.7095 12.858C50.7511 12.8797 50.8071 12.9159 50.8664 12.9707C50.9262 13.0259 50.9754 13.0872 51.0123 13.1474L46.7493 15.7602ZM48.3944 17.2897C49.0837 17.6498 49.8163 17.7976 50.5299 17.7976V12.7976C50.5166 12.7976 50.5317 12.7963 50.5681 12.8046C50.6057 12.8132 50.6554 12.8297 50.7095 12.858L48.3944 17.2897Z" fill="white" mask="url(#path-2-inside-1_202_75)"/>
</g>
<defs>
<clipPath id="clip0_202_75">
<rect width="72" height="32" fill="white"/>
</clipPath>
</defs>
</svg>
