<svg width="72" height="32" viewBox="0 0 72 32" fill="none" xmlns="http://www.w3.org/2000/svg">
<g clip-path="url(#clip0_202_91)">
<rect width="72" height="32" rx="8" fill="black"/>
<mask id="path-2-inside-1_202_91" fill="white">
<path d="M26.396 9.90909V23H24.0053L18.31 14.7607H18.2141V23H15.4464V9.90909H17.8754L23.5259 18.142H23.641V9.90909H26.396ZM28.6827 23V9.90909H33.8475C34.8404 9.90909 35.6863 10.0987 36.3851 10.478C37.084 10.853 37.6167 11.375 37.9831 12.044C38.3539 12.7088 38.5392 13.4759 38.5392 14.3452C38.5392 15.2145 38.3517 15.9815 37.9767 16.6463C37.6017 17.3111 37.0584 17.8288 36.3468 18.1996C35.6394 18.5703 34.7828 18.7557 33.7772 18.7557H30.4853V16.5376H33.3297C33.8624 16.5376 34.3013 16.446 34.6465 16.2628C34.9959 16.0753 35.2559 15.8175 35.4263 15.4893C35.601 15.157 35.6884 14.7756 35.6884 14.3452C35.6884 13.9105 35.601 13.5312 35.4263 13.2074C35.2559 12.8793 34.9959 12.6257 34.6465 12.4467C34.2971 12.2635 33.8539 12.1719 33.3169 12.1719H31.4505V23H28.6827ZM51.7564 17.2727L51.9162 14.799L49.8452 16.1861L48.9886 14.6776L51.2195 13.5909L48.9886 12.5043L49.8452 10.9957L51.9162 12.3828L51.7564 9.90909H53.4759L53.3097 12.3828L55.3807 10.9957L56.2372 12.5043L54.0128 13.5909L56.2372 14.6776L55.3807 16.1861L53.3097 14.799L53.4759 17.2727H51.7564Z"/>
</mask>
<path d="M26.396 9.90909H28.896V7.40909H26.396V9.90909ZM26.396 23V25.5H28.896V23H26.396ZM24.0053 23L21.9488 24.4215L22.6943 25.5H24.0053V23ZM18.31 14.7607L20.3665 13.3391L19.6211 12.2607H18.31V14.7607ZM18.2141 14.7607V12.2607H15.7141V14.7607H18.2141ZM18.2141 23V25.5H20.7141V23H18.2141ZM15.4464 23H12.9464V25.5H15.4464V23ZM15.4464 9.90909V7.40909H12.9464V9.90909H15.4464ZM17.8754 9.90909L19.9366 8.4944L19.1917 7.40909H17.8754V9.90909ZM23.5259 18.142L21.4647 19.5567L22.2096 20.642H23.5259V18.142ZM23.641 18.142V20.642H26.141V18.142H23.641ZM23.641 9.90909V7.40909H21.141V9.90909H23.641ZM23.896 9.90909V23H28.896V9.90909H23.896ZM26.396 20.5H24.0053V25.5H26.396V20.5ZM26.0618 21.5785L20.3665 13.3391L16.2535 16.1822L21.9488 24.4215L26.0618 21.5785ZM18.31 12.2607H18.2141V17.2607H18.31V12.2607ZM15.7141 14.7607V23H20.7141V14.7607H15.7141ZM18.2141 20.5H15.4464V25.5H18.2141V20.5ZM17.9464 23V9.90909H12.9464V23H17.9464ZM15.4464 12.4091H17.8754V7.40909H15.4464V12.4091ZM15.8141 11.3238L21.4647 19.5567L25.5871 16.7274L19.9366 8.4944L15.8141 11.3238ZM23.5259 20.642H23.641V15.642H23.5259V20.642ZM26.141 18.142V9.90909H21.141V18.142H26.141ZM23.641 12.4091H26.396V7.40909H23.641V12.4091ZM28.6827 23H26.1827V25.5H28.6827V23ZM28.6827 9.90909V7.40909H26.1827V9.90909H28.6827ZM36.3851 10.478L35.1927 12.6753L35.2031 12.6809L36.3851 10.478ZM37.9831 12.044L35.7905 13.2451L35.7951 13.2534L35.7997 13.2617L37.9831 12.044ZM36.3468 18.1996L35.1917 15.9824L35.1863 15.9853L36.3468 18.1996ZM30.4853 18.7557H27.9853V21.2557H30.4853V18.7557ZM30.4853 16.5376V14.0376H27.9853V16.5376H30.4853ZM34.6465 16.2628L35.8187 18.4709L35.8285 18.4657L34.6465 16.2628ZM35.4263 15.4893L33.2134 14.3261L33.2078 14.3369L35.4263 15.4893ZM35.4263 13.2074L33.2078 14.3599L33.2168 14.3772L33.2261 14.3944L35.4263 13.2074ZM34.6465 12.4467L33.4855 14.6608L33.4961 14.6664L33.5068 14.6718L34.6465 12.4467ZM31.4505 12.1719V9.67188H28.9505V12.1719H31.4505ZM31.4505 23V25.5H33.9505V23H31.4505ZM31.1827 23V9.90909H26.1827V23H31.1827ZM28.6827 12.4091H33.8475V7.40909H28.6827V12.4091ZM33.8475 12.4091C34.5257 12.4091 34.94 12.5382 35.1927 12.6753L37.5776 8.28069C36.4325 7.65928 35.155 7.40909 33.8475 7.40909V12.4091ZM35.2031 12.6809C35.493 12.8365 35.6663 13.0183 35.7905 13.2451L40.1757 10.843C39.567 9.73171 38.6749 8.8695 37.5672 8.27508L35.2031 12.6809ZM35.7997 13.2617C35.9349 13.5041 36.0392 13.8407 36.0392 14.3452H41.0392C41.0392 13.111 40.7729 11.9135 40.1665 10.8264L35.7997 13.2617ZM36.0392 14.3452C36.0392 14.8448 35.9349 15.1776 35.7993 15.418L40.1542 17.8746C40.7686 16.7854 41.0392 15.5842 41.0392 14.3452H36.0392ZM35.7993 15.418C35.6747 15.6389 35.4972 15.8233 35.1917 15.9824L37.5018 20.4167C38.6196 19.8344 39.5288 18.9833 40.1542 17.8746L35.7993 15.418ZM35.1863 15.9853C34.9178 16.1259 34.4811 16.2557 33.7772 16.2557V21.2557C35.0846 21.2557 36.3609 21.0147 37.5073 20.4139L35.1863 15.9853ZM33.7772 16.2557H30.4853V21.2557H33.7772V16.2557ZM32.9853 18.7557V16.5376H27.9853V18.7557H32.9853ZM30.4853 19.0376H33.3297V14.0376H30.4853V19.0376ZM33.3297 19.0376C34.1297 19.0376 35.0055 18.9027 35.8187 18.4709L33.4743 14.0546C33.5378 14.0209 33.5696 14.0171 33.5476 14.0217C33.524 14.0266 33.4554 14.0376 33.3297 14.0376V19.0376ZM35.8285 18.4657C36.5875 18.0584 37.2254 17.4493 37.6448 16.6418L33.2078 14.3369C33.2408 14.2733 33.2871 14.2092 33.343 14.1538C33.3978 14.0994 33.4443 14.0707 33.4644 14.0599L35.8285 18.4657ZM37.6392 16.6525C38.0284 15.9121 38.1884 15.1212 38.1884 14.3452H33.1884C33.1884 14.391 33.1838 14.4054 33.186 14.3958C33.187 14.3912 33.1895 14.382 33.1942 14.3692C33.1989 14.3564 33.2052 14.3417 33.2134 14.3262L37.6392 16.6525ZM38.1884 14.3452C38.1884 13.5712 38.0308 12.7698 37.6266 12.0204L33.2261 14.3944C33.2141 14.3722 33.205 14.3516 33.1984 14.3338C33.1918 14.3161 33.1883 14.3031 33.1867 14.2959C33.1834 14.2815 33.1884 14.2951 33.1884 14.3452H38.1884ZM37.6448 12.0549C37.2197 11.2366 36.5677 10.6219 35.7862 10.2216L33.5068 14.6718C33.4769 14.6565 33.4209 14.6222 33.3579 14.5608C33.2938 14.4983 33.243 14.4276 33.2078 14.3599L37.6448 12.0549ZM35.8075 10.2327C34.9943 9.80623 34.1193 9.67188 33.3169 9.67188V14.6719C33.4458 14.6719 33.5182 14.6831 33.5459 14.6888C33.5721 14.6942 33.5447 14.6919 33.4855 14.6608L35.8075 10.2327ZM33.3169 9.67188H31.4505V14.6719H33.3169V9.67188ZM28.9505 12.1719V23H33.9505V12.1719H28.9505ZM31.4505 20.5H28.6827V25.5H31.4505V20.5ZM51.7564 17.2727L49.2616 17.1116L49.0897 19.7727H51.7564V17.2727ZM51.9162 14.799L54.411 14.9602L54.7379 9.90027L50.525 12.7218L51.9162 14.799ZM49.8452 16.1861L47.6712 17.4205L49.0001 19.761L51.2364 18.2632L49.8452 16.1861ZM48.9886 14.6776L47.8938 12.43L45.4998 13.5962L46.8146 15.9119L48.9886 14.6776ZM51.2195 13.5909L52.3143 15.8384L56.9283 13.5909L52.3143 11.3434L51.2195 13.5909ZM48.9886 12.5043L46.8146 11.2699L45.4998 13.5856L47.8938 14.7518L48.9886 12.5043ZM49.8452 10.9957L51.2364 8.91858L49.0001 7.42084L47.6712 9.76135L49.8452 10.9957ZM51.9162 12.3828L50.525 14.46L54.7379 17.2815L54.411 12.2216L51.9162 12.3828ZM51.7564 9.90909V7.40909H49.0897L49.2616 10.0703L51.7564 9.90909ZM53.4759 9.90909L55.9702 10.0767L56.1494 7.40909H53.4759V9.90909ZM53.3097 12.3828L50.8153 12.2152L50.4743 17.2907L54.7008 14.46L53.3097 12.3828ZM55.3807 10.9957L57.5547 9.76135L56.2257 7.42084L53.9895 8.91858L55.3807 10.9957ZM56.2372 12.5043L57.3345 14.7506L59.7246 13.583L58.4112 11.2699L56.2372 12.5043ZM54.0128 13.5909L52.9155 11.3446L48.3171 13.5909L52.9155 15.8372L54.0128 13.5909ZM56.2372 14.6776L58.4112 15.9119L59.7246 13.5988L57.3345 12.4313L56.2372 14.6776ZM55.3807 16.1861L53.9895 18.2632L56.2257 19.761L57.5547 17.4205L55.3807 16.1861ZM53.3097 14.799L54.7008 12.7218L50.4743 9.8911L50.8153 14.9666L53.3097 14.799ZM53.4759 17.2727V19.7727H56.1494L55.9702 17.1051L53.4759 17.2727ZM54.2512 17.4339L54.411 14.9602L49.4214 14.6378L49.2616 17.1116L54.2512 17.4339ZM50.525 12.7218L48.454 14.1089L51.2364 18.2632L53.3074 16.8762L50.525 12.7218ZM52.0192 14.9517L51.1626 13.4432L46.8146 15.9119L47.6712 17.4205L52.0192 14.9517ZM50.0834 16.9251L52.3143 15.8384L50.1247 11.3434L47.8938 12.43L50.0834 16.9251ZM52.3143 11.3434L50.0834 10.2567L47.8938 14.7518L50.1247 15.8384L52.3143 11.3434ZM51.1626 13.7387L52.0192 12.2301L47.6712 9.76135L46.8146 11.2699L51.1626 13.7387ZM48.454 13.0729L50.525 14.46L53.3074 10.3057L51.2364 8.91858L48.454 13.0729ZM54.411 12.2216L54.2512 9.74793L49.2616 10.0703L49.4214 12.544L54.411 12.2216ZM51.7564 12.4091H53.4759V7.40909H51.7564V12.4091ZM50.9815 9.74151L50.8153 12.2152L55.804 12.5504L55.9702 10.0767L50.9815 9.74151ZM54.7008 14.46L56.7719 13.0729L53.9895 8.91858L51.9185 10.3057L54.7008 14.46ZM53.2067 12.2301L54.0632 13.7387L58.4112 11.2699L57.5547 9.76135L53.2067 12.2301ZM55.1399 10.258L52.9155 11.3446L55.1101 15.8372L57.3345 14.7506L55.1399 10.258ZM52.9155 15.8372L55.1399 16.9239L57.3345 12.4313L55.1101 11.3446L52.9155 15.8372ZM54.0632 13.4432L53.2067 14.9517L57.5547 17.4205L58.4112 15.9119L54.0632 13.4432ZM56.7719 14.1089L54.7008 12.7218L51.9185 16.8762L53.9895 18.2632L56.7719 14.1089ZM50.8153 14.9666L50.9815 17.4403L55.9702 17.1051L55.804 14.6314L50.8153 14.9666ZM53.4759 14.7727H51.7564V19.7727H53.4759V14.7727Z" fill="white" mask="url(#path-2-inside-1_202_91)"/>
</g>
<defs>
<clipPath id="clip0_202_91">
<rect width="72" height="32" fill="white"/>
</clipPath>
</defs>
</svg>
