<svg width="72" height="32" viewBox="0 0 72 32" fill="none" xmlns="http://www.w3.org/2000/svg">
<g clip-path="url(#clip0_202_71)">
<rect width="72" height="32" rx="8" fill="black"/>
<mask id="path-2-inside-1_202_71" fill="white">
<path d="M27.4243 9.90909V23H25.0336L19.3383 14.7607H19.2425V23H16.4747V9.90909H18.9037L24.5542 18.142H24.6693V9.90909H27.4243ZM29.711 23V9.90909H34.8758C35.8687 9.90909 36.7146 10.0987 37.4134 10.478C38.1123 10.853 38.645 11.375 39.0115 12.044C39.3822 12.7088 39.5676 13.4759 39.5676 14.3452C39.5676 15.2145 39.3801 15.9815 39.0051 16.6463C38.6301 17.3111 38.0867 17.8288 37.3751 18.1996C36.6677 18.5703 35.8112 18.7557 34.8055 18.7557H31.5136V16.5376H34.358C34.8907 16.5376 35.3296 16.446 35.6748 16.2628C36.0242 16.0753 36.2842 15.8175 36.4546 15.4893C36.6294 15.157 36.7167 14.7756 36.7167 14.3452C36.7167 13.9105 36.6294 13.5312 36.4546 13.2074C36.2842 12.8793 36.0242 12.6257 35.6748 12.4467C35.3254 12.2635 34.8822 12.1719 34.3453 12.1719H32.4788V23H29.711ZM46.7714 23L52.1982 12.2614V12.1719H45.8765V9.90909H55.0619V12.2038L49.6286 23H46.7714Z"/>
</mask>
<path d="M27.4243 9.90909H29.9243V7.40909H27.4243V9.90909ZM27.4243 23V25.5H29.9243V23H27.4243ZM25.0336 23L22.9771 24.4215L23.7226 25.5H25.0336V23ZM19.3383 14.7607L21.3948 13.3391L20.6494 12.2607H19.3383V14.7607ZM19.2425 14.7607V12.2607H16.7425V14.7607H19.2425ZM19.2425 23V25.5H21.7425V23H19.2425ZM16.4747 23H13.9747V25.5H16.4747V23ZM16.4747 9.90909V7.40909H13.9747V9.90909H16.4747ZM18.9037 9.90909L20.9649 8.4944L20.22 7.40909H18.9037V9.90909ZM24.5542 18.142L22.493 19.5567L23.2379 20.642H24.5542V18.142ZM24.6693 18.142V20.642H27.1693V18.142H24.6693ZM24.6693 9.90909V7.40909H22.1693V9.90909H24.6693ZM24.9243 9.90909V23H29.9243V9.90909H24.9243ZM27.4243 20.5H25.0336V25.5H27.4243V20.5ZM27.0902 21.5785L21.3948 13.3391L17.2818 16.1822L22.9771 24.4215L27.0902 21.5785ZM19.3383 12.2607H19.2425V17.2607H19.3383V12.2607ZM16.7425 14.7607V23H21.7425V14.7607H16.7425ZM19.2425 20.5H16.4747V25.5H19.2425V20.5ZM18.9747 23V9.90909H13.9747V23H18.9747ZM16.4747 12.4091H18.9037V7.40909H16.4747V12.4091ZM16.8425 11.3238L22.493 19.5567L26.6155 16.7274L20.9649 8.4944L16.8425 11.3238ZM24.5542 20.642H24.6693V15.642H24.5542V20.642ZM27.1693 18.142V9.90909H22.1693V18.142H27.1693ZM24.6693 12.4091H27.4243V7.40909H24.6693V12.4091ZM29.711 23H27.211V25.5H29.711V23ZM29.711 9.90909V7.40909H27.211V9.90909H29.711ZM37.4134 10.478L36.221 12.6753L36.2314 12.6809L37.4134 10.478ZM39.0115 12.044L36.8189 13.2451L36.8234 13.2534L36.828 13.2617L39.0115 12.044ZM37.3751 18.1996L36.22 15.9824L36.2146 15.9853L37.3751 18.1996ZM31.5136 18.7557H29.0136V21.2557H31.5136V18.7557ZM31.5136 16.5376V14.0376H29.0136V16.5376H31.5136ZM35.6748 16.2628L36.847 18.4709L36.8568 18.4657L35.6748 16.2628ZM36.4546 15.4893L34.2417 14.3261L34.2361 14.3369L36.4546 15.4893ZM36.4546 13.2074L34.2361 14.3599L34.2451 14.3772L34.2544 14.3944L36.4546 13.2074ZM35.6748 12.4467L34.5138 14.6608L34.5244 14.6664L34.5351 14.6718L35.6748 12.4467ZM32.4788 12.1719V9.67188H29.9788V12.1719H32.4788ZM32.4788 23V25.5H34.9788V23H32.4788ZM32.211 23V9.90909H27.211V23H32.211ZM29.711 12.4091H34.8758V7.40909H29.711V12.4091ZM34.8758 12.4091C35.5541 12.4091 35.9683 12.5382 36.221 12.6753L38.6059 8.28069C37.4608 7.65928 36.1833 7.40909 34.8758 7.40909V12.4091ZM36.2314 12.6809C36.5213 12.8365 36.6946 13.0183 36.8189 13.2451L41.2041 10.843C40.5953 9.73171 39.7033 8.8695 38.5955 8.27508L36.2314 12.6809ZM36.828 13.2617C36.9632 13.5041 37.0676 13.8407 37.0676 14.3452H42.0676C42.0676 13.111 41.8012 11.9135 41.1949 10.8264L36.828 13.2617ZM37.0676 14.3452C37.0676 14.8448 36.9632 15.1776 36.8276 15.418L41.1825 17.8746C41.7969 16.7854 42.0676 15.5842 42.0676 14.3452H37.0676ZM36.8276 15.418C36.703 15.6389 36.5255 15.8233 36.22 15.9824L38.5301 20.4167C39.648 19.8344 40.5571 18.9833 41.1825 17.8746L36.8276 15.418ZM36.2146 15.9853C35.9462 16.1259 35.5094 16.2557 34.8055 16.2557V21.2557C36.1129 21.2557 37.3892 21.0147 38.5356 20.4139L36.2146 15.9853ZM34.8055 16.2557H31.5136V21.2557H34.8055V16.2557ZM34.0136 18.7557V16.5376H29.0136V18.7557H34.0136ZM31.5136 19.0376H34.358V14.0376H31.5136V19.0376ZM34.358 19.0376C35.1581 19.0376 36.0338 18.9027 36.847 18.4709L34.5026 14.0546C34.5661 14.0209 34.598 14.0171 34.5759 14.0217C34.5523 14.0266 34.4837 14.0376 34.358 14.0376V19.0376ZM36.8568 18.4657C37.6158 18.0584 38.2537 17.4493 38.6731 16.6418L34.2361 14.3369C34.2692 14.2733 34.3155 14.2092 34.3714 14.1538C34.4262 14.0994 34.4726 14.0707 34.4928 14.0599L36.8568 18.4657ZM38.6675 16.6525C39.0568 15.9121 39.2167 15.1212 39.2167 14.3452H34.2167C34.2167 14.391 34.2121 14.4054 34.2143 14.3958C34.2154 14.3912 34.2178 14.382 34.2225 14.3692C34.2272 14.3564 34.2335 14.3417 34.2417 14.3262L38.6675 16.6525ZM39.2167 14.3452C39.2167 13.5712 39.0592 12.7698 38.6549 12.0204L34.2544 14.3944C34.2424 14.3722 34.2333 14.3516 34.2267 14.3338C34.2201 14.3161 34.2166 14.3031 34.215 14.2959C34.2117 14.2815 34.2167 14.2951 34.2167 14.3452H39.2167ZM38.6731 12.0549C38.248 11.2366 37.596 10.6219 36.8145 10.2216L34.5351 14.6718C34.5052 14.6565 34.4492 14.6222 34.3862 14.5608C34.3221 14.4983 34.2713 14.4276 34.2361 14.3599L38.6731 12.0549ZM36.8358 10.2327C36.0226 9.80623 35.1476 9.67188 34.3453 9.67188V14.6719C34.4742 14.6719 34.5465 14.6831 34.5742 14.6888C34.6004 14.6942 34.5731 14.6919 34.5138 14.6608L36.8358 10.2327ZM34.3453 9.67188H32.4788V14.6719H34.3453V9.67188ZM29.9788 12.1719V23H34.9788V12.1719H29.9788ZM32.4788 20.5H29.711V25.5H32.4788V20.5ZM46.7714 23L44.5401 21.8724L42.7069 25.5H46.7714V23ZM52.1982 12.2614L54.4295 13.3889L54.6982 12.8572V12.2614H52.1982ZM52.1982 12.1719H54.6982V9.67188H52.1982V12.1719ZM45.8765 12.1719H43.3765V14.6719H45.8765V12.1719ZM45.8765 9.90909V7.40909H43.3765V9.90909H45.8765ZM55.0619 9.90909H57.5619V7.40909H55.0619V9.90909ZM55.0619 12.2038L57.295 13.3277L57.5619 12.7974V12.2038H55.0619ZM49.6286 23V25.5H51.1692L51.8618 24.1238L49.6286 23ZM49.0027 24.1276L54.4295 13.3889L49.967 11.1338L44.5401 21.8724L49.0027 24.1276ZM54.6982 12.2614V12.1719H49.6982V12.2614H54.6982ZM52.1982 9.67188H45.8765V14.6719H52.1982V9.67188ZM48.3765 12.1719V9.90909H43.3765V12.1719H48.3765ZM45.8765 12.4091H55.0619V7.40909H45.8765V12.4091ZM52.5619 9.90909V12.2038H57.5619V9.90909H52.5619ZM52.8287 11.08L47.3955 21.8762L51.8618 24.1238L57.295 13.3277L52.8287 11.08ZM49.6286 20.5H46.7714V25.5H49.6286V20.5Z" fill="white" mask="url(#path-2-inside-1_202_71)"/>
</g>
<defs>
<clipPath id="clip0_202_71">
<rect width="72" height="32" fill="white"/>
</clipPath>
</defs>
</svg>
