<svg width="72" height="32" viewBox="0 0 72 32" fill="none" xmlns="http://www.w3.org/2000/svg">
<g clip-path="url(#clip0_202_20)">
<rect width="72" height="32" rx="8" fill="black"/>
<mask id="path-2-inside-1_202_20" fill="white">
<path d="M7.93874 9.90909V23H5.17099V9.90909H7.93874ZM21.1655 9.90909V23H18.7749L13.0795 14.7607H12.9837V23H10.2159V9.90909H12.6449L18.2955 18.142H18.4105V9.90909H21.1655ZM30.5538 13.674C30.5027 13.1584 30.2832 12.7578 29.8954 12.4723C29.5076 12.1868 28.9814 12.044 28.3166 12.044C27.8649 12.044 27.4835 12.108 27.1724 12.2358C26.8613 12.3594 26.6227 12.532 26.4565 12.7536C26.2946 12.9751 26.2136 13.2266 26.2136 13.5078C26.2051 13.7422 26.2541 13.9467 26.3606 14.1214C26.4714 14.2962 26.6227 14.4474 26.8145 14.5753C27.0062 14.6989 27.2278 14.8075 27.4792 14.9013C27.7306 14.9908 27.9991 15.0675 28.2846 15.1314L29.4608 15.4126C30.0318 15.5405 30.5559 15.7109 31.0332 15.924C31.5105 16.1371 31.9238 16.3991 32.2733 16.7102C32.6227 17.0213 32.8933 17.3878 33.0851 17.8097C33.2811 18.2315 33.3812 18.7152 33.3855 19.2607C33.3812 20.0618 33.1767 20.7564 32.7718 21.3445C32.3713 21.9283 31.7917 22.3821 31.0332 22.706C30.2789 23.0256 29.3691 23.1854 28.3038 23.1854C27.247 23.1854 26.3265 23.0234 25.5424 22.6996C24.7626 22.3757 24.1532 21.8963 23.7143 21.2614C23.2797 20.6222 23.0517 19.8317 23.0304 18.8899H25.7086C25.7385 19.3288 25.8642 19.6953 26.0858 19.9893C26.3116 20.2791 26.612 20.4986 26.987 20.6477C27.3663 20.7926 27.7946 20.8651 28.2718 20.8651C28.7406 20.8651 29.1475 20.7969 29.4927 20.6605C29.8422 20.5241 30.1127 20.3345 30.3045 20.0916C30.4963 19.8487 30.5922 19.5696 30.5922 19.2543C30.5922 18.9602 30.5048 18.7131 30.3301 18.5128C30.1596 18.3125 29.9082 18.142 29.5758 18.0014C29.2477 17.8608 28.845 17.733 28.3677 17.6179L26.9423 17.2599C25.8386 16.9915 24.9672 16.5717 24.3279 16.0007C23.6887 15.4297 23.3713 14.6605 23.3755 13.6932C23.3713 12.9006 23.5822 12.2081 24.0083 11.6158C24.4387 11.0234 25.0289 10.5611 25.7789 10.2287C26.5289 9.89631 27.3812 9.73011 28.3358 9.73011C29.3074 9.73011 30.1554 9.89631 30.8798 10.2287C31.6085 10.5611 32.1752 11.0234 32.5801 11.6158C32.9849 12.2081 33.1937 12.8942 33.2065 13.674H30.5538ZM35.2472 23V9.90909H44.0682V12.1911H38.0149V15.3104H43.6143V17.5923H38.0149V20.718H44.0938V23H35.2472ZM46.2686 23V9.90909H51.4334C52.4221 9.90909 53.2658 10.0859 53.9647 10.4396C54.6678 10.7891 55.2026 11.2855 55.5691 11.929C55.9398 12.5682 56.1252 13.3203 56.1252 14.1854C56.1252 15.0547 55.9377 15.8026 55.5627 16.429C55.1877 17.0511 54.6444 17.5284 53.9327 17.8608C53.2253 18.1932 52.3688 18.3594 51.3631 18.3594H47.905V16.1349H50.9157C51.4441 16.1349 51.883 16.0625 52.2324 15.9176C52.5819 15.7727 52.8418 15.5554 53.0123 15.2656C53.187 14.9759 53.2743 14.6158 53.2743 14.1854C53.2743 13.7507 53.187 13.3842 53.0123 13.0859C52.8418 12.7876 52.5797 12.5618 52.226 12.4084C51.8766 12.2507 51.4355 12.1719 50.9029 12.1719H49.0364V23H46.2686ZM53.3382 17.0426L56.5918 23H53.5364L50.3532 17.0426H53.3382ZM57.5826 12.1911V9.90909H68.334V12.1911H64.3262V23H61.5904V12.1911H57.5826Z"/>
</mask>
<path d="M7.93874 9.90909H10.4387V7.40909H7.93874V9.90909ZM7.93874 23V25.5H10.4387V23H7.93874ZM5.17099 23H2.67099V25.5H5.17099V23ZM5.17099 9.90909V7.40909H2.67099V9.90909H5.17099ZM5.43874 9.90909V23H10.4387V9.90909H5.43874ZM7.93874 20.5H5.17099V25.5H7.93874V20.5ZM7.67099 23V9.90909H2.67099V23H7.67099ZM5.17099 12.4091H7.93874V7.40909H5.17099V12.4091ZM21.1655 9.90909H23.6655V7.40909H21.1655V9.90909ZM21.1655 23V25.5H23.6655V23H21.1655ZM18.7749 23L16.7183 24.4215L17.4638 25.5H18.7749V23ZM13.0795 14.7607L15.1361 13.3391L14.3906 12.2607H13.0795V14.7607ZM12.9837 14.7607V12.2607H10.4837V14.7607H12.9837ZM12.9837 23V25.5H15.4837V23H12.9837ZM10.2159 23H7.71591V25.5H10.2159V23ZM10.2159 9.90909V7.40909H7.71591V9.90909H10.2159ZM12.6449 9.90909L14.7061 8.4944L13.9612 7.40909H12.6449V9.90909ZM18.2955 18.142L16.2342 19.5567L16.9791 20.642H18.2955V18.142ZM18.4105 18.142V20.642H20.9105V18.142H18.4105ZM18.4105 9.90909V7.40909H15.9105V9.90909H18.4105ZM18.6655 9.90909V23H23.6655V9.90909H18.6655ZM21.1655 20.5H18.7749V25.5H21.1655V20.5ZM20.8314 21.5785L15.1361 13.3391L11.023 16.1822L16.7183 24.4215L20.8314 21.5785ZM13.0795 12.2607H12.9837V17.2607H13.0795V12.2607ZM10.4837 14.7607V23H15.4837V14.7607H10.4837ZM12.9837 20.5H10.2159V25.5H12.9837V20.5ZM12.7159 23V9.90909H7.71591V23H12.7159ZM10.2159 12.4091H12.6449V7.40909H10.2159V12.4091ZM10.5837 11.3238L16.2342 19.5567L20.3567 16.7274L14.7061 8.4944L10.5837 11.3238ZM18.2955 20.642H18.4105V15.642H18.2955V20.642ZM20.9105 18.142V9.90909H15.9105V18.142H20.9105ZM18.4105 12.4091H21.1655V7.40909H18.4105V12.4091ZM30.5538 13.674L28.066 13.9207L28.2895 16.174H30.5538V13.674ZM27.1724 12.2358L28.0954 14.5592L28.1091 14.5537L28.1227 14.5481L27.1724 12.2358ZM26.4565 12.7536L24.4565 11.2535L24.4472 11.266L24.438 11.2785L26.4565 12.7536ZM26.2136 13.5078L28.7119 13.5987L28.7136 13.5533V13.5078H26.2136ZM26.3606 14.1214L24.2261 15.423L24.2376 15.4417L24.2493 15.4603L26.3606 14.1214ZM26.8145 14.5753L25.4277 16.6554L25.4439 16.6662L25.4602 16.6767L26.8145 14.5753ZM27.4792 14.9013L26.6058 17.2437L26.6233 17.2503L26.6409 17.2565L27.4792 14.9013ZM28.2846 15.1314L28.8661 12.6999L28.8485 12.6957L28.8308 12.6918L28.2846 15.1314ZM29.4608 15.4126L28.8793 17.8441L28.8969 17.8483L28.9146 17.8522L29.4608 15.4126ZM31.0332 15.924L30.0141 18.2068L30.0141 18.2069L31.0332 15.924ZM32.2733 16.7102L33.9356 14.843L33.9356 14.843L32.2733 16.7102ZM33.0851 17.8097L30.8091 18.8442L30.8134 18.8537L30.8178 18.8631L33.0851 17.8097ZM33.3855 19.2607L35.8854 19.2739L35.8855 19.2575L35.8854 19.2411L33.3855 19.2607ZM32.7718 21.3445L30.7126 19.9269L30.7104 19.9301L32.7718 21.3445ZM31.0332 22.706L32.0086 25.0079L32.0149 25.0052L31.0332 22.706ZM25.5424 22.6996L24.5836 25.0084L24.588 25.0102L25.5424 22.6996ZM23.7143 21.2614L21.647 22.6671L21.6524 22.6751L21.6578 22.683L23.7143 21.2614ZM23.0304 18.8899V16.3899H20.4732L20.531 18.9465L23.0304 18.8899ZM25.7086 18.8899L28.2029 18.7204L28.0445 16.3899H25.7086V18.8899ZM26.0858 19.9893L24.0892 21.494L24.1015 21.5102L24.1139 21.5262L26.0858 19.9893ZM26.987 20.6477L26.0631 22.9707L26.0789 22.977L26.0949 22.9831L26.987 20.6477ZM29.4927 20.6605L28.5839 18.3315L28.5742 18.3354L29.4927 20.6605ZM30.3045 20.0916L32.2667 21.6407L32.2667 21.6407L30.3045 20.0916ZM30.3301 18.5128L28.4262 20.1331L28.4361 20.1447L28.4462 20.1562L30.3301 18.5128ZM29.5758 18.0014L28.591 20.2993L28.6017 20.3038L29.5758 18.0014ZM28.3677 17.6179L27.7588 20.0426L27.7703 20.0455L27.7818 20.0483L28.3677 17.6179ZM26.9423 17.2599L27.5512 14.8352L27.5422 14.833L27.5332 14.8308L26.9423 17.2599ZM24.3279 16.0007L22.6624 17.8651L22.6624 17.8651L24.3279 16.0007ZM23.3755 13.6932L25.8755 13.7042L25.8756 13.692L25.8755 13.6797L23.3755 13.6932ZM24.0083 11.6158L21.9859 10.1462L21.979 10.1558L24.0083 11.6158ZM30.8798 10.2287L29.8372 12.5009L29.8423 12.5032L30.8798 10.2287ZM32.5801 11.6158L30.5161 13.0264L30.5161 13.0264L32.5801 11.6158ZM33.2065 13.674V16.174H35.7478L35.7062 13.633L33.2065 13.674ZM33.0416 13.4273C32.9265 12.2672 32.3827 11.199 31.3777 10.4591L28.4132 14.4855C28.3303 14.4245 28.2329 14.3242 28.1583 14.1881C28.0861 14.0562 28.0692 13.9529 28.066 13.9207L33.0416 13.4273ZM31.3777 10.4591C30.4241 9.75703 29.3161 9.54403 28.3166 9.54403V14.544C28.4743 14.544 28.5462 14.5614 28.5554 14.5639C28.5595 14.565 28.4989 14.5486 28.4132 14.4855L31.3777 10.4591ZM28.3166 9.54403C27.6443 9.54403 26.9189 9.63711 26.2221 9.92345L28.1227 14.5481C28.082 14.5648 28.0717 14.5632 28.105 14.5576C28.1387 14.5519 28.2068 14.544 28.3166 14.544V9.54403ZM26.2494 9.91242C25.5999 10.1704 24.9516 10.5934 24.4565 11.2535L28.4565 14.2536C28.2938 14.4705 28.1227 14.5483 28.0954 14.5592L26.2494 9.91242ZM24.438 11.2785C23.955 11.9395 23.7136 12.7103 23.7136 13.5078H28.7136C28.7136 13.6104 28.6983 13.7371 28.654 13.8746C28.6095 14.0128 28.5452 14.1324 28.475 14.2286L24.438 11.2785ZM23.7153 13.417C23.6916 14.0675 23.8287 14.7711 24.2261 15.423L28.4951 12.8199C28.6795 13.1224 28.7186 13.4169 28.7119 13.5987L23.7153 13.417ZM24.2493 15.4603C24.5675 15.962 24.9786 16.356 25.4277 16.6554L28.2012 12.4952C28.2668 12.5389 28.3753 12.6303 28.4719 12.7826L24.2493 15.4603ZM25.4602 16.6767C25.8268 16.913 26.2145 17.0978 26.6058 17.2437L28.3527 12.5588C28.2411 12.5172 28.1856 12.4848 28.1687 12.4739L25.4602 16.6767ZM26.6409 17.2565C26.9965 17.3831 27.3633 17.487 27.7384 17.571L28.8308 12.6918C28.635 12.6479 28.4648 12.5984 28.3175 12.546L26.6409 17.2565ZM27.7032 17.5628L28.8793 17.8441L30.0422 12.9812L28.8661 12.6999L27.7032 17.5628ZM28.9146 17.8522C29.3421 17.948 29.7056 18.0692 30.0141 18.2068L32.0523 13.6412C31.4062 13.3527 30.7215 13.133 30.0069 12.973L28.9146 17.8522ZM30.0141 18.2069C30.284 18.3274 30.4743 18.4559 30.6109 18.5775L33.9356 14.843C33.3733 14.3424 32.7369 13.9468 32.0523 13.6412L30.0141 18.2069ZM30.6109 18.5775C30.7026 18.6591 30.763 18.7427 30.8091 18.8442L35.361 16.7752C35.0236 16.0328 34.5428 15.3835 33.9356 14.843L30.6109 18.5775ZM30.8178 18.8631C30.8395 18.9098 30.8836 19.031 30.8856 19.2802L35.8854 19.2411C35.8788 18.3994 35.7226 17.5533 35.3523 16.7562L30.8178 18.8631ZM30.8855 19.2474C30.8836 19.6104 30.7989 19.8015 30.7126 19.9269L34.8311 22.762C35.5544 21.7113 35.8788 20.5132 35.8854 19.2739L30.8855 19.2474ZM30.7104 19.9301C30.6203 20.0614 30.4468 20.238 30.0515 20.4068L32.0149 25.0052C33.1367 24.5262 34.1223 23.7951 34.8333 22.7589L30.7104 19.9301ZM30.0578 20.4041C29.6898 20.56 29.1301 20.6854 28.3038 20.6854V25.6854C29.6082 25.6854 30.8681 25.4911 32.0086 25.0078L30.0578 20.4041ZM28.3038 20.6854C27.4967 20.6854 26.9138 20.5612 26.4968 20.3889L24.588 25.0102C25.7392 25.4857 26.9973 25.6854 28.3038 25.6854V20.6854ZM26.5013 20.3908C26.1216 20.2331 25.9111 20.0428 25.7708 19.8398L21.6578 22.683C22.3953 23.7498 23.4036 24.5183 24.5836 25.0084L26.5013 20.3908ZM25.7816 19.8556C25.6721 19.6946 25.5425 19.3993 25.5297 18.8334L20.531 18.9465C20.5608 20.2641 20.8872 21.5497 21.647 22.6671L25.7816 19.8556ZM23.0304 21.3899H25.7086V16.3899H23.0304V21.3899ZM23.2144 19.0594C23.2706 19.8866 23.523 20.7426 24.0892 21.494L28.0823 18.4847C28.1381 18.5588 28.1719 18.63 28.19 18.6828C28.2071 18.7326 28.2049 18.7502 28.2029 18.7204L23.2144 19.0594ZM24.1139 21.5262C24.6394 22.2004 25.317 22.674 26.0631 22.9707L27.911 18.3247C27.9027 18.3214 27.9216 18.328 27.9552 18.3525C27.9898 18.3778 28.0261 18.4121 28.0576 18.4525L24.1139 21.5262ZM26.0949 22.9831C26.8042 23.2541 27.5421 23.3651 28.2718 23.3651V18.3651C28.047 18.3651 27.9284 18.3311 27.8792 18.3123L26.0949 22.9831ZM28.2718 23.3651C28.9756 23.3651 29.7079 23.2635 30.4113 22.9856L28.5742 18.3354C28.5872 18.3302 28.5056 18.3651 28.2718 18.3651V23.3651ZM30.4016 22.9895C31.0775 22.7257 31.7464 22.2998 32.2667 21.6407L28.3423 18.5425C28.4791 18.3692 28.6069 18.3226 28.5839 18.3316L30.4016 22.9895ZM32.2667 21.6407C32.8139 20.9476 33.0922 20.1202 33.0922 19.2543H28.0922C28.0922 19.1546 28.108 19.0271 28.1559 18.8879C28.2039 18.7482 28.2721 18.6314 28.3423 18.5425L32.2667 21.6407ZM33.0922 19.2543C33.0922 18.425 32.8291 17.5745 32.214 16.8694L28.4462 20.1562C28.329 20.0219 28.2325 19.8596 28.1695 19.6815C28.1079 19.507 28.0922 19.3568 28.0922 19.2543H33.0922ZM32.2339 16.8925C31.7349 16.3061 31.1147 15.9379 30.5499 15.699L28.6017 20.3038C28.6449 20.3221 28.6424 20.3255 28.6108 20.304C28.5782 20.2819 28.5075 20.2286 28.4262 20.1331L32.2339 16.8925ZM30.5606 15.7036C30.0657 15.4915 29.5206 15.3242 28.9536 15.1875L27.7818 20.0483C28.1694 20.1417 28.4296 20.2301 28.591 20.2993L30.5606 15.7036ZM28.9766 15.1932L27.5512 14.8352L26.3334 19.6847L27.7588 20.0426L28.9766 15.1932ZM27.5332 14.8308C26.7037 14.629 26.2429 14.3591 25.9935 14.1363L22.6624 17.8651C23.6914 18.7843 24.9735 19.3539 26.3514 19.6891L27.5332 14.8308ZM25.9935 14.1363C25.9462 14.094 25.9319 14.0674 25.9213 14.0418C25.9077 14.0087 25.8746 13.9101 25.8755 13.7042L20.8756 13.6822C20.8686 15.2629 21.4175 16.753 22.6624 17.8651L25.9935 14.1363ZM25.8755 13.6797C25.8738 13.3676 25.9472 13.2016 26.0377 13.0758L21.979 10.1558C21.2172 11.2146 20.8687 12.4336 20.8756 13.7066L25.8755 13.6797ZM26.0308 13.0853C26.1723 12.8906 26.3948 12.6903 26.7919 12.5143L24.766 7.94309C23.6631 8.4319 22.7052 9.1563 21.9859 10.1462L26.0308 13.0853ZM26.7919 12.5143C27.1749 12.3445 27.6735 12.2301 28.3358 12.2301V7.23011C27.0889 7.23011 25.8829 7.44809 24.766 7.94309L26.7919 12.5143ZM28.3358 12.2301C29.0247 12.2301 29.5034 12.3478 29.8372 12.5009L31.9224 7.95645C30.8073 7.44484 29.59 7.23011 28.3358 7.23011V12.2301ZM29.8423 12.5032C30.206 12.6692 30.3974 12.8527 30.5161 13.0264L34.6441 10.2051C33.9531 9.19414 33.011 8.453 31.9173 7.95415L29.8423 12.5032ZM30.5161 13.0264C30.6207 13.1794 30.7013 13.38 30.7068 13.715L35.7062 13.633C35.6861 12.4083 35.3491 11.2367 34.6441 10.2051L30.5161 13.0264ZM33.2065 11.174H30.5538V16.174H33.2065V11.174ZM35.2472 23H32.7472V25.5H35.2472V23ZM35.2472 9.90909V7.40909H32.7472V9.90909H35.2472ZM44.0682 9.90909H46.5682V7.40909H44.0682V9.90909ZM44.0682 12.1911V14.6911H46.5682V12.1911H44.0682ZM38.0149 12.1911V9.69105H35.5149V12.1911H38.0149ZM38.0149 15.3104H35.5149V17.8104H38.0149V15.3104ZM43.6143 15.3104H46.1143V12.8104H43.6143V15.3104ZM43.6143 17.5923V20.0923H46.1143V17.5923H43.6143ZM38.0149 17.5923V15.0923H35.5149V17.5923H38.0149ZM38.0149 20.718H35.5149V23.218H38.0149V20.718ZM44.0938 20.718H46.5938V18.218H44.0938V20.718ZM44.0938 23V25.5H46.5938V23H44.0938ZM37.7472 23V9.90909H32.7472V23H37.7472ZM35.2472 12.4091H44.0682V7.40909H35.2472V12.4091ZM41.5682 9.90909V12.1911H46.5682V9.90909H41.5682ZM44.0682 9.69105H38.0149V14.6911H44.0682V9.69105ZM35.5149 12.1911V15.3104H40.5149V12.1911H35.5149ZM38.0149 17.8104H43.6143V12.8104H38.0149V17.8104ZM41.1143 15.3104V17.5923H46.1143V15.3104H41.1143ZM43.6143 15.0923H38.0149V20.0923H43.6143V15.0923ZM35.5149 17.5923V20.718H40.5149V17.5923H35.5149ZM38.0149 23.218H44.0938V18.218H38.0149V23.218ZM41.5938 20.718V23H46.5938V20.718H41.5938ZM44.0938 20.5H35.2472V25.5H44.0938V20.5ZM46.2686 23H43.7686V25.5H46.2686V23ZM46.2686 9.90909V7.40909H43.7686V9.90909H46.2686ZM53.9647 10.4396L52.8358 12.6702L52.8439 12.6743L52.8521 12.6784L53.9647 10.4396ZM55.5691 11.929L53.3967 13.1662L53.4016 13.1748L53.4065 13.1833L55.5691 11.929ZM55.5627 16.429L57.7038 17.7195L57.7077 17.7131L55.5627 16.429ZM53.9327 17.8608L52.8747 15.5957L52.8695 15.5981L53.9327 17.8608ZM47.905 18.3594H45.405V20.8594H47.905V18.3594ZM47.905 16.1349V13.6349H45.405V16.1349H47.905ZM52.2324 15.9176L53.19 18.227L53.19 18.227L52.2324 15.9176ZM53.0123 15.2656L50.8713 13.9748L50.8643 13.9864L50.8574 13.9981L53.0123 15.2656ZM53.0123 13.0859L50.8416 14.3263L50.8483 14.3379L50.855 14.3494L53.0123 13.0859ZM52.226 12.4084L51.1978 14.6871L51.2145 14.6947L51.2312 14.7019L52.226 12.4084ZM49.0364 12.1719V9.67188H46.5364V12.1719H49.0364ZM49.0364 23V25.5H51.5364V23H49.0364ZM53.3382 17.0426L55.5324 15.8443L54.8214 14.5426H53.3382V17.0426ZM56.5918 23V25.5H60.8057L58.7859 21.8017L56.5918 23ZM53.5364 23L51.3314 24.1782L52.0377 25.5H53.5364V23ZM50.3532 17.0426V14.5426H46.1828L48.1482 18.2208L50.3532 17.0426ZM48.7686 23V9.90909H43.7686V23H48.7686ZM46.2686 12.4091H51.4334V7.40909H46.2686V12.4091ZM51.4334 12.4091C52.1301 12.4091 52.5665 12.534 52.8358 12.6702L55.0936 8.20903C53.9651 7.63792 52.714 7.40909 51.4334 7.40909V12.4091ZM52.8521 12.6784C53.1385 12.8208 53.2913 12.9811 53.3967 13.1662L57.7414 10.6917C57.1139 9.5899 56.1971 8.75736 55.0773 8.20086L52.8521 12.6784ZM53.4065 13.1833C53.521 13.3807 53.6252 13.685 53.6252 14.1854H58.6252C58.6252 12.9557 58.3586 11.7556 57.7316 10.6747L53.4065 13.1833ZM53.6252 14.1854C53.6252 14.6892 53.5195 14.9748 53.4177 15.1449L57.7077 17.7131C58.3559 16.6303 58.6252 15.4201 58.6252 14.1854H53.6252ZM53.4215 15.1384C53.3238 15.3006 53.1748 15.4555 52.8748 15.5957L54.9907 20.1259C56.1139 19.6013 57.0516 18.8017 57.7038 17.7195L53.4215 15.1384ZM52.8695 15.5981C52.5758 15.7361 52.1028 15.8594 51.3631 15.8594V20.8594C52.6348 20.8594 53.8748 20.6502 54.9959 20.1235L52.8695 15.5981ZM51.3631 15.8594H47.905V20.8594H51.3631V15.8594ZM50.405 18.3594V16.1349H45.405V18.3594H50.405ZM47.905 18.6349H50.9157V13.6349H47.905V18.6349ZM50.9157 18.6349C51.6514 18.6349 52.4421 18.5371 53.19 18.227L51.2749 13.6083C51.3047 13.5959 51.2967 13.6036 51.234 13.614C51.1714 13.6243 51.068 13.6349 50.9157 13.6349V18.6349ZM53.19 18.227C53.9752 17.9014 54.6872 17.349 55.1671 16.5332L50.8574 13.9981C50.9185 13.8942 50.998 13.8015 51.0859 13.728C51.1714 13.6565 51.2426 13.6216 51.2749 13.6083L53.19 18.227ZM55.1532 16.5565C55.6187 15.7844 55.7743 14.9487 55.7743 14.1854H50.7743C50.7743 14.2829 50.7552 14.1673 50.8713 13.9748L55.1532 16.5565ZM55.7743 14.1854C55.7743 13.4194 55.6195 12.5908 55.1695 11.8224L50.855 14.3494C50.7544 14.1776 50.7743 14.082 50.7743 14.1854H55.7743ZM55.1829 11.8456C54.7121 11.0217 54.0064 10.4556 53.2208 10.1148L51.2312 14.7019C51.2029 14.6896 51.1363 14.6559 51.0558 14.5866C50.973 14.5153 50.8985 14.4257 50.8416 14.3263L55.1829 11.8456ZM53.2543 10.1296C52.4816 9.78098 51.6609 9.67188 50.9029 9.67188V14.6719C51.0484 14.6719 51.1421 14.6828 51.1933 14.692C51.2441 14.7011 51.2394 14.7059 51.1978 14.6871L53.2543 10.1296ZM50.9029 9.67188H49.0364V14.6719H50.9029V9.67188ZM46.5364 12.1719V23H51.5364V12.1719H46.5364ZM49.0364 20.5H46.2686V25.5H49.0364V20.5ZM51.1441 18.2409L54.3977 24.1983L58.7859 21.8017L55.5324 15.8443L51.1441 18.2409ZM56.5918 20.5H53.5364V25.5H56.5918V20.5ZM55.7414 21.8218L52.5581 15.8644L48.1482 18.2208L51.3314 24.1782L55.7414 21.8218ZM50.3532 19.5426H53.3382V14.5426H50.3532V19.5426ZM57.5826 12.1911H55.0826V14.6911H57.5826V12.1911ZM57.5826 9.90909V7.40909H55.0826V9.90909H57.5826ZM68.334 9.90909H70.834V7.40909H68.334V9.90909ZM68.334 12.1911V14.6911H70.834V12.1911H68.334ZM64.3262 12.1911V9.69105H61.8262V12.1911H64.3262ZM64.3262 23V25.5H66.8262V23H64.3262ZM61.5904 23H59.0904V25.5H61.5904V23ZM61.5904 12.1911H64.0904V9.69105H61.5904V12.1911ZM60.0826 12.1911V9.90909H55.0826V12.1911H60.0826ZM57.5826 12.4091H68.334V7.40909H57.5826V12.4091ZM65.834 9.90909V12.1911H70.834V9.90909H65.834ZM68.334 9.69105H64.3262V14.6911H68.334V9.69105ZM61.8262 12.1911V23H66.8262V12.1911H61.8262ZM64.3262 20.5H61.5904V25.5H64.3262V20.5ZM64.0904 23V12.1911H59.0904V23H64.0904ZM61.5904 9.69105H57.5826V14.6911H61.5904V9.69105Z" fill="white" mask="url(#path-2-inside-1_202_20)"/>
</g>
<defs>
<clipPath id="clip0_202_20">
<rect width="72" height="32" fill="white"/>
</clipPath>
</defs>
</svg>
