<svg width="72" height="32" viewBox="0 0 72 32" fill="none" xmlns="http://www.w3.org/2000/svg">
<g clip-path="url(#clip0_202_59)">
<rect width="72" height="32" rx="8" fill="black"/>
<mask id="path-2-inside-1_202_59" fill="white">
<path d="M27.4419 9.90909V23H25.0512L19.3559 14.7607H19.26V23H16.4923V9.90909H18.9213L24.5718 18.142H24.6869V9.90909H27.4419ZM29.7286 23V9.90909H34.8934C35.8863 9.90909 36.7322 10.0987 37.431 10.478C38.1299 10.853 38.6626 11.375 39.029 12.044C39.3998 12.7088 39.5851 13.4759 39.5851 14.3452C39.5851 15.2145 39.3976 15.9815 39.0226 16.6463C38.6476 17.3111 38.1043 17.8288 37.3927 18.1996C36.6853 18.5703 35.8287 18.7557 34.8231 18.7557H31.5312V16.5376H34.3756C34.9083 16.5376 35.3472 16.446 35.6924 16.2628C36.0418 16.0753 36.3018 15.8175 36.4722 15.4893C36.6469 15.157 36.7343 14.7756 36.7343 14.3452C36.7343 13.9105 36.6469 13.5312 36.4722 13.2074C36.3018 12.8793 36.0418 12.6257 35.6924 12.4467C35.343 12.2635 34.8998 12.1719 34.3628 12.1719H32.4964V23H29.7286ZM45.2741 20.6989V18.5192L50.7393 9.90909H52.6185V12.9261H51.5063L48.061 18.3786V18.4808H55.8273V20.6989H45.2741ZM51.5574 23V20.0341L51.6086 19.0689V9.90909H54.2037V23H51.5574Z"/>
</mask>
<path d="M27.4419 9.90909H29.9419V7.40909H27.4419V9.90909ZM27.4419 23V25.5H29.9419V23H27.4419ZM25.0512 23L22.9947 24.4215L23.7402 25.5H25.0512V23ZM19.3559 14.7607L21.4124 13.3391L20.667 12.2607H19.3559V14.7607ZM19.26 14.7607V12.2607H16.76V14.7607H19.26ZM19.26 23V25.5H21.76V23H19.26ZM16.4923 23H13.9923V25.5H16.4923V23ZM16.4923 9.90909V7.40909H13.9923V9.90909H16.4923ZM18.9213 9.90909L20.9825 8.4944L20.2376 7.40909H18.9213V9.90909ZM24.5718 18.142L22.5106 19.5567L23.2555 20.642H24.5718V18.142ZM24.6869 18.142V20.642H27.1869V18.142H24.6869ZM24.6869 9.90909V7.40909H22.1869V9.90909H24.6869ZM24.9419 9.90909V23H29.9419V9.90909H24.9419ZM27.4419 20.5H25.0512V25.5H27.4419V20.5ZM27.1077 21.5785L21.4124 13.3391L17.2994 16.1822L22.9947 24.4215L27.1077 21.5785ZM19.3559 12.2607H19.26V17.2607H19.3559V12.2607ZM16.76 14.7607V23H21.76V14.7607H16.76ZM19.26 20.5H16.4923V25.5H19.26V20.5ZM18.9923 23V9.90909H13.9923V23H18.9923ZM16.4923 12.4091H18.9213V7.40909H16.4923V12.4091ZM16.86 11.3238L22.5106 19.5567L26.633 16.7274L20.9825 8.4944L16.86 11.3238ZM24.5718 20.642H24.6869V15.642H24.5718V20.642ZM27.1869 18.142V9.90909H22.1869V18.142H27.1869ZM24.6869 12.4091H27.4419V7.40909H24.6869V12.4091ZM29.7286 23H27.2286V25.5H29.7286V23ZM29.7286 9.90909V7.40909H27.2286V9.90909H29.7286ZM37.431 10.478L36.2386 12.6753L36.249 12.6809L37.431 10.478ZM39.029 12.044L36.8364 13.2451L36.841 13.2534L36.8456 13.2617L39.029 12.044ZM37.3927 18.1996L36.2376 15.9824L36.2322 15.9853L37.3927 18.1996ZM31.5312 18.7557H29.0312V21.2557H31.5312V18.7557ZM31.5312 16.5376V14.0376H29.0312V16.5376H31.5312ZM35.6924 16.2628L36.8646 18.4709L36.8744 18.4657L35.6924 16.2628ZM36.4722 15.4893L34.2593 14.3261L34.2537 14.3369L36.4722 15.4893ZM36.4722 13.2074L34.2537 14.3599L34.2627 14.3772L34.272 14.3944L36.4722 13.2074ZM35.6924 12.4467L34.5314 14.6608L34.542 14.6664L34.5527 14.6718L35.6924 12.4467ZM32.4964 12.1719V9.67188H29.9964V12.1719H32.4964ZM32.4964 23V25.5H34.9964V23H32.4964ZM32.2286 23V9.90909H27.2286V23H32.2286ZM29.7286 12.4091H34.8934V7.40909H29.7286V12.4091ZM34.8934 12.4091C35.5716 12.4091 35.9859 12.5382 36.2386 12.6753L38.6235 8.28069C37.4784 7.65928 36.2009 7.40909 34.8934 7.40909V12.4091ZM36.249 12.6809C36.5389 12.8365 36.7122 13.0183 36.8364 13.2451L41.2216 10.843C40.6129 9.73171 39.7208 8.8695 38.6131 8.27508L36.249 12.6809ZM36.8456 13.2617C36.9808 13.5041 37.0851 13.8407 37.0851 14.3452H42.0851C42.0851 13.111 41.8188 11.9135 41.2124 10.8264L36.8456 13.2617ZM37.0851 14.3452C37.0851 14.8448 36.9808 15.1776 36.8452 15.418L41.2001 17.8746C41.8145 16.7854 42.0851 15.5842 42.0851 14.3452H37.0851ZM36.8452 15.418C36.7206 15.6389 36.5431 15.8233 36.2376 15.9824L38.5477 20.4167C39.6655 19.8344 40.5747 18.9833 41.2001 17.8746L36.8452 15.418ZM36.2322 15.9853C35.9637 16.1259 35.527 16.2557 34.8231 16.2557V21.2557C36.1305 21.2557 37.4068 21.0147 38.5532 20.4139L36.2322 15.9853ZM34.8231 16.2557H31.5312V21.2557H34.8231V16.2557ZM34.0312 18.7557V16.5376H29.0312V18.7557H34.0312ZM31.5312 19.0376H34.3756V14.0376H31.5312V19.0376ZM34.3756 19.0376C35.1756 19.0376 36.0514 18.9027 36.8646 18.4709L34.5202 14.0546C34.5837 14.0209 34.6155 14.0171 34.5935 14.0217C34.5699 14.0266 34.5013 14.0376 34.3756 14.0376V19.0376ZM36.8744 18.4657C37.6334 18.0584 38.2713 17.4493 38.6907 16.6418L34.2537 14.3369C34.2867 14.2733 34.333 14.2092 34.3889 14.1538C34.4437 14.0994 34.4902 14.0707 34.5103 14.0599L36.8744 18.4657ZM38.6851 16.6525C39.0743 15.9121 39.2343 15.1212 39.2343 14.3452H34.2343C34.2343 14.391 34.2297 14.4054 34.2319 14.3958C34.2329 14.3912 34.2354 14.382 34.2401 14.3692C34.2448 14.3564 34.2511 14.3417 34.2593 14.3262L38.6851 16.6525ZM39.2343 14.3452C39.2343 13.5712 39.0767 12.7698 38.6725 12.0204L34.272 14.3944C34.26 14.3722 34.2509 14.3516 34.2443 14.3338C34.2377 14.3161 34.2342 14.3031 34.2326 14.2959C34.2293 14.2815 34.2343 14.2951 34.2343 14.3452H39.2343ZM38.6907 12.0549C38.2656 11.2366 37.6136 10.6219 36.8321 10.2216L34.5527 14.6718C34.5228 14.6565 34.4668 14.6222 34.4038 14.5608C34.3397 14.4983 34.2889 14.4276 34.2537 14.3599L38.6907 12.0549ZM36.8534 10.2327C36.0402 9.80623 35.1652 9.67188 34.3628 9.67188V14.6719C34.4917 14.6719 34.5641 14.6831 34.5918 14.6888C34.618 14.6942 34.5906 14.6919 34.5314 14.6608L36.8534 10.2327ZM34.3628 9.67188H32.4964V14.6719H34.3628V9.67188ZM29.9964 12.1719V23H34.9964V12.1719H29.9964ZM32.4964 20.5H29.7286V25.5H32.4964V20.5ZM45.2741 20.6989H42.7741V23.1989H45.2741V20.6989ZM45.2741 18.5192L43.1634 17.1794L42.7741 17.7927V18.5192H45.2741ZM50.7393 9.90909V7.40909H49.365L48.6286 8.56934L50.7393 9.90909ZM52.6185 9.90909H55.1185V7.40909H52.6185V9.90909ZM52.6185 12.9261V15.4261H55.1185V12.9261H52.6185ZM51.5063 12.9261V10.4261H50.1287L49.3929 11.5907L51.5063 12.9261ZM48.061 18.3786L45.9476 17.0431L45.561 17.6549V18.3786H48.061ZM48.061 18.4808H45.561V20.9808H48.061V18.4808ZM55.8273 18.4808H58.3273V15.9808H55.8273V18.4808ZM55.8273 20.6989V23.1989H58.3273V20.6989H55.8273ZM51.5574 23H49.0574V25.5H51.5574V23ZM51.5574 20.0341L49.0609 19.9018L49.0574 19.9679V20.0341H51.5574ZM51.6086 19.0689L54.1051 19.2012L54.1086 19.1351V19.0689H51.6086ZM51.6086 9.90909V7.40909H49.1086V9.90909H51.6086ZM54.2037 9.90909H56.7037V7.40909H54.2037V9.90909ZM54.2037 23V25.5H56.7037V23H54.2037ZM47.7741 20.6989V18.5192H42.7741V20.6989H47.7741ZM47.3848 19.8589L52.85 11.2488L48.6286 8.56934L43.1634 17.1794L47.3848 19.8589ZM50.7393 12.4091H52.6185V7.40909H50.7393V12.4091ZM50.1185 9.90909V12.9261H55.1185V9.90909H50.1185ZM52.6185 10.4261H51.5063V15.4261H52.6185V10.4261ZM49.3929 11.5907L45.9476 17.0431L50.1744 19.714L53.6197 14.2616L49.3929 11.5907ZM45.561 18.3786V18.4808H50.561V18.3786H45.561ZM48.061 20.9808H55.8273V15.9808H48.061V20.9808ZM53.3273 18.4808V20.6989H58.3273V18.4808H53.3273ZM55.8273 18.1989H45.2741V23.1989H55.8273V18.1989ZM54.0574 23V20.0341H49.0574V23H54.0574ZM54.0539 20.1664L54.1051 19.2012L49.1121 18.9366L49.0609 19.9018L54.0539 20.1664ZM54.1086 19.0689V9.90909H49.1086V19.0689H54.1086ZM51.6086 12.4091H54.2037V7.40909H51.6086V12.4091ZM51.7037 9.90909V23H56.7037V9.90909H51.7037ZM54.2037 20.5H51.5574V25.5H54.2037V20.5Z" fill="white" mask="url(#path-2-inside-1_202_59)"/>
</g>
<defs>
<clipPath id="clip0_202_59">
<rect width="72" height="32" fill="white"/>
</clipPath>
</defs>
</svg>
