<svg width="32" height="32" viewBox="0 0 32 32" fill="none" xmlns="http://www.w3.org/2000/svg">
<g clip-path="url(#clip0_1_1805)">
<rect width="32" height="32" rx="8" fill="black"/>
<mask id="path-2-inside-1_1_1805" fill="white">
<path d="M10.0305 10.9901V8.45455H21.9766V10.9901H17.5234V23H14.4837V10.9901H10.0305Z"/>
</mask>
<path d="M10.0305 10.9901H7.53054V13.4901H10.0305V10.9901ZM10.0305 8.45455V5.95455H7.53054V8.45455H10.0305ZM21.9766 8.45455H24.4766V5.95455H21.9766V8.45455ZM21.9766 10.9901V13.4901H24.4766V10.9901H21.9766ZM17.5234 10.9901V8.49006H15.0234V10.9901H17.5234ZM17.5234 23V25.5H20.0234V23H17.5234ZM14.4837 23H11.9837V25.5H14.4837V23ZM14.4837 10.9901H16.9837V8.49006H14.4837V10.9901ZM12.5305 10.9901V8.45455H7.53054V10.9901H12.5305ZM10.0305 10.9545H21.9766V5.95455H10.0305V10.9545ZM19.4766 8.45455V10.9901H24.4766V8.45455H19.4766ZM21.9766 8.49006H17.5234V13.4901H21.9766V8.49006ZM15.0234 10.9901V23H20.0234V10.9901H15.0234ZM17.5234 20.5H14.4837V25.5H17.5234V20.5ZM16.9837 23V10.9901H11.9837V23H16.9837ZM14.4837 8.49006H10.0305V13.4901H14.4837V8.49006Z" fill="white" mask="url(#path-2-inside-1_1_1805)"/>
</g>
<defs>
<clipPath id="clip0_1_1805">
<rect width="32" height="32" fill="white"/>
</clipPath>
</defs>
</svg>
