<svg width="49" height="32" viewBox="0 0 49 32" fill="none" xmlns="http://www.w3.org/2000/svg">
<g clip-path="url(#clip0_1_1828)">
<rect width="49" height="32" rx="8" fill="black"/>
<mask id="path-2-inside-1_1_1828" fill="white">
<path d="M6.74467 12.1911V9.90909H17.4961V12.1911H13.4883V23H10.7525V12.1911H6.74467ZM19.9235 23H16.9576L21.4767 9.90909H25.0435L29.5563 23H26.5904L23.3113 12.9006H23.209L19.9235 23ZM19.7381 17.8544H26.7438V20.0149H19.7381V17.8544ZM31.1319 23V9.90909H36.3734C37.3365 9.90909 38.1397 10.0518 38.7832 10.3374C39.4267 10.6229 39.9103 11.0192 40.2342 11.5263C40.5581 12.0291 40.72 12.6087 40.72 13.2649C40.72 13.7763 40.6177 14.2259 40.4132 14.6136C40.2086 14.9972 39.9274 15.3125 39.5694 15.5597C39.2157 15.8026 38.8109 15.9751 38.3549 16.0774V16.2053C38.8535 16.2266 39.3201 16.3672 39.7548 16.6271C40.1937 16.8871 40.5495 17.2514 40.8223 17.7202C41.095 18.1847 41.2314 18.7386 41.2314 19.3821C41.2314 20.0767 41.0588 20.6967 40.7136 21.2422C40.3727 21.7834 39.8677 22.2116 39.1987 22.527C38.5297 22.8423 37.7051 23 36.725 23H31.1319ZM33.8997 20.7372H36.1561C36.9274 20.7372 37.4899 20.5902 37.8436 20.2962C38.1973 19.9979 38.3741 19.6016 38.3741 19.1072C38.3741 18.745 38.2868 18.4254 38.112 18.1484C37.9373 17.8714 37.688 17.6541 37.3642 17.4964C37.0446 17.3388 36.6632 17.2599 36.22 17.2599H33.8997V20.7372ZM33.8997 15.3871H35.9515C36.3308 15.3871 36.6674 15.321 36.9615 15.1889C37.2598 15.0526 37.4941 14.8608 37.6646 14.6136C37.8393 14.3665 37.9267 14.0703 37.9267 13.7251C37.9267 13.2521 37.7583 12.8707 37.4217 12.581C37.0893 12.2912 36.6163 12.1463 36.0027 12.1463H33.8997V15.3871Z"/>
</mask>
<path d="M6.74467 12.1911H4.24467V14.6911H6.74467V12.1911ZM6.74467 9.90909V7.40909H4.24467V9.90909H6.74467ZM17.4961 9.90909H19.9961V7.40909H17.4961V9.90909ZM17.4961 12.1911V14.6911H19.9961V12.1911H17.4961ZM13.4883 12.1911V9.69105H10.9883V12.1911H13.4883ZM13.4883 23V25.5H15.9883V23H13.4883ZM10.7525 23H8.25249V25.5H10.7525V23ZM10.7525 12.1911H13.2525V9.69105H10.7525V12.1911ZM9.24467 12.1911V9.90909H4.24467V12.1911H9.24467ZM6.74467 12.4091H17.4961V7.40909H6.74467V12.4091ZM14.9961 9.90909V12.1911H19.9961V9.90909H14.9961ZM17.4961 9.69105H13.4883V14.6911H17.4961V9.69105ZM10.9883 12.1911V23H15.9883V12.1911H10.9883ZM13.4883 20.5H10.7525V25.5H13.4883V20.5ZM13.2525 23V12.1911H8.25249V23H13.2525ZM10.7525 9.69105H6.74467V14.6911H10.7525V9.69105ZM19.9235 23V25.5H21.7391L22.3008 23.7734L19.9235 23ZM16.9576 23L14.5944 22.1842L13.4498 25.5H16.9576V23ZM21.4767 9.90909V7.40909H19.695L19.1136 9.0933L21.4767 9.90909ZM25.0435 9.90909L27.407 9.09433L26.8261 7.40909H25.0435V9.90909ZM29.5563 23V25.5H33.0625L31.9198 22.1852L29.5563 23ZM26.5904 23L24.2126 23.772L24.7736 25.5H26.5904V23ZM23.3113 12.9006L25.6891 12.1285L25.128 10.4006H23.3113V12.9006ZM23.209 12.9006V10.4006H21.3933L20.8316 12.1272L23.209 12.9006ZM19.7381 17.8544V15.3544H17.2381V17.8544H19.7381ZM26.7438 17.8544H29.2438V15.3544H26.7438V17.8544ZM26.7438 20.0149V22.5149H29.2438V20.0149H26.7438ZM19.7381 20.0149H17.2381V22.5149H19.7381V20.0149ZM19.9235 20.5H16.9576V25.5H19.9235V20.5ZM19.3207 23.8158L23.8399 10.7249L19.1136 9.0933L14.5944 22.1842L19.3207 23.8158ZM21.4767 12.4091H25.0435V7.40909H21.4767V12.4091ZM22.68 10.7239L27.1928 23.8148L31.9198 22.1852L27.407 9.09433L22.68 10.7239ZM29.5563 20.5H26.5904V25.5H29.5563V20.5ZM28.9682 22.228L25.6891 12.1285L20.9335 13.6726L24.2126 23.772L28.9682 22.228ZM23.3113 10.4006H23.209V15.4006H23.3113V10.4006ZM20.8316 12.1272L17.5461 22.2266L22.3008 23.7734L25.5863 13.674L20.8316 12.1272ZM19.7381 20.3544H26.7438V15.3544H19.7381V20.3544ZM24.2438 17.8544V20.0149H29.2438V17.8544H24.2438ZM26.7438 17.5149H19.7381V22.5149H26.7438V17.5149ZM22.2381 20.0149V17.8544H17.2381V20.0149H22.2381ZM31.1319 23H28.6319V25.5H31.1319V23ZM31.1319 9.90909V7.40909H28.6319V9.90909H31.1319ZM38.7832 10.3374L37.7693 12.6225V12.6225L38.7832 10.3374ZM40.2342 11.5263L38.1272 12.8719L38.1324 12.88L40.2342 11.5263ZM40.4132 14.6136L42.6191 15.7901L42.6244 15.78L40.4132 14.6136ZM39.5694 15.5597L40.9847 17.6205L40.9899 17.6169L39.5694 15.5597ZM38.3549 16.0774L37.8078 13.638L35.8549 14.076V16.0774H38.3549ZM38.3549 16.2053H35.8549V18.6007L38.2482 18.703L38.3549 16.2053ZM39.7548 16.6271L38.4716 18.7727L38.4809 18.7782L39.7548 16.6271ZM40.8223 17.7202L38.6614 18.9774L38.6664 18.986L40.8223 17.7202ZM40.7136 21.2422L38.6011 19.9053L38.5983 19.9097L40.7136 21.2422ZM39.1987 22.527L38.1328 20.2656V20.2656L39.1987 22.527ZM33.8997 20.7372H31.3997V23.2372H33.8997V20.7372ZM37.8436 20.2962L39.4418 22.2186L39.4486 22.213L39.4553 22.2072L37.8436 20.2962ZM38.112 18.1484L35.9975 19.4822V19.4822L38.112 18.1484ZM37.3642 17.4964L36.2581 19.7385L36.2699 19.7442L37.3642 17.4964ZM33.8997 17.2599V14.7599H31.3997V17.2599H33.8997ZM33.8997 15.3871H31.3997V17.8871H33.8997V15.3871ZM36.9615 15.1889L37.986 17.4693L37.9935 17.466L38.0009 17.4626L36.9615 15.1889ZM37.6646 14.6136L35.6232 13.1705L35.6148 13.1824L35.6066 13.1943L37.6646 14.6136ZM37.4217 12.581L35.7789 14.4654L35.7848 14.4706L35.7908 14.4757L37.4217 12.581ZM33.8997 12.1463V9.64631H31.3997V12.1463H33.8997ZM33.6319 23V9.90909H28.6319V23H33.6319ZM31.1319 12.4091H36.3734V7.40909H31.1319V12.4091ZM36.3734 12.4091C37.1081 12.4091 37.5396 12.5206 37.7693 12.6225L39.7971 8.05221C38.7399 7.58308 37.5649 7.40909 36.3734 7.40909V12.4091ZM37.7693 12.6225C38.042 12.7435 38.11 12.8449 38.1272 12.8719L42.3412 10.1807C41.7107 9.19341 40.8113 8.50221 39.7971 8.05221L37.7693 12.6225ZM38.1324 12.88C38.1712 12.9403 38.22 13.0403 38.22 13.2649H43.22C43.22 12.177 42.9449 11.118 42.336 10.1726L38.1324 12.88ZM38.22 13.2649C38.22 13.354 38.2111 13.4067 38.2056 13.4311C38.2004 13.4539 38.1972 13.4563 38.2019 13.4473L42.6244 15.78C43.0479 14.9772 43.22 14.115 43.22 13.2649H38.22ZM38.2073 13.4372C38.1907 13.4683 38.1788 13.4818 38.1489 13.5024L40.9899 17.6169C41.6759 17.1432 42.2266 16.526 42.6191 15.7901L38.2073 13.4372ZM38.1542 13.4988C38.0856 13.5459 37.9807 13.5992 37.8078 13.638L38.9021 18.5168C39.6411 18.3511 40.3459 18.0592 40.9847 17.6205L38.1542 13.4988ZM35.8549 16.0774V16.2053H40.8549V16.0774H35.8549ZM38.2482 18.703C38.3251 18.7063 38.3882 18.7228 38.4716 18.7727L41.0379 14.4815C40.2521 14.0116 39.382 13.7469 38.4617 13.7075L38.2482 18.703ZM38.4809 18.7782C38.5295 18.807 38.5892 18.8533 38.6614 18.9774L42.9831 16.4629C42.5099 15.6495 41.8579 14.9672 41.0287 14.4761L38.4809 18.7782ZM38.6664 18.986C38.6735 18.9981 38.7314 19.0967 38.7314 19.3821H43.7314C43.7314 18.3805 43.5165 17.3712 42.9781 16.4543L38.6664 18.986ZM38.7314 19.3821C38.7314 19.6409 38.6738 19.7904 38.6011 19.9053L42.8261 22.579C43.4438 21.6031 43.7314 20.5125 43.7314 19.3821H38.7314ZM38.5983 19.9097C38.5492 19.9876 38.4395 20.121 38.1328 20.2656L40.2646 24.7884C41.2959 24.3023 42.1962 23.5792 42.8289 22.5747L38.5983 19.9097ZM38.1328 20.2656C37.8871 20.3814 37.4509 20.5 36.725 20.5V25.5C37.9593 25.5 39.1722 25.3032 40.2646 24.7884L38.1328 20.2656ZM36.725 20.5H31.1319V25.5H36.725V20.5ZM33.8997 23.2372H36.1561V18.2372H33.8997V23.2372ZM36.1561 23.2372C37.148 23.2372 38.4224 23.0661 39.4418 22.2186L36.2454 18.3737C36.4144 18.2332 36.5417 18.2036 36.5243 18.2082C36.5176 18.2099 36.4853 18.2177 36.4215 18.2247C36.358 18.2317 36.2706 18.2372 36.1561 18.2372V23.2372ZM39.4553 22.2072C40.4147 21.3981 40.8741 20.281 40.8741 19.1072H35.8741C35.8741 19.0521 35.8852 18.9206 35.9585 18.7565C36.0337 18.5878 36.14 18.4625 36.2318 18.3851L39.4553 22.2072ZM40.8741 19.1072C40.8741 18.3247 40.6794 17.5326 40.2265 16.8147L35.9975 19.4822C35.9515 19.4093 35.9177 19.3307 35.8971 19.255C35.8768 19.1811 35.8741 19.1283 35.8741 19.1072H40.8741ZM40.2265 16.8147C39.779 16.1052 39.1576 15.5891 38.4585 15.2487L36.2699 19.7442C36.2512 19.7352 36.2066 19.7105 36.1512 19.6621C36.0945 19.6127 36.0411 19.5513 35.9975 19.4822L40.2265 16.8147ZM38.4702 15.2544C37.7331 14.8908 36.9554 14.7599 36.22 14.7599V19.7599C36.2944 19.7599 36.3291 19.7666 36.3324 19.7673C36.3342 19.7677 36.3055 19.7618 36.2581 19.7385L38.4702 15.2544ZM36.22 14.7599H33.8997V19.7599H36.22V14.7599ZM31.3997 17.2599V20.7372H36.3997V17.2599H31.3997ZM33.8997 17.8871H35.9515V12.8871H33.8997V17.8871ZM35.9515 17.8871C36.6223 17.8871 37.3179 17.7695 37.986 17.4693L35.9369 12.9085C35.9553 12.9003 35.9711 12.8945 35.9836 12.8906C35.996 12.8867 36.0042 12.8849 36.0071 12.8843C36.013 12.8832 35.9963 12.8871 35.9515 12.8871V17.8871ZM38.0009 17.4626C38.6704 17.1565 39.2726 16.6855 39.7226 16.033L35.6066 13.1943C35.6558 13.1229 35.7149 13.0595 35.7779 13.0079C35.8398 12.9573 35.8923 12.9289 35.9221 12.9152L38.0009 17.4626ZM39.706 16.0567C40.2198 15.3299 40.4267 14.5119 40.4267 13.7251H35.4267C35.4267 13.6861 35.4318 13.6057 35.4633 13.4989C35.4956 13.3892 35.5489 13.2756 35.6232 13.1705L39.706 16.0567ZM40.4267 13.7251C40.4267 12.5778 39.9805 11.4849 39.0526 10.6862L35.7908 14.4757C35.6961 14.3942 35.589 14.2654 35.5133 14.0938C35.4394 13.9263 35.4267 13.7895 35.4267 13.7251H40.4267ZM39.0645 10.6965C38.126 9.87833 36.9845 9.64631 36.0027 9.64631V14.6463C36.1184 14.6463 36.1352 14.6606 36.0855 14.6453C36.0273 14.6275 35.9078 14.5778 35.7789 14.4654L39.0645 10.6965ZM36.0027 9.64631H33.8997V14.6463H36.0027V9.64631ZM31.3997 12.1463V15.3871H36.3997V12.1463H31.3997Z" fill="white" mask="url(#path-2-inside-1_1_1828)"/>
</g>
<defs>
<clipPath id="clip0_1_1828">
<rect width="49" height="32" fill="white"/>
</clipPath>
</defs>
</svg>
