<svg width="32" height="32" viewBox="0 0 32 32" fill="none" xmlns="http://www.w3.org/2000/svg">
<g clip-path="url(#clip0_1_1807)">
<rect width="32" height="32" rx="8" fill="black"/>
<mask id="path-2-inside-1_1_1807" fill="white">
<path d="M18.9537 8.45455H22.0289V17.9006C22.0289 18.9612 21.7756 19.8892 21.269 20.6847C20.7671 21.4801 20.064 22.1004 19.1596 22.5455C18.2553 22.9858 17.2018 23.206 15.9991 23.206C14.7917 23.206 13.7359 22.9858 12.8315 22.5455C11.9271 22.1004 11.224 21.4801 10.7221 20.6847C10.2202 19.8892 9.96928 18.9612 9.96928 17.9006V8.45455H13.0446V17.6378C13.0446 18.1918 13.1653 18.6842 13.4068 19.1151C13.653 19.5459 13.9986 19.8845 14.4437 20.1307C14.8888 20.3769 15.4073 20.5 15.9991 20.5C16.5957 20.5 17.1142 20.3769 17.5545 20.1307C17.9996 19.8845 18.3429 19.5459 18.5843 19.1151C18.8306 18.6842 18.9537 18.1918 18.9537 17.6378V8.45455Z"/>
</mask>
<path d="M18.9537 8.45455V5.95455H16.4537V8.45455H18.9537ZM22.0289 8.45455H24.5289V5.95455H22.0289V8.45455ZM21.269 20.6847L19.1603 19.3416L19.1547 19.3506L21.269 20.6847ZM19.1596 22.5455L20.2541 24.7932L20.2635 24.7885L19.1596 22.5455ZM12.8315 22.5455L11.7276 24.7885L11.7371 24.7932L12.8315 22.5455ZM10.7221 20.6847L8.6078 22.0187H8.6078L10.7221 20.6847ZM9.96928 8.45455V5.95455H7.46928V8.45455H9.96928ZM13.0446 8.45455H15.5446V5.95455H13.0446V8.45455ZM13.4068 19.1151L11.2259 20.3373L11.231 20.3464L11.2362 20.3554L13.4068 19.1151ZM14.4437 20.1307L13.2336 22.3183L13.2336 22.3183L14.4437 20.1307ZM17.5545 20.1307L16.3443 17.9431L16.3344 17.9486L17.5545 20.1307ZM18.5843 19.1151L16.4137 17.8747L16.4086 17.8837L16.4035 17.8928L18.5843 19.1151ZM18.9537 10.9545H22.0289V5.95455H18.9537V10.9545ZM19.5289 8.45455V17.9006H24.5289V8.45455H19.5289ZM19.5289 17.9006C19.5289 18.5465 19.3805 18.9961 19.1604 19.3417L23.3776 22.0277C24.1708 20.7823 24.5289 19.3759 24.5289 17.9006H19.5289ZM19.1547 19.3506C18.9169 19.7275 18.5767 20.046 18.0557 20.3024L20.2635 24.7885C21.5513 24.1548 22.6173 23.2328 23.3833 22.0187L19.1547 19.3506ZM18.0652 20.2977C17.5621 20.5427 16.8959 20.706 15.9991 20.706V25.706C17.5076 25.706 18.9484 25.4289 20.2541 24.7932L18.0652 20.2977ZM15.9991 20.706C15.0959 20.706 14.4277 20.5421 13.9259 20.2977L11.7371 24.7932C13.044 25.4295 14.4876 25.706 15.9991 25.706V20.706ZM13.9354 20.3024C13.4145 20.046 13.0742 19.7275 12.8364 19.3506L8.6078 22.0187C9.37383 23.2328 10.4398 24.1548 11.7276 24.7885L13.9354 20.3024ZM12.8364 19.3506C12.6177 19.0039 12.4693 18.551 12.4693 17.9006H7.46928C7.46928 19.3714 7.8228 20.7745 8.6078 22.0187L12.8364 19.3506ZM12.4693 17.9006V8.45455H7.46928V17.9006H12.4693ZM9.96928 10.9545H13.0446V5.95455H9.96928V10.9545ZM10.5446 8.45455V17.6378H15.5446V8.45455H10.5446ZM10.5446 17.6378C10.5446 18.5668 10.7507 19.4894 11.2259 20.3373L15.5876 17.8928C15.5799 17.879 15.5446 17.8168 15.5446 17.6378H10.5446ZM11.2362 20.3554C11.7156 21.1944 12.3981 21.8561 13.2336 22.3183L15.6539 17.9431C15.6182 17.9234 15.6039 17.91 15.6 17.9061C15.5963 17.9025 15.5889 17.8949 15.5774 17.8747L11.2362 20.3554ZM13.2336 22.3183C14.1056 22.8007 15.0537 23 15.9991 23V18C15.7609 18 15.6719 17.9531 15.6539 17.9431L13.2336 22.3183ZM15.9991 23C16.9447 23 17.8986 22.8025 18.7746 22.3127L16.3344 17.9486C16.3297 17.9513 16.2467 18 15.9991 18V23ZM18.7647 22.3183C19.6041 21.8539 20.2892 21.1865 20.7652 20.3373L16.4035 17.8928C16.3985 17.9017 16.3952 17.9063 16.3937 17.9082C16.3924 17.91 16.3914 17.9111 16.3903 17.9121C16.3897 17.9127 16.3784 17.9243 16.3444 17.9431L18.7647 22.3183ZM20.7549 20.3554C21.2413 19.5043 21.4537 18.5751 21.4537 17.6378H16.4537C16.4537 17.8084 16.4198 17.8641 16.4137 17.8747L20.7549 20.3554ZM21.4537 17.6378V8.45455H16.4537V17.6378H21.4537Z" fill="white" mask="url(#path-2-inside-1_1_1807)"/>
</g>
<defs>
<clipPath id="clip0_1_1807">
<rect width="32" height="32" fill="white"/>
</clipPath>
</defs>
</svg>
