<svg width="32" height="32" viewBox="0 0 32 32" fill="none" xmlns="http://www.w3.org/2000/svg">
<g clip-path="url(#clip0_1_1844)">
<rect width="32" height="32" rx="8" fill="black"/>
<mask id="path-2-inside-1_1_1844" fill="white">
<path d="M19.6461 7.77273L14.9586 25.1875H12.3521L17.0396 7.77273H19.6461Z"/>
</mask>
<path d="M19.6461 7.77273L22.0602 8.42252L22.908 5.27273H19.6461V7.77273ZM14.9586 25.1875V27.6875H16.8747L17.3727 25.8373L14.9586 25.1875ZM12.3521 25.1875L9.93802 24.5377L9.09019 27.6875H12.3521V25.1875ZM17.0396 7.77273V5.27273H15.1235L14.6255 7.12293L17.0396 7.77273ZM17.2321 7.12293L12.5446 24.5377L17.3727 25.8373L22.0602 8.42252L17.2321 7.12293ZM14.9586 22.6875H12.3521V27.6875H14.9586V22.6875ZM14.7662 25.8373L19.4537 8.42252L14.6255 7.12293L9.93802 24.5377L14.7662 25.8373ZM17.0396 10.2727H19.6461V5.27273H17.0396V10.2727Z" fill="white" mask="url(#path-2-inside-1_1_1844)"/>
</g>
<defs>
<clipPath id="clip0_1_1844">
<rect width="32" height="32" fill="white"/>
</clipPath>
</defs>
</svg>
