<svg width="32" height="32" viewBox="0 0 32 32" fill="none" xmlns="http://www.w3.org/2000/svg">
<g clip-path="url(#clip0_1_1800)">
<rect width="32" height="32" rx="8" fill="black"/>
<mask id="path-2-inside-1_1_1800" fill="white">
<path d="M12.4116 8.45455L15.9272 19.5057H16.0621L19.5849 8.45455H22.994L17.9798 23H14.0167L8.99538 8.45455H12.4116Z"/>
</mask>
<path d="M12.4116 8.45455L14.7939 7.69666L14.2397 5.95455H12.4116V8.45455ZM15.9272 19.5057L13.5448 20.2636L14.0991 22.0057H15.9272V19.5057ZM16.0621 19.5057V22.0057H17.8892L18.4441 20.265L16.0621 19.5057ZM19.5849 8.45455V5.95455H17.7578L17.203 7.69527L19.5849 8.45455ZM22.994 8.45455L25.3575 9.26931L26.5002 5.95455H22.994V8.45455ZM17.9798 23V25.5H19.7623L20.3433 23.8148L17.9798 23ZM14.0167 23L11.6535 23.8158L12.235 25.5H14.0167V23ZM8.99538 8.45455V5.95455H5.48757L6.63223 9.27034L8.99538 8.45455ZM10.0292 9.21243L13.5448 20.2636L18.3096 18.7478L14.7939 7.69666L10.0292 9.21243ZM15.9272 22.0057H16.0621V17.0057H15.9272V22.0057ZM18.4441 20.265L21.9668 9.21382L17.203 7.69527L13.6802 18.7464L18.4441 20.265ZM19.5849 10.9545H22.994V5.95455H19.5849V10.9545ZM20.6305 7.63978L15.6163 22.1852L20.3433 23.8148L25.3575 9.26931L20.6305 7.63978ZM17.9798 20.5H14.0167V25.5H17.9798V20.5ZM16.3798 22.1842L11.3585 7.63875L6.63223 9.27034L11.6535 23.8158L16.3798 22.1842ZM8.99538 10.9545H12.4116V5.95455H8.99538V10.9545Z" fill="white" mask="url(#path-2-inside-1_1_1800)"/>
</g>
<defs>
<clipPath id="clip0_1_1800">
<rect width="32" height="32" fill="white"/>
</clipPath>
</defs>
</svg>
