<svg width="32" height="32" viewBox="0 0 32 32" fill="none" xmlns="http://www.w3.org/2000/svg">
<g clip-path="url(#clip0_1_1796)">
<rect width="32" height="32" rx="8" fill="black"/>
<mask id="path-2-inside-1_1_1796" fill="white">
<path d="M10.177 23L6.01509 8.45455H9.37447L11.7821 18.5611H11.9029L14.5591 8.45455H17.4355L20.0847 18.5824H20.2125L22.6202 8.45455H25.9796L21.8176 23H18.8205L16.0506 13.4901H15.937L13.1742 23H10.177Z"/>
</mask>
<path d="M10.177 23L7.77348 23.6877L8.29203 25.5H10.177V23ZM6.01509 8.45455V5.95455H2.69943L3.61155 9.14228L6.01509 8.45455ZM9.37447 8.45455L11.8064 7.87519L11.3489 5.95455H9.37447V8.45455ZM11.7821 18.5611L9.3502 19.1404L9.80775 21.0611H11.7821V18.5611ZM11.9029 18.5611V21.0611H13.8307L14.3208 19.1966L11.9029 18.5611ZM14.5591 8.45455V5.95455H12.6313L12.1412 7.81906L14.5591 8.45455ZM17.4355 8.45455L19.8542 7.8219L19.3657 5.95455H17.4355V8.45455ZM20.0847 18.5824L17.6661 19.215L18.1545 21.0824H20.0847V18.5824ZM20.2125 18.5824V21.0824H22.1879L22.6448 19.1606L20.2125 18.5824ZM22.6202 8.45455V5.95455H20.6449L20.188 7.87634L22.6202 8.45455ZM25.9796 8.45455L28.3831 9.14228L29.2952 5.95455H25.9796V8.45455ZM21.8176 23V25.5H23.7026L24.2212 23.6877L21.8176 23ZM18.8205 23L16.4202 23.6991L16.9448 25.5H18.8205V23ZM16.0506 13.4901L18.4509 12.791L17.9263 10.9901H16.0506V13.4901ZM15.937 13.4901V10.9901H14.0599L13.5362 12.7926L15.937 13.4901ZM13.1742 23V25.5H15.0513L15.5749 23.6975L13.1742 23ZM12.5806 22.3123L8.41864 7.76681L3.61155 9.14228L7.77348 23.6877L12.5806 22.3123ZM6.01509 10.9545H9.37447V5.95455H6.01509V10.9545ZM6.94253 9.0339L9.3502 19.1404L14.2141 17.9817L11.8064 7.87519L6.94253 9.0339ZM11.7821 21.0611H11.9029V16.0611H11.7821V21.0611ZM14.3208 19.1966L16.977 9.09003L12.1412 7.81906L9.48499 17.9256L14.3208 19.1966ZM14.5591 10.9545H17.4355V5.95455H14.5591V10.9545ZM15.0169 9.08719L17.6661 19.215L22.5033 17.9497L19.8542 7.8219L15.0169 9.08719ZM20.0847 21.0824H20.2125V16.0824H20.0847V21.0824ZM22.6448 19.1606L25.0524 9.03275L20.188 7.87634L17.7803 18.0042L22.6448 19.1606ZM22.6202 10.9545H25.9796V5.95455H22.6202V10.9545ZM23.576 7.76681L19.4141 22.3123L24.2212 23.6877L28.3831 9.14228L23.576 7.76681ZM21.8176 20.5H18.8205V25.5H21.8176V20.5ZM21.2208 22.3009L18.4509 12.791L13.6503 14.1892L16.4202 23.6991L21.2208 22.3009ZM16.0506 10.9901H15.937V15.9901H16.0506V10.9901ZM13.5362 12.7926L10.7734 22.3025L15.5749 23.6975L18.3377 14.1875L13.5362 12.7926ZM13.1742 20.5H10.177V25.5H13.1742V20.5Z" fill="white" mask="url(#path-2-inside-1_1_1796)"/>
</g>
<defs>
<clipPath id="clip0_1_1796">
<rect width="32" height="32" fill="white"/>
</clipPath>
</defs>
</svg>
