<svg width="32" height="32" viewBox="0 0 32 32" fill="none" xmlns="http://www.w3.org/2000/svg">
<g clip-path="url(#clip0_1_1816)">
<rect width="32" height="32" rx="8" fill="black"/>
<mask id="path-2-inside-1_1_1816" fill="white">
<path d="M10.438 23V21.1747L17.6966 10.9901H10.4238V8.45455H21.5602V10.2798L14.2946 20.4645H21.5744V23H10.438Z"/>
</mask>
<path d="M10.438 23H7.93803V25.5H10.438V23ZM10.438 21.1747L8.40217 19.7238L7.93803 20.375V21.1747H10.438ZM17.6966 10.9901L19.7324 12.441L22.5482 8.49006H17.6966V10.9901ZM10.4238 10.9901H7.92383V13.4901H10.4238V10.9901ZM10.4238 8.45455V5.95455H7.92383V8.45455H10.4238ZM21.5602 8.45455H24.0602V5.95455H21.5602V8.45455ZM21.5602 10.2798L23.5954 11.7317L24.0602 11.0802V10.2798H21.5602ZM14.2946 20.4645L12.2594 19.0126L9.44014 22.9645H14.2946V20.4645ZM21.5744 20.4645H24.0744V17.9645H21.5744V20.4645ZM21.5744 23V25.5H24.0744V23H21.5744ZM12.938 23V21.1747H7.93803V23H12.938ZM12.4739 22.6257L19.7324 12.441L15.6607 9.53911L8.40217 19.7238L12.4739 22.6257ZM17.6966 8.49006H10.4238V13.4901H17.6966V8.49006ZM12.9238 10.9901V8.45455H7.92383V10.9901H12.9238ZM10.4238 10.9545H21.5602V5.95455H10.4238V10.9545ZM19.0602 8.45455V10.2798H24.0602V8.45455H19.0602ZM19.525 8.82794L12.2594 19.0126L16.3298 21.9164L23.5954 11.7317L19.525 8.82794ZM14.2946 22.9645H21.5744V17.9645H14.2946V22.9645ZM19.0744 20.4645V23H24.0744V20.4645H19.0744ZM21.5744 20.5H10.438V25.5H21.5744V20.5Z" fill="white" mask="url(#path-2-inside-1_1_1816)"/>
</g>
<defs>
<clipPath id="clip0_1_1816">
<rect width="32" height="32" fill="white"/>
</clipPath>
</defs>
</svg>
