<?xml version="1.0" encoding="utf-8"?>
<!-- Generator: Adobe Illustrator 25.4.1, SVG Export Plug-In . SVG Version: 6.00 Build 0)  -->
<svg version="1.1" id="Layer_2_00000047745757099849591850000017019140228153098904_"
	 xmlns="http://www.w3.org/2000/svg" xmlns:xlink="http://www.w3.org/1999/xlink" x="0px" y="0px" viewBox="0 0 157 217.9"
	 style="enable-background:new 0 0 157 217.9;" xml:space="preserve">
<path d="M156.7,118.2c-0.7-4.6-2.2-9-4.6-12.9c-2.4-4.3-5.4-8.3-9-11.6c-2.7-7.3-5.9-15-9.8-22.9c-9.2-19-20.7-36.8-34.3-53
	c0,0-1.9-2.3-2.6-2.6c-0.4,0.2-1.1,1.2-1.1,1.2c-3.4,5.9-6.5,12-9.4,18.2c-2.9,6.4-5.2,12.4-7.2,18.1c-2.6-3.1-6.3-7.5-11.1-12.5
	C58,29.9,49.5,23,41,16.2C35.8,12,28.7,6.5,20.2,0.6c-0.9-0.5-1.9-0.6-2.8-0.5c-1.9,0.6-3.2,4.5-3.2,4.5C5.9,27.1,4.9,35.4,4.9,35.4
	C2.8,45.9,1.7,56.6,1.8,67.3c-0.1,9.1,0.5,18.2,1.7,27.3c-1.1,3.8-1.9,7.7-2.5,11.6c-0.9,6.6-1.9,13.5,0.1,21.6
	c0.9,3.8,2.3,9.6,7.1,15.1c2.4,2.7,5.3,4.9,8.4,6.8l0.1,0.1c1.1,0.6,2,1.1,2.7,1.4l2.4,2.3c6.2,5.9,12.5,11.6,18.8,17l5.7,14.6
	L79,207.5l38.3,10.4c3.7-2.8,7.2-5.7,10.6-8.9c3.1-2.9,5.9-5.8,8.3-8.6c4-9.9,7-18.4,9-24.8C153.6,151.9,158.1,125.5,156.7,118.2z
	 M140,173.8c-3.9,7.2-8.5,13.9-13.9,20l-16.4-5l-22-7.9c-9.6-12.5-18-25.9-25-40.1c-3.3-6.6-6.1-13.1-8.5-19.2
	c2.8-9.9,3.8-20.3,2.8-30.5c-0.9-9.2-3.2-18.1-7-26.5c5.2-2.2,10.7-3.8,16.4-4.7c32.6-5,58,15.8,61.7,18.9
	c6.5,5.5,20.6,17.3,25,37.2C158.6,139.9,146.8,161,140,173.8z"/>
</svg>
